/* XPM */
static char * icon_16_xpm[] = {
"16 16 180 2",
"  	c None",
". 	c #8EBEDC",
"+ 	c #629EC7",
"@ 	c #5B99C4",
"# 	c #69A3CA",
"$ 	c #81B4D5",
"% 	c #5495C1",
"& 	c #387BB2",
"* 	c #84ACD2",
"= 	c #A5C3DF",
"- 	c #A1C0DD",
"; 	c #7BA6CE",
"> 	c #538EBF",
", 	c #71A7CE",
"' 	c #4E90BE",
") 	c #4F89BB",
"! 	c #CDDEED",
"~ 	c #B4D0E2",
"{ 	c #6DA0C5",
"] 	c #659BC2",
"^ 	c #89B2D0",
"/ 	c #B6CFE4",
"( 	c #93B6D7",
"_ 	c #5993C2",
": 	c #89BBDA",
"< 	c #71AACF",
"[ 	c #397BB2",
"} 	c #D5E5F1",
"| 	c #76A6C9",
"1 	c #1367A5",
"2 	c #1E71AD",
"3 	c #2374AF",
"4 	c #196CA8",
"5 	c #1465A2",
"6 	c #5E96BF",
"7 	c #ABC7E0",
"8 	c #5E94C3",
"9 	c #7EB2D4",
"0 	c #C0E2F3",
"a 	c #2471AA",
"b 	c #AAC6E0",
"c 	c #8BB4D1",
"d 	c #1C6FAB",
"e 	c #5590C3",
"f 	c #6C9BCA",
"g 	c #78A3CE",
"h 	c #6B9BCA",
"i 	c #6295C5",
"j 	c #3F7FB5",
"k 	c #2E75AC",
"l 	c #A6C4DD",
"m 	c #5B92C1",
"n 	c #8BBDDB",
"o 	c #8DBDDB",
"p 	c #2E74AD",
"q 	c #D7E6F1",
"r 	c #1F70AA",
"s 	c #4C8CC0",
"t 	c #709DCB",
"u 	c #B8CFE5",
"v 	c #F2F7FA",
"w 	c #B2CBE3",
"x 	c #4F89BC",
"y 	c #2771A9",
"z 	c #A6C3DE",
"A 	c #528FBF",
"B 	c #6FA8CD",
"C 	c #4F8ABB",
"D 	c #AECBDF",
"E 	c #1A71AD",
"F 	c #6297C7",
"G 	c #7FA7D1",
"H 	c #F6FAFC",
"I 	c #D8E5F1",
"J 	c #FAFCFD",
"K 	c #98B9DA",
"L 	c #6A9AC9",
"M 	c #0C62A1",
"N 	c #7BA9CB",
"O 	c #6698C5",
"P 	c #7AB0D3",
"Q 	c #66A1C9",
"R 	c #578FBE",
"S 	c #9CBFD8",
"T 	c #1C73AF",
"U 	c #6397C7",
"V 	c #AAC5E0",
"W 	c #FCFEFE",
"X 	c #E3EDF5",
"Y 	c #D7E4F1",
"Z 	c #74A0CD",
"` 	c #5D94C6",
" .	c #156CA9",
"..	c #4E8BB9",
"+.	c #9BBCDB",
"@.	c #75ACD0",
"#.	c #3E7FB4",
"$.	c #B7D1E3",
"%.	c #186FAC",
"&.	c #5490C2",
"*.	c #CADBEC",
"=.	c #B1CAE2",
"-.	c #7EA7D0",
";.	c #79A3CE",
">.	c #739FCC",
",.	c #3F87BC",
"'.	c #166CA9",
").	c #87B1D0",
"!.	c #7BA7CD",
"~.	c #70A8CE",
"{.	c #8DBFDD",
"].	c #1C69A5",
"^.	c #CDDFED",
"/.	c #2976AE",
"(.	c #3883BA",
"_.	c #B1CAE3",
":.	c #97B8D9",
"<.	c #6497C7",
"[.	c #1E72AD",
"}.	c #699EC5",
"|.	c #97BAD8",
"1.	c #4185B7",
"2.	c #2572AA",
"3.	c #85AED1",
"4.	c #95BBD6",
"5.	c #1C72AE",
"6.	c #5D95C5",
"7.	c #347AB1",
"8.	c #8BB3D2",
"9.	c #6E9FC7",
"0.	c #5A98C3",
"a.	c #72ABD0",
"b.	c #216CA7",
"c.	c #CCDEED",
"d.	c #659CC3",
"e.	c #2778B2",
"f.	c #6598C8",
"g.	c #5089BD",
"h.	c #7CAACC",
"i.	c #6398C4",
"j.	c #72AACF",
"k.	c #4187B8",
"l.	c #DAE8F2",
"m.	c #88B2D0",
"n.	c #2E7AB1",
"o.	c #4082B8",
"p.	c #3D7FB5",
"q.	c #6198C1",
"r.	c #9ABDD9",
"s.	c #6DA6CD",
"t.	c #2CA14C",
"u.	c #41BAD4",
"v.	c #50C2EC",
"w.	c #B3D9EE",
"x.	c #357EB2",
"y.	c #367AB0",
"z.	c #BED5E7",
"A.	c #E2EEF5",
"B.	c #BFD7E7",
"C.	c #CBDEEB",
"D.	c #4C8CBC",
"E.	c #DB354B",
"F.	c #4DAC64",
"G.	c #43B8BF",
"H.	c #BADDF0",
"I.	c #5999C4",
"J.	c #1565A2",
"K.	c #4181B4",
"L.	c #669AC4",
"M.	c #4C89B9",
"N.	c #387FB3",
"O.	c #A4CDE6",
"P.	c #DA2E45",
"Q.	c #58B06D",
"R.	c #44B8BF",
"S.	c #50C3ED",
"T.	c #A5D0E7",
"U.	c #7EB3D4",
"V.	c #6CA6CD",
"W.	c #7AB1D3",
"        . + @ # $               ",
"      % & * = - ; > ,           ",
"    ' ) ! ~ { ] ^ / ( _ :       ",
"  < [ } | 1 2 3 4 5 6 7 8 9     ",
"0 a b c d e f g h i j k l m n   ",
"o p q r s t u v w t t x y z A   ",
"B C D E F G H I J K t L M N O P ",
"Q R S T U V W X v Y Z `  ...+.+ ",
"@.#.$.%.&.*.H =.-.;.>.,.'.).!.~.",
"{.].^./.(._.:.t t t <.[.}.|.1.  ",
"  2.3.4.5.6.t t t t 7.8.9.0.    ",
"  a.b.c.d.e.f.t t g.h.i.j.      ",
"    k.#.l.m.n.o.p.q.r.s.  t.u.v.",
"    w.x.y.z.A.B.C./ D.  E.F.G.v.",
"      H.I.J.K.L.M.N.O.  P.Q.R.S.",
"          T.U.V.W.              "};
