/* XPM */
static char * icon_xpm[] = {
"48 47 740 2",
"  	c None",
". 	c #D2ECF9",
"+ 	c #CFEBF8",
"@ 	c #C9E8F7",
"# 	c #C1E4F5",
"$ 	c #BDE2F4",
"% 	c #C0E4F5",
"& 	c #C7E7F6",
"* 	c #CBE9F7",
"= 	c #C5E8F7",
"- 	c #E0F3FB",
"; 	c #CDEAF8",
"> 	c #C0E3F4",
", 	c #A4D0E8",
"' 	c #6EA8CE",
") 	c #458ABA",
"! 	c #307AB0",
"~ 	c #2572AA",
"{ 	c #216FA8",
"] 	c #2774AC",
"^ 	c #327CB1",
"/ 	c #488CBB",
"( 	c #6AA5CC",
"_ 	c #97C7E2",
": 	c #BCE0F2",
"< 	c #BFE4F5",
"[ 	c #8CBEDD",
"} 	c #3C83B6",
"| 	c #0B5F9E",
"1 	c #075C9C",
"2 	c #0C5F9E",
"3 	c #1464A2",
"4 	c #246EA9",
"5 	c #2F75AE",
"6 	c #3377B0",
"7 	c #256FA9",
"8 	c #1666A3",
"9 	c #0E609F",
"0 	c #1E6DA7",
"a 	c #4E91BF",
"b 	c #8BBEDC",
"c 	c #BBDFF1",
"d 	c #CCEAF8",
"e 	c #C7E8F7",
"f 	c #AFD9EE",
"g 	c #4F91BF",
"h 	c #095E9D",
"i 	c #085C9C",
"j 	c #1565A2",
"k 	c #397BB3",
"l 	c #5A8FC1",
"m 	c #6D9BCA",
"n 	c #709DCB",
"o 	c #6F9CCB",
"p 	c #6295C5",
"q 	c #4C87BB",
"r 	c #3076AE",
"s 	c #2C77AE",
"t 	c #70AACF",
"u 	c #B3D9EE",
"v 	c #D0EBF8",
"w 	c #C6E7F7",
"x 	c #A0CDE6",
"y 	c #2B77AD",
"z 	c #3679B1",
"A 	c #6697C7",
"B 	c #76A1CD",
"C 	c #82AAD2",
"D 	c #90B3D7",
"E 	c #9EBDDC",
"F 	c #A2C0DD",
"G 	c #9DBDDC",
"H 	c #84ABD2",
"I 	c #7AA4CF",
"J 	c #719ECB",
"K 	c #6999C8",
"L 	c #4B86BB",
"M 	c #236DA8",
"N 	c #6FA9CF",
"O 	c #B1D9EE",
"P 	c #95C5E1",
"Q 	c #1F6EA8",
"R 	c #1162A0",
"S 	c #5089BD",
"T 	c #7DA6D0",
"U 	c #A8C4E0",
"V 	c #D6E5F1",
"W 	c #F0F7FA",
"X 	c #F7FCFD",
"Y 	c #F3F9FC",
"Z 	c #E0ECF5",
"` 	c #C4D8EA",
" .	c #9BBBDB",
"..	c #7EA7D0",
"+.	c #6E9CCA",
"@.	c #558CBF",
"#.	c #266FAA",
"$.	c #2D77AE",
"%.	c #86BAD9",
"&.	c #C3E4F4",
"*.	c #C8E8F7",
"=.	c #93C4E0",
"-.	c #5A90C1",
";.	c #729ECC",
">.	c #9CBCDB",
",.	c #E0ECF4",
"'.	c #F4FAFC",
").	c #E6F0F6",
"!.	c #DAE8F1",
"~.	c #D7E6F0",
"{.	c #DBEAF2",
"].	c #E7F1F6",
"^.	c #F6FBFD",
"/.	c #E4EFF6",
"(.	c #BBD2E7",
"_.	c #88AED4",
":.	c #6D9BC9",
"<.	c #4F88BC",
"[.	c #206CA7",
"}.	c #4A8DBC",
"|.	c #AFD7EC",
"1.	c #C4E7F7",
"2.	c #9DCBE5",
"3.	c #2471AA",
"4.	c #5C91C2",
"5.	c #BCD2E7",
"6.	c #F2F8FB",
"7.	c #F6FCFD",
"8.	c #DBE9F1",
"9.	c #91B7D3",
"0.	c #4D8BB8",
"a.	c #3278AD",
"b.	c #236FA7",
"c.	c #1F6CA6",
"d.	c #2570A8",
"e.	c #3379AE",
"f.	c #4987B6",
"g.	c #78A7C9",
"h.	c #B6D1E3",
"i.	c #E4EFF5",
"j.	c #ECF4F9",
"k.	c #C1D6E9",
"l.	c #86ACD3",
"m.	c #719DCB",
"n.	c #6797C7",
"o.	c #387AB2",
"p.	c #2773AB",
"q.	c #8ABDDC",
"r.	c #D2ECF8",
"s.	c #B0D9EE",
"t.	c #337CB1",
"u.	c #1162A1",
"v.	c #578EC0",
"w.	c #CDDEED",
"x.	c #EFF6FA",
"y.	c #95BBD5",
"z.	c #2A73AA",
"A.	c #085D9C",
"B.	c #0D609E",
"C.	c #3077AD",
"D.	c #75A5C8",
"E.	c #C6DBE9",
"F.	c #F3FAFC",
"G.	c #E8F1F8",
"H.	c #AFC9E2",
"I.	c #78A3CE",
"J.	c #5189BD",
"K.	c #1F6CA7",
"L.	c #69A5CC",
"M.	c #BEE2F3",
"N.	c #5394C1",
"O.	c #0B5E9E",
"P.	c #4A85BA",
"Q.	c #79A4CF",
"R.	c #D1E1EF",
"S.	c #E0ECF3",
"T.	c #6097C0",
"U.	c #095E9E",
"V.	c #0D63A1",
"W.	c #0F65A3",
"X.	c #0F65A4",
"Y.	c #0E64A2",
"Z.	c #0B61A0",
"`.	c #085D9D",
" +	c #1867A3",
".+	c #6198C0",
"++	c #D4E3F0",
"@+	c #8BB0D5",
"#+	c #6093C4",
"$+	c #5293C0",
"%+	c #B8DDF0",
"&+	c #C5E7F7",
"*+	c #87BBDA",
"=+	c #0E61A0",
"-+	c #739FCC",
";+	c #C7DBEB",
">+	c #3E80B2",
",+	c #166CA9",
"'+	c #1D74B0",
")+	c #1F77B2",
"!+	c #2078B3",
"~+	c #1F77B3",
"{+	c #1E76B1",
"]+	c #1C73AF",
"^+	c #156CA9",
"/+	c #0D63A2",
"(+	c #1968A3",
"_+	c #77A7C9",
":+	c #E2EEF5",
"<+	c #EBF4F9",
"[+	c #A0BFDD",
"}+	c #2B72AC",
"|+	c #4489BA",
"1+	c #B9DEF0",
"2+	c #D5EEF9",
"3+	c #B3DBEF",
"4+	c #2B77AE",
"5+	c #1766A3",
"6+	c #6495C5",
"7+	c #ADC8E2",
"8+	c #F5FAFC",
"9+	c #DDEAF2",
"0+	c #3178AD",
"a+	c #146BA9",
"b+	c #2179B3",
"c+	c #2E7EB7",
"d+	c #3D85BC",
"e+	c #478ABF",
"f+	c #4D8DC0",
"g+	c #4D8DC1",
"h+	c #4A8BC0",
"i+	c #4488BE",
"j+	c #3C85BB",
"k+	c #3280B8",
"l+	c #2476B1",
"m+	c #1166A4",
"n+	c #095D9D",
"o+	c #BED6E6",
"p+	c #F2F9FB",
"q+	c #B3CCE4",
"r+	c #6998C8",
"s+	c #2E74AD",
"t+	c #4388B9",
"u+	c #C9E9F7",
"v+	c #76AED2",
"w+	c #4683B8",
"x+	c #8BAFD5",
"y+	c #EBF4F8",
"z+	c #3C7FB1",
"A+	c #0C61A0",
"B+	c #1B72AE",
"C+	c #2279B3",
"D+	c #5F95C6",
"E+	c #6B9BCA",
"F+	c #6F9DCB",
"G+	c #6D9CCA",
"H+	c #6A9AC9",
"I+	c #6397C7",
"J+	c #4B88BC",
"K+	c #2871AB",
"L+	c #95BAD5",
"M+	c #BCD3E8",
"N+	c #729FCC",
"O+	c #6898C7",
"P+	c #2971AB",
"Q+	c #4E91BE",
"R+	c #B9DFF2",
"S+	c #D9EFF9",
"T+	c #B5DDF1",
"U+	c #2A76AD",
"V+	c #1967A4",
"W+	c #C7DAEB",
"X+	c #6A9DC4",
"Y+	c #0D62A2",
"Z+	c #1D75B1",
"`+	c #267BB5",
" @	c #5590C3",
".@	c #6E9CCB",
"+@	c #3579B1",
"@@	c #7EABCB",
"#@	c #BAD1E6",
"$@	c #6596C6",
"%@	c #1E6BA6",
"&@	c #CAEAF7",
"*@	c #8FC1DE",
"=@	c #3E7EB4",
"-@	c #EEF6FA",
";@	c #BAD3E4",
">@	c #1062A0",
",@	c #0A609F",
"'@	c #2379B4",
")@	c #5691C3",
"!@	c #A6C2DF",
"~@	c #AAC5E0",
"{@	c #89AED4",
"]@	c #548CBF",
"^@	c #0B5E9D",
"/@	c #7FABCC",
"(@	c #F3F9FB",
"_@	c #ACC8E1",
":@	c #588EC0",
"<@	c #1A69A5",
"[@	c #90C1DE",
"}@	c #C2E6F6",
"|@	c #0D609F",
"1@	c #5B90C2",
"2@	c #B9D0E6",
"3@	c #4384B4",
"4@	c #1A71AE",
"5@	c #4087BD",
"6@	c #EAF2F7",
"7@	c #FCFEFE",
"8@	c #FAFDFD",
"9@	c #C6D8EA",
"0@	c #79A3CE",
"a@	c #568DBF",
"b@	c #0A5E9D",
"c@	c #9ABED7",
"d@	c #91B4D7",
"e@	c #3B7CB3",
"f@	c #2D78AE",
"g@	c #B7DDF0",
"h@	c #DCF1FA",
"i@	c #B7DEF1",
"j@	c #2371AA",
"k@	c #1B68A5",
"l@	c #729ECB",
"m@	c #DBE8F3",
"n@	c #BBD4E4",
"o@	c #1066A4",
"p@	c #DEEAF3",
"q@	c #DAE6F1",
"r@	c #2C73AC",
"s@	c #1A68A3",
"t@	c #CBDEEB",
"u@	c #DCE9F3",
"v@	c #1A68A4",
"w@	c #619FC8",
"x@	c #C4E6F6",
"y@	c #A5D1E9",
"z@	c #3075AE",
"A@	c #86ADD3",
"B@	c #EDF5F9",
"C@	c #74A5C8",
"D@	c #B4CCE4",
"E@	c #FBFEFE",
"F@	c #CEDEED",
"G@	c #518ABD",
"H@	c #4887B6",
"I@	c #ACC7E1",
"J@	c #1667A3",
"K@	c #CEEBF8",
"L@	c #84B8D9",
"M@	c #4281B7",
"N@	c #96B8D9",
"O@	c #377CAF",
"P@	c #E7F0F7",
"Q@	c #F2F7FA",
"R@	c #F8FBFD",
"S@	c #FAFCFD",
"T@	c #AEC8E2",
"U@	c #6497C7",
"V@	c #0F64A3",
"W@	c #0F619F",
"X@	c #B0CDE0",
"Y@	c #7FA8D1",
"Z@	c #5595C2",
"`@	c #C5E6F6",
" #	c #4E88BC",
".#	c #A7C4DF",
"+#	c #DBE9F2",
"@#	c #4E8DC0",
"##	c #A9C4E0",
"$#	c #FBFDFE",
"%#	c #B8CFE5",
"&#	c #EFF5F9",
"*#	c #1B73AF",
"=#	c #558FBB",
"-#	c #A6C3DF",
";#	c #387BB2",
">#	c #1868A4",
",#	c #B1DAEE",
"'#	c #C8E9F7",
")#	c #65A1C9",
"!#	c #548BBE",
"~#	c #B0CAE3",
"{#	c #C9DDEA",
"]#	c #1666A2",
"^#	c #1369A7",
"/#	c #508EC1",
"(#	c #75A0CD",
"_#	c #D8E5F1",
":#	c #F8FBFC",
"<#	c #E5EEF6",
"[#	c #D1E0EE",
"}#	c #75A1CD",
"|#	c #5992C4",
"1#	c #246FA8",
"2#	c #D3E3F0",
"3#	c #74A0CD",
"4#	c #528ABE",
"5#	c #82B7D8",
"6#	c #CBEAF7",
"7#	c #C6E8F7",
"8#	c #5F9DC7",
"9#	c #548CBE",
"0#	c #B1CBE3",
"a#	c #C2D8E7",
"b#	c #1364A1",
"c#	c #146BA8",
"d#	c #4E8DC1",
"e#	c #87ADD3",
"f#	c #C9DBEB",
"g#	c #D5E3F0",
"h#	c #A2BFDD",
"i#	c #166DAA",
"j#	c #C8DDEA",
"k#	c #EBF3F8",
"l#	c #6194C4",
"m#	c #5495C2",
"n#	c #629FC8",
"o#	c #AAC6E0",
"p#	c #C7DCE9",
"q#	c #136AA7",
"r#	c #4689BE",
"s#	c #A8C4DF",
"t#	c #80A8D1",
"u#	c #2F7FB8",
"v#	c #1C74B0",
"w#	c #1263A0",
"x#	c #C4D9E8",
"y#	c #F6FBFC",
"z#	c #8CB0D5",
"A#	c #6798C7",
"B#	c #3E85B7",
"C#	c #C3E5F5",
"D#	c #4884B9",
"E#	c #9DBCDB",
"F#	c #1D6BA5",
"G#	c #1167A5",
"H#	c #3983BA",
"I#	c #CBDCEC",
"J#	c #F9FCFD",
"K#	c #DFEAF3",
"L#	c #A3C0DE",
"M#	c #9ABADA",
"N#	c #A1BFDD",
"O#	c #B7CEE5",
"P#	c #6196C6",
"Q#	c #2279B4",
"R#	c #D3E4EE",
"S#	c #F5FBFC",
"T#	c #4086B8",
"U#	c #C3E5F6",
"V#	c #D1ECF8",
"W#	c #7AB1D4",
"X#	c #8CB1D6",
"Y#	c #2F76AC",
"Z#	c #0D62A1",
"`#	c #287CB5",
" $	c #E1EBF4",
".$	c #97B8D9",
"+$	c #78A2CE",
"@$	c #4087BC",
"#$	c #1E75B1",
"$$	c #4F8CB9",
"%$	c #E7F1F7",
"&$	c #4A86BA",
"*$	c #5F9DC6",
"=$	c #5F97C0",
"-$	c #085E9D",
";$	c #5E95C6",
">$	c #F0F6FA",
",$	c #F5F9FB",
"'$	c #B3CBE3",
")$	c #6598C7",
"!$	c #176DAA",
"~$	c #C1D8E7",
"{$	c #BCD3E7",
"]$	c #6B9AC9",
"^$	c #206BA7",
"/$	c #0C609F",
"($	c #9BCAE4",
"_$	c #B1DAEF",
":$	c #1365A2",
"<$	c #6697C6",
"[$	c #CFE0EE",
"}$	c #A2C3DB",
"|$	c #176EAB",
"1$	c #468ABE",
"2$	c #F5F9FC",
"3$	c #ECF3F8",
"4$	c #4288BD",
"5$	c #1C74AF",
"6$	c #99BDD7",
"7$	c #DBE9F3",
"8$	c #7DA7D0",
"9$	c #4E90BE",
"0$	c #C2E5F5",
"a$	c #BBE1F4",
"b$	c #3981B4",
"c$	c #528BBE",
"d$	c #ABC6E1",
"e$	c #DFEBF3",
"f$	c #216DA6",
"g$	c #2077B3",
"h$	c #2C7EB7",
"i$	c #1970AD",
"j$	c #1767A2",
"k$	c #9CBFD8",
"l$	c #81AAD1",
"m$	c #6CA7CD",
"n$	c #85ACD3",
"o$	c #73A4C8",
"p$	c #538FC2",
"q$	c #A4C1DE",
"r$	c #BED3E8",
"s$	c #82A9D1",
"t$	c #1267A6",
"u$	c #2972A9",
"v$	c #BDD5E5",
"w$	c #C8DBEC",
"x$	c #709ECA",
"y$	c #357EB2",
"z$	c #ABD5EB",
"A$	c #A1CEE7",
"B$	c #1263A1",
"C$	c #C6D9EB",
"D$	c #0C62A1",
"E$	c #307FB8",
"F$	c #5892C4",
"G$	c #1B71AC",
"H$	c #0A5F9F",
"I$	c #538EBB",
"J$	c #E1EDF4",
"K$	c #A4C2DE",
"L$	c #1363A1",
"M$	c #5092BF",
"N$	c #B6DCF0",
"O$	c #BAE1F3",
"P$	c #3C83B5",
"Q$	c #3F7EB5",
"R$	c #92B5D8",
"S$	c #F1F8FB",
"T$	c #85B0CF",
"U$	c #6C9BCA",
"V$	c #2773AE",
"W$	c #87B1D0",
"X$	c #F1F8FA",
"Y$	c #DAE8F2",
"Z$	c #81A9D1",
"`$	c #3277AF",
" %	c #1466A2",
".%	c #88BCDB",
"+%	c #6496C6",
"@%	c #C9DBEC",
"#%	c #6498C7",
"$%	c #4583B8",
"%%	c #A8C7DC",
"&%	c #C3D7EA",
"*%	c #1C69A5",
"=%	c #347DB2",
"-%	c #A3CFE7",
";%	c #D6EEF9",
">%	c #B6DDF1",
",%	c #317BB1",
"'%	c #3578B0",
")%	c #D6E6F0",
"!%	c #1E6BA5",
"~%	c #0B60A0",
"{%	c #3582B9",
"]%	c #6B9BC9",
"^%	c #1866A3",
"/%	c #A2C3DA",
"(%	c #B7CFE5",
"_%	c #5D91C2",
":%	c #5D9BC6",
"<%	c #BFE2F3",
"[%	c #D7EFF9",
"}%	c #CAE9F7",
"|%	c #B9D2E4",
"1%	c #1766A2",
"2%	c #6E9BCA",
"3%	c #3377AF",
"4%	c #699DC3",
"5%	c #BED4E8",
"6%	c #6094C4",
"7%	c #1566A3",
"8%	c #81B6D7",
"9%	c #BCE2F4",
"0%	c #478BBB",
"a%	c #D0E0EF",
"b%	c #B3CEE1",
"c%	c #1B69A4",
"d%	c #0B609F",
"e%	c #4482B8",
"f%	c #2671A9",
"g%	c #D5E5EF",
"h%	c #6E9DCA",
"i%	c #98C7E2",
"j%	c #C4E6F7",
"k%	c #0DACE5",
"l%	c #A5D0E9",
"m%	c #206FA8",
"n%	c #2870AB",
"o%	c #78A3CD",
"p%	c #E1EDF5",
"q%	c #C0D7E7",
"r%	c #146AA8",
"s%	c #6095C6",
"t%	c #407FB6",
"u%	c #A7C6DD",
"v%	c #90B4D7",
"w%	c #3478B0",
"x%	c #1466A3",
"y%	c #75CFF0",
"z%	c #09AAE5",
"A%	c #96DBF4",
"B%	c #80B6D7",
"C%	c #83ABD2",
"D%	c #E6F0F7",
"E%	c #DAE9F1",
"F%	c #6298C0",
"G%	c #1163A0",
"H%	c #2176B1",
"I%	c #3B83BA",
"J%	c #6296C6",
"K%	c #5F94C5",
"L%	c #4A87BC",
"M%	c #226EA9",
"N%	c #94BAD5",
"O%	c #BFD5E8",
"P%	c #5B90C1",
"Q%	c #1163A1",
"R%	c #80B5D6",
"S%	c #C5E7F6",
"T%	c #3BA858",
"U%	c #33A451",
"V%	c #BEE3F5",
"W%	c #63A0C9",
"X%	c #87AED3",
"Y%	c #E2EDF5",
"Z%	c #B1CDE0",
"`%	c #4C8AB8",
" &	c #1465A1",
".&	c #0E64A3",
"+&	c #AECBDF",
"@&	c #DEEAF4",
"#&	c #7AA5CE",
"$&	c #236EA9",
"%&	c #498DBC",
"&&	c #C7E7F5",
"*&	c #289F48",
"=&	c #1F9B40",
"-&	c #4CAF67",
";&	c #BAE0F3",
">&	c #5294C0",
",&	c #2D74AD",
"'&	c #7CA6CF",
")&	c #D5E4F0",
"!&	c #7DABCC",
"~&	c #367BAF",
"{&	c #397DB0",
"]&	c #5892BD",
"^&	c #9DC0D8",
"/&	c #E4F0F5",
"(&	c #E8F1F7",
"_&	c #8EB2D6",
":&	c #397BB2",
"<&	c #1969A5",
"[&	c #A7D1E8",
"}&	c #E56B7B",
"|&	c #DA3248",
"1&	c #DD4357",
"2&	c #CBE9F8",
"3&	c #B8DEF2",
"4&	c #1D6AA6",
"5&	c #6295C4",
"6&	c #B8D0E6",
"7&	c #ECF5F9",
"8&	c #92B5D7",
"9&	c #4180B6",
"0&	c #6AA6CC",
"a&	c #E05164",
"b&	c #D40E28",
"c&	c #D92940",
"d&	c #C0D5BE",
"e&	c #CAE9F8",
"f&	c #B9E0F2",
"g&	c #5B9AC5",
"h&	c #3A7CB3",
"i&	c #83ABD1",
"j&	c #CBDDED",
"k&	c #80A9D0",
"l&	c #4288B9",
"m&	c #BBDFF2",
"n&	c #79B0D3",
"o&	c #77A3CC",
"p&	c #D2E2EF",
"q&	c #E3EEF6",
"r&	c #EAF3F8",
"s&	c #E9F2F8",
"t&	c #1E6AA6",
"u&	c #ADD5EB",
"v&	c #D4EDF9",
"w&	c #3B82B5",
"x&	c #397CB2",
"y&	c #528CBD",
"z&	c #5D93C1",
"A&	c #5D92C1",
"B&	c #4E88BB",
"C&	c #3880B4",
"D&	c #A9D3EA",
"E&	c #D0EBF9",
"F&	c #C4E7F6",
"G&	c #B7DFF2",
"H&	c #7DB3D6",
"I&	c #1063A0",
"J&	c #5C9BC5",
"K&	c #B4DBEF",
"L&	c #B6DEF1",
"M&	c #87BADA",
"N&	c #468ABA",
"O&	c #1A6AA5",
"P&	c #9CCAE4",
"Q&	c #E77887",
"R&	c #DE4559",
"S&	c #59B572",
"T&	c #52B26C",
"U&	c #75C189",
"V&	c #94DAF4",
"W&	c #41BDEB",
"X&	c #AEE3F6",
"Y&	c #D0ECF8",
"Z&	c #7DB3D5",
"`&	c #6DA7CE",
" *	c #6BA6CD",
".*	c #78B0D3",
"+*	c #C1E5F5",
"@*	c #CBEAF8",
"                            . + @ # $ $ % & * = -                                               ",
"                        ; > , ' ) ! ~ { ] ^ / ( _ : &                                           ",
"                    ; < [ } | 1 2 3 4 5 6 5 7 8 9 0 a b c d                                     ",
"                  e f g h i j k l m n n n n n o p q r 8 s t u v                                 ",
"                w x y 1 2 z A n B C D E F G D H I J n K L M ~ N O                               ",
"              * P Q 1 R S n T U V W X X X X X Y Z `  ...J +.@.#.$.%.&.                          ",
"            *.=.0 1 j -.;.>.,.X X X '.).!.~.{.].'.X ^./.(._.;.:.<.[.}.|.                        ",
"          1.2.3.1 j 4.B 5.6.X 7.8.9.0.a.b.c.d.e.f.g.h.i.X j.k.l.m.n.o.p.q.;                     ",
"        r.s.t.1 u.v.I w.X X x.y.z.A.1 1 1 1 1 1 1 1 B.C.D.E.F.G.H.I.o J.K.L.M.                  ",
"        > N.A.O.P.Q.R.X X S.T.2 1 1 U.V.W.X.Y.Z.`.1 1 1 1  +.+E.'.++@+n #+4 $+%+                ",
"      &+*+=+1 6 -+;+^.X ~.>+1 1 Z.,+'+)+!+!+~+{+]+^+/+`.1 1 1 (+_+:+<+[+n n.}+|+1+              ",
"    2+3+4+1 5+6+7+8+X 9+0+1 U.a+{+b+c+d+e+f+g+h+i+j+k+l+m+`.1 1 n+e.o+p+q+;.r+s+t+c             ",
"    u+v+`.i w+x+<+X y+z+1 A+B+C+d+D+E+F+n n n n n F+G+H+I+J+K+2 1 1 j L+'.M+N+O+P+Q+R+          ",
"  S+T+U+1 V+r+W+X 7.X+A.Y+Z+`+ @.@n n n n n n n n n n n n n +.#++@O.1 2 @@Y #@J $@%@( *.        ",
"  &@*@A.1 =@@+-@X ;@>@,@Z+'@)@n n n n n ..!@~@{@n n n n n n n n o ]@>@1 ^@/@(@_@n :@<@[@        ",
"  }@N.1 |@1@2@X (@3@1 4@!+5@n n n n n @+6@7@7@8@9@0@n n n n n n n n a@b@1 B.c@-@d@n e@f@g@      ",
"h@i@j@1 k@l@m@X n@>@o@!+'@I+n n n n I p@7@7@7@7@7@q@I n n n n n n n n r@1 1 s@t@u@I O+v@w@*.    ",
"x@y@n+1 z@A@B@X C@1 B+!+k+n n n n n D@E@7@7@7@7@7@7@F@-+n n n n n n n G@1 1 1 H@W I@n w+J@y@    ",
"K@L@1 1 M@N@7.(@O@Z.)+!+i+n n n n ..P@7@7@Q@R@7@7@7@S@T@n n n n n n n U@V@1 1 W@X@/.Y@O+5+Z@`@  ",
"K@' 1 i  #.#X +#c.o@!+!+@#n n n n ##$#7@7@T@%#$#7@7@7@&#{@n n n n n n I+*#`.1 1 =#8+-#n ;#>#,#  ",
"'#)#1 n+!#~#X {#]#^#!+!+/#n n n (#_#7@7@:#C 0@<#7@7@7@7@[#}#n n n n n |#!+W.1 1 1#9+2#3#4#b@5#6#",
"7#8#1 b@9#0#X a#b#c#!+!+d#n n n e#Q@7@7@8@f#g#:#7@7@7@7@R@h#n n n n n e+!+i#1 1 ]#j#k#C l#W@m#K@",
"e n#1 `.G@o#X p#j q#!+!+r#n n n s#7@7@7@7@7@7@7@7@7@7@7@7@<#t#n n n F+u#!+v#1 1 w#x#y#z#A#>@B#C#",
"* ( 1 1 D#E#X ~.F#G#!+!+H#n n J I#7@7@7@7@7@7@J#K#5.L#M#N#O#E#n n n P#Q#!+{+`.1 F#R#S#@+#+9 T#U#",
"V#W#1 1 o.X#6.x.Y#Z#)+!+`#+.n 0@ $7@7@7@7@$#q@.$+$n n n n n J n n n @$!+!+#$A.1 $$6.%$t#&$n+*$; ",
"e _ 1 1 4 T /.X =$-$#$!+C+;$n t#>$7@7@7@,$'$0@n n n n n n n n n n )$`+!+!+!$1 v@~$X {$]$^$/$($v ",
"* _$:$1 3 <$[$X }$^@|$!+!+1$n C 2$7@7@3$E#;.n n n n n n n n n n n 4$!+!+5$,@w#6$y#7$8$+@`.9$0$  ",
"  a$b$1 h c$d$X e$f$/+g$!+h$m T 6@7@<#D m.n n n n n n n n n n n P#`+!+i$,@j$k$'.m@l$+@n+^ O     ",
"  e m$1 1 z@n$k#X o$A.4@!+b+p$J q$r$s$n n n n n n n n n n n n F+j+{+t$`.u$v$'.w$x$#.`.y$z$      ",
"  &+A$/$1 B$p C$X !.(+D$!+!+E$G+m.J n n n n n n n n n n n n n F$G$H$1 I$J$-@K$G@L$h M$N$        ",
"    O$P$1 1 Q$R$S$X T$`.^+!+b+d#n n n n n n n n n n n n n n U$V$`.B.W$X$Y$Z$`$n+ %W#>           ",
"    1..%n+1 3 +%@%X S$z+`.B+!+`##%n n n n n n n n n n n n n $%n+j %%S#&%<$*%A.=%-%*.            ",
"    ;%>%,%1 1 '%A@B@X )%!%~%'+!+{%]%n n n n n n n n n n n $@^%W@/%S#(%_%B$|@:%<%[%              ",
"      }%.%|@1 2 9#T@S#X |%1%A+v#!+@$U$n n n n n n n n n 2%3%1 4%p+5%6%R 7%8%@                   ",
"        9%0%1 1 V+K a%X X b%c%d%4@!+5@H+n n n n n n n +.e%b@f%g%V h%V+>#i%j%            k%k%    ",
"        e l%m%1 1 n%o%p%X 7.q%Y#U.r%{+{%s%o n n n n ]$t%O.b#u%S$v%w%x%i%@             y%z%z%A%  ",
"          &+B%>@1 1 `$C%D%X X E%F%G%Z.c#H%I% @J%K%L%M%A.]#N%'.O%P%Q%R%S%        T%U%  y%z%z%A%  ",
"            V%W%| 1 1 w%X%Y%X X p+Z%`% &h D$.&V@A+`.b@O@+&'.@&#&$&%&&&          *&=&-&y%z%z%A%  ",
"            K@;&>&h 1 1 ,&'&)&7.X X W ~$!&`%~&C.{&]&^&/&X (&_&:&<&[&    }&|&1&  *&=&-&y%z%z%A%  ",
"              2&3&g h 1 1 4&5&6&-@X X X X ^.7&].x.X X X /.8&9&|@0&&     a&b&c&d&*&=&-&y%z%z%A%  ",
"                e&f&g&| 1 1 W@h&i&j&W X X X X X X X Y w.k&o.O.l&m&      a&b&c&d&*&=&-&y%z%z%A%  ",
"                  + $ n& %1 1 i j =@o&~#p&q&r&s&u@k._&9#t&n+^ u&        a&b&c&d&*&=&-&y%z%z%A%  ",
"                    v&}@($w&A.1 1 1 W@^$x&y&z&A&B&3%v@b@i C&D&E&        a&b&c&d&*&=&-&y%z%z%A%  ",
"                        F&G&H&f@A.1 1 1 1 1 `.`.1 1 1 I&J&K&+           a&b&c&d&*&=&-&y%z%z%A%  ",
"                          V#w L&M&N&O&i 1 1 1 1 1 <&a P&#               Q&R&a&  S&T&U&V&W&W&X&  ",
"                              Y&u+V%>%P&Z&`& *.*i%>%+*;                                         ",
"                                    e v }%w 7#@*d                                               "};
