/* XPM */
static char * wait_xpm[] = {
"54 54 212 2",
"  	c None",
". 	c #D5D6D5",
"+ 	c #000000",
"@ 	c #EEAE00",
"# 	c #E6A100",
"$ 	c #DE9900",
"% 	c #D58900",
"& 	c #D58108",
"* 	c #C57100",
"= 	c #BD6908",
"- 	c #B45D08",
"; 	c #B45508",
"> 	c #A44808",
", 	c #A44008",
"' 	c #9C3008",
") 	c #942810",
"! 	c #8B1C08",
"~ 	c #F6BA00",
"{ 	c #F6B600",
"] 	c #EEA508",
"^ 	c #DE9500",
"/ 	c #DE8D08",
"( 	c #CD7D00",
"_ 	c #CD7508",
": 	c #BD6508",
"< 	c #BD5D08",
"[ 	c #AC4C10",
"} 	c #A43C08",
"| 	c #9C3410",
"1 	c #942808",
"2 	c #942010",
"3 	c #8B1410",
"4 	c #831010",
"5 	c #EEB200",
"6 	c #CD7908",
"7 	c #7B0410",
"8 	c #830C08",
"9 	c #8B1C10",
"0 	c #942408",
"a 	c #A44408",
"b 	c #C56D08",
"c 	c #C57500",
"d 	c #BD6108",
"e 	c #F6BE00",
"f 	c #7B0010",
"g 	c #7B0810",
"h 	c #9C3010",
"i 	c #B45908",
"j 	c #C57108",
"k 	c #D57D08",
"l 	c #DE9908",
"m 	c #AC4410",
"n 	c #DEAE31",
"o 	c #7B0408",
"p 	c #830C10",
"q 	c #8B1808",
"r 	c #942410",
"s 	c #AC5008",
"t 	c #BD6900",
"u 	c #CD8100",
"v 	c #DE9108",
"w 	c #C57900",
"x 	c #8B2010",
"y 	c #E6AE31",
"z 	c #830810",
"A 	c #BD716A",
"B 	c #E6CEC5",
"C 	c #FFF6F6",
"D 	c #FFFFFF",
"E 	c #F6DECD",
"F 	c #DEAA62",
"G 	c #D58908",
"H 	c #CD7D08",
"I 	c #290008",
"J 	c #DEAE29",
"K 	c #D5A5A4",
"L 	c #EED29C",
"M 	c #E69D00",
"N 	c #4A3800",
"O 	c #AC818B",
"P 	c #C5AE83",
"Q 	c #DEDEDE",
"R 	c #E6DEE6",
"S 	c #838183",
"T 	c #737173",
"U 	c #524C52",
"V 	c #525052",
"W 	c #A4A1A4",
"X 	c #C5C2C5",
"Y 	c #4A4C4A",
"Z 	c #FFF639",
"` 	c #F6EA31",
" .	c #D5CE20",
"..	c #C5BA18",
"+.	c #A49D08",
"@.	c #FFFA39",
"#.	c #DED229",
"$.	c #BDB618",
"%.	c #7B7D7B",
"&.	c #BDBA18",
"*.	c #837D83",
"=.	c #FF999C",
"-.	c #FF1010",
";.	c #FF0000",
">.	c #FF2829",
",.	c #FF0808",
"'.	c #FF4C52",
").	c #FFD2D5",
"!.	c #FF9194",
"~.	c #FF2C29",
"{.	c #F6F6F6",
"].	c #F6F2EE",
"^.	c #FFDADE",
"/.	c #FFC6CD",
"(.	c #FFAEAC",
"_.	c #FF2020",
":.	c #F6F6E6",
"<.	c #FFF6EE",
"[.	c #FF8583",
"}.	c #F6F2D5",
"|.	c #F6F2CD",
"1.	c #FFCACD",
"2.	c #EEEAAC",
"3.	c #F6EEA4",
"4.	c #FFAEB4",
"5.	c #FFEAEE",
"6.	c #EEE26A",
"7.	c #DED65A",
"8.	c #FF9DA4",
"9.	c #FFF239",
"0.	c #EEE239",
"a.	c #DED631",
"b.	c #CDC220",
"c.	c #FF858B",
"d.	c #FF5552",
"e.	c #FFB6B4",
"f.	c #FF5D62",
"g.	c #FF0408",
"h.	c #F6F231",
"i.	c #EEE231",
"j.	c #D5D220",
"k.	c #CDC620",
"l.	c #BDB210",
"m.	c #FF2429",
"n.	c #FFA5AC",
"o.	c #DED629",
"p.	c #CDC218",
"q.	c #ACA508",
"r.	c #FFAAAC",
"s.	c #F6EE31",
"t.	c #ACA510",
"u.	c #9C9500",
"v.	c #FFBEC5",
"w.	c #EEE229",
"x.	c #A49908",
"y.	c #EEE631",
"z.	c #BDB610",
"A.	c #4A0008",
"B.	c #BD818B",
"C.	c #EEC683",
"D.	c #941410",
"E.	c #EECAA4",
"F.	c #8B0810",
"G.	c #941C10",
"H.	c #9C2810",
"I.	c #C57D62",
"J.	c #EED2CD",
"K.	c #F6DAC5",
"L.	c #E6AA62",
"M.	c #D58100",
"N.	c #E6A500",
"O.	c #CDC6CD",
"P.	c #C5C6C5",
"Q.	c #9C1C10",
"R.	c #9C2410",
"S.	c #A43410",
"T.	c #AC3C10",
"U.	c #B44810",
"V.	c #B45008",
"W.	c #BD5D10",
"X.	c #CD6D08",
"Y.	c #DE9508",
"Z.	c #E69900",
"`.	c #EEAA00",
" +	c #ACA5AC",
".+	c #A4A5A4",
"++	c #A4A5AC",
"@+	c #AC4C08",
"#+	c #9C2C08",
"$+	c #A43810",
"%+	c #AC4008",
"&+	c #B44C10",
"*+	c #C56908",
"=+	c #CD7108",
"-+	c #CD7900",
";+	c #D58508",
">+	c #D58D00",
",+	c #E69908",
"'+	c #831410",
")+	c #7B797B",
"!+	c #837D7B",
"~+	c #F6B208",
"{+	c #AC4810",
"]+	c #E6A108",
"^+	c #F6AE08",
"/+	c #E69D08",
"(+	c #B46100",
"_+	c #AC4408",
":+	c #9C3808",
"<+	c #831008",
"[+	c #C57508",
"}+	c #B45910",
". . . . . . . . . . . . . . . . . . . . . . . . . . . . . . . . . . . . . . . . . . . . . . . . . . . . . . ",
". . . . . . . . . . . . . . . . . . . . . . . . . . . . . . . . . . . . . . . . . . . . . . . . . . . . . . ",
". . . . . . . . . . . . . . . . . . . . . . . . . . . . . . . . . . . . . . . . . . . . . . . . . . . . . . ",
". . . . . . . . . . . . . . . . . . . . . . . . . . . . . . . . . . . . . . . . . . . . . . . . . . . . . . ",
". . . . . . . . . . . . . . . . . . . . . . . . . . . . . . . . . . . . . . . . . . . . . . . . . . . . . . ",
". . . . . . . . . . . . . . . . . . . . . . . . . . . . . . + + + + + + + + + + + + + + . . . . . . . . . . ",
". . . . . . . . . . . . . . . . . . . . . . . . . . . . + + @ # $ % & * = - ; > , ' ) ! + + . . . . . . . . ",
". . . . . . . . . . . . . . . . . . . . . . . . . . . + ~ { @ ] ^ / ( _ : < ; [ } | 1 2 3 4 + . . . . . . . ",
". . . . . . . . . . . . . . . . . . . . . . . . . . + ~ ~ 5 6 , 7 8 9 0 | a ; - b c d } 3 8 7 + . . . . . . ",
". . . . . . . . . . . . . . . . . . . . . . . . . . + e ( f f 7 g 3 9 h } [ i : j k % l # m 7 + . . . . . . ",
". . . . . . . . . . . . . . . . . . . . . . . . . . . + f n 2 o p q r ' a s < t _ u v w x 5 + . . . . . . . ",
". . . . . . . . . . . . . . . . . . . . . . . . . . . + f y ! z 4 A B C D D C E F G ^ H 9 { + . . . . . . . ",
". . . . . . . . . . . . . . . . . . . . . . . . . . . . I J x g K D D D D D D D D L M w 2 N . . . . . . . . ",
". . . . . . . . . . . . . . . . . . . . . . . . . . . . + y 9 O D D D D D D D D D D P H ! + . . . . . . . . ",
". . . . . . . . . . . . . . . . . . . . . . . . . . . . + n 2 Q D D D D D D D D D D R w x + . . . . . . . . ",
". . . . . . . . . . . . . . . . . . . . . . . . . . . . + y ! D D D D D D D D D D D D H 9 + . . . . . . . . ",
". . . . . . . . . . . . . . . . . . . . . . . . . . . . + J x D D D D D D D D D D D D w 2 + . . . . . . . . ",
". . . . . . . . . . . . . . . . . . . . . + + + + + . . + y 9 D D D D D D D D D D D D H ! + . . . . . . . . ",
". . . . . . . . . . . . . . . . + + + + + S S S S S + . + n 2 + D D D D D D D D D D + w x + . . . . . . . . ",
". . . . . . . . . . . + + + + + S S S S S S S S S S T + + y ! + D D D D D D D D D D + H 9 + . . . . . . . . ",
". . . . . . . . . . + S S S S S S S S S S S S S S S T U + J x + + D D D D D D D D + + w 2 + . . . . . . . . ",
". . . . . . . . . . + S S S S S S S S S S S S S S S T V + y 9 + + D D D D D D D D + + H ! + . . . . . . . . ",
". . . . . . . . . . + S S S S S S S S S W X R D D D T Y + n 2 + D + Z Z `  ...+.+ D + w x + . . . . . . . . ",
". . . . . . . . . . + S S W Q D D D D D D D D D D D W V + y ! + D + D @.` #.$.D + D + H 9 + . . . . . . . . ",
". . . . . . . . . + D D D D D D D D D D D D D D D D W %.+ J x + D D + Z `  .&.+ D D + w 2 + . . . . . . . . ",
". . . . . . . . . + D D D D D D D D D D D D D D D D W *.+ y 9 + D D + D ` #.D + D D + H ! + . . . . . . . . ",
". . . . . . . . . + D D D D D =.-.;.;.;.>.D D D D D W %.+ n 2 + D D D + D D + D D D + w x + . . . . . . . . ",
". . . . . . . . . + D D D D ;.;.;.,.;.;.;.'.D D D D W *.+ y ! + D D D + D D + D D D + H 9 + . . . . . . . . ",
". . . . . . . . . + D D D >.;.;.).D !.;.;.~.D D D D W %.+ J x + D D + D {.].D + D D + w 2 + . . . . . . . . ",
". . . . . . . . + D D D D ^./.(.D D _.;.;./.D D D D W *.+ y 9 + D D + D :.<.D + D D + H ! + . . . . . . . . ",
". . . . . . . . + D D D D D D D [.;.;.;./.D D D D D W %.+ n 2 + D + D D }.|.D D + D + w x + . . . . . . . . ",
". . . . . . . . + D D D D D D D ;.;.;.;.;.1.D D D D W *.+ y ! + D + D D 2.3.D D + D + H 9 + . . . . . . . . ",
". . . . . . . . + D D D D D D D 4.5.-.;.;.;.D D D D W %.+ J x + + D D D 6.7.D D D + + w 2 + . . . . . . . . ",
". . . . . . . . + D D D D D D D D D 8.;.;.;.D D D D W *.+ y 9 + + D D 9.0.a.b.D D + + H ! + . . . . . . . . ",
". . . . . . . + D D D D c.d.;.e.D D f.;.;.g.D D D D W %.+ n 2 + D D Z h.i.j.k.l.D D + w x + . . . . . . . . ",
". . . . . . . + D D D D ;.;.;.m.D n.;.;.;.n.D D D D W *.+ y ! + D @.Z 9.i.o.p.$.q.D + H 9 + . . . . . . . . ",
". . . . . . . + D D D D r.;.;.;.;.;.;.;.'.D D D D D W %.+ J x D Z Z Z s.i.j.k.l.t.u.D w 2 + . . . . . . . . ",
". . . . . . . + D D D D D r.;.;.;.;._.v.D D D D D D W *.+ y 9 D Z @.Z 9.w.o.p.$.q.x.D H ! + . . . . . . . . ",
". . . . . . . + D D D D D D D D D D D D D D D D D D W %.+ n 2 D Z Z Z s.y.j.k.z.t.u.D w x + . . . . . . . . ",
". . . . . . + D D D D D D D D D D D D D D D D D D D W *.+ y ! R Z @.Z 9.i.o.p.$.q.x.Q H 9 + . . . . . . . . ",
". . . . . . + D D D D D D D D D D D D D D D D D D D W %.A.J x B.D Z Z s.y.j.b.l.t.D C.w 2 + . . . . . . . . ",
". . . . . . + D D D D D D D D D D D D D D D D D D D W *.f y 9 D.K D Z 9.i.o.p.$.D E.H H ! + . . . . . . . . ",
". . . . . . + D D D D D D D D D D D D D D D D D D D W %.F.n 2 G.H.I.J.C D D C K.L.M./ w x N.+ . . . . . . . ",
". . . . . . + O.P.O.P.O.P.O.P.O.P.O.P.O.P.O.P.O.P.O.W *.3 Q.R.S.T.U.V.W.d X._ & G Y.Z.] `.{ + . . . . . . . ",
". . . . . . . +  +.+++W  +W ++W  +W .+W  +W ++.+ +W .+%.@+#+$+%+&+; d *+=+-+;+>+,+M `.@ { * '++ . . . . . . ",
". . . . . . . + )+*.)+*.)+*.)+%.)+*.)+!+)+*.)+*.)+*.)+%.{ ~+b {+< *+b 6 & / ^ ]+N.^+j V.'+p 7 + . . . . . . ",
". . . . . . . . + + + + + + + + + + + + + + + + + + + + 5 N./+>+;+c b (+i @+_+:+h 0 9 <+p 7 + . . . . . . . ",
". . . . . . . . . . . . . . . . . . . . . . . . . . . . + + >+;+[+b d }+@+m :+h 2 9 4 p + + . . . . . . . . ",
". . . . . . . . . . . . . . . . . . . . . . . . . . . . . . + + + + + + + + + + + + + + . . . . . . . . . . ",
". . . . . . . . . . . . . . . . . . . . . . . . . . . . . . . . . . . . . . . . . . . . . . . . . . . . . . ",
". . . . . . . . . . . . . . . . . . . . . . . . . . . . . . . . . . . . . . . . . . . . . . . . . . . . . . ",
". . . . . . . . . . . . . . . . . . . . . . . . . . . . . . . . . . . . . . . . . . . . . . . . . . . . . . ",
". . . . . . . . . . . . . . . . . . . . . . . . . . . . . . . . . . . . . . . . . . . . . . . . . . . . . . ",
". . . . . . . . . . . . . . . . . . . . . . . . . . . . . . . . . . . . . . . . . . . . . . . . . . . . . . "};
