/* XPM */
static char * autolink_xpm[] = {
"48 48 278 2",
"  	c None",
". 	c #FFFFFF",
"+ 	c #F1CC9B",
"@ 	c #E69B3B",
"# 	c #E5983B",
"$ 	c #E5953B",
"% 	c #E4933B",
"& 	c #E3903C",
"* 	c #E38D3C",
"= 	c #E28A3C",
"- 	c #E1883C",
"; 	c #E1853C",
"> 	c #E0823D",
", 	c #DF803D",
"' 	c #DE823B",
") 	c #E4A65B",
"! 	c #CA753A",
"~ 	c #191006",
"{ 	c #000000",
"] 	c #E9AB65",
"^ 	c #DF7D3D",
"/ 	c #E59964",
"( 	c #7C6E5F",
"_ 	c #B0A79A",
": 	c #DE7A3D",
"< 	c #DE773D",
"[ 	c #DD763F",
"} 	c #C69A79",
"| 	c #E4E4E4",
"1 	c #E3E3E3",
"2 	c #E2E2E2",
"3 	c #E1E1E1",
"4 	c #E0E0E0",
"5 	c #DFDFDF",
"6 	c #DEDEDE",
"7 	c #DDDDDD",
"8 	c #DCDCDC",
"9 	c #DBDBDB",
"0 	c #DADADA",
"a 	c #D9D9D9",
"b 	c #D8D8D8",
"c 	c #D7D7D7",
"d 	c #D6D6D6",
"e 	c #D5D5D5",
"f 	c #D4D4D4",
"g 	c #D3D3D3",
"h 	c #626F62",
"i 	c #C08F5C",
"j 	c #DD753E",
"k 	c #DC723E",
"l 	c #DC6F3E",
"m 	c #C98E6B",
"n 	c #838383",
"o 	c #878787",
"p 	c #8D8D8D",
"q 	c #8C8C8C",
"r 	c #232323",
"s 	c #2F2F2F",
"t 	c #2E2E2E",
"u 	c #2C2C2C",
"v 	c #3C3C3C",
"w 	c #939393",
"x 	c #D2D2D2",
"y 	c #D6AF88",
"z 	c #DB6D3E",
"A 	c #DA6A3E",
"B 	c #B77A5B",
"C 	c #E6E6E6",
"D 	c #ECECEC",
"E 	c #868686",
"F 	c #EAEAEA",
"G 	c #858585",
"H 	c #848484",
"I 	c #EBEBEB",
"J 	c #E5E5E5",
"K 	c #D0D0D0",
"L 	c #191715",
"M 	c #E79E66",
"N 	c #AF6130",
"O 	c #D37D4A",
"P 	c #DA673F",
"Q 	c #D9653F",
"R 	c #8B573D",
"S 	c #F5F5F5",
"T 	c #F1F1F1",
"U 	c #E8E8E8",
"V 	c #72D589",
"W 	c #1A8833",
"X 	c #7E7E7E",
"Y 	c #CFCFCF",
"Z 	c #3D372F",
"` 	c #D3723A",
" .	c #020100",
"..	c #BA7E59",
"+.	c #D8623F",
"@.	c #D75F3F",
"#.	c #3D2210",
"$.	c #F7F7F7",
"%.	c #F6F6F6",
"&.	c #828282",
"*.	c #252525",
"=.	c #808080",
"-.	c #7F7F7F",
";.	c #4D4D4D",
">.	c #CECECE",
",.	c #2E2112",
"'.	c #A1592C",
").	c #BE886A",
"!.	c #D85F3F",
"~.	c #D75C3F",
"{.	c #AB5741",
"].	c #818181",
"^.	c #CDCDCD",
"/.	c #090602",
"(.	c #050505",
"_.	c #DB997B",
":.	c #D75A40",
"<.	c #D65740",
"[.	c #462014",
"}.	c #E9E9E9",
"|.	c #D1D1D1",
"1.	c #5FD47B",
"2.	c #1B7830",
"3.	c #CCCCCC",
"4.	c #858482",
"5.	c #DD795B",
"6.	c #D55440",
"7.	c #9B4234",
"8.	c #F0F0F0",
"9.	c #202020",
"0.	c #7D7D7D",
"a.	c #7C7C7C",
"b.	c #7B7B7B",
"c.	c #636363",
"d.	c #CBCBCB",
"e.	c #E3BAA8",
"f.	c #D55240",
"g.	c #D44F40",
"h.	c #1B0908",
"i.	c #2D2D2D",
"j.	c #C9C9C9",
"k.	c #C8C8C8",
"l.	c #DC715C",
"m.	c #D44D41",
"n.	c #531E19",
"o.	c #EDEDED",
"p.	c #EEEEEE",
"q.	c #303030",
"r.	c #5ED379",
"s.	c #2F8A44",
"t.	c #A3A3A3",
"u.	c #EAA89A",
"v.	c #853029",
"w.	c #E7E7E7",
"x.	c #6E6E6E",
"y.	c #C7C7C7",
"z.	c #F4D3CB",
"A.	c #AB3E34",
"B.	c #CACACA",
"C.	c #C6C6C6",
"D.	c #FBEFEC",
"E.	c #C5473C",
"F.	c #BCBDB7",
"G.	c #444D44",
"H.	c #383F38",
"I.	c #3B433B",
"J.	c #394039",
"K.	c #D24C40",
"L.	c #FDFDFD",
"M.	c #040404",
"N.	c #F9F9F9",
"O.	c #D44E42",
"P.	c #D55140",
"Q.	c #010101",
"R.	c #020202",
"S.	c #030303",
"T.	c #D7594E",
"U.	c #D55340",
"V.	c #150B05",
"W.	c #D6D8D6",
"X.	c #E2E4E2",
"Y.	c #ECEEEC",
"Z.	c #F4F6F4",
"`.	c #F9FBF9",
" +	c #FEFEFE",
".+	c #FDFFFD",
"++	c #DC6F65",
"@+	c #D65540",
"#+	c #3B1C10",
"$+	c #483B3C",
"%+	c #473D3E",
"&+	c #473E3F",
"*+	c #463F40",
"=+	c #464041",
"-+	c #454041",
";+	c #464142",
">+	c #677367",
",+	c #E39086",
"'+	c #D65840",
")+	c #713320",
"!+	c #F3F3F3",
"~+	c #4B3E3F",
"{+	c #493F40",
"]+	c #483F40",
"^+	c #474041",
"/+	c #EEBCB3",
"(+	c #C55D43",
"_+	c #FAFAFA",
":+	c #687268",
"<+	c #667266",
"[+	c #657265",
"}+	c #647164",
"|+	c #637063",
"1+	c #E8D9D2",
"2+	c #D85E3F",
"3+	c #542C19",
"4+	c #E38E7A",
"5+	c #D8613F",
"6+	c #CF6C4C",
"7+	c #050301",
"8+	c #DDB9A9",
"9+	c #D9633F",
"0+	c #BC7A5B",
"a+	c #BBBBBB",
"b+	c #BABBBA",
"c+	c #8A8B86",
"d+	c #E49379",
"e+	c #C78F6E",
"f+	c #E69E71",
"g+	c #333030",
"h+	c #4C544C",
"i+	c #AD9786",
"j+	c #D96440",
"k+	c #DB6C3E",
"l+	c #DB6E3E",
"m+	c #E0A27D",
"n+	c #F9F8F7",
"o+	c #FCF3E9",
"p+	c #DF7E46",
"q+	c #DE793D",
"r+	c #485148",
"s+	c #BA8D73",
"t+	c #DC703E",
"u+	c #DC733E",
"v+	c #E28C59",
"w+	c #E59866",
"x+	c #DF7C3D",
"y+	c #C97F49",
"z+	c #B88262",
"A+	c #DD773D",
"B+	c #DF7E3D",
"C+	c #E0803D",
"D+	c #BB926A",
"E+	c #A7A7A7",
"F+	c #A97352",
"G+	c #A36C36",
"H+	c #795233",
"I+	c #DC753F",
"J+	c #E1873C",
"K+	c #E2893C",
"L+	c #271B0C",
"M+	c #3B3B39",
"N+	c #323331",
"O+	c #070707",
"P+	c #333333",
"Q+	c #E4D7C8",
"R+	c #E59865",
"S+	c #E28B3C",
"T+	c #DD9C59",
"U+	c #E28C53",
"V+	c #E38E3C",
"W+	c #CE8E47",
"X+	c #CC7736",
"Y+	c #E4923B",
"Z+	c #E4943B",
"`+	c #6F4A1C",
" @	c #2B2B2A",
".@	c #252524",
"                                                                                                ",
"                                                                                                ",
"                                                                                                ",
"                                                . . . . . . . . . . . .                         ",
"                                                + @ # $ % & * = - ; > , '                       ",
"                                                  ) $ % & * = - ; > , ! ~ {                     ",
"  { { { { { { { { { { { { { { { { { { { { { { {     ] & * = - ; > , ^ / (                       ",
"  { . . . . . . . . . . . . . . . . . . . . . { {   _ * = - ; > , ^ : < [ }                     ",
"  { . | 1 2 3 4 5 6 7 8 9 0 a b c c d e f g h { { {   i - ; > , ^ : < j k l m                   ",
"  { . 2 n 4 o 5 p 7 q 9 0 r s s t t u v w x h { { {     y > , ^ : < j k l z A B                 ",
"  { . C o D E F G 8 H 0 a s I C J J | 1 | K h { { {     L M ^ : N O k l z A P Q R               ",
"  { . D E S G T H U n a b s C e f V W X 2 Y h { { {       Z : ` ~  ...z A P Q +.@.#.            ",
"  { . I E $.H T n %.&.c d *.=.=.-.X X ;.2 >.h { { {         ,.'.{ { { ).P Q +.!.~.{.            ",
"  { . I G $.H T n %.].d e t J 1 1 1 2 2 3 ^.h { { {           /.{     (._.+.!.~.:.<.[.          ",
"  { . }.H $.n T &.%.].e f t 2 |.K 1.2.n 4 3.h { { { {                   4.5.~.:.<.6.7.          ",
"  { . }.n %.&.8.].S =.f g 9.X 0.0.a.b.c.5 d.h { { { {                     e.:.<.6.f.g.h.        ",
"  { . U n %.].8.=.S =.g x i.1 2 3 4 4 7 6 j.h { { { {                     k.l.6.f.g.m.n.        ",
"  { . U &.%.].o.=.p.X |.|.q.2 >.^.r.s.t.5 k.h { { { {                       u.f.g.m.m.v.{       ",
"  { . 5 ].w.=.8 -.0 X K Y x.4 4 4 5 6 6 7 y.h { { { {                       z.g.m.m.m.A.{       ",
"  { . d ].e =.g X |.0.Y >.^.3.d.B.B.j.k.y.C.h { { { {                       D.m.m.m.m.E.{       ",
"  { F.h G.h H.h I.h J.h h h h h h h h h h h h { { {                           m.m.m.m.K.{       ",
"  { { { { { { { { { { { { { { { { { { { { { { { { {                             { { { { {       ",
"    { { { { { { { { { { { { { { { { { { { { { { { {                             { { { { {       ",
"      { { { { { { { { { { { { { { { { { { { { { { {                                             ",
"      L.. . . . M.{ { { { { { { { { { { { { { { {                                               ",
"      N.O.m.m.g.P.                            { { { { Q.R.R.{ { R.S.Q.Q.R.S.(.{ {               ",
"      S T.m.g.P.U.V.                          { >.W.X.Y.Z.`. +. . . . . . . .+F.{               ",
"      8.++g.P.U.@+#+                          { | $+%+&+*+=+-+;+;+;+;+;+;+;+;+>+{ {             ",
"        ,+P.U.@+'+)+{                         { !+~+{+]+^+=+;+;+;+;+;+;+;+;+;+h { {             ",
"        /+U.@+'+:.(+{                         { _+:+<+[+}+|+h h h h h h h h h h { {             ",
"        1+@+'+:.~.2+3+                        {  +1 | | | | | | | | | | | | | h { {             ",
"          4+:.~.2+5+6+7+                      { . | | | | | | | | | | | | | | h { R.M.{ {       ",
"          8+~.2+5+9+Q 0+      .               { . | | | | | | | | | | | | | | h { a+b+c+{       ",
"            d+5+9+Q P A e+    . f+            { . | | | | | | | | | | | | | | h { g+g+h+{ {     ",
"            i+j+Q P A k+l+m+n+o+p+q+          { . | | | | | | | | | | | | | | h { g+g+r+{ {     ",
"              s+P A k+l+t+u+v+w+q+x+y+        { . | | | | | | | | | | | | | | h { r+r+r+{ {     ",
"                z+k+l+t+u+j A+q+x+B+C+D+      { . | | | | | | | | | | | | | | h { E+E+r+{ {     ",
"                  F+t+u+j A+q+x+B+C+> ; G+    { F.h h h h h h h h h h h h h h h { E+E+r+{ {     ",
"                    H+I+A+q+x+B+C+> ; J+K+L+  { M+N+O+M.S.R.Q.Q.{ { Q.Q.{ { { { { E+E+r+{ {     ",
"                    P+Q+R+x+B+C+> ; J+K+S+T+      { { { a+E+E+E+E+E+E+E+E+E+E+E+E+E+E+r+{ {     ",
"                    C o+U+B+C+> ; J+K+S+V+& W+        { a+E+E+E+E+E+E+E+E+E+E+E+E+E+E+r+{ {     ",
"                      X+B+C+> ; J+K+S+V+& Y+Z+`+      { a+E+E+E+E+E+E+E+E+E+E+E+E+E+E+r+{ {     ",
"                        { { { { { { { { { { { { {     { a+E+E+E+E+E+E+E+E+E+E+E+E+E+E+r+{ {     ",
"                          { { { { { { { { { { {       { c+r+r+r+r+r+r+r+r+r+r+r+r+r+r+r+{ {     ",
"                                                      {  @.@(.S.R.Q.Q.Q.{ { Q.Q.{ { { { { {     ",
"                                                          { { { { { { { { { { { { { { { {       ",
"                                                                                                ",
"                                                                                                "};
