/* XPM */
static char * back_xpm[] = {
"35 30 140 2",
"  	c None",
". 	c #083852",
"+ 	c #083452",
"@ 	c #103852",
"# 	c #184462",
"$ 	c #083C5A",
"% 	c #20557B",
"& 	c #395D7B",
"* 	c #315573",
"= 	c #10405A",
"- 	c #18405A",
"; 	c #6A95B4",
"> 	c #7399B4",
", 	c #104062",
"' 	c #184862",
") 	c #7395B4",
"! 	c #D5E2F6",
"~ 	c #9CBACD",
"{ 	c #29506A",
"] 	c #6A89A4",
"^ 	c #D5DEEE",
"/ 	c #DEEAF6",
"( 	c #08597B",
"_ 	c #FFFFFF",
": 	c #B4DEEE",
"< 	c #7BAEC5",
"[ 	c #107DA4",
"} 	c #082C41",
"| 	c #6A8DAC",
"1 	c #DEEEF6",
"2 	c #7BCEE6",
"3 	c #52AAC5",
"4 	c #20AACD",
"5 	c #088DB4",
"6 	c #DEE2EE",
"7 	c #FFF6FF",
"8 	c #DEF2F6",
"9 	c #8BDAE6",
"0 	c #39BAD5",
"a 	c #319DC5",
"b 	c #73BAD5",
"c 	c #ACDEEE",
"d 	c #E6F6FF",
"e 	c #FFFAFF",
"f 	c #DEF6FF",
"g 	c #5295B4",
"h 	c #295073",
"i 	c #6A8DA4",
"j 	c #CDDEEE",
"k 	c #F6F6FF",
"l 	c #94D2E6",
"m 	c #41C6D5",
"n 	c #10AACD",
"o 	c #10A5C5",
"p 	c #18A1C5",
"q 	c #31AECD",
"r 	c #73CAE6",
"s 	c #B4E6F6",
"t 	c #D5F2FF",
"u 	c #C5EEF6",
"v 	c #08344A",
"w 	c #52799C",
"x 	c #A4C6DE",
"y 	c #D5EEFF",
"z 	c #83D2E6",
"A 	c #4AC6DE",
"B 	c #10AECD",
"C 	c #089DC5",
"D 	c #0899C5",
"E 	c #4ABED5",
"F 	c #BDE6EE",
"G 	c #B4E2EE",
"H 	c #8BD2E6",
"I 	c #5AB6D5",
"J 	c #3189AC",
"K 	c #001018",
"L 	c #105573",
"M 	c #2091B4",
"N 	c #29B6CD",
"O 	c #31CEDE",
"P 	c #20CAE6",
"Q 	c #18B6D5",
"R 	c #10A1CD",
"S 	c #0899BD",
"T 	c #0895BD",
"U 	c #39B2CD",
"V 	c #73C2D5",
"W 	c #83CADE",
"X 	c #6ABAD5",
"Y 	c #41A5CD",
"Z 	c #1881A4",
"` 	c #002431",
" .	c #00506A",
"..	c #10B6D5",
"+.	c #20CEE6",
"@.	c #20CADE",
"#.	c #10AED5",
"$.	c #08A1C5",
"%.	c #1091B4",
"&.	c #108DB4",
"*.	c #1891B4",
"=.	c #1895B4",
"-.	c #1095BD",
";.	c #082031",
">.	c #085573",
",.	c #0889B4",
"'.	c #29BECD",
").	c #31D6E6",
"!.	c #10B2CD",
"~.	c #29BED5",
"{.	c #31C2D5",
"].	c #29BAD5",
"^.	c #20BACD",
"/.	c #10BAD5",
"(.	c #001420",
"_.	c #29C6DE",
":.	c #4ADEEE",
"<.	c #1095B4",
"[.	c #10799C",
"}.	c #106583",
"|.	c #106994",
"1.	c #10658B",
"2.	c #085D83",
"3.	c #085073",
"4.	c #001C29",
"5.	c #20B6CD",
"6.	c #31DAE6",
"7.	c #087194",
"8.	c #08557B",
"9.	c #082039",
"0.	c #082839",
"a.	c #2099B4",
"b.	c #085D7B",
"c.	c #001C31",
"d.	c #08759C",
"e.	c #10557B",
"f.	c #001829",
"g.	c #084C6A",
"h.	c #08486A",
"i.	c #000C18",
"                                                                      ",
"                                                                      ",
"                                  .                                   ",
"                                + .                                   ",
"                              @ # $                                   ",
"                            % & * =                                   ",
"                          - ; > & ,                                   ",
"                        ' ) ! ~ % $                                   ",
"                      { ] ^ / ~ ( $                                   ",
"                    # ] ^ _ : < [ } } } } } } } } } }                 ",
"                  - | ^ _ 1 2 3 4 5 5 5 5 5 5 5 5 5 }                 ",
"                { ) 6 7 8 9 0 0 4 a b c d e _ e f g }                 ",
"              h i j k / l m n o p q r s t f f u l g }                 ",
"            v w x y c z A B C C D o E 2 c F G H I J }                 ",
"            K L M N O P Q R S T T S p U V W W X Y Z }                 ",
"              `  .5 ..+.@.#.$.R %.T %.%.&.*.=.*.-.[ }                 ",
"                ;.>.,.'.).+.Q #.#.!.~.{.'.].^.!./.&.}                 ",
"                  (.( S _.:.+.n %.<.[.}.|.|.|.1.2.3.}                 ",
"                    4.>.*.5.6.5.7.8.+ 9.0.` ` 0.0.9.}                 ",
"                      ` 3.&.N a.b.$                                   ",
"                        c.( d.7.e.$                                   ",
"                          f.( |.g.,                                   ",
"                            ` $ h.$                                   ",
"                              (.v $                                   ",
"                                i..                                   ",
"                                  (.                                  ",
"                                                                      ",
"                                                                      ",
"                                                                      ",
"                                                                      "};
