/* XPM */
static char * bars_xpm[] = {
"95 94 65 1",
" 	c None",
".	c #DEDEDE",
"+	c #E6E6E6",
"@	c #4A4C4A",
"#	c #B4B6B4",
"$	c #FFFFFF",
"%	c #FFFAFF",
"&	c #F6F6F6",
"*	c #F6F2F6",
"=	c #000000",
"-	c #838183",
";	c #737173",
">	c #737573",
",	c #7B757B",
"'	c #7B797B",
")	c #837D83",
"!	c #7B7D7B",
"~	c #838583",
"{	c #8B858B",
"]	c #8B898B",
"^	c #8B8D8B",
"/	c #948D94",
"(	c #949194",
"_	c #949594",
":	c #9C959C",
"<	c #9C999C",
"[	c #A49DA4",
"}	c #9C9D9C",
"|	c #A4A1A4",
"1	c #525052",
"2	c #5A555A",
"3	c #525552",
"4	c #5A595A",
"5	c #5A5D5A",
"6	c #625D62",
"7	c #626162",
"8	c #6A656A",
"9	c #626562",
"0	c #6A696A",
"a	c #6A6D6A",
"b	c #736D73",
"c	c #524C52",
"d	c #EEEEEE",
"e	c #CDC6CD",
"f	c #4A484A",
"g	c #414441",
"h	c #CDE6CD",
"i	c #C5E2C5",
"j	c #73C673",
"k	c #73C273",
"l	c #6AC26A",
"m	c #EEEAEE",
"n	c #CDE2CD",
"o	c #4A444A",
"p	c #C5C2FF",
"q	c #8381FF",
"r	c #E6E2E6",
"s	c #FFD2D5",
"t	c #FF9194",
"u	c #FF8D94",
"v	c #FF8D8B",
"w	c #DEDADE",
"x	c #D5D6D5",
"y	c #D5D2D5",
"z	c #CDCECD",
".+@@@@@@@@@@@@@@@@@@@@@@@@@@@@@@@@@@@@@@@@@@@@@@@@@@@@@@@@@@@@@@@@@@@@@@@@@@@@@@@@@@@@@@@@@@@@+",
".@############################################################################################@",
".@#$$$$$$$$$$$$$$$$$$$$$$$$$$$$$$$$$$$$$$$$$$$$$$$$$$$$$$$$$$$$$$$$$$$$$$$$$$$$$$$$$$$$$$$$$$#@",
".@#$$$$$$$$$$$$$$$$$$$$$$$$$$$$$$$$$$$$$$$$$$$$$$$$$$$$$$$$$$$$$$$$$$$$$$$$$$$$$$$$$$$$$$$$$##@",
".@#$$%%%%%%%%%%%%%%%%%%%%%%%%%%%%%%%%%%%%%%%%%%%%%%%%%%%%%%%%%%%%%%%%%%%%%%%%%%%%%%%%%%%%%%%%#@",
".@#$$%%%%%%%%%%%%%%%%%%%%%%%%%%%%%%%%%%%%%%%%%%%%%%%%%%%%%%%%%%%%%%%%%%%%%%%%%%%%%%%%%%%%%%%%#@",
".@#$$&&&&&&&&&&&&&&&&&&&&&&&&&&&&&&&&&&&&&&&&&&&&&&&&&&&&&&&&&&&&&&&&&&&&&&&&&&&&&&&&&&&&&&&&#@",
".@#$$&&&&&&&&&&&&&&&&&&&&&&&&&&&&&&&&&&&&&&&&&&&&&&&&&&&&&&&&&&&&&&&&&&&&&&&&&&&&&&&&&&&&&&&&#@",
".@#$$&&&&&&&&&&&&&&&&&&&&&&&&&&&&&&&&&&&&&&&&&&&&&&&&&&&&&&&&&&&&&&&&&&&&&&&&&&&&&&&&&&&&&&&&#@",
".@#$$&&&&&&&&&&&&&&&&&&&&&&&&&&&&&&&&&&&&&&&&&&&&&&&&&&&&&&&&&&&&&&&&&&&&&&&&&&&&&&&&&&&&&&&&#@",
".@#$$&&&&&&&&&&&&&&&&&&&&&&&&&&&&&&&&&&&&&&&&&&&&&&&&&&&&&&&&&&&&&&&&&&&&&&&&&&&&&&&&&&&&&&&&#@",
".@#$$&&&&&&&&&&&&&&&&&&&&&&&&&&&&&&&&&&&&&&&&&&&&&&&&&&&&&&&&&&&&&&&&&&&&&&&&&&&&&&&&&&&&&&&&#@",
".@#$$********=====================================================================-**********#@",
".@#$$********=;;;;>;,>,>','''')')!-!----~-{~{~]~]]]]^]/^/^((((((__:_<_<<<<[<[}[}||$**********#@",
".@#$$********=@1111232342444454657677778989880000a0ba;b;;;;,;,>,,''''!')!)!-)--{-{$**********#@",
".@#$$********=;;;;>;,>,>'>''''!')!-!----~-~~{~]{]]]]/]/^/^((((((:_:_<_<<<<}<[}[}||$**********#@",
".@#$$********=c1111232342444464657677778989890000b0ba;b;;;;>;,>,>'''')')!))-)--~-{$**********#@",
".@#$$********=;;;;$4;;,>','''')')!-!----~-{~{~]~]]]]^]/^/^((((((__:_<_<<<<[<[}[}||$**********#@",
".@#$$dddddddd=@111$e$1342444454657677778989880000a0ba;b;;;;,;,>,,''''!')!)!-)--{-{$dddddddddd#@",
".@#$$dddddddd=;;;;$-47;>'>''''!')!-!----~-~~{~]{]]]]/]/^/^((((((:_:_<_<<<<}<[}[}||$dddddddddd#@",
".@#$$dddddddd=c111$4=f142444464657677778989890000b0ba;b;;;;>;,>,>'''')')!))-)--~-{$dddddddddd#@",
".@#$$dddddddd=;;;;$467;>','''')')!-!----~-{~{~]~]]]]^]/^/^((((((__:_<_<<<<[<[}[}||$dddddddddd#@",
".@#$$dddddddd=@111$4g1342444454657677778989880000a0ba;b;;;hihihihih=>'')!)!-)--{-{$dddddddddd#@",
".@#$$dddddddd=;;;;$47;,>'>''''!')!-!----~-~~{~]{]]]]/]/^/^ijkjljkjl=-(<<<<}<[}[}||$dddddddddd#@",
".@#$$mmmmmmmm=c111$4g1342444464657677778989890000b0ba;b;;;hlklklklk=9'')!))-)--~-{$mmmmmmmmmm#@",
".@#$$mmmmmmmm=;;;;$47;,>','''')')!-!----~-{~{~]~]]]]^]/^/^njljkjljk=)(<<<<[<[}[}||$mmmmmmmmmm#@",
".@#$$mmmmmmmm=@111$e$$122444454657677778989880000a0ba;b;;;hlklklklk=9'')!)!-)--{-{$mmmmmmmmmm#@",
".@#$$mmmmmmmm=;;;;$-448;'>''''!')!-!----~-~~{~]{]]]]/]/^/^ijkjljkjl=)(<<<<}<[}[}||$mmmmmmmmmm#@",
".@#$$mmmmmmmm=c111$4==o22444464657677778989890000b0ba;b;;;hlklklklk=9'')!))-)--~-{$mmmmmmmmmm#@",
".@#$$mmmmmmmm=;;;;$4668;','''')')!-!----~-{~{~]~]]]]^]/^/^njljkjljk=)(<<<<[<[}[}||$mmmmmmmmmm#@",
".@#$$++++++++=@111$4g1122444454657677778989880000a0ba;b;;;hlklklklk=9'')!)!-)--{-{$++++++++++#@",
".@#$$++++++++=;;;;$47;,>'>''''!')!-!----~-~~{~]{]]]]/]/^/^ijkjljkjl=)(<<<<}<[}[}||$++++++++++#@",
".@#$$++++++++=c111$4g134244446465767777898ppppppppp=0bb;;;hlklklklk=9'')!))-)--~-{$++++++++++#@",
".@#$$++++++++=;;;;$47;,>','''')')!-!----~-pqqqqqqqq='{/^/^njljkjljk=)(<<<<[<[}[}||$++++++++++#@",
".@#$$++++++++=@111$e$134244445465767777898pqqqqqqqq=4ab;;;hlklklklk=9'')!)!-)--{-{$++++++++++#@",
".@#$$++++++++=;;;;$-47;>'>''''!')!-!----~-pqqqqqqqq=,~/^/^ijkjljkjl=)(<<<<}<[}[}||$++++++++++#@",
".@#$$rrrrrrrr=c111$4=f14244446465767777898pqqqqqqqq=4bb;;;hlklklklk=9'')!))-)--~-{$rrrrrrrrrr#@",
".@#$$rrrrrrrr=;;;;$467;>','''')')!-!----~-pqqqqqqqq=,~/^/^njljkjljk=)(<<<<[<[}[}||$rrrrrrrrrr#@",
".@#$$rrrrrrrr=@111$4g134244445465767777898pqqqqqqqq=4ab;;;hlklklklk=9'')!)!-)--{-{$rrrrrrrrrr#@",
".@#$$rrrrrrrr=;;;;$47;,>'>''''!')!-!----~-pqqqqqqqq=,~/^/^ijkjljkjl=)(<<<<}<[}[}||$rrrrrrrrrr#@",
".@#$$rrrrrrrr=c111$4g134244446465767777898pqqqqqqqq=4bb;;;hlklklklk=9'')!))-)--~-{$rrrrrrrrrr#@",
".@#$$rrrrrrrr=;;;;$47;,>',sssssssss=!)--~-pqqqqqqqq=,~/^/^njljkjljk=)(<<<<[<[}[}||$rrrrrrrrrr#@",
".@#$$........=@111$e$$1224stutvtutv=177898pqqqqqqqq=4ab;;;hlklklklk=9'')!)!-)--{-{$..........#@",
".@#$$........=;;;;$-448;'>svuvuvuvu=a'--~-pqqqqqqqq=,~/^/^ijkjljkjl=)(<<<<}<[}[}||$..........#@",
".@#$$........=c111$4==o224stvtutvtu=167898pqqqqqqqq=4bb;;;hlklklklk=9'')!))-)--~-{$..........#@",
".@#$$........=;;;;$4668;',svuvuvuvu=a'--~-pqqqqqqqq=,~/^/^njljkjljk=)(<<<<[<[}[}||$..........#@",
".@#$$........=@111$4g11224stutvtutv=167898pqqqqqqqq=4ab;;;hlklklklk=9'')!)!-)--{-{$..........#@",
".@#$$........=;;;;$47;,>'>svuvuvuvu=a'--~-pqqqqqqqq=,~/^/^hlklklklk=)(<<<<}<[}[}||$..........#@",
".@#$$wwwwwwww=c111$4g13424stvtutvtu=167898pqqqqqqqq=4bb;;;njljkjljk=9'')!))-)--~-{$wwwwwwwwww#@",
".@#$$wwwwwwww=;;;;$47;,>',svuvuvuvu=a'--~-pqqqqqqqq=,~/^/^hlklklklk=)(<<<<[<[}[}||$wwwwwwwwww#@",
".@#$$wwwwwwww=@111$e$13424stutvtutv=167898pqqqqqqqq=4ab;;;ijkjljkjl=9'')!)!-)--{-{$wwwwwwwwww#@",
".@#$$wwwwwwww=;;;;$-47;>'>svuvuvuvu=a'--~-pqqqqqqqq=,~/^/^hlklklklk=)(<<<<}<[}[}||$wwwwwwwwww#@",
".@#$$wwwwwwww=c111$4=f1424stvtutvtu=167898pqqqqqqqq=4bb;;;njljkjljk=9'')!))-)--~-{$wwwwwwwwww#@",
".@#$$wwwwwwww=;;;;$467;>',svuvuvuvu=a'--~-pqqqqqqqq=,~/^/^hlklklklk=)(<<<<[<[}[}||$wwwwwwwwww#@",
".@#$$xxxxxxxx=@111$4g13424stutvtutv=167898pqqqqqqqq=4ab;;;ijkjljkjl=9'')!)!-)--{-{$xxxxxxxxxx#@",
".@#$$xxxxxxxx=;;;;$47;,>'>stvtutvtu=a'--~-pqqqqqqqq=,~/^/^hlklklklk=)(<<<<}<[}[}||$xxxxxxxxxx#@",
".@#$$xxxxxxxx=c111$4g13424svuvuvuvu=167898pqqqqqqqq=4bb;;;njljkjljk=9'')!))-)--~-{$xxxxxxxxxx#@",
".@#$$xxxxxxxx=;;;;$47;,>',stutvtutv=a'--~-pqqqqqqqq=,~/^/^hlklklklk=)(<<<<[<[}[}||$xxxxxxxxxx#@",
".@#$$xxxxxxxx=@111$e$$1224svuvuvuvu=167898pqqqqqqqq=4ab;;;ijkjljkjl=9'')!)!-)--{-{$xxxxxxxxxx#@",
".@#$$xxxxxxxx=;;;;$-448;'>stvtutvtu=a'--~-pqqqqqqqq=,~/^/^hlklklklk=)(<<<<}<[}[}||$xxxxxxxxxx#@",
".@#$$yyyyyyyy=c111$4==o224svuvuvuvu=167898pqqqqqqqq=4bb;;;njljkjljk=9'')!))-)--~-{$yyyyyyyyyy#@",
".@#$$yyyyyyyy=;;;;$4668;',svuvuvuvu=a'--~-pqqqqqqqq=,~/^/^hlklklklk=)(<<<<[<[}[}||$yyyyyyyyyy#@",
".@#$$yyyyyyyy=@111$4g11224stvtutvtu=167898pqqqqqqqq=4ab;;;ijkjljkjl=9'')!)!-)--{-{$yyyyyyyyyy#@",
".@#$$yyyyyyyy=;;;;$47;,>'>svuvuvuvu=a'--~-pqqqqqqqq=,~/^/^hlklklklk=)(<<<<}<[}[}||$yyyyyyyyyy#@",
".@#$$yyyyyyyy=c111$4g13424stutvtutv=167898pqqqqqqqq=4bb;;;njljkjljk=9'')!))-)--~-{$yyyyyyyyyy#@",
".@#$$yyyyyyyy=;;;;$47;,>',svuvuvuvu=a'--~-pqqqqqqqq=,~/^/^hlklklklk=)(<<<<[<[}[}||$yyyyyyyyyy#@",
".@#$$zzzzzzzz=@111$e$13424stvtutvtu=167898pqqqqqqqq=4ab;;;ijkjljkjl=9'')!)!-)--{-{$zzzzzzzzzz#@",
".@#$$zzzzzzzz=;;;;$-47;>'>svuvuvuvu=a'--~-pqqqqqqqq=,~/^/^hlklklklk=)(<<<<}<[}[}||$zzzzzzzzzz#@",
".@#$$zzzzzzzz=c111$4=f1424stutvtutv=167898pqqqqqqqq=4bb;;;njljkjljk=9'')!))-)--~-{$zzzzzzzzzz#@",
".@#$$zzzzzzzz=;;;;$467;>',stvtutvtu=a'--~-pqqqqqqqq=,~/^/^hlklklklk=)(<<<<[<[}[}||$zzzzzzzzzz#@",
".@#$$zzzzzzzz=@111$4g13424svuvuvuvu=167898pqqqqqqqq=4ab;;;ijkjljkjl=9'')!)!-)--{-{$zzzzzzzzzz#@",
".@#$$zzzzzzzz=;;;;$47;,>'>stutvtutv=a'--~-pqqqqqqqq=,~/^/^hlklklklk=)(<<<<}<[}[}||$zzzzzzzzzz#@",
".@#$$zzzzzzzz=c111$4g13424svuvuvuvu4=67898pqqqqqqqq4=0b;;;njljkjlj$4=,')!))-)--~-{$zzzzzzzzzz#@",
".@#$$zzzzzzzz=;;;;$47;,>',stvtutvtu4=a)-~-pqqqqqqqq4=>]^/^$4=lklkl$4=-_<<<$4=:[}||$zzzzzzzzzz#@",
".@#$$zzzzzzzz=@111$4$$$$$$.-$$$$$$.-$$$$$$.-$$$$$$.-$$$$$$.-$$$$$$.-$$$$$$.-$$'--{$zzzzzzzzzz#@",
".@#$$zzzzzzzz=;;;;$44444444444444444444444444444444444444444444444444444444444]<||$zzzzzzzzzz#@",
".@#$$zzzzzzzz=c111cfgfoffff@fc@c@1c111131232342424454656576777777898908080000bb--{$zzzzzzzzzz#@",
".@#$$zzzzzzzz=;;;;;a;;;;>;,>,>'>''!'!')!)!-!----~-{~]~]~]]^]/^/^(/((((_(:_<_<:<}||$zzzzzzzzzz#@",
".@#$$zzzzzzzz=@1111232342444454657677778989880000a0ba;b;;;;,;,>,,''''!')!)!-)--{-{$zzzzzzzzzz#@",
".@#$$zzzzzzzz=;;;;>;,>,>'>''''!')!-!----~-~~{~]{]]]]/]/^/^((((((:_:_<_<<<<}<[}[}||$zzzzzzzzzz#@",
".@#$$zzzzzzzz=c1111232342444464657677778989890000b0ba;b;;;;>;,>,>'''')')!))-)--~-{$zzzzzzzzzz#@",
".@#$$zzzzzzzz-$$$$$$$$$$$$$$$$$$$$$$$$$$$$$$$$$$$$$$$$$$$$$$$$$$$$$$$$$$$$$$$$$$$$$zzzzzzzzzz#@",
".@#$$zzzzzzzzzzzzzzzzzzzzzzzzzzzzzzzzzzzzzzzzzzzzzzzzzzzzzzzzzzzzzzzzzzzzzzzzzzzzzzzzzzzzzzzz#@",
".@#$$zzzzzzzzzzzzzzzzzzzzzzzzzzzzzzzzzzzzzzzzzzzzzzzzzzzzzzzzzzzzzzzzzzzzzzzzzzzzzzzzzzzzzzzz#@",
".@#$$zzzzzzzzzzzzzzzzzzzzzzzzzzzzzzzzzzzzzzzzzzzzzzzzzzzzzzzzzzzzzzzzzzzzzzzzzzzzzzzzzzzzzzzz#@",
".@#$$zzzzzzzzzzzzzzzzzzzzzzzzzzzzzzzzzzzzzzzzzzzzzzzzzzzzzzzzzzzzzzzzzzzzzzzzzzzzzzzzzzzzzzzz#@",
".@#$$zzzzzzzzzzzzzzzzzzzzzzzzzzzzzzzzzzzzzzzzzzzzzzzzzzzzzzzzzzzzzzzzzzzzzzzzzzzzzzzzzzzzzzzz#@",
".@#$$zzzzzzzzzzzzzzzzzzzzzzzzzzzzzzzzzzzzzzzzzzzzzzzzzzzzzzzzzzzzzzzzzzzzzzzzzzzzzzzzzzzzzzzz#@",
".@#$$zzzzzzzzzzzzzzzzzzzzzzzzzzzzzzzzzzzzzzzzzzzzzzzzzzzzzzzzzzzzzzzzzzzzzzzzzzzzzzzzzzzzzzzz#@",
".@#$$zzzzzzzzzzzzzzzzzzzzzzzzzzzzzzzzzzzzzzzzzzzzzzzzzzzzzzzzzzzzzzzzzzzzzzzzzzzzzzzzzzzzzzzz#@",
".@#$$zzzzzzzzzzzzzzzzzzzzzzzzzzzzzzzzzzzzzzzzzzzzzzzzzzzzzzzzzzzzzzzzzzzzzzzzzzzzzzzzzzzzzzzz#@",
".@#$$zzzzzzzzzzzzzzzzzzzzzzzzzzzzzzzzzzzzzzzzzzzzzzzzzzzzzzzzzzzzzzzzzzzzzzzzzzzzzzzzzzzzzzzz#@",
".@############################################################################################@",
".+@@@@@@@@@@@@@@@@@@@@@@@@@@@@@@@@@@@@@@@@@@@@@@@@@@@@@@@@@@@@@@@@@@@@@@@@@@@@@@@@@@@@@@@@@@@@+"};
