/* XPM */
static char * bg_color_xpm[] = {
"24 24 96 2",
"  	c None",
". 	c #000000",
"+ 	c #8EAAC7",
"@ 	c #98B5D1",
"# 	c #99B5D2",
"$ 	c #9AB6D2",
"% 	c #9AB7D3",
"& 	c #9BB8D4",
"* 	c #9BB8D5",
"= 	c #89A5C1",
"- 	c #97B4D0",
"; 	c #8DA8C6",
"> 	c #8DA9C7",
", 	c #8EABC7",
"' 	c #8FACC8",
") 	c #90ACC9",
"! 	c #91ADCA",
"~ 	c #6F859C",
"{ 	c #89A4BF",
"] 	c #91AECB",
"^ 	c #92AFCC",
"/ 	c #93AFCC",
"( 	c #94B0CC",
"_ 	c #94B0CD",
": 	c #95B1CE",
"< 	c #96B2CF",
"[ 	c #97B3D0",
"} 	c #6D8399",
"| 	c #495867",
"1 	c #98B4D0",
"2 	c #343E49",
"3 	c #111418",
"4 	c #92AECA",
"5 	c #87A2BD",
"6 	c #040506",
"7 	c #697D92",
"8 	c #536474",
"9 	c #2E3740",
"0 	c #1A1F24",
"a 	c #13171B",
"b 	c #020203",
"c 	c #88A2BC",
"d 	c #7389A0",
"e 	c #697C91",
"f 	c #050607",
"g 	c #4E5D6C",
"h 	c #3A4550",
"i 	c #0C0F11",
"j 	c #2F3841",
"k 	c #13171A",
"l 	c #8DA7C3",
"m 	c #070809",
"n 	c #3C4752",
"o 	c #607384",
"p 	c #6F8499",
"q 	c #9CB9D5",
"r 	c #596A7C",
"s 	c #6E8397",
"t 	c #8FA9C3",
"u 	c #030404",
"v 	c #323B45",
"w 	c #9DBAD6",
"x 	c #1F242B",
"y 	c #07090A",
"z 	c #87A0B9",
"A 	c #89A3BD",
"B 	c #252C33",
"C 	c #030304",
"D 	c #8DA8C1",
"E 	c #9EBAD7",
"F 	c #7A91A9",
"G 	c #536272",
"H 	c #9EBBD7",
"I 	c #9FBCD8",
"J 	c #3F4B58",
"K 	c #060709",
"L 	c #010101",
"M 	c #161A1E",
"N 	c #9FBCD9",
"O 	c #91ACC8",
"P 	c #090B0D",
"Q 	c #3E4955",
"R 	c #758AA0",
"S 	c #A0BCD9",
"T 	c #607284",
"U 	c #485562",
"V 	c #788EA4",
"W 	c #36404A",
"X 	c #A1BDD9",
"Y 	c #242B32",
"Z 	c #7D95AC",
"` 	c #14181B",
" .	c #040505",
"..	c #93ADC7",
"+.	c #7D99B5",
"@.	c #7690AC",
"  . . . . . . . . . . . . . . . . . . . .       ",
". + @ @ @ @ # # # $ $ $ % % % & & * * $ = .     ",
". - ; ; > + , ' ) ! ~ { ] ^ / ( _ : < [ : .     ",
". @ > > + , ' ) ! } . | / / ( _ : < [ - 1 .     ",
". @ + , , ' ) ! ] 2 . 3 4 _ _ : < [ - 1 @ .     ",
". # , ' ) ) ! ] 5 6 . . 7 : : < [ - 1 @ # .     ",
". # ' ) ! ] ] ] 8 . . . 9 < [ [ - 1 @ # $ .     ",
". # ) ! ] ] ^ ^ 0 . a . b c - 1 1 @ # $ % .     ",
". $ ! ] ] ^ / d . . e f . g 1 @ # # $ % & .     ",
". $ ] ] ^ / ( h . i _ j . k - # $ % % & * .     ",
". % ] ^ / ( l m . n [ o . . p $ % & * * q .     ",
". % ^ / ( _ r . . s - t u . v % & * q q w .     ",
". % / ( _ : x . y z A A B . C D * q w E E .     ",
". & ( _ : F . . . . . . . . . G q w E H I .     ",
". * : : < J . . K K K K K L . M q E H I N .     ",
". * < [ O P . a # $ % & * Q . . R H I N S .     ",
". q - 1 T . . U % & * q w V . . W N S X X .     ",
". q 1 @ Y . . Z & * q w E w ` .  ...X X X .     ",
". @ @ # $ % & & * q w E H I N S X X X X _ .     ",
". +.: q % & * q q w E H I N S X X X X < @..     ",
"  . . . . . . . . . . . . . . . . . . . .       ",
"                                                ",
"                                                ",
"                                                "};
