/* XPM */
static char * bigdel_xpm[] = {
"22 22 190 2",
"  	c None",
". 	c #8E6666",
"+ 	c #832319",
"@ 	c #8F1600",
"# 	c #842817",
"$ 	c #834C48",
"% 	c #712422",
"& 	c #8D1508",
"* 	c #8B1A03",
"= 	c #8A4339",
"- 	c #7A3E3A",
"; 	c #BB1901",
"> 	c #E51300",
", 	c #BD2700",
"' 	c #882511",
") 	c #845453",
"! 	c #6C2321",
"~ 	c #AA0B06",
"{ 	c #DA1600",
"] 	c #C42C00",
"^ 	c #932006",
"/ 	c #7F4844",
"( 	c #B02401",
"_ 	c #E11600",
": 	c #E41500",
"< 	c #C52800",
"[ 	c #842210",
"} 	c #845351",
"| 	c #6C2625",
"1 	c #A70902",
"2 	c #E41100",
"3 	c #CB2800",
"4 	c #C32D00",
"5 	c #931F03",
"6 	c #741E11",
"7 	c #B72400",
"8 	c #E21600",
"9 	c #C02800",
"0 	c #882917",
"a 	c #824B48",
"b 	c #6C2422",
"c 	c #A20B05",
"d 	c #E91000",
"e 	c #CC2800",
"f 	c #C42E00",
"g 	c #A52402",
"h 	c #74281F",
"i 	c #7B1F0F",
"j 	c #B62200",
"k 	c #E31500",
"l 	c #E11700",
"m 	c #B92600",
"n 	c #8A2D1B",
"o 	c #844F4C",
"p 	c #6D2321",
"q 	c #A10D09",
"r 	c #E20F00",
"s 	c #CC2700",
"t 	c #A82400",
"u 	c #702016",
"v 	c #682825",
"w 	c #7C1F0F",
"x 	c #BA2400",
"y 	c #E41400",
"z 	c #B82600",
"A 	c #842918",
"B 	c #5B110F",
"C 	c #9E0E09",
"D 	c #DE0E00",
"E 	c #CE2500",
"F 	c #A92400",
"G 	c #752216",
"H 	c #682927",
"I 	c #791B0C",
"J 	c #C32600",
"K 	c #E61300",
"L 	c #DF1900",
"M 	c #BE2800",
"N 	c #A80F02",
"O 	c #E30D00",
"P 	c #CF2500",
"Q 	c #AE2600",
"R 	c #742014",
"S 	c #662E2E",
"T 	c #7A1B0B",
"U 	c #BF2500",
"V 	c #E71200",
"W 	c #EE0C00",
"X 	c #CE2600",
"Y 	c #B02701",
"Z 	c #6E1D13",
"` 	c #906362",
" .	c #7F1300",
"..	c #D41700",
"+.	c #F30900",
"@.	c #C72C00",
"#.	c #B72900",
"$.	c #701507",
"%.	c #916262",
"&.	c #8F0600",
"*.	c #E00E00",
"=.	c #D71F00",
"-.	c #E81100",
";.	c #DC1B00",
">.	c #BA2700",
",.	c #721709",
"'.	c #87100B",
").	c #E00A00",
"!.	c #D32200",
"~.	c #C52D00",
"{.	c #DA1D00",
"].	c #B22701",
"^.	c #7D3026",
"/.	c #692928",
"(.	c #86110C",
"_.	c #E70A00",
":.	c #D12300",
"<.	c #BB2B00",
"[.	c #941C00",
"}.	c #C62400",
"|.	c #EA0F00",
"1.	c #D81D00",
"2.	c #B02601",
"3.	c #843529",
"4.	c #6B2726",
"5.	c #8B140F",
"6.	c #DC0900",
"7.	c #B52800",
"8.	c #7C1D0C",
"9.	c #78403D",
"0.	c #881F09",
"a.	c #C42300",
"b.	c #D71E00",
"c.	c #AB2300",
"d.	c #86392D",
"e.	c #891410",
"f.	c #D50A00",
"g.	c #D61F00",
"h.	c #B52900",
"i.	c #81200E",
"j.	c #692A27",
"k.	c #6B2621",
"l.	c #8A2009",
"m.	c #C92300",
"n.	c #D81E00",
"o.	c #AA2300",
"p.	c #82382E",
"q.	c #7E1712",
"r.	c #DA0800",
"s.	c #C62C00",
"t.	c #BC2B00",
"u.	c #801E0C",
"v.	c #6A2925",
"w.	c #6A2723",
"x.	c #8B1C05",
"y.	c #D22300",
"z.	c #D62000",
"A.	c #A72604",
"B.	c #823C33",
"C.	c #824A47",
"D.	c #BE1901",
"E.	c #C02C00",
"F.	c #7E1B08",
"G.	c #682C2A",
"H.	c #6A2A26",
"I.	c #901C02",
"J.	c #CE2200",
"K.	c #DD1A00",
"L.	c #901E04",
"M.	c #7B3E3A",
"N.	c #AD2601",
"O.	c #BA2A00",
"P.	c #831D09",
"Q.	c #682D2B",
"R.	c #902006",
"S.	c #BE2C00",
"T.	c #C22D00",
"U.	c #911D03",
"V.	c #8D6363",
"W.	c #832919",
"X.	c #842412",
"Y.	c #6E2E2A",
"Z.	c #6F2923",
"`.	c #891F08",
" +	c #921D02",
".+	c #843A30",
"++	c #A7807E",
"@+	c #A17C7C",
"#+	c #A37B7A",
"$+	c #A87F7D",
"                                            ",
"                                            ",
"    . + @ # $                   % & * =     ",
"    - ; > , ' )               ! ~ { ] ^     ",
"    / ( _ : < [ }           | 1 2 3 4 5     ",
"      6 7 8 8 9 0 a       b c d e f g h     ",
"        i j k l m n o   p q r s f t u       ",
"        v w x y l z A B C D E f F G         ",
"          H I J K L M N O P f Q R           ",
"            S T U V K W X f Y Z             ",
"              `  ...+.y @.#.$.              ",
"              %.&.*.=.-.;.>.,.              ",
"            S '.).!.~.X -.{.].^.            ",
"          /.(._.:.f <.[.}.|.1.2.3.          ",
"        4.5.6.!.f 7.8.9.0.a.|.b.c.d.        ",
"        e.f.g.~.h.i.j.  k.l.m.d n.o.p.      ",
"      q.r.b.s.t.u.v.      w.x.y.d z.A.B.    ",
"    C.D.g.~.E.F.G.          H.I.J.K.] L.    ",
"    M.N.f O.P.Q.              w.R.S.T.U.    ",
"    V.W.[.X.Y.                  Z.`. +.+    ",
"        ++@+                      #+$+      ",
"                                            "};
