/* XPM */
static char * clear_xpm[] = {
"18 24 211 2",
"  	c None",
". 	c #ECECEC",
"+ 	c #757875",
"@ 	c #7D7D7D",
"# 	c #7A797A",
"$ 	c #787678",
"% 	c #757475",
"& 	c #727172",
"* 	c #6D6E6D",
"= 	c #6B6A6B",
"- 	c #626262",
"; 	c #575857",
"> 	c #2C2D2C",
", 	c #C3C3C3",
"' 	c #7E807E",
") 	c #D9D7D9",
"! 	c #ECEBEC",
"~ 	c #EAE9EA",
"{ 	c #DEDCDE",
"] 	c #CBC9CB",
"^ 	c #616261",
"/ 	c #5A595A",
"( 	c #C2C2C2",
"_ 	c #7E7C7E",
": 	c #E0DEE0",
"< 	c #FFFFFF",
"[ 	c #FCFCFC",
"} 	c #EFEDEF",
"| 	c #747574",
"1 	c #B6B4B6",
"2 	c #535253",
"3 	c #CCCCCC",
"4 	c #FDFDFD",
"5 	c #F6F5F6",
"6 	c #BEBCBE",
"7 	c #565556",
"8 	c #C4C4C4",
"9 	c #7A7A7A",
"0 	c #868886",
"a 	c #F3F1F3",
"b 	c #AFADAF",
"c 	c #585758",
"d 	c #D1D1D1",
"e 	c #787978",
"f 	c #8B8B8B",
"g 	c #B2B1B2",
"h 	c #CCCBCC",
"i 	c #C9C9C9",
"j 	c #8F8E8F",
"k 	c #302F30",
"l 	c #D4D4D4",
"m 	c #787878",
"n 	c #C6C3C6",
"o 	c #979596",
"p 	c #8A8885",
"q 	c #72726B",
"r 	c #5D5C59",
"s 	c #4A4846",
"t 	c #4E4E4E",
"u 	c #FFFEFF",
"v 	c #F1EDF0",
"w 	c #DCD9DA",
"x 	c #C3BDBA",
"y 	c #A8A199",
"z 	c #7C7A73",
"A 	c #767576",
"B 	c #FCF7F9",
"C 	c #EEEBEB",
"D 	c #E0DDDB",
"E 	c #CFC7BF",
"F 	c #A09A90",
"G 	c #717371",
"H 	c #FFFCFB",
"I 	c #FCF5F3",
"J 	c #F4EEE9",
"K 	c #EAE2DD",
"L 	c #DFD7CE",
"M 	c #B5AEA1",
"N 	c #FFFAFB",
"O 	c #FFF7F5",
"P 	c #FDF4EE",
"Q 	c #F9EDE8",
"R 	c #EFE3DD",
"S 	c #E9DED1",
"T 	c #BCB2A0",
"U 	c #717071",
"V 	c #FFF7F4",
"W 	c #FCF5EF",
"X 	c #F6F0E9",
"Y 	c #F6ECE1",
"Z 	c #EFE6DA",
"` 	c #EADFD1",
" .	c #BFB49F",
"..	c #FFFBFB",
"+.	c #FCF3EF",
"@.	c #F7F0EA",
"#.	c #F6EDE4",
"$.	c #F6EADF",
"%.	c #EFE3D5",
"&.	c #EADDCC",
"*.	c #C3B39D",
"=.	c #6C6E6C",
"-.	c #FFF9FB",
";.	c #FCF2ED",
">.	c #F6EADA",
",.	c #F6E7D4",
"'.	c #F3E1CE",
").	c #EEDCC8",
"!.	c #C5B29C",
"~.	c #FFFDFF",
"{.	c #FFF6F2",
"].	c #FCF3ED",
"^.	c #F6EFE6",
"/.	c #F6ECE0",
"(.	c #F4E3CF",
"_.	c #EEDFC9",
":.	c #ECD9C1",
"<.	c #C4B198",
"[.	c #6C6B6C",
"}.	c #FFFEFD",
"|.	c #FFFAF8",
"1.	c #FFF6F1",
"2.	c #FCF3EC",
"3.	c #F7F0E7",
"4.	c #F6EBE0",
"5.	c #F6EADB",
"6.	c #F6E7D5",
"7.	c #F4E3CE",
"8.	c #EFE0C9",
"9.	c #EEDBC4",
"0.	c #EAD8BB",
"a.	c #C3B192",
"b.	c #FFF8F6",
"c.	c #FFF5F1",
"d.	c #FCF2EC",
"e.	c #F6EFE5",
"f.	c #F6E8DA",
"g.	c #F5E5D4",
"h.	c #EFE3CE",
"i.	c #EEE0C9",
"j.	c #EEDCC4",
"k.	c #EED8BD",
"l.	c #EDD5B7",
"m.	c #C4AD8C",
"n.	c #686968",
"o.	c #E0DDE0",
"p.	c #FFF9F9",
"q.	c #F7F0E6",
"r.	c #F6E9DB",
"s.	c #F5E4D4",
"t.	c #F0E2CF",
"u.	c #EEDCC3",
"v.	c #EED9BE",
"w.	c #EDD6B8",
"x.	c #E8D2B2",
"y.	c #C3AC8B",
"z.	c #666866",
"A.	c #E0DCDD",
"B.	c #FEF7F2",
"C.	c #F8F2EC",
"D.	c #F7EEE6",
"E.	c #F5E6D5",
"F.	c #EFE2CE",
"G.	c #EEDBC0",
"H.	c #E6CEAC",
"I.	c #C3A985",
"J.	c #666766",
"K.	c #E0DADC",
"L.	c #F9F2EE",
"M.	c #F6EEE6",
"N.	c #F6E8DB",
"O.	c #F5E4D2",
"P.	c #F0E2CD",
"Q.	c #EEDEC5",
"R.	c #EED9BD",
"S.	c #EDD4B8",
"T.	c #E6CBA7",
"U.	c #C3A680",
"V.	c #666566",
"W.	c #DED9DA",
"X.	c #F7EFE9",
"Y.	c #F6EBDF",
"Z.	c #F6E9D8",
"`.	c #F6E4D1",
" +	c #F0E1CB",
".+	c #EEDDC6",
"++	c #EED4B8",
"@+	c #E8D1B2",
"#+	c #E6CFAA",
"$+	c #E6CBA6",
"%+	c #E6CAA4",
"&+	c #C3A57D",
"*+	c #61605F",
"=+	c #A59E95",
"-+	c #A49C92",
";+	c #A49B8E",
">+	c #A49989",
",+	c #A49784",
"'+	c #A39480",
")+	c #A3927C",
"!+	c #A39075",
"~+	c #A38E72",
"{+	c #A38A6E",
"]+	c #9D886C",
"^+	c #9D8667",
"/+	c #9D8362",
"(+	c #9D835E",
"_+	c #967D55",
":+	c #9E9F9E",
"<+	c #757575",
"[+	c #A0A0A0",
"                      .             ",
"  + @ # $ % & * = - ; > ,           ",
"  ' ) ! ! ! ! ! ~ { ] ^ / (         ",
"  _ : < < < < < < [ } | 1 2 3       ",
"  _ : < < < < < < < 4 ' 5 6 7 8     ",
"  9 : < < < < < < < < 0 a 5 b c d   ",
"  e : < < < < < < < < f g h i j k l ",
"  m : < < < < < < < < n o p q r s t ",
"  $ : < < < < < < < < u v w x y z t ",
"  A : < < < < < < < < < B C D E F t ",
"  G : < < < < < < < < H I J K L M t ",
"  G : < < < < < < u N O P Q R S T t ",
"  U : < < < < < u N V W X Y Z `  .t ",
"  U : < < < < u ..O +.@.#.$.%.&.*.t ",
"  =.: < < < u -.O ;.X #.>.,.'.).!.t ",
"  =.: < u ~.-.{.].^./.>.,.(._.:.<.t ",
"  [.: < }.|.1.2.3.4.5.6.7.8.9.0.a.t ",
"  [.: }.b.c.d.e.4.f.g.h.i.j.k.l.m.t ",
"  n.o.p.1.2.q.4.r.s.t.i.u.v.w.x.y.t ",
"  z.A.B.C.D.4.r.E.F.i.G.v.w.x.H.I.t ",
"  J.K.L.M.4.N.O.P.Q.G.R.S.x.H.T.U.t ",
"  V.W.X.Y.Z.`. +.+G.R.++@+#+$+%+&+t ",
"  *+=+-+;+>+,+'+)+!+~+{+]+^+/+(+_+t ",
"  :+<+<+<+<+<+<+<+<+<+<+<+<+<+<+<+[+"};
