/* XPM */
static char * config_xpm[] = {
"24 24 16 1",
" 	c None",
".	c #EEEEEE",
"+	c #EEEAEE",
"@	c #000000",
"#	c #E6E6E6",
"$	c #FFFFFF",
"%	c #E6E2E6",
"&	c #838183",
"*	c #DEDEDE",
"=	c #C5C2C5",
"-	c #C5BEC5",
";	c #DEDADE",
">	c #7B7D7B",
",	c #837D83",
"'	c #D5D6D5",
")	c #D5D2D5",
"........................",
"........................",
"++++++++++++++++++++++++",
"++++++++++++++++++++++++",
"++++++++++++++++++++++++",
"++++@@@@@@@@@@@@@@@@++++",
"####@$$$$$$$$@@###@@####",
"####@$$$$$$$$@@@#@@@####",
"####@$$$$$$$$@@@@@@@####",
"%%%%@@@@@@@@@@@@@@@@%%%%",
"%%%%@$$$$$$$$@$$$$$@%%%%",
"%%%%@$$$$$$$$@$%@%&@%%%%",
"****@$@@@@$$$@$@@@&@****",
"****@$$$$$$$$@&&&&&@*=**",
"****@$@@@@@@$@@@@@@@*-**",
";;;;@$$$$$$$$@$$$$$@;=;;",
";;;;@$@@@@@$$@$@@@&@;;;;",
";;;;@$$$$$$$$@$;@;&@;;;;",
";;;;@$$$$$$$$@&>&,&@;;;;",
"''''@@@@@@@@@@@@@@@@''''",
"''''''''''''''''''''''''",
"''''''''''''''''''''''''",
"))))))))))))))))))))))))",
"))))))))))))))))))))))))"};
