/* XPM */
static char * connect_xpm[] = {
"17 17 88 1",
" 	c None",
".	c #4B4A4B",
"+	c #575657",
"@	c #D4D3D4",
"#	c #424242",
"$	c #C3C3C3",
"%	c #5A5A5A",
"&	c #5B5B5B",
"*	c #CFCECF",
"=	c #868486",
"-	c #434343",
";	c #CFCFCF",
">	c #DEDEDE",
",	c #D4D4D4",
"'	c #5E5E5E",
")	c #585858",
"!	c #CCCBCC",
"~	c #898789",
"{	c #191919",
"]	c #BBBBBB",
"^	c #D3D3D3",
"/	c #8B8A8B",
"(	c #848284",
"_	c #484848",
":	c #7F7E7F",
"<	c #353438",
"[	c #CBCBCB",
"}	c #464646",
"|	c #CDCDCD",
"1	c #DDDDDD",
"2	c #979697",
"3	c #2E2D2E",
"4	c #CECDCE",
"5	c #CDCCCD",
"6	c #323132",
"7	c #99989A",
"8	c #D7D7D7",
"9	c #9F9D9F",
"0	c #333333",
"a	c #282828",
"b	c #A2A1A3",
"c	c #DADADA",
"d	c #E0E0E0",
"e	c #E1E0E1",
"f	c #9B9A97",
"g	c #363535",
"h	c #BFBEBF",
"i	c #9E9C9E",
"j	c #6B696B",
"k	c #1C1B1C",
"l	c #1F1F1F",
"m	c #636263",
"n	c #A19FA2",
"o	c #DADADB",
"p	c #DFDEDF",
"q	c #DDDCDD",
"r	c #919091",
"s	c #3E3D3E",
"t	c #6A686A",
"u	c #222122",
"v	c #414041",
"w	c #807E80",
"x	c #A5A3A6",
"y	c #DBDADB",
"z	c #DFDFDF",
"A	c #D6D6D6",
"B	c #A19FA1",
"C	c #2B2A2B",
"D	c #242424",
"E	c #535353",
"F	c #D4D2D4",
"G	c #838183",
"H	c #A2A0A3",
"I	c #D2D1D2",
"J	c #9E9B9E",
"K	c #6A696A",
"L	c #141314",
"M	c #8B898B",
"N	c #555455",
"O	c #626162",
"P	c #6B6A6B",
"Q	c #232323",
"R	c #535253",
"S	c #CECCCE",
"T	c #888688",
"U	c #565556",
"V	c #232223",
"W	c #4E4D4E",
"                 ",
"               . ",
"              +@ ",
"        #$%  &*= ",
"       -;>,')!~  ",
"      {]>>>^/(   ",
"     _:<[>>>,}   ",
"    -|1234>>>56  ",
"   #;1>>73[>890  ",
"   abc>defghijk  ",
"   lmno>pqrstu   ",
"    vwxyzABCD    ",
"    EFGHIJKL     ",
"   &5MNOwPQ      ",
"  RSTk vUV       ",
" W@=             ",
"                 "};
