/* XPM */
static char * dbf_xpm[] = {
"24 23 53 1",
" 	c None",
".	c #FFFFFF",
"+	c #312C31",
"@	c #6A6D6A",
"#	c #6A696A",
"$	c #736D73",
"%	c #313031",
"&	c #4A484A",
"*	c #6A656A",
"=	c #F6F6F6",
"-	c #EEEAEE",
";	c #EEE6EE",
">	c #BDBABD",
",	c #E6E6E6",
"'	c #B4AEB4",
")	c #B4B6B4",
"!	c #626562",
"~	c #949194",
"{	c #837D83",
"]	c #7B797B",
"^	c #B4B2B4",
"/	c #949594",
"(	c #948D94",
"_	c #8B8D8B",
":	c #626162",
"<	c #A4A1A4",
"[	c #838583",
"}	c #737173",
"|	c #FFFAFF",
"1	c #EEEEF6",
"2	c #F6EEF6",
"3	c #ACB2B4",
"4	c #FFF6FF",
"5	c #F6F2F6",
"6	c #EEEEEE",
"7	c #A4A5A4",
"8	c #5A595A",
"9	c #393839",
"0	c #524C52",
"a	c #BDB6BD",
"b	c #9C959C",
"c	c #393C39",
"d	c #000000",
"e	c #ACA5AC",
"f	c #000400",
"g	c #000408",
"h	c #525052",
"i	c #080408",
"j	c #ACAEAC",
"k	c #5A5D5A",
"l	c #ACAEB4",
"m	c #292C29",
"n	c #ACAAAC",
"........................",
"........................",
".+@#$#%#$#@#$#&######*&.",
".#=-;>#-;-,-;'#-,;,;,)!.",
".#-~{]$-^/(_(#:;<[}:*:#.",
".+####&#######&#######&.",
".#|123@=4=4545@=4=4545@.",
".#67~8#=545555#=545555#.",
".9$#@#0)a)a^)^0)a)a^)^0.",
".#4163#45=5555#45=5555#.",
".#27b8@=45=555@=45=555@.",
".c####ddddddddd#######&.",
".#|123d5=55552d=4=4545^.",
".#6e~8d=55556dfg545555^.",
".+@#$#ddddddddhi######&.",
".#=163#555656ddg4=4545^.",
".#27/8#5555256^4545555^.",
".+####&^^^'^j'k)a)a^)^:.",
".#|12l#5525626'=5=5555^.",
".#67~8#5256262j5=5=555^.",
".m$###&^^'^'^j:jnn7n7e8.",
"........................",
"........................"};
