/* XPM */
static char * del_xpm[] = {
"17 17 83 1",
" 	c None",
".	c #D00000",
"+	c #700000",
"@	c #F02626",
"#	c #990000",
"$	c #2A0000",
"%	c #E10D0D",
"&	c #ED0C0C",
"*	c #DE0000",
"=	c #740000",
"-	c #FF5555",
";	c #F82424",
">	c #D70000",
",	c #910000",
"'	c #210000",
")	c #F22F2F",
"!	c #FF3333",
"~	c #F90A0A",
"{	c #E60000",
"]	c #730000",
"^	c #FF6161",
"/	c #FD1C1C",
"(	c #E90505",
"_	c #CD0000",
":	c #6E0000",
"<	c #FF5B5B",
"[	c #FF2323",
"}	c #FD0202",
"|	c #E00000",
"1	c #7C0101",
"2	c #9D3838",
"3	c #FF1D1D",
"4	c #F30101",
"5	c #D10000",
"6	c #750000",
"7	c #FF5454",
"8	c #FF1717",
"9	c #FE0202",
"0	c #FC1111",
"a	c #FE1D1D",
"b	c #F70505",
"c	c #C80000",
"d	c #720000",
"e	c #FF4848",
"f	c #FF1B1B",
"g	c #FF0000",
"h	c #F80000",
"i	c #D40000",
"j	c #FF4343",
"k	c #FF1616",
"l	c #FB0000",
"m	c #D20000",
"n	c #FF5656",
"o	c #FC0000",
"p	c #F30909",
"q	c #FB0D0D",
"r	c #EC0202",
"s	c #C10000",
"t	c #FF1919",
"u	c #FB0101",
"v	c #9D2525",
"w	c #FE1313",
"x	c #F90000",
"y	c #D90000",
"z	c #F42020",
"A	c #FA1111",
"B	c #F40000",
"C	c #DC0000",
"D	c #710000",
"E	c #FF3C3C",
"F	c #FF0E0E",
"G	c #E20000",
"H	c #E20D0D",
"I	c #DD0000",
"J	c #D30000",
"K	c #FF2B2B",
"L	c #FB1212",
"M	c #9A0A0A",
"N	c #1E0000",
"O	c #C90000",
"P	c #FF3535",
"Q	c #B12222",
"R	c #370D0D",
"                 ",
"                 ",
"   .+      @#$   ",
"  %&*=    -;>,'  ",
"  )!~{]  ^/(_:   ",
"   <[}|123456    ",
"    7890abcd     ",
"     efghi=      ",
"     jkglm:      ",
"    nkopqrs+     ",
"   etu>1vwxy=    ",
"  zABCD  EFlG:   ",
"  HIJd    K8LMN  ",
"   O:      PQR   ",
"                 ",
"                 ",
"                 "};
