/* XPM */
static char * desktop3_xpm[] = {
"42 33 554 2",
"  	c None",
". 	c #D6CCB9",
"+ 	c #DED6C7",
"@ 	c #BFB090",
"# 	c #BFB095",
"$ 	c #9A949A",
"% 	c #BBB5BE",
"& 	c #B5AFB9",
"* 	c #AEA7B1",
"= 	c #AAA3AE",
"- 	c #A69FAA",
"; 	c #A49CA7",
"> 	c #A199A5",
", 	c #A098A4",
"' 	c #A097A4",
") 	c #9F97A3",
"! 	c #A098A5",
"~ 	c #9C94A1",
"{ 	c #908894",
"] 	c #9A8F83",
"^ 	c #776D5A",
"/ 	c #E5E0D4",
"( 	c #F0EDE7",
"_ 	c #E3DDD1",
": 	c #D9D0BD",
"< 	c #D0C6B1",
"[ 	c #746C60",
"} 	c #C0B29D",
"| 	c #F2EFE9",
"1 	c #D0C5B0",
"2 	c #BFAF90",
"3 	c #B8A88C",
"4 	c #38353A",
"5 	c #4C464F",
"6 	c #867B8B",
"7 	c #827787",
"8 	c #817687",
"9 	c #7E7383",
"0 	c #7C7282",
"a 	c #7A6E80",
"b 	c #766A7C",
"c 	c #776B7D",
"d 	c #736879",
"e 	c #746879",
"f 	c #76697C",
"g 	c #74687A",
"h 	c #706376",
"i 	c #6E6174",
"j 	c #6A5D71",
"k 	c #66596D",
"l 	c #5D4F64",
"m 	c #44384B",
"n 	c #3F363B",
"o 	c #B6B3AA",
"p 	c #F8F8F6",
"q 	c #ECE8E0",
"r 	c #CFC3AB",
"s 	c #C4B699",
"t 	c #564F41",
"u 	c #5A4F4B",
"v 	c #BBAF97",
"w 	c #FBFAF8",
"x 	c #C0B192",
"y 	c #BFAF8F",
"z 	c #9F9177",
"A 	c #0F0C10",
"B 	c #281F2B",
"C 	c #514259",
"D 	c #504058",
"E 	c #52425A",
"F 	c #4C3C54",
"G 	c #4B3B53",
"H 	c #483950",
"I 	c #4A3B52",
"J 	c #46374D",
"K 	c #48384F",
"L 	c #4A3A52",
"M 	c #45364C",
"N 	c #403247",
"O 	c #43354B",
"P 	c #221B26",
"Q 	c #433D3A",
"R 	c #F6F4F0",
"S 	c #D1C6B0",
"T 	c #BEAE8F",
"U 	c #4A4338",
"V 	c #443D39",
"W 	c #CEC2AC",
"X 	c #F9F7F5",
"Y 	c #675D52",
"Z 	c #0A070B",
"` 	c #2B212F",
" .	c #493A51",
"..	c #6A6070",
"+.	c #706575",
"@.	c #746979",
"#.	c #9A939D",
"$.	c #B4AFB7",
"%.	c #BBB5BD",
"&.	c #BDB7BF",
"*.	c #E6E4E7",
"=.	c #FDFDFD",
"-.	c #000000",
";.	c #281F2D",
">.	c #221A25",
",.	c #201A21",
"'.	c #E8E3DB",
").	c #C2B396",
"!.	c #3D392E",
"~.	c #363129",
"{.	c #E1D9CB",
"].	c #E9E4DB",
"^.	c #312A2D",
"/.	c #0B080C",
"(.	c #372B3D",
"_.	c #C2BDC5",
":.	c #B8B8B8",
"<.	c #B1B1B1",
"[.	c #C8C8C8",
"}.	c #DBDBDB",
"|.	c #E6E6E6",
"1.	c #EDEDED",
"2.	c #F4F4F4",
"3.	c #F7F7F7",
"4.	c #FBFBFB",
"5.	c #FCFCFC",
"6.	c #FEFEFE",
"7.	c #040305",
"8.	c #2A212F",
"9.	c #252023",
"0.	c #BBB098",
"a.	c #4A4438",
"b.	c #27241D",
"c.	c #D7D2C8",
"d.	c #363237",
"e.	c #181219",
"f.	c #5C4F64",
"g.	c #EAE8EB",
"h.	c #FFFFFF",
"i.	c #A7A7A7",
"j.	c #989898",
"k.	c #BEBEBE",
"l.	c #DCDCDC",
"m.	c #E5E5E5",
"n.	c #EAEAEA",
"o.	c #F5F5F5",
"p.	c #F8F8F8",
"q.	c #555555",
"r.	c #020202",
"s.	c #322835",
"t.	c #5C524B",
"u.	c #36312A",
"v.	c #12100E",
"w.	c #656263",
"x.	c #413945",
"y.	c #423449",
"z.	c #6D6D6D",
"A.	c #707070",
"B.	c #BCBCBC",
"C.	c #D3D3D3",
"D.	c #9B9B9B",
"E.	c #6F6F6F",
"F.	c #797979",
"G.	c #929292",
"H.	c #D1D1D1",
"I.	c #3D333F",
"J.	c #120F15",
"K.	c #C1BDC4",
"L.	c #56475E",
"M.	c #44364B",
"N.	c #3F3246",
"O.	c #D4D4D4",
"P.	c #8F8F8F",
"Q.	c #5D5D5D",
"R.	c #343434",
"S.	c #484848",
"T.	c #5F5F5F",
"U.	c #4E4E4E",
"V.	c #373737",
"W.	c #454545",
"X.	c #A4A4A4",
"Y.	c #DFDFDF",
"Z.	c #B6B6B6",
"`.	c #493951",
" +	c #1C1620",
".+	c #201923",
"++	c #AEA7B0",
"@+	c #B6B1B9",
"#+	c #43354A",
"$+	c #858585",
"%+	c #737373",
"&+	c #787878",
"*+	c #8D8D8D",
"=+	c #959595",
"-+	c #ADADAD",
";+	c #BFBFBF",
">+	c #E8E8E8",
",+	c #F0F0F0",
"'+	c #F9F9F9",
")+	c #717171",
"!+	c #3A2E40",
"~+	c #28212D",
"{+	c #BCB6BE",
"]+	c #A79FAA",
"^+	c #C3C3C3",
"/+	c #ACACAC",
"(+	c #8B8B8B",
"_+	c #5E5E5E",
":+	c #808080",
"<+	c #AAAAAA",
"[+	c #332839",
"}+	c #3D3044",
"|+	c #362B3C",
"1+	c #342939",
"2+	c #C0BAC3",
"3+	c #8F8594",
"4+	c #CECECE",
"5+	c #BBBBBB",
"6+	c #949494",
"7+	c #595959",
"8+	c #282828",
"9+	c #575757",
"0+	c #6A6A6A",
"a+	c #EFEFEF",
"b+	c #E0E0E0",
"c+	c #CFCFCF",
"d+	c #D8D8D8",
"e+	c #281F2C",
"f+	c #35293B",
"g+	c #322737",
"h+	c #C5BFC8",
"i+	c #7C7081",
"j+	c #E1E1E1",
"k+	c #4A4A4A",
"l+	c #AEAEAE",
"m+	c #E9E9E9",
"n+	c #FAFAFA",
"o+	c #C6C6C6",
"p+	c #171219",
"q+	c #C1995E",
"r+	c #D5A960",
"s+	c #735B57",
"t+	c #42344A",
"u+	c #312636",
"v+	c #C5C0C7",
"w+	c #685B6E",
"x+	c #46374E",
"y+	c #EBEBEB",
"z+	c #EEEEEE",
"A+	c #6C6C6C",
"B+	c #C4C4C4",
"C+	c #AD8947",
"D+	c #FECA65",
"E+	c #BE8134",
"F+	c #5A424A",
"G+	c #312736",
"H+	c #BEB9C2",
"I+	c #47384E",
"J+	c #C9C9C9",
"K+	c #7E7E7E",
"L+	c #5C5C5C",
"M+	c #3B3B3B",
"N+	c #4C4C4C",
"O+	c #A9A9A9",
"P+	c #9F9F9F",
"Q+	c #9D9D9D",
"R+	c #FEF9EE",
"S+	c #C59C4E",
"T+	c #EABA62",
"U+	c #CC7300",
"V+	c #84532E",
"W+	c #44354B",
"X+	c #413347",
"Y+	c #47384F",
"Z+	c #332939",
"`+	c #B4AEB7",
" @	c #AFA8B2",
".@	c #F3F3F3",
"+@	c #B2B2B2",
"@@	c #CDCDCD",
"#@	c #ECECEC",
"$@	c #FED076",
"%@	c #E3B45A",
"&@	c #C37413",
"*@	c #AD6510",
"=@	c #392C3E",
"-@	c #392D40",
";@	c #3E3044",
">@	c #47374F",
",@	c #B4ADB7",
"'@	c #A39BA7",
")@	c #493950",
"!@	c #FEF3DD",
"~@	c #D2A456",
"{@	c #652A0C",
"]@	c #2C2231",
"^@	c #2F2535",
"/@	c #2F2534",
"(@	c #322838",
"_@	c #332A37",
":@	c #352938",
"<@	c #B1ABB4",
"[@	c #756C64",
"}@	c #3A2F3D",
"|@	c #3F3145",
"1@	c #444444",
"2@	c #898989",
"3@	c #505050",
"4@	c #3E3E3E",
"5@	c #C3B290",
"6@	c #F2C174",
"7@	c #B06006",
"8@	c #602105",
"9@	c #662100",
"0@	c #2C2230",
"a@	c #241C28",
"b@	c #231B26",
"c@	c #1D1720",
"d@	c #362B3D",
"e@	c #2D2332",
"f@	c #322B30",
"g@	c #6D605B",
"h@	c #2E2432",
"i@	c #B6B0B6",
"j@	c #C2B7A7",
"k@	c #63574D",
"l@	c #3E3245",
"m@	c #D5D5D5",
"n@	c #C7B694",
"o@	c #E6AC5A",
"p@	c #7E3E02",
"q@	c #3A1E1B",
"r@	c #211A25",
"s@	c #18131B",
"t@	c #231B27",
"u@	c #171118",
"v@	c #3B3333",
"w@	c #988A77",
"x@	c #8E8172",
"y@	c #2B2230",
"z@	c #C0B6AF",
"A@	c #F3F0EA",
"B@	c #B4A489",
"C@	c #4A413F",
"D@	c #19141B",
"E@	c #413348",
"F@	c #FEDB98",
"G@	c #FACB71",
"H@	c #DE9E42",
"I@	c #612700",
"J@	c #5E2004",
"K@	c #2A1B21",
"L@	c #1B151E",
"M@	c #1C151E",
"N@	c #0E0A0E",
"O@	c #6E6258",
"P@	c #CDC3B2",
"Q@	c #D5CCC1",
"R@	c #9E907B",
"S@	c #28202D",
"T@	c #E2DDD5",
"U@	c #F3F1EE",
"V@	c #D3C8B3",
"W@	c #C9BCA4",
"X@	c #2A2327",
"Y@	c #120D15",
"Z@	c #33283A",
"`@	c #FDCE73",
" #	c #D58824",
".#	c #BB6C10",
"+#	c #622304",
"@#	c #441600",
"##	c #1C161F",
"$#	c #18121A",
"%#	c #120E14",
"&#	c #141016",
"*#	c #100C10",
"=#	c #998D78",
"-#	c #E9E5E0",
";#	c #EAE6E0",
">#	c #BDAE90",
",#	c #A4957F",
"'#	c #29202D",
")#	c #ABA4AD",
"!#	c #F1EEE8",
"~#	c #EFEBE5",
"{#	c #DDD7C9",
"]#	c #DBD3C3",
"^#	c #BEB197",
"/#	c #302A2B",
"(#	c #09060A",
"_#	c #2A212E",
":#	c #837988",
"<#	c #807C81",
"[#	c #B3ADA2",
"}#	c #EBC274",
"|#	c #7C3D00",
"1#	c #220B00",
"2#	c #100D12",
"3#	c #130F15",
"4#	c #130F16",
"5#	c #100C12",
"6#	c #0A080A",
"7#	c #9D9180",
"8#	c #F3F2F0",
"9#	c #F2EFEA",
"0#	c #CBBFA7",
"a#	c #BAAA8C",
"b#	c #A3947F",
"c#	c #ACA4A6",
"d#	c #F9F8F6",
"e#	c #E3DDCF",
"f#	c #CEC3B0",
"g#	c #BEB099",
"h#	c #C4B7A0",
"i#	c #B2A388",
"j#	c #39342F",
"k#	c #0A090C",
"l#	c #251D29",
"m#	c #17121A",
"n#	c #1B160B",
"o#	c #E1B359",
"p#	c #AF7C2D",
"q#	c #692900",
"r#	c #5A1D00",
"s#	c #110806",
"t#	c #0C090D",
"u#	c #0F0C12",
"v#	c #181414",
"w#	c #A59D91",
"x#	c #F2F0EF",
"y#	c #EDE8E1",
"z#	c #E3DDD0",
"A#	c #C0B19A",
"B#	c #BCAC8D",
"C#	c #988878",
"D#	c #2C2331",
"E#	c #B6ABA2",
"F#	c #F8F7F4",
"G#	c #CFC4AD",
"H#	c #D2C8B3",
"I#	c #C7BAA2",
"J#	c #C1B396",
"K#	c #AB9C80",
"L#	c #AC9D82",
"M#	c #352E2D",
"N#	c #1A151E",
"O#	c #322738",
"P#	c #413349",
"Q#	c #0A080B",
"R#	c #09070A",
"S#	c #403220",
"T#	c #E3B45C",
"U#	c #B47929",
"V#	c #AD5D02",
"W#	c #642102",
"X#	c #4C1C09",
"Y#	c #100C11",
"Z#	c #080609",
"`#	c #0B090D",
" $	c #151017",
".$	c #262120",
"+$	c #A49987",
"@$	c #D4CDC1",
"#$	c #DDD6C9",
"$$	c #E4DED4",
"%$	c #D4CCC0",
"&$	c #CABFAC",
"*$	c #BDAF96",
"=$	c #827469",
"-$	c #584D4B",
";$	c #2D2330",
">$	c #B0A28A",
",$	c #B3B0AC",
"'$	c #565146",
")$	c #464035",
"!$	c #4A4139",
"~$	c #3C352F",
"{$	c #302927",
"]$	c #413936",
"^$	c #161018",
"/$	c #251C28",
"($	c #1E1721",
"_$	c #271F2B",
":$	c #6E583E",
"<$	c #E7B75E",
"[$	c #BF710F",
"}$	c #914C06",
"|$	c #2A110A",
"1$	c #050406",
"2$	c #130E14",
"3$	c #151018",
"4$	c #1C161D",
"5$	c #4E4445",
"6$	c #494044",
"7$	c #8C7E6E",
"8$	c #7C6E66",
"9$	c #766962",
"0$	c #817368",
"a$	c #897B6D",
"b$	c #6B5E5A",
"c$	c #3C3239",
"d$	c #1E1720",
"e$	c #201924",
"f$	c #736B65",
"g$	c #544E4A",
"h$	c #292325",
"i$	c #110E13",
"j$	c #17131A",
"k$	c #1B161F",
"l$	c #211A23",
"m$	c #383037",
"n$	c #241D29",
"o$	c #241E29",
"p$	c #261F2B",
"q$	c #221B25",
"r$	c #928156",
"s$	c #D5A556",
"t$	c #6E2E06",
"u$	c #5C1E01",
"v$	c #0F0705",
"w$	c #030304",
"x$	c #030203",
"y$	c #050405",
"z$	c #1D1721",
"A$	c #211B25",
"B$	c #251E2A",
"C$	c #161118",
"D$	c #D5D68D",
"E$	c #E2BB5D",
"F$	c #C06700",
"G$	c #692100",
"H$	c #4B1800",
"I$	c #BDCC99",
"J$	c #F2ECC5",
"K$	c #B2A96D",
"L$	c #965A05",
"M$	c #A35502",
"N$	c #270C00",
"O$	c #EBE7C0",
"P$	c #CDC398",
"Q$	c #1E1D0F",
"R$	c #0C0900",
"S$	c #512A04",
"T$	c #5E1E00",
"U$	c #0D0400",
"V$	c #9B9D78",
"W$	c #938C6A",
"X$	c #221E17",
"Y$	c #121001",
"Z$	c #391900",
"`$	c #1B1B14",
" %	c #060505",
".%	c #090700",
"        . + @ @ @ # $ % & * = - ; > , ' > > ) ' > ! > ! ~ { ] ^ / ( _ : < [         ",
"      } | 1 2 2 3 4 5 6 6 7 8 8 9 0 a b c d e f g h i j k l m n o p q r s t u       ",
"      v w x y z A B C D E F G H I F F F J K G L M N F F F F F O P Q R S T U V       ",
"      W X y Y Z ` F F F F L  .F ..+.@.#.$.%.&.*.=.-.;.F F F F F G >.,.'.).!.~.      ",
"      {.].^./.(.F F F F H _.:.<.[.}.|.1.2.3.4.5.6.-.7.F F F F F F F 8.9.0.a.b.      ",
"      c.d.e.O F F F H f.g.h.i.j.k.l.m.n.o.p.1.=.6.q.r.F F F F F F F L s.t.u.v.      ",
"      w.x.F F L y.M 6 h.h.h.z.A.B.C.D.E.F.G.H.=.h.q.-.F F F F F F L I F I.A J.      ",
"      K.L.M.N.N K F O.P.Q.R.R.S.T.U.V.W.X.Y.Z.h.h.q.-.F F F F F `.F F F F  +.+      ",
"    ++@+#+K G F F F $+%+&+*+=+-+;+>+,+'+5.6.h.h.h.)+-.N F F F I G F F F F !+~+      ",
"    {+]+F F F F F F -+<.Z.^+^+/+(+_+S.A.=+:+,+h.h.<+-.[+F F G L F F F F F }+|+1+    ",
"    2+3+F F F F F F 4+<+5+6+7+8+9+i.0+a+b+c+d+h.h.<+-.e+F I  .F F F F F F y.f+g+    ",
"    h+i+F F F F F G j+k.k+Q.l+m+n+5.Z.p.h.h.h.h.h.o+-.p+q+r+s+F F F F F G t+[+u+    ",
"    v+w+F F F F  .x+y+>+z+2.o.p.5.=.5.-+U.A+B+h.h.h.-.C+D+D+E+F+F G G `.`.x+[+G+    ",
"    H+C F F F H I+F ,+J+E.K+L+M+)+A.N+&+O+P+Q+h.h.R+S+D+T+E+U+V+H W+X+x+Y+x+|+Z+    ",
"  `+ @F F F `.`.F F .@b+n.c++@@@4.h.h.h.h.#@h.h.R+$@D+%@&@U+U+*@=@f+-@;@>@J g+1+    ",
"  ,@'@F F )@G F F F '+n+n+4.=.=.h.X.h.h.h.A.h.!@$@D+~@U+U+U+U+{@]@^@/@(@!+M |+_@:@  ",
"  <@[@}@|@F F F F F n+n+|.1@o+O.2@3@:+A+A+4@5@D+D+6@U+U+U+7@8@9@0@a@b@c@d@e@f@g@h@  ",
"  i@j@k@b@l@F F F F 5.=.4.%+m@5.p.b+h.h.h.n@D+D+o@U+U+U+p@9@9@q@r@c@s@t@u@v@w@x@y@  ",
"  z@A@B@C@D@E@F F F =.6.6.6.h.h.h.h.h.h.F@D+G@H@U+U+U+I@9@J@K@c@L@D@M@N@O@P@Q@R@S@  ",
"  T@U@V@W@X@Y@Z@F F 6.6.6.h.h.h.h.h.h.F@D+`@ #U+U+.#+#9@@###s@$#%#&#*#=#-#;#>#,#'#  ",
")#!#~#{#]#^#/#(#_#G :#<#<+<+<+<+<+[#}#D+~@U+U+U+|#9@9@1#2#3#&#4#5#6#7#8#9#0#a#b#y@  ",
"c#d#e#f#g#h#i#j#k#l#G m#-.-.-.-.n#o#D+p#U+U+U+q#9@r#s#t#t#5#%#u#v#w#x#y#z#A#B#C#D#  ",
"E#F#G#H#I#J#K#L#M#N#O#P#m#Q#R#S#T#D+U#U+U+V#W#9@X#Y#R#Z#`# $Y#.$+$@$#$$$%$&$*$=$-$;$",
">$,$'$a.)$!$~${$]$^$/$($t@_$:$D+<$[$U+U+}$9@9@|$Z#1$1$Q#2$3$4$5$6$7$8$9$0$a$b$c$d$e$",
"f$g$h$i$j$N#k$l$m$n$o$p$q$r$D+s$[$U+U+t$9@u$v$w$x$y$R#2#s@z$A$n$B$p$p$p$p$p$p$r@m#C$",
"                          D$E$U+U+F$G$9@H$-.-.-.-.-.                                ",
"                        I$J$K$L$M$9@9@N$-.-.-.-.-.                                  ",
"                        O$P$Q$R$S$T$U$-.-.-.-.                                      ",
"                      V$W$X$-.Y$Z$-.-.-.-.                                          ",
"                      `$ %.%    -.-.-.                                              ",
"                              -.-.                                                  ",
"                                                                                    ",
"                                                                                    "};
