/* XPM */
static char * dia_xpm[] = {
"23 24 151 2",
"  	c None",
". 	c #A8AFA8",
"+ 	c #78A478",
"@ 	c #78A578",
"# 	c #78A078",
"$ 	c #A5AAA5",
"% 	c #5A825A",
"& 	c #00FA00",
"* 	c #00FF00",
"= 	c #00E300",
"- 	c #557355",
"; 	c #5A7C5A",
"> 	c #00D100",
", 	c #00D500",
"' 	c #00BD00",
") 	c #556E55",
"! 	c #D8DBD8",
"~ 	c #B3C5B3",
"{ 	c #334533",
"] 	c #4B5B4B",
"^ 	c #C0C3C0",
"/ 	c #CACACA",
"( 	c #404040",
"_ 	c #4C4C4C",
": 	c #1E1E1E",
"< 	c #181818",
"[ 	c #080808",
"} 	c #202020",
"| 	c #3A393A",
"1 	c #898889",
"2 	c #C7C6C7",
"3 	c #BEBEBE",
"4 	c #3C3C3C",
"5 	c #F0F0F0",
"6 	c #F0CDB6",
"7 	c #B4B4B4",
"8 	c #474647",
"9 	c #171817",
"0 	c #525352",
"a 	c #C8C6C8",
"b 	c #FFFFFF",
"c 	c #FF8D41",
"d 	c #FFDAC1",
"e 	c #EDEDED",
"f 	c #8A888A",
"g 	c #131313",
"h 	c #141514",
"i 	c #AEADAE",
"j 	c #FFD6BA",
"k 	c #F86D11",
"l 	c #FF8C40",
"m 	c #FDF6F2",
"n 	c #EDECED",
"o 	c #575757",
"p 	c #070607",
"q 	c #171617",
"r 	c #B8B7B8",
"s 	c #FFF4EC",
"t 	c #FF8838",
"u 	c #FEE0CA",
"v 	c #EF6C15",
"w 	c #F1AC7F",
"x 	c #D2D2D2",
"y 	c #1C1B1C",
"z 	c #010201",
"A 	c #EAE9EA",
"B 	c #FFAE78",
"C 	c #FF9852",
"D 	c #FFFEFD",
"E 	c #F0B792",
"F 	c #F46E14",
"G 	c #FCF0E8",
"H 	c #DDDDDD",
"I 	c #A0A0A0",
"J 	c #424342",
"K 	c #000000",
"L 	c #161516",
"M 	c #999899",
"N 	c #0F0F0F",
"O 	c #451F06",
"P 	c #442C1C",
"Q 	c #3F3B38",
"R 	c #461C00",
"S 	c #3D2E26",
"T 	c #313131",
"U 	c #8A8A8A",
"V 	c #5E5E5E",
"W 	c #D6D6D6",
"X 	c #464646",
"Y 	c #0C0C0C",
"Z 	c #939293",
"` 	c #343434",
" .	c #CB8558",
"..	c #D28858",
"+.	c #D2C5BC",
"@.	c #C85A12",
"#.	c #A4968D",
"$.	c #606060",
"%.	c #BFBFBF",
"&.	c #F6F6F6",
"*.	c #464446",
"=.	c #171517",
"-.	c #989798",
";.	c #FCE9DC",
">.	c #F87116",
",.	c #E1996A",
"'.	c #FBEDE4",
").	c #EE5F00",
"!.	c #E59F72",
"~.	c #D3D2D3",
"{.	c #1C1C1C",
"].	c #010101",
"^.	c #252525",
"/.	c #C1C1C1",
"(.	c #FDCBAA",
"_.	c #F56200",
":.	c #EC6306",
"<.	c #EF680F",
"[.	c #F0690F",
"}.	c #F1690F",
"|.	c #F1680D",
"1.	c #ED5F00",
"2.	c #E97830",
"3.	c #090A09",
"4.	c #5B5C5B",
"5.	c #E1E0E1",
"6.	c #403E40",
"7.	c #323132",
"8.	c #C3C3C3",
"9.	c #D9D9D9",
"0.	c #444344",
"a.	c #414141",
"b.	c #E6E6E6",
"c.	c #A6A6A6",
"d.	c #8C8C8C",
"e.	c #3E3D3E",
"f.	c #5D5D5D",
"g.	c #B6B4B6",
"h.	c #303030",
"i.	c #434343",
"j.	c #5E5F5E",
"k.	c #9D9B9D",
"l.	c #D4D4D4",
"m.	c #DCDCDC",
"n.	c #626262",
"o.	c #4F4F4F",
"p.	c #6A6B6A",
"q.	c #747474",
"r.	c #717171",
"s.	c #B7B7B7",
"t.	c #969696",
"      . + @ # $                               ",
"      % & * = -                               ",
"      % & * = -                               ",
"      ; > , ' )                               ",
"      ! ~ { ] ^                               ",
"        / (                                   ",
"  _ : : < [ : : : : : : : : } | 1 2           ",
"        3 4 5 5 5 5 5 6 5 5 5 7 8 9 0 a       ",
"        / ( b b b b b c d b b b e f g h i     ",
"        / ( b b b b j k l m b b b n o p q r   ",
"        / ( b b b s t u v w b b b b x y z 8 A ",
"        / ( b b b B C D E F G H I 5 b J K L M ",
"        / N 4 4 4 O P 4 Q R S T U V W X K Y Z ",
"        / ` x x  ...x x x +.@.#.$.%.&.*.K =.-.",
"        / ( b ;.>.,.b b b '.).!.&.b ~.{.].^./.",
"        / ( b (._.:.<.[.}.|.1.2.b b /.Y 3.4.  ",
"        / ( b b b b b b b b b b b 5.6.p 7.8.  ",
"        / ( b b b b b b b b b b 9.0.g a.3     ",
"  b.x x c.` x x x x x x x x x d.e.f.g.        ",
"  f.4 4 h.N 4 4 4 4 4 4 4 i.j.k.l.            ",
"        / (                                   ",
"      m.n.o.p.                                ",
"        q.r.s.                                ",
"        m.t.                                  "};
