/* XPM */
static char * doc_footer_xpm[] = {
"48 48 222 2",
"  	c None",
". 	c #B8C4DA",
"+ 	c #C3CEE1",
"@ 	c #B7C4DA",
"# 	c #B5C2D8",
"$ 	c #B4C1D8",
"% 	c #B3C0D7",
"& 	c #B2BFD7",
"* 	c #B0BDD5",
"= 	c #AFBDD5",
"- 	c #ACBAD3",
"; 	c #A9B8D1",
"> 	c #A6B5CF",
", 	c #A4B3CE",
"' 	c #A1B1CC",
") 	c #9DAECA",
"! 	c #98A9C5",
"~ 	c #95A6C2",
"{ 	c #90A1BD",
"] 	c #8C9DB9",
"^ 	c #8697B3",
"/ 	c #A6B4CE",
"( 	c #FFFFFF",
"_ 	c #FDFFFF",
": 	c #FBFEFF",
"< 	c #F8FBFF",
"[ 	c #F4F8FF",
"} 	c #F1F5FD",
"| 	c #EEF3FB",
"1 	c #E7EDF7",
"2 	c #E3E9F4",
"3 	c #DCE3F0",
"4 	c #D7DFED",
"5 	c #D0D9E9",
"6 	c #CAD4E5",
"7 	c #A5B4CF",
"8 	c #FEFFFF",
"9 	c #FCFFFF",
"0 	c #F9FCFF",
"a 	c #F5F9FF",
"b 	c #EDF2FB",
"c 	c #E6ECF6",
"d 	c #E2E9F4",
"e 	c #DBE3F0",
"f 	c #D6DEED",
"g 	c #CED7E8",
"h 	c #C7D1E3",
"i 	c #D2DBEA",
"j 	c #B9C5DB",
"k 	c #F6FAFF",
"l 	c #F2F6FE",
"m 	c #E9EEF8",
"n 	c #E4EAF5",
"o 	c #DFE6F2",
"p 	c #D8E0EE",
"q 	c #CBD5E6",
"r 	c #FAFDFF",
"s 	c #EFF3FC",
"t 	c #EAEFF9",
"u 	c #D4DCEB",
"v 	c #E5EBF6",
"w 	c #EEF2FB",
"x 	c #ECF1FA",
"y 	c #C0CBDF",
"z 	c #E5E5E5",
"A 	c #E1E5E5",
"B 	c #E0E5E5",
"C 	c #DAE0E5",
"D 	c #D5DCE5",
"E 	c #CED5E3",
"F 	c #C8CFE0",
"G 	c #BDC8D8",
"H 	c #B8C3D5",
"I 	c #DAE1EF",
"J 	c #BFCADE",
"K 	c #D7DCE5",
"L 	c #D1D8E5",
"M 	c #CAD1E0",
"N 	c #C3CCDC",
"O 	c #E1E7F3",
"P 	c #F5F8FF",
"Q 	c #CFD8E8",
"R 	c #DCE1E5",
"S 	c #D8DEE5",
"T 	c #CCD3E1",
"U 	c #C5CEDE",
"V 	c #BAC5D7",
"W 	c #DDE4F1",
"X 	c #C1CCE0",
"Y 	c #F6F9FF",
"Z 	c #F3F7FE",
"` 	c #EBF0F9",
" .	c #C6D1E3",
"..	c #F7FAFF",
"+.	c #F0F4FC",
"@.	c #DAE2EF",
"#.	c #8E9FBB",
"$.	c #8F9EB9",
"%.	c #E3E5E5",
"&.	c #E8EDF7",
"*.	c #D9E1EE",
"=.	c #CCD5E6",
"-.	c #C8D2E4",
";.	c #9FAFCB",
">.	c #5B6C88",
",.	c #5F6474",
"'.	c #EDEEF1",
").	c #9DA1AD",
"!.	c #C3C6CD",
"~.	c #C9D3E5",
"{.	c #BBC7DC",
"].	c #AEBCD4",
"^.	c #ABB9D2",
"/.	c #A3B2CD",
"(.	c #5D6E8A",
"_.	c #2F3036",
":.	c #787A85",
"<.	c #B8BAC1",
"[.	c #F8F8F8",
"}.	c #F0F3F7",
"|.	c #C6C8CD",
"1.	c #93959D",
"2.	c #595A5E",
"3.	c #9A9EA9",
"4.	c #E1E3E7",
"5.	c #B6C2D9",
"6.	c #B1BED6",
"7.	c #A7B6D0",
"8.	c #60718D",
"9.	c #26272D",
"0.	c #606370",
"a.	c #90949F",
"b.	c #BFC3C9",
"c.	c #C1C7D1",
"d.	c #A6A9B2",
"e.	c #80828D",
"f.	c #515257",
"g.	c #858996",
"h.	c #EFF4FC",
"i.	c #E2E8F4",
"j.	c #BDC8DD",
"k.	c #B6C3D9",
"l.	c #637490",
"m.	c #0A0A0A",
"n.	c #858A98",
"o.	c #DEE3E5",
"p.	c #D5DAE5",
"q.	c #BFCADA",
"r.	c #B1BDD1",
"s.	c #ACB8CE",
"t.	c #98A6C1",
"u.	c #778BAD",
"v.	c #7086AA",
"w.	c #6D82A8",
"x.	c #697FA4",
"y.	c #677DA4",
"z.	c #667793",
"A.	c #C5D0E2",
"B.	c #BAC6DB",
"C.	c #687995",
"D.	c #96A6C1",
"E.	c #8B9BBA",
"F.	c #8294B5",
"G.	c #8092B3",
"H.	c #798DAF",
"I.	c #7689AD",
"J.	c #7286AA",
"K.	c #BECADE",
"L.	c #BCC8DD",
"M.	c #6A7B97",
"N.	c #CDD6E7",
"O.	c #6C7D99",
"P.	c #CFD7E3",
"Q.	c #C8D1E0",
"R.	c #C1CADA",
"S.	c #9FADC6",
"T.	c #94A4BF",
"U.	c #91A1BD",
"V.	c #889AB8",
"W.	c #8698B6",
"X.	c #7D91B1",
"Y.	c #6E7F9B",
"Z.	c #E9EFF8",
"`.	c #70819D",
" +	c #D7DEE5",
".+	c #B5BFD3",
"++	c #AAB6CC",
"@+	c #9AA8C3",
"#+	c #9BAAC5",
"$+	c #8F9FBC",
"%+	c #71829E",
"&+	c #DEE5F1",
"*+	c #7384A0",
"=+	c #E0E7F3",
"-+	c #7485A1",
";+	c #BFC8DA",
">+	c #BDC6D8",
",+	c #B6C1D5",
"'+	c #A6B3CA",
")+	c #A3AFC8",
"!+	c #7586A2",
"~+	c #ADBACF",
"{+	c #A8B5CC",
"]+	c #9DACC5",
"^+	c #7687A3",
"/+	c #C6CFDE",
"(+	c #AFBACF",
"_+	c #A3B1C8",
":+	c #D5DDEC",
"<+	c #DCDEE2",
"[+	c #7788A4",
"}+	c #505156",
"|+	c #888C99",
"1+	c #B3BDD1",
"2+	c #7889A5",
"3+	c #798AA6",
"4+	c #8F9399",
"5+	c #A81E1E",
"6+	c #7A8BA7",
"7+	c #B2BCCE",
"8+	c #7C8CA8",
"9+	c #0B0B0B",
"                                                                                                ",
"                                                                                                ",
"                        . + @ # $ % & * = - - ; > , ' ) ! ~ { ] ^ /                             ",
"                        . ( ( ( ( ( ( ( ( _ : < [ } | 1 2 3 4 5 6 7 /                           ",
"                        . ( ( ( ( ( ( ( ( 8 9 0 a } b c d e f g h 7 i /                         ",
"                        j ( ( ( ( ( ( ( ( ( 9 0 k l b m n o p i q 7 3 6 /                       ",
"                        . ( ( ( ( ( ( ( ( 8 9 r k [ s t c o e u g 7 v u + /                     ",
"                        j ( ( ( ( ( ( ( ( ( 8 : < [ } w m 2 o 4 5 7 x o 5 y /                   ",
"                        j ( ( ( ( z z z z z A B C D E F G H o I i 7 [ t 3 g J /                 ",
"                        j ( ( ( ( z z z z z z B C K L M N H O e u 7 9 P m 3 Q J /               ",
"                        j ( ( ( ( z z z z z z B R S L T U V 2 W 4 7 ( 9 l m 3 5 X /             ",
"                        j ( ( ( ( ( ( ( ( ( ( 9 : < Y Z w m n o I 7 ( ( 9 Z ` o i  ./           ",
"                        j ( ( ( ( ( ( ( ( ( ( 8 9 : ..Z +.t c O @.7 #.#.#.#.#.#.#.#.#.$.        ",
"                        j ( ( ( ( z z z z z z %.B r k Z +.x &.O W *.i =.-.X - > , ;.) >.        ",
"                ,.      j ( '.).!.( ( ( ( ( ( 8 9 r ..[ } x 1 n O 4 u Q ~.{.].^.; > /.(.        ",
"              ,._.:.<.[.}.|.1.2.3.4.( ( ( ( ( ( 9 : < a } x t v o @.4 i h 5.6.= - ^.7.8.        ",
"              ,.9.0.a.b.c.d.e.f.g.4.( ( ( ( ( ( _ : 0 ..l h.t c i.3 p Q j.. k.$ & * ].l.m.      ",
"                n.      j ( '.).!.z z z z z z z B o.C p.Z h.q.V r.s.t.u.v.w.x.y.@ $ & z.m.      ",
"                        j ( ( ( ( ( ( ( ( ( ( ( 8 : 0 Y [ +.x 1 d u ~.A.X y j.{.B.. k.C.m.      ",
"                        B.( ( ( ( z z z z z z z %.B C S [ } U s.D.E.F.G.H.I.I.J.K.L.B.M.m.      ",
"                        B.( ( ( ( ( ( ( ( ( ( ( 8 9 : [ b c o p 5 N.=.-.-.A.A.+ X y K.O.m.      ",
"                        B.( ( ( ( z z z z z %.o.S P.Q.R.&.O S.T.U.U.E.V.W.F.G.X.A.+ X Y.m.      ",
"                        B.( ( ( ( ( ( ( ( : 0 ..k [ l Z.W p f u i 5 5 Q N.q 6 -.h  .A.`.m.      ",
"                        B.( ( ( ( z z A B o.R C  +T .+++3 3 S.@+#+t.T.U.U.$+E.V.6 -.-.%+m.      ",
"                        B.( ( ( ( ( 8 8 9 9 : ..Z.d O o W 3 3 p 4 4 u i i 5 Q N.=.q ~.%+m.      ",
"                        B.( ( ( ( ( ( ( _ 8 [ m v n d O &+W 3 3 p p 4 f u i i 5 g N.=.*+m.      ",
"                        B.( ( ( ( ( ( ( 8 Z t m m v n d d =+&+3 @.p p f u u i i 5 5 g -+m.      ",
"                        B.( ( ( ( z z z D U R.;+>+,+.+.+2 O ++s.'+)+)+S.S.#+t.t.i 5 5 !+m.      ",
"                        B.( ( ( ( z ( 9 | U | t m 1 n ,+d d ~+s.{+'+'+)+S.]+#+t.u i 5 ^+m.      ",
"                n.      B.( '.).!.z ( Z h./+b x m m 1 H v 2 (+s.s.{+'+_+)+S.]+@+:+i i ^+m.      ",
"              n._.:.<.[.}.|.1.2.3.<+o.T Q./+/+R.;+>+V V v n r.~+s.{+{+'+_+S.]+#+:+u u [+m.      ",
"              n.9.0.a.b.c.d.e.}+|+P.} h.| /+| ` ` t m V 1 c ,+1+~+~+++'+'+)+S.S.u u u [+m.      ",
"                n.      B.( '.).!.P.} h.h./+x ` t t m V 1 c n d =+=+&+3 3 I p p :+f u 2+m.      ",
"                        B.( ( ( ( T T Q./+U N R.;+>+V V 1 v 1+r.~+s.++'+'+_+S.S.f f u 2+m.      ",
"                        B.( ( ( ( +.h.h.| | x t t m m 1 1 c 2 d =+o W 3 @.p p p 4 f :+3+m.      ",
"                        B.( ( ( ( 4+4+4+4+4+4+4+4+4+4+4+4+4+4+4+4+4+4+4+4+4+4+4+4 f :+3+m.      ",
"                        B.( ( ( ( 4+4+4+4+4+4+4+4+4+4+4+4+4+4+4+4+4+4+4+4+4+4+4+4 f :+3+m.      ",
"                        B.( ( ( ( 4+4+4+4+4+4+4+4+4+4+4+4+4+4+4+4+4+4+4+4+4+4+4+4 4 u 3+m.      ",
"                        B.( ( ( 9 } h.h.| x ` t m m 1 1 c v 2 =+o &+W 3 @.p p 4 4 :+:+3+m.      ",
"                        B.( ( ( 0 5+5+5+5+5+5+5+5+5+5+5+5+5+5+5+5+5+5+5+5+5+5+5+4 :+:+6+m.      ",
"                        B.( ( ( Z 5+5+5+5+5+5+5+5+5+5+5+5+5+5+5+5+5+5+5+5+5+5+5+f :+:+6+m.      ",
"                        B.( ( _ } 5+5+5+5+5+5+5+5+5+5+5+5+5+5+5+5+5+5+5+5+5+5+5+f f f 6+m.      ",
"                        B.( ( P } } h.h.| x ` t m m 1 1 c v 2 =+o &+W 3 @.p p 4 f f :+6+m.      ",
"                        B.( r } } h.| | | ` ` m m m 1 c c n d =+o &+3 @.@.p p 4 f f :+6+m.      ",
"                        B.7+8+6+6+6+6+6+6+6+6+6+6+6+6+6+6+6+6+6+6+6+6+6+6+6+6+6+6+6+6+6+m.      ",
"                            m.9+9+9+9+9+9+9+9+9+9+9+9+9+9+9+9+9+9+9+9+9+9+9+9+9+9+9+9+m.        ",
"                              m.m.m.m.m.m.m.m.m.m.m.m.m.m.m.m.m.m.m.m.m.m.m.m.m.m.m.m.          ",
"                                                                                                "};
