/* XPM */
static char * doc_header_xpm[] = {
"48 48 217 2",
"  	c None",
". 	c #B8C4DA",
"+ 	c #C3CEE1",
"@ 	c #B7C4DA",
"# 	c #B5C2D8",
"$ 	c #B4C1D8",
"% 	c #B3C0D7",
"& 	c #B2BFD7",
"* 	c #B0BDD5",
"= 	c #AFBDD5",
"- 	c #ACBAD3",
"; 	c #A9B8D1",
"> 	c #A6B5CF",
", 	c #A4B3CE",
"' 	c #A1B1CC",
") 	c #9DAECA",
"! 	c #98A9C5",
"~ 	c #95A6C2",
"{ 	c #90A1BD",
"] 	c #8C9DB9",
"^ 	c #8697B3",
"/ 	c #A6B4CE",
"( 	c #FFFFFF",
"_ 	c #FDFFFF",
": 	c #FBFEFF",
"< 	c #F8FBFF",
"[ 	c #F4F8FF",
"} 	c #F1F5FD",
"| 	c #EEF3FB",
"1 	c #E7EDF7",
"2 	c #E3E9F4",
"3 	c #DCE3F0",
"4 	c #D7DFED",
"5 	c #D0D9E9",
"6 	c #CAD4E5",
"7 	c #A5B4CF",
"8 	c #FEFFFF",
"9 	c #FCFFFF",
"0 	c #F9FCFF",
"a 	c #F5F9FF",
"b 	c #EDF2FB",
"c 	c #E6ECF6",
"d 	c #E2E9F4",
"e 	c #DBE3F0",
"f 	c #D6DEED",
"g 	c #CED7E8",
"h 	c #C7D1E3",
"i 	c #D2DBEA",
"j 	c #B9C5DB",
"k 	c #F6FAFF",
"l 	c #F2F6FE",
"m 	c #E9EEF8",
"n 	c #E4EAF5",
"o 	c #DFE6F2",
"p 	c #D8E0EE",
"q 	c #CBD5E6",
"r 	c #FAFDFF",
"s 	c #EFF3FC",
"t 	c #EAEFF9",
"u 	c #D4DCEB",
"v 	c #E5EBF6",
"w 	c #EEF2FB",
"x 	c #ECF1FA",
"y 	c #C0CBDF",
"z 	c #A81E1E",
"A 	c #BFCADE",
"B 	c #F5F8FF",
"C 	c #CFD8E8",
"D 	c #C1CCE0",
"E 	c #F6F9FF",
"F 	c #F3F7FE",
"G 	c #DAE1EF",
"H 	c #EBF0F9",
"I 	c #C6D1E3",
"J 	c #8F9399",
"K 	c #8E9FBB",
"L 	c #8F9EB9",
"M 	c #9FAFCB",
"N 	c #5B6C88",
"O 	c #5F6474",
"P 	c #EDEEF1",
"Q 	c #9DA1AD",
"R 	c #C3C6CD",
"S 	c #A3B2CD",
"T 	c #5D6E8A",
"U 	c #2F3036",
"V 	c #787A85",
"W 	c #B8BAC1",
"X 	c #F8F8F8",
"Y 	c #F0F3F7",
"Z 	c #C6C8CD",
"` 	c #93959D",
" .	c #595A5E",
"..	c #9A9EA9",
"+.	c #E1E3E7",
"@.	c #DAE2EF",
"#.	c #B6C2D9",
"$.	c #B1BED6",
"%.	c #ABB9D2",
"&.	c #A7B6D0",
"*.	c #60718D",
"=.	c #26272D",
"-.	c #606370",
";.	c #90949F",
">.	c #BFC3C9",
",.	c #C1C7D1",
"'.	c #A6A9B2",
").	c #80828D",
"!.	c #515257",
"~.	c #858996",
"{.	c #F7FAFF",
"].	c #EFF4FC",
"^.	c #E2E8F4",
"/.	c #BDC8DD",
"(.	c #B6C3D9",
"_.	c #AEBCD4",
":.	c #637490",
"<.	c #0A0A0A",
"[.	c #858A98",
"}.	c #E5E5E5",
"|.	c #E0E5E5",
"1.	c #DEE3E5",
"2.	c #DAE0E5",
"3.	c #D5DAE5",
"4.	c #BFCADA",
"5.	c #BAC5D7",
"6.	c #B1BDD1",
"7.	c #ACB8CE",
"8.	c #98A6C1",
"9.	c #778BAD",
"0.	c #7086AA",
"a.	c #6D82A8",
"b.	c #697FA4",
"c.	c #677DA4",
"d.	c #667793",
"e.	c #F0F4FC",
"f.	c #C9D3E5",
"g.	c #C5D0E2",
"h.	c #BBC7DC",
"i.	c #BAC6DB",
"j.	c #687995",
"k.	c #E3E5E5",
"l.	c #D8DEE5",
"m.	c #C5CEDE",
"n.	c #96A6C1",
"o.	c #8B9BBA",
"p.	c #8294B5",
"q.	c #8092B3",
"r.	c #798DAF",
"s.	c #7689AD",
"t.	c #7286AA",
"u.	c #BECADE",
"v.	c #BCC8DD",
"w.	c #6A7B97",
"x.	c #CDD6E7",
"y.	c #CCD5E6",
"z.	c #C8D2E4",
"A.	c #6C7D99",
"B.	c #CFD7E3",
"C.	c #C8D1E0",
"D.	c #C1CADA",
"E.	c #E8EDF7",
"F.	c #E1E7F3",
"G.	c #9FADC6",
"H.	c #94A4BF",
"I.	c #91A1BD",
"J.	c #889AB8",
"K.	c #8698B6",
"L.	c #7D91B1",
"M.	c #6E7F9B",
"N.	c #E9EFF8",
"O.	c #DDE4F1",
"P.	c #70819D",
"Q.	c #E1E5E5",
"R.	c #DCE1E5",
"S.	c #D7DEE5",
"T.	c #CCD3E1",
"U.	c #B5BFD3",
"V.	c #AAB6CC",
"W.	c #9AA8C3",
"X.	c #9BAAC5",
"Y.	c #8F9FBC",
"Z.	c #71829E",
"`.	c #DEE5F1",
" +	c #7384A0",
".+	c #E0E7F3",
"++	c #7485A1",
"@+	c #D5DCE5",
"#+	c #BFC8DA",
"$+	c #BDC6D8",
"%+	c #B6C1D5",
"&+	c #A6B3CA",
"*+	c #A3AFC8",
"=+	c #7586A2",
"-+	c #ADBACF",
";+	c #A8B5CC",
">+	c #9DACC5",
",+	c #7687A3",
"'+	c #C6CFDE",
")+	c #B8C3D5",
"!+	c #AFBACF",
"~+	c #A3B1C8",
"{+	c #D5DDEC",
"]+	c #DCDEE2",
"^+	c #7788A4",
"/+	c #505156",
"(+	c #888C99",
"_+	c #7889A5",
":+	c #C3CCDC",
"<+	c #B3BDD1",
"[+	c #798AA6",
"}+	c #D1D8E5",
"|+	c #CAD1E0",
"1+	c #7A8BA7",
"2+	c #B2BCCE",
"3+	c #7C8CA8",
"4+	c #0B0B0B",
"                                                                                                ",
"                                                                                                ",
"                        . + @ # $ % & * = - - ; > , ' ) ! ~ { ] ^ /                             ",
"                        . ( ( ( ( ( ( ( ( _ : < [ } | 1 2 3 4 5 6 7 /                           ",
"                        . ( ( ( ( ( ( ( ( 8 9 0 a } b c d e f g h 7 i /                         ",
"                        j ( ( ( ( ( ( ( ( ( 9 0 k l b m n o p i q 7 3 6 /                       ",
"                        . ( ( ( ( ( ( ( ( 8 9 r k [ s t c o e u g 7 v u + /                     ",
"                        j ( ( ( ( ( ( ( ( ( 8 : < [ } w m 2 o 4 5 7 x o 5 y /                   ",
"                        j ( ( ( ( z z z z z z z z z z z z z z z z 7 [ t 3 g A /                 ",
"                        j ( ( ( ( z z z z z z z z z z z z z z z z 7 9 B m 3 C A /               ",
"                        j ( ( ( ( z z z z z z z z z z z z z z z z 7 ( 9 l m 3 5 D /             ",
"                        j ( ( ( ( ( ( ( ( ( ( 9 : < E F w m n o G 7 ( ( 9 F H o i I /           ",
"                        j ( ( ( ( J J J J J J J J J J J J J J J J 7 K K K K K K K K K L         ",
"                        j ( ( ( ( J J J J J J J J J J J J J J J J J J J J J J J , M ) N         ",
"                O       j ( P Q R J J J J J J J J J J J J J J J J J J J J J J J ; > S T         ",
"              O U V W X Y Z `  ...+.( ( ( ( ( ( 9 : < a } x t v o @.4 i h #.$.= - %.&.*.        ",
"              O =.-.;.>.,.'.).!.~.+.( ( ( ( ( ( _ : 0 {.l ].t c ^.3 p C /.. (.$ & * _.:.<.      ",
"                [.      j ( P Q R }.}.}.}.}.}.}.|.1.2.3.F ].4.5.6.7.8.9.0.a.b.c.@ $ & d.<.      ",
"                        j ( ( ( ( ( ( ( ( ( ( ( 8 : 0 E [ e.x 1 d u f.g.D y /.h.i.. (.j.<.      ",
"                        i.( ( ( ( }.}.}.}.}.}.}.k.|.2.l.[ } m.7.n.o.p.q.r.s.s.t.u.v.i.w.<.      ",
"                        i.( ( ( ( ( ( ( ( ( ( ( 8 9 : [ b c o p 5 x.y.z.z.g.g.+ D y u.A.<.      ",
"                        i.( ( ( ( }.}.}.}.}.k.1.l.B.C.D.E.F.G.H.I.I.o.J.K.p.q.L.g.+ D M.<.      ",
"                        i.( ( ( ( ( ( ( ( : 0 {.k [ l N.O.p f u i 5 5 C x.q 6 z.h I g.P.<.      ",
"                        i.( ( ( ( }.}.Q.|.1.R.2.S.T.U.V.3 3 G.W.X.8.H.I.I.Y.o.J.6 z.z.Z.<.      ",
"                        i.( ( ( ( ( 8 8 9 9 : {.N.d F.o O.3 3 p 4 4 u i i 5 C x.y.q f.Z.<.      ",
"                        i.( ( ( ( ( ( ( _ 8 [ m v n d F.`.O.3 3 p p 4 f u i i 5 g x.y. +<.      ",
"                        i.( ( ( ( ( ( ( 8 F t m m v n d d .+`.3 @.p p f u u i i 5 5 g ++<.      ",
"                        i.( ( ( ( }.}.}.@+m.D.#+$+%+U.U.2 F.V.7.&+*+*+G.G.X.8.8.i 5 5 =+<.      ",
"                        i.( ( ( ( }.( 9 | m.| t m 1 n %+d d -+7.;+&+&+*+G.>+X.8.u i 5 ,+<.      ",
"                [.      i.( P Q R }.( F ].'+b x m m 1 )+v 2 !+7.7.;+&+~+*+G.>+W.{+i i ,+<.      ",
"              [.U V W X Y Z `  ...]+1.T.C.'+'+D.#+$+5.5.v n 6.-+7.;+;+&+~+G.>+X.{+u u ^+<.      ",
"              [.=.-.;.>.,.'.)./+(+]+k l e.'+| H m m 1 5.c v U.!+!+7.&+&+*+*+G.>+u u u ^+<.      ",
"                [.      i.( P Q R }.F } ].C.| x H m m 5.1 v %+!+!+7.;+&+~+*+G.X.{+f u _+<.      ",
"                        i.( ( ( ( 1.B.T.C.'+'+:+#+#+$+5.1 v <+6.!+7.V.&+&+~+G.G.f f u _+<.      ",
"                        i.( ( ( ( l.F } ].'+x H t t m $+1 c U.U.-+7.7.;+&+~+G.G.4 f {+[+<.      ",
"                        i.( ( ( ( }+} } ].'+| | t t m 5.1 c v 2 F.o `.O.3 @.G 4 4 f {+[+<.      ",
"                        i.( ( ( ( B.T.|+C.'+'+:+D.#+$+5.1 c n 2 F.o `.3 3 G p 4 4 f {+[+<.      ",
"                        i.( ( ( ( B.} ].| '+| H H t m 5.1 c %+<+-+-+V.&+&+*+G.G.4 4 u [+<.      ",
"                        i.( ( ( 9 B.} ].].'+x H t t m 5.1 c n d .+.+`.3 3 G p p 4 {+{+[+<.      ",
"                        i.( ( ( 0 T.T.C.'+m.:+D.#+$+5.5.1 v <+6.-+7.V.&+&+~+G.G.4 {+{+1+<.      ",
"                        i.( ( ( F e.].].| | x t t m m 1 1 c 2 d .+o O.3 @.p p p f {+{+1+<.      ",
"                        i.( ( _ } } ].].| x H t t m 1 1 1 v 2 .+.+o O.3 @.p p p f f f 1+<.      ",
"                        i.( ( B } } ].].| x H t m m 1 1 c v 2 .+o `.O.3 @.p p 4 f f {+1+<.      ",
"                        i.( r } } ].| | | H H m m m 1 c c n d .+o `.3 @.@.p p 4 f f {+1+<.      ",
"                        i.2+3+1+1+1+1+1+1+1+1+1+1+1+1+1+1+1+1+1+1+1+1+1+1+1+1+1+1+1+1+1+<.      ",
"                            <.4+4+4+4+4+4+4+4+4+4+4+4+4+4+4+4+4+4+4+4+4+4+4+4+4+4+4+4+<.        ",
"                              <.<.<.<.<.<.<.<.<.<.<.<.<.<.<.<.<.<.<.<.<.<.<.<.<.<.<.<.          ",
"                                                                                                "};
