/* XPM */
static char * down_xpm[] = {
"18 17 141 2",
"  	c None",
". 	c #D9D9D9",
"+ 	c #ADADAD",
"@ 	c #89959F",
"# 	c #074F68",
"$ 	c #075E79",
"% 	c #095F79",
"& 	c #085E79",
"* 	c #103C52",
"= 	c #8C9398",
"- 	c #8999A7",
"; 	c #177FA1",
"> 	c #BFE2F4",
", 	c #AED8ED",
"' 	c #A8D7EB",
") 	c #B1E1F6",
"! 	c #226789",
"~ 	c #8A939A",
"{ 	c #8998A7",
"] 	c #1B80A2",
"^ 	c #E4F4FA",
"/ 	c #98D4E5",
"( 	c #46B3D6",
"_ 	c #3FB9D6",
": 	c #145D7F",
"< 	c #8B939A",
"[ 	c #1D81A3",
"} 	c #F7FCFF",
"| 	c #B4E3F3",
"1 	c #35ACCB",
"2 	c #19A7C3",
"3 	c #145D7E",
"4 	c #8C9498",
"5 	c #1C81A3",
"6 	c #F4FAFF",
"7 	c #AADEF0",
"8 	c #32ACCD",
"9 	c #22ABC8",
"0 	c #125F80",
"a 	c #8B949A",
"b 	c #899BAB",
"c 	c #1B82A3",
"d 	c #E1F1F9",
"e 	c #74CAE3",
"f 	c #13A6CA",
"g 	c #1AA9C9",
"h 	c #0E6481",
"i 	c #8A9599",
"j 	c #D7DFE3",
"k 	c #8197A5",
"l 	c #849CAE",
"m 	c #87A0B2",
"n 	c #87A1B2",
"o 	c #4C6D88",
"p 	c #1A83A7",
"q 	c #BAE0F4",
"r 	c #5CBCDB",
"s 	c #12A4C8",
"t 	c #11ACCF",
"u 	c #0E7FA1",
"v 	c #4A758C",
"w 	c #839EAF",
"x 	c #819DB0",
"y 	c #819BAD",
"z 	c #8097A7",
"A 	c #D9E0E5",
"B 	c #6E787F",
"C 	c #295E79",
"D 	c #5B95B6",
"E 	c #7DACC5",
"F 	c #7BA9C1",
"G 	c #7DB9D3",
"H 	c #76CAE5",
"I 	c #1FA9CD",
"J 	c #1094BD",
"K 	c #13A4CB",
"L 	c #119CC2",
"M 	c #149BBD",
"N 	c #1D8AAF",
"O 	c #256E91",
"P 	c #114C6B",
"Q 	c #717980",
"R 	c #72858D",
"S 	c #3C6F86",
"T 	c #B5D5E9",
"U 	c #B9DBEE",
"V 	c #76CCE3",
"W 	c #19A7CD",
"X 	c #0596C1",
"Y 	c #0D95BF",
"Z 	c #12A6CF",
"` 	c #1EC2DF",
" .	c #35CFE6",
"..	c #1C9CC2",
"+.	c #115571",
"@.	c #6E808A",
"#.	c #768287",
"$.	c #4E7D95",
"%.	c #CADEEA",
"&.	c #CCEAF4",
"*.	c #5EC4DD",
"=.	c #1AA4C8",
"-.	c #13A0C8",
";.	c #1DC1DF",
">.	c #38D2E5",
",.	c #24A5C4",
"'.	c #12607D",
").	c #737F86",
"!.	c #7B888F",
"~.	c #4A7487",
"{.	c #CADDE8",
"].	c #D2EEF8",
"^.	c #6FCAE2",
"/.	c #50C7E0",
"(.	c #3BD0E6",
"_.	c #209EBE",
":.	c #0E5372",
"<.	c #79858E",
"[.	c #788890",
"}.	c #4A7A8F",
"|.	c #D6E4ED",
"1.	c #C3E5F2",
"2.	c #4AD3E9",
"3.	c #21A6C4",
"4.	c #155B7A",
"5.	c #76848E",
"6.	c #848C90",
"7.	c #426F87",
"8.	c #A7CFE2",
"9.	c #279ABD",
"0.	c #0A5370",
"a.	c #858B8F",
"b.	c #74858B",
"c.	c #306479",
"d.	c #0E4F6D",
"e.	c #6F7F88",
"f.	c #C4C4C4",
"g.	c #000000",
"h.	c #000407",
"i.	c #040507",
"j.	c #ECECEC",
"          . + + + + + + .           ",
"          @ # $ $ % & * =           ",
"          - ; > , ' ) ! ~           ",
"          { ] ^ / ( _ : <           ",
"          { [ } | 1 2 3 4           ",
"          { 5 6 7 8 9 0 a           ",
"          b c d e f g h i           ",
"j k l m n o p q r s t u v w x y z A ",
"  B C D E F G H I J K L M N O P Q   ",
"    R S T U V W X Y Z `  ...+.@.    ",
"      #.$.%.&.*.=.-.;.>.,.'.).      ",
"        !.~.{.].^./.(._.:.<.        ",
"          [.}.|.1.2.3.4.5.          ",
"            6.7.8.9.0.a.            ",
"              b.c.d.e.              ",
"    f.g.g.g.g.g.h.i.g.g.g.g.g.f.    ",
"    j.+ + + + + + + + + + + + j.    "};
