/* XPM */
static char * drive_xpm[] = {
"16 16 108 2",
"  	c None",
". 	c #C3C3CE",
"+ 	c #AEAEBE",
"@ 	c #BABAC3",
"# 	c #DFDFE6",
"$ 	c #FFFFFF",
"% 	c #9D9DAC",
"& 	c #CFCFD9",
"* 	c #ADADC2",
"= 	c #8C8CA7",
"- 	c #EAEAEE",
"; 	c #DCDCE3",
"> 	c #6E6E80",
", 	c #C9C9D1",
"' 	c #DDDDE5",
") 	c #E1E1E8",
"! 	c #BCBCCA",
"~ 	c #8F8FA8",
"{ 	c #9F9FB4",
"] 	c #6A6A8C",
"^ 	c #CCCCD7",
"/ 	c #5A5A6B",
"( 	c #797988",
"_ 	c #C2C2CD",
": 	c #B7B7C7",
"< 	c #9696AF",
"[ 	c #C7C7D3",
"} 	c #DEDEE4",
"| 	c #A3A3B9",
"1 	c #3A3A65",
"2 	c #5F5F83",
"3 	c #C7C7D2",
"4 	c #F6F6F9",
"5 	c #8C8C9D",
"6 	c #A7A7BC",
"7 	c #9A9AB1",
"8 	c #C1C1CF",
"9 	c #A1A1B8",
"0 	c #A1A1B6",
"a 	c #DADADC",
"b 	c #F3F3FB",
"c 	c #88889A",
"d 	c #EEF0EB",
"e 	c #FFF6FF",
"f 	c #D7D4E3",
"g 	c #C9C9D5",
"h 	c #C6C6D2",
"i 	c #F9F9FB",
"j 	c #AFAFC2",
"k 	c #ABABBC",
"l 	c #5C5C6B",
"m 	c #CCCCD2",
"n 	c #EBEBF0",
"o 	c #777799",
"p 	c #B3B3BF",
"q 	c #DDFDDD",
"r 	c #5FEA61",
"s 	c #EFE5F3",
"t 	c #D9D9E2",
"u 	c #EEEEF1",
"v 	c #9393AC",
"w 	c #5D5D6E",
"x 	c #B8B8C1",
"y 	c #D0D0DC",
"z 	c #C7C7D4",
"A 	c #4B4B73",
"B 	c #AEAEBA",
"C 	c #BDB6C7",
"D 	c #CEDBD5",
"E 	c #D0CBDC",
"F 	c #C8C8D5",
"G 	c #FBFBFD",
"H 	c #E5E5EB",
"I 	c #5B5B6B",
"J 	c #535365",
"K 	c #BCBCC7",
"L 	c #C0C0D2",
"M 	c #55557E",
"N 	c #90909C",
"O 	c #A1A0AD",
"P 	c #D5D5DF",
"Q 	c #B0B0C1",
"R 	c #A3A3B6",
"S 	c #FBFBFE",
"T 	c #9393AB",
"U 	c #B4B4C4",
"V 	c #59596B",
"W 	c #5C5C6D",
"X 	c #4C4C5F",
"Y 	c #8C8C97",
"Z 	c #4D4D5E",
"` 	c #90909D",
" .	c #C6C6D4",
"..	c #9494AC",
"+.	c #A6A6BB",
"@.	c #4A4A72",
"#.	c #B3B3C5",
"$.	c #626271",
"%.	c #535367",
"&.	c #808091",
"*.	c #B9B9CB",
"=.	c #ABABBF",
"-.	c #484872",
";.	c #9999A7",
">.	c #575769",
",.	c #79798C",
"'.	c #ACACBC",
").	c #707080",
"                                ",
"                                ",
"                . +             ",
"            @ # $ $ %           ",
"          & * = - $ ; >         ",
"      , ' ) ! ~ { ] ^ / (       ",
"  _ : < [ } $ | 1 2 3 4 $ 5     ",
"  $ 6 7 8 $ $ $ 9 0 a $ b $ c   ",
"  d e f g h i j k l m n n o p   ",
"  q r s t u $ h v w x y z A B   ",
"  C D E F G $ $ H I J K L M N   ",
"    O P Q R S T U V W X Y Z     ",
"      `  ...+.@.#.V $.%.        ",
"        &.*.=.-.;.>.            ",
"          ,.'.).                ",
"                                "};
