/* XPM */
static char * edit_xpm[] = {
"24 24 287 2",
"  	c None",
". 	c #ACA9AC",
"+ 	c #9F9D9F",
"@ 	c #989698",
"# 	c #929092",
"$ 	c #928F92",
"% 	c #908D90",
"& 	c #898789",
"* 	c #848084",
"= 	c #716F71",
"- 	c #817F81",
"; 	c #848384",
"> 	c #868386",
", 	c #848284",
"' 	c #878387",
") 	c #868486",
"! 	c #A6A5A6",
"~ 	c #DBDBDB",
"{ 	c #F3F2F3",
"] 	c #C9C8C9",
"^ 	c #DFDCDF",
"/ 	c #75665D",
"( 	c #D7A476",
"_ 	c #FFDAAA",
": 	c #FFFCEC",
"< 	c #A29FA2",
"[ 	c #E2DFE2",
"} 	c #FFFFFF",
"| 	c #D4D3D4",
"1 	c #CBBEB7",
"2 	c #C3844E",
"3 	c #FCBF7F",
"4 	c #FFBE5F",
"5 	c #FFDDB0",
"6 	c #E1DFE1",
"7 	c #DDCDC0",
"8 	c #C88B56",
"9 	c #F9BB78",
"0 	c #FDB663",
"a 	c #FF8D08",
"b 	c #FFD5A7",
"c 	c #A19DA1",
"d 	c #C1C0C1",
"e 	c #DDDCDD",
"f 	c #DDDDDD",
"g 	c #C8C7C8",
"h 	c #CFC0B2",
"i 	c #CA8A4E",
"j 	c #FCBB81",
"k 	c #FFB25B",
"l 	c #FF860A",
"m 	c #FF8700",
"n 	c #FFD7A7",
"o 	c #9C9D9C",
"p 	c #DBD7DB",
"q 	c #F6F6F6",
"r 	c #D1CFD1",
"s 	c #DAC7B5",
"t 	c #CA8A4F",
"u 	c #FBB97B",
"v 	c #FFB362",
"w 	c #FF8609",
"x 	c #FF8701",
"y 	c #FA8401",
"z 	c #FBD2A8",
"A 	c #9C9C9C",
"B 	c #E0DFE0",
"C 	c #E6CFBE",
"D 	c #DC9655",
"E 	c #FCBB78",
"F 	c #FFA753",
"G 	c #F98704",
"H 	c #D36604",
"I 	c #E6C5A9",
"J 	c #9C9A9C",
"K 	c #F4DBC6",
"L 	c #E09E64",
"M 	c #FCAF74",
"N 	c #FFA140",
"O 	c #FF8508",
"P 	c #F48104",
"Q 	c #C96204",
"R 	c #924304",
"S 	c #C9B7A9",
"T 	c #9B999B",
"U 	c #BCBABC",
"V 	c #D6D5D6",
"W 	c #D6D6D6",
"X 	c #C6C5C6",
"Y 	c #EAD3C9",
"Z 	c #FBCDA4",
"` 	c #FAD0AE",
" .	c #F79858",
"..	c #FF8504",
"+.	c #FF8803",
"@.	c #FC8804",
"#.	c #CA6004",
"$.	c #A34904",
"%.	c #664934",
"&.	c #DEDEDE",
"*.	c #9C989C",
"=.	c #FDFDFD",
"-.	c #FDFCFD",
";.	c #D3CACD",
">.	c #FEE2CF",
",.	c #FFEFDF",
"'.	c #FDC4AB",
").	c #EE8235",
"!.	c #FE8308",
"~.	c #F38205",
"{.	c #CA5F04",
"].	c #903F04",
"^.	c #664A36",
"/.	c #989798",
"(.	c #E3DFE3",
"_.	c #FFFEFF",
":.	c #FFFBFF",
"<.	c #D5C6C1",
"[.	c #FFE2C8",
"}.	c #FEDCC3",
"|.	c #F19F79",
"1.	c #EE7234",
"2.	c #F57320",
"3.	c #CC6004",
"4.	c #A34A04",
"5.	c #634532",
"6.	c #E4E1E0",
"7.	c #969796",
"8.	c #FFFAFF",
"9.	c #FFF7F9",
"0.	c #FFD4BA",
"a.	c #FFE4CD",
"b.	c #F4AE90",
"c.	c #CD815F",
"d.	c #B45F2B",
"e.	c #995523",
"f.	c #8A4116",
"g.	c #432A1D",
"h.	c #4B4A4A",
"i.	c #959495",
"j.	c #B9B8B9",
"k.	c #D4D4D4",
"l.	c #D4D2D4",
"m.	c #D4CFCE",
"n.	c #D0CBC9",
"o.	c #E8CABC",
"p.	c #FFE0C9",
"q.	c #F4BBA2",
"r.	c #CF8666",
"s.	c #9C6038",
"t.	c #6C4B2A",
"u.	c #524436",
"v.	c #442C22",
"w.	c #5C5147",
"x.	c #4E4D4C",
"y.	c #979397",
"z.	c #FFFEFD",
"A.	c #FFFBFD",
"B.	c #FFF7F5",
"C.	c #FCF1ED",
"D.	c #FFDAC3",
"E.	c #F7BDA4",
"F.	c #D07F5E",
"G.	c #965736",
"H.	c #5D4633",
"I.	c #3B352E",
"J.	c #584F47",
"K.	c #877D6F",
"L.	c #8B7D6A",
"M.	c #504F4E",
"N.	c #939393",
"O.	c #FFFEFE",
"P.	c #FFFAFD",
"Q.	c #FFF7F7",
"R.	c #FEF4F0",
"S.	c #E9D9CF",
"T.	c #C69373",
"U.	c #C38362",
"V.	c #77503C",
"W.	c #564339",
"X.	c #554F4D",
"Y.	c #786F65",
"Z.	c #98887A",
"`.	c #A99884",
" +	c #A8957B",
".+	c #52514F",
"++	c #949294",
"@+	c #E2DEE2",
"#+	c #FFFBF9",
"$+	c #FFF7F4",
"%+	c #FFF4EF",
"&+	c #EEE0D2",
"*+	c #7D6D58",
"=+	c #3D2D22",
"-+	c #4B372E",
";+	c #5B5350",
">+	c #867E78",
",+	c #96897B",
"'+	c #9F9080",
")+	c #B3A18C",
"!+	c #CDB79D",
"~+	c #C6AC8E",
"{+	c #615D57",
"]+	c #908F90",
"^+	c #B9B5B9",
"/+	c #D0CBC8",
"(+	c #D2C8C4",
"_+	c #CDC5C0",
":+	c #968C84",
"<+	c #312D2A",
"[+	c #534F4C",
"}+	c #6B655E",
"|+	c #7F746A",
"1+	c #877A6B",
"2+	c #938473",
"3+	c #A4917E",
"4+	c #B19B86",
"5+	c #BCA38A",
"6+	c #AC9276",
"7+	c #716B61",
"8+	c #918F91",
"9+	c #E0DCDB",
"0+	c #FCF3EC",
"a+	c #FDEFE6",
"b+	c #F7ECDE",
"c+	c #D5C5B6",
"d+	c #B4AA9E",
"e+	c #B5A698",
"f+	c #8A7D74",
"g+	c #B1A290",
"h+	c #C6B39D",
"i+	c #D6C0A7",
"j+	c #E2C8A8",
"k+	c #E8CAA8",
"l+	c #E9CAA7",
"m+	c #D0B18B",
"n+	c #746B5F",
"o+	c #8B8C8B",
"p+	c #E2DBDD",
"q+	c #FCF0E7",
"r+	c #F8EAE0",
"s+	c #F7E7D8",
"t+	c #F1E1D1",
"u+	c #E0D0BF",
"v+	c #CBB7A3",
"w+	c #A59686",
"x+	c #D9C4AC",
"y+	c #E3CCB1",
"z+	c #E9CEAD",
"A+	c #E8CDAB",
"B+	c #E9CAA6",
"C+	c #E9C9A6",
"D+	c #D1B086",
"E+	c #746A60",
"F+	c #838383",
"G+	c #D3CDC9",
"H+	c #DED3CC",
"I+	c #DCD0C2",
"J+	c #DDCCBA",
"K+	c #D8C9B4",
"L+	c #D3C1AD",
"M+	c #CDB99F",
"N+	c #AA9783",
"O+	c #D5BB9E",
"P+	c #D6BB9B",
"Q+	c #D4B695",
"R+	c #D2B590",
"S+	c #D2B18E",
"T+	c #D1B084",
"U+	c #C7A477",
"V+	c #746A61",
"W+	c #92918E",
"X+	c #77726D",
"Y+	c #75736D",
"Z+	c #75726A",
"`+	c #76726F",
" @	c #73706A",
".@	c #746F69",
"+@	c #726D66",
"@@	c #746F66",
"#@	c #736E65",
"$@	c #736F65",
"%@	c #716E66",
"&@	c #747065",
"*@	c #736E63",
"=@	c #736E64",
"-@	c #868784",
"                                                ",
"                                                ",
"      . + @ # $ % & * = - ; > , ; ' ; )         ",
"      ! ~ { { { { { { ] { { { { { { ^ / ( _ :   ",
"      < [ } } } } } } | } } } } } } 1 2 3 4 5   ",
"      < 6 } } } } } } | } } } } } 7 8 9 0 a b   ",
"      c d e f f e e e g f e f f h i j k l m n   ",
"      o p q q q q q q r q q q s t u v w x y z   ",
"      A B } } } } } } | } } C D E F w x G H I   ",
"      J 6 } } } } } } | } K L M N O x P Q R S   ",
"      T U V W W V V V X Y Z `  ...+.@.#.$.%.&.  ",
"      *.&.=.=.=.=.=.-.;.>.,.'.).!.~.{.].^.      ",
"      /.(.} } } } _.:.<.[.}.|.1.2.3.4.5.6.      ",
"      7.B } } } _.8.9.0.a.b.c.d.e.f.g.h.        ",
"      i.j.| k.l.m.n.o.p.q.r.s.t.u.v.w.x.        ",
"      y.(.} z.A.B.C.D.E.F.G.H.I.J.K.L.M.        ",
"      N.B O.P.Q.R.S.T.U.V.W.X.Y.Z.`. +.+        ",
"      ++@+#+$+%+&+*+=+-+;+>+,+'+)+!+~+{+        ",
"      ]+^+/+(+_+:+<+[+}+|+1+2+3+4+5+6+7+        ",
"      8+9+0+a+b+c+d+e+f+g+h+i+j+k+l+m+n+        ",
"      o+p+q+r+s+t+u+v+w+x+y+z+A+B+C+D+E+        ",
"      F+G+H+I+J+K+L+M+N+O+P+Q+R+S+T+U+V+        ",
"      W+X+X+Y+Z+`+ @.@+@@@#@$@%@&@*@=@-@        ",
"                                                "};
