/* XPM */
static char * extras_xpm[] = {
"18 18 96 2",
"  	c None",
". 	c #E3B116",
"+ 	c #D9A915",
"@ 	c #DFAA0A",
"# 	c #D9A408",
"$ 	c #E3B937",
"% 	c #DFAF24",
"& 	c #D8A71B",
"* 	c #96710A",
"= 	c #DDAB1B",
"- 	c #EDD17C",
"; 	c #E7C248",
"> 	c #C4910A",
", 	c #DBAD2A",
"' 	c #D49E07",
") 	c #FBEBA4",
"! 	c #F7DA62",
"~ 	c #C28B05",
"{ 	c #AB8118",
"] 	c #EEBB0D",
"^ 	c #EAB60C",
"/ 	c #E4B00B",
"( 	c #E3B427",
"_ 	c #E3BA40",
": 	c #DFB53B",
"< 	c #E7C868",
"[ 	c #FCE684",
"} 	c #FADC62",
"| 	c #DCB63F",
"1 	c #C99C26",
"2 	c #C59821",
"3 	c #B58310",
"4 	c #A56E02",
"5 	c #9F6902",
"6 	c #935F01",
"7 	c #CA9D0F",
"8 	c #F0D472",
"9 	c #FDEFA7",
"0 	c #FCE88C",
"a 	c #FBE57E",
"b 	c #F9DA5C",
"c 	c #FADA5D",
"d 	c #FADD5E",
"e 	c #FAE05C",
"f 	c #D9B336",
"g 	c #7C5302",
"h 	c #A47E0E",
"i 	c #E2B834",
"j 	c #FADF68",
"k 	c #F9D756",
"l 	c #F8D54E",
"m 	c #F8D247",
"n 	c #C8981D",
"o 	c #654503",
"p 	c #C8930A",
"q 	c #E4C152",
"r 	c #FADD64",
"s 	c #D2A424",
"t 	c #A06B03",
"u 	c #362300",
"v 	c #C99719",
"w 	c #E6CA64",
"x 	c #F7CF3F",
"y 	c #D4A624",
"z 	c #976605",
"A 	c #BD8604",
"B 	c #F5DD71",
"C 	c #F3CF49",
"D 	c #CC9C20",
"E 	c #C8991D",
"F 	c #F0C635",
"G 	c #EABD2A",
"H 	c #925E02",
"I 	c #C08E14",
"J 	c #E3C148",
"K 	c #B27D09",
"L 	c #A26F04",
"M 	c #9C6904",
"N 	c #A36E06",
"O 	c #D6A51A",
"P 	c #956304",
"Q 	c #4A2E01",
"R 	c #BD8B13",
"S 	c #B17A03",
"T 	c #AB7402",
"U 	c #7C5505",
"V 	c #744C03",
"W 	c #8C5802",
"X 	c #855202",
"Y 	c #6F4602",
"Z 	c #B17B05",
"` 	c #A77407",
" .	c #3D2900",
"..	c #7D4F02",
"+.	c #754802",
"@.	c #4E2D01",
"                                    ",
"              . +                   ",
"              @ #                   ",
"            $ % & *                 ",
"            = - ; >                 ",
"          , ' ) ! ~ {               ",
"] ^ / ( _ : < [ } | 1 2 3 4 5 6     ",
"  7 @ 8 9 0 a } b c d e f 5 g       ",
"    h ' i j } b k l m n 5 o         ",
"        p q r k l m s t u           ",
"        v w k l m x y z             ",
"        A B C D E F G H             ",
"        I J K L M N O P Q           ",
"      R S T U     V W X Y           ",
"      Z `  .          ..+.          ",
"                        @.          ",
"                                    ",
"                                    "};
