/* XPM */
static char * file_import_xpm[] = {
"24 24 56 1",
" 	c None",
".	c #000000",
"+	c #E2E2E2",
"@	c #F2F2F2",
"#	c #F3F3F3",
"$	c #F4F4F4",
"%	c #F5F5F5",
"&	c #F6F6F6",
"*	c #F7F7F7",
"=	c #DBDBDB",
"-	c #F0F0F0",
";	c #E0E0E0",
">	c #E1E1E1",
",	c #E3E3E3",
"'	c #E4E4E4",
")	c #E5E5E5",
"!	c #E6E6E6",
"~	c #E7E7E7",
"{	c #E8E8E8",
"]	c #E9E9E9",
"^	c #EAEAEA",
"/	c #EBEBEB",
"(	c #ECECEC",
"_	c #EDEDED",
":	c #EEEEEE",
"<	c #EFEFEF",
"[	c #F1F1F1",
"}	c #B3B3B3",
"|	c #B4B4B4",
"1	c #B5B5B5",
"2	c #B6B6B6",
"3	c #B7B7B7",
"4	c #B8B8B8",
"5	c #B9B9B9",
"6	c #BABABA",
"7	c #BBBBBB",
"8	c #BCBCBC",
"9	c #9A9A9A",
"0	c #6C6C6C",
"a	c #BDBDBD",
"b	c #BEBEBE",
"c	c #BFBFBF",
"d	c #C0C0C0",
"e	c #F8F8F8",
"f	c #C1C1C1",
"g	c #F9F9F9",
"h	c #FAFAFA",
"i	c #C2C2C2",
"j	c #C3C3C3",
"k	c #FBFBFB",
"l	c #FCFCFC",
"m	c #FDFDFD",
"n	c #C4C4C4",
"o	c #FEFEFE",
"p	c #FFFFFF",
"q	c #C9C9C9",
" ....................   ",
".+@@@@###$$$%%%&&**$=.  ",
".-;;>+,')!~{{]^/(_:<_.  ",
".@>>+,')!~{]^^/(_:<-[.  ",
".@+,,')!~{]^/((_:<-[@.  ",
".#,'}}|11234555678[@#.  ",
".#')!~99999(_:<<-[@#$.  ",
".#)!11900095678aaa#$%.  ",
".$!~{]99999:<-[@##$%&.  ",
".$~{234555678aabcd%&*.  ",
".%{]^/(_::<-[@#$%&**e.  ",
".%]^4556788aabcddfeeg.  ",
".%^/(_:<9999999&*eghh.  ",
".&/(56789000009fijhkl.  ",
".*__:<-[9999999eghklm.  ",
".*:<78aabcddffijnnlmo.  ",
".e-[@@#$%&*eghkklmopp.  ",
".e[@#$$%&*eghklmmoppp.  ",
".@@#$%&&*eghklmopppp(.  ",
".q_e%&*eeghklmopppp:a.  ",
" ....................   ",
"                        ",
"                        ",
"                        "};
