/* XPM */
static char * filesel_xpm[] = {
"18 18 206 2",
"  	c None",
". 	c #CFD9EA",
"+ 	c #DEE5F0",
"@ 	c #D3DAE8",
"# 	c #B7C1D7",
"$ 	c #A7BDDA",
"% 	c #AAC5E1",
"& 	c #ACC6E1",
"* 	c #ACC1DB",
"= 	c #AEB7CC",
"- 	c #DCE5F0",
"; 	c #E5E7ED",
"> 	c #A8BEDA",
", 	c #93C6EE",
"' 	c #9ED6F8",
") 	c #A2DCFA",
"! 	c #A3DDFA",
"~ 	c #A8DFF9",
"{ 	c #A5D7F2",
"] 	c #A8BCD1",
"^ 	c #CFD7E6",
"/ 	c #A2B8D5",
"( 	c #93CBF3",
"_ 	c #AAE3FB",
": 	c #B7EDFC",
"< 	c #B7EDFD",
"[ 	c #B0E8FC",
"} 	c #A8E1FB",
"| 	c #B1E9FC",
"1 	c #B3E6F7",
"2 	c #A5B9CE",
"3 	c #A7B1CA",
"4 	c #8DC1EC",
"5 	c #A9E1FB",
"6 	c #C2F6FE",
"7 	c #D4FEFF",
"8 	c #C9F6FE",
"9 	c #BEF2FD",
"0 	c #BAEFFD",
"a 	c #B9EEFD",
"b 	c #C0F5FE",
"c 	c #B7E2EE",
"d 	c #A3AEC2",
"e 	c #8CA2C5",
"f 	c #9AD3F6",
"g 	c #B3EAFC",
"h 	c #D1FDFF",
"i 	c #EAFFFF",
"j 	c #DBF9FE",
"k 	c #C3F4FD",
"l 	c #CDFBFF",
"m 	c #CBFDFE",
"n 	c #CCFEFF",
"o 	c #CCFDFE",
"p 	c #A1B3C5",
"q 	c #93A3BF",
"r 	c #8CA7C8",
"s 	c #9FD9F9",
"t 	c #C3F3FD",
"u 	c #D5F8FE",
"v 	c #C6F6FE",
"w 	c #D4FCFF",
"x 	c #D8FFFF",
"y 	c #D7FFFF",
"z 	c #D9FFFF",
"A 	c #B1C7D4",
"B 	c #8C99B4",
"C 	c #839DC0",
"D 	c #A2DBFA",
"E 	c #ADE5FB",
"F 	c #BEF1FD",
"G 	c #CFFBFE",
"H 	c #DFFFFF",
"I 	c #DDFFFF",
"J 	c #E2FFFF",
"K 	c #E5FFFF",
"L 	c #B0C0CF",
"M 	c #8E9BB6",
"N 	c #7D92B5",
"O 	c #A1D8F5",
"P 	c #A6DFFA",
"Q 	c #B2E9FC",
"R 	c #C4F6FE",
"S 	c #D3FEFF",
"T 	c #DAFFFF",
"U 	c #E4FFFF",
"V 	c #ECFFFF",
"W 	c #F0FFFF",
"X 	c #E8FBFC",
"Y 	c #9CA5BA",
"Z 	c #9AA9C3",
"` 	c #929BB7",
" .	c #91C1E2",
"..	c #AEE6FB",
"+.	c #AEE6FC",
"@.	c #D0FFFF",
"#.	c #DCFFFF",
"$.	c #E8FFFF",
"%.	c #F2FFFF",
"&.	c #FAFFFF",
"*.	c #D0D9E1",
"=.	c #A5ABC2",
"-.	c #A2B0C9",
";.	c #D0D8E6",
">.	c #8896B2",
",.	c #A2D3EC",
"'.	c #B8EFFD",
").	c #CFFEFF",
"!.	c #DBFFFF",
"~.	c #E6FFFF",
"{.	c #EFFFFF",
"].	c #E2EBEF",
"^.	c #8D8FA6",
"/.	c #A6AAC0",
"(.	c #A4B2CA",
"_.	c #DDE5F0",
":.	c #E1E2E8",
"<.	c #93A0B8",
"[.	c #98BED5",
"}.	c #BCEEF7",
"|.	c #CCFDFF",
"1.	c #D7F5F7",
"2.	c #BECFD8",
"3.	c #9093AA",
"4.	c #A0A0B4",
"5.	c #B0AFBD",
"6.	c #BCA17F",
"7.	c #FFFFFF",
"8.	c #F0F1F4",
"9.	c #BFC4D1",
"0.	c #94A0B6",
"a.	c #98A8BC",
"b.	c #99A8BB",
"c.	c #9CA4B9",
"d.	c #B2B7CB",
"e.	c #CED4E4",
"f.	c #C4C7D4",
"g.	c #BCA285",
"h.	c #E2B05A",
"i.	c #DB9424",
"j.	c #FEFFFF",
"k.	c #FAFEFF",
"l.	c #F7FCFF",
"m.	c #EAEFF7",
"n.	c #E7ECF5",
"o.	c #EEF4FF",
"p.	c #EAF1FD",
"q.	c #E7EEFB",
"r.	c #D6CFCB",
"s.	c #D3AA63",
"t.	c #FAE6A6",
"u.	c #F2C161",
"v.	c #D38E24",
"w.	c #F9FEFF",
"x.	c #F4F9FF",
"y.	c #F1F7FF",
"z.	c #EFF5FF",
"A.	c #E7EEFA",
"B.	c #E2E9F6",
"C.	c #C8B6A2",
"D.	c #DAB366",
"E.	c #FCE9AB",
"F.	c #F2C262",
"G.	c #CF8B25",
"H.	c #FCFFFF",
"I.	c #F9FDFF",
"J.	c #F6FBFF",
"K.	c #F3F8FF",
"L.	c #EEF4FE",
"M.	c #EAF1FC",
"N.	c #E6EDFA",
"O.	c #E3EBF8",
"P.	c #E0E7F4",
"Q.	c #AA9D96",
"R.	c #D2AA5E",
"S.	c #FBE6A6",
"T.	c #F2C367",
"U.	c #CB8A27",
"V.	c #DCE4F0",
"W.	c #FBFEFF",
"X.	c #F8FDFF",
"Y.	c #F3F9FF",
"Z.	c #E9F0FC",
"`.	c #E5EDFA",
" +	c #E2EAF8",
".+	c #E1E9F8",
"++	c #A6B3CA",
"@+	c #744A25",
"#+	c #D2AD63",
"$+	c #F9E2A0",
"%+	c #E9BB64",
"&+	c #976738",
"*+	c #B7C4D8",
"=+	c #ABB6C7",
"-+	c #A9B5C7",
";+	c #A8B4C7",
">+	c #A7B3C7",
",+	c #A6B3C7",
"'+	c #A5B2C7",
")+	c #A4B1C6",
"!+	c #A2AFC5",
"~+	c #A1AEC5",
"{+	c #8B9AB4",
"]+	c #C09C5F",
"^+	c #B3946E",
"/+	c #857A86",
". + @ # $ % & * =                   ",
"- ; > , ' ) ! ~ { ]                 ",
"^ / ( _ : < [ } | 1 2               ",
"3 4 5 6 7 8 9 0 a b c d             ",
"e f g h i j k l m n o p q           ",
"r s [ t u v w x y z x A B           ",
"C D E g F G H I J K J L M           ",
"N O P Q R S T U V W X Y Z           ",
"`  ...+.b @.#.$.%.&.*.=.-.          ",
";.>.,.'.b ).!.~.{.].^./.(.          ",
"_.:.<.[.}.|.y 1.2.3.4.5.6.          ",
"_.7.8.9.0.a.b.c.d.e.f.g.h.i.        ",
"- 7.j.k.l.m.n.o.p.q.r.s.t.u.v.      ",
"- 7.j.w.l.x.y.z.p.A.B.C.D.E.F.G.    ",
"- 7.H.I.J.K.y.L.M.N.O.P.Q.R.S.T.U.  ",
"V.j.W.X.J.Y.y.L.Z.`. +.+++@+#+$+%+&+",
"*+=+-+-+;+>+,+'+)+!+~+~+{+    ]+^+/+",
"                                    "};
