/* XPM */
static char * test_xpm[] = {
"24 24 315 2",
"  	c None",
". 	c #312431",
"+ 	c #3E313F",
"@ 	c #564D59",
"# 	c #433243",
"$ 	c #584459",
"% 	c #5C485C",
"& 	c #584C5B",
"* 	c #463B47",
"= 	c #5E5260",
"- 	c #6E6472",
"; 	c #78707D",
"> 	c #6C6571",
", 	c #5B465B",
"' 	c #655166",
") 	c #6B586D",
"! 	c #705F73",
"~ 	c #6E6071",
"{ 	c #7D7182",
"] 	c #877E8C",
"^ 	c #8B8491",
"/ 	c #9B9BA3",
"( 	c #A0A6A6",
"_ 	c #473547",
": 	c #594459",
"< 	c #624E63",
"[ 	c #6C5A6E",
"} 	c #736377",
"| 	c #7B6C7F",
"1 	c #827787",
"2 	c #89818F",
"3 	c #8E8A95",
"4 	c #918D98",
"5 	c #B8BCBE",
"6 	c #A5A9AD",
"7 	c #736C78",
"8 	c #2E212E",
"9 	c #382938",
"0 	c #483648",
"a 	c #574257",
"b 	c #6F6172",
"c 	c #9A929B",
"d 	c #A6A3AA",
"e 	c #A5A1AA",
"f 	c #99939D",
"g 	c #89828F",
"h 	c #8E8894",
"i 	c #94929B",
"j 	c #9898A0",
"k 	c #A5A8AC",
"l 	c #9EA0A6",
"m 	c #716274",
"n 	c #292029",
"o 	c #2A1E2A",
"p 	c #463446",
"q 	c #544054",
"r 	c #564256",
"s 	c #928894",
"t 	c #BDC0C2",
"u 	c #B6BCBD",
"v 	c #ABAEB2",
"w 	c #A5A6AC",
"x 	c #A4A5AB",
"y 	c #9E9FA6",
"z 	c #94929C",
"A 	c #9A9BA2",
"B 	c #9FA1A7",
"C 	c #A4A9AD",
"D 	c #ABB0B3",
"E 	c #AAACAF",
"F 	c #5E5E61",
"G 	c #362836",
"H 	c #5A465A",
"I 	c #AEA9B2",
"J 	c #C6CACB",
"K 	c #A0A3A8",
"L 	c #8E8995",
"M 	c #817686",
"N 	c #756578",
"O 	c #615264",
"P 	c #615664",
"Q 	c #88898F",
"R 	c #A1A5AA",
"S 	c #A7ACAF",
"T 	c #ACB2B4",
"U 	c #B4BABB",
"V 	c #BAC2C1",
"W 	c #C8CECD",
"X 	c #808585",
"Y 	c #3F3140",
"Z 	c #5A455A",
"` 	c #9C929E",
" .	c #C3C7C8",
"..	c #9C9DA4",
"+.	c #8A8390",
"@.	c #746477",
"#.	c #564557",
"$.	c #362936",
"%.	c #271D27",
"&.	c #120C12",
"*.	c #4D4F51",
"=.	c #909497",
"-.	c #AEB4B5",
";.	c #B3BABB",
">.	c #C0C8C6",
",.	c #CCD3D1",
"'.	c #ADB3B4",
").	c #67636B",
"!.	c #372B37",
"~.	c #5B485C",
"{.	c #7B707E",
"].	c #BDC2C3",
"^.	c #8A8290",
"/.	c #736276",
"(.	c #483749",
"_.	c #231923",
":.	c #666A6B",
"<.	c #A3A9A9",
"[.	c #B4BBBB",
"}.	c #C1C9C8",
"|.	c #CAD1CF",
"1.	c #D4DAD8",
"2.	c #B2B8BA",
"3.	c #827A87",
"4.	c #372C38",
"5.	c #3D2F3D",
"6.	c #604D61",
"7.	c #6D5A6E",
"8.	c #A8A2AB",
"9.	c #B3B8BA",
"0.	c #8C8592",
"a.	c #716174",
"b.	c #463647",
"c.	c #0B080B",
"d.	c #6A6E6E",
"e.	c #B6BEBE",
"f.	c #BCC4C3",
"g.	c #C3CAC9",
"h.	c #CAD1D0",
"i.	c #BAC1C0",
"j.	c #A8ABAF",
"k.	c #88808D",
"l.	c #372B38",
"m.	c #423542",
"n.	c #5E4C5F",
"o.	c #705E72",
"p.	c #7A6C7D",
"q.	c #ACB0B3",
"r.	c #A2A3A9",
"s.	c #7D7081",
"t.	c #503F51",
"u.	c #1E161E",
"v.	c #8E9493",
"w.	c #C5CCCB",
"x.	c #CDD3D1",
"y.	c #C2C9C8",
"z.	c #ADB3B5",
"A.	c #9C9EA4",
"B.	c #8E8994",
"C.	c #7F7283",
"D.	c #2F2530",
"E.	c #453746",
"F.	c #79697C",
"G.	c #837787",
"H.	c #AEB4B6",
"I.	c #98979F",
"J.	c #6C5B6F",
"K.	c #2C212C",
"L.	c #8E9594",
"M.	c #B8BFBE",
"N.	c #CED4D2",
"O.	c #C9D1CF",
"P.	c #A9AEB1",
"Q.	c #96949D",
"R.	c #857B8A",
"S.	c #716074",
"T.	c #5C495D",
"U.	c #201820",
"V.	c #5F5C64",
"W.	c #746677",
"X.	c #7F7284",
"Y.	c #A6A8AC",
"Z.	c #95919B",
"`.	c #534254",
" +	c #161016",
".+	c #8C9291",
"++	c #BEC6C5",
"@+	c #C6CDCC",
"#+	c #CFD5D3",
"$+	c #D8DEDC",
"%+	c #BDC3C3",
"&+	c #95939D",
"*+	c #635064",
"=+	c #342634",
"-+	c #0A070A",
";+	c #645D68",
">+	c #7F7684",
",+	c #8C8692",
"'+	c #9B99A2",
")+	c #98969F",
"!+	c #453545",
"~+	c #8C9292",
"{+	c #C1C9C7",
"]+	c #C7CECC",
"^+	c #CED6D3",
"/+	c #D7DDDB",
"(+	c #E2E7E5",
"_+	c #BFC5C6",
":+	c #68566B",
"<+	c #322532",
"[+	c #524E56",
"}+	c #7F7A85",
"|+	c #93909A",
"1+	c #97979F",
"2+	c #716B75",
"3+	c #6D7272",
"4+	c #909696",
"5+	c #C9D0CE",
"6+	c #CFD6D4",
"7+	c #D6DCDA",
"8+	c #DFE4E2",
"9+	c #E9ECEB",
"0+	c #DFE2E1",
"a+	c #867E8C",
"b+	c #4A3B4B",
"c+	c #716E77",
"d+	c #999AA2",
"e+	c #9EA1A7",
"f+	c #A4A8AC",
"g+	c #B0B7B8",
"h+	c #9AA0A0",
"i+	c #AAB1B1",
"j+	c #BDC5C4",
"k+	c #C4CBCA",
"l+	c #CBD1D0",
"m+	c #D3D9D7",
"n+	c #DADEDD",
"o+	c #E0E5E3",
"p+	c #EAEDEC",
"q+	c #F3F5F4",
"r+	c #ECEEED",
"s+	c #9F9FA6",
"t+	c #443A46",
"u+	c #77767D",
"v+	c #999AA1",
"w+	c #9FA2A7",
"x+	c #ABB1B3",
"y+	c #B2B9B9",
"z+	c #B7BFBF",
"A+	c #C5CDCB",
"B+	c #D5DBD9",
"C+	c #E0E4E2",
"D+	c #E7EBEA",
"E+	c #EBEEED",
"F+	c #F4F6F5",
"G+	c #E5E9E8",
"H+	c #BAC0C1",
"I+	c #A3A5AA",
"J+	c #5B545E",
"K+	c #7B7B81",
"L+	c #B1B7B8",
"M+	c #B8C0BF",
"N+	c #CED5D3",
"O+	c #CDD4D2",
"P+	c #C2C8C8",
"Q+	c #CAD0CF",
"R+	c #625765",
"S+	c #A9AFAE",
"T+	c #AFB5B7",
"U+	c #A9ADB0",
"V+	c #B9C0C0",
"W+	c #C8CFCD",
"X+	c #D8DDDB",
"Y+	c #C2C9C9",
"Z+	c #97969F",
"`+	c #8F8A95",
" @	c #908C97",
".@	c #A1A4A9",
"+@	c #746578",
"@@	c #181118",
"#@	c #7B7881",
"$@	c #ACACB1",
"%@	c #D0D6D4",
"&@	c #DADFDD",
"*@	c #7F7384",
"=@	c #6D5B6F",
"-@	c #534455",
";@	c #544A57",
">@	c #68626D",
",@	c #736576",
"'@	c #503E50",
")@	c #473848",
"!@	c #5E5861",
"~@	c #E4E8E7",
"{@	c #DCE2E0",
"]@	c #E4E8E6",
"^@	c #B8BFBF",
"/@	c #9B9CA3",
"(@	c #857A8A",
"_@	c #634F64",
":@	c #372937",
"<@	c #322732",
"[@	c #7E8281",
"}@	c #A5A9AB",
"|@	c #ADB1B3",
"1@	c #A6A9AE",
"2@	c #8D8793",
"3@	c #6F5E71",
"4@	c #5F5863",
"5@	c #7E7683",
"6@	c #7E7182",
"7@	c #4F3F50",
"8@	c #352936",
"9@	c #302631",
"0@	c #392D3A",
"                    . +         @               ",
"                  # $ % & * = - ; >             ",
"                # , ' ) ! ~ { ] ^ / (           ",
"              _ : < [ } | 1 2 3 4 5 6 7         ",
"        8 9 0 a b c d e f g h i j k l m n       ",
"      o p q r s t u v w x y z A B C D E F       ",
"      G r H I J K L M N O P Q R S T U V W X     ",
"      Y Z `  ...+.@.#.$.%.&.*.=.-.;.V >.,.'.).  ",
"    !.~.{.].l ^./.(._.      :.<.[.V }.|.1.2.3.4.",
"  5.6.7.8.9.0.a.b.c.        d.e.f.g.,.h.i.j.k.l.",
"m.n.o.p.q.r.s.t.u.          v.f.w.x.y.z.A.B.C.D.",
"E.o.F.G.H.I.J.K.          L.M.w.N.O.P.Q.R.S.T.U.",
"V.W.X.] Y.Z.`. +        .+++@+#+$+%+&+C.*+=+-+  ",
"  ;+>+,+'+)+!+        ~+{+]+^+/+(+_++.:+<+      ",
"  [+}+|+1+K 2+    3+4+f.5+6+7+8+9+0+a+b+        ",
"  c+|+d+e+f+g+h+i+j+k+l+m+n+o+p+q+r+s+t+        ",
"  u+v+w+C x+y+z+j+A+,.B+C+D+E+F+G+H+I+J+        ",
"  K+w+L+g+y+M+j+k+N+B+O+P+Q+p+p+H+f+L R+        ",
"    S+T+U+V+y.W+6+X+Y+P.Z+`+ @j..@L +@t.@@      ",
"      #@{ $@O+%@&@O+x+Q.*@=@-@;@>@,@'@_.        ",
"        )@!@~@{@]@^@/@(@_@:@      <@@@          ",
"            [@}@|@1@2@3@<+                      ",
"              4@5@] 6@7@                        ",
"                8@9@0@U.                        "};
