/* XPM */
static char * foldernew_xpm[] = {
"18 18 88 1",
" 	c None",
".	c #000000",
"+	c #FFFF85",
"@	c #FFFF00",
"#	c #E5A566",
"$	c #FED39A",
"%	c #FEC585",
"&	c #585858",
"*	c #C0C000",
"=	c #FDC587",
"-	c #FEC282",
";	c #F8AC62",
">	c #C1C10A",
",	c #FFFFC0",
"'	c #7C7C7C",
")	c #FEC88A",
"!	c #4E331B",
"~	c #53504D",
"{	c #FFFFFF",
"]	c #C4864E",
"^	c #524F4C",
"/	c #F5F5F5",
"(	c #ECECEC",
"_	c #E4E4E4",
":	c #DCDCDC",
"<	c #B3B3B3",
"[	c #303030",
"}	c #4A3119",
"|	c #DBDBDB",
"1	c #DFDFDE",
"2	c #E8E8E7",
"3	c #E6E6E4",
"4	c #494948",
"5	c #757575",
"6	c #B77D44",
"7	c #53514E",
"8	c #DADADA",
"9	c #DBDBDA",
"0	c #E1E1E0",
"a	c #DDDDDC",
"b	c #C1C1C0",
"c	c #A0A09F",
"d	c #7B7B7B",
"e	c #493018",
"f	c #CDCDCD",
"g	c #CACAC9",
"h	c #D5D5D4",
"i	c #D2D2D0",
"j	c #CCCCCB",
"k	c #C2C2C1",
"l	c #B9B9B8",
"m	c #959594",
"n	c #565350",
"o	c #CECECE",
"p	c #BEBEBC",
"q	c #C4C4C2",
"r	c #C6C6C5",
"s	c #C3C3C2",
"t	c #BFBFBE",
"u	c #B6B6B5",
"v	c #AEAEAD",
"w	c #A5A5A4",
"x	c #9E9E9D",
"y	c #6F6F6E",
"z	c #121212",
"A	c #0A0A0A",
"B	c #BDBDBD",
"C	c #A6A6A5",
"D	c #AAAAA8",
"E	c #ADADAB",
"F	c #AEAEAC",
"G	c #ABABAA",
"H	c #A7A7A6",
"I	c #A1A1A0",
"J	c #9A9A99",
"K	c #949492",
"L	c #8D8D8B",
"M	c #232323",
"N	c #4A4A4A",
"O	c #4A4A49",
"P	c #4C4C4B",
"Q	c #4C4C4C",
"R	c #4B4B4A",
"S	c #464646",
"T	c #434343",
"U	c #414140",
"V	c #343433",
"W	c #1F1F1E",
"                  ",
"                  ",
"                  ",
"                  ",
"          .+      ",
" ....  .+ .@ .+   ",
".#$%#...&@*@*@    ",
".$=-;;;;;>,+,*'   ",
".)-!~~&+@@+{+@@+  ",
".-]^//(_:*,+,*<[  ",
".-}|1231.@*@*@45  ",
".67890a.+b.@c.+d  ",
".efghhijkl.+m45   ",
".nopqrstuvwxyzd   ",
"ABCDEFGHIJKL45    ",
"MNOPQPR4STUVWd    ",
"                  ",
"                  "};
