/* XPM */
static char * font_xpm[] = {
"18 17 196 2",
"  	c None",
". 	c #9E9FA4",
"+ 	c #7A7E89",
"@ 	c #444B5C",
"# 	c #898B90",
"$ 	c #737886",
"% 	c #7C88A7",
"& 	c #95A8D6",
"* 	c #94ACE5",
"= 	c #646C80",
"- 	c #919194",
"; 	c #808CA9",
"> 	c #B1C6F8",
", 	c #A0BCFF",
"' 	c #8CADFC",
") 	c #536287",
"! 	c #868A94",
"~ 	c #9BAED9",
"{ 	c #91B1FF",
"] 	c #83A7FE",
"^ 	c #83A7FD",
"/ 	c #596D9D",
"( 	c #B7B8BB",
"_ 	c #ADAEB2",
": 	c #7A849A",
"< 	c #A1B9F6",
"[ 	c #86A9FE",
"} 	c #7AA0FB",
"| 	c #82A6FD",
"1 	c #627AB2",
"2 	c #9C9EA2",
"3 	c #9095A0",
"4 	c #8496C2",
"5 	c #96B4FE",
"6 	c #7296EB",
"7 	c #658DEB",
"8 	c #81A6FD",
"9 	c #6B86C7",
"0 	c #7C7F84",
"a 	c #B5B7B5",
"b 	c #7A807A",
"c 	c #647563",
"d 	c #657964",
"e 	c #6E7A97",
"f 	c #8FA9E7",
"g 	c #87A9FC",
"h 	c #5977C1",
"i 	c #5179D4",
"j 	c #81A5FE",
"k 	c #7492DB",
"l 	c #65676D",
"m 	c #ADB0AD",
"n 	c #879488",
"o 	c #6B906E",
"p 	c #629C64",
"q 	c #4E9C51",
"r 	c #3F8A41",
"s 	c #667766",
"t 	c #9A9EA7",
"u 	c #6378AB",
"v 	c #93B1FB",
"w 	c #7BA0F8",
"x 	c #416BCE",
"y 	c #4978E4",
"z 	c #80A5FE",
"A 	c #799AE9",
"B 	c #3F464C",
"C 	c #6A866B",
"D 	c #7FB384",
"E 	c #92D49D",
"F 	c #80D490",
"G 	c #78D38B",
"H 	c #73CB87",
"I 	c #516956",
"J 	c #57617B",
"K 	c #7998E3",
"L 	c #8CADFF",
"M 	c #7199F7",
"N 	c #4577ED",
"O 	c #638FF9",
"P 	c #82A6FE",
"Q 	c #7190DA",
"R 	c #315041",
"S 	c #73B878",
"T 	c #86D796",
"U 	c #6FD288",
"V 	c #64CD7E",
"W 	c #65CF81",
"X 	c #5BBA74",
"Y 	c #697F6F",
"Z 	c #888C94",
"` 	c #4B6297",
" .	c #8AACFE",
"..	c #88ABFF",
"+.	c #7FA2F9",
"@.	c #7FA3FA",
"#.	c #7FA2F7",
"$.	c #476482",
"%.	c #529857",
"&.	c #7DD38D",
"*.	c #67CB81",
"=.	c #48A15A",
"-.	c #42A850",
";.	c #5FCA79",
">.	c #4E9E63",
",.	c #8D9A90",
"'.	c #616A7F",
").	c #5B7ED3",
"!.	c #90B0FF",
"~.	c #81A4F9",
"{.	c #7493DD",
"].	c #627AB4",
"^.	c #5475C3",
"/.	c #6E8DD9",
"(.	c #366452",
"_.	c #72C57B",
":.	c #6CD085",
"<.	c #4DA062",
"[.	c #1B501F",
"}.	c #379B40",
"|.	c #60CB7A",
"1.	c #468C59",
"2.	c #737F76",
"3.	c #4C6195",
"4.	c #7EA0F2",
"5.	c #84A7FD",
"6.	c #6984C5",
"7.	c #656B7A",
"8.	c #787A7E",
"9.	c #3D5999",
"0.	c #5874B3",
"a.	c #407A4C",
"b.	c #75D18A",
"c.	c #5EC278",
"d.	c #2D6339",
"e.	c #135312",
"f.	c #41AC4D",
"g.	c #61CB7C",
"h.	c #4F895E",
"i.	c #858B9A",
"j.	c #4F6FBC",
"k.	c #8BADFE",
"l.	c #7C9EF0",
"m.	c #6476A0",
"n.	c #B4B5B6",
"o.	c #4D5B7B",
"p.	c #465986",
"q.	c #55895B",
"r.	c #68D082",
"s.	c #57B96F",
"t.	c #1D6324",
"u.	c #1F8322",
"v.	c #4EBD60",
"w.	c #60C67A",
"x.	c #578663",
"y.	c #5C667E",
"z.	c #6B8CDC",
"A.	c #88AAFE",
"B.	c #708DD5",
"C.	c #737D92",
"D.	c #94969A",
"E.	c #5B5F68",
"F.	c #648E6B",
"G.	c #67CF82",
"H.	c #58C070",
"I.	c #288C32",
"J.	c #35A240",
"K.	c #53BF69",
"L.	c #5DC177",
"M.	c #587E62",
"N.	c #898D95",
"O.	c #59688C",
"P.	c #5D6D93",
"Q.	c #6B7489",
"R.	c #ABADB2",
"S.	c #68826F",
"T.	c #61C57B",
"U.	c #63CE7E",
"V.	c #459F58",
"W.	c #409950",
"X.	c #4E9961",
"Y.	c #5F7565",
"Z.	c #A1A3A8",
"`.	c #9EA0A6",
" +	c #BDBDBD",
".+	c #78827B",
"++	c #498C5A",
"@+	c #52A768",
"#+	c #4F9461",
"$+	c #5E7E65",
"%+	c #687F6B",
"&+	c #86958A",
"*+	c #AAAEAB",
"=+	c #97A49B",
"-+	c #8DA394",
";+	c #A2AFA6",
"            . + @ #                 ",
"          $ % & * =                 ",
"        - ; > , ' )                 ",
"        ! ~ { ] ^ / (               ",
"      _ : < [ } | 1 2               ",
"      3 4 5 6 7 8 9 0     a b c d   ",
"      e f g h i j k l m n o p q r s ",
"    t u v w x y z A B C D E F G H I ",
"    J K L M N O P Q R S T U V W X Y ",
"  Z `  ...| +.@.#.$.%.&.*.=.-.;.>.,.",
"  '.).!.~.{.].^./.(._.:.<.[.}.|.1.2.",
"  3.4.5.6.7.8.9.0.a.b.c.d.e.f.g.h.  ",
"i.j.k.l.m.n.  o.p.q.r.s.t.u.v.w.x.  ",
"y.z.A.B.C.    D.E.F.G.H.I.J.K.L.M.  ",
"N.O.P.Q.R.        S.T.U.H.V.W.X.Y.  ",
"  Z.`. +          .+++@+#+$+%+&+*+  ",
"                    =+-+;+          "};
