/* XPM */
static char * formula_xpm[] = {
"32 32 586 2",
"  	c None",
". 	c #9C8C0F",
"+ 	c #948507",
"@ 	c #8B8016",
"# 	c #988F4F",
"$ 	c #AE9B52",
"% 	c #A9974D",
"& 	c #A7964E",
"* 	c #A5912A",
"= 	c #C0A325",
"- 	c #C8A727",
"; 	c #BC9E23",
"> 	c #A38E13",
", 	c #837A01",
"' 	c #797402",
") 	c #817C1C",
"! 	c #777416",
"~ 	c #B69E49",
"{ 	c #D5C46F",
"] 	c #E3CE6F",
"^ 	c #E1C459",
"/ 	c #E0C14D",
"( 	c #EFC84C",
"_ 	c #F4C849",
": 	c #EABE3B",
"< 	c #D2AC29",
"[ 	c #BD9D19",
"} 	c #B69713",
"| 	c #A88E07",
"1 	c #8C7F06",
"2 	c #7D7809",
"3 	c #A89129",
"4 	c #E2D36D",
"5 	c #FFEF80",
"6 	c #FEE56D",
"7 	c #FEE169",
"8 	c #FED95F",
"9 	c #FAD255",
"0 	c #F7CD4F",
"a 	c #F3CA4B",
"b 	c #E8BD39",
"c 	c #DDB027",
"d 	c #CDA315",
"e 	c #B5960A",
"f 	c #8D8005",
"g 	c #827B16",
"h 	c #D6B556",
"i 	c #DBCA7F",
"j 	c #F4EFAC",
"k 	c #FFF9A9",
"l 	c #FFF392",
"m 	c #FCE270",
"n 	c #DCB235",
"o 	c #CC9F1E",
"p 	c #CEA01F",
"q 	c #DCB02D",
"r 	c #F0C544",
"s 	c #EABE3A",
"t 	c #D2A81C",
"u 	c #AF920A",
"v 	c #8C7F09",
"w 	c #D9B241",
"x 	c #EFDFA6",
"y 	c #FFFFE9",
"z 	c #FFFED1",
"A 	c #FFF9AE",
"B 	c #FDEC85",
"C 	c #D5AC29",
"D 	c #B88703",
"E 	c #B38403",
"F 	c #D1A31F",
"G 	c #F3C849",
"H 	c #F1C645",
"I 	c #E6B933",
"J 	c #D7AE26",
"K 	c #B39813",
"L 	c #AA9313",
"M 	c #D0B449",
"N 	c #F8E393",
"O 	c #FFF8CF",
"P 	c #FFFED4",
"Q 	c #FFFAB6",
"R 	c #F4E590",
"S 	c #E9D26C",
"T 	c #E5CA53",
"U 	c #F1D258",
"V 	c #FBD55A",
"W 	c #F7CE51",
"X 	c #EFC443",
"Y 	c #E7BA35",
"Z 	c #E7BC3A",
"` 	c #BA9D1C",
" .	c #8A7F02",
"..	c #B59811",
"+.	c #F1D35B",
"@.	c #FFF5C7",
"#.	c #FFFFF1",
"$.	c #FFFEDF",
"%.	c #FFFDD4",
"&.	c #FFFAB7",
"*.	c #FFF287",
"=.	c #FFEA74",
"-.	c #FDDA5F",
";.	c #F9D154",
">.	c #F3C94A",
",.	c #EBC142",
"'.	c #A9941B",
").	c #737200",
"!.	c #9F8A04",
"~.	c #DDB934",
"{.	c #F6DE7B",
"].	c #FBE491",
"^.	c #F4D77C",
"/.	c #F2D476",
"(.	c #F9E78F",
"_.	c #FEF6AE",
":.	c #FEF4A3",
"<.	c #F8DA67",
"[.	c #F1C948",
"}.	c #F2C747",
"|.	c #E3BA38",
"1.	c #8F8314",
"2.	c #5C6600",
"3.	c #897D00",
"4.	c #C8A216",
"5.	c #E5BF3B",
"6.	c #EAC23F",
"7.	c #E3B731",
"8.	c #E1B42E",
"9.	c #E9C448",
"0.	c #F4D774",
"a.	c #F5D874",
"b.	c #E8C143",
"c.	c #DEB12A",
"d.	c #E3B630",
"e.	c #D1A921",
"f.	c #75710A",
"g.	c #5F6765",
"h.	c #57615F",
"i.	c #505B5B",
"j.	c #525C5D",
"k.	c #47591D",
"l.	c #4D5C04",
"m.	c #918107",
"n.	c #C8A31A",
"o.	c #D3A81C",
"p.	c #CBA316",
"q.	c #C7A016",
"r.	c #D0A61E",
"s.	c #E1B32D",
"t.	c #E3B52F",
"u.	c #D1A71B",
"v.	c #C39D0D",
"w.	c #BF9B0A",
"x.	c #C5A00F",
"y.	c #988509",
"z.	c #666805",
"A.	c #6E7371",
"B.	c #7C817A",
"C.	c #83897F",
"D.	c #7B8279",
"E.	c #747C75",
"F.	c #55624C",
"G.	c #50603C",
"H.	c #747412",
"I.	c #A38C09",
"J.	c #BA980B",
"K.	c #AE9216",
"L.	c #968330",
"M.	c #A68D2F",
"N.	c #CBA320",
"O.	c #D3A81B",
"P.	c #BD990B",
"Q.	c #A28A02",
"R.	c #9B8600",
"S.	c #A78D02",
"T.	c #716E01",
"U.	c #979B8F",
"V.	c #A6AA9A",
"W.	c #959A8D",
"X.	c #848880",
"Y.	c #7E837D",
"Z.	c #7B7F7A",
"`.	c #888C83",
" +	c #969A8D",
".+	c #A7AB99",
"++	c #A9AC9A",
"@+	c #A0A393",
"#+	c #979B8D",
"$+	c #7F857D",
"%+	c #686F6A",
"&+	c #565E45",
"*+	c #5F6038",
"=+	c #646233",
"-+	c #5C5D38",
";+	c #555B4D",
">+	c #525640",
",+	c #655E31",
"'+	c #927D18",
")+	c #7A7402",
"!+	c #646601",
"~+	c #676702",
"{+	c #5E6000",
"]+	c #5C610A",
"^+	c #91958A",
"/+	c #BABEAC",
"(+	c #D1D6BD",
"_+	c #C4C8B2",
":+	c #B9BDAA",
"<+	c #B3B7A5",
"[+	c #AEB1A0",
"}+	c #AFB29F",
"|+	c #B8BBA5",
"1+	c #B0B4A0",
"2+	c #A7AB98",
"3+	c #94998B",
"4+	c #81877D",
"5+	c #6F7771",
"6+	c #68706B",
"7+	c #5F6864",
"8+	c #5A6360",
"9+	c #4B5653",
"0+	c #454F4B",
"a+	c #565C20",
"b+	c #596206",
"c+	c #727972",
"d+	c #CACFBC",
"e+	c #F0F5DA",
"f+	c #E7ECD0",
"g+	c #E2E7CA",
"h+	c #DCE0C4",
"i+	c #D6DABE",
"j+	c #CFD3B9",
"k+	c #C9CCB3",
"l+	c #C2C4AD",
"m+	c #BCBFA8",
"n+	c #B4B8A2",
"o+	c #ACAF9C",
"p+	c #9FA393",
"q+	c #979B8E",
"r+	c #8E9488",
"s+	c #878D82",
"t+	c #7E847C",
"u+	c #787E77",
"v+	c #636C68",
"w+	c #656D68",
"x+	c #52603D",
"y+	c #707872",
"z+	c #CCD2BF",
"A+	c #F4F9DF",
"B+	c #ECF1D5",
"C+	c #E7ECCF",
"D+	c #E2E6CA",
"E+	c #DCE1C5",
"F+	c #D7DBBF",
"G+	c #D1D5BA",
"H+	c #CBCEB4",
"I+	c #C7CBB2",
"J+	c #C5C9B0",
"K+	c #C2C6AE",
"L+	c #B9BDA7",
"M+	c #ABAF9D",
"N+	c #959B8D",
"O+	c #8D9387",
"P+	c #868C81",
"Q+	c #80867D",
"R+	c #767D76",
"S+	c #6C746F",
"T+	c #A6AA9E",
"U+	c #C4C7BF",
"V+	c #EDF1E0",
"W+	c #F7FCE3",
"X+	c #F1F7DB",
"Y+	c #ECF1D6",
"Z+	c #E0E6C9",
"`+	c #CBCFB5",
" @	c #B1B59C",
".@	c #A0A48C",
"+@	c #9CA089",
"@@	c #9DA189",
"#@	c #9EA28B",
"$@	c #A4A790",
"%@	c #B4B8A0",
"&@	c #AFB49F",
"*@	c #9CA190",
"=@	c #8F9487",
"-@	c #898E83",
";@	c #7F857C",
">@	c #777E76",
",@	c #656E69",
"'@	c #4F5A57",
")@	c #414B4C",
"!@	c #475052",
"~@	c #A9AB9C",
"{@	c #C3C4B8",
"]@	c #DCDDD4",
"^@	c #F2F2E8",
"/@	c #FCFFEC",
"(@	c #FAFFE6",
"_@	c #F5FBE0",
":@	c #EBF1D5",
"<@	c #CED3B7",
"[@	c #9DA28B",
"}@	c #868A76",
"|@	c #7C806C",
"1@	c #787D6A",
"2@	c #767B69",
"3@	c #787C6A",
"4@	c #7E8370",
"5@	c #8E927E",
"6@	c #A3A890",
"7@	c #A1A592",
"8@	c #969B8C",
"9@	c #8F9588",
"0@	c #737B74",
"a@	c #606965",
"b@	c #4D5856",
"c@	c #3B4645",
"d@	c #303B3B",
"e@	c #A2A697",
"f@	c #D6D7CD",
"g@	c #FBFCF7",
"h@	c #FDFEF8",
"i@	c #FEFFF0",
"j@	c #FDFFEB",
"k@	c #F9FEE5",
"l@	c #F6FCE1",
"m@	c #D2D7BB",
"n@	c #7B8270",
"o@	c #535B50",
"p@	c #50574D",
"q@	c #51584E",
"r@	c #52594F",
"s@	c #52584F",
"t@	c #51594E",
"u@	c #5B6256",
"v@	c #8E937C",
"w@	c #A4A893",
"x@	c #989D8F",
"y@	c #8F9488",
"z@	c #7D847B",
"A@	c #777E77",
"B@	c #7D847A",
"C@	c #636C66",
"D@	c #4D5854",
"E@	c #7B827A",
"F@	c #ABAFA4",
"G@	c #D9DBCC",
"H@	c #EEF2E2",
"I@	c #FDFFF3",
"J@	c #FCFFE9",
"K@	c #F8FFE4",
"L@	c #BCC3AC",
"M@	c #878E7C",
"N@	c #575F54",
"O@	c #404842",
"P@	c #38413C",
"Q@	c #444B45",
"R@	c #646A5C",
"S@	c #8A907D",
"T@	c #A9AE97",
"U@	c #ADB19C",
"V@	c #A8AB99",
"W@	c #A1A594",
"X@	c #979C8D",
"Y@	c #8E9386",
"Z@	c #919789",
"`@	c #A3A897",
" #	c #868D82",
".#	c #67706C",
"+#	c #5E6863",
"@#	c #ACB09D",
"##	c #B2B7A5",
"$#	c #E6E8E1",
"%#	c #FFFFF6",
"&#	c #FEFFEE",
"*#	c #F7FCE2",
"=#	c #F3F8DD",
"-#	c #E1E7CC",
";#	c #C6CDB6",
">#	c #B5BCA8",
",#	c #ACB39F",
"'#	c #AFB5A0",
")#	c #BABEA5",
"!#	c #C5C9AF",
"~#	c #C2C5AD",
"{#	c #B8BCA6",
"]#	c #B1B4A0",
"^#	c #ABAE9C",
"/#	c #A0A494",
"(#	c #ABAF9C",
"_#	c #B6BAA4",
":#	c #798177",
"<#	c #58635F",
"[#	c #525D59",
"}#	c #787F75",
"|#	c #93998B",
"1#	c #A4A998",
"2#	c #E4E6DF",
"3#	c #FFFFFA",
"4#	c #FFFFF2",
"5#	c #FFFFED",
"6#	c #FAFEE5",
"7#	c #F6FCE0",
"8#	c #F3F9DE",
"9#	c #F0F6DA",
"0#	c #EDF2D6",
"a#	c #E1E6C9",
"b#	c #D8DCC0",
"c#	c #D0D3B9",
"d#	c #C7CAB1",
"e#	c #C0C3AC",
"f#	c #B2B5A1",
"g#	c #A8AC9A",
"h#	c #9DA292",
"i#	c #AAAF9B",
"j#	c #A5A997",
"k#	c #919689",
"l#	c #646E68",
"m#	c #475352",
"n#	c #424E4C",
"o#	c #616A65",
"p#	c #798078",
"q#	c #B5BBA9",
"r#	c #F3F5EC",
"s#	c #FDFEFB",
"t#	c #FDFDF8",
"u#	c #FCFCF6",
"v#	c #FAFCF3",
"w#	c #FAFBEE",
"x#	c #FAFBE8",
"y#	c #F7FBE3",
"z#	c #F1F7DC",
"A#	c #EDF2D7",
"B#	c #E3E7CB",
"C#	c #D8DBC0",
"D#	c #D1D4BA",
"E#	c #CCCFB5",
"F#	c #C4C7AF",
"G#	c #BCC0A9",
"H#	c #A5AA98",
"I#	c #AFB39F",
"J#	c #797F77",
"K#	c #4F5957",
"L#	c #374444",
"M#	c #323F3F",
"N#	c #505A58",
"O#	c #666F6A",
"P#	c #9CA295",
"Q#	c #DBDECC",
"R#	c #EEF1E1",
"S#	c #ECEFDE",
"T#	c #E0E2D3",
"U#	c #D6D8C9",
"V#	c #D5D7C6",
"W#	c #E0E2CD",
"X#	c #F1F5DD",
"Y#	c #F8FCE3",
"Z#	c #F2F7DD",
"`#	c #E8EDD0",
" $	c #E3E8CB",
".$	c #DBDFC3",
"+$	c #CDD0B6",
"@$	c #C6CAB1",
"#$	c #C5C8B0",
"$$	c #C4C8AE",
"%$	c #C0C4AC",
"&$	c #BDC1AA",
"*$	c #BFC3AB",
"=$	c #949A8C",
"-$	c #616B66",
";$	c #3E4947",
">$	c #2A3736",
",$	c #2B3532",
"'$	c #2F3B37",
")$	c #35413D",
"!$	c #697168",
"~$	c #ACB19E",
"{$	c #BEC2AD",
"]$	c #BCBFAA",
"^$	c #B3B5A1",
"/$	c #AAAE9B",
"($	c #B1B4A1",
"_$	c #BDC0AC",
":$	c #E5E9D2",
"<$	c #F6FAE3",
"[$	c #F4F8E0",
"}$	c #F0F6DB",
"|$	c #DDE1C7",
"1$	c #C2C6AF",
"2$	c #B0B39F",
"3$	c #AEB19E",
"4$	c #B0B59F",
"5$	c #B7BAA4",
"6$	c #BABDA7",
"7$	c #AEB29D",
"8$	c #677066",
"9$	c #2F3B38",
"0$	c #2E3836",
"a$	c #343F39",
"b$	c #545D57",
"c$	c #8D9285",
"d$	c #A2A696",
"e$	c #A0A394",
"f$	c #9B9F90",
"g$	c #989D8D",
"h$	c #999E8F",
"i$	c #9EA292",
"j$	c #BFC3AE",
"k$	c #D3D6C1",
"l$	c #D4D8C1",
"m$	c #D4D8C0",
"n$	c #C0C4AE",
"o$	c #9A9F8F",
"p$	c #979B8C",
"q$	c #A0A493",
"r$	c #A3A696",
"s$	c #82897D",
"t$	c #58615A",
"u$	c #49524D",
"v$	c #6C746C",
"w$	c #868C82",
"x$	c #8A8F84",
"y$	c #848A80",
"z$	c #80877D",
"A$	c #82887E",
"B$	c #898F83",
"C$	c #ADB19D",
"D$	c #8E9387",
"E$	c #81887E",
"F$	c #7D857C",
"G$	c #7F877D",
"H$	c #868B81",
"I$	c #898D83",
"J$	c #57605C",
"K$	c #363F3A",
"L$	c #59615D",
"M$	c #757C75",
"N$	c #6F7671",
"O$	c #6B736E",
"P$	c #6E7570",
"Q$	c #9BA091",
"R$	c #9DA191",
"S$	c #7A8078",
"T$	c #69716C",
"U$	c #727973",
"V$	c #737A73",
"W$	c #46514F",
"X$	c #333B34",
"Y$	c #394440",
"Z$	c #495451",
"`$	c #475250",
" %	c #3A4643",
".%	c #34403D",
"+%	c #33403C",
"@%	c #3B4744",
"#%	c #505A56",
"$%	c #717872",
"%%	c #81877E",
"&%	c #858A80",
"*%	c #535E5A",
"=%	c #384442",
"-%	c #323E3B",
";%	c #343E3C",
">%	c #343F3D",
",%	c #404B49",
"'%	c #424F4C",
")%	c #303B38",
"!%	c #37413C",
"~%	c #3A433E",
"{%	c #3B443F",
"]%	c #333D39",
"^%	c #323E39",
"/%	c #36403B",
"(%	c #4E5754",
"_%	c #67706B",
":%	c #6D756F",
"<%	c #4E5854",
"[%	c #3B4541",
"}%	c #333D38",
"|%	c #35403C",
"1%	c #3D4842",
"2%	c #37413D",
"3%	c #38433F",
"4%	c #35413E",
"5%	c #39443E",
"                                            . + @       #       ",
"                                    $ % & * = - ; > , ' ) !     ",
"                                  ~ { ] ^ / ( _ : < [ } | 1 2   ",
"                                  3 4 5 6 7 8 9 0 a b c d e f g ",
"                                h i j k l m n o p q r s c t u v ",
"                                w x y z A B C D E F G H I c J K ",
"                                L M N O P Q R S T U V W X Y Z ` ",
"                                 ...+.@.#.$.%.&.*.=.7 -.;.>.,.'.",
"                                ).!.~.{.].^./.(._.:.<.[.X }.|.1.",
"                                2.3.4.5.6.7.8.9.0.a.b.c.c d.e.f.",
"                        g.h.i.j.k.l.m.n.o.p.q.r.s.t.u.v.w.x.y.z.",
"                      A.B.C.D.E.F.G.H.I.J.K.L.M.N.O.P.Q.R.S.T.  ",
"        U.V.W.X.Y.Z.`. +.+++@+#+$+%+&+*+=+-+;+>+,+'+)+!+~+{+]+  ",
"      ^+/+(+_+:+<+[+}+|+|+1+2+@+3+4+5+6+7+8+8+9+0+a+b+          ",
"      c+d+e+f+g+h+i+j+k+l+m+n+o+p+q+r+s+t+u+5+v+w+x+            ",
"      y+z+A+B+C+D+E+F+G+H+I+J+K+L+M+N+O+P+Q+R+S+v+              ",
"    T+U+V+W+X+Y+f+Z+`+ @.@+@@@#@$@%@&@*@=@-@;@>@,@'@)@!@        ",
"~@{@]@^@/@(@_@X+:@<@[@}@|@1@2@3@4@5@6@7@8@9@P+;@0@a@b@c@d@      ",
"e@f@g@h@i@j@k@l@X+m@n@o@p@q@r@s@t@u@v@w@@+x@y@s+z@A@B@C@D@      ",
"E@F@G@H@I@#.J@K@_@:@L@M@N@O@P@Q@R@S@T@U@V@W@X@Y@Z@`@&@ #.#      ",
"+#P+@###$#%#&#J@k@*#=#-#;#>#,#'#)#!#~#{#]#^#/#3+(#_#(#:#<#      ",
"[#}#|#1#2#3#4#5#J@6#7#8#9#0#f+a#b#c#d#e#|+f#g#h#i#j#k#l#m#      ",
"n#o#p#q#r#s#t#u#v#w#x#y#z#A#f+B#h+C#D#E#F#G#]#H#I#h#J#K#L#      ",
"M#N#O#P#Q#R#S#T#U#V#W#X#Y#Z#B+`# $.$+$@$#$$$%$&$*$=$-$;$>$      ",
",$'$)$!$~${$]$^$^#/$($_$:$<$[$}$|$1$2$o+3$4$5$6$7$8$9$0$        ",
"    a$b$c$d$e$f$g$X@h$i$j$k$l$m$n$g#o$p$X@h$q$r$s$t$            ",
"      u$v$w$x$y$z$Q+A$B$p+C$I#]#W@D$E$z@F$G$H$I$J$              ",
"      K$L$0@M$N$O$O$P$M$O+Q$R$i$Y@S$S+6+T$O$U$V$W$              ",
"      X$Y$Z$`$ %.%+%@%#%$%%%C.&%c+*%=%-%;%>%,%'%)%              ",
"        !%~%{%]%    ^%/%(%_%:%5+<%[%}%      |%1%                ",
"                        2%3%4%4%5%                              ",
"                                                                "};
