/* XPM */
static char * forw_xpm[] = {
"37 32 153 2",
"  	c None",
". 	c #083452",
"+ 	c #000808",
"@ 	c #084062",
"# 	c #20617B",
"$ 	c #082431",
"% 	c #104462",
"& 	c #5299BD",
"* 	c #29617B",
"= 	c #002029",
"- 	c #18486A",
"; 	c #7BB2CD",
"> 	c #73B6D5",
", 	c #31718B",
"' 	c #000C10",
") 	c #83B6CD",
"! 	c #CDEAF6",
"~ 	c #B4D2E6",
"{ 	c #29718B",
"] 	c #001418",
"^ 	c #83B2CD",
"/ 	c #BDDEEE",
"( 	c #CDE2EE",
"_ 	c #B4D6E6",
": 	c #39697B",
"< 	c #000000",
"[ 	c #002841",
"} 	c #002041",
"| 	c #002039",
"1 	c #001C39",
"2 	c #002441",
"3 	c #08405A",
"4 	c #94CADE",
"5 	c #B4DAE6",
"6 	c #FFFFFF",
"7 	c #A4CEE6",
"8 	c #0891B4",
"9 	c #94C2D5",
"0 	c #6ACADE",
"a 	c #DEEEF6",
"b 	c #E6F2FF",
"c 	c #ACDAEE",
"d 	c #18AECD",
"e 	c #29AECD",
"f 	c #7BCEE6",
"g 	c #FFFAFF",
"h 	c #C5DAE6",
"i 	c #316D83",
"j 	c #001C29",
"k 	c #BDE2F6",
"l 	c #ACDAE6",
"m 	c #D5EEF6",
"n 	c #E6F6FF",
"o 	c #B4DEEE",
"p 	c #9CD2E6",
"q 	c #7BCAE6",
"r 	c #39BED5",
"s 	c #0095BD",
"t 	c #0899C5",
"u 	c #29B2CD",
"v 	c #83CEE6",
"w 	c #F6F6FF",
"x 	c #9CCEE6",
"y 	c #41697B",
"z 	c #082429",
"A 	c #7BC2D5",
"B 	c #9CDAE6",
"C 	c #9CDAEE",
"D 	c #83D2E6",
"E 	c #52BEDE",
"F 	c #41B6D5",
"G 	c #41B2D5",
"H 	c #08A1C5",
"I 	c #0891BD",
"J 	c #39B6D5",
"K 	c #B4E2EE",
"L 	c #DEF2FF",
"M 	c #83BEDE",
"N 	c #18617B",
"O 	c #C5E2EE",
"P 	c #6ABAD5",
"Q 	c #31B2CD",
"R 	c #41B6CD",
"S 	c #4ABAD5",
"T 	c #31BAD5",
"U 	c #10AECD",
"V 	c #08AACD",
"W 	c #18A5C5",
"X 	c #1091BD",
"Y 	c #088DB4",
"Z 	c #0895BD",
"` 	c #5AD2E6",
" .	c #52E2EE",
"..	c #39BAD5",
"+.	c #2091B4",
"@.	c #08506A",
"#.	c #C5EAF6",
"$.	c #62BED5",
"%.	c #1899BD",
"&.	c #0889AC",
"*.	c #1089AC",
"=.	c #088DAC",
"-.	c #0899BD",
";.	c #10A1CD",
">.	c #08AECD",
",.	c #41CEE6",
"'.	c #4AD6E6",
").	c #20BAD5",
"!.	c #004862",
"~.	c #D5F2FF",
"{.	c #18B6CD",
"].	c #18B2CD",
"^.	c #29BACD",
"/.	c #29BED5",
"(.	c #20B6CD",
"_.	c #10B6CD",
":.	c #10B6D5",
"<.	c #10B2CD",
"[.	c #10A5CD",
"}.	c #18B6D5",
"|.	c #20CEE6",
"1.	c #39DAE6",
"2.	c #31C2D5",
"3.	c #085573",
"4.	c #001820",
"5.	c #18759C",
"6.	c #10698B",
"7.	c #106994",
"8.	c #106D94",
"9.	c #107DA4",
"0.	c #4ADEEE",
"a.	c #29BAD5",
"b.	c #108DB4",
"c.	c #085D7B",
"d.	c #001420",
"e.	c #082C39",
"f.	c #089DC5",
"g.	c #29CEE6",
"h.	c #1891BD",
"i.	c #084C6A",
"j.	c #001018",
"k.	c #084462",
"l.	c #10A1BD",
"m.	c #29CAE6",
"n.	c #31C2DE",
"o.	c #1895B4",
"p.	c #18A5CD",
"q.	c #317D9C",
"r.	c #2085AC",
"s.	c #20759C",
"t.	c #104862",
"u.	c #083C5A",
"v.	c #08385A",
"                                                                          ",
"                                                                          ",
"                                                                          ",
"                                                                          ",
"                                    .                                     ",
"                                    . +                                   ",
"                                    @ # $                                 ",
"                                    % & * =                               ",
"                                    - ; > , '                             ",
"                                    - ) ! ~ { ]                           ",
"                                    - ^ / ( _ : =                         ",
"                < [ } | 1 1 1 1 [ 2 3 ^ 4 5 6 7 : ]                       ",
"                < 8 8 8 8 8 8 8 8 8 8 9 0 0 a 6 _ { '                     ",
"                < 8 / b 6 6 6 6 6 b / c d e f a g h i j                   ",
"                < 8 k l m n n m o p q r s t u v m w x y z                 ",
"                < 8 / A v B C D E F G H s I t J f K L M N <               ",
"                < 8 O P Q R S T U V W X Y Z Z G `  ...+.@.<               ",
"                < 8 #.$.%.&.*.=.8 -.t Y I ;.>.,.'.).Y !.j                 ",
"                < 8 ~.f {.].^./.(._.:.<.[.}.|.1.2.*.3.4.                  ",
"                < 8 5.6.6.6.7.8.8.9.I Z >.|.0.a.b.c.'                     ",
"                < = d.d.d.d.d.d.] e.c.f.g.1.a.h.i.j.                      ",
"                                    k.l.m.n.b.i.j                         ",
"                                    k.o.p.b.c.j.                          ",
"                                    % q.r.3.'                             ",
"                                    @ s.t.j                               ",
"                                    u.@.j                                 ",
"                                    . +                                   ",
"                                    v.                                    ",
"                                                                          ",
"                                                                          ",
"                                                                          ",
"                                                                          "};
