/* XPM */
static char * graph3_xpm[] = {
"48 48 619 2",
"  	c None",
". 	c #90826F",
"+ 	c #8E806D",
"@ 	c #8B7E6B",
"# 	c #887C6A",
"$ 	c #857968",
"% 	c #827767",
"& 	c #7F7565",
"* 	c #7D7263",
"= 	c #7A7062",
"- 	c #776E60",
"; 	c #746B5F",
"> 	c #71695D",
", 	c #6E675B",
"' 	c #6B655A",
") 	c #696258",
"! 	c #666057",
"~ 	c #635E55",
"{ 	c #605B53",
"] 	c #56534F",
"^ 	c #6B6B6B",
"/ 	c #757575",
"( 	c #8F816E",
"_ 	c #B6B6B6",
": 	c #B9B9B9",
"< 	c #B5B5B5",
"[ 	c #A9A9A9",
"} 	c #9A9A9A",
"| 	c #868686",
"1 	c #585858",
"2 	c #595959",
"3 	c #8D806D",
"4 	c #FAFAFA",
"5 	c #EEEEEE",
"6 	c #E4E4E4",
"7 	c #D1D1D1",
"8 	c #B7B7B7",
"9 	c #828282",
"0 	c #848484",
"a 	c #929292",
"b 	c #545454",
"c 	c #8C7E6C",
"d 	c #F2F2F2",
"e 	c #E6E6E6",
"f 	c #D0D0D0",
"g 	c #ADADAD",
"h 	c #767676",
"i 	c #C5C5C5",
"j 	c #3A3A3A",
"k 	c #8A7D6B",
"l 	c #F1F1F1",
"m 	c #DFDFDF",
"n 	c #626262",
"o 	c #E7E7E7",
"p 	c #353535",
"q 	c #897C6A",
"r 	c #EDEDED",
"s 	c #E8E8E8",
"t 	c #4E4E4E",
"u 	c #877A69",
"v 	c #ECECEC",
"w 	c #DCDCDC",
"x 	c #2C2C2C",
"y 	c #847867",
"z 	c #C3C3C3",
"A 	c #FFFFFF",
"B 	c #06795D",
"C 	c #06775B",
"D 	c #057458",
"E 	c #057055",
"F 	c #057053",
"G 	c #056C53",
"H 	c #056850",
"I 	c #05664E",
"J 	c #05624B",
"K 	c #04604A",
"L 	c #045D47",
"M 	c #045B43",
"N 	c #045742",
"O 	c #045541",
"P 	c #045340",
"Q 	c #044F3D",
"R 	c #034C3B",
"S 	c #034A37",
"T 	c #034835",
"U 	c #034434",
"V 	c #03422E",
"W 	c #033E34",
"X 	c #033A27",
"Y 	c #F7F7F7",
"Z 	c #F9F9F9",
"` 	c #CCCCCC",
" .	c #616161",
"..	c #808080",
"+.	c #00503D",
"@.	c #004D3B",
"#.	c #004A38",
"$.	c #004636",
"%.	c #004333",
"&.	c #004030",
"*.	c #003C2E",
"=.	c #00392B",
"-.	c #003629",
";.	c #003226",
">.	c #002F24",
",.	c #002B21",
"'.	c #00281E",
").	c #00251C",
"!.	c #002119",
"~.	c #001E17",
"{.	c #001A14",
"].	c #001712",
"^.	c #00140F",
"/.	c #00100C",
"(.	c #000D0A",
"_.	c #000A07",
":.	c #000605",
"<.	c #DEDEDE",
"[.	c #E5E5E5",
"}.	c #1B1B1B",
"|.	c #2B2B2B",
"1.	c #3B3B3B",
"2.	c #4B4B4B",
"3.	c #5B5B5B",
"4.	c #7A7A7A",
"5.	c #000000",
"6.	c #067F61",
"7.	c #067D60",
"8.	c #FFFF00",
"9.	c #404000",
"0.	c #034D3B",
"a.	c #03513E",
"b.	c #B1B1B1",
"c.	c #E9E9E8",
"d.	c #C4C3C1",
"e.	c #B8B8B5",
"f.	c #A6A6A1",
"g.	c #9B9992",
"h.	c #88857B",
"i.	c #797771",
"j.	c #696561",
"k.	c #5C5957",
"l.	c #403F3F",
"m.	c #005B45",
"n.	c #005742",
"o.	c #005440",
"p.	c #001D16",
"q.	c #989898",
"r.	c #F6F6F6",
"s.	c #E2E2E2",
"t.	c #D2D2D1",
"u.	c #C2C1BF",
"v.	c #B4B3AF",
"w.	c #A3A19D",
"x.	c #95918B",
"y.	c #89847D",
"z.	c #535250",
"A.	c #494743",
"B.	c #078868",
"C.	c #068565",
"D.	c #068163",
"E.	c #C0C000",
"F.	c #012B1F",
"G.	c #034B39",
"H.	c #959595",
"I.	c #AEAEAE",
"J.	c #DDDDDD",
"K.	c #CCC9C7",
"L.	c #B7B5B2",
"M.	c #A8A5A1",
"N.	c #9C998F",
"O.	c #938E84",
"P.	c #666461",
"Q.	c #393733",
"R.	c #00614A",
"S.	c #005E48",
"T.	c #002018",
"U.	c #00241B",
"V.	c #F5F5F4",
"W.	c #EAEAE9",
"X.	c #DEDDDB",
"Y.	c #D4D1CE",
"Z.	c #CBC9C4",
"`.	c #C0BBB2",
" +	c #ADA79C",
".+	c #9C968E",
"++	c #78726D",
"@+	c #312F2B",
"#+	c #078C6B",
"$+	c #078A6A",
"%+	c #023126",
"&+	c #03513B",
"*+	c #F9F8F6",
"=+	c #F6F4F3",
"-+	c #F2F0ED",
";+	c #E0DEDA",
">+	c #DCD9D3",
",+	c #D0CCC6",
"'+	c #CAC4BB",
")+	c #BAB5A9",
"!+	c #ACA69E",
"~+	c #7F7971",
"{+	c #13725B",
"]+	c #00654D",
"^+	c #001913",
"/+	c #001610",
"(+	c #F5F4F2",
"_+	c #F8F6F3",
":+	c #F7F4F0",
"<+	c #F2EEE9",
"[+	c #E8E3DE",
"}+	c #DFDAD3",
"|+	c #D9D4CC",
"1+	c #CFC8BF",
"2+	c #C8C1B7",
"3+	c #BCB5A8",
"4+	c #8A8278",
"5+	c #0A9170",
"6+	c #0A8D6D",
"7+	c #098B6B",
"8+	c #088869",
"9+	c #022E23",
"0+	c #034B3A",
"a+	c #035A45",
"b+	c #DCDBDA",
"c+	c #F4F2EF",
"d+	c #F6F2ED",
"e+	c #F2EDE7",
"f+	c #F0EAE1",
"g+	c #E6DFD7",
"h+	c #DCD6CC",
"i+	c #D6CFC4",
"j+	c #CEC5B9",
"k+	c #C5BFB1",
"l+	c #908678",
"m+	c #097058",
"n+	c #086C54",
"o+	c #086952",
"p+	c #06644E",
"q+	c #05614B",
"r+	c #025843",
"s+	c #001C15",
"t+	c #001510",
"u+	c #001B14",
"v+	c #919191",
"w+	c #ADADAB",
"x+	c #DBDAD7",
"y+	c #F3F0EC",
"z+	c #F5F1EA",
"A+	c #F4EFE7",
"B+	c #F2EAE1",
"C+	c #E6E0D5",
"D+	c #DBD5CA",
"E+	c #D9D1C4",
"F+	c #D5CDC0",
"G+	c #CAC2B2",
"H+	c #968B7A",
"I+	c #139B7A",
"J+	c #139777",
"K+	c #129574",
"L+	c #119071",
"M+	c #0F8E6F",
"N+	c #0E8B6C",
"O+	c #0B8768",
"P+	c #098265",
"Q+	c #023C2D",
"R+	c #045A44",
"S+	c #046D51",
"T+	c #01251C",
"U+	c #878685",
"V+	c #ADABA9",
"W+	c #DAD8D4",
"X+	c #F4EDE3",
"Y+	c #F0E8DE",
"Z+	c #ECE4D8",
"`+	c #E3DACE",
" @	c #DAD3C4",
".@	c #D7CDBE",
"+@	c #D3CAB7",
"@@	c #978D7B",
"#@	c #127F65",
"$@	c #127B62",
"%@	c #11785F",
"&@	c #808000",
"*@	c #0F7059",
"=@	c #0E6D56",
"-@	c #0C6852",
";@	c #0A644F",
">@	c #00271E",
",@	c #004434",
"'@	c #908F8D",
")@	c #ACAAA7",
"!@	c #DAD6D2",
"~@	c #F1EDE6",
"{@	c #F3EBE1",
"]@	c #F2EADE",
"^@	c #EEE4D6",
"/@	c #E3DACC",
"(@	c #E0D8C7",
"_@	c #D9D0BC",
":@	c #D6CBB7",
"<@	c #A09480",
"[@	c #1EA584",
"}@	c #1EA483",
"|@	c #15896D",
"1@	c #159071",
"2@	c #043B2E",
"3@	c #033629",
"4@	c #04644D",
"5@	c #05765A",
"6@	c #022B21",
"7@	c #035340",
"8@	c #93918F",
"9@	c #ABA8A5",
"0@	c #D9D5CF",
"a@	c #F0EBE3",
"b@	c #F1E8DB",
"c@	c #EFE5D5",
"d@	c #EBE1D1",
"e@	c #E0D6C3",
"f@	c #D9CEBA",
"g@	c #D6CAB5",
"h@	c #A5967F",
"i@	c #1B896F",
"j@	c #105F4C",
"k@	c #032920",
"l@	c #044636",
"m@	c #025340",
"n@	c #001812",
"o@	c #002C21",
"p@	c #92908D",
"q@	c #ABA8A3",
"r@	c #D8D3CC",
"s@	c #F0E9DF",
"t@	c #F0E6D8",
"u@	c #F0E4D4",
"v@	c #EADFCC",
"w@	c #E2D6C1",
"x@	c #DED3BC",
"y@	c #D5C9B2",
"z@	c #A5957D",
"A@	c #575958",
"B@	c #094133",
"C@	c #084032",
"D@	c #0C795E",
"E@	c #0B8366",
"F@	c #078062",
"G@	c #022F23",
"H@	c #04634C",
"I@	c #928F8B",
"J@	c #AAA6A1",
"K@	c #D8D2C9",
"L@	c #EFE7DD",
"M@	c #EFE3D1",
"N@	c #EDE0CB",
"O@	c #EBDCC5",
"P@	c #DFD3BB",
"Q@	c #DCCEB5",
"R@	c #A5947C",
"S@	c #F4F445",
"T@	c #0E3A30",
"U@	c #0E3C32",
"V@	c #105343",
"W@	c #09392E",
"X@	c #0C5544",
"Y@	c #0C634F",
"Z@	c #09604B",
"`@	c #055A45",
" #	c #015440",
".#	c #003225",
"+#	c #003A2C",
"@#	c #918E89",
"##	c #AAA59E",
"$#	c #D7D0C7",
"%#	c #EEE6DA",
"&#	c #EEE1CE",
"*#	c #EBDBC3",
"=#	c #DFD1B8",
"-#	c #DDCFB3",
";#	c #A6967B",
">#	c #145041",
",#	c #134A3D",
"'#	c #22896F",
")#	c #28A485",
"!#	c #105141",
"~#	c #177B62",
"{#	c #189073",
"]#	c #159072",
"^#	c #128D6F",
"/#	c #0D8869",
"(#	c #056A51",
"_#	c #024031",
":#	c #04644C",
"<#	c #918D87",
"[#	c #A9A49D",
"}#	c #EDE4D7",
"|#	c #ECDEC8",
"1#	c #EADAC0",
"2#	c #E7D5BB",
"3#	c #DDCDB1",
"4#	c #AC987D",
"5#	c #247D67",
"6#	c #164E41",
"7#	c #227762",
"8#	c #288D75",
"9#	c #268C74",
"0#	c #238870",
"a#	c #1C7560",
"b#	c #104739",
"c#	c #166C57",
"d#	c #16755E",
"e#	c #126F59",
"f#	c #0E6953",
"g#	c #065E49",
"h#	c #004B39",
"i#	c #908C86",
"j#	c #A8A39A",
"k#	c #D5CDC2",
"l#	c #ECE2D4",
"m#	c #EADBC2",
"n#	c #E9D6B9",
"o#	c #DDCBAE",
"p#	c #AB967B",
"q#	c #1E6352",
"r#	c #2C947B",
"s#	c #33B293",
"t#	c #33B494",
"u#	c #30B090",
"v#	c #2DAB8C",
"w#	c #28A486",
"x#	c #22977A",
"y#	c #219D7F",
"z#	c #1E9C7D",
"A#	c #1A9879",
"B#	c #169374",
"C#	c #128F71",
"D#	c #098667",
"E#	c #908B84",
"F#	c #A8A198",
"G#	c #D4CBBF",
"H#	c #ECE0D0",
"I#	c #EAD9BE",
"J#	c #E8D5B8",
"K#	c #E4D0B0",
"L#	c #AB9578",
"M#	c #318F78",
"N#	c #1E594B",
"O#	c #2F8E77",
"P#	c #339F85",
"Q#	c #309A81",
"R#	c #2D967C",
"S#	c #2A9179",
"T#	c #1F836B",
"U#	c #1B7E66",
"V#	c #167760",
"W#	c #12725B",
"X#	c #096650",
"Y#	c #015B45",
"Z#	c #8F8A82",
"`#	c #A7A096",
" $	c #D4CABB",
".$	c #EBDFCD",
"+$	c #E9D7BB",
"@$	c #E4D1AF",
"#$	c #AC9477",
"$$	c #3FB89A",
"%$	c #3BAB90",
"&$	c #3DB899",
"*$	c #3DBB9C",
"=$	c #3ABA9A",
"-$	c #36B797",
";$	c #2FB090",
">$	c #2BAB8B",
",$	c #27A788",
"'$	c #22A584",
")$	c #1E9F80",
"!$	c #1A9A7B",
"~$	c #159676",
"{$	c #0C8C6D",
"]$	c #8F8980",
"^$	c #A79F93",
"/$	c #D3C9B9",
"($	c #EADDCA",
"_$	c #E7D4B5",
":$	c #E8D3AD",
"<$	c #B49A79",
"[$	c #40A58D",
"}$	c #3FA48C",
"|$	c #3DA38B",
"1$	c #3AA289",
"2$	c #37A087",
"3$	c #2F9980",
"4$	c #2B957B",
"5$	c #279077",
"6$	c #228A71",
"7$	c #1E866D",
"8$	c #197F67",
"9$	c #157A62",
"0$	c #11745D",
"a$	c #0C6F57",
"b$	c #03624C",
"c$	c #8F877E",
"d$	c #A69E91",
"e$	c #D2C7B6",
"f$	c #E9DCC7",
"g$	c #E6D2B2",
"h$	c #E6D0AF",
"i$	c #B49675",
"j$	c #4AC0A3",
"k$	c #49BFA2",
"l$	c #46BEA1",
"m$	c #43BD9F",
"n$	c #3FBC9D",
"o$	c #3BBA9B",
"p$	c #32B695",
"q$	c #2EB392",
"r$	c #29AD8D",
"s$	c #26A888",
"t$	c #22A585",
"u$	c #1CA280",
"v$	c #179D7C",
"w$	c #0E9372",
"x$	c #8E877C",
"y$	c #A69D8F",
"z$	c #D2C6B3",
"A$	c #E8DAC4",
"B$	c #E5CEAC",
"C$	c #B59974",
"D$	c #49A992",
"E$	c #47A891",
"F$	c #44A78F",
"G$	c #3BA28A",
"H$	c #36A087",
"I$	c #249177",
"J$	c #208C73",
"K$	c #1B876D",
"L$	c #178268",
"M$	c #8D867A",
"N$	c #A59C8D",
"O$	c #D1C4B1",
"P$	c #E7D8C1",
"Q$	c #E4CDA9",
"R$	c #B99D74",
"S$	c #A0A0A0",
"T$	c #A39A8A",
"U$	c #CEC1AD",
"V$	c #E5D6BE",
"W$	c #E3CBA6",
"X$	c #B99E74",
"Y$	c #9D9384",
"Z$	c #C3B6A2",
"`$	c #DFCFB5",
" %	c #E8D6BA",
".%	c #E2C9A3",
"+%	c #B99970",
"@%	c #35322D",
"#%	c #6D6B6A",
"$%	c #939290",
"%%	c #8D8579",
"&%	c #8C8477",
"*%	c #8D8476",
"=%	c #958B7C",
"-%	c #B2A590",
";%	c #D5C5AB",
">%	c #E5D2B5",
",%	c #E1C7A0",
"'%	c #B7996E",
")%	c #3C3934",
"!%	c #7F7D7A",
"~%	c #A49A8B",
"{%	c #A49989",
"]%	c #A39887",
"^%	c #A79A87",
"/%	c #B7A993",
"(%	c #D5C4A9",
"_%	c #E4D1B2",
":%	c #E1C59C",
"<%	c #B6986D",
"[%	c #4B4741",
"}%	c #A19F9B",
"|%	c #D0C2AE",
"1%	c #CFC2AB",
"2%	c #CFC0A8",
"3%	c #CFBFA6",
"4%	c #D4C3A8",
"5%	c #DFCDAF",
"6%	c #E5D1B1",
"7%	c #B6976B",
"8%	c #524E47",
"9%	c #B2AFA9",
"0%	c #E6D7BE",
"a%	c #E6D5BB",
"b%	c #E5D3B8",
"c%	c #524F48",
"d%	c #B4B1AA",
"e%	c #514D47",
"f%	c #B4B0A8",
"g%	c #4F4C46",
"h%	c #B6B0A6",
"i%	c #BBB3A7",
"j%	c #BCB2A4",
"k%	c #BBB0A1",
"l%	c #BBAF9F",
"m%	c #BAAD9C",
"n%	c #BAAD9A",
"o%	c #BAAC96",
"p%	c #B9AA95",
"q%	c #B9A891",
"r%	c #B9A88F",
"s%	c #B9A58B",
"t%	c #B8A58A",
"u%	c #B8A386",
"v%	c #B8A284",
"w%	c #BDA27C",
"x%	c #BCA17B",
"y%	c #BCA179",
"z%	c #BBA076",
"A%	c #B29161",
"B%	c #272420",
"                                                                                                ",
"                                                                                                ",
"                          . . + @ # $ % & * = - ; > , ' ) ! ~ { ] ^ /                           ",
"                          ( _ : : : : : : : : : : : : : < < [ } | 1 2 /                         ",
"                          3 : 4 4 4 4 4 4 4 4 4 4 4 4 4 4 5 6 7 8 9 0 a b                       ",
"                          c : 4 4 4 4 4 4 4 4 4 4 4 4 4 4 4 d e f g h i a j                     ",
"                          k : 4 4 4 4 4 4 4 4 4 4 4 4 4 4 4 4 l m 7 n o i | p                   ",
"                          q : 4 4 4 4 4 4 4 4 4 4 4 4 4 4 4 4 4 r s t 4 o i | p                 ",
"                          u : 4 4 4 4 4 4 4 4 4 4 4 4 4 4 4 4 4 4 d t 4 4 o i | p               ",
"                          $ : 4 4 4 4 4 4 4 4 4 4 4 4 4 4 4 4 4 4 4 t v 4 4 o i | j             ",
"        w x               y : 4 4 4 4 4 4 4 4 4 4 4 4 4 4 4 4 4 4 4 t w v 4 4 o i a b           ",
"        w z A B C D E F G H I J K L M N O P Q R S T U V W X Y Y Z 4 t ` w v 4 4 o i a  .        ",
"        w ..1 +.@.#.$.%.&.*.=.-.;.>.,.'.).!.~.{.].^./.(._.:.<.[.d Z t }.}.|.1.2.3.^ 4.^ /       ",
"        w 1 5.6.7.B C D E F G H I J K L 8.9.0.a.Q R S T U V b.z [.Y c.d.e.f.g.h.i.j.k.l. .      ",
"        w 1 m.n.o.+.@.#.$.%.&.*.=.-.;.>.8.9.^.p.~.{.].^./.(.q.b.<.r.Y s.t.u.v.w.x.y.i.z.A.      ",
"        w 1 B.C.D.6.7.B C D E F G H I E.8.9.F.G.O P Q R S T H.I.J.r.Z r.m 7 K.L.M.N.O.P.Q.      ",
"        w 1 R.S.m.n.o.+.@.#.$.%.&.*.=.8.E.8.9.T.U.!.~.{.].^.H.I.J.r.4 V.W.X.Y.Z.`. +.+++@+      ",
"        w 1 #+$+B.C.D.6.7.B C D E F 8.E.9.8.9.%+&+N O P Q R H.I.J.r.*+=+-+;+>+,+'+)+!+~+@+      ",
"        w 1 {+]+R.S.m.n.o.+.@.#.$.E.8.9.^+8.9./+).'.).!.~.{.H.I.J.(+_+:+<+[+}+|+1+2+3+4+@+      ",
"        w z A 5+6+7+8+C.D.6.7.B C 8.E.9.9+8.E.9.0+a+8.9.0.a.H.I.b+c+:+d+e+f+g+h+i+j+k+l+@+      ",
"        w ..1 m+n+o+p+q+L r+o.+.E.8.9.~.s+E.8.9.t+8.E.8.9.u+v+w+x+y+d+z+A+B+C+D+E+F+G+H+@+      ",
"        w 1 5.I+J+K+L+M+N+O+P+8.8.9.L Q+R+S+8.9.T+8.9.E.8.5.U+V+W+<+z+A+X+Y+Z+`+ @.@+@@@@+      ",
"        w 1 #@$@%@&@*@=@-@;@8.E.9.U.>@*.,@%.8.9.E.8.9./+E.8.'@)@!@~@A+X+{@]@^@/@(@_@:@<@@+      ",
"        w 1 [@}@E.8.9.|@1@E.8.9.2@3@4@5@C D 8.9.8.E.9.6@7@L 8@9@0@a@X+{@]@b@c@d@e@f@g@h@@+      ",
"        w 1 i@E.8.E.8.9.j@8.E.9.k@l@m@+.@.#.E.8.9.9.n@n@o@>.p@q@r@s@{@]@b@t@u@v@w@x@y@z@@+      ",
"        w A@E.8.E.9.E.8.9.8.9.B@C@D@E@F@7.B C 8.9.G@9+P H@J I@J@K@L@]@b@t@u@M@N@O@P@Q@R@@+      ",
"        w 1 S@E.9.T@U@E.8.9.V@W@X@Y@Z@`@ #+.@.8.9.~..#+#=.-.@###$#%#b@t@u@M@&#N@*#=#-#;#@+      ",
"        w z A 9.>#,#'#)#8.9.!#~#{#]#^#/#P+6.7.B (#_#:#F G H <#[#i+}#t@u@M@&#N@|#1#2#3#4#@+      ",
"        w ..1 5#6#7#8#9#0#a#b#c#d#e#f#;@g#r+o.+.h#%.,@%.&.*.i#j#k#l#u@M@&#N@|#O@m#n#o#p#@+      ",
"        w 1 5.q#r#s#t#u#v#w#x#y#z#A#B#C#N+D#D.6.7.B C D E F E#F#G#H#M@&#N@|#O@m#I#J#K#L#@+      ",
"        w 1 M#N#O#P#Q#R#S#9#0#T#U#V#W#=@X#q+Y#n.o.+.@.#.$.%.Z#`# $.$&#N@|#O@m#I#+$J#@$#$@+      ",
"        w 1 $$%$&$*$=$-$t#;$>$,$'$)$!$~$L+{$8+C.D.6.7.B C D ]$^$/$($N@|#O@m#I#+$J#_$:$<$@+      ",
"        w 1 [$}$|$1$2$P#3$4$5$6$7$8$9$0$a$o+b$S.m.n.o.+.@.#.c$d$e$f$|#O@m#I#+$J#_$g$h$i$@+      ",
"        w 1 j$k$l$m$n$o$=$p$q$r$s$t$u$v$J+w$6+$+B.C.D.6.7.B x$y$z$A$O@m#I#+$J#_$g$h$B$C$@+      ",
"        w 1 D$E$F$}$G$H$A 1 5.I$J$K$L$$@A 1 5.]+R.S.m.n.A 1 M$N$O$P$m#I#+$J#_$g$h$B$Q$R$@+      ",
"        w 1 S$w A A A A w ..w A A A A A w ..w A A A A A w ..A T$U$V$I#+$J#_$g$h$B$Q$W$X$@+      ",
"        z 1 1 1 1 1 1 1 1 1 1 1 1 1 1 1 1 1 1 1 1 1 1 1 1 1 1 Y$Z$`$ %J#_$g$h$B$Q$W$.%+%@+      ",
"                          @%#%$%8@p@I@@#<#i#E#Z#]$c$x$M$%%&%*%=%-%;%>%_$g$h$B$Q$W$.%,%'%@+      ",
"                          )%!%)@9@q@J@##[#j#F#`#^$d$y$N$~%{%]%^%/%(%_%g$h$B$Q$W$.%,%:%<%@+      ",
"                          [%}%!@0@r@K@$#i+k#G# $/$e$z$O$|%1%2%3%4%5%6%h$B$Q$W$.%,%:%:%7%@+      ",
"                          8%9%~@a@s@L@%#}#l#H#.$($f$A$P$0%a%b%>%_%6%h$B$Q$W$.%,%:%:%:%7%@+      ",
"                          c%d%A+X+{@]@b@t@u@M@&#N@|#O@m#I#+$J#_$g$h$B$Q$W$.%,%:%:%:%:%7%@+      ",
"                          e%f%X+{@]@b@t@u@M@&#N@|#O@m#I#+$J#_$g$h$B$Q$W$.%,%:%:%:%:%:%7%@+      ",
"                          g%h%i%j%k%l%m%n%o%p%q%r%s%t%u%v%v%w%x%y%z%R$X$+%'%<%7%7%7%7%A%@+      ",
"                          B%@+@+@+@+@+@+@+@+@+@+@+@+@+@+@+@+@+@+@+@+@+@+@+@+@+@+@+@+@+@+@+      ",
"                                                                                                ",
"                                                                                                ",
"                                                                                                "};
