/* XPM */
static char * graph_xpm[] = {
"24 23 105 2",
"  	c None",
". 	c #005D4A",
"+ 	c #08755A",
"@ 	c #007152",
"# 	c #08715A",
"$ 	c #006D52",
"% 	c #086952",
"& 	c #00654A",
"* 	c #086552",
"= 	c #00614A",
"- 	c #085D4A",
"; 	c #FFFF00",
"> 	c #414000",
", 	c #004C39",
"' 	c #005041",
") 	c #004839",
"! 	c #004431",
"~ 	c #004031",
"{ 	c #003C31",
"] 	c #003429",
"^ 	c #003020",
"/ 	c #001410",
"( 	c #001C18",
"_ 	c #002018",
": 	c #087962",
"< 	c #00755A",
"[ 	c #C5C200",
"} 	c #002820",
"| 	c #084C39",
"1 	c #005541",
"2 	c #005941",
"3 	c #005039",
"4 	c #002420",
"5 	c #001810",
"6 	c #08896A",
"7 	c #08856A",
"8 	c #008162",
"9 	c #088162",
"0 	c #007D62",
"a 	c #003029",
"b 	c #085941",
"c 	c #085541",
"d 	c #006552",
"e 	c #088D6A",
"f 	c #002C20",
"g 	c #086D5A",
"h 	c #08614A",
"i 	c #10957B",
"j 	c #109173",
"k 	c #10896A",
"l 	c #005D41",
"m 	c #086D52",
"n 	c #002418",
"o 	c #107962",
"p 	c #838100",
"q 	c #107162",
"r 	c #106D5A",
"s 	c #10695A",
"t 	c #004439",
"u 	c #188973",
"v 	c #003829",
"w 	c #08795A",
"x 	c #106152",
"y 	c #082C20",
"z 	c #001818",
"A 	c #084031",
"B 	c #103831",
"C 	c #103C39",
"D 	c #10554A",
"E 	c #083831",
"F 	c #10594A",
"G 	c #08594A",
"H 	c #105041",
"I 	c #104C41",
"J 	c #208973",
"K 	c #29A58B",
"L 	c #187D62",
"M 	c #189173",
"N 	c #108D73",
"O 	c #006952",
"P 	c #18504A",
"Q 	c #207962",
"R 	c #29917B",
"S 	c #298D73",
"T 	c #298973",
"U 	c #187562",
"V 	c #104839",
"W 	c #186D5A",
"X 	c #187962",
"Y 	c #10715A",
"Z 	c #086152",
"` 	c #004C41",
" .	c #31B294",
"..	c #29AA8B",
"+.	c #20957B",
"@.	c #209D83",
"#.	c #189D7B",
"$.	c #18997B",
"%.	c #31957B",
"&.	c #20856A",
"*.	c #20816A",
"=.	c #39BA9C",
"-.	c #31B694",
";.	c #20A583",
">.	c #20A183",
"                                                ",
"          . . . . . . . . . . . . . .           ",
"        . + @ # $ % & * = - ; > , ' , .         ",
"      . . ) ) ! ~ { { ] ] ^ ; > / ( _ . .       ",
"    . . . : < + @ # $ % & [ ; > } | 1 . . .     ",
"  . . 2 1 3 ' ) ) ! ~ { { ; [ ; > _ 4 _ _ 5 .   ",
"  . 6 7 8 9 0 : < + @ # ; [ > ; > a 3 b 1 c .   ",
"  . d . . 2 1 3 ' ) ) [ ; > ( ; > / } } } _ .   ",
"  . e e 6 7 8 9 0 : < ; [ > f ; [ > ) . ; > .   ",
"  . g % * = h 2 1 3 [ ; > ( ( [ ; > 5 ; [ ; .   ",
"  . i i j j 6 k 9 ; ; > l { 2 m ; > n ; > [ .   ",
"  . o p q r s * ; [ > n } { t ! ; > [ ; > / .   ",
"  . [ ; > u j [ ; > v v & w < + ; > ; [ > f .   ",
"  . ; [ ; > x ; [ > y t c 3 ' ) [ ; > > z 5 .   ",
"  . [ > [ ; > ; > A A o 9 9 0 : < ; > a f c .   ",
"  . > B C [ ; > D E F * x G 1 3 ' ; > ( ] v .   ",
"  . H I J K ; > H L M M N k 9 9 0 : O ~ & # .   ",
"  . P Q R S T U V W X Y r * Z 2 1 3 ` ! t ! .   ",
"    . . .  ...K +.@.#.$.j j 6 6 8 9 0 . . .     ",
"      . . %.%.S T &.*.X U r % = - 2 1 . .       ",
"        . =.-. .....;.>.$.$.j N 6 7 8 .         ",
"          . . . . . . . . . . . . . .           ",
"                                                "};
