/* XPM */
static char * graph2_xpm[] = {
"48 52 350 2",
"  	c None",
". 	c #000000",
"+ 	c #E6E6E6",
"@ 	c #E7E7E7",
"# 	c #E8E8E8",
"$ 	c #E9E9E9",
"% 	c #EAEAEA",
"& 	c #EBEBEB",
"* 	c #ECECEC",
"= 	c #EDEDED",
"- 	c #EEEEEE",
"; 	c #EFEFEF",
"> 	c #F0F0F0",
", 	c #F1F1F1",
"' 	c #F2F2F2",
") 	c #F3F3F3",
"! 	c #DBDBDB",
"~ 	c #D6D6D6",
"{ 	c #D7D7D7",
"] 	c #D8D8D8",
"^ 	c #D9D9D9",
"/ 	c #DADADA",
"( 	c #F4F4F4",
"_ 	c #ADADAD",
": 	c #9EA8AC",
"< 	c #A0ADB2",
"[ 	c #9A9E9F",
"} 	c #999999",
"| 	c #AFAFAF",
"1 	c #F5F5F5",
"2 	c #AFD5E5",
"3 	c #B7E9FF",
"4 	c #B0B0B0",
"5 	c #F6F6F6",
"6 	c #AEAEAE",
"7 	c #A9C6D2",
"8 	c #F7F7F7",
"9 	c #9E9E9E",
"0 	c #AAAAAA",
"a 	c #DDDDDD",
"b 	c #DFDFDF",
"c 	c #F8F8F8",
"d 	c #DEDEDE",
"e 	c #E0E0E0",
"f 	c #F9F9F9",
"g 	c #B1B1B1",
"h 	c #E1E1E1",
"i 	c #FAFAFA",
"j 	c #FBFBFB",
"k 	c #ABABAB",
"l 	c #CFCFCF",
"m 	c #E2E2E2",
"n 	c #D0D0D0",
"o 	c #FCFCFC",
"p 	c #E3E3E3",
"q 	c #FDFDFD",
"r 	c #A4B7BF",
"s 	c #A8C1CC",
"t 	c #A4A4A4",
"u 	c #C7C7C7",
"v 	c #C8C8C8",
"w 	c #C9C9C9",
"x 	c #BDBDBD",
"y 	c #A5A5A5",
"z 	c #CACACA",
"A 	c #BEBEBE",
"B 	c #B2B2B2",
"C 	c #989898",
"D 	c #5B5B5B",
"E 	c #3D3D3D",
"F 	c #0B1C2E",
"G 	c #0F253D",
"H 	c #262626",
"I 	c #424242",
"J 	c #7B7B7B",
"K 	c #B9B9B9",
"L 	c #CBCBCB",
"M 	c #FEFEFE",
"N 	c #040A10",
"O 	c #1A426B",
"P 	c #2D71B8",
"Q 	c #388DE6",
"R 	c #3C97F6",
"S 	c #D66C48",
"T 	c #EF7040",
"U 	c #AF522F",
"V 	c #5F2D19",
"W 	c #1F1713",
"X 	c #5D5D5D",
"Y 	c #858585",
"Z 	c #E4E4E4",
"` 	c #FFFFFF",
" .	c #050B10",
"..	c #2C5A8A",
"+.	c #459CF6",
"@.	c #3D98F6",
"#.	c #578CD2",
"$.	c #EB6F3F",
"%.	c #FF7845",
"&.	c #9F4B2B",
"*.	c #19110D",
"=.	c #808080",
"-.	c #13202E",
";.	c #5193D8",
">.	c #54A3F7",
",.	c #4B9FF6",
"'.	c #429AF6",
").	c #7B7EA2",
"!.	c #F87543",
"~.	c #4F2515",
"{.	c #3F3F3F",
"].	c #CCCCCC",
"^.	c #070C10",
"/.	c #66A6E8",
"(.	c #63ACF8",
"_.	c #5AA7F7",
":.	c #51A2F7",
"<.	c #489DF6",
"[.	c #3F99F6",
"}.	c #A57474",
"|.	c #592A18",
"1.	c #7E7E7E",
"2.	c #4D739B",
"3.	c #73B4F8",
"4.	c #69AFF8",
"5.	c #60AAF7",
"6.	c #57A5F7",
"7.	c #4EA0F7",
"8.	c #459BF6",
"9.	c #3D97F6",
"0.	c #FB7644",
"a.	c #D87040",
"b.	c #B2864F",
"c.	c #8BA665",
"d.	c #0C1A10",
"e.	c #83BDF9",
"f.	c #79B7F9",
"g.	c #6FB2F8",
"h.	c #66ADF8",
"i.	c #5CA8F7",
"j.	c #53A3F7",
"k.	c #4A9EF6",
"l.	c #F27241",
"m.	c #E56C3E",
"n.	c #C27947",
"o.	c #98985C",
"p.	c #78BB73",
"q.	c #65D081",
"r.	c #3F8250",
"s.	c #6F6F6F",
"t.	c #89C0F9",
"u.	c #7FBBF9",
"v.	c #76B6F8",
"w.	c #6CB0F8",
"x.	c #63ABF8",
"y.	c #59A6F7",
"z.	c #50A1F7",
"A.	c #479DF6",
"B.	c #3F98F6",
"C.	c #877B97",
"D.	c #C56B3E",
"E.	c #A27D4B",
"F.	c #7E9F61",
"G.	c #66BE76",
"H.	c #5EC378",
"I.	c #90C3FA",
"J.	c #86BEF9",
"K.	c #7CB9F9",
"L.	c #72B4F8",
"M.	c #5FAAF7",
"N.	c #56A5F7",
"O.	c #4DA0F7",
"P.	c #4C99EE",
"Q.	c #748FCB",
"R.	c #959AC5",
"S.	c #8C9AB8",
"T.	c #7E95A9",
"U.	c #7990A6",
"V.	c #6D8E98",
"W.	c #66908C",
"X.	c #609583",
"Y.	c #5FA27E",
"Z.	c #59A775",
"`.	c #58B470",
" +	c #89BAED",
".+	c #8CC2F9",
"++	c #82BCF9",
"@+	c #65ADF8",
"#+	c #619AE3",
"$+	c #8B96C5",
"%+	c #A5A9CD",
"&+	c #A0A4CB",
"*+	c #989DC7",
"=+	c #9197C3",
"-+	c #8A90BF",
";+	c #848ABB",
">+	c #8187BA",
",+	c #797FAF",
"'+	c #6D9ED1",
")+	c #92C5FA",
"!+	c #7FBAF9",
"~+	c #75B5F8",
"{+	c #6DAEF4",
"]+	c #7998D3",
"^+	c #A4A8CD",
"/+	c #B2B5D5",
"(+	c #AAAED1",
"_+	c #A3A7CC",
":+	c #9CA0C9",
"<+	c #9499C5",
"[+	c #8D93C1",
"}+	c #878CBD",
"|+	c #6C729D",
"1+	c #3C6085",
"2+	c #7EADDC",
"3+	c #8FC3FA",
"4+	c #85BEF9",
"5+	c #7DAFED",
"6+	c #8D99C9",
"7+	c #BCBFDA",
"8+	c #BDC0DB",
"9+	c #B5B9D6",
"0+	c #AEB1D2",
"a+	c #A6AACE",
"b+	c #9FA3CA",
"c+	c #979CC6",
"d+	c #9096C2",
"e+	c #8A8FBF",
"f+	c #8389BB",
"g+	c #474B68",
"h+	c #4F4F4F",
"i+	c #13212F",
"j+	c #6495C6",
"k+	c #8AB4E1",
"l+	c #88A7DC",
"m+	c #A6ABCE",
"n+	c #CFD2E5",
"o+	c #C8CAE1",
"p+	c #C0C3DC",
"q+	c #B8BCD8",
"r+	c #B1B4D4",
"s+	c #A9ADD0",
"t+	c #A2A6CC",
"u+	c #9B9FC8",
"v+	c #9399C4",
"w+	c #8D92C0",
"x+	c #868CBC",
"y+	c #767CAB",
"z+	c #5A5F83",
"A+	c #262838",
"B+	c #9F9F9F",
"C+	c #B5B5B5",
"D+	c #2D4761",
"E+	c #78A2CD",
"F+	c #7B87A8",
"G+	c #BCBED1",
"H+	c #CED0E4",
"I+	c #CBCEE2",
"J+	c #C3C6DE",
"K+	c #B4B8D6",
"L+	c #ADB0D2",
"M+	c #A5A9CE",
"N+	c #9EA2CA",
"O+	c #9095C2",
"P+	c #898EBE",
"Q+	c #8388BB",
"R+	c #7E84B6",
"S+	c #6A6F99",
"T+	c #585D80",
"U+	c #1F1F1F",
"V+	c #DCDCDC",
"W+	c #7F7F7F",
"X+	c #3D5771",
"Y+	c #707D9F",
"Z+	c #8C8FA7",
"`+	c #8387A2",
" @	c #8C90AE",
".@	c #9B9FBF",
"+@	c #ADB1CE",
"@@	c #B7BBD8",
"#@	c #B0B4D4",
"$@	c #A8ACCF",
"%@	c #A1A5CB",
"&@	c #9A9FC7",
"*@	c #888DB7",
"=@	c #797EA8",
"-@	c #676C94",
";@	c #595E81",
">@	c #595E80",
",@	c #525778",
"'@	c #101118",
")@	c #D4D4D4",
"!@	c #A2A2A2",
"~@	c #575757",
"{@	c #23242D",
"]@	c #7D8095",
"^@	c #868AA3",
"/@	c #7E829D",
"(@	c #777B98",
"_@	c #717693",
":@	c #6C708F",
"<@	c #686C8C",
"[@	c #646989",
"}@	c #616687",
"|@	c #5F6385",
"1@	c #5D6184",
"2@	c #5B6082",
"3@	c #5A5F82",
"4@	c #424660",
"5@	c #151518",
"6@	c #C6C6C6",
"7@	c #A7A7A7",
"8@	c #9D9D9D",
"9@	c #131313",
"0@	c #09090B",
"a@	c #33343D",
"b@	c #63677D",
"c@	c #787C98",
"d@	c #747895",
"e@	c #6E7391",
"f@	c #696E8D",
"g@	c #666A8A",
"h@	c #626788",
"i@	c #606486",
"j@	c #5D6284",
"k@	c #5C6183",
"l@	c #444761",
"m@	c #161720",
"n@	c #D2D2D2",
"o@	c #A1A1A1",
"p@	c #4D4D4D",
"q@	c #0B0B10",
"r@	c #22242D",
"s@	c #383A49",
"t@	c #353747",
"u@	c #333545",
"v@	c #313444",
"w@	c #303243",
"x@	c #1D1F29",
"y@	c #050608",
"z@	c #BFBFBF",
"A@	c #BABABA",
"B@	c #A3A3A3",
"C@	c #A8A8A8",
"D@	c #0A0A0A",
"E@	c #A9A9A9",
"F@	c #CECECE",
"G@	c #616161",
"H@	c #1C1C1C",
"I@	c #333333",
"                                                                                                ",
"                                                                                                ",
"                                                                                                ",
"                                                                                                ",
"                                                                                                ",
"                    . . . . . . . . . . . . . . . . . . . . . . . . . . . . . . . . .           ",
"                    . + + @ @ @ # # $ $ $ % % % & & * * * = = = - - ; ; ; > > > , , .           ",
"                    . @ @ @ # # $ $ $ % % % & & * * * = = = - - ; ; ; > > > , , ' ' .           ",
"                    . @ # # $ $ $ % % % & & * * * = = = - - ; ; ; > > > , , ' ' ' ) .           ",
"                    . # $ $ $ % % % & & * * * = = = - - ; ; ; > > > , , ' ' ' ) ) ) .           ",
"                    . $ $ % ! ~ ~ { { { { ] ] ] ] ^ ^ ^ / / / / ! ! + ' ' ) ) ) ( ( .           ",
"                    . % % % _ : < : [ < < < < < } < < < < < : [ < < [ } } } | ( ( 1 .           ",
"                    . & & & _ 2 3 2 < 3 3 3 3 3 } 3 3 3 3 3 2 < 3 3 3 3 3 2 4 1 1 1 .           ",
"                    . & * * _ 2 3 2 < 3 3 3 3 3 } 3 3 3 3 3 2 < 3 3 3 3 3 2 4 1 5 5 .           ",
"                    . * * = 6 7 2 7 : 2 2 2 2 2 } 2 2 2 2 2 7 : 2 2 2 2 2 7 4 5 5 8 .           ",
"                    . = = - 6 : < : 9 6 | | | | } | | | | | 0 9 4 4 4 4 4 0 4 8 8 8 .           ",
"                    . - - - 6 2 3 2 | , , , ' ' } ) ) ) ( ( a 4 1 1 5 5 5 b 4 8 c c .           ",
"                    . - ; ; 6 2 3 2 | , ' ' ' ) } ) ( ( ( 1 d 4 5 5 5 8 8 e 4 c c f .           ",
"                    . ; > > 6 } } } } } } } } } } } } } } } } } } } } } } } g f f f .           ",
"                    . > > , | 2 3 2 | ) ) ) ( ( } 1 1 1 5 5 b 4 8 8 c c c h g f i i .           ",
"                    . , , , | 2 3 2 | ) ( ( ( 1 } 1 5 5 5 8 b 4 c c c f f h g i i j .           ",
"                    . , ' ' | : < : 9 | | 4 4 4 } 4 4 4 4 4 0 9 4 g g g g k g j j j .           ",
"                    . ' ) ) | 7 2 7 0 d d d d b } b e e e e l k h h h m m n g j o o .           ",
"                    . ) ) ( | 2 3 2 4 1 5 5 5 8 } 8 c c c f h g i i i j j p g o o q .           ",
"                    . ( ( ( 4 r s r t u u v v v } v v w w w x y w z z z z A B q q q .           ",
"                    . C D E . F G F . H I J K v } w w w w w x y z z z z L A B q M M .           ",
"                  . N O P Q R R R R S T U V W X Y f i i i j m g o o o q q Z B M M ` .           ",
"                 ...+.@.R R R R R #.$.%.%.%.%.&.*.=.w z z z A y z L L L L A B ` ` ` .           ",
"              -.;.>.,.'.R R R R R ).!.%.%.%.%.%.T ~.{.z z z L L L L L L ].].] ` ` ` .           ",
"            ^./.(._.:.<.[.R R R R }.%.%.%.%.%.%.%.%.|.1.o q q q M M M ` ` ` ` ` ` ` .           ",
"          . 2.3.4.5.6.7.8.9.R R R S %.%.%.%.0.$.a.b.c.d.a q M M M ` ` ` ` ` ` ` ` ` .           ",
"          . e.f.g.h.i.j.k.'.R R #.$.%.l.m.n.o.p.q.q.q.r.s.M M ` ` ` ` ` ` ` ` ` ` ` .           ",
"          . t.u.v.w.x.y.z.A.B.R C.D.E.F.G.q.q.q.q.q.q.H.{.` ` ` ` ` ` ` ` ` ` ` ` ` .           ",
"          . I.J.K.L.4.M.N.O.P.Q.R.S.T.U.V.W.W.X.Y.Y.Z.`.{.` ` ` ` ` ` ` ` ` ` ` ` ` .           ",
"          .  +.+++f.g.@+i.#+$+%+&+*+=+-+;+>+>+>+>+>+>+,+{.` ` ` ` ` ` ` ` ` ` ` ` ` .           ",
"          . '+)+t.!+~+{+]+^+/+(+_+:+<+[+}+>+>+>+>+>+>+|+{.` ` ` ` ` ` ` ` ` ` ` ` c .           ",
"          . 1+2+3+4+5+6+7+8+9+0+a+b+c+d+e+f+>+>+>+>+,+g+h+` ` ` ` ` ` ` ` ` ` ` ` ^ .           ",
"            i+j+k+l+m+n+o+p+q+r+s+t+u+v+w+x+>+>+>+y+z+A+B+` ` ` ` ` ` ` ` ` ` ` ` C+.           ",
"            . D+E+F+G+H+I+J+7+K+L+M+N+c+O+P+Q+R+S+T+g+U+` ` ` ` ` ` ` ` ` ` ` ` V+W+.           ",
"              . X+Y+Z+`+ @.@+@@@#@$@%@&@*@=@-@;@>@,@'@l ` ` ` ` ` ` ` ` ` ` i )@!@~@            ",
"                . {@]@^@/@(@_@:@<@[@}@|@1@2@3@;@4@5@B+` ` ` ` ` ` ` ` ` @ 6@4 7@8@9@            ",
"                    0@a@b@c@d@e@f@g@h@i@j@k@l@m@{.l ` ` ` ` ` ` ` ` ` ` n@B 0 o@p@.             ",
"                    . B+h+q@r@s@t@u@v@w@x@y@h+z@` ` ` ` ` ` ` ` ` ` ` ` A@0 B@1..               ",
"                    . ` ` ` z@B+W+W+W+B+z@` ` ` ` ` ` ` ` ` ` ` ` ` ` Z C@!@1.D@                ",
"                    . ` ` ` ` ` ` ` ` ` ` ` ` ` ` ` ` ` ` ` ` ` ` ` = E@9 ~@.                   ",
"                    . ` ` ` ` ` ` ` ` ` ` ` ` ` ` ` ` ` ` ` ` ` ' F@} G@H@.                     ",
"                    . {.{.{.{.{.{.{.{.{.{.{.{.{.{.{.{.{.{.{.{.I@H 9@. .                         ",
"                                                                                                ",
"                                                                                                ",
"                                                                                                ",
"                                                                                                ",
"                                                                                                "};
