/* XPM */
static char * help_xpm[] = {
"24 24 128 2",
"  	c None",
". 	c #FFFFFF",
"+ 	c #A2A2A2",
"@ 	c #4B5B69",
"# 	c #244058",
"$ 	c #153653",
"% 	c #183046",
"& 	c #182937",
"* 	c #1F2D39",
"= 	c #959595",
"- 	c #D8D9DA",
"; 	c #465663",
"> 	c #466888",
", 	c #385B7C",
"' 	c #555E66",
") 	c #505B64",
"! 	c #515960",
"~ 	c #253D51",
"{ 	c #245176",
"] 	c #1B4164",
"^ 	c #2F3B46",
"/ 	c #C3C4C5",
"( 	c #EFEFEF",
"_ 	c #516374",
": 	c #4B7FB0",
"< 	c #43505C",
"[ 	c #C3C3C3",
"} 	c #435462",
"| 	c #3374AC",
"1 	c #285984",
"2 	c #51595F",
"3 	c #F8F8F8",
"4 	c #9EA0A2",
"5 	c #5A83AA",
"6 	c #1F476D",
"7 	c #9EA1A4",
"8 	c #A1A6AA",
"9 	c #346C9C",
"0 	c #2B6FA5",
"a 	c #0F2B44",
"b 	c #CACACA",
"c 	c #62676C",
"d 	c #4087C7",
"e 	c #112C45",
"f 	c #DADADA",
"g 	c #44637E",
"h 	c #3175B4",
"i 	c #11304C",
"j 	c #5F656A",
"k 	c #3277B4",
"l 	c #2B608E",
"m 	c #3A4F63",
"n 	c #536270",
"o 	c #BABABA",
"p 	c #6F757B",
"q 	c #5A93C3",
"r 	c #2F75B0",
"s 	c #25394A",
"t 	c #C4C6C8",
"u 	c #254663",
"v 	c #25659A",
"w 	c #357AB5",
"x 	c #377BB6",
"y 	c #1B2D3C",
"z 	c #C0C1C2",
"A 	c #5A7893",
"B 	c #4285C3",
"C 	c #1E4C75",
"D 	c #707377",
"E 	c #C5C5C5",
"F 	c #0C1F30",
"G 	c #1A476C",
"H 	c #1B4A70",
"I 	c #646C74",
"J 	c #C7C7C7",
"K 	c #5E7991",
"L 	c #4B93D2",
"M 	c #215584",
"N 	c #485057",
"O 	c #F5F5F5",
"P 	c #838383",
"Q 	c #878787",
"R 	c #C8C8C8",
"S 	c #59748E",
"T 	c #4891D1",
"U 	c #205480",
"V 	c #485158",
"W 	c #CCCCCD",
"X 	c #66788C",
"Y 	c #4992D2",
"Z 	c #235A8A",
"` 	c #4F5A63",
" .	c #F0F0F0",
"..	c #F9F9F9",
"+.	c #676D74",
"@.	c #70A7D8",
"#.	c #3578AF",
"$.	c #1B3853",
"%.	c #BFBFBF",
"&.	c #D2D2D2",
"*.	c #4D6A83",
"=.	c #4791C9",
"-.	c #256392",
";.	c #485159",
">.	c #E5E5E5",
",.	c #415E75",
"'.	c #225988",
").	c #11324D",
"!.	c #828689",
"~.	c #E0E1E1",
"{.	c #4C5156",
"].	c #828588",
"^.	c #FDFDFD",
"/.	c #DBDBDB",
"(.	c #E8E8E8",
"_.	c #A0A3A6",
":.	c #214362",
"<.	c #3E4B55",
"[.	c #224A6C",
"}.	c #5B9EDA",
"|.	c #2A639A",
"1.	c #484E55",
"2.	c #81888D",
"3.	c #183E5C",
"4.	c #263A4A",
"5.	c #CBCCCD",
"6.	c #FBFBFB",
"7.	c #B6B6B6",
". . . . . . . . . . . . . . . . . . . . . . . . ",
". . . . . . . . . . . . . . . . . . . . . . . . ",
". . . . . . . . . . . . . . . . . . . . . . . . ",
". . . . . . . . . . . . . . . . . . . . . . . . ",
". . . . . . . . . + @ # $ % & * = . . . . . . . ",
". . . . . . . - ; > , ' ) ! ~ { ] ^ / . . . . . ",
". . . . . . ( _ : < [ . . . [ } | 1 2 3 . . . . ",
". . . . . . 4 5 6 7 . . . . . 8 9 0 a b . . . . ",
". . . . . . c d e f . . . . . f g h i b . . . . ",
". . . . . . j k l m n o . . . p q r s f . . . . ",
". . . . . . t u v w x y . . z A B C D . . . . . ",
". . . . . . . E F G H I . J K L M N O . . . . . ",
". . . . . . . . . P Q . R S T U V . . . . . . . ",
". . . . . . . . . . . W X Y Z `  .. . . . . . . ",
". . . . . . . . . . ..+.@.#.$.%.. . . . . . . . ",
". . . . . . . . . . &.*.=.-.;.. . . . . . . . . ",
". . . . . . . . . . >.,.'.).!.. . . . . . . . . ",
". . . . . . . . . . . ~.{.].... . . . . . . . . ",
". . . . . . . . . . . ^./.(.. . . . . . . . . . ",
". . . . . . . . . . . _.:.<.>.. . . . . . . . . ",
". . . . . . . . . . &.[.}.|.1.. . . . . . . . . ",
". . . . . . . . . . ..2.3.4.5.. . . . . . . . . ",
". . . . . . . . . . . 6.7.&.. . . . . . . . . . ",
". . . . . . . . . . . . . . . . . . . . . . . . "};
