/* XPM */
static char * home_xpm[] = {
"32 32 152 2",
"  	c None",
". 	c #000000",
"+ 	c #575757",
"@ 	c #585858",
"# 	c #303030",
"$ 	c #D1D1D1",
"% 	c #AAAAAA",
"& 	c #DCDCDC",
"* 	c #C8C8C8",
"= 	c #BFBFBF",
"- 	c #B3B3B3",
"; 	c #9E9E9E",
"> 	c #9A9A9A",
", 	c #939393",
"' 	c #424242",
") 	c #8D8D8D",
"! 	c #868686",
"~ 	c #7F7F7F",
"{ 	c #797979",
"] 	c #393939",
"^ 	c #7C7C7C",
"/ 	c #757575",
"( 	c #6F6F6F",
"_ 	c #727272",
": 	c #5F5F5F",
"< 	c #525252",
"[ 	c #6C6C6C",
"} 	c #656565",
"| 	c #ADADAD",
"1 	c #969696",
"2 	c #636363",
"3 	c #E0E0E0",
"4 	c #595959",
"5 	c #333333",
"6 	c #F0F0F0",
"7 	c #E1E1E1",
"8 	c #FFFFFF",
"9 	c #A1A1A1",
"0 	c #545454",
"a 	c #8F8F8F",
"b 	c #CBCBCB",
"c 	c #565656",
"d 	c #535353",
"e 	c #232323",
"f 	c #464646",
"g 	c #DADADA",
"h 	c #494949",
"i 	c #8C8C8C",
"j 	c #5B5B5B",
"k 	c #141414",
"l 	c #5A5A5A",
"m 	c #D2D2D2",
"n 	c #F1D8BA",
"o 	c #A8754F",
"p 	c #9B603E",
"q 	c #955733",
"r 	c #762F10",
"s 	c #501101",
"t 	c #F7E5D0",
"u 	c #E4E4E4",
"v 	c #CDCDCD",
"w 	c #717171",
"x 	c #B0B0B0",
"y 	c #AF917F",
"z 	c #EAD9CB",
"A 	c #E2C9B8",
"B 	c #CB9C7A",
"C 	c #7F310C",
"D 	c #4F0F01",
"E 	c #FAFAFA",
"F 	c #AFAFAF",
"G 	c #787878",
"H 	c #C29D82",
"I 	c #995F3C",
"J 	c #F2E6DE",
"K 	c #E7CFBE",
"L 	c #D8B99F",
"M 	c #CE905D",
"N 	c #B57349",
"O 	c #6D1E01",
"P 	c #93542F",
"Q 	c #EEDFD4",
"R 	c #EDD3BF",
"S 	c #E2B995",
"T 	c #D39C6C",
"U 	c #CE813C",
"V 	c #B25710",
"W 	c #842D02",
"X 	c #905E65",
"Y 	c #EBDCCF",
"Z 	c #E6C2A4",
"` 	c #D99F6D",
" .	c #D08137",
"..	c #C4650E",
"+.	c #B75706",
"@.	c #923802",
"#.	c #521001",
"$.	c #915F66",
"%.	c #E7D4C6",
"&.	c #E5BF9C",
"*.	c #D18C4E",
"=.	c #CD7019",
"-.	c #C6650B",
";.	c #BB5A07",
">.	c #9A3E05",
",.	c #E5CFBE",
"'.	c #E0B188",
").	c #D0894A",
"!.	c #824447",
"~.	c #E4D0C0",
"{.	c #DCA97B",
"].	c #CD731F",
"^.	c #CB6A0F",
"/.	c #C66409",
"(.	c #BC5B08",
"_.	c #9C4006",
":.	c #E1C9B7",
"<.	c #D39B6B",
"[.	c #CD721E",
"}.	c #CFAB94",
"|.	c #CF884B",
"1.	c #C96910",
"2.	c #C96609",
"3.	c #C66308",
"4.	c #692F32",
"5.	c #BC845F",
"6.	c #BD651E",
"7.	c #C36109",
"8.	c #C56308",
"9.	c #C26008",
"0.	c #BA5908",
"a.	c #9A3F06",
"b.	c #A65E33",
"c.	c #B1520A",
"d.	c #B95A08",
"e.	c #B05008",
"f.	c #933A06",
"g.	c #883B1C",
"h.	c #933A07",
"i.	c #923906",
"j.	c #7B2803",
"k.	c #838383",
"l.	c #999999",
"m.	c #B8B8B8",
"n.	c #34342C",
"o.	c #541301",
"p.	c #611801",
"q.	c #651901",
"r.	c #651A01",
"s.	c #601701",
"t.	c #531201",
"u.	c #ABABAB",
"                              . .                               ",
"                            . + + .                             ",
"            @ # .         . + $ % + .                           ",
"            @ # .       . + & * = % + .                         ",
"            @ # .     . + & * - ; > , ' .                       ",
"            @ # .   . + & * - , ) ! ~ { ' .                     ",
"            @ # . . + & * - ] ] ] ] ^ / ( ' .                   ",
"            @ # . + & * _ ] : : : : ] < [ } ' .                 ",
"            @ . + $ | _ ] : 1 1 1 1 : ] < } } ' .               ",
"            . + & | _ ] : 1 = = = = 1 : ] < } 2 ' .             ",
"          . + $ | _ ] : 1 = 3 3 3 3 = 1 : ] < : 4 5 .           ",
"        . + & | _ ] 4 1 = 3 6 6 6 6 7 = 1 : ] < @ 4 5 .         ",
"      . + $ | _ ] : 1 = 3 6 8 8 8 8 6 3 = 1 : ] < @ 4 5 .       ",
"    . + $ 9 _ ] 0 a = 3 6 8 8 8 8 8 8 6 3 = 1 0 5 < @ 4 5 .     ",
"  . + $ | _ 5 0 a = 3 6 8 8 8 8 8 8 8 8 6 3 b a 0 5 < c d 5 .   ",
". 5 = 9 _ e f _ - 3 6 8 8 8 8 8 8 8 8 8 8 6 g - _ f 5 h d d 5 . ",
"  . i j k . l 1 m 6 8 8 n o p q r s t 8 8 8 u v 1 l . k h 5 .   ",
"    . .   . w x 7 8 8 8 o y z A B C D E 8 8 u v F w .   . .     ",
"          . G F 7 8 8 H I J K L M N O H 8 8 u v F G .           ",
"          . G F 7 8 8 P Q R S T U V W D 8 8 u v F G .           ",
"          . G F 7 8 8 X Y Z `  ...+.@.#.8 8 u v F G .           ",
"          . G F 7 8 8 $.%.&.*.=.-.;.>.#.8 8 u v F G .           ",
"          . G F 7 8 8 X ,.'.).=.-.;.>.#.8 8 u v F G .           ",
"          . G F 7 8 8 !.~.{.].^./.(._.#.8 8 u v F G .           ",
"          . G F 7 8 8 !.:.<.[.^./.(._.#.8 8 u v F G .           ",
"          . G F 7 8 8 !.}.|.1.2.3.(._.#.8 8 u v F G .           ",
"          . G F 7 8 8 4.5.6.7.8.9.0.a.#.8 8 u v F G .           ",
"          . G F 7 8 8 4.b.c.d.(.d.e.f.#.8 8 u v F G .           ",
"          . G F 7 8 8 4.g.h.a._.a.i.j.#.8 8 u v F G .           ",
"          . l k.l.m.m.n.o.p.q.r.q.s.t.n.m.m.u.l.k.l .           ",
"            . . . . . . . . . . . . . . . . . . . . .           ",
"                                                                "};
