/* XPM */
static char * html_xpm[] = {
"23 24 370 2",
"  	c None",
". 	c #7E8EA8",
"+ 	c #465A7B",
"@ 	c #3D5C83",
"# 	c #4C6677",
"$ 	c #57665F",
"% 	c #3B6170",
"& 	c #57655E",
"* 	c #6F7884",
"= 	c #6D829D",
"- 	c #949A68",
"; 	c #93895F",
"> 	c #9E9378",
", 	c #ACA479",
"' 	c #9FAB6D",
") 	c #5483B2",
"! 	c #477192",
"~ 	c #3E5168",
"{ 	c #31424F",
"] 	c #535F6E",
"^ 	c #7E7B68",
"/ 	c #CDA75A",
"( 	c #E2BE66",
"_ 	c #DCC076",
": 	c #D9C073",
"< 	c #BCB788",
"[ 	c #91A2A1",
"} 	c #5386CA",
"| 	c #5082A8",
"1 	c #3667A3",
"2 	c #4D6171",
"3 	c #2F4D6B",
"4 	c #334D61",
"5 	c #4C6F95",
"6 	c #B6AB8A",
"7 	c #E3C681",
"8 	c #DFCD88",
"9 	c #DCD78B",
"0 	c #D6D082",
"a 	c #B8BB8A",
"b 	c #6F99B8",
"c 	c #7E9C8E",
"d 	c #A1B271",
"e 	c #5A7DA2",
"f 	c #345CA9",
"g 	c #2752A0",
"h 	c #234366",
"i 	c #223953",
"j 	c #3F6EA4",
"k 	c #82A5B6",
"l 	c #E1D1A3",
"m 	c #F5DDB9",
"n 	c #F3E0BD",
"o 	c #E6DFAF",
"p 	c #DBD093",
"q 	c #DCC387",
"r 	c #9DABA1",
"s 	c #81A195",
"t 	c #BCB166",
"u 	c #9BA366",
"v 	c #5B6D87",
"w 	c #2958A5",
"x 	c #204581",
"y 	c #1E3B66",
"z 	c #253945",
"A 	c #62799F",
"B 	c #5386B0",
"C 	c #ACC2BD",
"D 	c #EADFD1",
"E 	c #F6E5CD",
"F 	c #F6E1CF",
"G 	c #F3E4CC",
"H 	c #EADF9D",
"I 	c #DBCC85",
"J 	c #CFC280",
"K 	c #B3AB6E",
"L 	c #A9A755",
"M 	c #7F8D67",
"N 	c #456A96",
"O 	c #3461AE",
"P 	c #224E98",
"Q 	c #1E3D6E",
"R 	c #20364E",
"S 	c #565C60",
"T 	c #355C9E",
"U 	c #6AA2CC",
"V 	c #C6CDBE",
"W 	c #F8E5D7",
"X 	c #FDEFE5",
"Y 	c #FCF1E6",
"Z 	c #EEE2C5",
"` 	c #E2D195",
" .	c #DBD298",
"..	c #D0C378",
"+.	c #B8AE67",
"@.	c #AE975F",
"#.	c #7F8A6E",
"$.	c #4573A2",
"%.	c #3567B2",
"&.	c #2552A4",
"*.	c #1E4286",
"=.	c #1E395E",
"-.	c #233548",
";.	c #7E807D",
">.	c #657B9F",
",.	c #3769AE",
"'.	c #7CB5D0",
").	c #D9DCD0",
"!.	c #FEF2E9",
"~.	c #FEF6ED",
"{.	c #FDF3E9",
"].	c #F8E4C7",
"^.	c #E1D4A0",
"/.	c #E1CD8A",
"(.	c #CBBD76",
"_.	c #B9A262",
":.	c #7C7C74",
"<.	c #4677A9",
"[.	c #3B70B7",
"}.	c #3766B2",
"|.	c #2A56A9",
"1.	c #204489",
"2.	c #29343E",
"3.	c #5F605B",
"4.	c #32537D",
"5.	c #4B83BF",
"6.	c #82B2D2",
"7.	c #DAD7C3",
"8.	c #FBECE2",
"9.	c #FDF5EC",
"0.	c #FDF2E9",
"a.	c #F2DBB4",
"b.	c #E0C87F",
"c.	c #E6CE8C",
"d.	c #CAB469",
"e.	c #7F8773",
"f.	c #5081C3",
"g.	c #427AD2",
"h.	c #3F76C1",
"i.	c #3669B5",
"j.	c #2E5AAC",
"k.	c #23498C",
"l.	c #1F3F71",
"m.	c #303129",
"n.	c #3F4448",
"o.	c #2B578B",
"p.	c #508AC6",
"q.	c #74A9E1",
"r.	c #CAD3E1",
"s.	c #FBEEE5",
"t.	c #FCEDE2",
"u.	c #F6E1C7",
"v.	c #E8CF9D",
"w.	c #D4C28A",
"x.	c #CAB783",
"y.	c #9B9989",
"z.	c #598CC4",
"A.	c #528AD3",
"B.	c #4A82D5",
"C.	c #427ACB",
"D.	c #396DB5",
"E.	c #2F5EB1",
"F.	c #254D9E",
"G.	c #1F417A",
"H.	c #333121",
"I.	c #2D2C22",
"J.	c #305D9A",
"K.	c #548ECE",
"L.	c #6CA5DC",
"M.	c #9AC3E2",
"N.	c #DEDDD3",
"O.	c #F5E3C3",
"P.	c #E2CD9C",
"Q.	c #A4AB9F",
"R.	c #73A1B8",
"S.	c #9BA29F",
"T.	c #929C9C",
"U.	c #538FE0",
"V.	c #528CD3",
"W.	c #4883D3",
"X.	c #427ACC",
"Y.	c #386CB5",
"Z.	c #2F5DAF",
"`.	c #254C98",
" +	c #1E417B",
".+	c #2A353C",
"++	c #2F2D1C",
"@+	c #2F5C9A",
"#+	c #578AC4",
"$+	c #659BD7",
"%+	c #76ABE1",
"&+	c #8AB4D4",
"*+	c #D9D6B7",
"=+	c #CDBF85",
"-+	c #88A5A8",
";+	c #96B99D",
">+	c #79A8D0",
",+	c #719BC1",
"'+	c #518BD7",
")+	c #467ED7",
"!+	c #3F75C1",
"~+	c #3263B2",
"{+	c #2855A7",
"]+	c #204588",
"^+	c #1E3C67",
"/+	c #22344A",
"(+	c #292C32",
"_+	c #2C5794",
":+	c #5785BC",
"<+	c #6196D7",
"[+	c #6EA5E2",
"}+	c #6DA3DD",
"|+	c #77A5CC",
"1+	c #CACB8C",
"2+	c #B5C080",
"3+	c #7A9984",
"4+	c #578FD6",
"5+	c #548DD9",
"6+	c #4D86C4",
"7+	c #457CD2",
"8+	c #4279C6",
"9+	c #3A6FB9",
"0+	c #2E5DAF",
"a+	c #234B9F",
"b+	c #1E3E79",
"c+	c #1E3656",
"d+	c #252F44",
"e+	c #232B40",
"f+	c #2D5382",
"g+	c #497DBE",
"h+	c #5E94CF",
"i+	c #649BD7",
"j+	c #67A2DA",
"k+	c #66A2DC",
"l+	c #5895D0",
"m+	c #84A8AB",
"n+	c #9EAB7E",
"o+	c #708A9C",
"p+	c #6082A1",
"q+	c #62787F",
"r+	c #56798D",
"s+	c #3D6BAE",
"t+	c #3565AE",
"u+	c #2757A8",
"v+	c #224792",
"w+	c #1E3A68",
"x+	c #20344F",
"y+	c #242C3C",
"z+	c #343B43",
"A+	c #657B9E",
"B+	c #3665A2",
"C+	c #5186C3",
"D+	c #6399D7",
"E+	c #639CD7",
"F+	c #649FD9",
"G+	c #63A1DF",
"H+	c #629EDA",
"I+	c #5792C7",
"J+	c #819A98",
"K+	c #96946A",
"L+	c #A29854",
"M+	c #858A65",
"N+	c #61615F",
"O+	c #365286",
"P+	c #244A8C",
"Q+	c #234066",
"R+	c #203452",
"S+	c #252E44",
"T+	c #21293F",
"U+	c #484C59",
"V+	c #2D5A8D",
"W+	c #457AAD",
"X+	c #5D92CA",
"Y+	c #6099D6",
"Z+	c #619ED7",
"`+	c #5F9DD6",
" @	c #528ABF",
".@	c #918A69",
"+@	c #A29B56",
"@@	c #A19A53",
"#@	c #958354",
"$@	c #786946",
"%@	c #4D5045",
"&@	c #223D64",
"*@	c #203855",
"=@	c #23314A",
"-@	c #212B31",
";@	c #66686E",
">@	c #62789D",
",@	c #366292",
"'@	c #4D7FAE",
")@	c #5689B8",
"!@	c #5889C6",
"~@	c #598ACC",
"{@	c #578CD3",
"]@	c #4E80C2",
"^@	c #A99654",
"/@	c #988F54",
"(@	c #928352",
"_@	c #7A7149",
":@	c #686442",
"<@	c #5F583A",
"[@	c #303A42",
"}@	c #21324A",
"|@	c #242D40",
"1@	c #242828",
"2@	c #3D4643",
"3@	c #315788",
"4@	c #3A6A9A",
"5@	c #497AA7",
"6@	c #5081BA",
"7@	c #4C7CBD",
"8@	c #517CBC",
"9@	c #4A75B6",
"0@	c #918659",
"a@	c #909053",
"b@	c #7E7B4A",
"c@	c #6B6144",
"d@	c #4F5131",
"e@	c #4E4836",
"f@	c #353935",
"g@	c #222C34",
"h@	c #1F2838",
"i@	c #262E41",
"j@	c #284D7D",
"k@	c #356087",
"l@	c #426E9A",
"m@	c #4571A1",
"n@	c #4C75A5",
"o@	c #4973A6",
"p@	c #5F6E6E",
"q@	c #757151",
"r@	c #615F46",
"s@	c #574A39",
"t@	c #3F4737",
"u@	c #3F4739",
"v@	c #2F3128",
"w@	c #222A34",
"x@	c #20283E",
"y@	c #2F4E74",
"z@	c #2F5780",
"A@	c #39628B",
"B@	c #3E628A",
"C@	c #3F607F",
"D@	c #355176",
"E@	c #3D5046",
"F@	c #404737",
"G@	c #3B4435",
"H@	c #3D4437",
"I@	c #313826",
"J@	c #2E3231",
"K@	c #272E40",
"L@	c #2F4A74",
"M@	c #274466",
"N@	c #263A50",
"O@	c #2D4157",
"P@	c #324456",
"Q@	c #3C423B",
"R@	c #374532",
"S@	c #39382C",
"T@	c #2F302A",
"U@	c #293028",
"V@	c #393E4A",
"W@	c #2B303B",
"X@	c #394352",
"Y@	c #2A3445",
"Z@	c #2E3230",
"`@	c #323727",
" #	c #3D3C35",
".#	c #46484C",
"                                              ",
"              . + @ # $ % & *                 ",
"            = - ; > , ' ) ! ~ { ]             ",
"          ^ / ( _ : < [ } | 1 2 3 4           ",
"        5 6 7 8 9 0 a b c d e f g h i         ",
"      j k l m n o p q r s t u v w x y z       ",
"    A B C D E F G H I J K L M N O P Q R S     ",
"    T U V W X Y Z `  ...+.@.#.$.%.&.*.=.-.;.  ",
"  >.,.'.).!.~.{.].^./.(._.:.<.[.}.|.1.y 2.3.  ",
"  4.5.6.7.8.9.0.a.b.c.d.e.f.g.h.i.j.k.l.m.n.  ",
"  o.p.q.r.s.t.u.v.w.x.y.z.A.B.C.D.E.F.G.H.I.  ",
"  J.K.L.M.N.O.P.Q.R.S.T.U.V.W.X.Y.Z.`. +.+++  ",
"  @+#+$+%+&+*+=+-+;+>+,+U.'+)+!+~+{+]+^+/+(+  ",
"  _+:+<+[+}+|+1+2+3+4+5+6+7+8+9+0+a+b+c+d+e+  ",
"  f+g+h+i+j+k+l+m+n+o+p+q+r+s+t+u+v+w+x+y+z+  ",
"  A+B+C+D+E+F+G+H+I+J+K+L+M+N+O+P+Q+R+S+T+U+  ",
"    V+W+X+<+Y+Z+`+ @.@+@@@#@$@%@&@*@=@-@T+;@  ",
"    >@,@'@)@!@~@{@]@^@/@(@_@:@<@[@}@|@1@2@    ",
"      3@4@5@6@7@8@9@0@a@b@c@d@e@f@g@h@i@      ",
"        j@k@l@m@n@o@p@q@r@s@t@u@v@w@x@        ",
"          y@z@A@B@C@D@E@F@G@H@I@J@K@          ",
"            L@M@N@O@P@Q@R@S@T@U@V@            ",
"                W@X@Y@Z@`@ #.#                ",
"                                              "};
