/* XPM */
static char * ico_preview_xpm[] = {
"24 24 173 2",
"  	c None",
". 	c #343434",
"+ 	c #2D2D2D",
"@ 	c #292929",
"# 	c #262626",
"$ 	c #2E2E2E",
"% 	c #303030",
"& 	c #737373",
"* 	c #A1A1A1",
"= 	c #B4B4B4",
"- 	c #B2B2B2",
"; 	c #9D9D9D",
"> 	c #676767",
", 	c #202020",
"' 	c #1C1C1C",
") 	c #272727",
"! 	c #616161",
"~ 	c #CACACA",
"{ 	c #CFCFCF",
"] 	c #D0D0D0",
"^ 	c #CECECE",
"/ 	c #C9C9C9",
"( 	c #C1C1C1",
"_ 	c #A7A7A7",
": 	c #4C4C4C",
"< 	c #131313",
"[ 	c #222222",
"} 	c #757575",
"| 	c #D3D3D3",
"1 	c #DBDBDB",
"2 	c #E7E7E7",
"3 	c #EFEFEF",
"4 	c #F3F3F3",
"5 	c #F1F1F1",
"6 	c #E5E5E5",
"7 	c #D2D2D2",
"8 	c #BCBCBC",
"9 	c #5E5E5E",
"0 	c #101010",
"a 	c #212121",
"b 	c #5B5B5B",
"c 	c #CCCCCC",
"d 	c #D7D7D7",
"e 	c #F5F5F5",
"f 	c #FAFAFA",
"g 	c #FBFBFB",
"h 	c #F8F8F8",
"i 	c #F0F0F0",
"j 	c #E1E1E1",
"k 	c #C2C2C2",
"l 	c #434343",
"m 	c #0F0F0F",
"n 	c #1F1F1F",
"o 	c #B9B9B9",
"p 	c #D6D6D6",
"q 	c #F9F9F9",
"r 	c #FDFDFD",
"s 	c #FCFCFC",
"t 	c #F2F2F2",
"u 	c #ECECEC",
"v 	c #E4E4E4",
"w 	c #ABABAB",
"x 	c #0E0E0E",
"y 	c #121212",
"z 	c #444444",
"A 	c #838383",
"B 	c #8D8D8D",
"C 	c #999999",
"D 	c #9C9C9C",
"E 	c #CDCDCD",
"F 	c #FEFEFE",
"G 	c #EEEEEE",
"H 	c #E6E6E6",
"I 	c #575757",
"J 	c #090909",
"K 	c #111111",
"L 	c #A8A8A8",
"M 	c #D8D8D8",
"N 	c #EBEBEB",
"O 	c #BEBEBE",
"P 	c #B6B6B6",
"Q 	c #F4F4F4",
"R 	c #DCDCDC",
"S 	c #9B9B9B",
"T 	c #060606",
"U 	c #000000",
"V 	c #141414",
"W 	c #C5C5C5",
"X 	c #DFDFDF",
"Y 	c #E3E3E3",
"Z 	c #EAEAEA",
"` 	c #EDEDED",
" .	c #9E9E9E",
"..	c #F7F7F7",
"+.	c #BFBFBF",
"@.	c #DEDEDE",
"#.	c #D5D5D5",
"$.	c #E0E0E0",
"%.	c #BABABA",
"&.	c #050505",
"*.	c #2B2B2B",
"=.	c #A4A4A3",
"-.	c #D4D4D4",
";.	c #F6F6F6",
">.	c #989898",
",.	c #D1D1D1",
"'.	c #939393",
").	c #020202",
"!.	c #E4E4E3",
"~.	c #CBCBCB",
"{.	c #E8E8E8",
"].	c #DDDDDD",
"^.	c #B1B1B1",
"/.	c #0A0A0A",
"(.	c #D9D9D9",
"_.	c #8F8F8F",
":.	c #909090",
"<.	c #8E8E8E",
"[.	c #8B8B8B",
"}.	c #B0B0B0",
"|.	c #3E3E3E",
"1.	c #3A3A3A",
"2.	c #CFCFCE",
"3.	c #D0D0CF",
"4.	c #BCBCBB",
"5.	c #AAAAAA",
"6.	c #A4A4A1",
"7.	c #828282",
"8.	c #C3C3C3",
"9.	c #BDBDBD",
"0.	c #F9F9F8",
"a.	c #BDBDBC",
"b.	c #080808",
"c.	c #4F4F4F",
"d.	c #BFBEBE",
"e.	c #C3C3C2",
"f.	c #C0C0C0",
"g.	c #C1C1C0",
"h.	c #BCBBBB",
"i.	c #B3B3B2",
"j.	c #A5A4A1",
"k.	c #797979",
"l.	c #454545",
"m.	c #CCCCCB",
"n.	c #30302F",
"o.	c #959594",
"p.	c #B6B6B5",
"q.	c #B8B7B7",
"r.	c #B6B5B5",
"s.	c #989694",
"t.	c #5A5A5A",
"u.	c #282828",
"v.	c #F8F8F7",
"w.	c #E6E6E5",
"x.	c #C7C7C6",
"y.	c #383838",
"z.	c #030303",
"A.	c #3F3F3E",
"B.	c #767575",
"C.	c #949493",
"D.	c #949392",
"E.	c #6F6F6E",
"F.	c #313130",
"G.	c #F7F7F6",
"H.	c #E5E4E4",
"I.	c #C7C6C6",
"J.	c #9C9C9B",
"K.	c #505050",
"L.	c #171717",
"M.	c #A6A6A6",
"N.	c #686868",
"O.	c #BBBBBB",
"P.	c #A0A0A0",
"              . + @ # # #                       ",
"          $ % & * = - ; > , '                   ",
"        ) ! = ~ { ] ^ / ( _ : <                 ",
"      [ } ~ | 1 2 3 4 5 6 7 8 9 0               ",
"    a b c d 6 e f g f h e i j k l m             ",
"    n o p 2 q g r r s g h t u v w x             ",
"  y z A B C D E r F r s q e G H 1 I J           ",
"  K L M G 4 N O P s r g h Q G H R S T           ",
"U V W X 3 e Y Z `  .q f ..t ` 6 1 +.T           ",
"U K W Y N 5 @.` Q #.D Q Q i Z $.d %.&.          ",
"U *.=.$.6 N -.u ;.Z c >.u u v 1 ,.'.).          ",
"U ! 9 d X !.~.{.3 N ].c w j 1 -.~ : U           ",
"U ^./.- #.(.( _.:.:.:.<.[.}.7 ~.* ).            ",
"U R |.1./ 2.3.2.c k 4.5.6.7.8.9.$ U             ",
"U 0.a.b.c.d.e.e.f.g.h.i.j.k.}.l.U               ",
"U h m.* T n.o.p.q.r.}.w s.t.u.U U U             ",
"U v.w.x.p.y.z.A.B.C.D.E.F.U U   U U U U         ",
"U G.!.H.Y I.J.K.' z.z.L.U         , , U U       ",
"U r {.H H H H ~ ~ ~ / M.U         U N.. U U     ",
"U r 2 2 H H H 6 6 v v 9.U           U k.1.U U   ",
"U r H 6 6 6 v v Y Y Y O.U             U N.n U   ",
"U k 9.9.9.8 8 O.O.O.O.P.U               U U     ",
"  U U U U U U U U U U U                         ",
"                                                "};
