/* XPM */
static char * ico_header_xpm[] = {
"16 16 39 1",
" 	c None",
".	c #000000",
"+	c #BFBFBF",
"@	c #F5F5F5",
"#	c #F6F6F6",
"$	c #F7F7F7",
"%	c #F8F8F8",
"&	c #F9F9F9",
"*	c #B9B9B9",
"=	c #E1E1E1",
"-	c #E2E2E2",
";	c #E3E3E3",
">	c #E4E4E4",
",	c #E5E5E5",
"'	c #E7E7E7",
")	c #E8E8E8",
"!	c #E9E9E9",
"~	c #EAEAEA",
"{	c #EBEBEB",
"]	c #EDEDED",
"^	c #EEEEEE",
"/	c #EFEFEF",
"(	c #314E6C",
"_	c #F0F0F0",
":	c #F1F1F1",
"<	c #F3F3F3",
"[	c #F4F4F4",
"}	c #777777",
"|	c #787878",
"1	c #797979",
"2	c #7A7A7A",
"3	c #7B7B7B",
"4	c #7C7C7C",
"5	c #7D7D7D",
"6	c #FAFAFA",
"7	c #FBFBFB",
"8	c #FCFCFC",
"9	c #BEBEBE",
"0	c #C1C1C1",
" .............  ",
" +@@####$$%%&&* ",
".@=-;>,')!~{]^/.",
".@-((((((((((/_.",
".#;((((((((((_:.",
".#>,')!~{]^/_:<.",
".#,')!~{]^/_:<[.",
".#'}}||122334[@.",
".#')!~{]^/_:<[@.",
".$)}||1223345@#.",
".$!~{]^/_:<[@#$.",
".%~|12233<[@#$&.",
".&]^/_:<[@#$&67.",
".&^/_:<[@#$&678.",
".9/_:<[@#$&6780.",
"  ............  "};
