/* XPM */
static char * ico_add_xpm[] = {
"13 13 8 1",
" 	c None",
".	c #B0B0B0",
"+	c #949494",
"@	c #FFFFFF",
"#	c #DADADA",
"$	c #9E9E9E",
"%	c #E1E1E1",
"&	c #343434",
"    ....+    ",
"    .@#$+    ",
"    .@#$+    ",
"    .@#$+    ",
".....@#$+....",
".@@@@@##%@@%&",
".@#########$&",
".%$$$##$$$$$&",
".&&&&@#$&&&&&",
"    .@#$&    ",
"    .@#$&    ",
"    .%$$&    ",
"    ++&&&    "};
