/* XPM */
static char * ico_dia_xpm[] = {
"15 12 39 1",
" 	c None",
".	c #D65600",
"+	c #FC6500",
"@	c #F86300",
"#	c #F36100",
"$	c #CF5300",
"%	c #FF6600",
"&	c #D75600",
"*	c #BA4A00",
"=	c #F96400",
"-	c #F66200",
";	c #DB5800",
">	c #D45500",
",	c #B64900",
"'	c #A64200",
")	c #D15400",
"!	c #000000",
"~	c #F46200",
"{	c #BD4B00",
"]	c #AB4400",
"^	c #F56200",
"/	c #CE5300",
"(	c #F76300",
"_	c #CB5100",
":	c #FB6400",
"<	c #FD6500",
"[	c #E55C00",
"}	c #E85D00",
"|	c #EE5F00",
"1	c #F26100",
"2	c #F06000",
"3	c #C95000",
"4	c #BB4B00",
"5	c #BE4C00",
"6	c #C54F00",
"7	c #C95100",
"8	c #C75000",
"9	c #C14D00",
"0	c #BA4B00",
"               ",
"      .        ",
"     ++        ",
"     @#$       ",
"    %&*%       ",
"    =  -;      ",
"   >,  ')  !!  ",
"!!!!!!!!!!!! ! ",
"  ~{    ]^ !!  ",
" /(      #_    ",
" :<[}|1#2+<    ",
"  345637890    "};
