/* XPM */
static char * ico_hand_xpm[] = {
"18 23 215 2",
"  	c None",
". 	c #080000",
"+ 	c #201915",
"@ 	c #E6DCD1",
"# 	c #EDEAE8",
"$ 	c #514841",
"% 	c #0B0908",
"& 	c #E2D9CE",
"* 	c #EAE8E4",
"= 	c #655C54",
"- 	c #E7E0DA",
"; 	c #E2D5C7",
"> 	c #6C6153",
", 	c #E3DDD7",
"' 	c #ECE8E4",
") 	c #564E48",
"! 	c #010000",
"~ 	c #E8E0D8",
"{ 	c #DBCEC0",
"] 	c #64574E",
"^ 	c #E3DACE",
"/ 	c #DECEBC",
"( 	c #706356",
"_ 	c #E6E1DB",
": 	c #E4DACE",
"< 	c #453E34",
"[ 	c #EAE2D8",
"} 	c #D5C1AC",
"| 	c #615548",
"1 	c #E4D9CD",
"2 	c #DECDBA",
"3 	c #716254",
"4 	c #E5DED6",
"5 	c #DFD1C0",
"6 	c #5A544E",
"7 	c #ECEAE8",
"8 	c #C3BAB2",
"9 	c #030000",
"0 	c #D3BFAB",
"a 	c #5E5145",
"b 	c #E2D6CA",
"c 	c #DDCBB7",
"d 	c #6D6051",
"e 	c #E4DCD5",
"f 	c #DECFBF",
"g 	c #6F675E",
"h 	c #E8E3DF",
"i 	c #CEC1B2",
"j 	c #E9E0D6",
"k 	c #D6C6B4",
"l 	c #817264",
"m 	c #E0D4C7",
"n 	c #D9C9B7",
"o 	c #6D6053",
"p 	c #E2DAD2",
"q 	c #DCCDBE",
"r 	c #7D736A",
"s 	c #E4DCD2",
"t 	c #BEB09E",
"u 	c #E2D7CA",
"v 	c #CCBEB0",
"w 	c #998D83",
"x 	c #9A9085",
"y 	c #A1978C",
"z 	c #877C73",
"A 	c #BCAEA1",
"B 	c #D7C7B8",
"C 	c #94897D",
"D 	c #E5DDD3",
"E 	c #C1B2A0",
"F 	c #020000",
"G 	c #E6DDD2",
"H 	c #ECE7E1",
"I 	c #F0ECE7",
"J 	c #F2EFEC",
"K 	c #F1EEED",
"L 	c #EEECE9",
"M 	c #DED8D2",
"N 	c #C2B6AA",
"O 	c #91897E",
"P 	c #E1D8CC",
"Q 	c #BFB19E",
"R 	c #E8E5E2",
"S 	c #EAE6E2",
"T 	c #5F5852",
"U 	c #CCBCAC",
"V 	c #E1D1C0",
"W 	c #EAE0D2",
"X 	c #EDE5DD",
"Y 	c #F1ECE8",
"Z 	c #F4F1EE",
"` 	c #F0EDEB",
" .	c #E9E3DE",
"..	c #D0C1B4",
"+.	c #D2C1B0",
"@.	c #B7A895",
"#.	c #E2DFDB",
"$.	c #EFECE9",
"%.	c #EBE8E5",
"&.	c #CCC0B1",
"*.	c #736250",
"=.	c #C2AE97",
"-.	c #DFD2C0",
";.	c #ECE6E0",
">.	c #F0EDEA",
",.	c #F3F0EE",
"'.	c #F1EEEA",
").	c #EBE4DD",
"!.	c #DED1C1",
"~.	c #B4A390",
"{.	c #090606",
"].	c #ABA5A0",
"^.	c #E9E2DB",
"/.	c #EBE6E0",
"(.	c #CFC0B0",
"_.	c #7B6856",
":.	c #928273",
"<.	c #D6CABE",
"[.	c #EFEBE8",
"}.	c #F4F1EF",
"|.	c #F0EEEB",
"1.	c #EADFD4",
"2.	c #DFD0BE",
"3.	c #AFA08C",
"4.	c #2E2B29",
"5.	c #E0D8CF",
"6.	c #E8E0D7",
"7.	c #EAE5E2",
"8.	c #D1C2B1",
"9.	c #BFAB94",
"0.	c #C4B4A4",
"a.	c #DED5CC",
"b.	c #EEE9E4",
"c.	c #F0EEEA",
"d.	c #E6DACA",
"e.	c #D6C6B3",
"f.	c #918372",
"g.	c #060000",
"h.	c #000000",
"i.	c #544E49",
"j.	c #DFD6CA",
"k.	c #EBE3DA",
"l.	c #EAE4DF",
"m.	c #DCCEC0",
"n.	c #D6C7B6",
"o.	c #E1D6CA",
"p.	c #EBE3DC",
"q.	c #ECE8E3",
"r.	c #E8DCCF",
"s.	c #DACCBC",
"t.	c #C1B19E",
"u.	c #756858",
"v.	c #6B6259",
"w.	c #E3D6C8",
"x.	c #E9E0D5",
"y.	c #EAE0D3",
"z.	c #E9DFD3",
"A.	c #E5D8C7",
"B.	c #E6DACB",
"C.	c #E6DBCE",
"D.	c #DDD0C0",
"E.	c #CBBAA8",
"F.	c #AA9886",
"G.	c #55453A",
"H.	c #695D52",
"I.	c #E0D0BF",
"J.	c #E6D9C8",
"K.	c #E8DBCA",
"L.	c #E8DBCB",
"M.	c #E8DACA",
"N.	c #E4D7C7",
"O.	c #CBBBA8",
"P.	c #A69684",
"Q.	c #6C5E50",
"R.	c #120B09",
"S.	c #1F1915",
"T.	c #D0BDA8",
"U.	c #DDCCB8",
"V.	c #D8C9B6",
"W.	c #CDBEAE",
"X.	c #C3B5A4",
"Y.	c #B7A593",
"Z.	c #9C8B75",
"`.	c #5C4D3F",
" +	c #120C09",
".+	c #4D453F",
"++	c #73665D",
"@+	c #81766B",
"#+	c #867B6F",
"$+	c #867A6D",
"%+	c #84776A",
"&+	c #7B6E63",
"*+	c #221A15",
"=+	c #70645C",
"-+	c #7B6E65",
";+	c #342B27",
">+	c #EAEAEA",
",+	c #F2F2F2",
"'+	c #EBEBEB",
")+	c #E2E2E2",
"!+	c #E4E4E4",
"~+	c #DEDEDE",
"{+	c #D8D8D8",
"]+	c #DBDBDB",
"^+	c #D6D6D6",
"/+	c #D5D5D5",
"(+	c #E3E3E3",
"_+	c #E0E0E0",
":+	c #D9D9D9",
"<+	c #D3D3D3",
"[+	c #CBCBCB",
"}+	c #C0C0C0",
"|+	c #B6B6B6",
"1+	c #B5B5B5",
"2+	c #A9A9A9",
"                . . +               ",
"          . . . @ # $ . . %         ",
"        . & * = - ; > , ' ) !       ",
"        . ~ { ] ^ / ( _ : < . .     ",
"        . [ } | 1 2 3 4 5 6 7 8 9   ",
"        . [ 0 a b c d e f g h i .   ",
"        . j k l m n o p q r s t .   ",
"        . u v w x y z A B C D E .   ",
"  . . F . G H I J K L M N O P Q .   ",
". R S T . U V W X Y Z `  ...+.@..   ",
". #.$.%.&.*.=.-.[ ;.>.,.'.).!.~..   ",
"{.].^./.S (._.:.<.).[.}.|.1.2.3..   ",
"  4.5.6.).7.8.9.0.a.b.c.;.d.e.f.g.  ",
"  h.i.j.j k.l.m.n.o.p.q.r.s.t.u.h.  ",
"    9 v.w.x.y.z.A.B.j C.D.E.F.G.9   ",
"      ! H.I.J.K.L.M.N.s.O.P.Q.R.    ",
"        ! S.T.U.V.W.X.Y.Z.`. +      ",
"          h..+++@+#+$+%+&+*+h.      ",
"        h.. =+h.h.h.h.h.h.-+;+h.    ",
"        . >+,+'+)+!+~+{+{+]+^+.     ",
"        . /+(+_+:+<+[+}+|+1+2+.     ",
"        . . . . . . . . . . . .     ",
"                                    "};
