/* XPM */
static char * ico_vspace_xpm[] = {
"24 24 56 1",
" 	c None",
".	c #000000",
"+	c #E2E2E2",
"@	c #F2F2F2",
"#	c #F3F3F3",
"$	c #F4F4F4",
"%	c #F5F5F5",
"&	c #F6F6F6",
"*	c #F7F7F7",
"=	c #DBDBDB",
"-	c #F0F0F0",
";	c #E0E0E0",
">	c #E1E1E1",
",	c #E3E3E3",
"'	c #E4E4E4",
")	c #E5E5E5",
"!	c #E6E6E6",
"~	c #E7E7E7",
"{	c #E8E8E8",
"]	c #E9E9E9",
"^	c #EAEAEA",
"/	c #EBEBEB",
"(	c #ECECEC",
"_	c #EDEDED",
":	c #EEEEEE",
"<	c #EFEFEF",
"[	c #797979",
"}	c #7A7A7A",
"|	c #7B7B7B",
"1	c #7C7C7C",
"2	c #7D7D7D",
"3	c #7E7E7E",
"4	c #7F7F7F",
"5	c #808080",
"6	c #818181",
"7	c #F1F1F1",
"8	c #828282",
"9	c #494066",
"0	c #838383",
"a	c #848484",
"b	c #F8F8F8",
"c	c #858585",
"d	c #868686",
"e	c #F9F9F9",
"f	c #FAFAFA",
"g	c #878787",
"h	c #FBFBFB",
"i	c #FCFCFC",
"j	c #FDFDFD",
"k	c #888888",
"l	c #FEFEFE",
"m	c #FFFFFF",
"n	c #898989",
"o	c #8A8A8A",
"p	c #C9C9C9",
"q	c #BDBDBD",
" ....................   ",
".+@@@@###$$$%%%&&**$=.  ",
".-;;>+,')!~{{]^/(_:<_.  ",
".@>[}}||12233344556-7.  ",
".@+,,')!~{]^/((_:<-7@.  ",
".#,|||1223344555668@#.  ",
".#')!~~{]^/(_:<<-7@#$.  ",
".#)99999^/455668880$%.  ",
".$!~999^/(_:<-7@##$%&.  ",
".$~{]9/((5566880aaa&*.  ",
".%{]^/(_::<-7@#$%&**b.  ",
".%]^/9_:<66880aaccdbe.  ",
".%^/999<-7@@#$%&*beff.  ",
".&/999997@0aaaccddghi.  ",
".*__:<-7@#$%%&*befhij.  ",
".*:666880aacccddggkjl.  ",
".b-7@@#$%&*befhhijlmm.  ",
".b780aaaccddggkkknomm.  ",
".@@#$%&&*befhijlmmmm(.  ",
".p_b%&*bbefhijlmmmm:q.  ",
" ....................   ",
"                        ",
"                        ",
"                        "};
