/* XPM */
static char * ico_barcode_xpm[] = {
"20 19 62 1",
" 	c None",
".	c #B9B9B9",
"+	c #000000",
"@	c #2E2E2E",
"#	c #5D5D5D",
"$	c #8B8B8B",
"%	c #D1D1D1",
"&	c #CFCFCF",
"*	c #D8D8D8",
"=	c #CBCBCB",
"-	c #DADADA",
";	c #757575",
">	c #888888",
",	c #9F9F9F",
"'	c #767676",
")	c #5F5F5F",
"!	c #E9E9E9",
"~	c #6C6C6C",
"{	c #585858",
"]	c #A9A9A9",
"^	c #2F2F2F",
"/	c #EAEAEA",
"(	c #646464",
"_	c #8C8C8C",
":	c #747474",
"<	c #BFBFBF",
"[	c #989898",
"}	c #D4D4D4",
"|	c #797979",
"1	c #686868",
"2	c #464646",
"3	c #8D8D8D",
"4	c #CACACA",
"5	c #E8E8E8",
"6	c #565656",
"7	c #3B3B3B",
"8	c #363636",
"9	c #E1E1E1",
"0	c #C4C4C4",
"a	c #626262",
"b	c #A0A0A0",
"c	c #7A7A7A",
"d	c #D3D3D3",
"e	c #CCCCCC",
"f	c #4B4B4B",
"g	c #484848",
"h	c #1A1A1A",
"i	c #636363",
"j	c #9B9B9B",
"k	c #D6D6D6",
"l	c #707070",
"m	c #909090",
"n	c #7B7B7B",
"o	c #A5A5A5",
"p	c #676767",
"q	c #C6C6C6",
"r	c #787878",
"s	c #A3A3A3",
"t	c #EBEBEB",
"u	c #B7B7B7",
"v	c #C3C3C3",
"w	c #CECECE",
".++@  @+ +  #++$ %+#",
".++@  @+ +  #++$ %+#",
".++@  @+ +  #++$ %+#",
".++@  @+ +  #++$ %+#",
".++@  @+ +  #++$ %+#",
".++@  @+ +  #++$ %+#",
".++@  @+ +  #++$ %+#",
".++@  @+ +  #++$ %+#",
".++@  @+ +  #++$ %+#",
".++@  @+ +  #++$ %+#",
".++@  @+ +  #++$ %+#",
".++@  @+ +  #++$ %+#",
" &&*  *&          =&",
"-;> ,') !~{]  ^/ (_-",
" %:   $.<[}| 12 345 ",
" %:   6  789$0# #|ab",
" %:  |  cdef8ghi~  #",
" j6kl1m >nop  #5qr3s",
"tuu%%uu  ev   %  dw "};
