/* XPM */
static char * ico_output_xpm[] = {
"14 14 57 1",
" 	c None",
".	c #D0D0DF",
"+	c #9C9CB6",
"@	c #FFFFFF",
"#	c #F9F9FE",
"$	c #F5F5FC",
"%	c #E9E9F2",
"&	c #EBEBF4",
"*	c #FCFCFF",
"=	c #F8F8FE",
"-	c #ECECF4",
";	c #D3D3E1",
">	c #BABACC",
",	c #B7B7CC",
"'	c #B5B5CB",
")	c #EFEFF6",
"!	c #FDFDFF",
"~	c #F1F1F8",
"{	c #E6E6F0",
"]	c #D7D7E5",
"^	c #C9C9DA",
"/	c #B9B9CC",
"(	c #B0B0C7",
"_	c #ADADC4",
":	c #9E9EB9",
"<	c #9696B1",
"[	c #CCCCDB",
"}	c #F3F3F9",
"|	c #D5D5E4",
"1	c #D2D2E0",
"2	c #B2B2C9",
"3	c #A8A8C0",
"4	c #A3A3BC",
"5	c #A0A0BA",
"6	c #9F9FBA",
"7	c #D8D8E6",
"8	c #FEFEFF",
"9	c #F6F6FD",
"0	c #EEEEF5",
"a	c #E5E5EF",
"b	c #E0E0EC",
"c	c #DEDEEB",
"d	c #DCDCE9",
"e	c #AFAFC5",
"f	c #AAAAC2",
"g	c #A9A9C1",
"h	c #A7A7BF",
"i	c #A4A4BD",
"j	c #F4F4FA",
"k	c #EAEAF3",
"l	c #E4E4EE",
"m	c #F2F2F9",
"n	c #F0F0F7",
"o	c #AEAEC5",
"p	c #ABABC3",
"q	c #E1E1ED",
"r	c #E7E7F0",
" ........+    ",
" .@@@#$%&.+   ",
" .@@@*=-&.;+  ",
" .@>>,')&++++ ",
" .@@@!#~&{]^+ ",
" .@>>/,(_:<[+ ",
" .@@@@*}&|1.+ ",
" .@>/'234567+ ",
" .@8!90{abcd+ ",
" .@>'e_fghib+ ",
" .@!j~)&k{lb+ ",
" .@}mnopk{aq+ ",
" .*}}~)&kraq+ ",
" ++++++++++++ "};
