/* XPM */
static char * ico_reload_xpm[] = {
"18 18 169 2",
"  	c None",
". 	c #6C6C6C",
"+ 	c #3E3E3E",
"@ 	c #4C4C4C",
"# 	c #A6A6A6",
"$ 	c #4A4F4A",
"% 	c #6D756D",
"& 	c #ADADAD",
"* 	c #3E413E",
"= 	c #818781",
"- 	c #A2AAA2",
"; 	c #8E958D",
"> 	c #6D726D",
", 	c #424442",
"' 	c #465D45",
") 	c #536E53",
"! 	c #7D7E7D",
"~ 	c #505F50",
"{ 	c #B7D5B6",
"] 	c #D3EBD2",
"^ 	c #D6ECD4",
"/ 	c #C9E8C8",
"( 	c #CFE7CE",
"_ 	c #8EA48D",
": 	c #92CB91",
"< 	c #5D805C",
"[ 	c #4B574B",
"} 	c #82B081",
"| 	c #ACDBAB",
"1 	c #A3D8A1",
"2 	c #A3D7A2",
"3 	c #B0DDAE",
"4 	c #A8DAA7",
"5 	c #9AD498",
"6 	c #86CB84",
"7 	c #76A474",
"8 	c #70796F",
"9 	c #597558",
"0 	c #86C384",
"a 	c #5DB15A",
"b 	c #367C33",
"c 	c #599A57",
"d 	c #94D192",
"e 	c #92D090",
"f 	c #82C97F",
"g 	c #74C372",
"h 	c #79BC77",
"i 	c #3D4D3D",
"j 	c #557E54",
"k 	c #8CCE8B",
"l 	c #285527",
"m 	c #898989",
"n 	c #4A4A4A",
"o 	c #859A84",
"p 	c #A1D69F",
"q 	c #6FC16D",
"r 	c #59B856",
"s 	c #5AB857",
"t 	c #275825",
"u 	c #AEAEAE",
"v 	c #4C754B",
"w 	c #78C176",
"x 	c #3E523D",
"y 	c #C6C6C6",
"z 	c #586357",
"A 	c #B2D0B1",
"B 	c #61BB5E",
"C 	c #3AAA37",
"D 	c #35A832",
"E 	c #1F781C",
"F 	c #5E5E5E",
"G 	c #515551",
"H 	c #546053",
"I 	c #526A51",
"J 	c #5DA65C",
"K 	c #475A46",
"L 	c #9D9D9D",
"M 	c #384537",
"N 	c #405440",
"O 	c #273526",
"P 	c #182F18",
"Q 	c #2D4C2C",
"R 	c #345433",
"S 	c #324C32",
"T 	c #7A7A7A",
"U 	c #2C2E2C",
"V 	c #1D561B",
"W 	c #3A4C39",
"X 	c #3F443F",
"Y 	c #306E2E",
"Z 	c #3B7239",
"` 	c #505250",
" .	c #9C9C9C",
"..	c #394F38",
"+.	c #217F1F",
"@.	c #293B28",
"#.	c #404D40",
"$.	c #165A14",
"%.	c #3A5039",
"&.	c #636663",
"*.	c #485F47",
"=.	c #477345",
"-.	c #467444",
";.	c #3C673A",
">.	c #3F623E",
",.	c #455C44",
"'.	c #757975",
").	c #555555",
"!.	c #30902D",
"~.	c #396637",
"{.	c #3C4B3C",
"].	c #465345",
"^.	c #848784",
"/.	c #618160",
"(.	c #80BE7F",
"_.	c #74BA72",
":.	c #6DB76B",
"<.	c #60B15D",
"[.	c #4C724A",
"}.	c #8B8D8B",
"|.	c #747474",
"1.	c #3F913D",
"2.	c #1D601B",
"3.	c #7D877D",
"4.	c #C7E5C6",
"5.	c #AEDCAC",
"6.	c #89CC87",
"7.	c #5BB959",
"8.	c #315230",
"9.	c #687267",
"0.	c #4C5B4C",
"a.	c #56B653",
"b.	c #1C651A",
"c.	c #7A837A",
"d.	c #AACEA9",
"e.	c #A5D8A3",
"f.	c #91D08F",
"g.	c #70C26E",
"h.	c #5FB45D",
"i.	c #549652",
"j.	c #5CA65A",
"k.	c #39A836",
"l.	c #246023",
"m.	c #747974",
"n.	c #78A976",
"o.	c #93D091",
"p.	c #7EC87B",
"q.	c #7AC678",
"r.	c #66BD64",
"s.	c #48B045",
"t.	c #2C8F29",
"u.	c #516950",
"v.	c #3A3A3A",
"w.	c #4E8D4D",
"x.	c #497F48",
"y.	c #285B26",
"z.	c #378B34",
"A.	c #4CA04A",
"B.	c #429A40",
"C.	c #32842F",
"D.	c #3B5039",
"E.	c #909090",
"F.	c #345133",
"G.	c #384538",
"H.	c #414141",
"I.	c #536453",
"J.	c #456344",
"K.	c #536A52",
"L.	c #2E3B2E",
"                                    ",
"        . + @ #   $ %               ",
"    & * = - ; > , ' )               ",
"  ! ~ { ] ^ / ( _ : <               ",
"  [ } | 1 2 3 4 5 6 7 8             ",
"  9 0 a b c d e f g h i             ",
"  j k l m n o p q r s t u           ",
"  v w x y z A 5 B C D E F G H       ",
"  I J K L M N O P Q R S T U V W     ",
"  X Y Z `                  ...+.@.  ",
"    #.$.%.  &.*.=.-.;.>.,.'.).!.~.  ",
"      {.].  ^./.(._.:.<.[.}.|.1.2.  ",
"              3.4.5.6.7.8.9.0.a.b.  ",
"              c.d.e.f.g.h.i.j.k.l.  ",
"              m.n.o.p.q.r.r s.t.u.  ",
"              v.w.x.y.z.A.B.C.D.    ",
"              E.F.G.H.I.J.K.L.      ",
"                                    "};
