/* XPM */
static char * ico_frame_xpm[] = {
"24 24 35 1",
" 	c None",
".	c #000000",
"+	c #ACACAC",
"@	c #FFFFFF",
"#	c #DEDEDE",
"$	c #F0F0F0",
"%	c #F2F2F2",
"&	c #F3F3F3",
"*	c #F4F4F4",
"=	c #F5F5F5",
"-	c #F6F6F6",
";	c #F7F7F7",
">	c #E6E6E6",
",	c #888888",
"'	c #F1F1F1",
")	c #8A8A8A",
"!	c #8B8B8B",
"~	c #E7E7E7",
"{	c #F8F8F8",
"]	c #E8E8E8",
"^	c #898989",
"/	c #8C8C8C",
"(	c #F9F9F9",
"_	c #E9E9E9",
":	c #FAFAFA",
"<	c #EAEAEA",
"[	c #FBFBFB",
"}	c #EBEBEB",
"|	c #FCFCFC",
"1	c #ECECEC",
"2	c #FDFDFD",
"3	c #EDEDED",
"4	c #FEFEFE",
"5	c #EEEEEE",
"6	c #8D8D8D",
"                        ",
"                        ",
"  ..++++++++++++++++..  ",
"  .@@@@@@@@@@@@@@@@@#.  ",
"  +@$$$$$$%%&&*==--;>+  ",
"  +@$,,,,'%.&)!!!!;;~+  ",
"  +@$$$$'%&.*==--;;{]+  ",
"  +@$,,^^^&.=!!!//{(]+  ",
"  +@$$'%%&*.=--;;{((_+  ",
"  +@$^^^)&=.-!/;{((:_+  ",
"  +@'%%&&*=.-;;{((::<+  ",
"  +@%^)))!-.;;{((::[}+  ",
"  +@%&&*==-.;{((::[|}+  ",
"  +@&))!!!;.{((::[||1+  ",
"  +@&*==--;.((::[||21+  ",
"  +@*!!!-;{.(::[||223+  ",
"  +@==--;;(.::[||2245+  ",
"  +@=!!//6(.:[||224@5+  ",
"  +@--;;{(:.[||224@@5+  ",
"  +@-;;{((:[||224@@@5+  ",
"  .5>>~]]_<}}1135555#.  ",
"  ..++++++++++++++++..  ",
"                        ",
"                        "};
