/* XPM */
static char * ico_schemas_xpm[] = {
"16 16 41 1",
" 	c None",
".	c #000000",
"+	c #31302F",
"@	c #2B2B2A",
"#	c #AAAAAA",
"$	c #ABABAB",
"%	c #ADADAD",
"&	c #AEAEAE",
"*	c #AFAFAF",
"=	c #B3B3B3",
"-	c #B5B5B5",
";	c #B6B6B6",
">	c #BBBBBB",
",	c #B1B1B1",
"'	c #FFFFFF",
")	c #E6E6E6",
"!	c #909090",
"~	c #EBEBEB",
"{	c #EDEDED",
"]	c #EEEEEE",
"^	c #EFEFEF",
"/	c #DF421E",
"(	c #DDDDDD",
"_	c #F1F1F1",
":	c #E1E1E1",
"<	c #E8E8E8",
"[	c #929292",
"}	c #F2F2F2",
"|	c #E4E4E4",
"1	c #E9E9E9",
"2	c #625B81",
"3	c #F3F3F3",
"4	c #F5F5F5",
"5	c #9A9A9A",
"6	c #F7F7F7",
"7	c #9C9C9C",
"8	c #EAEAEA",
"9	c #E7E7E7",
"0	c #F0F0F0",
"a	c #F4F4F4",
"b	c #F8F8F8",
" .............. ",
".+@@@@@@@@@@@@..",
"............... ",
" .#$#%&**=-;>,. ",
" .')!.~{]^///(. ",
" .'!....._///:. ",
" .'<[.{^_}///|. ",
" .'12222}34.5|. ",
" .'12222.....!. ",
" .'12222346.78. ",
" .'91~{]0}aab<. ",
" .............. ",
"      ....      ",
"     . . .      ",
"    .  .  .     ",
"       .        "};
