/* XPM */
static char * ok_xpm[] = {
"22 22 103 2",
"  	c None",
". 	c #B3D9FF",
"+ 	c #B2D8FF",
"@ 	c #ADD6FF",
"# 	c #A6D2FF",
"$ 	c #9DCDFF",
"% 	c #90C7FF",
"& 	c #B9DBFF",
"* 	c #DDEEFF",
"= 	c #DEEEFF",
"- 	c #DBEDFF",
"; 	c #D7EBFF",
"> 	c #D3E9FF",
", 	c #C9E4FF",
"' 	c #87C2FF",
") 	c #96CBFF",
"! 	c #DAEDFF",
"~ 	c #FFFFFF",
"{ 	c #E1F0FF",
"] 	c #83C1FF",
"^ 	c #86C2FF",
"/ 	c #D0E7FE",
"( 	c #FDFDFE",
"_ 	c #DFEEFE",
": 	c #7CBDFF",
"< 	c #73B9FF",
"[ 	c #C8E3FD",
"} 	c #FAFBFC",
"| 	c #DBECFD",
"1 	c #77BBFF",
"2 	c #6EB6FF",
"3 	c #C4E0FC",
"4 	c #F7F9FA",
"5 	c #D8EAFB",
"6 	c #73B8FF",
"7 	c #68B3FF",
"8 	c #C0DDFB",
"9 	c #F3F6F8",
"0 	c #D3E7FA",
"a 	c #6DB5FF",
"b 	c #61B0FF",
"c 	c #BDDCF9",
"d 	c #EEF3F5",
"e 	c #CCE3F7",
"f 	c #66B2FF",
"g 	c #7ABDFF",
"h 	c #C3DEF7",
"i 	c #EAF0F3",
"j 	c #C8E0F6",
"k 	c #60AFFE",
"l 	c #A7D2FD",
"m 	c #B3D7F9",
"n 	c #E6EDF0",
"o 	c #D8E7F1",
"p 	c #69B3FD",
"q 	c #AFD7FF",
"r 	c #B6D8F8",
"s 	c #E1EAEE",
"t 	c #D5E4EF",
"u 	c #64B0FC",
"v 	c #3C85CD",
"w 	c #ACD5FF",
"x 	c #B2D5F7",
"y 	c #DDE6EB",
"z 	c #D0E0ED",
"A 	c #5EADFC",
"B 	c #3680C9",
"C 	c #A8D4FF",
"D 	c #AED4F6",
"E 	c #D8E3E9",
"F 	c #CBDDEB",
"G 	c #57AAFB",
"H 	c #317DC9",
"I 	c #A4D2FF",
"J 	c #A9D1F6",
"K 	c #D4E1E6",
"L 	c #C7DBE8",
"M 	c #52A7FB",
"N 	c #2C7BC9",
"O 	c #9BCDFF",
"P 	c #A3CDF5",
"Q 	c #D1DEE5",
"R 	c #C4D8E7",
"S 	c #4FA5FA",
"T 	c #2879C9",
"U 	c #94CAFF",
"V 	c #92C5F4",
"W 	c #CEDCE3",
"X 	c #C1D6E5",
"Y 	c #4AA3FA",
"Z 	c #2477C9",
"` 	c #66B0F9",
" .	c #AFCFE8",
"..	c #ABCDE8",
"+.	c #A8CBE8",
"@.	c #46A1FA",
"#.	c #2075C9",
"$.	c #2490FA",
"%.	c #238DF4",
"&.	c #238BF1",
"*.	c #238AF0",
"=.	c #2289ED",
"-.	c #1B6AB8",
"                                            ",
"                                            ",
"        . + @ # $ %                         ",
"      & * = - ; > , '                       ",
"      ) ! ~ ~ ~ ~ ~ { ]                     ",
"        ^ / ( ( ( ( ( _ :                   ",
"          < [ } } } } } | 1                 ",
"            2 3 4 4 4 4 4 5 6               ",
"              7 8 9 9 9 9 9 0 a             ",
"                b c d d d d d e f           ",
"                  g h i i i i i j k         ",
"                  l m n n n n n o p         ",
"                q r s s s s s t u v         ",
"              w x y y y y y z A B           ",
"            C D E E E E E F G H             ",
"          I J K K K K K L M N               ",
"        O P Q Q Q Q Q R S T                 ",
"      U V W W W W W X Y Z                   ",
"      `  .........+.@.#.                    ",
"        $.%.&.*.*.=.-.                      ",
"                                            ",
"                                            "};
