/* XPM */
static char * ico_delete_xpm[] = {
"16 16 15 1",
" 	c None",
".	c #B7B7B7",
"+	c #FFFFFF",
"@	c #6E6E6E",
"#	c #E9E9E9",
"$	c #E4E4E4",
"%	c #000000",
"&	c #DEDEDE",
"*	c #D9D9D9",
"=	c #D4D4D4",
"-	c #CECECE",
";	c #C9C9C9",
">	c #C3C3C3",
",	c #BEBEBE",
"'	c #B9B9B9",
"...............+",
".@@@@@@@@@@@@@@+",
".@+++++++++++.@+",
".@+##########.@+",
".@+$$%$$$$%$$.@+",
".@+&%%%&&%%%&.@+",
".@+**%%%%%%**.@+",
".@+===%%%%===.@+",
".@+---%%%%---.@+",
".@+;;%%%%%%;;.@+",
".@+>%%%>>%%%>.@+",
".@+,,%,,,,%,,.@+",
".@+''''''''''.@+",
".@............@+",
".@@@@@@@@@@@@@@+",
"++++++++++++++++"};
