/* XPM */
static char * ico_time_xpm[] = {
"24 24 349 2",
"  	c None",
". 	c #B9B9C7",
"+ 	c #BCBCC9",
"@ 	c #BCBCCA",
"# 	c #B3B3C3",
"$ 	c #AEAEBF",
"% 	c #A4A4B7",
"& 	c #B6B6C5",
"* 	c #C4C4D0",
"= 	c #D6D6DE",
"- 	c #E5E5EA",
"; 	c #E9E9EE",
"> 	c #E7E7EC",
", 	c #E3E3E9",
"' 	c #DFDFE6",
") 	c #D1D1DA",
"! 	c #B4B4C4",
"~ 	c #9C9CB0",
"{ 	c #BABAC8",
"] 	c #D4D4DD",
"^ 	c #F1F1F4",
"/ 	c #CDCDD7",
"( 	c #BDC2D6",
"_ 	c #B0BDDA",
": 	c #A6B7D8",
"< 	c #B3BDD3",
"[ 	c #B5B7C8",
"} 	c #E0E0E6",
"| 	c #CECED8",
"1 	c #9F9FB2",
"2 	c #C3C3CF",
"3 	c #E4E4E9",
"4 	c #EFEFF2",
"5 	c #CACFDC",
"6 	c #C3CEDF",
"7 	c #DBE9F7",
"8 	c #F6FCFF",
"9 	c #D1D6F0",
"0 	c #A7ADE1",
"a 	c #E9F8FF",
"b 	c #D7EEFC",
"c 	c #BCD2E6",
"d 	c #A6AEC3",
"e 	c #BEC1D0",
"f 	c #D5D5DE",
"g 	c #A3A3B5",
"h 	c #86869C",
"i 	c #BBBBC9",
"j 	c #B8C4DB",
"k 	c #CBE0F1",
"l 	c #E2F6FE",
"m 	c #E9F9FF",
"n 	c #EFFAFF",
"o 	c #CAD3F0",
"p 	c #A2ABE1",
"q 	c #E6F8FF",
"r 	c #DFF5FF",
"s 	c #D7F3FF",
"t 	c #BFE1F5",
"u 	c #9AB2D2",
"v 	c #A7ABC0",
"w 	c #CACAD5",
"x 	c #BAD9F2",
"y 	c #D7F4FF",
"z 	c #DEF5FF",
"A 	c #E3F7FF",
"B 	c #E7F8FF",
"C 	c #E4F4FD",
"D 	c #DEF0FC",
"E 	c #E0F6FF",
"F 	c #DAF4FF",
"G 	c #D3F2FF",
"H 	c #CAEEFF",
"I 	c #B7DEF9",
"J 	c #8BA9D3",
"K 	c #AAAABB",
"L 	c #BEBECB",
"M 	c #8989A0",
"N 	c #C7C7D2",
"O 	c #F2F2F5",
"P 	c #BFC8DC",
"Q 	c #ABCEEF",
"R 	c #C8EDFE",
"S 	c #D1F1FF",
"T 	c #DBF4FF",
"U 	c #DEF6FF",
"V 	c #DDF5FF",
"W 	c #D9F4FF",
"X 	c #CAE7F3",
"Y 	c #788B93",
"Z 	c #283136",
"` 	c #9CBFD6",
" .	c #ADD8FB",
"..	c #7D97C5",
"+.	c #B1B2C2",
"@.	c #A5A5B8",
"#.	c #707089",
"$.	c #D8D8E0",
"%.	c #E8E8EE",
"&.	c #9AB5DC",
"*.	c #B0DAFA",
"=.	c #C0E7FD",
"-.	c #CFF1FF",
";.	c #D6F3FF",
">.	c #D4F3FF",
",.	c #C8E6F3",
"'.	c #75888F",
").	c #101314",
"!.	c #313D45",
"~.	c #8CAEC8",
"{.	c #A6D3F8",
"].	c #86B0E4",
"^.	c #8A95B7",
"/.	c #B7B7C6",
"(.	c #777791",
"_.	c #BFBFCC",
":.	c #D0D0DA",
"<.	c #86B7F0",
"[.	c #AEDAFC",
"}.	c #B7E0FC",
"|.	c #C0E7FE",
"1.	c #C6EBFE",
"2.	c #CDF0FF",
"3.	c #CCEFFF",
"4.	c #758A93",
"5.	c #21282D",
"6.	c #8AABC4",
"7.	c #A4CFF3",
"8.	c #A0CEF9",
"9.	c #89BBF3",
"0.	c #708BBE",
"a.	c #B0B0C0",
"b.	c #87879E",
"c.	c #C1C1CE",
"d.	c #ECECF0",
"e.	c #AEBAD6",
"f.	c #8DC1F7",
"g.	c #A4D2FA",
"h.	c #ACD8FB",
"i.	c #B3DDFC",
"j.	c #B9E2FD",
"k.	c #BDE5FD",
"l.	c #B1D5EA",
"m.	c #9FBED0",
"n.	c #6B818D",
"o.	c #040405",
"p.	c #2F3B43",
"q.	c #88AAC4",
"r.	c #A4D1F7",
"s.	c #9ECEF9",
"t.	c #8FC2F7",
"u.	c #69A6F3",
"v.	c #537FCA",
"w.	c #999DB7",
"x.	c #9696AB",
"y.	c #5F5F78",
"z.	c #C2C2CE",
"A.	c #EBEBEF",
"B.	c #9AB1D9",
"C.	c #7BA6EA",
"D.	c #83ABEB",
"E.	c #9FCDF8",
"F.	c #A8D5FB",
"G.	c #A5D2FA",
"H.	c #51616C",
"I.	c #4A5053",
"J.	c #141516",
"K.	c #1F262D",
"L.	c #6C889F",
"M.	c #8CB2D3",
"N.	c #8FBEEC",
"O.	c #84B9F6",
"P.	c #66A0EF",
"Q.	c #396FDD",
"R.	c #4978CF",
"S.	c #8B94B3",
"T.	c #9A9AAF",
"U.	c #5C5C75",
"V.	c #EAEAEE",
"W.	c #96AFD9",
"X.	c #5D82DB",
"Y.	c #6386DC",
"Z.	c #8FBFF5",
"`.	c #8EC1F7",
" +	c #91C4F8",
".+	c #292A2C",
"++	c #B3B3B3",
"@+	c #343434",
"#+	c #0C0F12",
"$+	c #1C242B",
"%+	c #1E272E",
"&+	c #567BA4",
"*+	c #72ACF2",
"=+	c #5D95EA",
"-+	c #3055CD",
";+	c #4B75CC",
">+	c #818AAB",
",+	c #5A5A73",
"'+	c #E8E8ED",
")+	c #A5B7D8",
"!+	c #77B0F4",
"~+	c #7EB5F5",
"{+	c #83B9F6",
"]+	c #8FC2F8",
"^+	c #98C9F9",
"/+	c #A0CFF9",
"(+	c #516677",
"_+	c #2A3136",
":+	c #37434C",
"<+	c #5E778B",
"[+	c #5C758C",
"}+	c #57728C",
"|+	c #6F97C1",
"1+	c #7FB5F2",
"2+	c #75AFF4",
"3+	c #65A3F2",
"4+	c #608ACD",
"5+	c #8C91AE",
"6+	c #8B8BA3",
"7+	c #575770",
"8+	c #B7B7C5",
"9+	c #B8BCCE",
"0+	c #75ADF2",
"a+	c #81B7F5",
"b+	c #8EC2F7",
"c+	c #9DCDF9",
"d+	c #A7D4FA",
"e+	c #B0DBFC",
"f+	c #B1D8F3",
"g+	c #9DBED3",
"h+	c #A5C8DE",
"i+	c #B1D9F5",
"j+	c #ADD7F7",
"k+	c #A4D0F6",
"l+	c #98C7F5",
"m+	c #8DC1F6",
"n+	c #81B7F6",
"o+	c #70AAF2",
"p+	c #6788C0",
"q+	c #9192AA",
"r+	c #80809A",
"s+	c #525269",
"t+	c #AEAEBE",
"u+	c #CCCCD7",
"v+	c #87B0E4",
"w+	c #8BBFF7",
"x+	c #9ACAF8",
"y+	c #AAD6FB",
"z+	c #B5DFFC",
"A+	c #BFE6FD",
"B+	c #C8ECFF",
"C+	c #CBEEFF",
"D+	c #C6ECFE",
"E+	c #99CAF9",
"F+	c #78ABEA",
"G+	c #7183AD",
"H+	c #6D6D89",
"I+	c #E8E8EC",
"J+	c #A2AEC8",
"K+	c #96C3F2",
"L+	c #A5D3FA",
"M+	c #C4EAFE",
"N+	c #CFF0FF",
"O+	c #D5F2FF",
"P+	c #CEF0FF",
"Q+	c #C4E9FE",
"R+	c #95C6F8",
"S+	c #7A9BCC",
"T+	c #82839E",
"U+	c #5C5C7A",
"V+	c #A6A6B8",
"W+	c #C8CBD8",
"X+	c #9FB7D7",
"Y+	c #ACD5F8",
"Z+	c #BFE7FD",
"`+	c #CDEFFF",
" @	c #E4F7FF",
".@	c #BCE4FD",
"+@	c #94BDE8",
"@@	c #767FA0",
"#@	c #8E8EA6",
"$@	c #747491",
"%@	c #A9A9BA",
"&@	c #B4B7C9",
"*@	c #A7BFD9",
"=@	c #C5EAFE",
"-@	c #E8F8FF",
";@	c #D2F1FF",
">@	c #C2E8FE",
",@	c #A7CCEB",
"'@	c #7987A8",
")@	c #81819B",
"!@	c #60607E",
"~@	c #ADADBE",
"{@	c #B5B5C4",
"]@	c #ACBCCF",
"^@	c #C6DDEB",
"/@	c #DDF1FB",
"(@	c #EEFAFF",
"_@	c #BCC1E8",
":@	c #8386D2",
"<@	c #EBF9FF",
"[@	c #DFF5FE",
"}@	c #CAE5F3",
"|@	c #A4BBD2",
"1@	c #8086A2",
"2@	c #8C8CA4",
"3@	c #84849D",
"4@	c #62627F",
"5@	c #9090A5",
"6@	c #A7A7B8",
"7@	c #CACAD4",
"8@	c #BEBFCC",
"9@	c #AAADC0",
"0@	c #AEB6C9",
"a@	c #C1C9D7",
"b@	c #BABFD8",
"c@	c #A5AAD1",
"d@	c #C1CBD9",
"e@	c #ABB6C9",
"f@	c #949DB4",
"g@	c #8889A2",
"h@	c #9191A8",
"i@	c #83839D",
"j@	c #636380",
"k@	c #9393A9",
"l@	c #B1B1C1",
"m@	c #BDBDCA",
"n@	c #AFB0C0",
"o@	c #A9AABC",
"p@	c #A1A2B6",
"q@	c #9C9DB1",
"r@	c #9D9DB1",
"s@	c #787894",
"t@	c #63637F",
"u@	c #7A7A91",
"v@	c #818199",
"w@	c #9292A7",
"x@	c #A1A1B4",
"y@	c #A7A7B9",
"z@	c #9494AA",
"A@	c #8888A0",
"B@	c #72728E",
"C@	c #61617D",
"D@	c #67677E",
"E@	c #63637A",
"F@	c #606078",
"G@	c #5D5D75",
"H@	c #56566E",
"                . + @ @ # $ %                   ",
"          & * = - ; ; > , ' ) ! ~               ",
"        { ] ^ > / ( _ : < [ * } | 1             ",
"      2 3 4 5 6 7 8 9 0 a b c d e f g h         ",
"    i 3 > j k l m n o p q r s t u v w ~         ",
"  . f 4 j x y z A B C D E F G H I J K L M       ",
"  N O P Q R S s T U z V W X Y Z `  ...+.@.#.    ",
"  $.%.&.*.=.H -.G ;.;.>.,.'.).!.~.{.].^./.(.    ",
"_.> :.<.[.}.|.1.H 2.2.3.4.).5.6.7.8.9.0.a.b.    ",
"c.d.e.f.g.h.i.j.k.l.m.n.o.p.q.r.s.t.u.v.w.x.y.  ",
"z.A.B.C.D.E.F.F.G.H.I.J.K.L.M.N.O.P.Q.R.S.T.U.  ",
"2 V.W.X.Y.Z.`.`. +.+++@+#+$+%+&+*+=+-+;+>+~ ,+  ",
"i '+)+!+~+{+]+^+/+(+_+:+<+[+}+|+1+2+3+4+5+6+7+  ",
"8+- 9+0+a+b+c+d+e+f+g+h+i+j+k+l+m+n+o+p+q+r+s+  ",
"t+$.u+v+w+x+y+z+A+B+C+C+D+A+z+d+E+w+F+G+x.H+    ",
"  L I+J+K+L+}.M+N+;.W W O+P+Q+i.G.R+S+T+6+U+    ",
"  V+= W+X+Y+Z+`+s E  @ @z s `+.@h.+@@@#@$@      ",
"    %@' &@*@=@G V -@n n B V ;@>@,@'@6+)@!@      ",
"      ~@f {@]@^@/@(@_@:@<@[@}@|@1@2@3@4@        ",
"      5@6@7@8@9@0@a@b@c@d@e@f@g@h@i@j@          ",
"          k@l@* m@n@o@p@p@q@r@h@s@t@            ",
"            u@v@w@x@V+y@z@A@B@C@                ",
"                  D@E@F@G@H@                    ",
"                                                "};
