/* XPM */
static char * ico_delcvs_xpm[] = {
"24 24 53 1",
" 	c None",
".	c #4A484A",
"+	c #414441",
"@	c #414041",
"#	c #393839",
"$	c #313431",
"%	c #292829",
"&	c #524C52",
"*	c #525052",
"=	c #737573",
"-	c #6A696A",
";	c #626162",
">	c #525552",
",	c #292429",
"'	c #5A555A",
")	c #8B858B",
"!	c #8B898B",
"~	c #838583",
"{	c #837D83",
"]	c #737173",
"^	c #6A656A",
"/	c #4A444A",
"(	c #393439",
"_	c #202020",
":	c #949594",
"<	c #9C9D9C",
"[	c #9C999C",
"}	c #9C959C",
"|	c #7B7D7B",
"1	c #6A6D6A",
"2	c #625D62",
"3	c #393C39",
"4	c #313031",
"5	c #201C20",
"6	c #ACA5AC",
"7	c #A4A1A4",
"8	c #7B757B",
"9	c #5A595A",
"0	c #181818",
"a	c #FFFFFF",
"b	c #413C41",
"c	c #292C29",
"d	c #181418",
"e	c #948D94",
"f	c #202420",
"g	c #101010",
"h	c #7B797B",
"i	c #4A4C4A",
"j	c #181C18",
"k	c #100C10",
"l	c #080C08",
"m	c #101410",
"n	c #080808",
"                        ",
"                        ",
"                        ",
"         .+@#$%         ",
"       &*==-;>.%,       ",
"      ')!!~{]^>/(_      ",
"     >!:<[}!|12.345     ",
"    *):6[[7}~89.@(%0    ",
"    *!<[aa[[!-aab4cd    ",
"   .8![[aaae|aaa3(%fg   ",
"   @=~}7[aaaaaa.@4%_g   ",
"   @1{!}<eaaaa>&34%_g   ",
"   #;1|~!haaaai+(%,jk   ",
"   $'^181aaaaaa(4%_jl   ",
"   %.*2>aaa*iaaa,_5mn   ",
"    %/i.aa./b(aa__0k    ",
"    ,$3bb#@#(c,__0mn    ",
"     _4(4(44c%f_0dn     ",
"      5%c%%f,_50mn      ",
"       00f__jjmkn       ",
"         ggkknn         ",
"                        ",
"                        ",
"                        "};
