/* XPM */
static char * ico_square_xpm[] = {
"24 24 33 1",
" 	c None",
".	c #314E6C",
"+	c #A5B6CA",
"@	c #8099B4",
"#	c #738FAE",
"$	c #7490AF",
"%	c #7591B0",
"&	c #7692B1",
"*	c #7793B2",
"=	c #7894B3",
"-	c #7A95B4",
";	c #7B97B5",
">	c #7C98B6",
",	c #7D99B7",
"'	c #7E9AB8",
")	c #7F9BB9",
"!	c #819CBA",
"~	c #829DBB",
"{	c #839FBC",
"]	c #84A0BD",
"^	c #85A1BE",
"/	c #87A2BF",
"(	c #88A3C0",
"_	c #89A4C1",
":	c #8AA5C2",
"<	c #8BA7C3",
"[	c #8CA8C4",
"}	c #8EA9C5",
"|	c #8FAAC6",
"1	c #90ABC7",
"2	c #91ACC8",
"3	c #92ADC9",
"4	c #94AFCA",
"                        ",
"                        ",
" ....................   ",
" .+++++++++++++++++@.   ",
" .+#$%&*=-;>,')!~{]@.   ",
" .+$%&*=-;>,')!~{]^@.   ",
" .+%&*=-;>,')!~{]^/@.   ",
" .+&*=-;>,')!~{]^/(@.   ",
" .+*=-;>,')!~{]^/(_@.   ",
" .+=-;>,')!~{]^/(_:@.   ",
" .+-;>,')!~{]^/(_:<@.   ",
" .+;>,')!~{]^/(_:<[@.   ",
" .+>,')!~{]^/(_:<[}@.   ",
" .+,')!~{]^/(_:<[}|@.   ",
" .+')!~{]^/(_:<[}|1@.   ",
" .+)!~{]^/(_:<[}|12@.   ",
" .+!~{]^/(_:<[}|123@.   ",
" .+~{]^/(_:<[}|1234@.   ",
" .+{]^/(_:<[}|12344@.   ",
" .@@@@@@@@@@@@@@@@@@.   ",
" ....................   ",
"                        ",
"                        ",
"                        "};
