/* XPM */
static char * ico_logout_xpm[] = {
"24 24 6 1",
" 	c None",
".	c #000000",
"+	c #7B797B",
"@	c #7B757B",
"#	c #737573",
"$	c #313031",
"                        ",
"                        ",
"                        ",
"                        ",
"           ..           ",
"           ..           ",
"       .   ..   .       ",
"      ...  ..  ...      ",
"     +..@  ..  +..#     ",
"     ..$   ..   $..     ",
"    #..+   ..   #..+    ",
"    ...    ..    ...    ",
"    ..#    ..    +..    ",
"    ..@    ..    #..    ",
"    ...    ..    ...    ",
"    @..#        @..#    ",
"     ..$        $..     ",
"     #..$#    @$..@     ",
"      @....+#....+      ",
"       #........@       ",
"         +....#         ",
"                        ",
"                        ",
"                        "};
