/* XPM */
static char * ico_symbol_xpm[] = {
"14 14 33 1",
" 	c None",
".	c #EBEBFB",
"+	c #ECEAFB",
"@	c #7E7DE4",
"#	c #7E7DE3",
"$	c #E2E2FA",
"%	c #1A1BCC",
"&	c #1C1CCC",
"*	c #E2E1FA",
"=	c #7B7BE1",
"-	c #0202C6",
";	c #0202C5",
">	c #7C7BE2",
",	c #D1D0F7",
"'	c #1E1DCD",
")	c #0000C5",
"!	c #1E1ECC",
"~	c #D1CFF6",
"{	c #7D7BE3",
"]	c #1E1ECD",
"^	c #0101C6",
"/	c #0101C5",
"(	c #1E1DCE",
"_	c #1C1CCD",
":	c #ECEBFB",
"<	c #7E7CE3",
"[	c #1C1BCC",
"}	c #E3E2FA",
"|	c #7C7BE1",
"1	c #0001C5",
"2	c #1E1ECE",
"3	c #D1CFF7",
"4	c #1C1BCD",
"      .+      ",
"      @#      ",
"     $%&*     ",
"     =-;>     ",
"    ,'))!~    ",
"  ${]^))/(>*  ",
".@&-))))));_#+",
":<[-))))))-%@.",
"  }|!1))^'=$  ",
"    ~2))]3    ",
"     >--{     ",
"     }4&$     ",
"      <@      ",
"      :.      "};
