/* XPM */
static char * ico_font2_xpm[] = {
"23 24 34 1",
" 	c None",
".	c #000000",
"+	c #ACACAC",
"@	c #FFFFFF",
"#	c #DEDEDE",
"$	c #F0F0F0",
"%	c #F2F2F2",
"&	c #F3F3F3",
"*	c #F4F4F4",
"=	c #F5F5F5",
"-	c #F6F6F6",
";	c #F7F7F7",
">	c #E6E6E6",
",	c #F1F1F1",
"'	c #E7E7E7",
")	c #F8F8F8",
"!	c #E8E8E8",
"~	c #F9F9F9",
"{	c #AFAFAF",
"]	c #B3B3B3",
"^	c #E9E9E9",
"/	c #FAFAFA",
"(	c #EAEAEA",
"_	c #FBFBFB",
":	c #EBEBEB",
"<	c #FCFCFC",
"[	c #ECECEC",
"}	c #FDFDFD",
"|	c #B5B5B5",
"1	c #EDEDED",
"2	c #7B7B7B",
"3	c #6E6E6E",
"4	c #FEFEFE",
"5	c #EEEEEE",
"                       ",
"                       ",
" ..++++++++++++++++..  ",
" .@@@@@@@@@@@@@@@@@#.  ",
" +@$$$$$$%%&&*==--;>+  ",
" +@$$$$$,%&&*==--;;'+  ",
" +@$$$$,%&&*==--;;)!+  ",
" +@$$$..........;)~!+  ",
" +@$$,.{&*..--].)~~^+  ",
" +@$,%{&&=..-;;]~~/^+  ",
" +@,%%&&*=..;;)~~//(+  ",
" +@%%&&*=-..;)~~//_:+  ",
" +@%&&*==-..)~~//_<:+  ",
" +@&&*==-;..~~//_<<[+  ",
" +@&*==--;..~//_<<}[+  ",
" +@*==--;]..|/_<<}}1+  ",
" +@==--;2....3<<}}45+  ",
" +@=--;;)~//_<<}}4@5+  ",
" +@--;;)~//_<<}}4@@5+  ",
" +@-;;)~~/_<<}}4@@@5+  ",
" .5>>'!!^(::[[15555#.  ",
" ..++++++++++++++++..  ",
"                       ",
"                       "};
