/* XPM */
static char * ico_level_xpm[] = {
"31 17 7 1",
" 	c None",
".	c #000000",
"+	c #FF996C",
"@	c #DC3300",
"#	c #666666",
"$	c #F63900",
"%	c #931105",
"..........................     ",
".+++++++++++++++++++++++@.#    ",
".+$$$$$$$$$$$$$$$$$$$$$$%.#    ",
".+$$$$$$$$$$$$$$$$$$$$$$%.#    ",
".+$$$$$$$$$$$$$$$$$$$$$$%.#    ",
".@%%%%%%%%%%%%%%%%%%%%%%%.#    ",
"..........................#    ",
"    #######################    ",
"                               ",
"       ....................... ",
"       .++++++++++++++++++++@.#",
"       .+$$$$$$$$$$$$$$$$$$$%.#",
"       .+$$$$$$$$$$$$$$$$$$$%.#",
"       .+$$$$$$$$$$$$$$$$$$$%.#",
"       .@%%%%%%%%%%%%%%%%%%%%.#",
"       .......................#",
"          #####################"};
