/* XPM */
static char * ico_column_xpm[] = {
"24 24 90 1",
" 	c None",
".	c #222222",
"+	c #141414",
"@	c #000000",
"#	c #101010",
"$	c #1D1D1D",
"%	c #373737",
"&	c #7D7D7D",
"*	c #909090",
"=	c #AAAAAA",
"-	c #9B9B9B",
";	c #545454",
">	c #989898",
",	c #B4B4B4",
"'	c #939393",
")	c #8C8C8C",
"!	c #848484",
"~	c #727272",
"{	c #B7B7B7",
"]	c #888888",
"^	c #808080",
"/	c #797979",
"(	c #A3A3A3",
"_	c #6E6E6E",
":	c #999999",
"<	c #ADADAD",
"[	c #A8A8A8",
"}	c #AFAFAF",
"|	c #A6A6A6",
"1	c #858585",
"2	c #565656",
"3	c #A7A7A7",
"4	c #777777",
"5	c #8D8D8D",
"6	c #8A8A8A",
"7	c #616161",
"8	c #656565",
"9	c #7F7F7F",
"0	c #9E9E9E",
"a	c #6D6D6D",
"b	c #696969",
"c	c #666666",
"d	c #525252",
"e	c #737373",
"f	c #7E7E7E",
"g	c #959595",
"h	c #9D9D9D",
"i	c #080808",
"j	c #5E5E5E",
"k	c #4B4B4B",
"l	c #5B88B2",
"m	c #9EB8D1",
"n	c #5080AD",
"o	c #B5C9DC",
"p	c #AFC5DA",
"q	c #B2C7DB",
"r	c #B6CADD",
"s	c #A4BDD5",
"t	c #9CB7D1",
"u	c #080D11",
"v	c #181818",
"w	c #343434",
"x	c #7C7C7C",
"y	c #9BB6D0",
"z	c #A0BAD3",
"A	c #9AB5CF",
"B	c #97B3CE",
"C	c #5F8BB4",
"D	c #ACACAC",
"E	c #919191",
"F	c #91B0CC",
"G	c #95B2CE",
"H	c #4C79A3",
"I	c #868686",
"J	c #8B8B8B",
"K	c #878787",
"L	c #49749C",
"M	c #3F6588",
"N	c #2A435B",
"O	c #828282",
"P	c #456F96",
"Q	c #375978",
"R	c #A2A2A2",
"S	c #AEAEAE",
"T	c #7A7A7A",
"U	c #9C9C9C",
"V	c #535353",
"W	c #6A6A6A",
"X	c #595959",
"Y	c #4C4C4C",
"                        ",
"    .+@#$               ",
"   %&*=-;$@             ",
"  @>,')!&~@             ",
"  @{>*]^/~@             ",
"  @,()!)'_@             ",
"  @:<[}|12@             ",
"  @3455678@             ",
"  @90_abcd@             ",
"  @efgh]b@@             ",
"   iddj;k@@             ",
"    @@@@@@l@            ",
"   @@@@@@@mn@   .+@#$   ",
"   @opqrrrstnuvwx*=-;$@ ",
"   @yzttyAztBC@!DE)!&~@ ",
"   @FmAAytttzGH@IJK^/~@ ",
"   @LMMMMMMMMN@&I!O)'_@ ",
"   @PQQQQQMMN@@e>RS|12@ ",
"   @@@@@@@MN@ @E~J5678@ ",
"         @N@  @TU_abcV@ ",
"         @@   @~fgh]WX@ ",
"         @     iddj;Yv  ",
"                @@@@@   ",
"                        "};
