/* XPM */
static char * ico_xml_xpm[] = {
"14 14 11 1",
" 	c None",
".	c #222970",
"+	c #3A407F",
"@	c #9C9FBF",
"#	c #B5B7CF",
"$	c #6B709F",
"%	c #E5E6EE",
"&	c #8387AF",
"*	c #FFFFFF",
"=	c #52578F",
"-	c #CDCFDF",
"..............",
"..............",
"..............",
".......+@##@+.",
".......+$$$#%.",
"......+....&*.",
"....&%=...+%$.",
"..&%@+...$%+..",
"+-%+.....%$...",
"..&-&....#=...",
"....&-=.......",
"......+..*$...",
"..............",
".............."};
