/* XPM */
static char * ico_html_xpm[] = {
"14 14 124 2",
"  	c None",
". 	c #6F6D6F",
"+ 	c #969596",
"@ 	c #979597",
"# 	c #959595",
"$ 	c #908D8E",
"% 	c #696767",
"& 	c #727172",
"* 	c #898689",
"= 	c #EEEBEE",
"- 	c #F6F5F6",
"; 	c #F5F4F5",
"> 	c #EEEAED",
", 	c #938D92",
"' 	c #C7C6C7",
") 	c #7B797B",
"! 	c #4E688A",
"~ 	c #4F6E86",
"{ 	c #88919C",
"] 	c #EAEDF1",
"^ 	c #FAFAFB",
"/ 	c #A3A1A3",
"( 	c #C2C2C2",
"_ 	c #C6C5C6",
": 	c #5C5A5C",
"< 	c #5F8AB1",
"[ 	c #AD9F79",
"} 	c #E5CF95",
"| 	c #91A5A2",
"1 	c #557597",
"2 	c #375683",
"3 	c #B2B7C0",
"4 	c #C4C1C4",
"5 	c #9A9797",
"6 	c #7B7876",
"7 	c #464345",
"8 	c #9FB1B6",
"9 	c #FAEAD6",
"0 	c #EFDCAA",
"a 	c #CBB772",
"b 	c #748684",
"c 	c #275098",
"d 	c #4F5F7B",
"e 	c #D0CCD4",
"f 	c #F1E8E8",
"g 	c #CCC2BC",
"h 	c #676462",
"i 	c #31659D",
"j 	c #B0BEC5",
"k 	c #FBEEE0",
"l 	c #F1CF86",
"m 	c #9E9E8A",
"n 	c #4C7DBE",
"o 	c #2D59A8",
"p 	c #22406B",
"q 	c #989AA2",
"r 	c #F3EAE6",
"s 	c #E2D6CE",
"t 	c #706963",
"u 	c #4B6B96",
"v 	c #759CC7",
"w 	c #C6C1A0",
"x 	c #90A1A6",
"y 	c #6692CC",
"z 	c #437ED1",
"A 	c #2A56A3",
"B 	c #1C3660",
"C 	c #7F8589",
"D 	c #F3E5DA",
"E 	c #E1D1C0",
"F 	c #726960",
"G 	c #213B5B",
"H 	c #4872A1",
"I 	c #597896",
"J 	c #7B7E75",
"K 	c #526677",
"L 	c #3B5676",
"M 	c #193565",
"N 	c #1B2A3D",
"O 	c #82807F",
"P 	c #EEDDCE",
"Q 	c #E2CEB8",
"R 	c #71665D",
"S 	c #4C5053",
"T 	c #717685",
"U 	c #8C94A1",
"V 	c #83898D",
"W 	c #8B857F",
"X 	c #96918F",
"Y 	c #62666B",
"Z 	c #7A777D",
"` 	c #6B6263",
" .	c #E2D1BD",
"..	c #DFCAAD",
"+.	c #706558",
"@.	c #676467",
"#.	c #828082",
"$.	c #A4A0A4",
"%.	c #969396",
"&.	c #908D90",
"*.	c #ABA6AB",
"=.	c #8B888B",
"-.	c #5F5B5E",
";.	c #75695E",
">.	c #E0C3A3",
",.	c #726455",
"'.	c #363436",
").	c #6F6F6F",
"!.	c #4E4C4E",
"~.	c #5D595D",
"{.	c #616161",
"].	c #464546",
"^.	c #767676",
"/.	c #454445",
"(.	c #504E4B",
"_.	c #91816B",
":.	c #D4B591",
"<.	c #706252",
"[.	c #363536",
"}.	c #403F40",
"|.	c #313031",
"1.	c #45413D",
"2.	c #6E6353",
"3.	c #4E4640",
"                            ",
"        . + @ # $ % &       ",
"        * = - ; > , ' )     ",
"        ! ~ { ] ^ / ( _ :   ",
"    < [ } | 1 2 3 4 5 6 7   ",
"    8 9 0 a b c d e f g h   ",
"  i j k l m n o p q r s t   ",
"  u v w x y z A B C D E F   ",
"  G H I J K L M N O P Q R   ",
"  S T U V W X Y Z `  ...+.  ",
"  @.#.$.%.&.*.) =.-.;.>.,.  ",
"  '.).!.~.{.].^./.(._.:.<.  ",
"      [.}.|.|.|.|.1.2.<.3.  ",
"                            "};
