/* XPM */
static char * ico_break_xpm[] = {
"16 16 58 1",
" 	c None",
".	c #000000",
"+	c #BFBFBF",
"@	c #F5F5F5",
"#	c #F6F6F6",
"$	c #F7F7F7",
"%	c #F8F8F8",
"&	c #F9F9F9",
"*	c #B9B9B9",
"=	c #E1E1E1",
"-	c #E2E2E2",
";	c #E3E3E3",
">	c #E4E4E4",
",	c #E5E5E5",
"'	c #A8A8A8",
")	c #E8E8E8",
"!	c #E9E9E9",
"~	c #EAEAEA",
"{	c #EBEBEB",
"]	c #EDEDED",
"^	c #EEEEEE",
"/	c #EFEFEF",
"(	c #A4A4A4",
"_	c #A5A5A5",
":	c #A6A6A6",
"<	c #A7A7A7",
"[	c #A9A9A9",
"}	c #AAAAAA",
"|	c #ABABAB",
"1	c #ACACAC",
"2	c #ADADAD",
"3	c #AEAEAE",
"4	c #F0F0F0",
"5	c #E7E7E7",
"6	c #F1F1F1",
"7	c #B7B7B7",
"8	c #757575",
"9	c #767676",
"0	c #777777",
"a	c #787878",
"b	c #F3F3F3",
"c	c #F4F4F4",
"d	c #C4C4C4",
"e	c #797979",
"f	c #7A7A7A",
"g	c #BBBBBB",
"h	c #AFAFAF",
"i	c #B1B1B1",
"j	c #B2B2B2",
"k	c #B3B3B3",
"l	c #B4B4B4",
"m	c #B5B5B5",
"n	c #B6B6B6",
"o	c #FBFBFB",
"p	c #FAFAFA",
"q	c #FCFCFC",
"r	c #BEBEBE",
"s	c #C1C1C1",
" .............  ",
" +@@####$$%%&&* ",
".@=-;>,')!~{]^/.",
".@(_:<'[[}|1234.",
".#;>,5)!~{]^/46.",
".)57>#!88900aab.",
".!).7#~{]^/46bc.",
".....d{900aaef@.",
".{~._$]^/46bc@#.",
".]{g!$^0aaec@#$.",
".%~{]^/46bc@#$&.",
".&123hhiijklmno.",
".&^/46bi@#$&poq.",
".r/46bc@#$&poqs ",
"  ............  ",
"                "};
