/* XPM */
static char * ico_join2_xpm[] = {
"16 16 30 1",
" 	c None",
".	c #000000",
"+	c #D7D7D7",
"@	c #C9C9C9",
"#	c #CCCCCC",
"$	c #ACACAC",
"%	c #B0B0B0",
"&	c #B1B1B1",
"*	c #B5B5B5",
"=	c #625B81",
"-	c #A2A2A2",
";	c #939393",
">	c #FFFFFF",
",	c #F2F2F2",
"'	c #AEAEAE",
")	c #C0C0C0",
"!	c #A1A1A1",
"~	c #C3C3C3",
"{	c #C4C4C4",
"]	c #BEBEBE",
"^	c #E4E4E4",
"/	c #AFAFAF",
"(	c #737373",
"_	c #727272",
":	c #E7E7E7",
"<	c #C7C7C7",
"[	c #BDBDBD",
"}	c #8B8B8B",
"|	c #BBBBBB",
"1	c #020202",
"                ",
" .............. ",
" .+++@++++@++@. ",
" .+##$####$##%. ",
" .+##$####$##&. ",
" .*=========-;. ",
" .>=,,$,,,,='). ",
" .>=$$$$$$$=!~. ",
" .>=,,$,,,,=!~. ",
" .>=,,$,,,,=!{. ",
" .>=,,$,,,,=!]. ",
" .>=========!]. ",
" .>^/(!!!!_!'). ",
" .:<[}||||}|[&. ",
" .............1 ",
"                "};
