/* XPM */
static char * ico_image_xpm[] = {
"24 24 147 2",
"  	c None",
". 	c #000000",
"+ 	c #0E0E0E",
"@ 	c #282828",
"# 	c #616161",
"$ 	c #D3D3D3",
"% 	c #F6F6F6",
"& 	c #FFFFFF",
"* 	c #F9F9F9",
"= 	c #F9F9F8",
"- 	c #E7E7E7",
"; 	c #E4E4E4",
"> 	c #CDCDCD",
", 	c #1F1F1F",
"' 	c #EFEFEE",
") 	c #AFAFAE",
"! 	c #E9E9E9",
"~ 	c #B3B3B3",
"{ 	c #383838",
"] 	c #FEFEFE",
"^ 	c #FDFDFD",
"/ 	c #EEEEEE",
"( 	c #A4A4A3",
"_ 	c #F0F0F0",
": 	c #F4F4F4",
"< 	c #ABABAB",
"[ 	c #050505",
"} 	c #FCFCFB",
"| 	c #FBFBFB",
"1 	c #F2F2F2",
"2 	c #9E9E9E",
"3 	c #FAFAF9",
"4 	c #989898",
"5 	c #292929",
"6 	c #292928",
"7 	c #949494",
"8 	c #D4D4D3",
"9 	c #B9B7B6",
"0 	c #838381",
"a 	c #848381",
"b 	c #6A6763",
"c 	c #969696",
"d 	c #494227",
"e 	c #EFE3BC",
"f 	c #F5E9BF",
"g 	c #ECDEAF",
"h 	c #888887",
"i 	c #DCDAD8",
"j 	c #CACAC8",
"k 	c #B6B6B4",
"l 	c #72706C",
"m 	c #F8F8F7",
"n 	c #F8F7F6",
"o 	c #F2E1A5",
"p 	c #EED680",
"q 	c #E0C978",
"r 	c #272727",
"s 	c #F0EFED",
"t 	c #E5E4E2",
"u 	c #C4C3C0",
"v 	c #817D74",
"w 	c #EBEAE8",
"x 	c #E1DFDC",
"y 	c #8B867D",
"z 	c #E87B61",
"A 	c #E46143",
"B 	c #A59458",
"C 	c #272726",
"D 	c #E5E5E2",
"E 	c #A49E93",
"F 	c #F6F5F4",
"G 	c #F5F5F3",
"H 	c #DF421E",
"I 	c #C2C8D0",
"J 	c #BBA764",
"K 	c #8C8B89",
"L 	c #E2E1DF",
"M 	c #E4E3E0",
"N 	c #F4F3F2",
"O 	c #F3F2F1",
"P 	c #828282",
"Q 	c #8BA2BB",
"R 	c #262626",
"S 	c #8D8C8B",
"T 	c #E5E4E1",
"U 	c #E2E1DE",
"V 	c #7E240F",
"W 	c #C7D0D8",
"X 	c #7590AE",
"Y 	c #617891",
"Z 	c #434342",
"` 	c #E8E7E5",
" .	c #F0F0EE",
"..	c #EFEFED",
"+.	c #6A6A6A",
"@.	c #9EB1C6",
"#.	c #A1A09E",
"$.	c #E3E2DF",
"%.	c #E2E0DD",
"&.	c #E1E0DC",
"*.	c #E0DFDB",
"=.	c #A19C90",
"-.	c #EDEDEB",
";.	c #EDECEA",
">.	c #E3E2DE",
",.	c #DFDEDA",
"'.	c #DEDDD9",
").	c #DDDCD8",
"!.	c #A19B90",
"~.	c #E9E8E6",
"{.	c #E8E7E4",
"].	c #DCDBD7",
"^.	c #E7E6E3",
"/.	c #E6E5E2",
"(.	c #E6E4E1",
"_.	c #E5E4E0",
":.	c #E4E3DF",
"<.	c #E2E1DD",
"[.	c #DBD9D5",
"}.	c #D9D7D3",
"|.	c #9F998D",
"1.	c #E4E2DF",
"2.	c #DDDBD7",
"3.	c #DCDAD6",
"4.	c #D8D6D2",
"5.	c #9E988D",
"6.	c #EDEDED",
"7.	c #E1E0DD",
"8.	c #E0DEDA",
"9.	c #D8D6D1",
"0.	c #D7D5D1",
"a.	c #9D978B",
"b.	c #D1D1D1",
"c.	c #E1DFDB",
"d.	c #DEDCD8",
"e.	c #D7D6D1",
"f.	c #D5D3CE",
"g.	c #9B958A",
"h.	c #999891",
"i.	c #A39E92",
"j.	c #A39D92",
"k.	c #A39D91",
"l.	c #A29C90",
"m.	c #A19B8F",
"n.	c #9D978C",
"o.	c #9B968A",
"p.	c #676359",
"                                                ",
"      . . . . . . . . . . . . . + @ #           ",
"    . $ % & & & & & & & & * = = - ; > ,         ",
"    . % & & & & & & & & & & = ' ) ! & ~ {       ",
"    . & & & & & & & ] & ] ^ = / ( _ & : < [     ",
"    . & & & & & ] ^ } ^ } | = 1 2 . . . . .     ",
"    . & & & ] ^ } | 3 4 5 . 6 7 8 9 0 a b .     ",
"    . & ] ^ } | 3 = c d e f g d h i j k l .     ",
"    . & } | 3 = m n @ e o p p q r s t u v .     ",
"    . & 3 = . . . . . . p p p p . w x x y .     ",
"    . & m n . z A A A . . B p q C D x x E .     ",
"    . & F G . A H H H . I . J d K L M x E .     ",
"    . & N O . A H H H P Q . R S T M U x E .     ",
"    . & N O . A H H V W X Y Z ` T M U x E .     ",
"    . &  .... A H H +.@.X X . #.$.%.&.*.=..     ",
"    . & -.;.. . . . W X X X Y . >.,.'.).!..     ",
"    . & w ~.~.` {.. . . . . . . *.'.).].!..     ",
"    . & ^./././.T (._.(._.:.<.*.'.].[.}.|..     ",
"    . * M $.>.1.:.<.>.<.>.&.&.'.2.3.}.4.5..     ",
"    . 6.7.x &.*.<.*.&.*.&.,.8.2.3.}.9.0.a..     ",
"    . b.c.8.,.'.*.'.8.'.8.d.d.3.3.4.e.f.g..     ",
"    . h.i.E j.k.j.=.l.=.l.m.!.|.|.n.n.o.p..     ",
"      . . . . . . . . . . . . . . . . . .       ",
"                                                "};
