/* XPM */
static char * ico_colors_xpm[] = {
"16 16 41 1",
" 	c None",
".	c #A8A8A8",
"+	c #9C9C9C",
"@	c #D6D6D6",
"#	c #FAFAFA",
"$	c #979797",
"%	c #292929",
"&	c #000000",
"*	c #F6F6F6",
"=	c #F1F1F1",
"-	c #494227",
";	c #EFE3BC",
">	c #F5E9BF",
",	c #ECDEAF",
"'	c #939393",
")	c #F2E1A5",
"!	c #EED680",
"~	c #E0C978",
"{	c #272727",
"]	c #E87B61",
"^	c #E46143",
"/	c #A59458",
"(	c #DF421E",
"_	c #C2C8D0",
":	c #BBA764",
"<	c #828282",
"[	c #8BA2BB",
"}	c #959595",
"|	c #F2F2F2",
"1	c #7E240F",
"2	c #C7D0D8",
"3	c #7590AE",
"4	c #617891",
"5	c #474747",
"6	c #6A6A6A",
"7	c #9EB1C6",
"8	c #ABABAB",
"9	c #F4F4F4",
"0	c #F3F3F3",
"a	c #AAAAAA",
"b	c #A9A9A9",
" .+++++++++++++ ",
"+@############@+",
"+######$%&%$*=#+",
"+#####$-;>,-'=#+",
"+#####%;)!!~{=#+",
"+#&&&&&&!!!!&=#+",
"+#&]^^^&&/!~{=#+",
"+#&^(((&_&:-'=#+",
"+#&^(((<[&%}|=#+",
"+#&^((12345*|=#+",
"+#&^((6733&8|=#+",
"+#&&&&23334&==#+",
"+#999&&&&&&&==#+",
"+#000000000==*#+",
"+@############@a",
" +++++++++++++b "};
