/* XPM */
static char * chars_xpm[] = {
"16 16 59 1",
" 	c None",
".	c #000000",
"+	c #FFFFFF",
"@	c #E7E7E7",
"#	c #E8E8E8",
"$	c #E9E9E9",
"%	c #EAEAEA",
"&	c #ECECEC",
"*	c #EDEDED",
"=	c #EEEEEE",
"-	c #EFEFEF",
";	c #C6C6C6",
">	c #B3B3B3",
",	c #EBEBEB",
"'	c #F0F0F0",
")	c #F1F1F1",
"!	c #F2F2F2",
"~	c #F3F3F3",
"{	c #B4B4B4",
"]	c #7D7D7D",
"^	c #1A1A1A",
"/	c #131313",
"(	c #282828",
"_	c #B2B2B2",
":	c #F4F4F4",
"<	c #CECECE",
"[	c #E5E5E5",
"}	c #8B8B8B",
"|	c #212121",
"1	c #F5F5F5",
"2	c #F6F6F6",
"3	c #B7B7B7",
"4	c #C7C7C7",
"5	c #494949",
"6	c #151515",
"7	c #181818",
"8	c #030303",
"9	c #F7F7F7",
"0	c #F8F8F8",
"a	c #121212",
"b	c #838383",
"c	c #C8C8C8",
"d	c #020202",
"e	c #F9F9F9",
"f	c #FAFAFA",
"g	c #BABABA",
"h	c #D5D5D5",
"i	c #D7D7D7",
"j	c #909090",
"k	c #FCFCFC",
"l	c #757575",
"m	c #0E0E0E",
"n	c #7C7C7C",
"o	c #2A2A2A",
"p	c #FBFBFB",
"q	c #FDFDFD",
"r	c #BCBCBC",
"s	c #FEFEFE",
"t	c #C1C1C1",
"   ............ ",
"  .++++++++++++.",
" ...@@@@#$%&*=-.",
"  .;>@@$%,&*-').",
" ...@#$%&*=-'!~.",
"  .;{%,]^/(_!~:.",
" ...%&*<['}|:12.",
"  .;3*-45678290.",
" ...=-[ab&cd9ef.",
"  .;g)h.i1jdefk.",
" ...!~:lm|nopkq.",
"  .;r:290efkqs+.",
" ...129efpkq+++.",
"  .;tfpkq++++++.",
"   ............ ",
"                "};
