/* XPM */
static char * ico_alert_xpm[] = {
"12 12 103 2",
"  	c None",
". 	c #D83A1A",
"+ 	c #D53718",
"@ 	c #D03116",
"# 	c #CA2B13",
"$ 	c #D23317",
"% 	c #E16A52",
"& 	c #EFA695",
"* 	c #F0BBB0",
"= 	c #EAB6AC",
"- 	c #E0978B",
"; 	c #D1594A",
"> 	c #BE1F0D",
", 	c #C92A12",
"' 	c #DB6854",
") 	c #EDA99C",
"! 	c #ECA89B",
"~ 	c #FFFFFF",
"{ 	c #BD857D",
"] 	c #D3958C",
"^ 	c #CC594D",
"/ 	c #B7180A",
"( 	c #C42710",
"_ 	c #E08677",
": 	c #E58E80",
"< 	c #E08C7D",
"[ 	c #71453F",
"} 	c #B16C64",
"| 	c #D2796F",
"1 	c #B41609",
"2 	c #B71D0C",
"3 	c #BD230E",
"4 	c #D66C5C",
"5 	c #D97363",
"6 	c #D4705F",
"7 	c #4A2621",
"8 	c #9B4E46",
"9 	c #C65E54",
"0 	c #B11408",
"a 	c #AB0E05",
"b 	c #AE190A",
"c 	c #B41D0C",
"d 	c #C13727",
"e 	c #CC5545",
"f 	c #C75242",
"g 	c #401915",
"h 	c #90382F",
"i 	c #B32B20",
"j 	c #AD1106",
"k 	c #A70C04",
"l 	c #A51408",
"m 	c #AB180A",
"n 	c #B01B0B",
"o 	c #B52415",
"p 	c #B52F1F",
"q 	c #3F0F0B",
"r 	c #83160C",
"s 	c #A41006",
"t 	c #A50D05",
"u 	c #A00903",
"v 	c #9A0F06",
"w 	c #9E1207",
"x 	c #A31409",
"y 	c #A71609",
"z 	c #A51608",
"A 	c #861107",
"B 	c #510A04",
"C 	c #510903",
"D 	c #820C04",
"E 	c #9C0C04",
"F 	c #9C0A03",
"G 	c #990602",
"H 	c #8F0A04",
"I 	c #920C05",
"J 	c #960E06",
"K 	c #9B0F07",
"L 	c #980F06",
"M 	c #610803",
"N 	c #820903",
"O 	c #940802",
"P 	c #930602",
"Q 	c #860803",
"R 	c #8A0904",
"S 	c #8D0A04",
"T 	c #8C0903",
"U 	c #480401",
"V 	c #710401",
"W 	c #860400",
"X 	c #880200",
"Y 	c #800502",
"Z 	c #810602",
"` 	c #7F0501",
" .	c #6A0401",
"..	c #450201",
"+.	c #450200",
"@.	c #670200",
"#.	c #7C0000",
"$.	c #7A0200",
"%.	c #780100",
"&.	c #6E0100",
"*.	c #610000",
"=.	c #5F0000",
"-.	c #680000",
"        . + @ #         ",
"    $ % & * = - ; >     ",
"  , ' ) ! ~ ~ { ] ^ /   ",
"  ( _ : < ~ ~ [ } | 1   ",
"2 3 4 5 6 ~ ~ 7 8 9 0 a ",
"b c d e f ~ ~ g h i j k ",
"l m n o p ~ ~ q r s t u ",
"v w x y z A B C D E F G ",
"H I J K L ~ ~ M N O P   ",
"  Q R S T ~ ~ U V W X   ",
"    Y Z `  ...+.@.#.    ",
"      $.%.&.*.=.-.      "};
