/* XPM */
static char * ico_import_xpm[] = {
"24 24 90 1",
" 	c None",
".	c #000000",
"+	c #F5E8BC",
"@	c #F1DE9C",
"#	c #E7C654",
"$	c #E4BF3D",
"%	c #CBA41C",
"&	c #EED88B",
"*	c #ECD175",
"=	c #E9CC66",
"-	c #E6C551",
";	c #F0DC97",
">	c #E7C758",
",	c #F3E3AC",
"'	c #D4AB1D",
")	c #FEFEFE",
"!	c #FDFDFD",
"~	c #E0E0E0",
"{	c #C1C1C1",
"]	c #E2BA31",
"^	c #E1B726",
"/	c #F1F1F1",
"(	c #C3C3C3",
"_	c #FBFBFB",
":	c #A8A8A8",
"<	c #B0B0B0",
"[	c #ADADAD",
"}	c #767676",
"|	c #5D5D5D",
"1	c #404040",
"2	c #436A92",
"3	c #7499BF",
"4	c #F0F0F0",
"5	c #E2E2E2",
"6	c #858585",
"7	c #4B4B49",
"8	c #161616",
"9	c #8EACCB",
"0	c #ECD277",
"a	c #AA8917",
"b	c #EFEFEF",
"c	c #EEEEEE",
"d	c #C5C5C5",
"e	c #789CC1",
"f	c #B3C7DC",
"g	c #AFAFAF",
"h	c #ECECEC",
"i	c #C4C4C4",
"j	c #8DABCA",
"k	c #C6D5E5",
"l	c #EBEBEB",
"m	c #D4DFEB",
"n	c #9CB6D1",
"o	c #D0DCE9",
"p	c #060A0F",
"q	c #EDEDED",
"r	c #EAEAEA",
"s	c #CDDAE8",
"t	c #CEDBE9",
"u	c #E8E8E8",
"v	c #C0C0C0",
"w	c #436B94",
"x	c #ABC1D8",
"y	c #BBCDE0",
"z	c #BACCDF",
"A	c #E9E9E9",
"B	c #E7E7E7",
"C	c #BFBFBF",
"D	c #3D6186",
"E	c #C8D6E5",
"F	c #E6E6E6",
"G	c #E5E5E5",
"H	c #BEBEBE",
"I	c #507FAF",
"J	c #456D96",
"K	c #6D94BC",
"L	c #82A3C5",
"M	c #7FA1C4",
"N	c #47719C",
"O	c #E4E4E4",
"P	c #BDBDBD",
"Q	c #1F3246",
"R	c #345271",
"S	c #E3E3E3",
"T	c #BBBBBB",
"U	c #324F6D",
"V	c #335170",
"W	c #1E2F41",
"X	c #BCBCBC",
"Y	c #A0A0A0",
"                        ",
"         ...            ",
"        .+@#.           ",
"        .@$%.           ",
"      ...@$%...         ",
"     .&**=$-;;>.....    ",
"     .,$$$$$$$'.)!~{.   ",
"     .]%%$$^%%%.//(_:.  ",
"  ..  ...;$%...<//[}|1. ",
" .23.   .;$%.////45678. ",
" .9.    .0%a.bbbbbbccd. ",
".ef.   . ...gbbccccchi. ",
".jk.   .. .!ccccccccl(. ",
".jmn.  .op.!qhhhllrrr{. ",
".jsfn...tm.!luuuuuuuuv. ",
".wxyfzzzznm.rrAAuuuBBC. ",
" DjjxnnnnnnE.FFFFFFFGH. ",
" .IJKeLLLLMMN.FFFGGOOP. ",
" .QRJJJJJJJN.GGGOOSSST. ",
"  ..UVVVJJNWPPPXXTTTTY. ",
"    ....JN............  ",
"       .N.              ",
"       ..               ",
"       .                "};
