/* XPM */
static char * ico_handata_xpm[] = {
"32 32 303 2",
"  	c None",
". 	c #323232",
"+ 	c #414141",
"@ 	c #080808",
"# 	c #010101",
"$ 	c #070707",
"% 	c #363636",
"& 	c #252525",
"* 	c #161616",
"= 	c #474747",
"- 	c #757575",
"; 	c #8C8C8C",
"> 	c #959595",
", 	c #929292",
"' 	c #8F8F8F",
") 	c #8A8A8A",
"! 	c #7F7F7F",
"~ 	c #626262",
"{ 	c #3C3C3C",
"] 	c #111111",
"^ 	c #272727",
"/ 	c #000000",
"( 	c #787878",
"_ 	c #A0A0A0",
": 	c #9D9D9D",
"< 	c #999999",
"[ 	c #949494",
"} 	c #909090",
"| 	c #8D8D8D",
"1 	c #898989",
"2 	c #858585",
"3 	c #818181",
"4 	c #7D7D7D",
"5 	c #5C5C5C",
"6 	c #060606",
"7 	c #A4A4A4",
"8 	c #9F9F9F",
"9 	c #9B9B9B",
"0 	c #979797",
"a 	c #8B8B8B",
"b 	c #878787",
"c 	c #838383",
"d 	c #808080",
"e 	c #7C7C7C",
"f 	c #676767",
"g 	c #606060",
"h 	c #717171",
"i 	c #A7A7A7",
"j 	c #A2A2A2",
"k 	c #7E7E7E",
"l 	c #7A7A7A",
"m 	c #777777",
"n 	c #737373",
"o 	c #4E4E4E",
"p 	c #434343",
"q 	c #030303",
"r 	c #A3A3A3",
"s 	c #707070",
"t 	c #6A6A6A",
"u 	c #020202",
"v 	c #A6A6A6",
"w 	c #6E6E6E",
"x 	c #6C6C6C",
"y 	c #2D2D2D",
"z 	c #050505",
"A 	c #6F6F6F",
"B 	c #191919",
"C 	c #9E9E9E",
"D 	c #464646",
"E 	c #727272",
"F 	c #B1B1B1",
"G 	c #989898",
"H 	c #888888",
"I 	c #7B7B7B",
"J 	c #666666",
"K 	c #484848",
"L 	c #212121",
"M 	c #ABABAB",
"N 	c #C2C2C2",
"O 	c #BFBFBF",
"P 	c #BBBBBB",
"Q 	c #BABABA",
"R 	c #AEAEAE",
"S 	c #686868",
"T 	c #555555",
"U 	c #353535",
"V 	c #222222",
"W 	c #0C0C0C",
"X 	c #797979",
"Y 	c #5B5B5B",
"Z 	c #696969",
"` 	c #525252",
" .	c #5F5F5F",
"..	c #454545",
"+.	c #3D3D3D",
"@.	c #515151",
"#.	c #1E1E1E",
"$.	c #342F29",
"%.	c #27241E",
"&.	c #0B0B0B",
"*.	c #232323",
"=.	c #505050",
"-.	c #A099B5",
";.	c #938EA6",
">.	c #202020",
",.	c #3F362E",
"'.	c #8E7A65",
").	c #AA9885",
"!.	c #DFD5CB",
"~.	c #DED4CB",
"{.	c #E4DBD3",
"].	c #E0D6CD",
"^.	c #C8B7A6",
"/.	c #907B64",
"(.	c #605447",
"_.	c #403D37",
":.	c #1A1A1A",
"<.	c #424242",
"[.	c #AAA4BD",
"}.	c #908CA0",
"|.	c #0A0A0A",
"1.	c #A89581",
"2.	c #CEBFAF",
"3.	c #E5DDD6",
"4.	c #E1D7CE",
"5.	c #E5DCD5",
"6.	c #DBD0C6",
"7.	c #DDD2C8",
"8.	c #D7CABD",
"9.	c #C2AF9C",
"0.	c #A18970",
"a.	c #524437",
"b.	c #1B1A19",
"c.	c #090808",
"d.	c #4F4F4F",
"e.	c #918AA9",
"f.	c #77718B",
"g.	c #988C7F",
"h.	c #DCD1C5",
"i.	c #DBCFC4",
"j.	c #D6C9BD",
"k.	c #DED3C9",
"l.	c #D5C8BC",
"m.	c #D4C7BB",
"n.	c #D1C3B6",
"o.	c #D1C2B4",
"p.	c #CDBDAE",
"q.	c #A5896E",
"r.	c #76614C",
"s.	c #3C342A",
"t.	c #060505",
"u.	c #5D5D5D",
"v.	c #545454",
"w.	c #7F779B",
"x.	c #706989",
"y.	c #938474",
"z.	c #CEBEAF",
"A.	c #CEBFB1",
"B.	c #C7B5A4",
"C.	c #BEA995",
"D.	c #201E1D",
"E.	c #393838",
"F.	c #030302",
"G.	c #565554",
"H.	c #121212",
"I.	c #7B7397",
"J.	c #6D6585",
"K.	c #897966",
"L.	c #C5B3A2",
"M.	c #D7CABE",
"N.	c #CBBBAC",
"O.	c #C1AD9A",
"P.	c #BCA793",
"Q.	c #CABAAA",
"R.	c #CCBCAD",
"S.	c #BDA894",
"T.	c #6F5C49",
"U.	c #322A23",
"V.	c #1C1B16",
"W.	c #494644",
"X.	c #817F7C",
"Y.	c #393430",
"Z.	c #1F1D1C",
"`.	c #010000",
" +	c #776F93",
".+	c #696282",
"++	c #8C7C67",
"@+	c #C1AE9C",
"#+	c #DACEC3",
"$+	c #A3866A",
"%+	c #5F4C3A",
"&+	c #614E3C",
"*+	c #95785C",
"=+	c #B19982",
"-+	c #C2AF9D",
";+	c #C4B19E",
">+	c #665442",
",+	c #100E0B",
"'+	c #544C45",
")+	c #766F67",
"!+	c #312821",
"~+	c #1C1713",
"{+	c #2D261F",
"]+	c #040303",
"^+	c #726B90",
"/+	c #655E7F",
"(+	c #8A7765",
"_+	c #BEAA97",
":+	c #C9B8A8",
"<+	c #E8E1DB",
"[+	c #AA9077",
"}+	c #A18468",
"|+	c #826951",
"1+	c #725C47",
"2+	c #A98E74",
"3+	c #C3B09E",
"4+	c #C4B19F",
"5+	c #C7B6A6",
"6+	c #BFAB98",
"7+	c #AC9279",
"8+	c #564535",
"9+	c #392F25",
"0+	c #524539",
"a+	c #4C4137",
"b+	c #A6988A",
"c+	c #B7A18A",
"d+	c #332D26",
"e+	c #6E678C",
"f+	c #615B7C",
"g+	c #040403",
"h+	c #887865",
"i+	c #BAA48F",
"j+	c #D7CBBF",
"k+	c #EBE5E0",
"l+	c #D2C4B7",
"m+	c #B69F89",
"n+	c #866C53",
"o+	c #816850",
"p+	c #705A45",
"q+	c #6A5541",
"r+	c #6B5642",
"s+	c #5A4938",
"t+	c #7C6650",
"u+	c #9D856E",
"v+	c #D8CABC",
"w+	c #CCBCAC",
"x+	c #C5B09A",
"y+	c #4E4339",
"z+	c #6A6388",
"A+	c #5F5878",
"B+	c #0B0907",
"C+	c #887563",
"D+	c #B49D87",
"E+	c #D0C1B3",
"F+	c #D3C5B8",
"G+	c #DCD1C7",
"H+	c #CFC0B2",
"I+	c #A9927A",
"J+	c #564B3E",
"K+	c #2F2924",
"L+	c #665F84",
"M+	c #5D5574",
"N+	c #12100D",
"O+	c #847461",
"P+	c #AC947C",
"Q+	c #C0AC99",
"R+	c #C7B6A5",
"S+	c #BAA58F",
"T+	c #7D6A56",
"U+	c #3E3329",
"V+	c #0E0C09",
"W+	c #625B80",
"X+	c #565071",
"Y+	c #595271",
"Z+	c #0D0B09",
"`+	c #3F382E",
" @	c #7F6A53",
".@	c #AF967E",
"+@	c #C4B2A1",
"@@	c #A89178",
"#@	c #937B62",
"$@	c #71604E",
"%@	c #53483B",
"&@	c #0F0D0A",
"*@	c #010100",
"=@	c #191610",
"-@	c #2D2822",
";@	c #2A241D",
">@	c #4D4235",
",@	c #927C65",
"'@	c #A78B70",
")@	c #C1AD98",
"!@	c #B39C85",
"~@	c #A28A71",
"{@	c #867059",
"]@	c #7E6A55",
"^@	c #5D4F40",
"/@	c #5B4E3F",
"(@	c #605344",
"_@	c #4D4538",
":@	c #4C4237",
"<@	c #39322A",
"[@	c #181411",
"                                                                ",
"                                                                ",
"                    . + @ # # $ % &                             ",
"                * = - ; > , ' ) ! ~ { ]                         ",
"            ^ / ( _ : < [ } | 1 2 3 4 5 / / 6 % &               ",
"            / [ 7 8 9 0 , ' a b c d e ( f / g ! ~ { ]           ",
"          . h i j : < [ } | 1 2 3 k l m n o p 2 3 4 5 / /       ",
"          q r 7 8 9 0 , ' a b c d e ( - s t u c d e ( f /       ",
"          u v j : < [ } | 1 2 3 k l m n w x # 3 k l m n o y     ",
"          # 7 8 9 0 , ' a b c d e ( - s x - / d e ( - s t u     ",
"          z 8 j < [ } | 1 2 3 k l m n w A f / k l m n w x #     ",
"          B e C r , ' a b c d e ( - s m x D / e ( - s x - /     ",
"          6 E d [ F G H 2 3 k I e 3 b J K L / l m n w A f /     ",
"          z , s w d M N O P Q Q R S T U V T / ( - s m x D /     ",
"          W 4 c X Y Y Z E - n x ~ / / `  .../ e 3 b J K L /     ",
"/ / / / / / n g +.@.#.$.%./ / / &.*.=.~ K L / R S T U V T /     ",
"-.-.-.-.;./ p >.,.'.).!.~.{.].^./.(._.:.* <.$ ~ / / `  .../     ",
"[.[.[.[.}./ |.1.2.3.4.5.6.7.7.8.9.0.a./ b.c./ d.S ( ~ K L /     ",
"e.e.e.e.f./ g.h.i.j.k.4.l.l.m.n.o.p.q.r.s.t.o 1 u.T U V v./     ",
"w.w.w.w.x./ y.z.A.m.m.m.m.m.m.m.m.m.B.C.r./ D.E./ F.G.g H./     ",
"I.I.I.I.J./ K.L.p.j.M.N.O.P.L.Q.A.R.B.M.S.T.U.V.W.X.Y.Z.`.      ",
" + + + +.+/ ++@+N.#+z.$+%+&+*+=+-+m.m.m.n.;+>+,+'+)+!+~+{+]+    ",
"^+^+^+^+/+/ (+_+:+<+-+_+[+}+|+1+2+3+4+5+6+7+8+9+0+a+b+n.c+d+    ",
"e+e+e+e+f+g+h+i+B.j+<+k+6.l+4+m+n+o+1+p+q+r+p+s+t+u+v+w+x+y+    ",
"z+z+z+z+A+B+C+D+@+o.E+l+F+~.G+~.6.~.~.4.k.G+j+l+#+H+:+I+J+K+    ",
"L+L+L+L+M+N+O+P+Q+z.o.m.m.m.m.m.m.m.m.m.m.m.m.m.R+S+T+U+V+      ",
"W+W+W+X+Y+Z+`+ @.@4+5+R.p.A.A.n.A.A.A.A.+@P.@@#@$@%@&@          ",
"X+X+X+X+*@=@-@;@>@,@'@P.C.)@D+!@~@{@]@$@^@/@(@/ /               ",
"/ / / /           _@:@<@[@/ / / / / /                           ",
"                                                                ",
"                                                                ",
"                                                                "};
