/* XPM */
static char * ico_edit_xpm[] = {
"17 16 4 1",
" 	c None",
".	c #000000",
"+	c #FFFFFF",
"@	c #808080",
"                 ",
"                 ",
"                 ",
"  .............  ",
" .+++++++++++++. ",
" .+++++++++++++. ",
" .++.@+++++++++. ",
" .++.@+++++++++. ",
" .++.@+++++++++. ",
" .++.@+++++++++. ",
" .++.@+++++++++. ",
" .++.@+++++++++. ",
" .+++++++++++++. ",
" .+++++++++++++. ",
"  .............  ",
"                 "};
