/* XPM */
static char * ico_field_xpm[] = {
"16 16 112 2",
"  	c None",
". 	c #D0D0D0",
"+ 	c #949494",
"@ 	c #CBCACB",
"# 	c #7D7B7D",
"$ 	c #9F9F9F",
"% 	c #C7C7C7",
"& 	c #918F91",
"* 	c #AAA7AA",
"= 	c #AFAEAF",
"- 	c #D6D6D6",
"; 	c #D4D3D4",
"> 	c #D4D4D4",
", 	c #A9A9A9",
"' 	c #919091",
") 	c #B3B0B3",
"! 	c #A8A5A8",
"~ 	c #9FA09F",
"{ 	c #767476",
"] 	c #959395",
"^ 	c #989698",
"/ 	c #AFABAF",
"( 	c #AEADAE",
"_ 	c #B0ADB0",
": 	c #9E9B9E",
"< 	c #ADADAD",
"[ 	c #8F8F8F",
"} 	c #737073",
"| 	c #A6A2A6",
"1 	c #ABA9AB",
"2 	c #9E9C9E",
"3 	c #A3A2A3",
"4 	c #908F90",
"5 	c #737173",
"6 	c #9C999C",
"7 	c #9A989A",
"8 	c #979597",
"9 	c #8E8C8E",
"0 	c #A39FA3",
"a 	c #A29FA2",
"b 	c #AAA8AA",
"c 	c #CDCDC9",
"d 	c #D7D7D4",
"e 	c #8F908F",
"f 	c #6B696B",
"g 	c #A09DA0",
"h 	c #8F8E8F",
"i 	c #878887",
"j 	c #9A999A",
"k 	c #616116",
"l 	c #78783C",
"m 	c #949594",
"n 	c #686768",
"o 	c #9D9B9D",
"p 	c #928F92",
"q 	c #7A797A",
"r 	c #727072",
"s 	c #848384",
"t 	c #9A992F",
"u 	c #ADAC4D",
"v 	c #B1B1B1",
"w 	c #CECECE",
"x 	c #979797",
"y 	c #656365",
"z 	c #959295",
"A 	c #585818",
"B 	c #B5B515",
"C 	c #5D5C17",
"D 	c #E1E177",
"E 	c #D9D972",
"F 	c #676620",
"G 	c #B9B916",
"H 	c #86864F",
"I 	c #5E5A5E",
"J 	c #868286",
"K 	c #6D6D30",
"L 	c #E6E468",
"M 	c #FEFEC6",
"N 	c #FEFEC2",
"O 	c #E1DF63",
"P 	c #65652E",
"Q 	c #949394",
"R 	c #5D5A5D",
"S 	c #53513E",
"T 	c #D7D664",
"U 	c #FFFFD7",
"V 	c #FFFFD3",
"W 	c #CDCB5C",
"X 	c #5B5C49",
"Y 	c #A3A3A3",
"Z 	c #6F6E52",
"` 	c #BCBC1A",
" .	c #AEAB33",
"..	c #F0EF8C",
"+.	c #EBEA87",
"@.	c #AFAC33",
"#.	c #B8B81A",
"$.	c #84846B",
"%.	c #989874",
"&.	c #59592D",
"*.	c #343534",
"=.	c #B6B427",
"-.	c #ABA828",
";.	c #353435",
">.	c #5F602E",
",.	c #585839",
"'.	c #8B8B8B",
").	c #56560B",
"!.	c #4D4D11",
"~.	c #9C9D9C",
"{.	c #A0A081",
"].	c #A8A88F",
"      . +                       ",
"      @ # $                     ",
"      % & * =                   ",
"- ; > , ' ) ! ~                 ",
"+ { ] ^ / ( _ : <               ",
"  [ } : | * 1 ! 2 3             ",
"    4 5 6 7 8 9 0 a b c d       ",
"      e f g ' & h i j k l       ",
"        m n o p q r s t u   v w ",
"          x y z A B C D E F G H ",
"            x I J K L M N O P   ",
"              Q R S T U V W X Y ",
"                Z `  ...+.@.#.$.",
"                %.&.*.=.-.;.>.,.",
"                    '.).!.~.    ",
"                      {.].      "};
