/* XPM */
static char * ico_pdf_xpm[] = {"16 16 68 1",
"1 c #040204",
"2 c #7482A4",
"3 c #ACC6F4",
"4 c #D4E2FC",
"5 c #6CA2FC",
"6 c #ECF2FC",
"7 c #BCD2FC",
"8 c #043EE4",
"9 c #CCD2EC",
": c #ECEAEC",
"; c #6492FC",
"< c #0432E4",
"= c #8CBAFC",
"> c #F4FAFC",
"? c #CCDAFC",
"@ c #649AFC",
"A c #141A24",
"B c #E4EAEC",
"C c #E4E6EC",
"D c #84B2FC",
"E c #346ADC",
"F c #D4DAF4",
"G c #DCE2F4",
"H c #7CAAFC",
"I c #FCF6F4",
"J c #C4DAFC",
"K c #F4EEEC",
"L c #6496FC",
"M c #9CB6F4",
"N c #FCFAFC",
"O c #6C9AFC",
"P c #242A3C",
"Q c #4472EC",
"R c #14161C",
"S c #C4CEF4",
"T c #74AAFC",
"U c #F4F2F4",
"V c #D4D6EC",
"W c #ECEEF4",
"X c #1C1E2C",
"Y c #D4DEFC",
"Z c #FCFEF4",
"[ c #040A1C",
"/ c #848AA4",
"] c #B4C2EC",
"^ c #D4E6FC",
"_ c #74A2FC",
"` c #C4D6FC",
"a c #CCD6EC",
"b c #ECEAF4",
"c c #6C8EFC",
"d c #043AE4",
"e c #94BAFC",
"f c #CCDEFC",
"g c #649EFC",
"h c #0C1E44",
"i c #E4EEFC",
"j c #446EEC",
"k c #D4DAFC",
"l c #DCE6FC",
"m c #C4DEFC",
"n c #6C96FC",
"o c #A4B2F4",
"p c #6C9EFC",
"q c #4476EC",
"r c #F4F6F4",
"s c #FCFEFC",
"t c None",
"tttttttttttttttt",
"tttttttttttttttt",
"P//////Xtttttttt",
"/sssssN//////Rtt",
"/sCCbWWssssss21t",
"/s:KUUNIEEEEEEEh",
"/sWEEEEEJf7773ME",
"/sEfm`7J=p@@gq8E",
"/sE^=DT5@@@@@Q<E",
"/sEmDT_p@@@Lnj<E",
"/sEJT5g@@@L;cj<E",
"/sE6444444YYkSoE",
"/sEssssssssssNWE",
"/sE>WlGYFVVa99]E",
"AEEEEEEEEEEEEEE[",
"tttttttttttttttt",
);
