/* XPM */
static char * ico_sety_xpm[] = {
"24 24 69 1",
" 	c None",
".	c #000000",
"+	c #C9C9C9",
"@	c #F2F2F2",
"#	c #F8F8F8",
"$	c #F7F7F7",
"%	c #F6F6F6",
"&	c #F5F5F5",
"*	c #F4F4F4",
"=	c #F3F3F3",
"-	c #F0F0F0",
";	c #E2E2E2",
">	c #DADADA",
",	c #F1F1F1",
"'	c #EEEEEE",
")	c #EDEDED",
"!	c #EBEBEB",
"~	c #EAEAEA",
"{	c #E9E9E9",
"]	c #E7E7E7",
"^	c #E6E6E6",
"/	c #E5E5E5",
"(	c #E4E4E4",
"_	c #E3E3E3",
":	c #E1E1E1",
"<	c #E0E0E0",
"[	c #B7B7B7",
"}	c #EFEFEF",
"|	c #ECECEC",
"1	c #E8E8E8",
"2	c #ACACAC",
"3	c #B8B8B8",
"4	c #ADADAD",
"5	c #AAAAAA",
"6	c #AEAEAE",
"7	c #B9B9B9",
"8	c #BABABA",
"9	c #AFAFAF",
"0	c #BCBCBC",
"a	c #BBBBBB",
"b	c #797979",
"c	c #787878",
"d	c #767676",
"e	c #757575",
"f	c #B0B0B0",
"g	c #F9F9F9",
"h	c #777777",
"i	c #B1B1B1",
"j	c #FAFAFA",
"k	c #7A7A7A",
"l	c #B2B2B2",
"m	c #FBFBFB",
"n	c #BDBDBD",
"o	c #FCFCFC",
"p	c #BEBEBE",
"q	c #B3B3B3",
"r	c #FDFDFD",
"s	c #FEFEFE",
"t	c #B4B4B4",
"u	c #FFFFFF",
"v	c #BFBFBF",
"w	c #7B7B7B",
"x	c #B5B5B5",
"y	c #C0C0C0",
"z	c #C1C1C1",
"A	c #7C7C7C",
"B	c #B6B6B6",
"C	c #D9D9D9",
"D	c #DBDBDB",
"   ...................  ",
"  .+@##$$%&&&**===@@-;. ",
"  .>@,-')!~{.]^/(_;:<@. ",
"  .'=@[})|!~.1]^/(2:<@. ",
"  .!*=3}')|!.{1]^/2;:@. ",
"  .|&*3-}'4...51]/4_;@. ",
"  .)%*3,-}'4.2~{]^6(_=. ",
"  .'%&7@,-}'4|~{1]6/(=. ",
"  .'$%8=@,-}'|!~{19^/=. ",
"  .}0$a*=b,c'd|e~{f]6*. ",
"  .-g#a&*b@c}h)d!~i1]*. ",
"  .,jg0%&k@c-h'd|!l{1*. ",
"  .@mjn$&k=b,c}h)|l~1&. ",
"  .=omp$%k*b@c-h')q~{&. ",
"  .*rop#$%&k=b,c})q!~&. ",
"  .&srpg#$%k*b@c}'t|!%. ",
"  .&urvjg#$w&k=c-}x)|%. ",
"  .&usymjg#w%k=b,-x')$. ",
"  .&uuzomjgA$k*b@,B}'$. ",
"  .(uuuromj#$%&*=@,-}*. ",
"  .nC&&*=@-}')|!~{1]_D. ",
"   ...................  ",
"                        ",
"                        "};
