/* XPM */
static char * ico_link_xpm[] = {
"21 11 5 1",
" 	c None",
".	c #000000",
"+	c #FFFFFF",
"@	c #CC0000",
"#	c #FFCC00",
"                     ",
"                     ",
"             .   .   ",
"            .+. .+.  ",
"...          .+.+.   ",
".+.@#@#@#@#@#@.+.    ",
"...          .+.+.   ",
"            .+. .+.  ",
"             .   .   ",
"                     ",
"                     "};
