/* XPM */
static char * ico_fun_xpm[] = {
"16 16 3 1",
" 	c None",
".	c #625B81",
"+	c #000000",
"                ",
"                ",
"                ",
"   .        .   ",
"  ..        ..  ",
" ..          .. ",
" ..    ++    .. ",
" .. +++++++  .. ",
" ..    ++    .. ",
" ..          .. ",
"  ..         .  ",
"   .        .   ",
"    .      .    ",
"                ",
"                ",
"                "};
