/* XPM */
static char * ico_constraint_xpm[] = {
"16 16 42 1",
" 	c None",
".	c #494066",
"+	c #776F8C",
"@	c #696181",
"#	c #FFFFFF",
"$	c #A4A4A4",
"%	c #DADADA",
"&	c #DDDDDD",
"*	c #E0E0E0",
"=	c #E4E4E4",
"-	c #E7E7E7",
";	c #000000",
">	c #A8A8A8",
",	c #868686",
"'	c #888888",
")	c #8B8B8B",
"!	c #E9E9E9",
"~	c #BCBCBC",
"{	c #E5E5E5",
"]	c #E8E8E8",
"^	c #ECECEC",
"/	c #9D9D9D",
"(	c #7C7C7C",
"_	c #7D7D7D",
":	c #7F7F7F",
"<	c #EEEEEE",
"[	c #ABABAB",
"}	c #E3E3E3",
"|	c #EAEAEA",
"1	c #EDEDED",
"2	c #F0F0F0",
"3	c #A2413B",
"4	c #DF421E",
"5	c #DBDBDB",
"6	c #FCF1EF",
"7	c #FDFBFA",
"8	c #FDF6F4",
"9	c #F9DFDA",
"0	c #DEDEDE",
"a	c #FBECE9",
"b	c #FBEAE7",
"c	c #FDF9F8",
"                ",
"                ",
"  .........     ",
"  .+@@@@@@.     ",
"  .#$%&*=-.     ",
"  .#;>,')!.     ",
";;;;;;~{]^..... ",
"  .#;/(_:<.@@@. ",
"  .#[}-|12.*=-. ",
"  .......3444444",
"      .#54674894",
"      .#047#a#84",
"      .#*446#a44",
"      ...48#b#c4",
"         46c4894",
"         4444444"};
