/* XPM */
static char * ico_cvs_xpm[] = {
"14 14 63 1",
" 	c None",
".	c #A6A6A6",
"+	c #616061",
"@	c #A9A8A9",
"#	c #575657",
"$	c #9C9C9C",
"%	c #CBCBCB",
"&	c #696969",
"*	c #949394",
"=	c #5E5D5E",
"-	c #7F7E7F",
";	c #E3E3E3",
">	c #DDDDDD",
",	c #E0E0E0",
"'	c #757475",
")	c #474547",
"!	c #403F40",
"~	c #303030",
"{	c #B0AFB0",
"]	c #DEDEDE",
"^	c #626262",
"/	c #9C9D9C",
"(	c #E4E2E4",
"_	c #646464",
":	c #262626",
"<	c #C7C5C7",
"[	c #B3B2B3",
"}	c #696B69",
"|	c #E0DFE0",
"1	c #DEDDDE",
"2	c #7A787A",
"3	c #262526",
"4	c #AFAEAF",
"5	c #C1BFC1",
"6	c #696869",
"7	c #414141",
"8	c #BCBBBC",
"9	c #DFDEDF",
"0	c #DAD8DA",
"a	c #636263",
"b	c #2E2E2E",
"c	c #787778",
"d	c #282828",
"e	c #363636",
"f	c #949294",
"g	c #BBB9BB",
"h	c #C3C1C3",
"i	c #323232",
"j	c #222122",
"k	c #333333",
"l	c #B8B7B8",
"m	c #8E8C8E",
"n	c #BAB8BA",
"o	c #C3C2C3",
"p	c #747274",
"q	c #1B1C1B",
"r	c #626162",
"s	c #313131",
"t	c #6D6B6D",
"u	c #757375",
"v	c #202020",
"w	c #0D0C0D",
"x	c #0D0D0D",
"              ",
"            .+",
"           @# ",
"      $%& *=  ",
"     -;>,')   ",
"    !~{]],^   ",
"   /(_:<]][   ",
"  }|]123456   ",
"  78>90abcd   ",
"  efg>]hij    ",
"  klmnopq     ",
"  @rstuv      ",
"i.#  wx       ",
"4+            "};
