/* XPM */
static char * ico_sxw_xpm[] = {
"14 14 142 2",
"  	c None",
". 	c #929292",
"+ 	c #B8B8B8",
"@ 	c #B5B5B5",
"# 	c #7D7D7D",
"$ 	c #B0B0B0",
"% 	c #FFFCF5",
"& 	c #FFFCF3",
"* 	c #FFFEFB",
"= 	c #FFFFFF",
"- 	c #FFFEFC",
"; 	c #FBFBF9",
"> 	c #D1D1D1",
", 	c #D0D0CD",
"' 	c #F7F5F2",
") 	c #9A9A9A",
"! 	c #6D6D6D",
"~ 	c #FFFBF0",
"{ 	c #FEFCF5",
"] 	c #F3F0E8",
"^ 	c #868584",
"/ 	c #3F3F3F",
"( 	c #A8A6A3",
"_ 	c #F7F4EC",
": 	c #BCBCB8",
"< 	c #AEAEAC",
"[ 	c #FFFCF2",
"} 	c #FDF9EF",
"| 	c #CBC8C3",
"1 	c #82817D",
"2 	c #555555",
"3 	c #252525",
"4 	c #E3E0DA",
"5 	c #F4F0E6",
"6 	c #888888",
"7 	c #8A8A85",
"8 	c #676767",
"9 	c #3D3D3D",
"0 	c #B0AFAE",
"a 	c #FAF7EE",
"b 	c #989795",
"c 	c #424242",
"d 	c #7C7B77",
"e 	c #807E7B",
"f 	c #B7B5B2",
"g 	c #E2DFD8",
"h 	c #D4D1CA",
"i 	c #CCCAE1",
"j 	c #D5D5D5",
"k 	c #B1B1B1",
"l 	c #909090",
"m 	c #646464",
"n 	c #B0AEAA",
"o 	c #E1DED6",
"p 	c #959593",
"q 	c #E5E2D9",
"r 	c #FEFAEF",
"s 	c #E3E0D8",
"t 	c #757471",
"u 	c #4B4A4A",
"v 	c #8C8BA0",
"w 	c #B8B6E0",
"x 	c #D0D0EA",
"y 	c #C8C8D9",
"z 	c #BABABA",
"A 	c #747474",
"B 	c #FEFBF3",
"C 	c #FDFAF0",
"D 	c #EBE7DE",
"E 	c #4D4D4C",
"F 	c #282828",
"G 	c #D6D3CA",
"H 	c #B6B4E4",
"I 	c #A7A5E1",
"J 	c #A2A2E2",
"K 	c #B8B8E2",
"L 	c #DDDDDD",
"M 	c #858585",
"N 	c #B0AEA9",
"O 	c #FBF8F1",
"P 	c #C2C0BA",
"Q 	c #626161",
"R 	c #1F1E1E",
"S 	c #908FBE",
"T 	c #8886DB",
"U 	c #8785DB",
"V 	c #8584DB",
"W 	c #8181DA",
"X 	c #A3A3DC",
"Y 	c #E3E3D7",
"Z 	c #878787",
"` 	c #B0ADA6",
" .	c #373634",
"..	c #1A1A1A",
"+.	c #5C5C6A",
"@.	c #E9E7DF",
"#.	c #B5C4C3",
"$.	c #99D9D8",
"%.	c #A8C7C7",
"&.	c #D1D1CF",
"*.	c #656463",
"=.	c #2A2A29",
"-.	c #7D7C7B",
";.	c #C2C0B8",
">.	c #C8C5BE",
",.	c #8C8BCB",
"'.	c #8786DB",
").	c #E0DFDC",
"!.	c #5AD3D3",
"~.	c #9AEFEF",
"{.	c #68E7E7",
"].	c #C1CFCD",
"^.	c #383839",
"/.	c #868599",
"(.	c #9997DE",
"_.	c #9594DE",
":.	c #E1E0DC",
"<.	c #90DADA",
"[.	c #CACACA",
"}.	c #90D0D0",
"|.	c #C5D0CA",
"1.	c #E3E3D4",
"2.	c #A9A9A9",
"3.	c #E2DFE8",
"4.	c #AAA8E1",
"5.	c #A6A5E1",
"6.	c #ABABDE",
"7.	c #A9A9D7",
"8.	c #E0E0D4",
"9.	c #ACACAC",
"0.	c #E8E6EA",
"a.	c #BBBBE2",
"b.	c #B9B9E0",
"c.	c #BABAE0",
"d.	c #B6B6D5",
"e.	c #B7B7D9",
"f.	c #B6B6D7",
"g.	c #B6B6D4",
"h.	c #B5B5D2",
"i.	c #DFDFD4",
"j.	c #DFDFD3",
"k.	c #6A6A6A",
". + + + + + + + + @ #       ",
"$ % & * = - ; > , ' ) !     ",
"$ & ~ % { ] ^ / ( _ : < !   ",
"$ [ } | 1 2 3 4 ~ 5 6 7 8 9 ",
"0 a b c d e f g h i j k l m ",
"n o p q r s t u v w x y z A ",
"$ B C ~ D E F G H I J K L M ",
"N ~ O P Q R S T U V W X Y Z ",
"N `  .3 ..+.T @.#.$.%.&.Y Z ",
"*.=.-.;.>.,.'.).!.~.{.].Y Z ",
"^./.(.(.(.(._.:.<.[.}.|.1.Z ",
"2.3.4.5.I I J 6.6.6.7.8.1.Z ",
"9.0.a.b.c.d.e.f.g.h.h.i.j.Z ",
"# Z Z Z Z Z Z Z Z Z Z Z Z k."};
