/* XPM */
static char * ico_description_xpm[] = {
"16 16 44 1",
" 	c None",
".	c #000000",
"+	c #FBE73B",
"@	c #F2B64D",
"#	c #FCEB3D",
"$	c #F7B544",
"%	c #5D502C",
"&	c #797293",
"*	c #625B81",
"=	c #FCE93B",
"-	c #F7B545",
";	c #6C5F34",
">	c #FFFFFF",
",	c #DFDFDF",
"'	c #E2E2E2",
")	c #F9DF39",
"!	c #F4B244",
"~	c #6B6142",
"{	c #CACACA",
"]	c #999999",
"^	c #F6D236",
"/	c #EFB44D",
"(	c #5C4F2B",
"_	c #A0A0A0",
":	c #EFEFEF",
"<	c #E4E4E4",
"[	c #D7AE74",
"}	c #655930",
"|	c #EDEDED",
"1	c #F1F1F1",
"2	c #4F4115",
"3	c #A2A2A2",
"4	c #A3A3A3",
"5	c #F3F3F3",
"6	c #F6F6F6",
"7	c #9D9D9D",
"8	c #9F9F9F",
"9	c #A4A4A4",
"0	c #EBEBEB",
"a	c #F8F8F8",
"b	c #A6A6A6",
"c	c #A8A8A8",
"d	c #FAFAFA",
"e	c #FCFCFC",
"                ",
"           ..   ",
"          .+@.  ",
"   .......#$%.  ",
"   .&***.=-;..  ",
"   .>,'.)!~.{.  ",
"   .>].^/(._:.  ",
"   .><.[}.|:1.  ",
"   .>.2..3345.  ",
"   .>..|:1156.  ",
"   .>78_:4496.  ",
"   .>0|:1556a.  ",
"   .>_345bbcd.  ",
"   .>:156aade.  ",
"   ...........  ",
"                "};
