/* XPM */
static char * ico_close_xpm[] = {
"24 24 5 1",
" 	c None",
".	c #000000",
"+	c #FFFFFF",
"@	c #CC0000",
"#	c #FFCC00",
"                        ",
"                        ",
"                        ",
"                        ",
"                        ",
"                        ",
"           .     .      ",
"          .+.   .+.     ",
"         .+++. .+++.    ",
"          .+++.+++.     ",
"           .+++++.      ",
"@#@#@#@#@#@#.+++.       ",
"           .+++++.      ",
"          .+++.+++.     ",
"         .+++. .+++.    ",
"          .+.   .+.     ",
"           .     .      ",
"                        ",
"                        ",
"                        ",
"                        ",
"                        ",
"                        ",
"                        "};
