/* XPM */
static char * ico_detail_xpm[] = {
"16 16 64 1",
" 	c None",
".	c #000000",
"+	c #BFBFBF",
"@	c #F5F5F5",
"#	c #F6F6F6",
"$	c #F7F7F7",
"%	c #F8F8F8",
"&	c #F9F9F9",
"*	c #B9B9B9",
"=	c #E1E1E1",
"-	c #E2E2E2",
";	c #E3E3E3",
">	c #E4E4E4",
",	c #E5E5E5",
"'	c #E7E7E7",
")	c #E8E8E8",
"!	c #E9E9E9",
"~	c #EAEAEA",
"{	c #EBEBEB",
"]	c #EDEDED",
"^	c #EEEEEE",
"/	c #EFEFEF",
"(	c #6D6D6D",
"_	c #6E6E6E",
":	c #6F6F6F",
"<	c #707070",
"[	c #717171",
"}	c #727272",
"|	c #F0F0F0",
"1	c #F1F1F1",
"2	c #4E4D4B",
"3	c #4F4E4C",
"4	c #4F4F4D",
"5	c #A6A4A0",
"6	c #504F4D",
"7	c #51504E",
"8	c #52514E",
"9	c #F3F3F3",
"0	c #A5A39E",
"a	c #A5A49F",
"b	c #A7A5A0",
"c	c #A8A6A1",
"d	c #A9A7A3",
"e	c #A9A8A3",
"f	c #AAA9A4",
"g	c #ABAAA4",
"h	c #ACAAA5",
"i	c #F4F4F4",
"j	c #52524F",
"k	c #535250",
"l	c #ADACA7",
"m	c #AEADA7",
"n	c #545351",
"o	c #737373",
"p	c #747474",
"q	c #757575",
"r	c #767676",
"s	c #777777",
"t	c #787878",
"u	c #FAFAFA",
"v	c #FBFBFB",
"w	c #FCFCFC",
"x	c #BEBEBE",
"y	c #C1C1C1",
" .............  ",
" +@@####$$%%&&* ",
".@=-;>,')!~{]^/.",
".@-((_:!<<[}}/|.",
".#;>,')!~{]^/|1.",
".#>233456778819.",
".#,0a5bcdefgh9i.",
".#'34465788jki@.",
".$)5bcdefghlm@#.",
".$!467758jkkn#$.",
".%~{]^/|19i@#$&.",
".&]}oop!qrrstuv.",
".&^/|19i@#$&uvw.",
".x/|19i@#$&uvwy ",
"  ............  ",
"                "};
