/* XPM */
static char * ico_folder2_xpm[] = {
"14 14 138 2",
"  	c None",
". 	c #221F22",
"+ 	c #484648",
"@ 	c #7F7E7F",
"# 	c #EFEDEF",
"$ 	c #949194",
"% 	c #717071",
"& 	c #605A60",
"* 	c #808080",
"= 	c #DEDEDD",
"- 	c #CBC8C8",
"; 	c #E5E2E5",
"> 	c #E8E2E8",
", 	c #868386",
"' 	c #6E6B6E",
") 	c #959195",
"! 	c #6D6B6D",
"~ 	c #242424",
"{ 	c #014269",
"] 	c #065E8E",
"^ 	c #002C45",
"/ 	c #808E96",
"( 	c #B4B2AF",
"_ 	c #B2ACAA",
": 	c #C1B8B5",
"< 	c #CABDB2",
"[ 	c #D3CDC9",
"} 	c #F1ECF1",
"| 	c #F4F1F4",
"1 	c #E8E4E8",
"2 	c #888485",
"3 	c #514C50",
"4 	c #0D486D",
"5 	c #6BAED3",
"6 	c #77A2BA",
"7 	c #639CB9",
"8 	c #44738D",
"9 	c #55748B",
"0 	c #C8C3C1",
"a 	c #CDBDAB",
"b 	c #CABDB1",
"c 	c #B6ADA6",
"d 	c #B7ADA2",
"e 	c #DBD4D5",
"f 	c #E4E0E2",
"g 	c #585557",
"h 	c #0A4C72",
"i 	c #5BC5F3",
"j 	c #7AC8EB",
"k 	c #7DB8D6",
"l 	c #8EB9CE",
"m 	c #83ADC5",
"n 	c #4C90B5",
"o 	c #3C667E",
"p 	c #667F8C",
"q 	c #D8C6BB",
"r 	c #CCB89F",
"s 	c #B2A088",
"t 	c #D1CBC8",
"u 	c #555455",
"v 	c #086492",
"w 	c #14A1DA",
"x 	c #238DB6",
"y 	c #53A6C6",
"z 	c #77B8D6",
"A 	c #8EC0DC",
"B 	c #AFCEDB",
"C 	c #73ABC8",
"D 	c #1E6990",
"E 	c #76827E",
"F 	c #A08B6E",
"G 	c #BCB8B2",
"H 	c #535253",
"I 	c #084A71",
"J 	c #2783C4",
"K 	c #3174A4",
"L 	c #2270A0",
"M 	c #197CAB",
"N 	c #1282B1",
"O 	c #5BA7C8",
"P 	c #72B5D4",
"Q 	c #A3CFE3",
"R 	c #608DA5",
"S 	c #475558",
"T 	c #B5ADA8",
"U 	c #525151",
"V 	c #3E3E3E",
"W 	c #DEDBDE",
"X 	c #D1D9E4",
"Y 	c #799EB6",
"Z 	c #5285AA",
"` 	c #3A7DA5",
" .	c #1F6E9E",
"..	c #167DAC",
"+.	c #2A8BB3",
"@.	c #2E7295",
"#.	c #334E5A",
"$.	c #A5A3A1",
"%.	c #515050",
"&.	c #827E82",
"*.	c #EFE9EF",
"=.	c #E9E4E9",
"-.	c #B7C1CD",
";.	c #7096B1",
">.	c #5588AD",
",.	c #377EA9",
"'.	c #206F9B",
").	c #0E4A6D",
"!.	c #878F98",
"~.	c #4F4E4F",
"{.	c #555555",
"].	c #9D9C9D",
"^.	c #C7C4C7",
"/.	c #D9D3D9",
"(.	c #D5CFD5",
"_.	c #C7C5CD",
":.	c #92ADBC",
"<.	c #6C96B0",
"[.	c #285979",
"}.	c #7B8892",
"|.	c #4D4C4D",
"1.	c #6A696A",
"2.	c #939093",
"3.	c #BEBABE",
"4.	c #BFBCBF",
"5.	c #BCB8BC",
"6.	c #89969E",
"7.	c #49687C",
"8.	c #414448",
"9.	c #373637",
"0.	c #605E60",
"a.	c #8D8B8D",
"b.	c #ABA9AB",
"c.	c #2B5773",
"d.	c #343A40",
"e.	c #1C1C1C",
"f.	c #2C2B2C",
"g.	c #34383D",
"      . +                   ",
"      @ # $ % &             ",
"      * = - ; > , ' ) ! ~   ",
"{ ] ^ / ( _ : < [ } | 1 2 3 ",
"4 5 6 7 8 9 0 a b c d e f g ",
"h i j k l m n o p q r s t u ",
"  v w x y z A B C D E F G H ",
"  I J K L M N O P Q R S T U ",
"  V W X Y Z `  ...+.@.#.$.%.",
"    &.*.=.> -.;.>.,.'.).!.~.",
"    {.@ ].^./.(._.:.<.[.}.|.",
"          |.1.2.3.4.5.6.7.8.",
"                9.0.a.b.c.d.",
"                    e.f.g.  "};
