/* XPM */
static char * ico_format_xpm[] = {
"18 17 3 1",
" 	c None",
".	c #000000",
"+	c #314E6C",
" ..               ",
".  .              ",
".  . +++++++++++  ",
".  . +++++++++++  ",
".  .          ++  ",
".  .          ++  ",
" ..         ++++++",
"             ++++ ",
"              ++  ",
"                  ",
"    ..   ..   ..  ",
"   .  . .  . .  . ",
"   .  . .  . .  . ",
"   .  . .  . .  . ",
"   .  . .  . .  . ",
" . .  . .  . .  . ",
" .  ..   ..   ..  "};
