/* XPM */
static char * ico_tt_xpm[] = {
"11 14 75 1",
" 	c None",
".	c #8C8C8C",
"+	c #E6E6E6",
"@	c #727272",
"#	c #B7B6B7",
"$	c #767678",
"%	c #E2E2E2",
"&	c #B9B9B9",
"*	c #626262",
"=	c #6C6C6C",
"-	c #AAA9AB",
";	c #C6C5C8",
">	c #777677",
",	c #878787",
"'	c #ABABAB",
")	c #908F90",
"!	c #636264",
"~	c #9B9B9B",
"{	c #EEEEEE",
"]	c #F0F0F1",
"^	c #3A393B",
"/	c #3B3A3C",
"(	c #C0BFC1",
"_	c #888888",
":	c #8A7878",
"<	c #CA6D6E",
"[	c #D7BCBF",
"}	c #B7B6B8",
"|	c #6C6C6D",
"1	c #2E2D2F",
"2	c #000000",
"3	c #6C6A6C",
"4	c #898789",
"5	c #999899",
"6	c #E4E4E4",
"7	c #FFEBEB",
"8	c #D05457",
"9	c #D05556",
"0	c #CEBBBD",
"a	c #B2B1B3",
"b	c #232223",
"c	c #A7A4A7",
"d	c #6A6A6A",
"e	c #D86264",
"f	c #F50000",
"g	c #D34D4E",
"h	c #958A8C",
"i	c #444344",
"j	c #B1B1B1",
"k	c #D86265",
"l	c #F40000",
"m	c #C59598",
"n	c #343334",
"o	c #D96265",
"p	c #0F0F0F",
"q	c #383738",
"r	c #B2AFB2",
"s	c #A6A6A6",
"t	c #DA5B5E",
"u	c #8D8D8D",
"v	c #D5D5D5",
"w	c #555555",
"x	c #575657",
"y	c #8C8A8C",
"z	c #E69090",
"A	c #F00606",
"B	c #9E8E8F",
"C	c #CCCCCC",
"D	c #F2C2C2",
"E	c #E44040",
"F	c #E54C4D",
"G	c #D19495",
"H	c #F6D8D8",
"I	c #F1B9B9",
"J	c #ECB4B4",
"     .+    ",
"    @#$.%  ",
" &  *=-;>, ",
"')!~{]^/#(_",
":<[}|~12345",
"67890ab2cd ",
"  efghi2cj ",
"  klmn22cj ",
"  olmp22cj ",
"  olmq22rs ",
"  tlmuvwxy ",
" zAlmB  C% ",
"  DEFGH    ",
"    IJ     "};
