/* XPM */
static char * ico_wizard_xpm[] = {
"16 16 61 1",
" 	c None",
".	c #000000",
"+	c #B8B39B",
"@	c #625B81",
"#	c #EBE8D3",
"$	c #FFFFFF",
"%	c #FBFBFB",
"&	c #332F43",
"*	c #FEFEED",
"=	c #9D9D9D",
"-	c #675E46",
";	c #F4E7C2",
">	c #FEFCE8",
",	c #A27E36",
"'	c #645435",
")	c #F4F4F4",
"!	c #9A8558",
"~	c #C7AF7A",
"{	c #D9C28B",
"]	c #DFCA96",
"^	c #F3E5BE",
"/	c #CCB176",
"(	c #E1CC99",
"_	c #DEC58D",
":	c #9F8B5F",
"<	c #E5E5E5",
"[	c #8A8A8A",
"}	c #442D0E",
"|	c #7D5A22",
"1	c #BAA069",
"2	c #88601F",
"3	c #5E4417",
"4	c #E7E7E7",
"5	c #E8E8E8",
"6	c #DFDFDF",
"7	c #8E8E8E",
"8	c #D6C08E",
"9	c #DDDCE3",
"0	c #E4E4E4",
"a	c #E6E6E6",
"b	c #EAEAEA",
"c	c #EBEBEB",
"d	c #EDEDED",
"e	c #A6A6A6",
"f	c #D8C291",
"g	c #C6C4D1",
"h	c #E9E9E9",
"i	c #EFEFEF",
"j	c #A09069",
"k	c #08070A",
"l	c #C3C1CE",
"m	c #ECECEC",
"n	c #EEEEEE",
"o	c #F0F0F0",
"p	c #B2B0BF",
"q	c #363247",
"r	c #0D0C11",
"s	c #BDBBC7",
"t	c #C2C1CC",
"u	c #C0BECA",
"v	c #B1AEBD",
"                ",
"          .     ",
"         .+.    ",
"     @@  .#.    ",
"    @$%&..*..   ",
"   @$=..-;>,'.. ",
"  @$).!~{]^/(_:.",
" @$)<[..}|123.. ",
"@$)<4567..8...  ",
"@90a5bcde.f..   ",
" @g4hcdi5.jk    ",
"  @lcmnopq.r    ",
"   @snit@       ",
"    @uv@        ",
"     @@         ",
"                "};
