/* XPM */
static char * ico_message_xpm[] = {
"32 32 248 2",
"  	c None",
". 	c #F5F70F",
"+ 	c #FFFF07",
"@ 	c #C7D538",
"# 	c #3160C5",
"$ 	c #F3F300",
"% 	c #F9F600",
"& 	c #FFFF00",
"* 	c #C2C11A",
"= 	c #2444AA",
"- 	c #EBEA00",
"; 	c #FDFA03",
"> 	c #FFFF2A",
", 	c #51534F",
"' 	c #223FA5",
") 	c #EAE600",
"! 	c #FEFD17",
"~ 	c #FFFF68",
"{ 	c #FFFE0D",
"] 	c #090E7B",
"^ 	c #E5E100",
"/ 	c #F2EB00",
"( 	c #FFFF18",
"_ 	c #FFFF31",
": 	c #FFFF22",
"< 	c #464655",
"[ 	c #1D359A",
"} 	c #E9E101",
"| 	c #F9F404",
"1 	c #FFFF11",
"2 	c #FFFF09",
"3 	c #FFF800",
"4 	c #060D74",
"5 	c #E7DD00",
"6 	c #FFFF0E",
"7 	c #FFFF1C",
"8 	c #FFFF16",
"9 	c #FFF500",
"0 	c #FFFD00",
"a 	c #FFF503",
"b 	c #FFFF13",
"c 	c #FEF703",
"d 	c #C3B802",
"e 	c #B3AC1F",
"f 	c #E9DB00",
"g 	c #F2E300",
"h 	c #A7A611",
"i 	c #000001",
"j 	c #000009",
"k 	c #E3E223",
"l 	c #FCF000",
"m 	c #FFFA00",
"n 	c #FFF003",
"o 	c #000007",
"p 	c #0A0030",
"q 	c #000032",
"r 	c #5C4D2E",
"s 	c #FFFF1E",
"t 	c #FFF300",
"u 	c #040C7F",
"v 	c #E6D401",
"w 	c #FFFF0B",
"x 	c #000016",
"y 	c #1B0347",
"z 	c #020045",
"A 	c #4F3B22",
"B 	c #FFFF15",
"C 	c #FFEB00",
"D 	c #433854",
"E 	c #1E3AA3",
"F 	c #E2D30A",
"G 	c #FAE803",
"H 	c #FFFF03",
"I 	c #100A06",
"J 	c #00001B",
"K 	c #15003E",
"L 	c #735922",
"M 	c #FFFF24",
"N 	c #FFED00",
"O 	c #FFF700",
"P 	c #A29828",
"Q 	c #091183",
"R 	c #F2DA01",
"S 	c #FFF60E",
"T 	c #594915",
"U 	c #00002E",
"V 	c #A89015",
"W 	c #FFF915",
"X 	c #FBE500",
"Y 	c #2E2E62",
"Z 	c #F8E504",
"` 	c #FFFB13",
" .	c #B4A301",
"..	c #372168",
"+.	c #3D274F",
"@.	c #E3CC02",
"#.	c #FFF70D",
"$.	c #FFE700",
"%.	c #FFF100",
"&.	c #060F85",
"*.	c #E5CE00",
"=.	c #EBD500",
"-.	c #FFF00D",
";.	c #FFE800",
">.	c #D0BC00",
",.	c #000022",
"'.	c #5D4EA6",
").	c #FFF512",
"!.	c #FFE300",
"~.	c #F9E100",
"{.	c #323260",
"].	c #2544A3",
"^.	c #DAC615",
"/.	c #FFEA05",
"(.	c #271822",
"_.	c #645032",
":.	c #FFE400",
"<.	c #FFF40E",
"[.	c #FADE00",
"}.	c #FFEF00",
"|.	c #98892C",
"1.	c #0B1982",
"2.	c #E6CA00",
"3.	c #E9CF00",
"4.	c #FEE708",
"5.	c #00007C",
"6.	c #FFE706",
"7.	c #F8DB00",
"8.	c #242765",
"9.	c #2747A4",
"0.	c #E1CB0E",
"a.	c #F3D500",
"b.	c #FFEE11",
"c.	c #FFEA08",
"d.	c #8C7B1D",
"e.	c #00006A",
"f.	c #CCAB06",
"g.	c #FFE100",
"h.	c #FFF716",
"i.	c #FFF81A",
"j.	c #F9D601",
"k.	c #ECCD00",
"l.	c #FEE206",
"m.	c #FFF111",
"n.	c #FFDF00",
"o.	c #C3A50F",
"p.	c #EDCA01",
"q.	c #FFDD00",
"r.	c #2B2C62",
"s.	c #2748A9",
"t.	c #E8C900",
"u.	c #F3D200",
"v.	c #1D1043",
"w.	c #FFDB00",
"x.	c #FFF91D",
"y.	c #908031",
"z.	c #0F1E85",
"A.	c #E8C600",
"B.	c #FEDE0B",
"C.	c #FFD900",
"D.	c #FFE40A",
"E.	c #FCD600",
"F.	c #282964",
"G.	c #284AAB",
"H.	c #E7C505",
"I.	c #F7D002",
"J.	c #FFEC14",
"K.	c #FFD600",
"L.	c #FFF219",
"M.	c #FFFD25",
"N.	c #FDD500",
"O.	c #E5BF00",
"P.	c #ECC600",
"Q.	c #FFE811",
"R.	c #000012",
"S.	c #FFD500",
"T.	c #FFDC03",
"U.	c #FFD300",
"V.	c #F5CE00",
"W.	c #D5BA1B",
"X.	c #F1C900",
"Y.	c #FFE310",
"Z.	c #FFDD06",
"`.	c #241911",
" +	c #FFE914",
".+	c #FFEF1C",
"++	c #F9CC00",
"@+	c #887535",
"#+	c #101E84",
"$+	c #EAC100",
"%+	c #FCD107",
"&+	c #FFE20D",
"*+	c #000004",
"=+	c #311A61",
"-+	c #1B0869",
";+	c #7A625A",
">+	c #FFDA05",
",+	c #FED506",
"'+	c #FECF00",
")+	c #13186F",
"!+	c #42108F",
"~+	c #E3B800",
"{+	c #BEB2FF",
"]+	c #AD9E53",
"^+	c #F6C800",
"/+	c #584E4E",
"(+	c #C8B025",
"_+	c #DEB500",
":+	c #E5BA00",
"<+	c #F1C500",
"[+	c #F6C700",
"}+	c #F5C701",
"|+	c #F5C901",
"1+	c #F7CA01",
"2+	c #FFD100",
"3+	c #836921",
"4+	c #B3973D",
"5+	c #FACB00",
"6+	c #EFC100",
"7+	c #9A985E",
"8+	c #D6AC00",
"9+	c #DAB100",
"0+	c #DFB300",
"a+	c #E2B600",
"b+	c #FCCB00",
"c+	c #F1C100",
"d+	c #E0B400",
"e+	c #504751",
"f+	c #B6A336",
"g+	c #CBA502",
"h+	c #CDA400",
"i+	c #CDA600",
"j+	c #CEA500",
"k+	c #CFA700",
"l+	c #DDB202",
"m+	c #816B36",
"n+	c #0D1373",
"o+	c #1C1F6A",
"p+	c #3356A7",
"q+	c #2D306A",
"r+	c #313060",
"s+	c #323060",
"t+	c #32305F",
"u+	c #35325D",
"v+	c #294CAC",
"w+	c #2A4CAB",
"x+	c #2C4DA8",
"y+	c #2E51AD",
"                                                                ",
"                            . + @ #                             ",
"                          $ % & & * =                           ",
"                        - - ; > & & , '                         ",
"                        ) - ! ~ { & * ]                         ",
"                      ^ ^ / ( _ : % & < [                       ",
"                      } ) | 1 2 > 3 & * 4                       ",
"                    5 5 / 6 2 & 7 8 9 0 < [                     ",
"                    } } a b c d 2 : 3 & e ]                     ",
"                  f f g 6 h i i j k b l m < [                   ",
"                  f f n b o j p q r s t m e u                   ",
"                v v g 6 w i x y z A B 8 C t D E                 ",
"                F f G b H I J K z L H M N O P Q                 ",
"              v v R S { & T U y y V & s W X t Y '               ",
"              v v Z ` n &  .U ..+.@.O #.M $.%.P &.              ",
"            *.*.=.-.#.;.0 >.,.'.D m N ;.s ).!.~.{.].            ",
"            ^.*.R )./.$.%.;.(.'._.9 ;.:.<.s [.}.|.1.            ",
"          2.2.3.4.-.:.:.;.& T 5.V m $.!.6.s 4.7.!.8.9.          ",
"          0.2.a.b.c.!.!.:.0 d.e.f.3 :.g.g.h.i.j.;.|.1.          ",
"        2.2.k.l.m.g.n.n.g.%.o.z p.}.g.n.q.6.M l.q.a.r.s.        ",
"        ^.t.u.b.4.q.q.n.n.:.j.v.n.;.n.q.q.w.i.x.j.;.y.z.        ",
"      A.A.p.B.b.q.w.w.w.q.g.:.o.:.g.w.w.q.C.l.> D.E.q.F.G.      ",
"      H.A.I.J.D.C.C.w.w.n.C N 9 C ;.w.w.w.C.K.L.M.N.!.|.1.      ",
"    O.O.P.B.Q.C.K.K.C.w.C f.R.o (.E.g.C.C.K.S.T.M.B.U.V.Y 9.    ",
"    W.O.X.Y.Z.S.U.K.K.w.;.`.i J q L %.K.K.S.S.S. +.+++g.@+#+    ",
"  O.O.$+%+&+K.U.U.U.U.C.n.*+R.=+-+;+N K.U.U.U.U.>+.+,+'+X.)+!+  ",
"  ~+~+$+,+>+K.K.K.K.K.C.$.A x -+{+]+:.K.K.K.K.S.K.&+,+^+K./+!+  ",
"  (+_+:+<+[+}+|+|+}+|+1+2+C.3+;+4+U.5+^+|+}+|+}+^+^+<+6+U.@+4   ",
"  7+8+9+_+0+0+0+0+0+0+0+a+:+5+b+c+a+d+0+0+0+0+0+0+d+~+6+'+e+)+  ",
"    f+9+g+h+i+h+h+h+h+i+h+j+k+k+j+j+i+i+h+h+i+h+h+j+8+l+m+n+o+  ",
"      p+q+r+s+s+s+s+s+s+s+t+t+t+t+t+s+s+s+s+s+s+s+r+u+Y n+o+    ",
"        # G.G.v+v+v+v+v+v+v+v+v+v+v+v+v+v+v+v+v+v+v+v+w+x+y+    "};
