/* XPM */
static char * ico_yes_xpm[] = {
"24 24 83 1",
" 	c None",
".	c #000000",
"+	c #86A6C2",
"@	c #86A8B7",
"#	c #192831",
"$	c #263847",
"%	c #97B3CE",
"&	c #477198",
"*	c #779DC0",
"=	c #8FAECA",
"-	c #0B1218",
";	c #273C4F",
">	c #779DBF",
",	c #0B1217",
"'	c #3A5D7C",
")	c #C1D2E2",
"!	c #32516D",
"~	c #0C1216",
"{	c #A9C0D6",
"]	c #628DB5",
"^	c #0C1318",
"/	c #406789",
"(	c #0F1920",
"_	c #5F8BB4",
":	c #A4BDD5",
"<	c #355674",
"[	c #192733",
"}	c #D7E2EC",
"|	c #1F3243",
"1	c #19262E",
"2	c #A3BCD4",
"3	c #5987B2",
"4	c #131E28",
"5	c #5886B1",
"6	c #B2C7DB",
"7	c #253B4F",
"8	c #0A0F12",
"9	c #8BABC9",
"0	c #7299BD",
"a	c #3C6081",
"b	c #010201",
"c	c #090F12",
"d	c #7A9FC1",
"e	c #769CBF",
"f	c #213547",
"g	c #314F69",
"h	c #5483AF",
"i	c #1C2D3D",
"j	c #213445",
"k	c #638EB6",
"l	c #1E3040",
"m	c #010202",
"n	c #ADC3D8",
"o	c #42698D",
"p	c #060A0C",
"q	c #010303",
"r	c #48739B",
"s	c #6690B7",
"t	c #7DA1C2",
"u	c #BACDDF",
"v	c #8CACC9",
"w	c #4E7DA9",
"x	c #263C51",
"y	c #111C24",
"z	c #5D8AB4",
"A	c #5785B0",
"B	c #5584B0",
"C	c #4F7EAA",
"D	c #426A8F",
"E	c #0C141B",
"F	c #243A4F",
"G	c #4C79A3",
"H	c #49749C",
"I	c #294158",
"J	c #05090B",
"K	c #406689",
"L	c #47729A",
"M	c #3D6284",
"N	c #0A1014",
"O	c #33526E",
"P	c #1B2B3A",
"Q	c #050809",
"R	c #000100",
"                        ",
"                        ",
"                 ..     ",
"                 +@#    ",
"                $%&.    ",
"               .*=-.    ",
"               ;%&.     ",
"              .>=,.     ",
"              ')!.      ",
"             ~{]^.      ",
"    /(      ._:<.       ",
"    [}|     1234.       ",
"     567   890ab        ",
"     cdef .g6hi.        ",
"      j*klmnkop.        ",
"      qrstuvwx.         ",
"       yzABCDE.         ",
"        FCGHI.          ",
"        JKLME.          ",
"         NOP.           ",
"          QR.           ",
"                        ",
"                        ",
"                        "};
