/* XPM */
static char * ico_arc_xpm[] = {
"24 24 99 2",
"  	c None",
". 	c #2F4C69",
"+ 	c #304C6A",
"@ 	c #304D6B",
"# 	c #314E6C",
"$ 	c #2D4864",
"% 	c #304C69",
"& 	c #657B93",
"* 	c #A1B2C3",
"= 	c #A5B5C9",
"- 	c #A6B8CB",
"; 	c #A7B9CD",
"> 	c #A7B9CC",
", 	c #9DB0C5",
"' 	c #7D94AD",
") 	c #385472",
"! 	c #2C4762",
"~ 	c #466079",
"{ 	c #95A8BB",
"] 	c #8DA5BE",
"^ 	c #7994B3",
"/ 	c #7A95B4",
"( 	c #7B96B4",
"_ 	c #869FBB",
": 	c #9AAEC5",
"< 	c #99AEC4",
"[ 	c #7991AA",
"} 	c #2E4966",
"| 	c #6A7D92",
"1 	c #ACBACA",
"2 	c #9FB3C8",
"3 	c #7894B2",
"4 	c #7A95B3",
"5 	c #7B96B5",
"6 	c #7C97B5",
"7 	c #7D98B6",
"8 	c #88A0BC",
"9 	c #9CB0C7",
"0 	c #7791AC",
"a 	c #2E4965",
"b 	c #9EAFC0",
"c 	c #96ACC3",
"d 	c #7E99B7",
"e 	c #7F9AB7",
"f 	c #94AAC3",
"g 	c #627E9B",
"h 	c #2A425C",
"i 	c #7E90A4",
"j 	c #ADBECF",
"k 	c #7F9AB8",
"l 	c #809BB8",
"m 	c #395674",
"n 	c #2F4B68",
"o 	c #A2B2C4",
"p 	c #8EA5BF",
"q 	c #809BB9",
"r 	c #819CB9",
"s 	c #819CBA",
"t 	c #6985A2",
"u 	c #273E56",
"v 	c #9DB0C4",
"w 	c #859EBA",
"x 	c #829DBA",
"y 	c #7D98B5",
"z 	c #2D4763",
"A 	c #A0B4C9",
"B 	c #839EBB",
"C 	c #A1B4CA",
"D 	c #849FBC",
"E 	c #85A0BC",
"F 	c #A1B4C9",
"G 	c #95ABC2",
"H 	c #89A1BD",
"I 	c #85A0BD",
"J 	c #86A1BD",
"K 	c #2C4662",
"L 	c #7F95AF",
"M 	c #9DB1C7",
"N 	c #87A2BE",
"O 	c #6C88A4",
"P 	c #253A51",
"Q 	c #395573",
"R 	c #86A1BE",
"S 	c #7B93AB",
"T 	c #9EB2C9",
"U 	c #87A2BF",
"V 	c #6682A0",
"W 	c #263D55",
"X 	c #859CB4",
"Y 	c #9EB3C9",
"Z 	c #8DA6C0",
"` 	c #728DAA",
" .	c #718AA5",
"..	c #9FB4CA",
"+.	c #7690AA",
"@.	c #8FA8C2",
"#.	c #91AAC3",
"$.	c #90A9C3",
"%.	c #6C88A5",
"                                                ",
"                                                ",
"                . + @ # @ . $                   ",
"            % & * = - ; > , ' ) !               ",
"          ~ { - ] ^ ^ / ( _ : < [ }             ",
"        | 1 2 3 ^ 4 / ( 5 6 7 8 9 0 a           ",
"      % b c ^ ^ / ( 5 6 6 7 7 d e f g h         ",
"      i j ^ 4 / ( 5 6 7 7 d d k k l l m         ",
"    n o p / ( 5 6 6 7 7 d e k l q r s t u       ",
"    + v w ( 5 6 7 7 d d k k l r r x x y z       ",
"    @ A 5 6 6 7 7 d e k l q r s x B B B %       ",
"    # C 6 7 7 d d k k l r r x x B B D E #       ",
"    @ F 7 7 d e k l q r s x B B D D E D %       ",
"    . G H d k k l r r x x B B D E I J l K       ",
"    $ L M k l q r s x B B D D E I J N O P       ",
"      Q 9 l r r x x B B D E I J R N R m         ",
"      ! S T s x B B D D E I J N N U V W         ",
"        } X Y Z B D E I J R N U U ` K           ",
"          a  .....E I J N N U R V K             ",
"            h m +.M @.#.$.r %.m W               ",
"                u z % # % K P                   ",
"                                                ",
"                                                ",
"                                                "};
