/* XPM */
static char * ico_width_xpm[] = {
"16 16 13 1",
" 	c None",
".	c #000000",
"+	c #FFFFFF",
"@	c #EBEBEB",
"#	c #EAEAEA",
"$	c #D9D9D9",
"%	c #ECECEC",
"&	c #EEEEEE",
"*	c #DBDBDB",
"=	c #DCDCDC",
"-	c #DDDDDD",
";	c #DEDEDE",
">	c #314E6C",
"                ",
"................",
".+++@.+++@.+++@.",
".+#@$.+#@$.+#@$.",
".+%&*.+%&*.+%&*.",
".@=-;.@=-;.@=-;.",
"................",
"                ",
">  >   >  >     ",
"> >>   >> >     ",
">>>>   >>>>     ",
"> >>   >> >     ",
">  >   >  >     ",
"                ",
"                ",
"                "};
