/* XPM */
static char * ico_groupheader_xpm[] = {
"16 16 23 1",
" 	c None",
".	c #000000",
"+	c #D7D7D7",
"@	c #B5B5B5",
"#	c #FFFFFF",
"$	c #E7E7E7",
"%	c #D1940C",
"&	c #EED680",
"*	c #EAE4CE",
"=	c #CEC8B2",
"-	c #F6F0DA",
";	c #CCCCCC",
">	c #ACACAC",
",	c #F2F2F2",
"'	c #C9C9C9",
")	c #B0B0B0",
"!	c #B1B1B1",
"~	c #ADADAD",
"{	c #959595",
"]	c #D1D1D1",
"^	c #D2D2D2",
"/	c #B4B4B4",
"(	c #020202",
"                ",
" .............. ",
" .++++@######$. ",
" .%&%&%&%&%&%&. ",
" .&***=------%. ",
" .%***=------&. ",
" .&***=------%. ",
" .%***=------&. ",
" .&%&%&%&%&%&%. ",
" .+;;;>,,,,,,'. ",
" .+;;;>,,,,,,'. ",
" .+;;;>,,,,,,'. ",
" .+;;;>,,,,,,'. ",
" .')!~{;]^;;;/. ",
" .............( ",
"                "};
