/* XPM */
static char * ico_join_xpm[] = {
"16 16 29 1",
" 	c None",
".	c #000000",
"+	c #797293",
"@	c #625B81",
"#	c #FFFFFF",
"$	c #DFDFDF",
"%	c #E2E2E2",
"&	c #E4E4E4",
"*	c #E6E6E6",
"=	c #E8E8E8",
"-	c #EBEBEB",
";	c #EDEDED",
">	c #999999",
",	c #9C9C9C",
"'	c #9A9A9A",
")	c #9F9F9F",
"!	c #A0A0A0",
"~	c #EFEFEF",
"{	c #9D9D9D",
"]	c #F1F1F1",
"^	c #A2A2A2",
"/	c #A3A3A3",
"(	c #F3F3F3",
"_	c #F6F6F6",
":	c #F8F8F8",
"<	c #A6A6A6",
"[	c #A8A8A8",
"}	c #FAFAFA",
"|	c #FCFCFC",
"                ",
"                ",
" ...........    ",
" .+@@@@@@@@.    ",
" .#$%&*==-;.    ",
" .#>........... ",
" .#&.+@@@@@@@@. ",
" .#,.#$%&*==-;. ",
" .#=.#>',=))!~. ",
" .#{.#&*=-;;~]. ",
" .#-.#,{);^^/(. ",
" .#!.#-;~]((_:. ",
" .#~.#!^/(<<[}. ",
" ....#~](_::}|. ",
"    ........... ",
"                "};
