/* XPM */
static char * ico_bigopen_xpm[] = {
"48 48 803 2",
"  	c None",
". 	c #000000",
"+ 	c #CBCEBF",
"@ 	c #B0B49C",
"# 	c #B1B49D",
"$ 	c #B3B59E",
"% 	c #B2B59D",
"& 	c #B1B39D",
"* 	c #AFB39D",
"= 	c #AFB29C",
"- 	c #AFB29B",
"; 	c #AEB19B",
"> 	c #7E8072",
", 	c #ACB099",
"' 	c #9B9E82",
") 	c #9B9F82",
"! 	c #9A9E82",
"~ 	c #999C80",
"{ 	c #999D80",
"] 	c #989B80",
"^ 	c #979B80",
"/ 	c #979A7E",
"( 	c #969A7E",
"_ 	c #95997E",
": 	c #747762",
"< 	c #A7AA95",
"[ 	c #94977C",
"} 	c #93967B",
"| 	c #91957A",
"1 	c #909479",
"2 	c #92957B",
"3 	c #8F9379",
"4 	c #8F9278",
"5 	c #8E9277",
"6 	c #8D9177",
"7 	c #8C8F75",
"8 	c #555747",
"9 	c #9DA08B",
"0 	c #8B8F75",
"a 	c #8A8E74",
"b 	c #878B72",
"c 	c #878A71",
"d 	c #868971",
"e 	c #868970",
"f 	c #858870",
"g 	c #85886F",
"h 	c #84876F",
"i 	c #83876E",
"j 	c #81856C",
"k 	c #81846C",
"l 	c #80826B",
"m 	c #AEB19A",
"n 	c #BEC0AF",
"o 	c #BDBFAE",
"p 	c #BDBEAE",
"q 	c #BCBEAD",
"r 	c #BBBEAC",
"s 	c #BBBDAC",
"t 	c #BABDAC",
"u 	c #BABCAB",
"v 	c #BABBAB",
"w 	c #B9BBAB",
"x 	c #B8BBAA",
"y 	c #B7BAAA",
"z 	c #B7BAA9",
"A 	c #B7B9A7",
"B 	c #B4B6A7",
"C 	c #B3B6A5",
"D 	c #B1B4A4",
"E 	c #B1B4A2",
"F 	c #B0B2A2",
"G 	c #B0B1A2",
"H 	c #83857D",
"I 	c #919480",
"J 	c #7F826B",
"K 	c #7E816A",
"L 	c #7C7F68",
"M 	c #7A7D67",
"N 	c #797C66",
"O 	c #7B7E67",
"P 	c #7A7E67",
"Q 	c #787C65",
"R 	c #7A7C66",
"S 	c #787B65",
"T 	c #797C65",
"U 	c #777A64",
"V 	c #767964",
"W 	c #767862",
"X 	c #757862",
"Y 	c #747761",
"Z 	c #737661",
"` 	c #71745F",
" .	c #727460",
"..	c #71735E",
"+.	c #70735E",
"@.	c #6F725E",
"#.	c #6E715D",
"$.	c #6E715C",
"%.	c #6D6F5C",
"&.	c #6C6F5B",
"*.	c #6D705B",
"=.	c #6B6E5A",
"-.	c #6E705C",
";.	c #6D6F5B",
">.	c #6B6D59",
",.	c #686B57",
"'.	c #676A56",
").	c #676A55",
"!.	c #656956",
"~.	c #676955",
"{.	c #4F5143",
"].	c #848676",
"^.	c #535545",
"/.	c #313130",
"(.	c #30302F",
"_.	c #2F2F2F",
":.	c #2E2E2D",
"<.	c #2E2E2C",
"[.	c #2D2D2C",
"}.	c #2C2C2B",
"|.	c #2B2B2A",
"1.	c #424438",
"2.	c #5C5E4C",
"3.	c #5D5F4D",
"4.	c #494A3C",
"5.	c #797B6B",
"6.	c #696C58",
"7.	c #676956",
"8.	c #333333",
"9.	c #FFFFFF",
"0.	c #FCFCFC",
"a.	c #FAFAFA",
"b.	c #F8F8F8",
"c.	c #F6F6F6",
"d.	c #F5F5F5",
"e.	c #F3F3F3",
"f.	c #F1F1F1",
"g.	c #EFEFEF",
"h.	c #EDEDED",
"i.	c #EAEAEA",
"j.	c #E9E9E9",
"k.	c #272727",
"l.	c #545545",
"m.	c #545647",
"n.	c #434438",
"o.	c #707364",
"p.	c #626452",
"q.	c #5F6250",
"r.	c #353534",
"s.	c #161616",
"t.	c #292929",
"u.	c #282828",
"v.	c #262626",
"w.	c #252525",
"x.	c #242424",
"y.	c #232323",
"z.	c #222222",
"A.	c #141414",
"B.	c #171715",
"C.	c #0C0C09",
"D.	c #090907",
"E.	c #6D6E60",
"F.	c #5F614F",
"G.	c #5D5F4E",
"H.	c #D2D2D2",
"I.	c #3F3F3E",
"J.	c #8E8F8B",
"K.	c #C0C0C0",
"L.	c #C1C1C0",
"M.	c #C2C2C0",
"N.	c #C2C2C1",
"O.	c #C3C3C1",
"P.	c #C3C3C2",
"Q.	c #C2C2C2",
"R.	c #C4C4C2",
"S.	c #BEBEBC",
"T.	c #484845",
"U.	c #6B6D5F",
"V.	c #5C5F4D",
"W.	c #343434",
"X.	c #EEEEEE",
"Y.	c #787878",
"Z.	c #373736",
"`.	c #F8F9F2",
" +	c #E7E9DE",
".+	c #E4E5DA",
"++	c #E3E3D8",
"@+	c #E2E3D8",
"#+	c #E0E1D6",
"$+	c #DFE0D5",
"%+	c #DEDFD4",
"&+	c #DDDFD3",
"*+	c #DDDED3",
"=+	c #DCDDD1",
"-+	c #DBDBCF",
";+	c #DADBCE",
">+	c #D9DACD",
",+	c #D7D9CC",
"'+	c #D7D8CB",
")+	c #D6D8C9",
"!+	c #D6D7C9",
"~+	c #D4D5C8",
"{+	c #D3D4C7",
"]+	c #D1D3C4",
"^+	c #D1D2C4",
"/+	c #D1D1C2",
"(+	c #CECFC1",
"_+	c #CDCEBF",
":+	c #B2B3A6",
"<+	c #53544E",
"[+	c #6E6F61",
"}+	c #606251",
"|+	c #5E604F",
"1+	c #343433",
"2+	c #F2F2F2",
"3+	c #BEBEBE",
"4+	c #3D3D3D",
"5+	c #A4A4A2",
"6+	c #EEEFE4",
"7+	c #CCCEBB",
"8+	c #C7C9B5",
"9+	c #C6C8B2",
"0+	c #C5C7B2",
"a+	c #C2C5B0",
"b+	c #C0C2AE",
"c+	c #BFC1AD",
"d+	c #BEC1AD",
"e+	c #BDC0AC",
"f+	c #BBBEAA",
"g+	c #BABCAA",
"h+	c #BABBA9",
"i+	c #B8BBA8",
"j+	c #B6B8A5",
"k+	c #B6B8A4",
"l+	c #B4B6A2",
"m+	c #B0B2A0",
"n+	c #AEB19E",
"o+	c #ACAF9D",
"p+	c #ABAC9A",
"q+	c #A9AB99",
"r+	c #A8AA98",
"s+	c #A6A997",
"t+	c #8E9080",
"u+	c #3D3D38",
"v+	c #161715",
"w+	c #141410",
"x+	c #131410",
"y+	c #171717",
"z+	c #303030",
"A+	c #2B2B2B",
"B+	c #434343",
"C+	c #94958F",
"D+	c #EDEFE3",
"E+	c #D4D7C5",
"F+	c #C8CAB5",
"G+	c #C4C7B2",
"H+	c #C3C5B1",
"I+	c #C0C2AF",
"J+	c #BEC0AD",
"K+	c #BDC0AD",
"L+	c #BBBEAB",
"M+	c #BABDAA",
"N+	c #B9BBA9",
"O+	c #B8BAA7",
"P+	c #B7B9A6",
"Q+	c #B5B7A5",
"R+	c #B4B7A4",
"S+	c #B4B5A2",
"T+	c #B1B3A1",
"U+	c #AEB09D",
"V+	c #ADAF9C",
"W+	c #ACAD9B",
"X+	c #A7A897",
"Y+	c #A6A896",
"Z+	c #A5A795",
"`+	c #888A7C",
" @	c #353630",
".@	c #1B1B1B",
"+@	c #A9A9A9",
"@@	c #CBCBC8",
"#@	c #CDCDCC",
"$@	c #CDCDCD",
"%@	c #CECECD",
"&@	c #CECECE",
"*@	c #C8C8C6",
"=@	c #F0F1EC",
"-@	c #D0D2C0",
";@	c #C6C8B4",
">@	c #C2C4B0",
",@	c #C1C3B0",
"'@	c #BEC0AC",
")@	c #BCBFAB",
"!@	c #BABDA9",
"~@	c #B9BCA8",
"{@	c #B9BBA8",
"]@	c #B7B8A6",
"^@	c #B5B8A5",
"/@	c #B5B7A4",
"(@	c #B4B7A3",
"_@	c #B3B5A2",
":@	c #ABAD9B",
"<@	c #A9AA98",
"[@	c #A6A796",
"}@	c #A4A694",
"|@	c #A3A593",
"1@	c #868779",
"2@	c #2E2E2A",
"3@	c #121211",
"4@	c #F8F9EE",
"5@	c #E0E1CF",
"6@	c #DEDFCE",
"7@	c #DEE0D1",
"8@	c #DFDFD2",
"9@	c #DEDFD0",
"0@	c #DDDFCF",
"a@	c #DDDECF",
"b@	c #DCDDCF",
"c@	c #DBDDCE",
"d@	c #DBDCCD",
"e@	c #D9DACC",
"f@	c #D8D9CC",
"g@	c #C4C5B3",
"h@	c #C2C4B1",
"i@	c #C1C3AF",
"j@	c #BDBFAB",
"k@	c #BCBEAA",
"l@	c #BBBDA9",
"m@	c #BABCA8",
"n@	c #BABBA8",
"o@	c #B7B8A7",
"p@	c #B5B7A3",
"q@	c #B3B5A3",
"r@	c #B2B4A1",
"s@	c #B1B3A0",
"t@	c #AFB19E",
"u@	c #AFB09D",
"v@	c #ADAE9C",
"w@	c #A7A996",
"x@	c #A6A795",
"y@	c #A5A695",
"z@	c #828376",
"A@	c #262623",
"B@	c #020202",
"C@	c #E4E7D7",
"D@	c #D2D4BF",
"E@	c #CDCFB9",
"F@	c #CCCEB9",
"G@	c #CCCDB8",
"H@	c #CACBB7",
"I@	c #CACCB6",
"J@	c #C8CBB6",
"K@	c #C4C6B1",
"L@	c #C2C3AF",
"M@	c #C1C2AE",
"N@	c #C0C2AD",
"O@	c #BCBEAB",
"P@	c #BBBDAA",
"Q@	c #BABCA9",
"R@	c #B9BAA7",
"S@	c #B8B9A6",
"T@	c #B7B8A5",
"U@	c #B4B6A3",
"V@	c #B0B29F",
"W@	c #AEAF9D",
"X@	c #A7A896",
"Y@	c #7E7F71",
"Z@	c #161614",
"`@	c #CED0C2",
" #	c #D4D6C1",
".#	c #CBCDB8",
"+#	c #CACCB7",
"@#	c #CACBB6",
"##	c #C9CBB5",
"$#	c #C7C9B4",
"%#	c #C6C8B3",
"&#	c #C0C1AE",
"*#	c #BFC0AC",
"=#	c #BEC0AB",
"-#	c #B8B9A7",
";#	c #B6B7A4",
">#	c #B5B6A3",
",#	c #B4B5A3",
"'#	c #AFB29F",
")#	c #AAAB99",
"!#	c #A5A694",
"~#	c #A3A493",
"{#	c #A2A492",
"]#	c #7A7B6E",
"^#	c #11110F",
"/#	c #B9BAAD",
"(#	c #D4D6C2",
"_#	c #C9CCB7",
":#	c #C8CBB5",
"<#	c #C8C9B4",
"[#	c #C7C9B3",
"}#	c #C3C5B0",
"|#	c #C2C4AF",
"1#	c #C0C1AD",
"2#	c #B9BBA7",
"3#	c #B8BAA6",
"4#	c #B3B4A1",
"5#	c #B1B2A0",
"6#	c #ACAE9B",
"7#	c #ABAD9A",
"8#	c #A8A997",
"9#	c #A4A593",
"0#	c #A2A392",
"a#	c #A1A291",
"b#	c #9FA18F",
"c#	c #76776A",
"d#	c #0B0B0A",
"e#	c #A3A599",
"f#	c #D6D8C4",
"g#	c #C7CAB4",
"h#	c #C8C9B3",
"i#	c #C7C8B2",
"j#	c #C0C3AD",
"k#	c #BFC2AD",
"l#	c #BFC1AC",
"m#	c #BEBFAB",
"n#	c #BDBEAA",
"o#	c #BCBDA9",
"p#	c #BBBCA9",
"q#	c #B7B9A5",
"r#	c #B5B8A4",
"s#	c #B1B29F",
"t#	c #B0B19F",
"u#	c #AFB09E",
"v#	c #A9AC99",
"w#	c #A8A996",
"x#	c #A3A492",
"y#	c #A1A391",
"z#	c #A0A18F",
"A#	c #9E9F8E",
"B#	c #9A9C8A",
"C#	c #707166",
"D#	c #060605",
"E#	c #8E9086",
"F#	c #D7DAC5",
"G#	c #C5C7B1",
"H#	c #C5C6B1",
"I#	c #C4C5B1",
"J#	c #C2C4AE",
"K#	c #C1C3AD",
"L#	c #BCBEA9",
"M#	c #BCBDA8",
"N#	c #BBBCA7",
"O#	c #BABBA7",
"P#	c #B9BAA6",
"Q#	c #B8BAA5",
"R#	c #B3B5A1",
"S#	c #B2B3A0",
"T#	c #B0B19D",
"U#	c #ACAE9A",
"V#	c #AAAD99",
"W#	c #A9AB98",
"X#	c #A7A895",
"Y#	c #9FA08E",
"Z#	c #9D9E8D",
"`#	c #9C9E8C",
" $	c #969786",
".$	c #67685D",
"+$	c #787971",
"@$	c #D8DBC6",
"#$	c #C3C4AF",
"$$	c #C3C4AE",
"%$	c #BEC0AA",
"&$	c #BDBFA9",
"*$	c #BBBDA8",
"=$	c #B9BBA6",
"-$	c #B8B9A4",
";$	c #B7B8A4",
">$	c #B6B8A3",
",$	c #B5B7A2",
"'$	c #B4B6A1",
")$	c #B2B5A0",
"!$	c #B1B29E",
"~$	c #B0B29E",
"{$	c #AEAF9C",
"]$	c #ADAE9B",
"^$	c #AAAB98",
"/$	c #A9AB97",
"($	c #A6A894",
"_$	c #A5A794",
":$	c #A4A592",
"<$	c #A2A391",
"[$	c #A0A28F",
"}$	c #9D9E8C",
"|$	c #9B9C8B",
"1$	c #999B89",
"2$	c #909281",
"3$	c #5D5F55",
"4$	c #484944",
"5$	c #DADCC7",
"6$	c #C1C2AD",
"7$	c #C0C2AC",
"8$	c #BFC2AB",
"9$	c #BEC1AA",
"0$	c #BCBEA8",
"a$	c #BABCA7",
"b$	c #B7B8A3",
"c$	c #B6B7A3",
"d$	c #B5B6A2",
"e$	c #B2B49F",
"f$	c #B1B39E",
"g$	c #AEB19D",
"h$	c #AEB09C",
"i$	c #ADAE9A",
"j$	c #ACAD9A",
"k$	c #ABAD99",
"l$	c #A8AA97",
"m$	c #A5A793",
"n$	c #A4A693",
"o$	c #A2A592",
"p$	c #A2A491",
"q$	c #A1A290",
"r$	c #A0A18E",
"s$	c #9E9F8D",
"t$	c #9C9D8C",
"u$	c #989988",
"v$	c #979986",
"w$	c #979887",
"x$	c #8D8E7E",
"y$	c #57584D",
"z$	c #393935",
"A$	c #DCDDCA",
"B$	c #BFC0AA",
"C$	c #BDC0A9",
"D$	c #BBBDA7",
"E$	c #B9BCA6",
"F$	c #B7B9A4",
"G$	c #B6B7A1",
"H$	c #B5B6A1",
"I$	c #B3B4A0",
"J$	c #B2B39F",
"K$	c #B0B29D",
"L$	c #AFB19D",
"M$	c #ACAD99",
"N$	c #ABAC98",
"O$	c #A5A693",
"P$	c #A3A692",
"Q$	c #A3A592",
"R$	c #9FA08D",
"S$	c #9C9D8B",
"T$	c #9A9B8A",
"U$	c #979886",
"V$	c #959886",
"W$	c #959785",
"X$	c #898A7A",
"Y$	c #4F5047",
"Z$	c #282926",
"`$	c #DDE0CA",
" %	c #BDBEA8",
".%	c #BABCA6",
"+%	c #B9BBA5",
"@%	c #B9BBA4",
"#%	c #B7BAA4",
"$%	c #B3B6A0",
"%%	c #B3B59F",
"&%	c #AFB19C",
"*%	c #AEB09B",
"=%	c #AAAC98",
"-%	c #AAAB97",
";%	c #A8A995",
">%	c #A3A491",
",%	c #A2A490",
"'%	c #A1A390",
")%	c #9EA18E",
"!%	c #9EA08D",
"~%	c #959684",
"{%	c #949684",
"]%	c #939583",
"^%	c #858776",
"/%	c #494A42",
"(%	c #191917",
"_%	c #DFE1CD",
":%	c #BABBA5",
"<%	c #B8BAA3",
"[%	c #B6B9A3",
"}%	c #B4B6A0",
"|%	c #B2B59F",
"1%	c #B1B49E",
"2%	c #AFB09B",
"3%	c #ADAF9A",
"4%	c #ADAF99",
"5%	c #A8AB96",
"6%	c #A8AA96",
"7%	c #A7A894",
"8%	c #A6A794",
"9%	c #A2A390",
"0%	c #A1A28F",
"a%	c #9FA28F",
"b%	c #9FA18E",
"c%	c #9DA08D",
"d%	c #9D9F8C",
"e%	c #9B9C8A",
"f%	c #939484",
"g%	c #929483",
"h%	c #939482",
"i%	c #828474",
"j%	c #43443C",
"k%	c #080808",
"l%	c #BCBFAD",
"m%	c #B9BAA4",
"n%	c #B6B9A2",
"o%	c #B5B8A2",
"p%	c #B0B39D",
"q%	c #AFB19B",
"r%	c #AEAF9A",
"s%	c #ACAE99",
"t%	c #AAAC97",
"u%	c #A9AB96",
"v%	c #A6A994",
"w%	c #A5A692",
"x%	c #9C9E8B",
"y%	c #9B9C89",
"z%	c #939483",
"A%	c #929383",
"B%	c #919382",
"C%	c #919381",
"D%	c #808171",
"E%	c #3C3D36",
"F%	c #B8B9A9",
"G%	c #B4B69E",
"H%	c #B0B29C",
"I%	c #AEB09A",
"J%	c #ADAE99",
"K%	c #ABAD98",
"L%	c #ABAC97",
"M%	c #A9AA95",
"N%	c #A8AA95",
"O%	c #A4A692",
"P%	c #A4A591",
"Q%	c #A3A490",
"R%	c #9E9F8C",
"S%	c #9B9D8A",
"T%	c #9A9B88",
"U%	c #989A88",
"V%	c #929382",
"W%	c #909381",
"X%	c #909280",
"Y%	c #8F907F",
"Z%	c #90917F",
"`%	c #7C7E6F",
" &	c #363731",
".&	c #93948A",
"+&	c #BBBDA5",
"@&	c #ACAE98",
"#&	c #ABAE99",
"$&	c #AAAB96",
"%&	c #A7A994",
"&&	c #A5A893",
"*&	c #A3A590",
"=&	c #A2A48F",
"-&	c #A2A38F",
";&	c #A0A28E",
">&	c #9D9E8B",
",&	c #9A9D8A",
"'&	c #999C88",
")&	c #999B88",
"!&	c #999A87",
"~&	c #979987",
"{&	c #969785",
"]&	c #949584",
"^&	c #919282",
"/&	c #8F9180",
"(&	c #8E907F",
"_&	c #8E8F7D",
":&	c #8D8E7C",
"<&	c #8C8E7D",
"[&	c #797A6B",
"}&	c #22221F",
"|&	c #797A72",
"1&	c #AFB19A",
"2&	c #ADB099",
"3&	c #ACAF98",
"4&	c #ABAD97",
"5&	c #AAAB95",
"6&	c #A8A994",
"7&	c #A6A892",
"8&	c #A4A691",
"9&	c #A1A48F",
"0&	c #A0A38E",
"a&	c #9D9E8A",
"b&	c #9C9D8A",
"c&	c #9B9D89",
"d&	c #999A88",
"e&	c #989B87",
"f&	c #969986",
"g&	c #969885",
"h&	c #959685",
"i&	c #949583",
"j&	c #919281",
"k&	c #909180",
"l&	c #8D8E7D",
"m&	c #8C8E7C",
"n&	c #8C8D7B",
"o&	c #8B8C7A",
"p&	c #8A8B7B",
"q&	c #6F7163",
"r&	c #1C1D1A",
"s&	c #595A55",
"t&	c #C5C8B1",
"u&	c #AAAC96",
"v&	c #A9AB95",
"w&	c #A8AA94",
"x&	c #A5A791",
"y&	c #A4A590",
"z&	c #A3A48F",
"A&	c #9FA28D",
"B&	c #9EA08C",
"C&	c #9D9F8A",
"D&	c #9C9E8A",
"E&	c #9C9D89",
"F&	c #9A9C88",
"G&	c #989986",
"H&	c #949683",
"I&	c #939582",
"J&	c #929381",
"K&	c #919280",
"L&	c #8E907E",
"M&	c #8C8D7C",
"N&	c #898A79",
"O&	c #898A78",
"P&	c #878878",
"Q&	c #888979",
"R&	c #8A8B7A",
"S&	c #686A5D",
"T&	c #434440",
"U&	c #C6CAB3",
"V&	c #A8AB94",
"W&	c #A7A993",
"X&	c #A6A893",
"Y&	c #A5A792",
"Z&	c #A5A690",
"`&	c #A4A58F",
" *	c #A2A48E",
".*	c #A1A28E",
"+*	c #A0A18D",
"@*	c #9FA08C",
"#*	c #9C9F8A",
"$*	c #9A9C89",
"%*	c #979985",
"&*	c #929481",
"**	c #8F907E",
"=*	c #8D8F7D",
"-*	c #8C8D7D",
";*	c #8B8C7C",
">*	c #878877",
",*	c #868777",
"'*	c #888A79",
")*	c #5C5E53",
"!*	c #0D0D0C",
"~*	c #222220",
"{*	c #A4A690",
"]*	c #9D9F8B",
"^*	c #999A86",
"/*	c #929380",
"(*	c #858677",
"_*	c #8B8C7B",
":*	c #4F5147",
"<*	c #0C0C0C",
"[*	c #8E907D",
"}*	c #8A8D7A",
"|*	c #868877",
"1*	c #848675",
"2*	c #838574",
"3*	c #818473",
"4*	c #7F8070",
"5*	c #7E7F70",
"6*	c #7D7E6F",
"7*	c #7C7D6E",
"8*	c #7B7D6D",
"9*	c #7B7C6D",
"0*	c #7A7C6D",
"a*	c #78796B",
"b*	c #777969",
"c*	c #777869",
"d*	c #767869",
"e*	c #767768",
"f*	c #747768",
"g*	c #747567",
"h*	c #747566",
"i*	c #737466",
"j*	c #737667",
"k*	c #747667",
"l*	c #757667",
"m*	c #767868",
"n*	c #40423A",
"o*	c #1F1F1D",
"p*	c #181815",
"q*	c #171815",
"r*	c #171714",
"s*	c #161613",
"t*	c #141513",
"u*	c #141413",
"v*	c #151513",
"w*	c #141512",
"x*	c #141412",
"y*	c #131411",
"z*	c #141411",
"A*	c #131311",
"B*	c #090908",
"                                                                                                ",
"                                                                                                ",
"                                                                                                ",
"                                                                                                ",
"                                                                                                ",
"                                                                                                ",
"          . . . . . . . . . . . . . . .                                                         ",
"        . + @ # $ # % & % # # * = - ; > .                                                       ",
"        . , ' ) ! ! ~ { { ~ ] ^ / ( _ : .                                                       ",
"        . < [ [ } | 1 2 | 1 3 4 5 6 6 7 8 . . . . . . . . . . . . . . . . . . . . . . .         ",
"        . 9 0 a b c d c e f f g h i j k l m n o o p q r s t u v w x y z A B C D E F G H .       ",
"        . I J K L M N O P Q R S T U V W X Y Z `  ...+.@.#.$.%.&.*.=.-.;.>.,.'.).!.~.~.{..       ",
"        . ].: ` ^././././././././.(.(.(.(.(.(.(.(.(.(.(.(.(.(.(._._._.:.<.[.}.|.1.2.3.4..       ",
"        . 5.6.7.8.9.9.9.9.9.9.9.9.9.9.9.9.9.9.9.9.9.9.9.9.0.a.b.c.d.e.f.g.h.i.j.k.l.m.n..       ",
"        . o.p.q.r.9.9.9.9.9.9.9.9.9.s.t.t.t.u.u.u.u.u.u.k.k.u.v.v.v.v.w.w.x.y.z.A.B.C.D.. .     ",
"        . E.F.G.r.9.9.9.9.9.9.b.H.I.J.K.K.L.L.M.N.N.O.P.P.P.Q.Q.Q.P.R.R.O.O.N.O.M.M.L.M.S.T..   ",
"        . U.G.V.W.9.9.9.9.9.9.X.Y.Z.`. +.+++@+#+$+%+&+*+=+=+-+;+>+,+'+)+!+~+{+]+^+/+(+_+:+<+.   ",
"        . [+}+|+1+9.9.9.9.9.2+3+4+5+6+7+8+9+0+a+b+c+d+e+f+g+h+i+A j+k+l+E m+n+o+p+q+r+s+t+u+.   ",
"      . . v+w+x+y+z+z+z+z+z+A+B+C+D+E+F+0+G+H+I+J+K+L+M+g+N+O+P+Q+R+S+T+m+U+V+W+q+X+Y+Z+`+ @.   ",
"    .@+@@@@@#@$@$@$@%@%@%@&@&@*@=@-@;@H+>@,@b+'@)@f+!@~@{@]@^@/@(@_@T+m+U+V+:@<@X+[@}@|@1@2@    ",
"    3@4@5@6@7@8@9@0@a@b@c@d@e@f@,+g@h@i@I+c+'@j@k@f+l@m@n@o@k+/@p@q@r@s@t@u@v@p+<@w@x@y@z@A@    ",
"    B@C@D@E@F@G@H@I@J@8+;@0+K@H+>@L@M@M@N@c+'@O@P@Q@N+R@S@T@/@U@_@_@T+V@t@W@v@p+<@X@y@}@Y@Z@    ",
"    . `@ #.#+#@###F+$#%#0+K@H+>@L@&#*#'@=#j@k@l@m@{@-#T@;#>#,#r@s@V@'#U+W@W+)#<@X@!#~#{#]#^#    ",
"    . /#(#_#:#<#[#%#0+K@}#|#i@b+1#*#j@)@l@l@m@2#3#j+;#>#S+4#5#V@t@U+6#6#7#)#8#x@9#0#a#b#c#d#    ",
"    . e#f#g#h#i#0+K@}#|#j#k#l#m#n#o#p#m@2#3#3#q#r#U@S+4#s#t#u#V+6#7#v#<@w#X@!#x#y#z#A#B#C#D#    ",
"    . E#F#G#H#I#}#J#K#l#'@j@L#M#N#O#P#Q#k+p@U@l+R#S#s#T#W@v@U#V#W#r+w#X#!#x#y#a#Y#Z#`# $.$.     ",
"    . +$@$#$$$J#K#l#%$&$L#*$=$=$-$;$>$,$'$)$s@!$~$T#{$]$p+^$/$w@($_$!#:$<$[$Y#}$|$B#1$2$3$.     ",
"      4$5$6$7$8$9$&$0$a$=$Q#-$b$c$d$R#e$f$~$g$h$i$j$k$)#l$X#($m$n$o$p$q$r$s$t$B#u$v$w$x$y$.     ",
"      z$A$B$C$0$0$D$E$Q#F$>$G$H$I$J$f$K$L$V+U#M$N$<@w#X#x@O$P$Q$y#q$z#R$Z#S$T$u$U$V$W$X$Y$.     ",
"      Z$`$ %D$.%+%@%#%>$,$$%%%J$!$T#&%*%U#k$=%-%;%X#!#9#>%,%'%'%[$)%!%}$S$T$u$U$~%{%]%^%/%.     ",
"      (%_%:%@%<%[%,$,$}%|%1%!$T#2%3%4%k$=%5%6%7%8%O$>%9%0%a%b%c%d%S$S$e%T$u$U$~%f%g%h%i%j%.     ",
"      k%l%m%n%o%}%%%1%p%L$q%2%r%s%N$t%u%< v%m$w%:$,%0%r$R$!%d%x%S$y%1$u$U$~%~%z%A%B%C%D%E%.     ",
"      . F%@%G%|%# H%q%I%r%J%K%L%-%M%N%($m$O%P%Q%0%r$R$R%}$x%S%y%T%U%w$U$~%z%V%W%X%Y%Z%`% &.     ",
"      . .&+&& H%q%I%@&#&L%$&M%%&v%&&O%O%*&=&-&;&R$R%>&e%,&'&)&!&~&U${&]&h%^&/&(&_&:&<&[&}&.     ",
"      . |&C$1&2&3&4&t%5&M%6&7&w%8&*&9&0&r$R$>&a&b&c&T%d&e&v$f&g&h&i&h%j&k&(&l&m&n&o&p&q&r&.     ",
"      . s&t&u&v&w&%&&&x&y&z&-&;&A&B&C&D&E&F&!&G&U${&~%H&I&h%J&K&Z%L&x$M&p&N&O&P&P&Q&R&S&^#      ",
"      . T&U&V&W&X&Y&Z&`& *.*+*@*9 #*S%$*T%!&%*{&~%i&h%&*C%K&Z%**=*-*;*R&Q&>*,*,*P&'*p&)*!*      ",
"        ~*H@X&Y&{*`& *.*+*+*@*]*#*S%$*T%^*%*{&~%i&h%/*W%K&Y%**=*-*;*R&Q&P&(*,*>*Q&X$_*:*D#      ",
"        <*F%L&[*m&n&}*X$Q&P&|*^%1*2*3*3*D%4*5*6*7*8*9*0*[&a*b*c*d*e*f*g*h*i*j*h*k*l*m*n*.       ",
"          o*p*p*q*B.B.B.r*Z@r*Z@Z@s*s*s*t*u*v*v*w*w*x*x*x*x*y*z*y*y*y*y*A*A*A*A*A*A*A*B*.       ",
"                                                                                                ",
"                                                                                                ",
"                                                                                                ",
"                                                                                                ",
"                                                                                                ",
"                                                                                                ",
"                                                                                                ",
"                                                                                                "};
