/* XPM */
static char * ico_agata_xpm[] = {
"14 14 138 2",
"  	c None",
". 	c #94C3DF",
"+ 	c #68A2CA",
"@ 	c #5B98C4",
"# 	c #67A0C9",
"$ 	c #77ACD0",
"% 	c #79B0D3",
"& 	c #387CB2",
"* 	c #8DB3D5",
"= 	c #BDD3E7",
"- 	c #B9D1E6",
"; 	c #99BBDA",
"> 	c #669AC6",
", 	c #68A0CA",
"' 	c #8ABBDA",
") 	c #367BB1",
"! 	c #C0D5E8",
"~ 	c #95BBD5",
"{ 	c #3279AE",
"] 	c #2571AA",
"^ 	c #4485B5",
"/ 	c #8CB4D2",
"( 	c #9CBDDB",
"_ 	c #6198C5",
": 	c #367EB3",
"< 	c #AFCAE1",
"[ 	c #78A7CA",
"} 	c #1F70AC",
"| 	c #4588BD",
"1 	c #4F8DC1",
"2 	c #4587BC",
"3 	c #2C74AE",
"4 	c #387CB0",
"5 	c #9CBDDA",
"6 	c #88BAD9",
"7 	c #4684B7",
"8 	c #B5D0E3",
"9 	c #2072AE",
"0 	c #6497C7",
"a 	c #87ADD3",
"b 	c #C6D9EA",
"c 	c #8AAFD4",
"d 	c #709DCB",
"e 	c #6093C4",
"f 	c #2B73AB",
"g 	c #9ABCD9",
"h 	c #5B96C3",
"i 	c #67A2CA",
"j 	c #7BA8CD",
"k 	c #6A9FC6",
"l 	c #3983BA",
"m 	c #719ECB",
"n 	c #D4E2F0",
"o 	c #EBF2F8",
"p 	c #7EA7D0",
"q 	c #387CB4",
"r 	c #4887B6",
"s 	c #7DA8CF",
"t 	c #71A9CF",
"u 	c #5A99C4",
"v 	c #89B1D2",
"w 	c #5391BE",
"x 	c #3D85BC",
"y 	c #81A8D1",
"z 	c #F9FCFD",
"A 	c #DFEAF3",
"B 	c #F2F7FA",
"C 	c #BBD1E6",
"D 	c #3782B9",
"E 	c #1667A3",
"F 	c #AEC9E1",
"G 	c #639EC7",
"H 	c #69A3CA",
"I 	c #6D9EC7",
"J 	c #6FA2C7",
"K 	c #2E7EB7",
"L 	c #9BBBDB",
"M 	c #F6FAFC",
"N 	c #B0C9E2",
"O 	c #7CA5CF",
"P 	c #78A3CE",
"Q 	c #6799C8",
"R 	c #2278B2",
"S 	c #4888B7",
"T 	c #99BBD9",
"U 	c #7FB4D6",
"V 	c #3479B0",
"W 	c #B2CDE1",
"X 	c #1C72AE",
"Y 	c #74A4CE",
"Z 	c #94B6D8",
"` 	c #3D83B9",
" .	c #4F8EBC",
"..	c #92B8D6",
"+.	c #498BBB",
"@.	c #2C77AE",
"#.	c #A0C0DC",
"$.	c #659CC4",
"%.	c #327FB7",
"&.	c #6D9CCA",
"*.	c #5D91C3",
"=.	c #659BC3",
"-.	c #77A5CB",
";.	c #77AED2",
">.	c #2B73AC",
",.	c #C8DCEB",
"'.	c #5D97C1",
").	c #367FB6",
"!.	c #6598C7",
"~.	c #5F93C4",
"{.	c #4987B8",
"].	c #8BB3D3",
"^.	c #73AACF",
"/.	c #36BAEA",
"(.	c #5F9CC6",
"_.	c #357AB0",
":.	c #C6DAEA",
"<.	c #B2CEE1",
"[.	c #76A7CA",
"}.	c #86B1D0",
"|.	c #B3CDE2",
"1.	c #609BC5",
"2.	c #817F5A",
"3.	c #42B39B",
"4.	c #43BEEB",
"5.	c #69A4CB",
"6.	c #236FA9",
"7.	c #6398C2",
"8.	c #94B9D6",
"9.	c #76A5CA",
"0.	c #4B8BBB",
"a.	c #DB354B",
"b.	c #968065",
"c.	c #42B39A",
"d.	c #A2CDE6",
"e.	c #71A9CE",
"f.	c #609DC7",
"g.	c #6FA8CE",
"      . + @ # $             ",
"    % & * = - ; > ,         ",
"  ' ) ! ~ { ] ^ / ( _       ",
"  : < [ } | 1 2 3 4 5 _     ",
"6 7 8 9 0 a b c d e f g h   ",
"i j k l m n o o p d q r s t ",
"u v w x y z A B C d D E F G ",
"H I J K L M N O P Q R S T H ",
"U V W X Y Z d d d `  ...+.  ",
"  @.#.$.%.&.d d *.=.-.G     ",
"  ;.>.,.'.).!.~.{.].^.    /.",
"    (._.:.<.[.}.|.1.  2.3.4.",
"      5.6.7.8.9.0.  a.b.c.4.",
"        d.e.f.g.            "};
