/* XPM */
static char * ico_zip_xpm[] = {
"14 14 114 2",
"  	c None",
". 	c #B3A990",
"+ 	c #8F7F5B",
"@ 	c #CDC5AC",
"# 	c #B3AA8E",
"$ 	c #AFA78F",
"% 	c #B1A586",
"& 	c #A39467",
"* 	c #96844D",
"= 	c #6D5F2C",
"- 	c #D4CFC2",
"; 	c #CFC6AB",
"> 	c #C2B795",
", 	c #B1AA95",
"' 	c #B6AB8C",
") 	c #AC9E77",
"! 	c #A8996F",
"~ 	c #A08E5B",
"{ 	c #917E45",
"] 	c #8A7738",
"^ 	c #654D1B",
"/ 	c #D0CAB8",
"( 	c #C4BFAF",
"_ 	c #ADA58D",
": 	c #AEA28E",
"< 	c #B6A988",
"[ 	c #A99A72",
"} 	c #A49569",
"| 	c #9E8C58",
"1 	c #8E7B3D",
"2 	c #704C1B",
"3 	c #4C2513",
"4 	c #C7BD95",
"5 	c #C5BA8F",
"6 	c #BBB499",
"7 	c #96856B",
"8 	c #958575",
"9 	c #B1A583",
"0 	c #A09060",
"a 	c #887133",
"b 	c #6D3715",
"c 	c #713015",
"d 	c #583516",
"e 	c #CBC19A",
"f 	c #C2B687",
"g 	c #BEB280",
"h 	c #C1B484",
"i 	c #BEB594",
"j 	c #C8C2B1",
"k 	c #7D592E",
"l 	c #701D15",
"m 	c #7B3317",
"n 	c #875319",
"o 	c #644618",
"p 	c #CDC4A0",
"q 	c #C5BA8E",
"r 	c #BEB180",
"s 	c #BBAD78",
"t 	c #D2CAAE",
"u 	c #7B1F19",
"v 	c #7C2417",
"w 	c #8A4E1A",
"x 	c #96661C",
"y 	c #6A4F1C",
"z 	c #D1C8A6",
"A 	c #C8BE95",
"B 	c #D2C9AA",
"C 	c #832E18",
"D 	c #883F19",
"E 	c #965F1C",
"F 	c #9F7320",
"G 	c #70572A",
"H 	c #D3CBAC",
"I 	c #CCC29C",
"J 	c #C8BE94",
"K 	c #C5BA8D",
"L 	c #C1B686",
"M 	c #D0C8AD",
"N 	c #9D6349",
"O 	c #A06D4A",
"P 	c #A8804C",
"Q 	c #AD8C53",
"R 	c #89775C",
"S 	c #B3A884",
"T 	c #C9BF9B",
"U 	c #CCC29B",
"V 	c #C4B98D",
"W 	c #ABA39E",
"X 	c #8C87A3",
"Y 	c #B0ACBF",
"Z 	c #B5B1C3",
"` 	c #A4A0B6",
" .	c #ACA8BC",
"..	c #6A6482",
"+.	c #AB9F78",
"@.	c #CAC098",
"#.	c #C7BD93",
"$.	c #ABA4A0",
"%.	c #AEAABE",
"&.	c #9B97AF",
"*.	c #BEBBCA",
"=.	c #B1ADC0",
"-.	c #686280",
";.	c #7D7149",
">.	c #AFA37A",
",.	c #9F9891",
"'.	c #757083",
").	c #6D697E",
"!.	c #837F90",
"~.	c #767286",
"{.	c #524D6A",
"].	c #45405B",
"^.	c #8D846D",
"/.	c #2A170B",
"                . +         ",
"        @ # $ % & * =       ",
"  - ; > , ' ) ! ~ { ] ^     ",
"  / ( _ : < [ } | 1 2 3     ",
"  4 5 6 7 8 9 0 a b c d     ",
"  e f g h i j k l m n o     ",
"  p q f r s t u v w x y     ",
"  z A q f r B C D E F G     ",
"  H I J K L M N O P Q R     ",
"  S T U J V W X Y Z `  ...  ",
"      +.@.#.$.%.&.*.=.=.-.  ",
"        ;.>.,.'.).!.~.{.].  ",
"            ^./.            ",
"                            "};
