/* XPM */
static char * ico_import_sql_xpm[] = {
"16 16 32 1",
" 	c None",
".	c #EDD484",
"+	c #E7D288",
"@	c #F2E1AB",
"#	c #F7EFD1",
"$	c #F2E2AA",
"%	c #EBD484",
"&	c #EED891",
"*	c #F3EBCF",
"=	c #FBFAF6",
"-	c #F4ECCF",
";	c #EEDA91",
">	c #000000",
",	c #080603",
"'	c #3D3820",
")	c #D2C07F",
"!	c #EED990",
"~	c #302B18",
"{	c #8E804F",
"]	c #F2E3AB",
"^	c #F3EACC",
"/	c #F3EBCC",
"(	c #F2E3AA",
"_	c #14120A",
":	c #4A4327",
"<	c #EDD684",
"[	c #AA9C64",
"}	c #040200",
"|	c #141209",
"1	c #3C371F",
"2	c #020000",
"3	c #060501",
"                ",
"                ",
"                ",
"                ",
"          .++.  ",
"         .@##$% ",
"         &*==-; ",
" >>   >,')-==-! ",
">> > >> ~{]^/(% ",
">>   >> _:<[[<  ",
" >>  >> }| 11   ",
"  >> >> >2 33   ",
"  >> >> >> >>   ",
"> >> >>>>> >>   ",
" >>   >>>  >>>> ",
"         >      "};
