/* XPM */
static char * ico_txt_xpm[] = {
"14 14 114 2",
"  	c None",
". 	c #E9A86A",
"+ 	c #797779",
"@ 	c #B4B3B4",
"# 	c #B6B4B6",
"$ 	c #B3B2B3",
"% 	c #ABA7A9",
"& 	c #706E6E",
"* 	c #7E7B7E",
"= 	c #FDA644",
"- 	c #E1995A",
"; 	c #898689",
"> 	c #F2EFF2",
", 	c #FCFCFC",
"' 	c #FCFBFC",
") 	c #F7F4F7",
"! 	c #9B959B",
"~ 	c #D8D7D8",
"{ 	c #8D8B8D",
"] 	c #FD8706",
"^ 	c #FFA445",
"/ 	c #D7945C",
"( 	c #A38D80",
"_ 	c #F5F0F0",
": 	c #FFFFFF",
"< 	c #A7A6A7",
"[ 	c #ADACAD",
"} 	c #545254",
"| 	c #DC6F04",
"1 	c #FC8506",
"2 	c #FDA147",
"3 	c #E4A774",
"4 	c #E8CBB7",
"5 	c #FCFAF9",
"6 	c #DDD9DD",
"7 	c #B3B0AF",
"8 	c #8D8985",
"9 	c #4C4A4A",
"0 	c #723501",
"a 	c #DD6F05",
"b 	c #FE8808",
"c 	c #FB9F43",
"d 	c #E9AA7A",
"e 	c #EED4C8",
"f 	c #FFFBFF",
"g 	c #F8EDEF",
"h 	c #D6CBC6",
"i 	c #6D6866",
"j 	c #6B2F00",
"k 	c #D76B03",
"l 	c #F18128",
"m 	c #F4B794",
"n 	c #FFDCC6",
"o 	c #F3E9E3",
"p 	c #FFFCFA",
"q 	c #FEF6F4",
"r 	c #F8EEE7",
"s 	c #E2D5CB",
"t 	c #706861",
"u 	c #6F340C",
"v 	c #A65D31",
"w 	c #CD8460",
"x 	c #F8CFB3",
"y 	c #F6CEB6",
"z 	c #F9F1ED",
"A 	c #F8F1E9",
"B 	c #F9EADE",
"C 	c #E2D1BE",
"D 	c #71685F",
"E 	c #4F4238",
"F 	c #7B5037",
"G 	c #D08D6C",
"H 	c #FACDB2",
"I 	c #F7D6C6",
"J 	c #F8EADE",
"K 	c #F5E3D4",
"L 	c #E1CEB6",
"M 	c #72665D",
"N 	c #747273",
"O 	c #888280",
"P 	c #6A5149",
"Q 	c #A0755D",
"R 	c #AE9D8A",
"S 	c #ECDBC9",
"T 	c #F0DEC6",
"U 	c #DEC8AA",
"V 	c #706456",
"W 	c #8A8686",
"X 	c #E1D6D1",
"Y 	c #C1B8B2",
"Z 	c #6F6762",
"` 	c #696054",
" .	c #CCBBA5",
"..	c #F2D6BD",
"+.	c #DFC2A1",
"@.	c #726354",
"#.	c #888382",
"$.	c #E1D7CF",
"%.	c #D6CDBE",
"&.	c #C2B4A4",
"*.	c #AD9E8B",
"=.	c #C0AB91",
"-.	c #D6BB98",
";.	c #CDAE8A",
">.	c #716252",
",.	c #585657",
"'.	c #545150",
").	c #52504D",
"!.	c #534E4C",
"~.	c #524D49",
"{.	c #524C46",
"].	c #524B43",
"^.	c #514941",
"/.	c #403B38",
"                            ",
"                            ",
"  .     + @ # $ % & *       ",
"  = -   ; > , ' ) ! ~ {     ",
"  ] ^ / ( _ : : : < [ @ }   ",
"  | 1 2 3 4 5 : : 6 7 8 9   ",
"  0 a b c d e : : f g h i   ",
"    j k l m n o p q r s t   ",
"      u v w x y z A B C D   ",
"        E F G H I J K L M   ",
"        N O P Q R S T U V   ",
"        W X Y Z `  ...+.@.  ",
"        #.$.%.&.*.=.-.;.>.  ",
"        ,.'.).!.~.{.].^./.  "};
