/* XPM */
static char * ico_sql_xpm[] = {
"14 14 138 2",
"  	c None",
". 	c #D7DFFF",
"+ 	c #CBD9FF",
"@ 	c #C1CDFF",
"# 	c #CFD3FF",
"$ 	c #BACDFF",
"% 	c #B6C5FF",
"& 	c #B2C0FF",
"* 	c #A5B0FF",
"= 	c #979CFE",
"- 	c #97A1F7",
"; 	c #97A3F1",
"> 	c #D2E5FF",
", 	c #78A9FF",
"' 	c #8AAAFE",
") 	c #9AAAFE",
"! 	c #8898FC",
"~ 	c #5B78EB",
"{ 	c #3360D1",
"] 	c #2F5EC2",
"^ 	c #CDE0FF",
"/ 	c #6194FA",
"( 	c #5F8BF2",
"_ 	c #5E83EF",
": 	c #376DE9",
"< 	c #1053C8",
"[ 	c #0D49AD",
"} 	c #1E52A5",
"| 	c #C6C8EF",
"1 	c #517EEE",
"2 	c #5478E4",
"3 	c #446CDE",
"4 	c #1456D0",
"5 	c #0445AC",
"6 	c #0C3E91",
"7 	c #1E468A",
"8 	c #FFDDDF",
"9 	c #FFDBDD",
"0 	c #FFCCD0",
"a 	c #C8A6CB",
"b 	c #476CDE",
"c 	c #4E68D5",
"d 	c #3D5CC9",
"e 	c #1148B0",
"f 	c #07398F",
"g 	c #0E3474",
"h 	c #1F3C6D",
"i 	c #FFCECF",
"j 	c #FFA9AC",
"k 	c #FFB4B7",
"l 	c #FEB4B7",
"m 	c #D995A9",
"n 	c #6A5CA7",
"o 	c #4C51B1",
"p 	c #364BB2",
"q 	c #103D94",
"r 	c #0C326E",
"s 	c #223D53",
"t 	c #6A7C71",
"u 	c #FFC8C9",
"v 	c #FD5B5E",
"w 	c #FC6D71",
"x 	c #F77E81",
"y 	c #CE6161",
"z 	c #7A3536",
"A 	c #584949",
"B 	c #465E73",
"C 	c #28546E",
"D 	c #345A49",
"E 	c #4F7435",
"F 	c #77A14A",
"G 	c #AAC68F",
"H 	c #FCC2C4",
"I 	c #F64244",
"J 	c #F33F3F",
"K 	c #EA3D3E",
"L 	c #A61718",
"M 	c #60270B",
"N 	c #5A981F",
"O 	c #60C235",
"P 	c #67BD49",
"Q 	c #6CC548",
"R 	c #5FB935",
"S 	c #44971C",
"T 	c #5A8C40",
"U 	c #C5CCC1",
"V 	c #FBC0C0",
"W 	c #F03B3C",
"X 	c #ED3335",
"Y 	c #E5292B",
"Z 	c #98070A",
"` 	c #592707",
" .	c #41A209",
"..	c #41C60E",
"+.	c #4BC61C",
"@.	c #4EB82C",
"#.	c #318D16",
"$.	c #1D6B08",
"%.	c #427335",
"&.	c #C6CCC5",
"*.	c #FAC3C2",
"=.	c #EB4D4D",
"-.	c #E64647",
";.	c #D82524",
">.	c #7F0C0C",
",.	c #563516",
"'.	c #3C980A",
").	c #33B305",
"!.	c #2FAA06",
"~.	c #227E05",
"{.	c #1A6104",
"].	c #165705",
"^.	c #416937",
"/.	c #C9CDC8",
"(.	c #EC7F80",
"_.	c #DD5656",
":.	c #9E5457",
"<.	c #736F46",
"[.	c #4FAA27",
"}.	c #2EA406",
"|.	c #2A9B06",
"1.	c #1E7006",
"2.	c #185406",
"3.	c #144907",
"4.	c #4D6F45",
"5.	c #C4CAC2",
"6.	c #9FD58C",
"7.	c #4CA92F",
"8.	c #248E06",
"9.	c #196306",
"0.	c #144808",
"a.	c #44683C",
"b.	c #9CAD98",
"c.	c #B6DAAC",
"d.	c #8DBE7F",
"e.	c #2A631B",
"f.	c #93A88F",
"g.	c #B4C3B2",
"            . + @ #         ",
"          $ % & * = - ;     ",
"        > , ' ) ! ~ { ]     ",
"        ^ / ( _ : < [ }     ",
"        | 1 2 3 4 5 6 7     ",
"  8 9 0 a b c d e f g h     ",
"i j k l m n o p q r s t     ",
"u v w x y z A B C D E F G   ",
"H I J K L M N O P Q R S T U ",
"V W X Y Z `  ...+.@.#.$.%.&.",
"*.=.-.;.>.,.'.).!.~.{.].^./.",
"    (._.:.<.[.}.|.1.2.3.4.5.",
"            6.7.8.9.0.a.b.  ",
"              c.d.e.f.g.    "};
