/* XPM */
static char * ico_generic_xpm[] = {
"14 14 4 1",
" 	c None",
".	c #000000",
"+	c #C0C0C0",
"@	c #0000FF",
"              ",
"              ",
"   .........  ",
"   .+++++++.  ",
"   .+@@@@@+.  ",
"   .+++++++.  ",
"   .+@@@@@+.  ",
"   .+++++++.  ",
"   .+@@@@@+.  ",
"   .+++++++.  ",
"   .+@@@+++.  ",
"   .+++++++.  ",
"   .........  ",
"              "};
