/* XPM */
static char * info_xpm[] = {
"24 24 421 2",
"  	c None",
". 	c #D5D6D5",
"+ 	c #E3E2DF",
"@ 	c #E2E3E3",
"# 	c #DCDFDF",
"$ 	c #DFE0E1",
"% 	c #DEE0E1",
"& 	c #E0E0E0",
"* 	c #E8E8E8",
"= 	c #C5C5C5",
"- 	c #7D7871",
"; 	c #858787",
"> 	c #7D8685",
", 	c #8A8D90",
"' 	c #808A91",
") 	c #67777F",
"! 	c #7B8B94",
"~ 	c #A1B3C3",
"{ 	c #BFCBD5",
"] 	c #D2D1D2",
"^ 	c #9C9E9F",
"/ 	c #878988",
"( 	c #B3B3B8",
"_ 	c #C5C7CA",
": 	c #D2D3D7",
"< 	c #DFDCE0",
"[ 	c #D6D9E1",
"} 	c #A7BBCD",
"| 	c #8CA8BB",
"1 	c #65889F",
"2 	c #60849E",
"3 	c #92AABC",
"4 	c #D9E1E9",
"5 	c #74767A",
"6 	c #A5A3A9",
"7 	c #D9D6DE",
"8 	c #E6E5F0",
"9 	c #DEE5ED",
"0 	c #D7E0EA",
"a 	c #D4DEE9",
"b 	c #CBD9E6",
"c 	c #BDD2DF",
"d 	c #AEC7D7",
"e 	c #9BB8C9",
"f 	c #789AAF",
"g 	c #59819C",
"h 	c #4A708F",
"i 	c #DAE2E8",
"j 	c #63656A",
"k 	c #B7B5B9",
"l 	c #EAE8EF",
"m 	c #E5EAF5",
"n 	c #D2DFEB",
"o 	c #B6CEE0",
"p 	c #B5CDDC",
"q 	c #ADC9DD",
"r 	c #8BB4CF",
"s 	c #68A1C3",
"t 	c #448DB8",
"u 	c #488EB4",
"v 	c #4B8BAF",
"w 	c #5285A2",
"x 	c #3E7094",
"y 	c #18507C",
"z 	c #D9E0E8",
"A 	c #686A6B",
"B 	c #A4A8AD",
"C 	c #E2E6EC",
"D 	c #E7EAF3",
"E 	c #CADAE9",
"F 	c #A7C7DD",
"G 	c #9DC0D7",
"H 	c #DFECF1",
"I 	c #FFFDFF",
"J 	c #FFFAFF",
"K 	c #C4D7E8",
"L 	c #3583AF",
"M 	c #1970A2",
"N 	c #1E70A1",
"O 	c #3076A2",
"P 	c #33729C",
"Q 	c #20648E",
"R 	c #315C84",
"S 	c #D9E1E7",
"T 	c #939A96",
"U 	c #777F82",
"V 	c #CCD2DA",
"W 	c #D9E4EC",
"X 	c #BDD4E1",
"Y 	c #9DBFD5",
"Z 	c #6CA3C4",
"` 	c #99BFD6",
" .	c #FFFFFF",
"..	c #FFFCFF",
"+.	c #FEF9FE",
"@.	c #6E9FBF",
"#.	c #0D6195",
"$.	c #0C6097",
"%.	c #136195",
"&.	c #196595",
"*.	c #1B608D",
"=.	c #1C527A",
"-.	c #869DB2",
";.	c #C5C3C2",
">.	c #656C73",
",.	c #97ADBA",
"'.	c #D3DCE6",
").	c #BDD3E2",
"!.	c #96BCD3",
"~.	c #6BA5C3",
"{.	c #3986AE",
"].	c #2D81AD",
"^.	c #B3D2E2",
"/.	c #FFFBFF",
"(.	c #B0C8DD",
"_.	c #216A9D",
":.	c #0B5B8E",
"<.	c #0D5C93",
"[.	c #0C5B90",
"}.	c #0C5D94",
"|.	c #105B8D",
"1.	c #13557F",
"2.	c #3D668A",
"3.	c #CCD6DF",
"4.	c #8CA4A6",
"5.	c #5C8290",
"6.	c #B8C8D6",
"7.	c #CADBE8",
"8.	c #9EC1D8",
"9.	c #6FA3C4",
"0.	c #428CB3",
"a.	c #1C76A4",
"b.	c #136DA0",
"c.	c #0F669B",
"d.	c #0B6495",
"e.	c #0F6399",
"f.	c #0F5F93",
"g.	c #0C5D93",
"h.	c #0D5D94",
"i.	c #0B5D94",
"j.	c #0F5D93",
"k.	c #0F5F94",
"l.	c #105E94",
"m.	c #0F5585",
"n.	c #0F4573",
"o.	c #8FA5BB",
"p.	c #D1D5D8",
"q.	c #2C4659",
"r.	c #7A98AD",
"s.	c #C1D0DE",
"t.	c #B5CEDB",
"u.	c #80AFC9",
"v.	c #4B8FB6",
"w.	c #297CA6",
"x.	c #0C669B",
"y.	c #0C6298",
"z.	c #0F6095",
"A.	c #0C5E94",
"B.	c #0C5C92",
"C.	c #0D5F91",
"D.	c #0D5F94",
"E.	c #0C5484",
"F.	c #0C4574",
"G.	c #345D7E",
"H.	c #DCE3E8",
"I.	c #CFD8DC",
"J.	c #27586E",
"K.	c #87A8BA",
"L.	c #BCCEDB",
"M.	c #93BAD1",
"N.	c #629BBE",
"O.	c #3381AA",
"P.	c #1972A0",
"Q.	c #2C78A7",
"R.	c #9BBBD3",
"S.	c #9BBAD3",
"T.	c #9EB9D4",
"U.	c #99B8CF",
"V.	c #98B8CF",
"W.	c #4581AC",
"X.	c #0C5D90",
"Y.	c #0C5488",
"Z.	c #0A4370",
"`.	c #0A3D66",
" +	c #CFD9E1",
".+	c #D0D9DE",
"++	c #2A5971",
"@+	c #82A0B7",
"#+	c #ADC5D5",
"$+	c #78A8C9",
"%+	c #4D8CB0",
"&+	c #2074A1",
"*+	c #116B9C",
"=+	c #146AA0",
"-+	c #3F7EAC",
";+	c #B1C5DC",
">+	c #F9F3F9",
",+	c #FCF5FC",
"'+	c #F6F2F6",
")+	c #6C99BB",
"!+	c #0F6093",
"~+	c #0F5F98",
"{+	c #105E95",
"]+	c #0D5387",
"^+	c #08406A",
"/+	c #083B64",
"(+	c #CED9E1",
"_+	c #CED8DD",
":+	c #1F526A",
"<+	c #7094A9",
"[+	c #9FBDCF",
"}+	c #679DBC",
"|+	c #3C81A9",
"1+	c #1A6D9C",
"2+	c #0C6697",
"3+	c #0D6099",
"4+	c #0C5F94",
"5+	c #9AB8CF",
"6+	c #F6F1F6",
"7+	c #F2F0F2",
"8+	c #6999B9",
"9+	c #0B5E94",
"0+	c #0F6094",
"a+	c #0C5F95",
"b+	c #094D80",
"c+	c #053963",
"d+	c #09355D",
"e+	c #CFD8E1",
"f+	c #D0D9DD",
"g+	c #1B4E67",
"h+	c #5F88A2",
"i+	c #91B3C6",
"j+	c #6796BB",
"k+	c #317AA6",
"l+	c #156A9C",
"m+	c #0D6399",
"n+	c #0E5F94",
"o+	c #98B6CD",
"p+	c #F5EEF5",
"q+	c #F0EDF0",
"r+	c #6B96BA",
"s+	c #0D5E91",
"t+	c #0F5F95",
"u+	c #0E5F97",
"v+	c #0F5A8D",
"w+	c #0C4A7D",
"x+	c #073761",
"y+	c #093459",
"z+	c #CED8E0",
"A+	c #CFD7DB",
"B+	c #13415C",
"C+	c #4D7896",
"D+	c #7DA3BC",
"E+	c #578EB0",
"F+	c #2372A0",
"G+	c #106699",
"H+	c #0C5E95",
"I+	c #96B5CD",
"J+	c #F2EEF2",
"K+	c #EEECEE",
"L+	c #6695B5",
"M+	c #0F5E94",
"N+	c #0E5E94",
"O+	c #0F5889",
"P+	c #0C4573",
"Q+	c #073159",
"R+	c #112F4E",
"S+	c #D1D7DD",
"T+	c #CDD2D4",
"U+	c #092D41",
"V+	c #336380",
"W+	c #6691A9",
"X+	c #5289AA",
"Y+	c #226D99",
"Z+	c #106095",
"`+	c #0B5D8E",
" @	c #0D5D93",
".@	c #0C5C90",
"+@	c #96B2CB",
"@@	c #EEEBEE",
"#@	c #EFEBEF",
"$@	c #EBE9EB",
"%@	c #6592B0",
"&@	c #0B5A8C",
"*@	c #0F5993",
"=@	c #0C5990",
"-@	c #0C5A8C",
";@	c #0F527F",
">@	c #093C63",
",@	c #08325A",
"'@	c #223F57",
")@	c #D6DBDD",
"!@	c #9EAAB0",
"~@	c #113C54",
"{@	c #3F6D8D",
"]@	c #477DA0",
"^@	c #236997",
"/@	c #0D5E8E",
"(@	c #0F5C91",
"_@	c #3C76A0",
":@	c #3977A2",
"<@	c #A3BBCD",
"[@	c #EEE9EE",
"}@	c #EDE9ED",
"|@	c #EDE7ED",
"1@	c #7EA1BD",
"2@	c #3A719D",
"3@	c #2D6C94",
"4@	c #105586",
"5@	c #0F4E7C",
"6@	c #094771",
"7@	c #08355D",
"8@	c #08294B",
"9@	c #9CA8B5",
"0@	c #CACACA",
"a@	c #325060",
"b@	c #174A69",
"c@	c #2D668D",
"d@	c #20608C",
"e@	c #135889",
"f@	c #105588",
"g@	c #92ACC3",
"h@	c #91ABC2",
"i@	c #92A9C3",
"j@	c #91A8BF",
"k@	c #91A6BF",
"l@	c #8EA7BC",
"m@	c #90A6BE",
"n@	c #7493AF",
"o@	c #0F497B",
"p@	c #08395E",
"q@	c #082E50",
"r@	c #30546E",
"s@	c #C4CFD8",
"t@	c #737D83",
"u@	c #0B2E48",
"v@	c #134971",
"w@	c #134D7D",
"x@	c #0F4E82",
"y@	c #0C4D7F",
"z@	c #0C4F83",
"A@	c #0A4C80",
"B@	c #094A7F",
"C@	c #0C497E",
"D@	c #0C497C",
"E@	c #0C4A7C",
"F@	c #0C467A",
"G@	c #0C4274",
"H@	c #0A3C6A",
"I@	c #08355F",
"J@	c #08274C",
"K@	c #233C57",
"L@	c #C4CFD9",
"M@	c #E4E4E4",
"N@	c #314B65",
"O@	c #073052",
"P@	c #053968",
"Q@	c #094476",
"R@	c #0D457A",
"S@	c #104477",
"T@	c #0C4578",
"U@	c #0C4478",
"V@	c #094576",
"W@	c #0D447A",
"X@	c #0C4377",
"Y@	c #083B6E",
"Z@	c #0B3664",
"`@	c #092C54",
" #	c #052141",
".#	c #031D3B",
"+#	c #D6DBDF",
"@#	c #545B60",
"##	c #042845",
"$#	c #052E56",
"%#	c #083A5F",
"&#	c #053E6D",
"*#	c #043C6B",
"=#	c #043C6C",
"-#	c #053B67",
";#	c #033863",
">#	c #043966",
",#	c #043460",
"'#	c #032A55",
")#	c #07264D",
"!#	c #042047",
"~#	c #233852",
"{#	c #E0E4E7",
"]#	c #3F5162",
"^#	c #071D38",
"/#	c #05254A",
"(#	c #042E55",
"_#	c #062E5A",
":#	c #06325E",
"<#	c #043059",
"[#	c #042F5B",
"}#	c #042C58",
"|#	c #042750",
"1#	c #042249",
"2#	c #081F3A",
"3#	c #304558",
"4#	c #C4C9CC",
"5#	c #D6D7D7",
"6#	c #9BA4AA",
"7#	c #2B3542",
"8#	c #072745",
"9#	c #062846",
"0#	c #092C4B",
"a#	c #082349",
"b#	c #082A4B",
"c#	c #042745",
"d#	c #072542",
"e#	c #0D2D47",
"f#	c #9CA5B0",
"g#	c #C4CCD0",
"h#	c #DAD9DA",
"i#	c #CED5D9",
"j#	c #CFD5DA",
"k#	c #CED2D9",
"l#	c #CDD5D9",
"m#	c #CED4D9",
"n#	c #D0D8DC",
". . . . . . . . + @ # $ % & * . . . . . . . . . ",
". . . . . . . = - ; > , ' ) ! ~ { . . . . . . . ",
". . . . . ] ^ / ( _ : < [ } | 1 2 3 4 . . . . . ",
". . . . @ 5 6 7 8 9 0 a b c d e f g h i . . . . ",
". . . & j k l m n o p q r s t u v w x y z . . . ",
". . ] A B C D E F G H I J K L M N O P Q R S . . ",
". . T U V W X Y Z `  . ...+.@.#.$.%.&.*.=.-.. . ",
". ;.>.,.'.).!.~.{.].^. ./.(._.:.<.[.}.|.1.2.3.. ",
". 4.5.6.7.8.9.0.a.b.c.d.e.f.g.h.i.j.k.l.m.n.o.. ",
"p.q.r.s.t.u.v.w.b.x.y.z.A.B.B.}.j.C.D.k.E.F.G.H.",
"I.J.K.L.M.N.O.P.Q.R.S.T.U.V.W.X.k.D.D.k.Y.Z.`. +",
".+++@+#+$+%+&+*+=+-+;+>+,+'+)+!+l.k.~+{+]+^+/+(+",
"_+:+<+[+}+|+1+2+3+4+5+6+'+7+8+9+0+a+4+j.b+c+d+e+",
"f+g+h+i+j+k+l+m+4+n+o+p+7+q+r+s+t+u+n+v+w+x+y+z+",
"A+B+C+D+E+F+G+H+}.4+I+J+J+K+L+[.M+N+n+O+P+Q+R+S+",
"T+U+V+W+X+Y+Z+`+ @.@+@@@#@$@%@&@*@=@-@;@>@,@'@)@",
". !@~@{@]@^@/@(@_@:@<@[@}@|@1@2@3@4@5@6@7@8@9@. ",
". 0@a@b@c@d@e@f@g@h@h@i@j@k@l@m@n@o@Z.p@q@r@s@. ",
". . t@u@v@w@x@y@z@A@A@B@C@D@E@F@G@H@I@J@K@L@. . ",
". . M@N@O@P@Q@R@S@T@U@V@W@X@X@Y@Z@`@ #.#+#. . . ",
". . . . @###$#%#&#*#=#-#;#>#,#'#)#!#~#+#. . . . ",
". . . . {#]#^#/#(#_#:#<#[#}#|#1#2#3#4#. . . . . ",
". . . . . 5#6#7#8#9#0#a#b#c#d#e#f#g#. . . . . . ",
". . . . . . . h#i#i#j#k#j#l#m#n#. . . . . . . . "};
