/* XPM */
static char * lines_xpm[] = {
"94 94 67 1",
" 	c None",
".	c #E6E6E6",
"+	c #4A4C4A",
"@	c #B4B6B4",
"#	c #FFFFFF",
"$	c #FFFAFF",
"%	c #F6F6F6",
"&	c #F6F2F6",
"*	c #000000",
"=	c #838183",
"-	c #737173",
";	c #737573",
">	c #7B757B",
",	c #7B797B",
"'	c #837D83",
")	c #7B7D7B",
"!	c #838583",
"~	c #8B858B",
"{	c #8B898B",
"]	c #8B8D8B",
"^	c #948D94",
"/	c #949194",
"(	c #949594",
"_	c #9C959C",
":	c #9C999C",
"<	c #A49DA4",
"[	c #9C9D9C",
"}	c #A4A1A4",
"|	c #525052",
"1	c #5A555A",
"2	c #525552",
"3	c #5A595A",
"4	c #5A5D5A",
"5	c #625D62",
"6	c #626162",
"7	c #6A656A",
"8	c #626562",
"9	c #6A696A",
"0	c #6A6D6A",
"a	c #736D73",
"b	c #524C52",
"c	c #EEEEEE",
"d	c #CDC6CD",
"e	c #4A484A",
"f	c #414441",
"g	c #FFD6DE",
"h	c #FF8D94",
"i	c #FF9194",
"j	c #FF8D8B",
"k	c #FFD2D5",
"l	c #EEEAEE",
"m	c #FFD6D5",
"n	c #4A444A",
"o	c #C5C2FF",
"p	c #8381FF",
"q	c #E6E2E6",
"r	c #DEDEDE",
"s	c #DEDADE",
"t	c #CDE6CD",
"u	c #C5E2C5",
"v	c #6AC26A",
"w	c #73C273",
"x	c #CDE2CD",
"y	c #73C673",
"z	c #D5D6D5",
"A	c #D5D2D5",
"B	c #CDCECD",
".++++++++++++++++++++++++++++++++++++++++++++++++++++++++++++++++++++++++++++++++++++++++++++.",
"+@@@@@@@@@@@@@@@@@@@@@@@@@@@@@@@@@@@@@@@@@@@@@@@@@@@@@@@@@@@@@@@@@@@@@@@@@@@@@@@@@@@@@@@@@@@@+",
"+@##########################################################################################@+",
"+@#########################################################################################@@+",
"+@##$$$$$$$$$$$$$$$$$$$$$$$$$$$$$$$$$$$$$$$$$$$$$$$$$$$$$$$$$$$$$$$$$$$$$$$$$$$$$$$$$$$$$$$$@+",
"+@##$$$$$$$$$$$$$$$$$$$$$$$$$$$$$$$$$$$$$$$$$$$$$$$$$$$$$$$$$$$$$$$$$$$$$$$$$$$$$$$$$$$$$$$$@+",
"+@##%%%%%%%%%%%%%%%%%%%%%%%%%%%%%%%%%%%%%%%%%%%%%%%%%%%%%%%%%%%%%%%%%%%%%%%%%%%%%%%%%%%%%%%%@+",
"+@##%%%%%%%%%%%%%%%%%%%%%%%%%%%%%%%%%%%%%%%%%%%%%%%%%%%%%%%%%%%%%%%%%%%%%%%%%%%%%%%%%%%%%%%%@+",
"+@##%%%%%%%%%%%%%%%%%%%%%%%%%%%%%%%%%%%%%%%%%%%%%%%%%%%%%%%%%%%%%%%%%%%%%%%%%%%%%%%%%%%%%%%%@+",
"+@##%%%%%%%%%%%%%%%%%%%%%%%%%%%%%%%%%%%%%%%%%%%%%%%%%%%%%%%%%%%%%%%%%%%%%%%%%%%%%%%%%%%%%%%%@+",
"+@##%%%%%%%%%%%%%%%%%%%%%%%%%%%%%%%%%%%%%%%%%%%%%%%%%%%%%%%%%%%%%%%%%%%%%%%%%%%%%%%%%%%%%%%%@+",
"+@##%%%%%%%%%%%%%%%%%%%%%%%%%%%%%%%%%%%%%%%%%%%%%%%%%%%%%%%%%%%%%%%%%%%%%%%%%%%%%%%%%%%%%%%%@+",
"+@##&&&&&&&&*********************************************************************=&&&&&&&&&&@+",
"+@##&&&&&&&&*----;->;>;,>,,,,',')=)====!=~!~!{!{{{{]{^]^]//////((_(:(::::<:<[<[}}#&&&&&&&&&&@+",
"+@##&&&&&&&&*+||||12123133334354656666787877999909a0-a---->->;>>,,,,),')')='==~=~#&&&&&&&&&&@+",
"+@##&&&&&&&&*----;->;>;,;,,,,),')=)====!=!!~!{~{{{{^{^]^]//////_(_(:(::::[:<[<[}}#&&&&&&&&&&@+",
"+@##&&&&&&&&*b||||121231333353546566667878789999a9a0-a----;->;>;,,,,',')''='==!=~#&&&&&&&&&&@+",
"+@##&&&&&&&&*----#3-->;,>,,,,',')=)====!=~!~!{!{{{{]{^]^]//////((_(:(::::<:<[<[}}#&&&&&&&&&&@+",
"+@##cccccccc*+|||#d#|23133334354656666787877999909a0-a---->->;>>,,,,),')')='==~=~#cccccccccc@+",
"+@##cccccccc*----#=36-;,;,,,,),')=)====!=!!~!{~{{{{^{^]^]//////_(_(:(::::[:<[<[}}#cccccccccc@+",
"+@##cccccccc*b|||#3*e|31333353546566667878789999a9a0-a----;->;>;,,,,',')''='==!=~#cccccccccc@+",
"+@##cccccccc*----#356-;,>,,,,',')=)====!=~!~!{!{{{{]{^]^]//////((_(:(::::<:<[<[}}#cccccccccc@+",
"+@##cccccccc*+|||#3f|23133334354656666787877999909a0-aghij*a;;>>,,,,),')')='==~=~#cccccccccc@+",
"+@##cccccccc*----#36->;,;,,,,),')=)====!=!!~!{~{{{{^{kjhkhjh*^/_(_(:(::::[:<[<[}}#cccccccccc@+",
"+@##llllllll*b|||#3f|231333353546566667878789999a9a0ghi*54mjih*-,,,,',')''='==!=~#llllllllll@+",
"+@##llllllll*----#36->;,>,,,,',')=)====!=~!~!{!{{{{kjh*-,{{)khjh*/(:(::::<:<[<[}}#llllllllll@+",
"+@##llllllll*+|||#d##|1133334354656666787877999909ghi*35a--aa6ghij*;,,')')='==~=~#llllllllll@+",
"+@##llllllll*----#=337-,;,,,,),')=)====!=!!~!{~{{kjh*->~]////^{'khjh*(_::[:<[<[}}#llllllllll@+",
"+@##llllllll*b|||#3**n11333353546566667878789999ghi*359a--;->;>--7mjih*,''='==!=~#llllllllll@+",
"+@##llllllll*----#3557-,>,,,,',')=)====!=~!~!{!kjh*-;~{^]//////(//]=khjh*::<[<[}}#llllllllll@+",
"+@##........*+|||#3f||113333435465666678787799ghi*3490---->->;>>,,,;>9ghij,'==~=~#..........@+",
"+@##........*----#36->;,;,,,,),')=)====!=!!~kkjh*-;~{^]^]//////_(_(:((^!kh!:[<[}}#..........@+",
"+@##........*b|||#3f|231333353546566667878mkihi*1390-a----;->;>;,,,,',',,0a,==!=~#..........@+",
"+@##........*----#36->;,>,,,,',')=)====!kkjhj**a-!{]{^]^]//////((_(:(:::::([[<[}}#..........@+",
"+@##........*+|||#d#|23133334354656666gkiji**23379a0-a---->->op*>>,,),')')='==~=~#..........@+",
"+@##........*----#=36-;,;,,,,),')=)=kkjhj**a0;'~!{{^{^]^]///oppp*^(:(::::[:<[<[}}#..........@+",
"+@##qqqqqqqq*b|||#3*e|313333535465mkihi**|116899a9a0-a----;opp*pp*;,',')''='==!=~#qqqqqqqqqq@+",
"+@##qqqqqqqq*----#356-;,>,,,,','kkjhj**99-)=!{!{{{{]{^]^]/opp*;opp*/(::::<:<[<[}}#qqqqqqqqqq@+",
"+@##qqqqqqqq*+|||#3f|231333343gkiji**b126677999909a0-a---opp*470opp*>,')')='==~=~#qqqqqqqqqq@+",
"+@##qqqqqqqq*----#36->;,;,,,kkjhj**99-,==!!~!{~{{{{^{^]^opp*;){/]opp*/_::[:<[<[}}#qqqqqqqqqq@+",
"+@##qqqqqqqq*b|||#3f|23133mkihi**+||558878789999a9a0-a-opp*47a>;,-opp*>,''='==!=~#qqqqqqqqqq@+",
"+@##qqqqqqqq*----#36->;,kkjhj**77a;)'==!=~!~!{!{{{{]{^opp*;){//((_]opp*/:<:<[<[}}#qqqqqqqqqq@+",
"+@##rrrrrrrr*+|||#d##|11iji**ebb346666787877999909a0-opp*360;;>>,,,-opp*,)='==~=~#rrrrrrrrrr@+",
"+@##rrrrrrrr*----#=337-,j**689;,)=)====opp*=!{~{{{{^opp*-,{////_(_(_]opp*(:<[<[}}#rrrrrrrrrr@+",
"+@##rrrrrrrr*b|||#3**n111+++1354656666opppp*6799a9aopp*369-->;>;,,,,,;opp*,)==!=~#rrrrrrrrrr@+",
"+@##rrrrrrrr*----#3557-,;>;>,',')=)==opp*opp*=!{{{opp*-,!//////((_(:(:/opp!:[<[}}#rrrrrrrrrr@+",
"+@##rrrrrrrr*+|||#3f||11333343546566opp*||opp*790opp*369-->->;>>,,,,),';op9,==~=~#rrrrrrrrrr@+",
"+@##rrrrrrrr*----#36->;,;,,,,),')=)opp*90))opp*=opp*-,!^]//////_(_(:(:::/~!:[<[}}#rrrrrrrrrr@+",
"+@##ssssssss*b|||#3f|2313333535465opp*|26876opp*pp*359----;->;>;,,,,',')',))==!=~#ssssssssss@+",
"+@##ssssssss*----#36->;,>,,,,',')opp*90)=~!~'oppp*0,=^]^]//////((_(:(::::<:<[<[}}#ssssssssss@+",
"+@##ssssssss*+|||#d#|23133334354opp*||66787796op*257aa---->->;>>,,,,),')tu''==~=~#ssssssssss@+",
"+@##ssssssss*----#=36-;,;,,,,),opp*90)=!=!!~!~=>->=]{^]^]//////_(_(:(:utvw!:[<[}}#ssssssssss@+",
"+@##ssssssss*b|||#3*e|31333353opp*b|56787878999899a0-a----;->;>;,,,,txyvy*9,==!=~#ssssssssss@+",
"+@##ssssssss*----#356-;,>,,,,opp*79,'==!=~!~!{!{{{{]{^]^]//////((_utvwv**'!:[<[}}#ssssssssss@+",
"+@##zzzzzzzz*+|||#3f|2313333opp*b|5566787877999909a0-a---->->;>>tuywy**899,'==~=~#zzzzzzzzzz@+",
"+@##zzzzzzzz*----#36->;,;,,opp*79,)====!=!!~!{~{{{{^{^]^]/////utvwv**,)!/::<[<[}}#zzzzzzzzzz@+",
"+@##zzzzzzzz*b|||#3f|23133opp*+b3566667878789999a9a0-a----;-txyvy**679>,''='==!=~#zzzzzzzzzz@+",
"+@##zzzzzzzz*----#36->;,>opp*79>)=)====!=~!~!{!{{{{]{^]^]/utvwv**,)=]((::<:<[<[}}#zzzzzzzzzz@+",
"+@##zzzzzzzz*+|||#d##|113pp*e+34656666787877999909a0-a--tuywy**588>;,,')')='==~=~#zzzzzzzzzz@+",
"+@##zzzzzzzz*----#=337-,;p*68>,')=)====!=!!~!{~{{{{^ututuwv**>,'{/(:(::::[:<[<[}}#zzzzzzzzzz@+",
"+@##AAAAAAAA*b|||#3**n1131b+1354656666787878999utxtuywyvy**466--,,,,',')''='==!=~#AAAAAAAAAA@+",
"+@##AAAAAAAA*----#3557-,>,;>,',')=)====!=~ututuwvwvwv****>;){^/((_(:(::::<:<[<[}}#AAAAAAAAAA@+",
"+@##AAAAAAAA*+|||#3f||113333435465666utxtuywyvyw*****35466aa;;>>,,,,),')')='==~=~#AAAAAAAAAA@+",
"+@##AAAAAAAA*----#36->;,;,,,,),'ututuwvwvwv*****0-->;,!{{]^////_(_(:(::::[:<[<[}}#AAAAAAAAAA@+",
"+@##AAAAAAAA*b|||#3f|231333utxtuywyvyw*****|11315899a9----;->;>;,,,,',')''='==!=~#AAAAAAAAAA@+",
"+@##AAAAAAAA*----#36->;,>tuwvwvwv*****900a0-)==!!{{]{^]^]//////((_(:(::::<:<[<[}}#AAAAAAAAAA@+",
"+@##BBBBBBBB*+|||#d#|2313vyw*****+||||156666999909a0-a---->->;>>,,,,),')')='==~=~#BBBBBBBBBB@+",
"+@##BBBBBBBB*----#=36-;,;>97898990>',')==!!~!{~{{{{^{^]^]//////_(_(:(::::[:<[<[}}#BBBBBBBBBB@+",
"+@##BBBBBBBB*b|||#3*e|31333233335466667878789999a9a0-a----;->;>;,,,,',')''='==!=~#BBBBBBBBBB@+",
"+@##BBBBBBBB*----#356-;,>,,,,',')=)====!=~!~!{!{{{{]{^]^]//////((_(:(::::<:<[<[}}#BBBBBBBBBB@+",
"+@##BBBBBBBB*+|||#3f|23133334354656666787877999909a0-a---->->;>>,,,,),')')='==~=~#BBBBBBBBBB@+",
"+@##BBBBBBBB*----#36->;,;,,,,),')=)====!=!!~!{~{{{{^{^]^]//////_(_(:(::::[:<[<[}}#BBBBBBBBBB@+",
"+@##BBBBBBBB*b|||#3f|231333353546#3*667878789999a#3*aa----;->;>;,#3*,,')''='==!=~#BBBBBBBBBB@+",
"+@##BBBBBBBB*----#36->;,>#3*;),')#3*0'=!=#3*=~!{{#3*>{]^]#3*]//((#3*=(:::#3*_<[}}#BBBBBBBBBB@+",
"+@##BBBBBBBB*+|||#3######r=######r=######r=######r=######r=######r=######r=##,==~#BBBBBBBBBB@+",
"+@##BBBBBBBB*----#33333333333333333333333333333333333333333333333333333333333{:}}#BBBBBBBBBB@+",
"+@##BBBBBBBB*b|||befeneeee+eb+b+|b||||2|121231313343545465666666787897979999aa==~#BBBBBBBBBB@+",
"+@##BBBBBBBB*-----0----;->;>;,;,,),),')')=)====!=~!{!{!{{]{^]^]/^////(/_(:(:_:[}}#BBBBBBBBBB@+",
"+@##BBBBBBBB*+||||12123133334354656666787877999909a0-a---->->;>>,,,,),')')='==~=~#BBBBBBBBBB@+",
"+@##BBBBBBBB*----;->;>;,;,,,,),')=)====!=!!~!{~{{{{^{^]^]//////_(_(:(::::[:<[<[}}#BBBBBBBBBB@+",
"+@##BBBBBBBB*b||||121231333353546566667878789999a9a0-a----;->;>;,,,,',')''='==!=~#BBBBBBBBBB@+",
"+@##BBBBBBBB=#####################################################################BBBBBBBBBB@+",
"+@##BBBBBBBBBBBBBBBBBBBBBBBBBBBBBBBBBBBBBBBBBBBBBBBBBBBBBBBBBBBBBBBBBBBBBBBBBBBBBBBBBBBBBBBB@+",
"+@##BBBBBBBBBBBBBBBBBBBBBBBBBBBBBBBBBBBBBBBBBBBBBBBBBBBBBBBBBBBBBBBBBBBBBBBBBBBBBBBBBBBBBBBB@+",
"+@##BBBBBBBBBBBBBBBBBBBBBBBBBBBBBBBBBBBBBBBBBBBBBBBBBBBBBBBBBBBBBBBBBBBBBBBBBBBBBBBBBBBBBBBB@+",
"+@##BBBBBBBBBBBBBBBBBBBBBBBBBBBBBBBBBBBBBBBBBBBBBBBBBBBBBBBBBBBBBBBBBBBBBBBBBBBBBBBBBBBBBBBB@+",
"+@##BBBBBBBBBBBBBBBBBBBBBBBBBBBBBBBBBBBBBBBBBBBBBBBBBBBBBBBBBBBBBBBBBBBBBBBBBBBBBBBBBBBBBBBB@+",
"+@##BBBBBBBBBBBBBBBBBBBBBBBBBBBBBBBBBBBBBBBBBBBBBBBBBBBBBBBBBBBBBBBBBBBBBBBBBBBBBBBBBBBBBBBB@+",
"+@##BBBBBBBBBBBBBBBBBBBBBBBBBBBBBBBBBBBBBBBBBBBBBBBBBBBBBBBBBBBBBBBBBBBBBBBBBBBBBBBBBBBBBBBB@+",
"+@##BBBBBBBBBBBBBBBBBBBBBBBBBBBBBBBBBBBBBBBBBBBBBBBBBBBBBBBBBBBBBBBBBBBBBBBBBBBBBBBBBBBBBBBB@+",
"+@##BBBBBBBBBBBBBBBBBBBBBBBBBBBBBBBBBBBBBBBBBBBBBBBBBBBBBBBBBBBBBBBBBBBBBBBBBBBBBBBBBBBBBBBB@+",
"+@##BBBBBBBBBBBBBBBBBBBBBBBBBBBBBBBBBBBBBBBBBBBBBBBBBBBBBBBBBBBBBBBBBBBBBBBBBBBBBBBBBBBBBBBB@+",
"+@@@@@@@@@@@@@@@@@@@@@@@@@@@@@@@@@@@@@@@@@@@@@@@@@@@@@@@@@@@@@@@@@@@@@@@@@@@@@@@@@@@@@@@@@@@@+",
".++++++++++++++++++++++++++++++++++++++++++++++++++++++++++++++++++++++++++++++++++++++++++++."};
