/* XPM */
static char * link_xpm[] = {
"48 48 138 2",
"  	c None",
". 	c #000000",
"+ 	c #FFFFFF",
"@ 	c #BCBDB7",
"# 	c #F1F1F1",
"$ 	c #917674",
"% 	c #896766",
"& 	c #7E5B5B",
"* 	c #566056",
"= 	c #0B0B0B",
"- 	c #333333",
"; 	c #807374",
"> 	c #856A69",
", 	c #7A5E5E",
"' 	c #1F201F",
") 	c #050505",
"! 	c #161616",
"~ 	c #191919",
"{ 	c #313131",
"] 	c #1C1C1C",
"^ 	c #171717",
"/ 	c #1B1B1B",
"( 	c #34251B",
"_ 	c #40291B",
": 	c #0D0D0D",
"< 	c #58351B",
"[ 	c #E58B34",
"} 	c #E89744",
"| 	c #0A0A0A",
"1 	c #1A1A1A",
"2 	c #432D1B",
"3 	c #F7D6A9",
"4 	c #E99F4B",
"5 	c #4D4D4D",
"6 	c #676767",
"7 	c #808080",
"8 	c #B3B3B3",
"9 	c #262626",
"0 	c #F1C086",
"a 	c #E7801B",
"b 	c #181818",
"c 	c #2E241B",
"d 	c #F5D9AE",
"e 	c #F4C27C",
"f 	c #DF721B",
"g 	c #D6641B",
"h 	c #A6471B",
"i 	c #87391B",
"j 	c #692D1B",
"k 	c #41221B",
"l 	c #3E201B",
"m 	c #E28E45",
"n 	c #EFB672",
"o 	c #DE7D1B",
"p 	c #2A231B",
"q 	c #F8E0B6",
"r 	c #F7CC83",
"s 	c #CD571B",
"t 	c #C24B1B",
"u 	c #B7401B",
"v 	c #AB351B",
"w 	c #9F2B1B",
"x 	c #91221B",
"y 	c #B54D3C",
"z 	c #C46448",
"A 	c #DC9D7C",
"B 	c #E3AA83",
"C 	c #EBB88F",
"D 	c #F5D9BC",
"E 	c #EFB56F",
"F 	c #EF8E1B",
"G 	c #E58A1B",
"H 	c #2F251B",
"I 	c #1D1D1D",
"J 	c #F6E2BE",
"K 	c #F9C563",
"L 	c #F59B1B",
"M 	c #D8831B",
"N 	c #212121",
"O 	c #F3E1C1",
"P 	c #FBCA5B",
"Q 	c #FAA81B",
"R 	c #C87A1B",
"S 	c #E7CEA1",
"T 	c #FDC135",
"U 	c #FDB41B",
"V 	c #BB731B",
"W 	c #131313",
"X 	c #1F1F1F",
"Y 	c #C4862D",
"Z 	c #FCB21B",
"` 	c #7E4E1B",
" .	c #F19C1B",
"..	c #64411B",
"+.	c #141414",
"@.	c #DF831B",
"#.	c #613E1B",
"$.	c #773F1B",
"%.	c #8B411B",
"&.	c #77381B",
"*.	c #69311B",
"=.	c #6A2E1B",
"-.	c #752B1B",
";.	c #6A241B",
">.	c #72201B",
",.	c #E8871B",
"'.	c #613C1B",
").	c #29221B",
"!.	c #773E1B",
"~.	c #A84D1B",
"{.	c #73421B",
"].	c #2B231B",
"^.	c #030303",
"/.	c #5A341B",
"(.	c #B35C1B",
"_.	c #31251B",
":.	c #5A331B",
"<.	c #5E5E5E",
"[.	c #AA531B",
"}.	c #38281B",
"|.	c #060606",
"1.	c #0E0E0E",
"2.	c #3D281B",
"3.	c #2E231B",
"4.	c #090909",
"5.	c #202020",
"6.	c #212321",
"7.	c #0C0C0C",
"8.	c #2A2A2A",
"9.	c #666666",
"0.	c #222322",
"a.	c #CDCDCD",
"b.	c #F0F0F0",
"c.	c #5D6A5D",
"d.	c #626F62",
"e.	c #3B3B39",
"f.	c #323331",
"g.	c #2B2C2A",
"                                                                                                ",
"                                                                                                ",
"                                                                                                ",
"                                                                                                ",
"                                                                                                ",
"                                                                                                ",
"                                                                                                ",
"                                                                                                ",
"                                                                                                ",
"                                                                                                ",
"                                                                                                ",
"                  . . . . . . . . . . . . . . . . . . . . . . . . . . . . . .                   ",
"                  . . + + + + + + + + + + + + + + + + + + + + + + + + + + @ .                   ",
"                  . . # $ % & % & % & $ % & % & % $ % & % & % & $ % & % & * .                   ",
"                  = = - ; > , > , > , + + + + + + + + + + + + + + + + + + ' )                   ",
"                ! ~ { + + + + + + + + + + + + + + + + + + + + + + + + + + ] ^ =                 ",
"                / ( / + + + + + + + + + + + + + + + + + + + + + + + + + + / _ / :               ",
"              / < [ / + + + + + + + + + + + + + + + + + + + + + + + + + + / } < / |             ",
"            1 2 3 4 / / 5 6 7 8 8 + + + + + + + + + + + + + + 8 8 7 6 5 / 9 0 a 2 b             ",
"          1 c d e f g h i j k l / / + + + + + + + + + + + + / / l k j i h m n a o c ~           ",
"        1 p q r a f g s t u v w x / + + + + + + + + + + + + / x y z A B C D E a F G H ^         ",
"      ~ I J K F a f g s t u v w x / + + + + + + + + + + + + / x w v u t s g f a F L M / !       ",
"    ~ N O P L F a f g s t u v w x / + + + + + + + + + + + + / x w v u t s g f a F L Q R / ~     ",
"  1 1 S T Q L F a f g s t u v w x / + + + + + + + + + + + + / x w v u t s g f a F L Q U V 1 W   ",
"  ^ X Y U Q L F a f g s t u v w x / + + + + + + + + + + + + / x w v u t s g f a F L Q Z ` 1 ^   ",
"    ~ / R Q L F a f g s t u v w x / + + + + + + + + + + + + / x w v u t s g f a F L  .../ +..   ",
"      ! / M L F a f g s t u v w x / + + + + + + + + + + + + / x w v u t s g f a F @.#./ +.. .   ",
"        ^ H G F a $.%.&.*.=.-.;.>./ + + + + + + + + + + + + / x w v u t s g f a ,.'.).! . .     ",
"          ~ c o a !.~.h i j k l / / + + + + + + + + + + + + / / l k j i h g f a {.].b ^..       ",
"            ~ 2 a /./ / 5 6 7 8 8 + + + + + + + + + + + + + + 8 8 7 6 5 / / f (._.b ^..         ",
"            = / < :./ <.+ + + + + + + + + + + + + + + + + + + + + + + + + / [.}./ |..           ",
"              1./ 2./ <.+ + + + + + + + + + + + + + + + + + + + + + + + + / 3./ 4..             ",
"                1.^ 5.<.+ + + + + + + + + + + + + + + + + + + + + + + + + 6.~ 7..               ",
"                  ) 8.9.+ + + + + + + + + + + + + + + + + + + + + + + + + 0.= . .               ",
"                  . a.b.+ + + + + + + + + + + + + + + + + + + + + + + + + c.. .                 ",
"                  . @ d.d.d.d.d.d.d.d.d.d.d.d.d.d.d.d.d.d.d.d.d.d.d.d.d.d.d..                   ",
"                  . e.f.g.. . . . . . . . . . . . . . . . . . . . . . . . . .                   ",
"                      . . ) . . |.. . |.. . |.. . |.. . |.. . |.. . |.. . . .                   ",
"                                                                                                ",
"                                                                                                ",
"                                                                                                ",
"                                                                                                ",
"                                                                                                ",
"                                                                                                ",
"                                                                                                ",
"                                                                                                ",
"                                                                                                ",
"                                                                                                "};
