/* XPM */
static char * loaddb_xpm[] = {
"34 34 562 2",
"  	c None",
". 	c #F3F6F3",
"+ 	c #F1F6F2",
"@ 	c #EFF6EF",
"# 	c #EFF6F0",
"$ 	c #EEF5EF",
"% 	c #EDF4EE",
"& 	c #EBF4EC",
"* 	c #EAF3EB",
"= 	c #E6F1E7",
"- 	c #E2F0E4",
"; 	c #E2EFE3",
"> 	c #E1F0E3",
", 	c #DDEEDF",
"' 	c #EAE6CE",
") 	c #DDECDB",
"! 	c #D9ECDA",
"~ 	c #D8EBDA",
"{ 	c #D6EBD9",
"] 	c #D2E9D5",
"^ 	c #CDE6D2",
"/ 	c #A6CDAA",
"( 	c #E9F2E9",
"_ 	c #E5F0E6",
": 	c #E1EEE3",
"< 	c #DEEDE0",
"[ 	c #DDECDD",
"} 	c #DAEBDB",
"| 	c #D7EAD8",
"1 	c #D4E9D5",
"2 	c #CCE5CF",
"3 	c #C9E4CC",
"4 	c #C6E3C8",
"5 	c #C3E2C8",
"6 	c #C2E1C6",
"7 	c #C6E3CA",
"8 	c #C3E1C8",
"9 	c #C8E1C6",
"0 	c #F5DEBE",
"a 	c #FDDFB9",
"b 	c #F2DFB5",
"c 	c #E7E2C0",
"d 	c #AED7B5",
"e 	c #ACD7B2",
"f 	c #A8D5AE",
"g 	c #A4D3AB",
"h 	c #A7D4AD",
"i 	c #78B582",
"j 	c #E7F2E8",
"k 	c #E1ECE1",
"l 	c #E1ECE2",
"m 	c #DFECE0",
"n 	c #DCEBDD",
"o 	c #D9EADB",
"p 	c #D7E8D8",
"q 	c #D4E7D5",
"r 	c #D1E6D4",
"s 	c #CFE4D1",
"t 	c #C7E0CA",
"u 	c #C3E0C5",
"v 	c #C1DEC3",
"w 	c #BFDEC3",
"x 	c #BEDDC2",
"y 	c #D0DAC2",
"z 	c #EDE2D3",
"A 	c #FFDBC6",
"B 	c #FEDDBE",
"C 	c #FFDEB1",
"D 	c #FFE3A6",
"E 	c #FFE29B",
"F 	c #F5E49D",
"G 	c #D6E29A",
"H 	c #9FD0A3",
"I 	c #9BCEA6",
"J 	c #99CEA1",
"K 	c #96CDA2",
"L 	c #75B279",
"M 	c #DFECE1",
"N 	c #DEEBE0",
"O 	c #DBEADC",
"P 	c #DAE9DB",
"Q 	c #D0E5D2",
"R 	c #E7BB9A",
"S 	c #FFBE9A",
"T 	c #FFD2B5",
"U 	c #FFE0B6",
"V 	c #FFE0A9",
"W 	c #FFE7A3",
"X 	c #FEE293",
"Y 	c #FABA62",
"Z 	c #F5891C",
"` 	c #A0C898",
" .	c #96C7A1",
"..	c #97CB9F",
"+.	c #96CDA3",
"@.	c #96CD9F",
"#.	c #DCE9DD",
"$.	c #D8E8DA",
"%.	c #CDE4D1",
"&.	c #BDDCC1",
"*.	c #E5B98C",
"=.	c #FFA567",
"-.	c #FFA665",
";.	c #FEC186",
">.	c #FED695",
",.	c #FCB363",
"'.	c #F58B2D",
").	c #E95600",
"!.	c #CA4B00",
"~.	c #91B58C",
"{.	c #8ABA91",
"].	c #8FC49B",
"^.	c #94CA9D",
"/.	c #94CB9F",
"(.	c #E5F0E5",
"_.	c #D7E8D9",
":.	c #CBE4CF",
"<.	c #C2DFC4",
"[.	c #BFDFC2",
"}.	c #BCDDBF",
"|.	c #BBDCBD",
"1.	c #E4B984",
"2.	c #FDA862",
"3.	c #F9A45D",
"4.	c #F3A458",
"5.	c #F98E37",
"6.	c #F15A03",
"7.	c #EB5500",
"8.	c #D15000",
"9.	c #B94800",
"0.	c #82A37C",
"a.	c #7DAC88",
"b.	c #89BC90",
"c.	c #8FC49A",
"d.	c #8FC898",
"e.	c #74B37B",
"f.	c #F0F5F0",
"g.	c #CDE4D0",
"h.	c #CAE3CE",
"i.	c #BADDBE",
"j.	c #BADBBC",
"k.	c #DEB378",
"l.	c #F5A358",
"m.	c #F2A85A",
"n.	c #E6A65A",
"o.	c #F3852E",
"p.	c #EA5301",
"q.	c #D85600",
"r.	c #BB4600",
"s.	c #AE4600",
"t.	c #72926E",
"u.	c #75A07B",
"v.	c #7FB189",
"w.	c #89BF92",
"x.	c #8CC694",
"y.	c #73B27B",
"z.	c #DFEEE1",
"A.	c #D8E8DB",
"B.	c #D9E8DA",
"C.	c #D7E8DA",
"D.	c #C8E1CB",
"E.	c #C0DDC2",
"F.	c #B6DBBC",
"G.	c #B5DABB",
"H.	c #D6B275",
"I.	c #E3A656",
"J.	c #DDA250",
"K.	c #D9A051",
"L.	c #E48128",
"M.	c #DC5401",
"N.	c #B84900",
"O.	c #A53F00",
"P.	c #943D07",
"Q.	c #688664",
"R.	c #6A9473",
"S.	c #78AA7F",
"T.	c #83BA8B",
"U.	c #89C394",
"V.	c #70B179",
"W.	c #DEEDDE",
"X.	c #D4E7D6",
"Y.	c #D1E6D3",
"Z.	c #C7E2CB",
"`.	c #C5E0C7",
" +	c #B5DAB9",
".+	c #B3DAB9",
"++	c #B1D3BF",
"@+	c #C8C9BB",
"#+	c #D3B488",
"$+	c #D3A14F",
"%+	c #D6A43A",
"&+	c #D3781F",
"*+	c #B44200",
"=+	c #A43B00",
"-+	c #8C4B1E",
";+	c #988D6B",
">+	c #96B98D",
",+	c #80A87D",
"'+	c #78AB7F",
")+	c #85C18D",
"!+	c #6CB177",
"~+	c #C9E2CD",
"{+	c #C5E0CB",
"]+	c #C2DFC6",
"^+	c #B0D7B6",
"/+	c #C0D5D9",
"(+	c #CAD8EC",
"_+	c #C9D6F4",
":+	c #C5CCEF",
"<+	c #BDB7C3",
"[+	c #C5AC80",
"}+	c #C56F0A",
"|+	c #983800",
"1+	c #9A7151",
"2+	c #C0CBA2",
"3+	c #C5E8B6",
"4+	c #C2E9B0",
"5+	c #B1DFA4",
"6+	c #94C68C",
"7+	c #82B786",
"8+	c #89C693",
"9+	c #66B070",
"0+	c #E8F3EA",
"a+	c #BAD8D5",
"b+	c #D4E2F4",
"c+	c #D0DEF4",
"d+	c #CDD9F5",
"e+	c #C6D1F3",
"f+	c #BDC3F1",
"g+	c #B6BBEF",
"h+	c #ABADF4",
"i+	c #A88E9B",
"j+	c #CEC196",
"k+	c #DBEEC7",
"l+	c #CDEAB8",
"m+	c #C7E8B2",
"n+	c #B8E5AA",
"o+	c #AFE3A2",
"p+	c #A4E19A",
"q+	c #96E08D",
"r+	c #88D086",
"s+	c #63B46F",
"t+	c #CEE7D1",
"u+	c #C7E0CB",
"v+	c #C3E0C9",
"w+	c #BADBBE",
"x+	c #9CC9D1",
"y+	c #A6C5EF",
"z+	c #C0D3F0",
"A+	c #C4CFF2",
"B+	c #BFC7F2",
"C+	c #B8BDEF",
"D+	c #A7ADEE",
"E+	c #8298E6",
"F+	c #79AABB",
"G+	c #AEDD82",
"H+	c #BADF97",
"I+	c #C1E3AA",
"J+	c #BCE6AB",
"K+	c #B3E5A7",
"L+	c #A1DC92",
"M+	c #90CE75",
"N+	c #6FA838",
"O+	c #619E42",
"P+	c #59AD63",
"Q+	c #E2F0E5",
"R+	c #CBE6CD",
"S+	c #719080",
"T+	c #B6DBBA",
"U+	c #B2D9B8",
"V+	c #A8D5B1",
"W+	c #9AC3D1",
"X+	c #8EB0E7",
"Y+	c #8EACE2",
"Z+	c #97AEE1",
"`+	c #A2B2E8",
" @	c #7C9CE3",
".@	c #4D83DE",
"+@	c #266DD7",
"@@	c #5393A9",
"#@	c #A3D379",
"$@	c #9FD075",
"%@	c #9ECD78",
"&@	c #A5D48A",
"*@	c #97D573",
"=@	c #7BB742",
"-@	c #68A42A",
";@	c #5E8D26",
">@	c #57863E",
",@	c #52A05B",
"'@	c #C7E4CB",
")@	c #ECEFED",
"!@	c #AFD8B3",
"~@	c #A7D4AE",
"{@	c #96BCC8",
"]@	c #8EABE1",
"^@	c #8BA4DA",
"/@	c #889FD6",
"(@	c #7797D5",
"_@	c #387EDC",
":@	c #2C76D9",
"<@	c #2366CA",
"[@	c #528B9F",
"}@	c #9ECC78",
"|@	c #94C673",
"1@	c #92C371",
"2@	c #8EBF6A",
"3@	c #77B931",
"4@	c #69A028",
"5@	c #609229",
"6@	c #548126",
"7@	c #4A7B34",
"8@	c #4A9353",
"9@	c #C6E3CB",
"0@	c #EBF0EC",
"a@	c #678BA2",
"b@	c #869ED6",
"c@	c #869DD5",
"d@	c #8396CC",
"e@	c #728FCF",
"f@	c #307BDC",
"g@	c #2769CE",
"h@	c #215CB9",
"i@	c #4D8391",
"j@	c #8ABE6D",
"k@	c #90C16E",
"l@	c #88BA6C",
"m@	c #84B867",
"n@	c #387B85",
"o@	c #347079",
"p@	c #436D2F",
"q@	c #42834B",
"r@	c #C2E1C5",
"s@	c #6D8997",
"t@	c #7485B5",
"u@	c #7D8CC5",
"v@	c #7D88C1",
"w@	c #6581C6",
"x@	c #266BCF",
"y@	c #2460B3",
"z@	c #2257A9",
"A@	c #447279",
"B@	c #81AE6D",
"C@	c #7DB266",
"D@	c #78AA63",
"E@	c #73A759",
"F@	c #54ABB5",
"G@	c #27555C",
"H@	c #36552D",
"I@	c #38713F",
"J@	c #DDEEE0",
"K@	c #BEDFC2",
"L@	c #6C8A7A",
"M@	c #5F7674",
"N@	c #5C6F8F",
"O@	c #737DBC",
"P@	c #5C77BF",
"Q@	c #2362B3",
"R@	c #235AAC",
"S@	c #2C5276",
"T@	c #39574D",
"U@	c #5D7D5B",
"V@	c #639753",
"W@	c #65984F",
"X@	c #71B9C2",
"Y@	c #255158",
"Z@	c #2B4930",
"`@	c #306437",
" #	c #DCEDDD",
".#	c #B8DDBD",
"+#	c #6D8A7B",
"@#	c #668374",
"##	c #5A7268",
"$#	c #425964",
"%#	c #4764A3",
"&#	c #315DA5",
"*#	c #395B5B",
"=#	c #426849",
"-#	c #416847",
";#	c #3B6240",
">#	c #3F6B34",
",#	c #57ACB6",
"'#	c #ACD3D9",
")#	c #26432C",
"!#	c #2D5F34",
"~#	c #D9ECDC",
"{#	c #6D8C7C",
"]#	c #678374",
"^#	c #5D776A",
"/#	c #556C60",
"(#	c #304B43",
"_#	c #496F55",
":#	c #4A7452",
"<#	c #446E4B",
"[#	c #355B3A",
"}#	c #365E3E",
"|#	c #5BACB8",
"1#	c #B4D8DD",
"2#	c #25422A",
"3#	c #2E6436",
"4#	c #86AA9E",
"5#	c #EFF4F0",
"6#	c #F5F6F5",
"7#	c #ECECEC",
"8#	c #DCDCDC",
"9#	c #8AA38C",
"0#	c #15412F",
"a#	c #537F59",
"b#	c #507D55",
"c#	c #64AFBD",
"d#	c #60AFBB",
"e#	c #C5E0E4",
"f#	c #29482C",
"g#	c #326C3A",
"h#	c #E6EDE7",
"i#	c #EFF2EF",
"j#	c #F6F7F6",
"k#	c #F3F3F3",
"l#	c #EAEAEA",
"m#	c #96B299",
"n#	c #13422F",
"o#	c #517F57",
"p#	c #57ABB8",
"q#	c #5FB0BA",
"r#	c #6CB6C1",
"s#	c #D6E7EB",
"t#	c #2C5133",
"u#	c #36763F",
"v#	c #B2D9B9",
"w#	c #85A99D",
"x#	c #A1BEA4",
"y#	c #144833",
"z#	c #598C5F",
"A#	c #28565D",
"B#	c #C2DEE3",
"C#	c #94C1C9",
"D#	c #6DB2BE",
"E#	c #BADADF",
"F#	c #D4E7EB",
"G#	c #FFFFFF",
"H#	c #315938",
"I#	c #3A7E42",
"J#	c #77A185",
"K#	c #E9EEE9",
"L#	c #EDF0ED",
"M#	c #F4F7F5",
"N#	c #F9F9F9",
"O#	c #F8F8F8",
"P#	c #A8C6AA",
"Q#	c #154C36",
"R#	c #5D9564",
"S#	c #5F9865",
"T#	c #2D6168",
"U#	c #7BB9C4",
"V#	c #2C5F67",
"W#	c #254D53",
"X#	c #2E5455",
"Y#	c #345F3C",
"Z#	c #3E8546",
"`#	c #D4E9D7",
" $	c #93BD9A",
".$	c #5C8169",
"+$	c #AAC9AD",
"@$	c #154E37",
"#$	c #609B67",
"$$	c #619F6B",
"%$	c #48794C",
"&$	c #A7CFD4",
"*$	c #233F27",
"=$	c #244329",
"-$	c #25442B",
";$	c #25452B",
">$	c #26472C",
",$	c #2C5032",
"'$	c #3A6A42",
")$	c #428C4A",
"!$	c #D2E9D6",
"~$	c #ACD7B4",
"{$	c #9AC9A0",
"]$	c #81A989",
"^$	c #537761",
"/$	c #164F36",
"($	c #629F6A",
"_$	c #68AA71",
":$	c #528E5E",
"<$	c #3E6C45",
"[$	c #28492E",
"}$	c #2E5536",
"|$	c #335E3B",
"1$	c #34623C",
"2$	c #35643D",
"3$	c #3B6C44",
"4$	c #457F50",
"5$	c #46954E",
"6$	c #B9D8BD",
"7$	c #9BCEA4",
"8$	c #97C8A1",
"9$	c #7EA887",
"0$	c #52765F",
"a$	c #175039",
"b$	c #5FA064",
"c$	c #6BB376",
"d$	c #5FA36A",
"e$	c #4F8959",
"f$	c #3C6B43",
"g$	c #335D39",
"h$	c #3F7349",
"i$	c #478551",
"j$	c #4A8B55",
"k$	c #4B8D56",
"l$	c #4E9259",
"m$	c #539B5F",
"n$	c #4AA057",
"o$	c #83B28A",
"p$	c #9ECFA4",
"q$	c #A1D2A9",
"r$	c #9BCBA3",
"s$	c #81A987",
"t$	c #537760",
"u$	c #45714F",
"v$	c #6CAA78",
"w$	c #78BC84",
"x$	c #6BB378",
"y$	c #61A36C",
"z$	c #538C5C",
"A$	c #45764C",
"B$	c #45774E",
"C$	c #528E5D",
"D$	c #5EA369",
"E$	c #63AB6E",
"F$	c #64AC6F",
"G$	c #65AE72",
"H$	c #66B172",
"I$	c #4DA55B",
"J$	c #7FB489",
"K$	c #78AB81",
"L$	c #64926A",
"M$	c #4C7650",
"N$	c #416747",
"O$	c #3B6142",
"P$	c #38613E",
"Q$	c #33603A",
"R$	c #316037",
"S$	c #31603A",
"T$	c #306037",
"U$	c #326537",
"V$	c #468853",
"W$	c #55A962",
"X$	c #57AE61",
"Y$	c #50AA5D",
"Z$	c #4EA55A",
"`$	c #489954",
" %	c #418A49",
".%	c #3F874A",
"+%	c #47974F",
"@%	c #4DA457",
"#%	c #50A959",
"$%	c #4FAA5C",
"%%	c #4DA65C",
"&%	c #4FAA58",
"*%	c #4EA75D",
"=%	c #000000",
". . . + @ # # $ % % & * = - - ; > - ; > , ' ) ! ~ { ] ] ^ /         ",
". ( = _ _ ; : < [ } | 1 2 3 4 5 6 7 8 9 0 a b c d e f f g h i       ",
". j k l m m n o p q r s t u v w x y z A B C D E F G H I J K K L     ",
". j l l M N O P p q Q s t u v x x R S T U V W X Y Z `  ...+.@.L     ",
"+ = m M M n #.$.p q Q %.t u v x &.*.=.-.;.>.,.'.).!.~.{.].^./.L     ",
"@ (.N N n O o _.q q Q :.u <.[.}.|.1.2.3.4.5.6.7.8.9.0.a.b.c.d.e.    ",
"f.: O O #.o p p q Q g.h.<.[.x i.j.k.l.m.n.o.p.q.r.s.t.u.v.w.x.y.    ",
"$ z.A.B.C.p q q Q g.h.D.E.&.|.F.G.H.I.J.K.L.M.N.O.P.Q.R.S.T.U.V.    ",
"& W._._.X.q Y.Q :.h.Z.`.&.|. +.+++@+#+$+%+&+*+=+-+;+>+,+'+T.)+!+    ",
"& } q q Y.Q s :.~+Z.{+]+|. +^+/+(+_+:+<+[+}+|+1+2+3+4+5+6+7+8+9+    ",
"0+| Q Q Q %.:.~+Z.`.<.w  +a+b+c+d+e+f+g+h+i+j+k+l+m+n+o+p+q+r+s+    ",
"= t+Z.Z.u+{+v+v w |.w+ +e x+y+z+A+B+C+D+E+F+G+H+I+J+K+L+M+N+O+P+    ",
"Q+R+u u S+S+S+x |.w+T+U+V+W+X+Y+Z+`+ @.@+@@@#@$@%@&@*@=@-@;@>@,@    ",
"Q+'@v S+)@S+S+S+w+T+U+!@~@{@]@^@/@(@_@:@<@[@}@|@1@2@3@4@5@6@7@8@    ",
"> 9@S+0@S+)@S+S+S+S+S+S+S+a@b@c@d@e@f@g@h@i@j@k@l@m@n@n@n@o@p@q@    ",
"> r@S+S+0@S+)@S+S+S+S+S+S+s@t@u@v@w@x@y@z@A@B@C@D@E@n@F@F@G@H@I@    ",
"J@K@S+S+S+0@S+)@S+S+S+S+S+L@M@N@O@P@Q@R@S@T@U@n@V@W@n@F@X@Y@Z@`@    ",
" #.#S+S+S+S+0@S+)@0@0@S+S++#@###$#%#&#*#=#-#n@n@;#>#n@,#'#Y@)#!#    ",
"~#T+S+S+S+S+S+0@0@0@0@0@S+{#]#^#/#(#_#:#<#n@,#n@[#}#n@|#1#Y@2#3#    ",
" #.#S+S+S+S+S+0@4#4#4#0@5#6#7#8#9#0#a#b#n@,#c#n@n@n@n@d#e#Y@f#g#    ",
"~#T+S+S+S+S+S+0@0@0@h#0@i#j#k#l#m#n#o#n@,#c#c#F@p#p#q#r#s#Y@t#u#    ",
"~ v#S+S+S+S+S+0@4#4#4#4#4#4#w#k#x#y#z#A#B#C#D#'#'#'#E#F#G#Y@H#I#    ",
"~ v#J#S+S+S+S+0@0@0@0@K#L#M#N#O#P#Q#R#S#T#'#U#V#A#Y@Y@Y@W#X#Y#Z#    ",
"`#v# $.$S+S+S+0@4#4#4#4#4#4#4#N#+$@$#$$$%$T#&$Y@*$=$-$;$>$,$'$)$    ",
"!$~${$]$^$S+S+0@0@0@0@K#L#M#N#N#+$/$($_$:$<$T#Y@[$}$|$1$2$3$4$5$    ",
"6$~$7$8$9$0$S++$+$+$+$+$+$+$+$+$+$a$b$c$d$e$f$T#g$h$i$j$k$l$m$n$    ",
"  o$p$q$r$s$t$a$a$a$a$a$a$a$a$a$a$u$v$w$x$y$z$A$B$C$D$E$F$G$H$I$    ",
"    J$J$J$K$L$M$N$O$P$P$Q$R$S$T$U$V$W$X$Y$Z$`$ %.%+%@%#%$%%%&%*%    ",
"                                                =%                  ",
"                                                                    ",
"                                                                    ",
"                                                                    ",
"                                                                    ",
"                                                                    "};
