/* XPM */
static char * masterdetail_xpm[] = {
"48 52 7 1",
" 	c None",
".	c #000000",
"+	c #FF996C",
"@	c #DC3300",
"#	c #666666",
"$	c #F63900",
"%	c #931105",
"                                                ",
"                                                ",
"                                                ",
"                                                ",
"                                                ",
"                                                ",
"                                                ",
"   .........................................    ",
"   .........................................    ",
"   ..                                     ..    ",
"   .                                       .    ",
"   .                                       .    ",
"                                                ",
"                                                ",
"                                                ",
"     ..........................                 ",
"     .+++++++++++++++++++++++@.#                ",
"     .+$$$$$$$$$$$$$$$$$$$$$$%.#                ",
"     .+$$$$$$$$$$$$$$$$$$$$$$%.#                ",
"     .+$$$$$$$$$$$$$$$$$$$$$$%.#                ",
"     .@%%%%%%%%%%%%%%%%%%%%%%%.#                ",
"     ..........................#                ",
"         #######################                ",
"                                                ",
"            .......................             ",
"            .++++++++++++++++++++@.#            ",
"            .+$$$$$$$$$$$$$$$$$$$%.#            ",
"            .+$$$$$$$$$$$$$$$$$$$%.#            ",
"            .+$$$$$$$$$$$$$$$$$$$%.#            ",
"            .@%%%%%%%%%%%%%%%%%%%%.#            ",
"            .......................#            ",
"               #####################            ",
"                                                ",
"                  .......................       ",
"                  .++++++++++++++++++++@.#      ",
"                  .+$$$$$$$$$$$$$$$$$$$%.#      ",
"                  .+$$$$$$$$$$$$$$$$$$$%.#      ",
"                  .+$$$$$$$$$$$$$$$$$$$%.#      ",
"                  .@%%%%%%%%%%%%%%%%%%%%.#      ",
"                  .......................#      ",
"                     #####################      ",
"                                                ",
"                                                ",
"                   ...  ..  ...  ..  ...  ..    ",
"                   . . .  . . . .  . . . .  .   ",
"                   . . .  . . . .  . . . .  .   ",
"                   . . .  . . . .  . . . .  .   ",
"                   . .  ..  . .  ..  . .  ..    ",
"                                                ",
"                                                ",
"                                                ",
"                                                "};
