/* XPM */
static char * menu_replace_xpm[] = {
"16 16 111 2",
"  	c None",
". 	c #D0D0DF",
"+ 	c #E6B454",
"@ 	c #FEE591",
"# 	c #D8A07E",
"$ 	c #FFFFFF",
"% 	c #F9F9FE",
"& 	c #F4EDEC",
"* 	c #FAC100",
"= 	c #FEB202",
"- 	c #FEB43E",
"; 	c #DE7B39",
"> 	c #FCFCFF",
", 	c #F7CF7F",
"' 	c #FECF00",
") 	c #FE9E00",
"! 	c #FE8207",
"~ 	c #D47F58",
"{ 	c #9C9CB6",
"] 	c #F8BD10",
"^ 	c #FEB901",
"/ 	c #FE9D03",
"( 	c #F2650C",
"_ 	c #9C8C9F",
": 	c #FAD89F",
"< 	c #FEDB05",
"[ 	c #FEAA08",
"} 	c #FE8D0E",
"| 	c #D97341",
"1 	c #D7D7E5",
"2 	c #C9C9DA",
"3 	c #FBC627",
"4 	c #FEC610",
"5 	c #FEAD10",
"6 	c #F87D18",
"7 	c #D0B0AE",
"8 	c #CECEDD",
"9 	c #CCCCDB",
"0 	c #FDE5C0",
"a 	c #FDDC1A",
"b 	c #FEB91B",
"c 	c #FEA31F",
"d 	c #DB702F",
"e 	c #D5D5E4",
"f 	c #D2D2E0",
"g 	c #FDD353",
"h 	c #FED62A",
"i 	c #FEBC26",
"j 	c #FE9D33",
"k 	c #D2A396",
"l 	c #DCDCE9",
"m 	c #DBDBE8",
"n 	c #D8D8E6",
"o 	c #FDEEDF",
"p 	c #FDDE35",
"q 	c #FEC936",
"r 	c #FEB738",
"s 	c #DC762F",
"t 	c #E5E5EF",
"u 	c #E0E0EC",
"v 	c #DEDEEB",
"w 	c #DADAE7",
"x 	c #9595AF",
"y 	c #FEDA79",
"z 	c #FEE14F",
"A 	c #FEC942",
"B 	c #FEB44F",
"C 	c #DAA286",
"D 	c #E8E8F1",
"E 	c #E2E2EC",
"F 	c #D3D3DF",
"G 	c #CCCCD8",
"H 	c #8D8DA6",
"I 	c #FDD24E",
"J 	c #FED658",
"K 	c #FECB55",
"L 	c #E9994E",
"M 	c #DFD8DF",
"N 	c #DADAE4",
"O 	c #CFCFDA",
"P 	c #CECED8",
"Q 	c #CACAD7",
"R 	c #F7C37F",
"S 	c #FEDE91",
"T 	c #F2C87A",
"U 	c #BE8B73",
"V 	c #D4D4DE",
"W 	c #D3D3DD",
"X 	c #D0D0DA",
"Y 	c #CFCFD9",
"Z 	c #CBCBD7",
"` 	c #D4A170",
" .	c #F5DEC3",
"..	c #BF9687",
"+.	c #D8D8E0",
"@.	c #D7D7DF",
"#.	c #CECEDA",
"$.	c #9494AE",
"%.	c #7C5544",
"&.	c #A28178",
"*.	c #D5D5DE",
"=.	c #D4D4DF",
"-.	c #DDDDE7",
";.	c #E1E1ED",
">.	c #B4887C",
",.	c #E1E1E8",
"'.	c #DFDFE7",
").	c #DDDDE5",
"!.	c #DCDCE6",
"~.	c #E4E4EE",
"{.	c #E7E7F0",
". . . . . . + @ #               ",
". $ $ $ % & * = - ;             ",
". $ $ $ > , ' ) ! ~ {           ",
". $ $ $ > ] ^ / ( _ { {         ",
". $ $ $ : < [ } | 1 2 {         ",
". $ $ $ 3 4 5 6 7 8 9 {         ",
". $ $ 0 a b c d e f . {         ",
". $ $ g h i j k l m n {         ",
". $ o p q r s t u v w x         ",
". $ y z A B C D E F G H         ",
". $ I J K L M N O P Q H         ",
". $ R S T U V W X Y Z H         ",
". $ `  ...+.@.W X Y #.$.        ",
". $ %.&.+.+.*.W =.-.;.{         ",
". > >.,.'.).!.~.{.t ;.{         ",
"{ { { { { { { { { { { {         "};
