/* XPM */
static char * menu_saveas_xpm[] = {
"18 18 70 1",
" 	c None",
".	c #1C1C1C",
"+	c #404040",
"@	c #303030",
"#	c #878787",
"$	c #FFFFFF",
"%	c #FDFCFA",
"&	c #FCF9F6",
"*	c #FBF6F2",
"=	c #FAF4EE",
"-	c #F9F1EA",
";	c #F8EEE6",
">	c #F7ECE2",
",	c #777777",
"'	c #737373",
")	c #707070",
"!	c #FEFDFC",
"~	c #ABBBB6",
"{	c #69A5A5",
"]	c #F6EAE0",
"^	c #6D6D6D",
"/	c #838383",
"(	c #FDFBF9",
"_	c #FCF8F5",
":	c #FBF6F1",
"<	c #FAF3ED",
"[	c #F9F0E9",
"}	c #F8EEE5",
"|	c #F7EBE1",
"1	c #F6E8DD",
"2	c #696969",
"3	c #808080",
"4	c #FCF9F7",
"5	c #F5E7DB",
"6	c #666666",
"7	c #7C7C7C",
"8	c #FCF8F4",
"9	c #FBF5F0",
"0	c #FAF2EC",
"a	c #F9F0E8",
"b	c #F7EDE4",
"c	c #F5E8DC",
"d	c #F4E5D8",
"e	c #626262",
"f	c #797979",
"g	c #676767",
"h	c #5F5F5F",
"i	c #757575",
"j	c #727272",
"k	c #6E6E6E",
"l	c #6B6B6B",
"m	c #646464",
"n	c #5B5B5B",
"o	c #606060",
"p	c #585858",
"q	c #E6E6E6",
"r	c #DBDBDB",
"s	c #D1D1D1",
"t	c #C7C7C7",
"u	c #8E8E8E",
"v	c #8B8B8B",
"w	c #545454",
"x	c #424242",
"y	c #BCBCBC",
"z	c #858585",
"A	c #535353",
"B	c #B2B2B2",
"C	c #7D7D7D",
"D	c #7B7B7B",
"E	c #A7A7A7",
"   ..++++++++..   ",
"  @#+$%&*=-;>+,.  ",
" ..++++++++..+'.  ",
".#+$%&*=-;>+,.).  ",
".#+!~{{{{~]+'.^.  ",
"./+(_:<[}|1+).2.  ",
".3+4~{{{{~5+^.6.  ",
".7+890ab]cd+2.e.  ",
".f,++++++++g6.h.  ",
".i'j)k^l2g6me.n.  ",
".j)k+++++++oh.p.  ",
".k^+qrst+uv+n.w.  ",
".l2+rxxy+z/+p.A.  ",
".g6+sx6B+CD+w.@   ",
".me+tyBE+i'+A.    ",
" ...++++.....     ",
"                  ",
"                  "};
