/* XPM */
static char * menu_execute_xpm[] = {
"16 14 17 1",
" 	c None",
".	c #000000",
"+	c #FFFFC5",
"@	c #838100",
"#	c #FFFF00",
"$	c #7B99FF",
"%	c #104CFF",
"&	c #0040FF",
"*	c #A4A1A4",
"=	c #8BAAFF",
"-	c #7395FF",
";	c #003CFF",
">	c #C55900",
",	c #FFFFFF",
"'	c #FFAA5A",
")	c #830000",
"!	c #838183",
"    .           ",
"   .+. .@.      ",
"   .++.+#@..... ",
"   .++++@.$%&&.*",
"  .++#+#.=-%;&.*",
" .++#+###......*",
"  ..>##@##.,,,.*",
"  .')#@...!,,,.*",
" .'>.#.,,,!,,,.*",
".'>...!!!!!!!!.*",
"'>.,,,!,,,!,,,.*",
">..,,,!,,,!,,,.*",
". .............*",
"  **************"};
