/* XPM */
static char * menu_eol_xpm[] = {
"16 13 3 1",
" 	c None",
".	c #000000",
"+	c #F3F3F3",
"                ",
" .............. ",
".++.....++++++..",
".++.....++......",
".++.....++......",
".++.....++......",
".++.....+++++...",
".++.....++......",
".++.....++......",
".++.....++......",
".++++++.++......",
" .............. ",
"                "};
