/* XPM */
static char * menu_ps_xpm[] = {
"16 16 76 1",
" 	c None",
".	c #454545",
"+	c #828182",
"@	c #BDBCBD",
"#	c #FBFAFB",
"$	c #C3C3C3",
"%	c #FFFFFF",
"&	c #777777",
"*	c #D5D5D5",
"=	c #6C6C6C",
"-	c #C6C6C6",
";	c #7C7C7C",
">	c #636363",
",	c #858485",
"'	c #898989",
")	c #D5D4D5",
"!	c #BAB9BA",
"~	c #767676",
"{	c #3C3B3C",
"]	c #7B7B7B",
"^	c #959495",
"/	c #F5F5F5",
"(	c #F7F6F7",
"_	c #CBCBCB",
":	c #F2F1F2",
"<	c #919091",
"[	c #767576",
"}	c #A6A5A6",
"|	c #FCFCFC",
"1	c #FBFBFB",
"2	c #ACABAC",
"3	c #6C6B6C",
"4	c #565556",
"5	c #C3C1C3",
"6	c #606060",
"7	c #656565",
"8	c #B9B8B9",
"9	c #5F5F5F",
"0	c #666666",
"a	c #E3E2E3",
"b	c #6D6B6D",
"c	c #5D5D5D",
"d	c #BCBBBC",
"e	c #F4F4F4",
"f	c #E6E5E6",
"g	c #EBEAEB",
"h	c #C8C7C8",
"i	c #727072",
"j	c #716F71",
"k	c #F4F3F4",
"l	c #B5B5B5",
"m	c #A1A0A1",
"n	c #F8F8F8",
"o	c #F6F5F6",
"p	c #777677",
"q	c #A2A0A2",
"r	c #F6F6F6",
"s	c #C7C6C7",
"t	c #4C4B4C",
"u	c #545454",
"v	c #AFADAF",
"w	c #535353",
"x	c #6B6A6B",
"y	c #B5B4B5",
"z	c #B1B0B1",
"A	c #373637",
"B	c #797779",
"C	c #A19FA1",
"D	c #5B5A5B",
"E	c #616061",
"F	c #7F7D7F",
"G	c #848284",
"H	c #3A3A3A",
"I	c #424242",
"J	c #585758",
"K	c #646364",
"                ",
"       ..       ",
"     +@##@+     ",
"     $%%%%$     ",
"    &*=--=*;    ",
"  >,').!!.)~{   ",
" ]^/(%%%%%%_:<  ",
"  [}|%%%%%%123  ",
"   45%%%%%%@6   ",
"   72%%%%%%89   ",
"   02%%%%%%ab   ",
"   cd%/e%%fghi  ",
"   jk%lmnopqrst ",
"  uv#gwxyzAByCD ",
"  EFG[  HI  JK  ",
"                "};
