/* XPM */
static char * menu_config_xpm[] = {
"16 16 126 2",
"  	c None",
". 	c #6B7375",
"+ 	c #81858A",
"@ 	c #959A9E",
"# 	c #929597",
"$ 	c #686C71",
"% 	c #7C8286",
"& 	c #B6B9BD",
"* 	c #A8ACB1",
"= 	c #F7F7FB",
"- 	c #FFFFFF",
"; 	c #DEE2E3",
"> 	c #646868",
", 	c #2A5B91",
"' 	c #63696E",
") 	c #9EA0A4",
"! 	c #90949A",
"~ 	c #D2D3D7",
"{ 	c #9EA1A6",
"] 	c #8A8E93",
"^ 	c #DCE1E6",
"/ 	c #9A9C9F",
"( 	c #555A5E",
"_ 	c #5A83AA",
": 	c #90B0CB",
"< 	c #202662",
"[ 	c #92969B",
"} 	c #BFC1C5",
"| 	c #BDC0C1",
"1 	c #90949C",
"2 	c #7E796B",
"3 	c #9B7C54",
"4 	c #9AB9D7",
"5 	c #88A0C1",
"6 	c #5083AE",
"7 	c #3E6797",
"8 	c #6F7779",
"9 	c #F6F7F9",
"0 	c #BDBFC4",
"a 	c #B3B8B9",
"b 	c #63696D",
"c 	c #596068",
"d 	c #674420",
"e 	c #D7A451",
"f 	c #8C6237",
"g 	c #2C4C88",
"h 	c #B8CFE3",
"i 	c #7B9FC4",
"j 	c #5A89B3",
"k 	c #C1DAE7",
"l 	c #4B6190",
"m 	c #767B7F",
"n 	c #676B6F",
"o 	c #A06B25",
"p 	c #CB9C59",
"q 	c #2E629E",
"r 	c #87A9C8",
"s 	c #90AFCD",
"t 	c #A0B5CF",
"u 	c #7D96BA",
"v 	c #1A215D",
"w 	c #7B410D",
"x 	c #B2904F",
"y 	c #4A6D92",
"z 	c #ACC7DC",
"A 	c #8EB2CD",
"B 	c #111D5D",
"C 	c #0D0341",
"D 	c #4B677D",
"E 	c #B1CDE3",
"F 	c #AECBDC",
"G 	c #253B77",
"H 	c #3B6EA6",
"I 	c #C1D5E7",
"J 	c #C6DCE7",
"K 	c #2E4E88",
"L 	c #3C6E9E",
"M 	c #4675A4",
"N 	c #5B86B0",
"O 	c #E3EDF1",
"P 	c #D9E8F0",
"Q 	c #395E97",
"R 	c #281A39",
"S 	c #4B77A7",
"T 	c #D4E3EB",
"U 	c #B1CEDE",
"V 	c #779FBF",
"W 	c #5A86B1",
"X 	c #E6F1F9",
"Y 	c #3A5F97",
"Z 	c #433444",
"` 	c #AC7B37",
" .	c #7FA6C7",
"..	c #6D86AE",
"+.	c #182663",
"@.	c #5E7BA5",
"#.	c #86AAC8",
"$.	c #9DBBD7",
"%.	c #42649B",
"&.	c #10093F",
"*.	c #8E561A",
"=.	c #D79F39",
"-.	c #21407B",
";.	c #0E0542",
">.	c #81AAC8",
",.	c #355E92",
"'.	c #080548",
").	c #814E16",
"!.	c #D2952B",
"~.	c #8B5A21",
"{.	c #31689C",
"].	c #A1C0D5",
"^.	c #466595",
"/.	c #714215",
"(.	c #C98B22",
"_.	c #A97321",
":.	c #436EA0",
"<.	c #9DB9D2",
"[.	c #89AFC9",
"}.	c #233C77",
"|.	c #B67B1E",
"1.	c #B2761D",
"2.	c #1A1D5D",
"3.	c #121A56",
"4.	c #744519",
"5.	c #6E4219",
"        . + @ # $               ",
"      % & * = - ; >     ,       ",
"' ) ! ~ { ] ^ / (   _ : <       ",
"[ - } - | 1 2 3     4 5     6 7 ",
"8 9 0 a b c d e f   g h i j k l ",
"  m n         o p   q r s t u v ",
"              w x y z A B C     ",
"                D E F G         ",
"              H I J K           ",
"    L M     N O P Q R           ",
"  S T U V W - X Y Z `           ",
"   ...+.@.#.$.%.&.*.=.          ",
"  -.;.    >.,.'.  ).!.~.        ",
"        {.].^.    /.(._.        ",
"      :.<.[.}.      |.1.        ",
"        2.3.        4.5.        "};
