/* XPM */
static char * menu_del_xpm[] = {
"16 16 57 1",
" 	c None",
".	c #B2BCCD",
"+	c #758298",
"@	c #FAFAFB",
"#	c #F5F6F8",
"$	c #F1F3F6",
"%	c #E8EBEF",
"&	c #E3E6EC",
"*	c #D2D7E1",
"=	c #D5DBE4",
"-	c #FBFBFC",
";	c #F6F7F9",
">	c #F2F4F7",
",	c #EAECF1",
"'	c #E5E8EE",
")	c #D8DDE5",
"!	c #B6BFCF",
"~	c #EBEEF2",
"{	c #E8EAEF",
"]	c #DADFE7",
"^	c #F4F5F7",
"/	c #EEF0F3",
"(	c #E9ECF0",
"_	c #DEE2E9",
":	c #CED4DF",
"<	c #BBC4D2",
"[	c #A9B4C6",
"}	c #EFF1F4",
"|	c #DFE3EA",
"1	c #D9DEE6",
"2	c #C0C8D5",
"3	c #B0BACB",
"4	c #ACB7C9",
"5	c #FF0000",
"6	c #E0E4EB",
"7	c #B5BECE",
"8	c #F5F7FA",
"9	c #E9EBF0",
"0	c #E4E7ED",
"a	c #C2CAD7",
"b	c #C1C9D6",
"c	c #BDC6D4",
"d	c #CDD3DE",
"e	c #C8CFDB",
"f	c #C5CCD8",
"g	c #F0F2F5",
"h	c #D4DAE3",
"i	c #D2D8E1",
"j	c #CBD1DC",
"k	c #D3D8E2",
"l	c #CCD2DD",
"m	c #C9D0DC",
"n	c #CFD5E0",
"o	c #DCE0E7",
"p	c #D1D7E0",
"q	c #DDE1E8",
"r	c #D7DCE4",
"  ........+     ",
"  .@#$%&*=.+    ",
"  .-;>,')=.!+   ",
"  .-#>~{]=++++  ",
"  .-^>/(_=:<[+  ",
"  .@^>}~|1234+  ",
"  .55>}~6557.+  ",
"  .8559055abc+  ",
"  .$/5555defa+  ",
"  .$g955hi:je+  ",
"  .>/555=k:lm+  ",
"  .>95555hndm+  ",
"  .g55_o55pdj+  ",
"  .556q]r55dj+  ",
"  .~66q]rkndm+  ",
"  ++++++++++++  "};
