/* XPM */
static char * menu_dbf_xpm[] = {
"16 16 138 2",
"  	c None",
". 	c #E68F17",
"+ 	c #E39320",
"@ 	c #EFA835",
"# 	c #FFEA98",
"$ 	c #FFF7AB",
"% 	c #FFFFCE",
"& 	c #E6AF52",
"* 	c #EA9217",
"= 	c #FFD475",
"- 	c #FFFFD7",
"; 	c #FFDF88",
"> 	c #EDC574",
", 	c #E58404",
"' 	c #EFA129",
") 	c #FFE992",
"! 	c #FFCF6D",
"~ 	c #EEAE45",
"{ 	c #FFF4A2",
"] 	c #FFFFB7",
"^ 	c #E5B661",
"/ 	c #F5AD37",
"( 	c #FFD973",
"_ 	c #FFE280",
": 	c #FFEE92",
"< 	c #FFCA5C",
"[ 	c #E3880E",
"} 	c #DB8F24",
"| 	c #E0A246",
"1 	c #EEBF66",
"2 	c #E0A64F",
"3 	c #873E00",
"4 	c #FAB745",
"5 	c #FFF599",
"6 	c #FFE175",
"7 	c #FFDF70",
"8 	c #F7AA33",
"9 	c #FFC451",
"0 	c #FFBF51",
"a 	c #FAB950",
"b 	c #E2A241",
"c 	c #C7862E",
"d 	c #9C510A",
"e 	c #F8B23D",
"f 	c #FFF491",
"g 	c #FFEE88",
"h 	c #FFD15A",
"i 	c #FFCB4F",
"j 	c #F39D26",
"k 	c #FFCA4E",
"l 	c #FFC645",
"m 	c #FFC43E",
"n 	c #D67511",
"o 	c #F4AB35",
"p 	c #FFEC7F",
"q 	c #FFE97C",
"r 	c #FFE372",
"s 	c #FFC440",
"t 	c #FFB82E",
"u 	c #EE9317",
"v 	c #FFB72C",
"w 	c #FFB82D",
"x 	c #FFC139",
"y 	c #FFCA47",
"z 	c #CE7813",
"A 	c #EEA42D",
"B 	c #FFE36E",
"C 	c #FFE26B",
"D 	c #FFE064",
"E 	c #FFDF61",
"F 	c #FFB130",
"G 	c #FF9C10",
"H 	c #FFAB19",
"I 	c #FFB526",
"J 	c #FFBD34",
"K 	c #FFC744",
"L 	c #FFCF4F",
"M 	c #CD7B1A",
"N 	c #EA9D26",
"O 	c #FFDB5F",
"P 	c #FFDA5A",
"Q 	c #FFD756",
"R 	c #FFD651",
"S 	c #FFCD45",
"T 	c #FFA513",
"U 	c #FFAF20",
"V 	c #FFC43D",
"W 	c #FFCD4D",
"X 	c #FFD657",
"Y 	c #CA7D1E",
"Z 	c #E5971E",
"` 	c #FFD650",
" .	c #FFD34A",
"..	c #FFD147",
"+.	c #FFCE41",
"@.	c #FFC433",
"#.	c #FFAB1B",
"$.	c #FFB629",
"%.	c #FFBF36",
"&.	c #FFCA46",
"*.	c #FFD356",
"=.	c #FFDC5F",
"-.	c #C1791C",
";.	c #B76000",
">.	c #F7AB2B",
",.	c #FFCB3C",
"'.	c #FFCA37",
").	c #FFC633",
"!.	c #FFBF2A",
"~.	c #FFB123",
"{.	c #FFBC30",
"].	c #FFC53F",
"^.	c #FFD95F",
"/.	c #FFDB5D",
"(.	c #B5620C",
"_.	c #E29117",
":.	c #FFC129",
"<.	c #FFC024",
"[.	c #FFB921",
"}.	c #FFB72B",
"|.	c #FFCB48",
"1.	c #FFD357",
"2.	c #945410",
"3.	c #140000",
"4.	c #D17E09",
"5.	c #FFB817",
"6.	c #FFB719",
"7.	c #FFC644",
"8.	c #FFCD4B",
"9.	c #B26E1B",
"0.	c #3D0A00",
"a.	c #AF5C00",
"b.	c #FFB210",
"c.	c #FFC13C",
"d.	c #DA8D25",
"e.	c #491100",
"f.	c #934600",
"g.	c #783200",
"                . +             ",
"            @ # $ % &           ",
"        * = - - ; - - >         ",
"    , ' ) ) ) ! ~ { ] ] ^       ",
"    / ( _ : : : < [ } | 1 2 3   ",
"    4 5 6 7 7 7 8 9 0 a b c d   ",
"    e f g h i i j i i k l m n   ",
"    o p q r s t u t v w x y z   ",
"    A B C D E F G H I J K L M   ",
"    N O P Q R S T U t V W X Y   ",
"    Z `  ...+.@.#.$.%.&.*.=.-.  ",
"    ;.>.,.'.).!.~.{.].L ^./.(.  ",
"        _.:.<.[.}.x |.1.Q 2.3.  ",
"          4.5.6.J 7.8.9.0.      ",
"            a.b.c.d.e.          ",
"              f.g.              "};
