/* XPM */
static char * menu_pdf_xpm[] = {
"16 16 83 1",
" 	c None",
".	c #D0D0DF",
"+	c #9C9CB6",
"@	c #FED8D2",
"#	c #FFFFFF",
"$	c #F9F9FE",
"%	c #F5F5FC",
"&	c #E9E9F2",
"*	c #EBEBF4",
"=	c #D5BCC5",
"-	c #F8310E",
";	c #F1F1F1",
">	c #FCFCFF",
",	c #F8F8FE",
"'	c #ECECF4",
")	c #D3D3E1",
"!	c #DAA8AB",
"~	c #EFEFEF",
"{	c #EFEFF6",
"]	c #F83E1D",
"^	c #FDFDFF",
"/	c #F1F1F8",
"(	c #E6E6F0",
"_	c #D7D7E5",
":	c #C9C9DA",
"<	c #FB7F69",
"[	c #F35236",
"}	c #FEFEFF",
"|	c #F2F2F9",
"1	c #EEEEF5",
"2	c #DADAE7",
"3	c #CECEDD",
"4	c #CCCCDB",
"5	c #FB9886",
"6	c #EEBCB3",
"7	c #F3F3F9",
"8	c #D5D5E4",
"9	c #D2D2E0",
"0	c #FA725A",
"a	c #F63C1B",
"b	c #F54728",
"c	c #F1F1F6",
"d	c #E7E7F0",
"e	c #E0E0EC",
"f	c #DCDCE9",
"g	c #DBDBE8",
"h	c #D8D8E6",
"i	c #EBADA2",
"j	c #ED8B7C",
"k	c #E5E5EF",
"l	c #DEDEEB",
"m	c #DD9E9D",
"n	c #F89586",
"o	c #E7C1C0",
"p	c #EAEAF3",
"q	c #E8E8F1",
"r	c #E1E1ED",
"s	c #E96D5D",
"t	c #EE7E6A",
"u	c #F7DDDB",
"v	c #F69E92",
"w	c #F53B1B",
"x	c #DBDBE5",
"y	c #E4E4EE",
"z	c #F54628",
"A	c #EA7B6A",
"B	c #E8B6B3",
"C	c #F56D57",
"D	c #ED5840",
"E	c #DADAE3",
"F	c #EC4A30",
"G	c #EFB1A6",
"H	c #E9E9F0",
"I	c #F0F0F7",
"J	c #E8E8EF",
"K	c #E3E3EB",
"L	c #F1300E",
"M	c #F6310E",
"N	c #C8A3A7",
"O	c #E32D0D",
"P	c #D62A0C",
"Q	c #CBCBDA",
"R	c #DA2B0C",
"    ........+   ",
"    .@@#$%&*.+  ",
"    =--;>,'*.)+ ",
"    !--~>${*++++",
"    .]-~^$/*(_:+",
"    .<[;}>|1234+",
"    .5-6#>7*89.+",
"    .0abc%defgh+",
"    .]i-j1(kelf+",
"    mb~n-opqkre+",
"    stuv--w-xye+",
"    w[zABC-DEkr+",
"   -FGH7/IJKdkr+",
" -LMN#7|I{'p(kr+",
"-OLPQ>77/{*pdkr+",
"MLR ++++++++++++"};
