/* XPM */
static char * menu_html_xpm[] = {
"16 16 155 2",
"  	c None",
". 	c #D0D0DF",
"+ 	c #9C9CB6",
"@ 	c #FFFFFF",
"# 	c #F9F9FE",
"$ 	c #F5F5FC",
"% 	c #E9E9F2",
"& 	c #EBEBF4",
"* 	c #166AB7",
"= 	c #397BBB",
"- 	c #1160B0",
"; 	c #1E65AF",
"> 	c #4B83C0",
", 	c #A3B9D7",
"' 	c #E2E7F4",
") 	c #ECECF4",
"! 	c #D3D3E1",
"~ 	c #3382C0",
"{ 	c #4D96CB",
"] 	c #83CEF5",
"^ 	c #ADEEFF",
"/ 	c #87DAFF",
"( 	c #58ABF5",
"_ 	c #3381D3",
": 	c #6890C1",
"< 	c #C4CFE3",
"[ 	c #347FC0",
"} 	c #66B8F3",
"| 	c #C8FFFF",
"1 	c #F9FFFF",
"2 	c #DFFFFF",
"3 	c #A7F3FF",
"4 	c #75CEFF",
"5 	c #45AAFF",
"6 	c #3D8CEB",
"7 	c #6C8FBE",
"8 	c #D6DBEB",
"9 	c #E6E6F0",
"0 	c #D7D7E5",
"a 	c #C9C9DA",
"b 	c #4188C2",
"c 	c #257FD6",
"d 	c #BEF4FF",
"e 	c #F1FFFF",
"f 	c #F3FFFF",
"g 	c #CBFFFF",
"h 	c #9FEDFF",
"i 	c #6FCAFF",
"j 	c #41A7FF",
"k 	c #1C77FF",
"l 	c #548DCE",
"m 	c #9AB0D1",
"n 	c #DADAE7",
"o 	c #CECEDD",
"p 	c #CCCCDB",
"q 	c #1568B8",
"r 	c #5FADF3",
"s 	c #DBFFFF",
"t 	c #E6FFFF",
"u 	c #A6F1FF",
"v 	c #9DECFF",
"w 	c #81D8FF",
"x 	c #5BBAFF",
"y 	c #379FFF",
"z 	c #176DFD",
"A 	c #3B78DE",
"B 	c #6489BA",
"C 	c #D5D5E4",
"D 	c #D2D2E0",
"E 	c #0052A6",
"F 	c #268EFD",
"G 	c #90E6FF",
"H 	c #D8FFFF",
"I 	c #A3E7FF",
"J 	c #7BD1FF",
"K 	c #5ABAFF",
"L 	c #3EA5FF",
"M 	c #309BFF",
"N 	c #003BE1",
"O 	c #3663E1",
"P 	c #3C6AA8",
"Q 	c #DCDCE9",
"R 	c #DBDBE8",
"S 	c #D8D8E6",
"T 	c #004BA4",
"U 	c #1160E9",
"V 	c #2C99FF",
"W 	c #98E5FF",
"X 	c #CDFEFF",
"Y 	c #A7E7FF",
"Z 	c #359EFF",
"` 	c #2C95FF",
" .	c #2C7CFE",
"..	c #001ACF",
"+.	c #4582EE",
"@.	c #3D6BA9",
"#.	c #E0E0EC",
"$.	c #DEDEEB",
"%.	c #0152B1",
"&.	c #0031C8",
"*.	c #266DF3",
"=.	c #A3DDFF",
"-.	c #C2F7FF",
";.	c #B1EAFF",
">.	c #1161F3",
",.	c #134FD5",
"'.	c #407BF4",
").	c #0011CB",
"!.	c #417FE0",
"~.	c #6387B9",
"{.	c #E5E5EF",
"].	c #E1E1ED",
"^.	c #176EBE",
"/.	c #0030B6",
"(.	c #87C1FF",
"_.	c #E0FFFF",
":.	c #E9FFFF",
"<.	c #87B7FF",
"[.	c #A6DDFF",
"}.	c #417CF3",
"|.	c #2162ED",
"1.	c #528DCD",
"2.	c #97AED0",
"3.	c #E4E4EE",
"4.	c #095BB9",
"5.	c #5FA0E8",
"6.	c #D1FEFF",
"7.	c #EAFFFF",
"8.	c #C7F9FF",
"9.	c #98D5FF",
"0.	c #559BEA",
"a.	c #698CBC",
"b.	c #D5DBEA",
"c.	c #E7E7F0",
"d.	c #1D71C0",
"e.	c #2166C6",
"f.	c #3268D5",
"g.	c #779EF1",
"h.	c #8EB9FA",
"i.	c #89C8F5",
"j.	c #418BD4",
"k.	c #658CBE",
"l.	c #C3CEE3",
"m.	c #EAEAF3",
"n.	c #0B63B8",
"o.	c #2762B6",
"p.	c #114FA9",
"q.	c #1D59AA",
"r.	c #477CBE",
"s.	c #9BB2D2",
"t.	c #D9DFED",
"u.	c #FCFCFF",
"v.	c #F3F3F9",
"w.	c #F1F1F8",
"x.	c #EFEFF6",
"        . . . . . . . . +       ",
"        . @ @ @ # $ % & . +     ",
"      * = - ; > , ' ) & . ! +   ",
"    ~ { ] ^ / ( _ : < & + + + + ",
"  [ } | 1 2 3 4 5 6 7 8 9 0 a + ",
"b c d e f g h i j k l m n o p + ",
"q r s t u v w x y z A B C D . + ",
"E F G H I J K L M N O P Q R S + ",
"T U V W X Y Z `  ...+.@.#.$.Q + ",
"%.&.*.=.-.;.>.,.'.).!.~.{.].#.+ ",
"^./.(.-._.:.<.[.}.|.1.2.9 3.#.+ ",
"  4.5.6.f @ 7.8.9.0.a.b.c.{.].+ ",
"    d.e.f.g.h.i.j.k.l.m.c.{.].+ ",
"      n.o.p.q.r.s.t.) m.9 {.].+ ",
"        . u.v.v.w.x.& m.c.{.].+ ",
"        + + + + + + + + + + + + "};
