/* XPM */
static char * ico_page_xpm[] = {
"16 17 106 2",
"  	c None",
". 	c #B3B3B3",
"+ 	c #898989",
"@ 	c #BFBFBF",
"# 	c #AEAEAE",
"$ 	c #BEBEBE",
"% 	c #8A8A8A",
"& 	c #9D9D9D",
"* 	c #B2B2B2",
"= 	c #A5A5A5",
"- 	c #BCBCBC",
"; 	c #CCCCCC",
"> 	c #8D8D8D",
", 	c #9E9E9E",
"' 	c #A1A1A1",
") 	c #919191",
"! 	c #C8C8C8",
"~ 	c #B1B1B1",
"{ 	c #AAAAAA",
"] 	c #B0B0B0",
"^ 	c #A9A9A9",
"/ 	c #A6A6A6",
"( 	c #B9B9B9",
"_ 	c #B8B8B8",
": 	c #979797",
"< 	c #8B8B8B",
"[ 	c #ADADAD",
"} 	c #9F9F9F",
"| 	c #C9C9C9",
"1 	c #A3A3A3",
"2 	c #B6B6B6",
"3 	c #D6D6D6",
"4 	c #DCDCDC",
"5 	c #B5B5B5",
"6 	c #909090",
"7 	c #9A9A9A",
"8 	c #ACACAC",
"9 	c #959595",
"0 	c #949494",
"a 	c #7A786D",
"b 	c #918963",
"c 	c #B3B2AC",
"d 	c #CBCBCB",
"e 	c #DEDEDE",
"f 	c #C4C4C4",
"g 	c #7A7A79",
"h 	c #78745D",
"i 	c #B19B30",
"j 	c #BB9208",
"k 	c #6D6244",
"l 	c #C3C2BF",
"m 	c #A0A0A0",
"n 	c #979693",
"o 	c #9E8715",
"p 	c #EBBA04",
"q 	c #DEA100",
"r 	c #B18308",
"s 	c #A28C52",
"t 	c #B7B7B7",
"u 	c #9B9B9B",
"v 	c #B4B4B4",
"w 	c #ADADAB",
"x 	c #817541",
"y 	c #B28A07",
"z 	c #DBA000",
"A 	c #C18500",
"B 	c #AF7B07",
"C 	c #A9986A",
"D 	c #9C9C9C",
"E 	c #7C7B74",
"F 	c #9F861D",
"G 	c #C18800",
"H 	c #B97F00",
"I 	c #BF8500",
"J 	c #AC7F0F",
"K 	c #98885A",
"L 	c #999999",
"M 	c #989898",
"N 	c #D7D7D7",
"O 	c #CAC9C9",
"P 	c #9F9874",
"Q 	c #B68F0F",
"R 	c #C48D00",
"S 	c #BF8700",
"T 	c #C58E00",
"U 	c #AF8611",
"V 	c #A69C7C",
"W 	c #838383",
"X 	c #A8A8A8",
"Y 	c #AFA36D",
"Z 	c #BA8F07",
"` 	c #CA9500",
" .	c #C69100",
"..	c #CA9501",
"+.	c #AC903D",
"@.	c #BDBDBD",
"#.	c #C5C5C5",
"$.	c #A89750",
"%.	c #C69904",
"&.	c #CE9B00",
"*.	c #C59609",
"=.	c #A9935D",
"-.	c #A58E35",
";.	c #B28C13",
">.	c #AD9A6A",
",.	c #BEB396",
"    .                           ",
"  + @ # $             % & *     ",
"  = - ; >           , ' ) !     ",
"    ' ~ { ]         , { ^   / . ",
"      / - (       $ ' _ : < [ } ",
"        ^ | 1   ! & 2 ! 3 4 @ _ ",
"          [ 5 6 7 * 2 ; # 8 1   ",
"            9 0 a b c = d e     ",
"          f g h i j k l         ",
"        ; m n o p q r s         ",
"    t = u v w x y z A B C       ",
"  ' D ] - 2 d E F G H I J K     ",
"  L M m @ N & O P Q R S T U V   ",
"  W t v X 4 u     Y Z `  ...+.  ",
"      @.t #.5       $.%.&.*.=.  ",
"      D ] =           -.;.>.    ",
"                        ,.      "};
