/* XPM */
static char * menu_new_xpm[] = {
"16 16 59 1",
" 	c None",
".	c #B3BECE",
"+	c #78869D",
"@	c #F9F9FA",
"#	c #F5F6F8",
"$	c #F1F3F6",
"%	c #E7EAF0",
"&	c #E2E6ED",
"*	c #D3D8E2",
"=	c #D6DBE5",
"-	c #FAFAFB",
";	c #F2F4F7",
">	c #E9ECF1",
",	c #E5E8EE",
"'	c #D8DDE5",
")	c #B8C2D1",
"!	c #EBEDF2",
"~	c #DADFE7",
"{	c #F4F5F7",
"]	c #ECEFF3",
"^	c #E8ECF1",
"/	c #DEE2E9",
"(	c #CFD5E0",
"_	c #BBC5D4",
":	c #AAB6C9",
"<	c #FF9500",
"[	c #EDEFF4",
"}	c #DFE3EA",
"|	c #D9DEE6",
"1	c #C0C9D7",
"2	c #B2BDCD",
"3	c #AEB9CB",
"4	c #EBEEF2",
"5	c #E0E4EB",
"6	c #BCC5D3",
"7	c #B7C1D0",
"8	c #B4BFCF",
"9	c #FFFF1A",
"0	c #FFC600",
"a	c #CAD2DD",
"b	c #C3CCDA",
"c	c #C2CAD7",
"d	c #BDC7D6",
"e	c #FFFF5D",
"f	c #FFFF8C",
"g	c #FFFFB6",
"h	c #CDD5E0",
"i	c #C9D1DC",
"j	c #C5CDDA",
"k	c #FFFFCC",
"l	c #DCE0E7",
"m	c #D9DDE6",
"n	c #D5DAE4",
"o	c #CBD3DE",
"p	c #D4D9E3",
"q	c #CCD3DF",
"r	c #D0D6E1",
"s	c #E2E5EB",
"t	c #DDE1E8",
"    ........+   ",
"    .@#$%&*=.+  ",
"    .-#;>,'=.)+ ",
"    .-#;!%~=++++",
"    .-{;]^/=(_:+",
"    <<{;[!}|123+",
" << <<{<<45=678+",
"<90<99<09<(abcd+",
" <efggfe<|(hijb+",
"  <0kk0<lmn*(oi+",
" <efggfe<~=p(qa+",
"<90<99<09<'n(ha+",
" << <<&<<l'nrho+",
"    <<s5t~'p(ho+",
"    .4s5t~'p(ha+",
"    ++++++++++++"};
