/* XPM */
static char * menu_function_xpm[] = {
"16 16 156 2",
"  	c None",
". 	c #AE9719",
"+ 	c #A08D1B",
"@ 	c #86802C",
"# 	c #E6D573",
"$ 	c #EFD35F",
"% 	c #F7CF52",
"& 	c #E9C03F",
"* 	c #CEA823",
"= 	c #AD920B",
"- 	c #857C0B",
"; 	c #DFC672",
"> 	c #FCF9C4",
", 	c #FEEF8D",
"' 	c #CDA120",
") 	c #CC9E1C",
"! 	c #EFC443",
"~ 	c #DCB027",
"{ 	c #B19613",
"] 	c #AE971B",
"^ 	c #FAE9A1",
"/ 	c #FFFDD7",
"( 	c #F7EBA2",
"_ 	c #F5DE69",
": 	c #FBD85D",
"< 	c #F1C646",
"[ 	c #CDAC2D",
"} 	c #7E7801",
"| 	c #E0BE40",
"1 	c #EFCD5F",
"2 	c #EDCD5F",
"3 	c #F9E68E",
"4 	c #ECC547",
"5 	c #E8BC39",
"6 	c #AE961E",
"7 	c #6F7670",
"8 	c #646D69",
"9 	c #4E5E2A",
"0 	c #9C890F",
"a 	c #C19D15",
"b 	c #B59525",
"c 	c #D8AD26",
"d 	c #BD9A0D",
"e 	c #B29307",
"f 	c #777205",
"g 	c #B2B6A4",
"h 	c #A5AA9A",
"i 	c #969A8F",
"j 	c #A1A595",
"k 	c #AEB19E",
"l 	c #9FA393",
"m 	c #7F857C",
"n 	c #636956",
"o 	c #5E634C",
"p 	c #535A50",
"q 	c #64612D",
"r 	c #666803",
"s 	c #5C6001",
"t 	c #DEE4CD",
"u 	c #E7ECD0",
"v 	c #DCE0C4",
"w 	c #D0D4B9",
"x 	c #C4C7AF",
"y 	c #BABDA7",
"z 	c #A6AA99",
"A 	c #8E9487",
"B 	c #6D756F",
"C 	c #60695D",
"D 	c #B0B2A5",
"E 	c #CED0C6",
"F 	c #F6FBE5",
"G 	c #F1F6DB",
"H 	c #E0E6C9",
"I 	c #A8AC94",
"J 	c #8C907B",
"K 	c #8A8F7A",
"L 	c #999D87",
"M 	c #A4A894",
"N 	c #8F9588",
"O 	c #626B66",
"P 	c #444E4E",
"Q 	c #A7ACA0",
"R 	c #F0F2E7",
"S 	c #FEFFF0",
"T 	c #F9FEE5",
"U 	c #E9EFD3",
"V 	c #848C7A",
"W 	c #4E554C",
"X 	c #484F48",
"Y 	c #666D5F",
"Z 	c #A2A791",
"` 	c #A0A494",
" .	c #8F9488",
"..	c #8A9084",
"+.	c #858C80",
"@.	c #6B746D",
"#.	c #A5AA99",
"$.	c #F2F3EC",
"%.	c #FEFFEE",
"&.	c #EFF5DA",
"*.	c #D6DCC3",
"=.	c #C9CEB6",
"-.	c #CACDB3",
";.	c #C0C4AC",
">.	c #B1B4A1",
",.	c #9EA293",
"'.	c #ACB09D",
").	c #868D81",
"!.	c #495452",
"~.	c #8C9388",
"{.	c #EEF1E5",
"].	c #F1F3E8",
"^.	c #E8E9DC",
"/.	c #F0F3DD",
"(.	c #F2F7DD",
"_.	c #DDE1C5",
":.	c #CCCFB6",
"<.	c #C2C6AE",
"[.	c #B5B9A4",
"}.	c #A8AC9A",
"|.	c #5A635F",
"1.	c #2B3633",
"2.	c #4C5650",
"3.	c #A6AB99",
"4.	c #AAAE9C",
"5.	c #A1A594",
"6.	c #A9AD9B",
"7.	c #DBDFC9",
"8.	c #E3E7CF",
"9.	c #C2C6AF",
"0.	c #A3A796",
"a.	c #A3A896",
"b.	c #ADB09D",
"c.	c #7B8376",
"d.	c #2C3734",
"e.	c #707770",
"f.	c #7C837A",
"g.	c #757C76",
"h.	c #7B8279",
"i.	c #9DA292",
"j.	c #A7AA99",
"k.	c #8E9386",
"l.	c #747C75",
"m.	c #7D837B",
"n.	c #495451",
"o.	c #3E4843",
"p.	c #3D4744",
"q.	c #2E3A37",
"r.	c #3E4945",
"s.	c #6A726C",
"t.	c #798078",
"u.	c #535D58",
"v.	c #323E3A",
"w.	c #3E4946",
"x.	c #343F3B",
"y.	c #303C39",
"                      . +   @   ",
"                  # $ % & * = - ",
"                ; > , ' ) ! ~ { ",
"                ] ^ / ( _ : < [ ",
"                } | 1 2 3 4 5 6 ",
"            7 8 9 0 a b c d e f ",
"    g h i j k l m n o p q r s   ",
"    t u v w x y z A m B C       ",
"D E F G H I J K L M N m O P     ",
"Q R S T U V W X Y Z `  ...+.    ",
"@.#.$.%.T &.*.=.-.;.>.,.'.).    ",
"!.~.{.].^./.(.u _.:.<.[.}.|.    ",
"1.2.3.4.5.6.7.8.9.0.a.b.c.d.    ",
"    e.f.g.h.i.j.k.l.l.m.n.      ",
"    o.p.q.r.s.t.u.v.q.w.        ",
"            x.y.                "};
