/* XPM */
static char * merge_xpm[] = {
"24 24 132 2",
"  	c None",
". 	c #000000",
"+ 	c #E2E2E2",
"@ 	c #F2F2F2",
"# 	c #F3F3F3",
"$ 	c #F4F4F4",
"% 	c #F5F5F5",
"& 	c #F6F6F6",
"* 	c #F7F7F7",
"= 	c #DBDBDB",
"- 	c #F0F0F0",
"; 	c #E0E0E0",
"> 	c #E1E1E1",
", 	c #E3E3E3",
"' 	c #E4E4E4",
") 	c #E5E5E5",
"! 	c #E6E6E6",
"~ 	c #E7E7E7",
"{ 	c #E8E8E8",
"] 	c #E9E9E9",
"^ 	c #EAEAEA",
"/ 	c #EBEBEB",
"( 	c #ECECEC",
"_ 	c #EDEDED",
": 	c #EEEEEE",
"< 	c #EFEFEF",
"[ 	c #868686",
"} 	c #878787",
"| 	c #888888",
"1 	c #898989",
"2 	c #8A8A8A",
"3 	c #8B8B8B",
"4 	c #F1F1F1",
"5 	c #D4D4CE",
"6 	c #B8B39C",
"7 	c #AB9F73",
"8 	c #A8975B",
"9 	c #A9975B",
"0 	c #ACA074",
"a 	c #BBB69F",
"b 	c #D9D9D3",
"c 	c #ECDA9D",
"d 	c #ECDB9F",
"e 	c #EBDA9B",
"f 	c #ECD99A",
"g 	c #EBD691",
"h 	c #BCA65C",
"i 	c #BDB9A3",
"j 	c #B5B095",
"k 	c #E5CC75",
"l 	c #EBDA9F",
"m 	c #E8D284",
"n 	c #E6CD75",
"o 	c #E7CE77",
"p 	c #E7CF7A",
"q 	c #E7CF79",
"r 	c #E9D384",
"s 	c #ECD997",
"t 	c #DFC361",
"u 	c #BAB59B",
"v 	c #E9D17D",
"w 	c #EDD894",
"x 	c #D3B960",
"y 	c #D0CFC3",
"z 	c #AFA683",
"A 	c #EAD794",
"B 	c #E7D07E",
"C 	c #E7CD74",
"D 	c #E7CF78",
"E 	c #E8D07B",
"F 	c #E8D17E",
"G 	c #E9D280",
"H 	c #EAD281",
"I 	c #EAD384",
"J 	c #EBD589",
"K 	c #EBD486",
"L 	c #B5AC89",
"M 	c #F8F8F8",
"N 	c #EBD689",
"O 	c #ECD78E",
"P 	c #AC9C61",
"Q 	c #F9F9F9",
"R 	c #A9985E",
"S 	c #EBD898",
"T 	c #E7CE76",
"U 	c #E8CF7A",
"V 	c #E9D07D",
"W 	c #EAD382",
"X 	c #EAD485",
"Y 	c #EBD586",
"Z 	c #ECD68B",
"` 	c #ECD688",
" .	c #AD9C62",
"..	c #FAFAFA",
"+.	c #8C8C8C",
"@.	c #ECD584",
"#.	c #B6AD8A",
"$.	c #FBFBFB",
"%.	c #FCFCFC",
"&.	c #CCCABF",
"*.	c #D9BE60",
"=.	c #EAD68D",
"-.	c #E9D07B",
";.	c #E9D17E",
">.	c #EBD588",
",.	c #EDD78D",
"'.	c #D6BC62",
").	c #D5D3C8",
"!.	c #FDFDFD",
"~.	c #8E8E8E",
"{.	c #EAD487",
"].	c #ECD588",
"^.	c #EDD78C",
"/.	c #E6C964",
"(.	c #BEB99F",
"_.	c #FEFEFE",
":.	c #BFBBA5",
"<.	c #CCB45F",
"[.	c #E9D17B",
"}.	c #ECD78B",
"|.	c #EDD890",
"1.	c #EED992",
"2.	c #EDD689",
"3.	c #EBD178",
"4.	c #C1AB60",
"5.	c #C4C0AA",
"6.	c #FFFFFF",
"7.	c #909090",
"8.	c #C3BEA7",
"9.	c #E5E4DF",
"0.	c #C9C9C9",
"a.	c #BDBDBD",
"  . . . . . . . . . . . . . . . . . . . .       ",
". + @ @ @ @ # # # $ $ $ % % % & & * * $ = .     ",
". - ; ; > + , ' ) ! ~ { { ] ^ / ( _ : < _ .     ",
". @ > [ [ } } | 1 1 2 2 3 ^ / ( _ : < - 4 .     ",
". @ + , , ' ) ! ~ { ] ^ / ( ( _ : < - 4 @ .     ",
". # , } | | | | | | | | | | | | | - 4 @ # .     ",
". # ' ) ! ~ ~ { 5 6 7 8 9 0 a b - 4 @ # $ .     ",
". # ) 1 | | | | | | c d e f g h i @ # $ % .     ",
". $ ! ~ { ] j k l m n o p q r s t u $ % & .     ",
". $ ~ 2 | | | | | | | | | | | v w x y & * .     ",
". % { ] ^ z A B C o D E F G H I J K L * M .     ",
". % ] 3 | | | | | | | | | | | | N O P M Q .     ",
". % ^ / ( R S T q U V G W X Y N Z `  ......     ",
". & / +.| | | | | | G H I Y N Z Z @.#.$.%..     ",
". * _ _ : &.*.=.-.;.H I Y >.Z ,.,.'.).%.!..     ",
". * : ~.| | | | {.H I Y ].Z ^.^./.(.%.!._..     ",
". M - 4 @ @ # :.<.[.}.|.1.2.3.4.5.!._.6.6..     ",
". M 4 7.| | | | | | | | | | 8.9.!._.6.6.6..     ",
". @ @ # $ % & & * M Q ..$.%.!._.6.6.6.6.( .     ",
". 0._ M % & * M M Q ..$.%.!._.6.6.6.6.: a..     ",
"  . . . . . . . . . . . . . . . . . . . .       ",
"                                                ",
"                                                ",
"                                                "};
