/* XPM */
static char * network_xpm[] = {
"32 32 364 2",
"  	c None",
". 	c #A9A9B8",
"+ 	c #8E8E9A",
"@ 	c #DBDBDF",
"# 	c #9494A1",
"$ 	c #9595A1",
"% 	c #BBBBC3",
"& 	c #FFFFFF",
"* 	c #A8A8B2",
"= 	c #9191A2",
"- 	c #9C9CA6",
"; 	c #AEAEB6",
"> 	c #F8F8F9",
", 	c #F9F9FE",
"' 	c #B4B4BB",
") 	c #7E7E8D",
"! 	c #B0B0BD",
"~ 	c #A8A8B3",
"{ 	c #DCDCE4",
"] 	c #F2F2F7",
"^ 	c #C5C5CC",
"/ 	c #757587",
"( 	c #B4B4C0",
"_ 	c #A3A3AE",
": 	c #F8F8F8",
"< 	c #FCFCFD",
"[ 	c #FAFAFB",
"} 	c #F9F9FB",
"| 	c #FEFEFE",
"1 	c #D5D5DE",
"2 	c #D8D8E0",
"3 	c #E3E3EB",
"4 	c #D6D6DA",
"5 	c #6C6C7E",
"6 	c #BABAC5",
"7 	c #A4A4AF",
"8 	c #ECECEF",
"9 	c #F7F7F9",
"0 	c #F3F3F5",
"a 	c #F1F1F4",
"b 	c #F2F2F5",
"c 	c #F0F0F3",
"d 	c #CDCDD6",
"e 	c #D0D0D9",
"f 	c #D1D1DA",
"g 	c #DADAE3",
"h 	c #E3E3E8",
"i 	c #676776",
"j 	c #BFBFCA",
"k 	c #A8A8B1",
"l 	c #E3E3E5",
"m 	c #FBFBFE",
"n 	c #EEEEF2",
"o 	c #EBEBEF",
"p 	c #E9E9EF",
"q 	c #EAEAEF",
"r 	c #EAEAED",
"s 	c #E8E8ED",
"t 	c #E8E8EE",
"u 	c #E9E9EE",
"v 	c #CBCBD6",
"w 	c #C7C7D2",
"x 	c #C9C9D4",
"y 	c #C8C8D3",
"z 	c #CECED9",
"A 	c #616172",
"B 	c #ACACB6",
"C 	c #D9D9DD",
"D 	c #F6F6F9",
"E 	c #E5E5EB",
"F 	c #E3E3E9",
"G 	c #E1E1E9",
"H 	c #E2E2E7",
"I 	c #E0E0E8",
"J 	c #E1E1E8",
"K 	c #E1E1E6",
"L 	c #E3E3EA",
"M 	c #C3C3D1",
"N 	c #BEBECC",
"O 	c #C0C0CD",
"P 	c #C1C1CE",
"Q 	c #F0F0F4",
"R 	c #5B5B6E",
"S 	c #CFCFD8",
"T 	c #CECED4",
"U 	c #DBDBE3",
"V 	c #D9D9E1",
"W 	c #DADAE1",
"X 	c #DADAE2",
"Y 	c #D8D8E2",
"Z 	c #D9D9E0",
"` 	c #D7D7E1",
" .	c #D4D4DD",
"..	c #B2B2C2",
"+.	c #B7B7C6",
"@.	c #B8B8C7",
"#.	c #B9B9C8",
"$.	c #B7B7C9",
"%.	c #EFEFF4",
"&.	c #5A5A6C",
"*.	c #C3C3CF",
"=.	c #E0E0E7",
"-.	c #CBCBD7",
";.	c #D1D1DB",
">.	c #D2D2DC",
",.	c #D0D0DC",
"'.	c #D0D0DA",
").	c #CFCFDB",
"!.	c #CCCCD7",
"~.	c #ABABBF",
"{.	c #B0B0C1",
"].	c #B1B1C2",
"^.	c #AFAFC1",
"/.	c #AEAEC1",
"(.	c #AEAEC0",
"_.	c #E6E6EF",
":.	c #59596B",
"<.	c #BFBFCB",
"[.	c #C7C7D3",
"}.	c #C9C9D5",
"|.	c #C8C8D4",
"1.	c #C7C7D4",
"2.	c #C9C9D6",
"3.	c #A7A7BA",
"4.	c #A7A7BB",
"5.	c #A9A9BC",
"6.	c #A7A7BC",
"7.	c #A4A4B9",
"8.	c #9D9DB2",
"9.	c #A8A8BD",
"0.	c #585869",
"a.	c #BBBBC8",
"b.	c #FFFCFF",
"c.	c #FDFCFF",
"d.	c #BDBDCC",
"e.	c #BFBFCD",
"f.	c #C0C0CE",
"g.	c #BEBECE",
"h.	c #C1C1CF",
"i.	c #ADADBD",
"j.	c #9E9EB2",
"k.	c #A0A0B4",
"l.	c #A1A1B4",
"m.	c #9F9FB4",
"n.	c #9C9CB1",
"o.	c #9494AC",
"p.	c #A4A4B8",
"q.	c #E7E7ED",
"r.	c #4D4D5F",
"s.	c #BBBBC5",
"t.	c #8AAB8C",
"u.	c #FDE9FF",
"v.	c #F1EDF6",
"w.	c #EFEFF1",
"x.	c #B4B4C4",
"y.	c #B6B6C6",
"z.	c #B7B7C7",
"A.	c #9595AA",
"B.	c #9898AE",
"C.	c #9999AF",
"D.	c #9797AE",
"E.	c #9494AB",
"F.	c #8E8EA8",
"G.	c #FFFFFE",
"H.	c #49495C",
"I.	c #B7B7C3",
"J.	c #33ED34",
"K.	c #4BEE4C",
"L.	c #F7DFFE",
"M.	c #E1DDEA",
"N.	c #ABABBC",
"O.	c #ADADBF",
"P.	c #AFAFC0",
"Q.	c #A6A6BA",
"R.	c #8D8DA6",
"S.	c #9191A9",
"T.	c #8F8FA8",
"U.	c #8C8CA5",
"V.	c #8686A2",
"W.	c #9898AF",
"X.	c #DCDCE3",
"Y.	c #EBEBF0",
"Z.	c #E5E5EA",
"`.	c #EBEBF1",
" +	c #F6F6F8",
".+	c #464659",
"++	c #B8B8C3",
"@+	c #FAE3FF",
"#+	c #2DCF2F",
"$+	c #37C139",
"%+	c #E1D5EC",
"&+	c #CDCDD9",
"*+	c #F1F1F3",
"=+	c #A9A9BD",
"-+	c #A1A1B6",
";+	c #A5A5B9",
">+	c #9999B0",
",+	c #8686A0",
"'+	c #8989A3",
")+	c #8787A2",
"!+	c #8484A0",
"~+	c #7F7F9C",
"{+	c #9191AA",
"]+	c #D7D7E0",
"^+	c #CBCBD8",
"/+	c #DEDEE5",
"(+	c #FDFDFD",
"_+	c #444455",
":+	c #A1A1AC",
"<+	c #FBF6FE",
"[+	c #EFDAFA",
"}+	c #5DA95F",
"|+	c #D9D0E4",
"1+	c #BEBECD",
"2+	c #ECECF1",
"3+	c #AAAABD",
"4+	c #7C7C9A",
"5+	c #777796",
"6+	c #8A8AA3",
"7+	c #D4D4DC",
"8+	c #C8C8D5",
"9+	c #B3B3C3",
"0+	c #BDBDCB",
"a+	c #DCDCE2",
"b+	c #E4E4EB",
"c+	c #EFEFF2",
"d+	c #474757",
"e+	c #9797A2",
"f+	c #F6F4F9",
"g+	c #D1CBDD",
"h+	c #C8C6D5",
"i+	c #C0C0CF",
"j+	c #BABACA",
"k+	c #DEDEE6",
"l+	c #8787A3",
"m+	c #6E6E8F",
"n+	c #6F6F90",
"o+	c #83839E",
"p+	c #D0D0DB",
"q+	c #B9B9CA",
"r+	c #BABAC9",
"s+	c #C5C5D2",
"t+	c #CDCDD8",
"u+	c #FEFEFF",
"v+	c #5B5B6C",
"w+	c #4C4C60",
"x+	c #8E8E9B",
"y+	c #EDEDF1",
"z+	c #757593",
"A+	c #CECEDA",
"B+	c #ACACBF",
"C+	c #8E8EA6",
"D+	c #B8B8C8",
"E+	c #E2E2EA",
"F+	c #6C6C7B",
"G+	c #434354",
"H+	c #888895",
"I+	c #B4B4C6",
"J+	c #ABABBE",
"K+	c #A8A8BB",
"L+	c #A3A3B7",
"M+	c #9696AD",
"N+	c #606082",
"O+	c #84849F",
"P+	c #A0A0B5",
"Q+	c #AAAABC",
"R+	c #B3B3C4",
"S+	c #C5C5D3",
"T+	c #F0F0F6",
"U+	c #848490",
"V+	c #48485A",
"W+	c #828290",
"X+	c #DDDDE1",
"Y+	c #9E9EB4",
"Z+	c #9C9CB2",
"`+	c #9393AB",
" @	c #9292AA",
".@	c #656586",
"+@	c #767696",
"@@	c #81819D",
"#@	c #9A9AB1",
"$@	c #A9A9BE",
"%@	c #E0E0E9",
"&@	c #9797A3",
"*@	c #4D4D5E",
"=@	c #00A200",
"-@	c #00BF00",
";@	c #7E7E8C",
">@	c #D1D1D4",
",@	c #9090A9",
"'@	c #8C8CA4",
")@	c #AAAABE",
"!@	c #9292A9",
"~@	c #626285",
"{@	c #747493",
"]@	c #7B7B99",
"^@	c #83839F",
"/@	c #8C8CA7",
"(@	c #CCCCDA",
"_@	c #ABABB5",
":@	c #009B00",
"<@	c #008A00",
"[@	c #00B100",
"}@	c #79798A",
"|@	c #BEBEC3",
"1@	c #B2B2C6",
"2@	c #7E7E9B",
"3@	c #A2A2B7",
"4@	c #9090A8",
"5@	c #5E5E81",
"6@	c #6B6B8C",
"7@	c #727292",
"8@	c #B3B3C6",
"9@	c #B8B8C0",
"0@	c #5B5B68",
"a@	c #4A4A5E",
"b@	c #009700",
"c@	c #1EA500",
"d@	c #2BAE00",
"e@	c #00AE00",
"f@	c #757586",
"g@	c #AAAAB2",
"h@	c #9393AC",
"i@	c #515179",
"j@	c #9595B0",
"k@	c #C0C0C7",
"l@	c #626270",
"m@	c #545466",
"n@	c #009500",
"o@	c #2DB600",
"p@	c #58DB00",
"q@	c #50D500",
"r@	c #00A800",
"s@	c #717182",
"t@	c #93939C",
"u@	c #DEDEE7",
"v@	c #ADADC1",
"w@	c #BDBDC9",
"x@	c #6E6E79",
"y@	c #5E5E6E",
"z@	c #2EB700",
"A@	c #65EB00",
"B@	c #78FF00",
"C@	c #6FFD00",
"D@	c #00A400",
"E@	c #747488",
"F@	c #868693",
"G@	c #696978",
"H@	c #666674",
"I@	c #1EA700",
"J@	c #59DC00",
"K@	c #7AFF00",
"L@	c #BFFF76",
"M@	c #BBFE81",
"N@	c #00B200",
"O@	c #018A00",
"P@	c #4DD200",
"Q@	c #6BF900",
"R@	c #B7F688",
"S@	c #ADEA8F",
"T@	c #008F00",
"U@	c #009900",
"V@	c #009000",
"W@	c #008C00",
"                                                                ",
"                                                                ",
"                                                                ",
"                                                                ",
"                                  .                             ",
"                                + @ #                           ",
"                            $ % & & & * =                       ",
"                        - ; & & & & > , ' )                     ",
"                    ! ~ & & & & & & & { ] ^ /                   ",
"                ( _ : & & < [ [ [ } | 1 2 3 4 5                 ",
"            6 7 8 & 9 0 a b b c c b a d e f g h i               ",
"        j k l m n o p q r s t u q 8 v w x y y z 8 A             ",
"      B C D E F G H H I I J K J L M N O P P O O P Q R           ",
"  S T Q { U V W X Y Y Z Z ` X  ...+.@.#.#.#.#.#.@.$.%.&.        ",
"  *.& =.-.;.>.,.'.f ;.).e ;.!.~.{.].].].].].].].^./.(._.:.      ",
"  <.& & E P [.}.}.[.y |.1.2.3.4.5.5.5.5.5.5.6.6.4.7.8.9.& 0.    ",
"  a.& b.c.u #.d.e.f.g.N h.i.j.k.l.l.l.l.m.m.m.n.o.p.q.& & r.    ",
"  s.& t.u.v.w.].x.y.z.z.#.A.B.C.C.C.C.D.D.E.F.m.G G.& & & H.    ",
"  I.& J.K.L.M.b ~.N.O.P.Q.R.S.S.S.T.T.U.V.W.X.Y.Z.`. +& & .+    ",
"  ++& @+#+$+%+&+*+=+-+;+>+,+'+)+)+!+~+{+]+W ^+1 /+u a (+& _+    ",
"    :+<+[+}+|+[.1+2+3+W.S.4+~+4+5+6+7+8+9+0+|.;.a+b+c+& & d+    ",
"      e+f+g+h+i+j+].k+^.l+m+n+o+p+q+C.7.].r+s+t+` b+u+u+v+w+    ",
"        x+y+N @.x./.;+t+h.z+A+B+~+C+>+;+O.D+f.!.E+[ F+G+        ",
"          H+E I+J+K+L+M+p+]+N+z+O+R.W.P+Q+R+S+T+U+V+            ",
"            W+X+{.Y+Z+`+O. @.@+@@@'+`+#@$@%@&@*@            =@-@",
"              ;@>@/.,@'@)@!@~@{@]@^@/@(@_@*@.+            :@<@[@",
"                }@|@1@2@3@4@5@6@7@8@9@0@a@              b@c@d@e@",
"                  f@g@$.h@)+i@j@k@l@m@                n@o@p@q@r@",
"                    s@t@u@v@w@x@y@                  b@z@A@B@C@D@",
"                      E@F@G@H@                    :@I@J@K@L@M@D@",
"                                                N@O@d@P@Q@R@S@T@",
"                                                [@U@n@V@W@W@V@  "};
