/* XPM */
static char * new_xpm[] = {
"18 18 47 1",
" 	c None",
".	c #FF9500",
"+	c #1F73E0",
"@	c #FFFF1A",
"#	c #FFC600",
"$	c #8FBDE5",
"%	c #00368B",
"&	c #FFFF5D",
"*	c #FFFF8C",
"=	c #FFFFB6",
"-	c #599BD8",
";	c #2F82CE",
">	c #FFFFCC",
",	c #5397D5",
"'	c #287DCB",
")	c #2768C6",
"!	c #4D93D3",
"~	c #2178C8",
"{	c #81B8E4",
"]	c #61A6DD",
"^	c #498ED0",
"/	c #1B72C4",
"(	c #5599D6",
"_	c #529CD9",
":	c #7FD0EE",
"<	c #438ACD",
"[	c #4592D5",
"}	c #62C1E8",
"|	c #3A81C8",
"1	c #2B7FCC",
"2	c #107FC4",
"3	c #2CA1DD",
"4	c #4B91D3",
"5	c #1E75C8",
"6	c #0D74BB",
"7	c #0957B1",
"8	c #5D7BB0",
"9	c #B0C3DE",
"0	c #A9BEDB",
"a	c #B1C4DF",
"b	c #B8CAE2",
"c	c #C8D6E9",
"d	c #CFDBEC",
"e	c #D6E1EF",
"f	c #E6ECF5",
"g	c #EDF2F8",
"h	c #F5F7FB",
"                  ",
"            ..    ",
"         .. .. .. ",
" ++++   .@#.@@.#@.",
"+$$$$%   .&*==*&. ",
"+-;;;;;;;;.#>>#.  ",
"+,''))))).&*==*&. ",
"+!~){]]].@#.@@.#@.",
"+^/)(____.._..:.. ",
"+<)([[[[[[[[..})  ",
"+|)(11111111233)  ",
"+)455555555562)   ",
"+)777777777777)   ",
"+8900abcdefgh)    ",
"+9090abcdefgh)    ",
"%%%%%%%%%%%%%     ",
"                  ",
"                  "};
