/* XPM */
static char * open_xpm[] = {
"24 24 121 2",
"  	c None",
". 	c #000000",
"+ 	c #291C10",
"@ 	c #291810",
"# 	c #392818",
"$ 	c #F6AE6A",
"% 	c #FFC683",
"& 	c #FFC27B",
"* 	c #FFBA73",
"= 	c #392410",
"- 	c #412818",
"; 	c #EEA56A",
"> 	c #FFCE9C",
", 	c #FFD69C",
"' 	c #FFD29C",
") 	c #FFCA8B",
"! 	c #FFBA7B",
"~ 	c #392810",
"{ 	c #181010",
"] 	c #181008",
"^ 	c #101008",
"/ 	c #FFC68B",
"( 	c #FFD294",
"_ 	c #FFC283",
": 	c #FFB66A",
"< 	c #FFAE62",
"[ 	c #FFD6A4",
"} 	c #F6A15A",
"| 	c #835529",
"1 	c #523420",
"2 	c #4A3018",
"3 	c #523018",
"4 	c #4A2C18",
"5 	c #392018",
"6 	c #311C10",
"7 	c #201808",
"8 	c #FFCA94",
"9 	c #FFB673",
"0 	c #AC6D39",
"a 	c #525052",
"b 	c #F6F6F6",
"c 	c #FFFAFF",
"d 	c #F6F2F6",
"e 	c #EEEAEE",
"f 	c #EEE6EE",
"g 	c #DEDEDE",
"h 	c #DEDADE",
"i 	c #D5D2CD",
"j 	c #CDCACD",
"k 	c #C5C2C5",
"l 	c #BDBEBD",
"m 	c #B4B6B4",
"n 	c #B4B2B4",
"o 	c #ACAEAC",
"p 	c #393439",
"q 	c #F6A55A",
"r 	c #523020",
"s 	c #E6E6E6",
"t 	c #D5D6D5",
"u 	c #BDBABD",
"v 	c #ACAAAC",
"w 	c #A4A1A4",
"x 	c #9C959C",
"y 	c #948D8B",
"z 	c #838183",
"A 	c #626162",
"B 	c #181818",
"C 	c #FFB26A",
"D 	c #AC7139",
"E 	c #52504A",
"F 	c #E6E2E6",
"G 	c #EEEEEE",
"H 	c #BDBAB4",
"I 	c #A4A5A4",
"J 	c #A49D9C",
"K 	c #8B8D8B",
"L 	c #7B7D7B",
"M 	c #313431",
"N 	c #523418",
"O 	c #D5D2D5",
"P 	c #EEE6E6",
"Q 	c #DED6D5",
"R 	c #C5C6C5",
"S 	c #C5BEC5",
"T 	c #948D94",
"U 	c #736D6A",
"V 	c #A46D39",
"W 	c #5A5052",
"X 	c #E6DEE6",
"Y 	c #DEDAD5",
"Z 	c #CDCAC5",
"` 	c #BDB6B4",
" .	c #9C999C",
"..	c #292829",
"+.	c #D5CECD",
"@.	c #E6DEDE",
"#.	c #CDC6CD",
"$.	c #949194",
"%.	c #181410",
"&.	c #BD7941",
"*.	c #D5CED5",
"=.	c #393831",
"-.	c #B4AEB4",
";.	c #BDB6BD",
">.	c #6A696A",
",.	c #080400",
"'.	c #73696A",
").	c #C5BEBD",
"!.	c #ACAAA4",
"~.	c #9C9D9C",
"{.	c #312C31",
"].	c #A49DA4",
"^.	c #A4A19C",
"/.	c #949594",
"(.	c #625D5A",
"_.	c #101410",
":.	c #101010",
"<.	c #312C29",
"[.	c #292C29",
"}.	c #202420",
"|.	c #292429",
"                                                ",
"                                                ",
"                    . . . . .                   ",
"                . . . . . . . . .   .           ",
"              . .             . . . .           ",
"            .                   . . .           ",
"                              . . . .           ",
"      + + + @                                   ",
"    # $ % & * =                                 ",
"  - ; > , ' ) ! ~ { ] ] ^ { ] ] ^               ",
"  = / , ( _ : < < < < < < < < < < =             ",
"  - ) [ _ } | 1 2 3 2 4 - - = 5 6 + 7 . . . .   ",
"  = ) 8 9 0 a b c b d e f g h i j k l m n o p   ",
"  - / / q r j e s f h t j k u n v w x y z A B   ",
"  = / C D E b F G e f g t j k H n I J K L M     ",
"  - * } N O t P e e s F Q O R S n v J T U .     ",
"  = : V W g Q F f F X Y O Z k ` n I  .z ..      ",
"  - q 3 o +.t F g @.Q O j #.u ` v w $.A %.      ",
"  = &.E O R O t t O *.Z k u ` o I  .z =.        ",
"  - 4 -.m k R j j j R k u ;.o v J $.>..         ",
"  ,.'.j -.n u u ).u u n n !.I ~.$.L {.          ",
"  B $.]. .].w w ^.w  . ./.$.K y L (._.          ",
"  :.M ..<.[.{.[.{.[.{...[.....}.|.:.            ",
"                                                "};
