/* XPM */
static char * output_xpm[] = {
"45 37 474 2",
"  	c None",
". 	c #000000",
"+ 	c #0F0F0F",
"@ 	c #3B3B3B",
"# 	c #777777",
"$ 	c #B3B3B3",
"% 	c #EFEFEF",
"& 	c #C3C3C3",
"* 	c #101010",
"= 	c #2C2C2C",
"- 	c #666666",
"; 	c #A2A2A2",
"> 	c #DEDEDE",
", 	c #EDEDED",
"' 	c #EEEEEE",
") 	c #F0F0F0",
"! 	c #F1F1F1",
"~ 	c #C4C4C4",
"{ 	c #1D1D1D",
"] 	c #575757",
"^ 	c #A0A0A0",
"/ 	c #DBDBDB",
"( 	c #EBEBEB",
"_ 	c #ECECEC",
": 	c #E4E4E4",
"< 	c #C9C9C9",
"[ 	c #F2F2F2",
"} 	c #C5C5C5",
"| 	c #1C1C1C",
"1 	c #565656",
"2 	c #909090",
"3 	c #CACACA",
"4 	c #E8E8E8",
"5 	c #E9E9E9",
"6 	c #EAEAEA",
"7 	c #E2E2E2",
"8 	c #CDCDCD",
"9 	c #BABDBF",
"0 	c #ADBCC3",
"a 	c #A9C6D2",
"b 	c #B1DAEB",
"c 	c #BCBFC0",
"d 	c #F3F3F3",
"e 	c #F4F4F4",
"f 	c #C7C7C7",
"g 	c #474747",
"h 	c #818181",
"i 	c #BABABA",
"j 	c #E6E6E6",
"k 	c #E7E7E7",
"l 	c #D1D1D1",
"m 	c #B9BCBE",
"n 	c #AAB7BC",
"o 	c #A0ADB2",
"p 	c #B7E9FF",
"q 	c #AFD5E5",
"r 	c #BBBBBB",
"s 	c #F5F5F5",
"t 	c #C8C8C8",
"u 	c #393939",
"v 	c #CFCFCF",
"w 	c #AFBCC1",
"x 	c #A8C1CC",
"y 	c #ABCBD8",
"z 	c #AFB8BD",
"A 	c #C6C6C6",
"B 	c #D8D8D8",
"C 	c #C1C1C1",
"D 	c #F7F7F7",
"E 	c #737373",
"F 	c #ACACAC",
"G 	c #D2D2D2",
"H 	c #BFBFBF",
"I 	c #ADB6BA",
"J 	c #A4B7BF",
"K 	c #9EA8AC",
"L 	c #A6B2B8",
"M 	c #D6D6D6",
"N 	c #D3D3D3",
"O 	c #AAAAAA",
"P 	c #F9F9F9",
"Q 	c #ADD0DF",
"R 	c #B5E4F8",
"S 	c #BBBEBF",
"T 	c #E5E5E5",
"U 	c #D0D0D0",
"V 	c #DADADA",
"W 	c #B1B1B1",
"X 	c #FAFAFA",
"Y 	c #CCCCCC",
"Z 	c #8F8F8F",
"` 	c #DCDCDC",
" .	c #9FA2A4",
"..	c #B3DFF2",
"+.	c #A9BCC4",
"@.	c #A8A8A8",
"#.	c #E3E3E3",
"$.	c #AFAFAF",
"%.	c #F6F6F6",
"&.	c #ABABAB",
"*.	c #FCFCFC",
"=.	c #B6BCBF",
"-.	c #B8B8B8",
";.	c #D4D4D4",
">.	c #CBCBCB",
",.	c #E1E1E1",
"'.	c #DFDFDF",
").	c #C2C2C2",
"!.	c #BCBCBC",
"~.	c #FDFDFD",
"{.	c #CECECE",
"].	c #111111",
"^.	c #A6BCC5",
"/.	c #A9ADAE",
"(.	c #BDBDBD",
"_.	c #BEBEBE",
":.	c #B9B9B9",
"<.	c #DDDDDD",
"[.	c #B0B0B0",
"}.	c #FBFBFB",
"|.	c #F8F8F8",
"1.	c #FFFFFF",
"2.	c #D7D7D7",
"3.	c #B2B2B2",
"4.	c #646464",
"5.	c #AAADAF",
"6.	c #B4B4B4",
"7.	c #B7B7B7",
"8.	c #94BDCF",
"9.	c #6C828C",
"0.	c #515151",
"a.	c #2F2F2F",
"b.	c #404040",
"c.	c #787878",
"d.	c #797979",
"e.	c #979797",
"f.	c #8D8D8D",
"g.	c #484848",
"h.	c #0D1318",
"i.	c #122F4C",
"j.	c #1E4B7B",
"k.	c #255E99",
"l.	c #2D71B8",
"m.	c #73453C",
"n.	c #7F3C22",
"o.	c #4F2515",
"p.	c #19110D",
"q.	c #4C4C4C",
"r.	c #A9A9A9",
"s.	c #FEFEFE",
"t.	c #0E0E0E",
"u.	c #193A5C",
"v.	c #2A68A9",
"w.	c #3C97F6",
"x.	c #4593EA",
"y.	c #E56C3E",
"z.	c #FF7845",
"A.	c #CF6138",
"B.	c #5F2D19",
"C.	c #1F1F1F",
"D.	c #6B6B6B",
"E.	c #4F4F4F",
"F.	c #15293D",
"G.	c #448CD8",
"H.	c #479DF6",
"I.	c #4099F6",
"J.	c #6985BA",
"K.	c #F27241",
"L.	c #EF7040",
"M.	c #6F341E",
"N.	c #2B4B6C",
"O.	c #5AA7F7",
"P.	c #53A3F7",
"Q.	c #4C9FF7",
"R.	c #459BF6",
"S.	c #3E98F6",
"T.	c #8D788A",
"U.	c #1F1714",
"V.	c #9E9E9E",
"W.	c #304D6C",
"X.	c #67AEF8",
"Y.	c #5FAAF7",
"Z.	c #58A6F7",
"`.	c #50A2F7",
" +	c #499EF6",
".+	c #429AF6",
"++	c #BD705E",
"@+	c #2F160C",
"#+	c #17222E",
"$+	c #73B4F8",
"%+	c #6CB0F8",
"&+	c #64ACF8",
"*+	c #5CA8F7",
"=+	c #55A4F7",
"-+	c #4EA0F7",
";+	c #479CF6",
">+	c #F57342",
",+	c #98663C",
"'+	c #060D08",
")+	c #5780AB",
"!+	c #78B7F9",
"~+	c #71B3F8",
"{+	c #69AFF8",
"]+	c #61ABF8",
"^+	c #4B9FF7",
"/+	c #449BF6",
"(+	c #F87543",
"_+	c #EB6F3F",
":+	c #CF7544",
"<+	c #A88B53",
"[+	c #8BA665",
"}+	c #6BC97C",
"|+	c #65D081",
"1+	c #326840",
"2+	c #7DB2E9",
"3+	c #7DBAF9",
"4+	c #76B6F8",
"5+	c #6EB1F8",
"6+	c #66ADF8",
"7+	c #5FA9F7",
"8+	c #57A5F7",
"9+	c #50A1F7",
"0+	c #E26A3D",
"a+	c #B87F4B",
"b+	c #929F60",
"c+	c #78BB73",
"d+	c #5EC378",
"e+	c #8BC1F9",
"f+	c #83BCF9",
"g+	c #7BB8F9",
"h+	c #6BB0F8",
"i+	c #4DA0F7",
"j+	c #469CF6",
"k+	c #4096F2",
"l+	c #BB6C58",
"m+	c #C86D3F",
"n+	c #98834E",
"o+	c #80A263",
"p+	c #193420",
"q+	c #90C3FA",
"r+	c #88BFF9",
"s+	c #80BBF9",
"t+	c #70B3F8",
"u+	c #68AEF8",
"v+	c #61AAF8",
"w+	c #59A6F7",
"x+	c #52A3F7",
"y+	c #5392E3",
"z+	c #848FC1",
"A+	c #9696A8",
"B+	c #8299AB",
"C+	c #7D95A8",
"D+	c #72929A",
"E+	c #67918D",
"F+	c #66908C",
"G+	c #609583",
"H+	c #5FA27E",
"I+	c #59A775",
"J+	c #58B470",
"K+	c #59B772",
"L+	c #5EC278",
"M+	c #17301E",
"N+	c #8CBDF0",
"O+	c #8DC2FA",
"P+	c #85BEF9",
"Q+	c #7DB9F9",
"R+	c #75B5F8",
"S+	c #6DB1F8",
"T+	c #5EA9F7",
"U+	c #539FF3",
"V+	c #6890D4",
"W+	c #969BC6",
"X+	c #A2A6CC",
"Y+	c #9CA1C9",
"Z+	c #969BC5",
"`+	c #9196C2",
" @	c #8B90BF",
".@	c #868BBC",
"+@	c #8187BA",
"@@	c #7A89AE",
"#@	c #738BA3",
"$@	c #1C2228",
"%@	c #77A7D9",
"&@	c #92C5FA",
"*@	c #8AC0F9",
"=@	c #82BCF9",
"-@	c #7AB8F9",
";@	c #72B4F8",
">@	c #63ACF8",
",@	c #63A2EB",
"'@	c #8296CA",
")@	c #A7ABCF",
"!@	c #AAAED0",
"~@	c #A4A9CD",
"{@	c #9EA3CA",
"]@	c #999EC7",
"^@	c #9398C4",
"/@	c #8D93C1",
"(@	c #888EBE",
"_@	c #8389BB",
":@	c #7E84B6",
"<@	c #161720",
"[@	c #4C759F",
"}@	c #8CBCEE",
"|@	c #8FC3FA",
"1@	c #87BFF9",
"2@	c #7FBBF9",
"3@	c #77B6F9",
"4@	c #70B2F8",
"5@	c #739DDC",
"6@	c #9CA1C8",
"7@	c #B6B9D7",
"8@	c #B3B7D5",
"9@	c #ADB1D2",
"0@	c #A1A6CB",
"a@	c #9BA0C8",
"b@	c #959AC5",
"c@	c #9095C2",
"d@	c #8A90BF",
"e@	c #858BBC",
"f@	c #6C729D",
"g@	c #294460",
"h@	c #6C9BCB",
"i@	c #8FC0F2",
"j@	c #8CC2FA",
"k@	c #84BDF9",
"l@	c #7DB6F5",
"m@	c #829AD0",
"n@	c #B2B5D4",
"o@	c #C2C5DD",
"p@	c #BCBFDA",
"q@	c #B0B3D3",
"r@	c #A4A8CD",
"s@	c #9EA2CA",
"t@	c #989DC6",
"u@	c #9297C3",
"v@	c #8D92C0",
"w@	c #878DBD",
"x@	c #8288BA",
"y@	c #797FAF",
"z@	c #585D80",
"A@	c #050608",
"B@	c #05080C",
"C@	c #5686B7",
"D@	c #7BA5D1",
"E@	c #90C0F1",
"F@	c #87B2E9",
"G@	c #969FC9",
"H@	c #CCCEE3",
"I@	c #CBCDE2",
"J@	c #C5C7DF",
"K@	c #BFC1DB",
"L@	c #B8BCD8",
"M@	c #B2B6D5",
"N@	c #ACB0D1",
"O@	c #A6AACE",
"P@	c #A0A5CB",
"Q@	c #9A9FC8",
"R@	c #8F94C1",
"S@	c #898FBE",
"T@	c #848ABC",
"U@	c #5A5F83",
"V@	c #3C3F58",
"W@	c #203348",
"X@	c #6B99C9",
"Y@	c #8BAFD4",
"Z@	c #8690B2",
"`@	c #D5D7E6",
" #	c #D4D6E7",
".#	c #CED0E4",
"+#	c #C7CAE0",
"@#	c #C1C4DD",
"##	c #BBBEDA",
"$#	c #B5B8D6",
"%#	c #AFB3D3",
"&#	c #A9ADD0",
"*#	c #A3A7CC",
"=#	c #9DA2C9",
"-#	c #979CC6",
";#	c #9197C3",
">#	c #8C91C0",
",#	c #878CBD",
"'#	c #101118",
")#	c #3D5B7B",
"!#	c #7BA4CF",
"~#	c #737FA0",
"{#	c #8F93AB",
"]#	c #A2A6BC",
"^#	c #BCBFD5",
"/#	c #CACDE2",
"(#	c #C4C7DE",
"_#	c #BEC1DB",
":#	c #B8BBD8",
"<#	c #ABAFD1",
"[#	c #A5AACE",
"}#	c #A0A4CB",
"|#	c #9A9FC7",
"1#	c #9499C4",
"2#	c #8E94C1",
"3#	c #898EBE",
"4#	c #8187B8",
"5#	c #6F75A1",
"6#	c #5E6388",
"7#	c #2C2E40",
"8#	c #324559",
"9#	c #707E9F",
"0#	c #8E91A9",
"a#	c #868AA3",
"b#	c #80839E",
"c#	c #7B7F9E",
"d#	c #8B8FAD",
"e#	c #999DBA",
"f#	c #A6AAC7",
"g#	c #A1A5C3",
"h#	c #A0A4C5",
"i#	c #A4A8CB",
"j#	c #9196BA",
"k#	c #8D91B8",
"l#	c #8489B1",
"m#	c #767BA2",
"n#	c #64698D",
"o#	c #5A5F81",
"p#	c #595E81",
"q#	c #595E80",
"r#	c #313448",
"s#	c #1D1E25",
"t#	c #75788A",
"u#	c #898DA5",
"v#	c #8286A0",
"w#	c #7C809B",
"x#	c #767B97",
"y#	c #727693",
"z#	c #6D7290",
"A#	c #6A6E8D",
"B#	c #666B8B",
"C#	c #646889",
"D#	c #616687",
"E#	c #5F6485",
"F#	c #5E6284",
"G#	c #5C6183",
"H#	c #5B6082",
"I#	c #5A5F82",
"J#	c #5A5E81",
"K#	c #535878",
"L#	c #1B1D28",
"M#	c #34353E",
"N#	c #696C81",
"O#	c #7F829D",
"P#	c #797D99",
"Q#	c #747895",
"R#	c #6F7391",
"S#	c #6B708E",
"T#	c #686C8C",
"U#	c #656989",
"V#	c #626788",
"W#	c #606586",
"X#	c #5E6385",
"Y#	c #5D6284",
"Z#	c #5C6083",
"`#	c #55597A",
" $	c #2D2F40",
".$	c #060608",
"+$	c #0D0D11",
"@$	c #313340",
"#$	c #4F5266",
"$$	c #54586E",
"%$	c #6D7190",
"&$	c #696E8D",
"*$	c #666B8A",
"=$	c #636888",
"-$	c #555976",
";$	c #474B64",
">$	c #2E3142",
",$	c #1C1E29",
"                                                      . . +                               ",
"                                              . . @ # $ % & *                             ",
"                                      . . = - ; > , ' % ) ! ~ *                           ",
"                              . . { ] ^ / ( ( _ , ' : < ~ ! [ } *                         ",
"                      . . | 1 2 3 4 5 6 6 ( 7 8 9 0 a b b c d e f *                       ",
"                . + g h i j j k 4 5 : l m n o b p p p p p q r e s t *                     ",
"        . . u h i j j j j j 7 v r w x q p p y y p p q x z A B C ) D < *                   ",
"  . u E F j j j j j j G H I x J y p p p p p b K L H M , d e s N O [ P 3 *                 ",
"  h j j j j j G H F J Q R p p p J y b a 0 S v T U U [ 4 G r C N V W d X Y *               ",
"  . Z j j `  .y R b o R p p ..y +.@.$ #.' % ) j U $.$.Y : %.D D [ < &.s *.8 *             ",
"    . Z j j < J p p q K +.=.A / ( _ -.< ;.H H >.,.d G G %.'.).!.< 7 4 W %.~.{.].          ",
"      . Z j j < o ^.x Q /.T 6 ( G (._.$ :.) ! [ d <.A [.O V [ P X }.5 _.&.|.1.v ].        ",
"        . Z j j < J p p a @.(.(.N 4 % % :.3 >.i C B ) %.;.;., v & ~ 2.) ( 3.|.1.v ].      ",
"          . 4.j k 3 K ^.Q q 5.k ' > < H H 6.A e e s 6 N ).7.W 4 }.*.~.D '.-.Y 1.1.v ].    ",
"            . 1 4 4 >.J p 8.9.] 0.a.b.c.d.e.f.C C C {.j P P M U <.~ } Y T 1.1.1.1.1.v ].  ",
"              . ] 5 $.g.h.i.j.k.l.l.l.l.m.n.o.p.q.r.|.|.,.< ~ ~ : s.s.1.1.1.1.1.1.1.1.v . ",
"                . t.u.v.w.w.w.w.w.w.w.x.y.z.z.z.A.B.C.D.` s *.~.~.s.1.1.1.1.1.1.v Z E.].. ",
"              . F.G.H.I.w.w.w.w.w.w.w.J.K.z.z.z.z.z.L.M.a.Y *.~.s.1.1.1.v Z E.]..         ",
"            . N.O.P.Q.R.S.w.w.w.w.w.w.T.z.z.z.z.z.z.z.z.A.U.V.s.v Z E.]..                 ",
"          . W.X.Y.Z.`. +.+w.w.w.w.w.w.++z.z.z.z.z.z.z.z.z.L.@++ . .                       ",
"          #+$+%+&+*+=+-+;+I.w.w.w.w.x.y.z.z.z.z.z.z.z.z.>+y.,+'+                          ",
"        . )+!+~+{+]+O.P.^+/+S.w.w.w.J.K.z.z.z.z.(+_+:+<+[+}+|+1+.                         ",
"        . 2+3+4+5+6+7+8+9+ +.+w.w.w.T.z.z.L.0+a+b+c+|+|+|+|+|+d+.                         ",
"        . e+f+g+$+h+&+*+=+i+j+I.w.k+l+m+n+o+|+|+|+|+|+|+|+|+|+|+p+                        ",
"        . q+r+s+!+t+u+v+w+x+^+/+y+z+A+B+C+D+E+F+G+H+H+I+J+J+K+L+M+                        ",
"        . N+O+P+Q+R+S+6+T+8+U+V+W+X+Y+Z+`+ @.@+@+@+@+@+@+@+@@@#@$@                        ",
"        . %@&@*@=@-@;@h+>@,@'@)@!@~@{@]@^@/@(@_@+@+@+@+@+@+@+@:@<@                        ",
"        . [@}@|@1@2@3@4@5@6@7@8@9@)@0@a@b@c@d@e@+@+@+@+@+@+@+@f@<@                        ",
"          g@h@i@j@k@l@m@n@o@p@7@q@!@r@s@t@u@v@w@x@+@+@+@+@+@y@z@A@                        ",
"          B@C@D@E@F@G@H@I@J@K@L@M@N@O@P@Q@b@R@S@T@+@+@+@+@y@U@V@.                         ",
"            W@X@Y@Z@`@ #.#+#@###$#%#&#*#=#-#;#>#,#x@+@+@f@z@z@'#                          ",
"            . )#!#~#{#]#^#/#(#_#:#n@<#[#}#|#1#2#3#4#5#6#z@z@7#.                           ",
"              . 8#9#0#a#b#c#d#e#f#g#h#i#j#k#l#m#n#o#p#p#q#r#.                             ",
"                . s#t#u#v#w#x#y#z#A#B#C#D#E#F#G#H#I#J#K#L#.                               ",
"                    . M#N#O#P#Q#R#S#T#U#V#W#X#Y#Z#`# $.$                                  ",
"                        . +$@$#$$$%$&$*$=$-$;$>$,$.                                       ",
"                              . . . . . . . .                                             "};
