/* XPM */
static char * page_network_xpm[] = {
"48 48 142 2",
"  	c None",
". 	c #000000",
"+ 	c #EFEFEF",
"@ 	c #DFDFDF",
"# 	c #E3E4E3",
"$ 	c #E5E5E5",
"% 	c #E3E3E3",
"& 	c #D8D8D8",
"* 	c #D0D0D0",
"= 	c #C8C8C8",
"- 	c #C3C3C3",
"; 	c #BDBDBD",
"> 	c #B3B3B3",
", 	c #A9A9A9",
"' 	c #A2A2A2",
") 	c #A0A0A0",
"! 	c #5F5F5F",
"~ 	c #ECEDEC",
"{ 	c #D7D7D7",
"] 	c #DEDEDE",
"^ 	c #E1E1E1",
"/ 	c #E4E3E3",
"( 	c #636363",
"_ 	c #FFFFFF",
": 	c #FDFDFD",
"< 	c #FBFBFB",
"[ 	c #F9F9F9",
"} 	c #F7F7F7",
"| 	c #F5F5F5",
"1 	c #F3F3F3",
"2 	c #F0F0F0",
"3 	c #EDEDEE",
"4 	c #EBEBEB",
"5 	c #E8E8E8",
"6 	c #6A6A6A",
"7 	c #E7E7E7",
"8 	c #D5D5D5",
"9 	c #CFCECF",
"0 	c #CBCBCB",
"a 	c #C7C7C7",
"b 	c #C4C4C4",
"c 	c #478388",
"d 	c #4B8E94",
"e 	c #519296",
"f 	c #40767B",
"g 	c #396A6E",
"h 	c #315E62",
"i 	c #2A5053",
"j 	c #1D484C",
"k 	c #104145",
"l 	c #02393D",
"m 	c #48878B",
"n 	c #E3EFF0",
"o 	c #C7E0E2",
"p 	c #ACD1D4",
"q 	c #90C1C6",
"r 	c #74B2B8",
"s 	c #59A3AA",
"t 	c #3D939C",
"u 	c #21848E",
"v 	c #055E67",
"w 	c #D7E9EB",
"x 	c #C1DCDF",
"y 	c #A7CED2",
"z 	c #8CBFC4",
"A 	c #71B1B7",
"B 	c #56A1A9",
"C 	c #3B929B",
"D 	c #20838D",
"E 	c #035D66",
"F 	c #417B80",
"G 	c #B0D3D7",
"H 	c #9BC7CC",
"I 	c #83BABF",
"J 	c #6AACB3",
"K 	c #509EA5",
"L 	c #358F98",
"M 	c #1A808A",
"N 	c #005C64",
"O 	c #3C7075",
"P 	c #89BEC3",
"Q 	c #5DA5AC",
"R 	c #4598A0",
"S 	c #2C8A93",
"T 	c #127C86",
"U 	c #366469",
"V 	c #62A8AF",
"W 	c #4D9DA4",
"X 	c #379099",
"Y 	c #077680",
"Z 	c #006B75",
"` 	c #305A5D",
" .	c #268790",
"..	c #117B85",
"+.	c #005F67",
"@.	c #274E52",
"#.	c #458188",
"$.	c #488389",
"%.	c #407F85",
"&.	c #377A81",
"*.	c #2C747B",
"=.	c #1F6D74",
"-.	c #10646D",
";.	c #004C53",
">.	c #D3D3D3",
",.	c #ECEBEB",
"'.	c #CCCDCD",
").	c #686868",
"!.	c #414141",
"~.	c #454545",
"{.	c #4C4C4C",
"].	c #565656",
"^.	c #626363",
"/.	c #6C6C6C",
"(.	c #646464",
"_.	c #5E5E5E",
":.	c #757575",
"<.	c #989797",
"[.	c #4A4A4A",
"}.	c #7D7D7D",
"|.	c #8B8B8B",
"1.	c #9B9B9B",
"2.	c #B3B3B4",
"3.	c #B4B4B5",
"4.	c #AAAAAA",
"5.	c #5C5D5D",
"6.	c #D1D1D1",
"7.	c #8B8C8B",
"8.	c #5D5D5C",
"9.	c #B7A258",
"0.	c #88751F",
"a.	c #B7B7B7",
"b.	c #D7C894",
"c.	c #6B5E18",
"d.	c #AEAEAE",
"e.	c #282828",
"f.	c #B29E51",
"g.	c #9D9D9D",
"h.	c #635E28",
"i.	c #43421C",
"j.	c #919191",
"k.	c #878787",
"                                                                                                ",
"                                                                                                ",
"                                    . . . . . . . . . . . . . . . . . .               . .       ",
"                                  . + @ # $ % @ & * = - ; > , ' ) & ! .               . .       ",
"                                . ~ { ] ^ / ^ ] { * = - ; > , ' & ( ! .               . .       ",
"                              . _ : : < [ [ } } | 1 2 + 3 4 5 5 6 ( ! .               . .       ",
"                              . : } | 1 + ~ 5 7 # ] & 8 9 0 a b 6 ( ! .               . .       ",
"                              . < | c d e d c f g h i j k l 5 - 6 ( ! .               . .       ",
"                              . < 2 m n _ n o p q r s t u v 5 - 6 ( ! .               . .       ",
"                              . [ 3 c w n w x y z A B C D E 7 - 6 ( ! .               . .       ",
"                              . } 4 F x o x G H I J K L M N 7 - 6 ( ! .               . .       ",
"                              . } 7 O y p y H P r Q R S T N 7 - 6 ( ! .               . .       ",
"                              . | # U z q z I r V W X D Y Z 7 - 6 ( ! .               . .       ",
"                              . 1 ] ` A r A J Q W C  ...Z +.7 - 6 ( ! .               . .       ",
"                              . 2 & @.#.$.#.%.&.*.=.-.Z +.;.7 - 6 ( ! .               . .       ",
"                              . 3 >.3 ,.4 4 5 5 5 7 7 7 7 7 - - 6 ( . .               . .       ",
"                              . ~ 9 '.0 = a b b - - - - - - - - 6 . . . . .           . .       ",
"                              . $ ).!.~.{.].^./.(.].{.~.!.!.!.!._.:.; <.[..           . .       ",
"                            . 3 8 8 :.}.|.1.2.- 3.1.|.}.:.:.:.:.8 8 4.5.[..           . .       ",
"                          . @ @ @ @ = 0 6.{ ^ 7 ^ { 6.0 = = = @ @ 7.8.5.[..         9.0.0.0.    ",
"                          . % a.a.a.a.a.a.a.a.a.a.a.a.a.a.a.a.a.a.6 8.5.[.. . . . . 0._ b.c.    ",
"                          . @ d.d.d.d.d.d.d.d.d.d.d.e.e.e.e.e.d.d.6 8.8.[.. . . . . 0.b.f.c.    ",
"                  . . . . . . . . . . . . . . . . . . & & & & g.g.6 8.5.[..         0.c.h.i.    ",
"                . + @ # $ % @ & * = - ; > , ' ) & ! . j.j.j.j.j.j.6 8.5..             . .       ",
"              . ~ { ] ^ / ^ ] { * = - ; > , ' & ( ! . k.k.k.k.k.k.6 8..               . .       ",
"            . _ : : < [ [ } } | 1 2 + 3 4 5 5 6 ( ! . . . . . . . . .                 . .       ",
"            . : } | 1 + ~ 5 7 # ] & 8 9 0 a b 6 ( ! . .                               . .       ",
"            . < | c d e d c f g h i j k l 5 - 6 ( ! .                                 . .       ",
"            . < 2 m n _ n o p q r s t u v 5 - 6 ( ! .                                 . .       ",
"            . [ 3 c w n w x y z A B C D E 7 - 6 ( ! .                                 . .       ",
"            . } 4 F x o x G H I J K L M N 7 - 6 ( ! .                                 . .       ",
"            . } 7 O y p y H P r Q R S T N 7 - 6 ( ! .                                 . .       ",
"            . | # U z q z I r V W X D Y Z 7 - 6 ( ! .                                 . .       ",
"            . 1 ] ` A r A J Q W C  ...Z +.7 - 6 ( ! .                                 . .       ",
"            . 2 & @.#.$.#.%.&.*.=.-.Z +.;.7 - 6 ( ! .                                 . .       ",
"            . 3 >.3 ,.4 4 5 5 5 7 7 7 7 7 - - 6 ( . .                                 . .       ",
"            . ~ 9 '.0 = a b b - - - - - - - - 6 . . . . .                           ( . (       ",
"            . $ ).!.~.{.].^./.(.].{.~.!.!.!.!._.:.; <.[..                           . .         ",
"          . 3 8 8 :.}.|.1.2.- 3.1.|.}.:.:.:.:.8 8 4.5.[..                       ( . .           ",
"        . @ @ @ @ = 0 6.{ ^ 7 ^ { 6.0 = = = @ @ 7.8.5.[.. . . . . . . . . . . . . .             ",
"        . % a.a.a.a.a.a.a.a.a.a.a.a.a.a.a.a.a.a.6 8.5.[.. . . . . . . . . . . . (               ",
"        . @ d.d.d.d.d.d.d.d.d.d.d.e.e.e.e.e.d.d.6 8.8.[.. .                                     ",
"        . & g.g.g.g.g.g.g.g.g.g.g.& & & & & g.g.6 8.5.[..                                       ",
"        . >.j.j.j.j.j.j.j.j.j.j.j.j.j.j.j.j.j.j.6 8.5..                                         ",
"        . 9 k.k.k.k.k.k.k.k.k.k.k.k.k.k.k.k.k.k.6 8..                                           ",
"          . . . . . . . . . . . . . . . . . . . . .                                             ",
"                                                                                                ",
"                                                                                                "};
