/* XPM */
static char * page_setup_xpm[] = {
"16 16 63 1",
" 	c None",
".	c #5C5C5C",
"+	c #5E5E5E",
"@	c #505050",
"#	c #444444",
"$	c #626262",
"%	c #4D4D4D",
"&	c #D0D0D0",
"*	c #D5D5D5",
"=	c #DADADA",
"-	c #555555",
";	c #EDEDED",
">	c #404040",
",	c #999999",
"'	c #292929",
")	c #DCDCDC",
"!	c #EFEFEF",
"~	c #646464",
"{	c #262626",
"]	c #9A9A9A",
"^	c #2A2A2A",
"/	c #1B1B1B",
"(	c #000000",
"_	c #373737",
":	c #E3E3E3",
"<	c #F8F8F8",
"[	c #FBE73B",
"}	c #F2B64D",
"|	c #E6E6E6",
"1	c #FCFCFC",
"2	c #FCEB3D",
"3	c #F7B544",
"4	c #675A36",
"5	c #E8E8E8",
"6	c #FFFFFF",
"7	c #525252",
"8	c #9F9F9F",
"9	c #FCE93B",
"0	c #F7B545",
"a	c #6C5F34",
"b	c #F9DF39",
"c	c #F4B244",
"d	c #6D6344",
"e	c #8B8B8B",
"f	c #2C2C2C",
"g	c #6F6F6F",
"h	c #9D9D9D",
"i	c #F6D236",
"j	c #EFB44D",
"k	c #5C4F2B",
"l	c #A3A3A3",
"m	c #C4C4C4",
"n	c #D7AE74",
"o	c #655930",
"p	c #4F4115",
"q	c #8F8F8F",
"r	c #C6C6C6",
"s	c #D8D8D8",
"t	c #EBEBEB",
"u	c #F4F4F4",
"v	c #F2F2F2",
"w	c #737373",
"x	c #535353",
".+@@@@@@@@@@@@#$",
"%&*============-",
"@=;>;>,';,>;,;;@",
"@)!~~{]^/~/]~((_",
"@:<<<<<<<<<<([}(",
"%|111111111(234(",
"@56(6(((78(90a(>",
"@51111111(bcd(e@",
"@:1(1fgh(ijk(lm@",
"@|111111(no(lm1@",
"%:111(1(p((q:11@",
"@:11111((l11111@",
"@|111(1rstuvv11@",
"@51111111111111@",
"w51111111111111x",
"$x@@@@@@@@@@@@-+"};
