/* XPM */
static char * dia2_xpm[] = {
"48 52 373 2",
"  	c None",
". 	c #000000",
"+ 	c #232323",
"@ 	c #1F1F1F",
"# 	c #DADADA",
"$ 	c #FFFFFF",
"% 	c #F6F6F6",
"& 	c #CFCFCF",
"* 	c #707070",
"= 	c #FEFEFE",
"- 	c #FBFBFB",
"; 	c #EDEDED",
"> 	c #C0C0C0",
", 	c #F7F7F7",
"' 	c #D7D7D7",
") 	c #F1F1F1",
"! 	c #B7B7B7",
"~ 	c #FDFDFD",
"{ 	c #FCFCFC",
"] 	c #D2D2D2",
"^ 	c #AEAEAE",
"/ 	c #070707",
"( 	c #F8F8F8",
"_ 	c #F4F4F4",
": 	c #F5F5F5",
"< 	c #FAFAFA",
"[ 	c #B8B8B8",
"} 	c #DCDCDC",
"| 	c #A4A4A3",
"1 	c #0E0E0E",
"2 	c #6C6C6C",
"3 	c #F9F9F9",
"4 	c #F5F5F4",
"5 	c #B5B5B5",
"6 	c #CBCBCB",
"7 	c #A5A5A5",
"8 	c #F3F3F3",
"9 	c #EAEEF1",
"0 	c #D0D8E1",
"a 	c #B6BFC7",
"b 	c #E1E1E1",
"c 	c #F6F6F5",
"d 	c #ACACAC",
"e 	c #ECECEC",
"f 	c #C3C3C3",
"g 	c #C2C2C2",
"h 	c #C9C9C8",
"i 	c #A8A8A8",
"j 	c #D8D8D8",
"k 	c #EAEAEA",
"l 	c #C3CDD8",
"m 	c #B1BFCD",
"n 	c #A1ABB6",
"o 	c #E7E7E7",
"p 	c #FCFCFB",
"q 	c #F4F4F3",
"r 	c #ABABAB",
"s 	c #515151",
"t 	c #474747",
"u 	c #464645",
"v 	c #464646",
"w 	c #5D5D5C",
"x 	c #A9A9A9",
"y 	c #E4E4E4",
"z 	c #F2F2F1",
"A 	c #F2F2F2",
"B 	c #AAAAAA",
"C 	c #A0A09F",
"D 	c #8A8A8A",
"E 	c #7A7A7A",
"F 	c #454545",
"G 	c #E2E2E2",
"H 	c #F9F9F8",
"I 	c #FAFAF9",
"J 	c #C6C6C5",
"K 	c #BABAB9",
"L 	c #E9E9E9",
"M 	c #B6B6B6",
"N 	c #E1E1E0",
"O 	c #EFEFEF",
"P 	c #F8F8F7",
"Q 	c #F7F7F6",
"R 	c #EDEDEB",
"S 	c #E8E8E8",
"T 	c #BEBEBE",
"U 	c #D3D3D3",
"V 	c #BCC5CF",
"W 	c #A1ABB5",
"X 	c #B1B1B1",
"Y 	c #EEEEEE",
"Z 	c #EEEEED",
"` 	c #CACACA",
" .	c #DDDDDD",
"..	c #D4D4D4",
"+.	c #E3E3E2",
"@.	c #F3F3F2",
"#.	c #EAEAE9",
"$.	c #E3E3E3",
"%.	c #DBDBDB",
"&.	c #D5D5D5",
"*.	c #D1D1D1",
"=.	c #CFCFCE",
"-.	c #CECECE",
";.	c #CECECD",
">.	c #E6E6E6",
",.	c #FDFDFC",
"'.	c #E5E5E4",
").	c #E0E0E0",
"!.	c #DFDFDE",
"~.	c #DEDEDE",
"{.	c #DFDFDF",
"].	c #E6E6E5",
"^.	c #EDEDEC",
"/.	c #F1F1F0",
"(.	c #F0F0F0",
"_.	c #F0F0EF",
":.	c #EFEFEE",
"<.	c #ECECEB",
"[.	c #EBEBEB",
"}.	c #F2F2F0",
"|.	c #EFEFED",
"1.	c #F3F3F1",
"2.	c #F1F1EF",
"3.	c #EEEEEC",
"4.	c #FBFBFA",
"5.	c #EBEBEA",
"6.	c #DEDEDD",
"7.	c #959595",
"8.	c #949494",
"9.	c #E8E8E7",
"0.	c #F0F0EE",
"a.	c #EDD8D3",
"b.	c #B88C84",
"c.	c #8C7772",
"d.	c #E7E7E6",
"e.	c #BDBDBC",
"f.	c #ECECEA",
"g.	c #E9E9E8",
"h.	c #868686",
"i.	c #D8C2BD",
"j.	c #F3DBD7",
"k.	c #E6A090",
"l.	c #E39585",
"m.	c #BD897C",
"n.	c #B3837A",
"o.	c #828282",
"p.	c #C1C1C1",
"q.	c #C2C2C1",
"r.	c #E2E2E1",
"s.	c #E4E4E3",
"t.	c #A2A2A2",
"u.	c #827C7A",
"v.	c #EED8D3",
"w.	c #EFCCC5",
"x.	c #C78B7E",
"y.	c #BB877C",
"z.	c #927973",
"A.	c #9A9A9A",
"B.	c #DADAD9",
"C.	c #C1C1C0",
"D.	c #D7D7D6",
"E.	c #E0E0DF",
"F.	c #E5E5E3",
"G.	c #E6E6E4",
"H.	c #797979",
"I.	c #AF827A",
"J.	c #EFD9D5",
"K.	c #E7A598",
"L.	c #D08F81",
"M.	c #B2837A",
"N.	c #A48077",
"O.	c #EAEAE8",
"P.	c #787878",
"Q.	c #877571",
"R.	c #EAC4BA",
"S.	c #EBB5A8",
"T.	c #C88B80",
"U.	c #BF897D",
"V.	c #757575",
"W.	c #969696",
"X.	c #C7C7C6",
"Y.	c #CDCDCC",
"Z.	c #D4D4D3",
"`.	c #D8D8D6",
" +	c #E9E9E7",
".+	c #999999",
"++	c #897571",
"@+	c #E3B7AE",
"#+	c #E9B9AF",
"$+	c #C28B7D",
"%+	c #B7857C",
"&+	c #8E8E8E",
"*+	c #C6C6C6",
"=+	c #B2B2B1",
"-+	c #CACAC8",
";+	c #D1D1CF",
">+	c #D9D9D7",
",+	c #D5D5D4",
"'+	c #DBDBDA",
")+	c #E2E2E0",
"!+	c #E7E7E5",
"~+	c #8F8280",
"{+	c #C8A7A0",
"]+	c #EAC1B9",
"^+	c #BA867C",
"/+	c #847471",
"(+	c #7C7C7C",
"_+	c #C3C3C2",
":+	c #CACAC9",
"<+	c #D1D1D0",
"[+	c #C9C9C7",
"}+	c #ADADAC",
"|+	c #DFDFDD",
"1+	c #DCDCDB",
"2+	c #DBDBD9",
"3+	c #E8E8E6",
"4+	c #9F9F9F",
"5+	c #CBA49B",
"6+	c #B18279",
"7+	c #969695",
"8+	c #C5C5C5",
"9+	c #DDDDDC",
"0+	c #DCDCDA",
"a+	c #DDDDDB",
"b+	c #6B6B6B",
"c+	c #D9D9D8",
"d+	c #B4B4B4",
"e+	c #D6D6D5",
"f+	c #898989",
"g+	c #888887",
"h+	c #B5B5B4",
"i+	c #C4C4C3",
"j+	c #CCCCCB",
"k+	c #D3D3D2",
"l+	c #E3E3E1",
"m+	c #E4E4E2",
"n+	c #E1E1DF",
"o+	c #D4D4D2",
"p+	c #B3B3B3",
"q+	c #DADAD8",
"r+	c #CECECC",
"s+	c #D0D0CF",
"t+	c #6A6A6A",
"u+	c #E0E0DE",
"v+	c #B2B2B2",
"w+	c #D8D8D7",
"x+	c #696969",
"y+	c #AFAFAF",
"z+	c #EBEBE9",
"A+	c #DEDEDC",
"B+	c #D3D3D1",
"C+	c #666666",
"D+	c #C9C9C9",
"E+	c #D2D2D0",
"F+	c #ADADAD",
"G+	c #D5D5D3",
"H+	c #D7D7D5",
"I+	c #656565",
"J+	c #D0D0CE",
"K+	c #D6D6D4",
"L+	c #767676",
"M+	c #8D8D8D",
"N+	c #B3B3B1",
"O+	c #CFCFCD",
"P+	c #CDCDCB",
"Q+	c #646464",
"R+	c #C5C5C4",
"S+	c #C7C7C5",
"T+	c #8A8A89",
"U+	c #AFADA6",
"V+	c #ECE9E0",
"W+	c #E8E4D9",
"X+	c #E5E0D2",
"Y+	c #DFD9C6",
"Z+	c #BEBCCB",
"`+	c #736F79",
" @	c #777777",
".@	c #ECE9DE",
"+@	c #F1EEE2",
"@@	c #E6DDBB",
"#@	c #DFD3AC",
"$@	c #DBD0A9",
"%@	c #D9CEA8",
"&@	c #625B81",
"*@	c #272534",
"=@	c #949493",
"-@	c #E7E3D4",
";@	c #F2EFE1",
">@	c #E7DBB3",
",@	c #E1D6AF",
"'@	c #DCD1AA",
")@	c #D7CCA7",
"!@	c #D6CBA6",
"~@	c #F6F6F8",
"{@	c #DBD9E2",
"]@	c #928DA7",
"^@	c #D6D5DE",
"/@	c #D6D4DE",
"(@	c #F4F2E8",
"_@	c #EADEB5",
":@	c #E4D9B1",
"<@	c #E0D4AD",
"[@	c #D5CAA5",
"}@	c #D3C9A4",
"|@	c #736D8F",
"1@	c #D8D6DF",
"2@	c #9792AB",
"3@	c #807A99",
"4@	c #7F7998",
"5@	c #F2EEE2",
"6@	c #EBE0BC",
"7@	c #E6DBB2",
"8@	c #D4CAA4",
"9@	c #7B7595",
"0@	c #E5E3EA",
"a@	c #C6C4D2",
"b@	c #DEDCE4",
"c@	c #C6C3D1",
"d@	c #919190",
"e@	c #C8BFA2",
"f@	c #EBE1C4",
"g@	c #E7DCB9",
"h@	c #E0D5AE",
"i@	c #655E83",
"j@	c #FAF9FB",
"k@	c #736D8E",
"l@	c #FBFBFC",
"m@	c #F6F5F8",
"n@	c #726B8D",
"o@	c #F8F7F9",
"p@	c #D3CAA8",
"q@	c #C8C0A7",
"r@	c #D6CDA9",
"s@	c #DDD2AB",
"t@	c #7A7494",
"u@	c #E2E1E8",
"v@	c #B7B4C5",
"w@	c #B6B3C5",
"x@	c #C5C5C3",
"y@	c #828281",
"z@	c #7D7C76",
"A@	c #BBB498",
"B@	c #BBB398",
"C@	c #BDB599",
"D@	c #BDB598",
"E@	c #938FA9",
"F@	c #6A6387",
"G@	c #F5F5F7",
"H@	c #7B7695",
"I@	c #7E7897",
"J@	c #CBCBCA",
"K@	c #AAAAA9",
"L@	c #888888",
"M@	c #737372",
"N@	c #696968",
"O@	c #F7F7F9",
"P@	c #DAD8E1",
"Q@	c #8E89A4",
"R@	c #857F9D",
"S@	c #C4C1D0",
"T@	c #B2AEC1",
"U@	c #B3B0C2",
"V@	c #BEBEBC",
"W@	c #BABAB8",
"X@	c #B8B8B6",
"Y@	c #CBCBC9",
"Z@	c #A0A0A0",
"`@	c #9D9D9C",
" #	c #9E9E9D",
".#	c #A0A09E",
"+#	c #A1A1A0",
"@#	c #A3A3A1",
"##	c #8C8C8C",
"  . . . . . . . . . . . . . . . . . . . . . . . . . . . . . . . . . . + @                       ",
". # $ $ $ $ $ $ $ $ $ $ $ $ $ $ $ $ $ $ $ $ $ $ $ $ $ $ $ $ $ $ $ $ $ % & * .                   ",
". $ $ $ $ $ $ $ $ $ $ $ $ $ $ $ $ $ $ $ $ $ $ = = = = = = = = = = = = - % ; > .                 ",
". $ $ $ $ $ $ $ $ $ $ $ $ $ $ $ $ $ $ $ $ = = = = = = = = = = = = = = , ' $ ) ! .               ",
". $ $ $ $ $ $ $ $ $ $ $ $ $ = ~ ~ ~ ~ { - - - - - - { { { { ~ = = = = , ] $ $ ; ^ /             ",
". $ $ $ $ $ $ $ $ $ $ $ = ~ - ( % _ _ _ _ _ _ _ _ _ _ _ : , < ~ = ~ ~ % [ $ ~ $ } | 1           ",
". $ $ $ $ $ $ $ $ $ $ = ~ < 2 2 2 2 2 2 2 2 2 2 2 2 2 2 2 ; _ 3 { ~ ~ 4 5 $ 3 { $ 6 7 .         ",
". $ $ $ $ $ $ $ $ = ~ ' ( 8 2 9 0 0 0 0 0 0 0 0 0 0 0 a 2 b ; c < { { _ d e f 6 [ g h i .       ",
". $ $ $ $ $ = = ~ { 3 2 j k 2 l m m m m m m m m m m m n 2 ' o 8 < { p q r s t u v v w x .       ",
". $ $ $ $ = { < ( : ) 2 2 6 2 l m m m m m m m m m m m n 2 ] y z ( < < A 8 > B C D E 2 F .       ",
". $ $ $ = { 2 2 2 2 2 2 2 2 2 l m m m m m m m m m m m n 2 & G ) , H I 3 - , , o J h K E .       ",
". $ $ $ ~ 3 2 e L o y 2 2 M 2 l m m m m m m m m m m m n 2 & N O % ( 3 , P Q c : : : R x .       ",
". $ $ = { , 2 L o S o 2 T U 2 V n n n n n n n n n n n W 2 & b O c c Q % , : : 4 4 8 8 X .       ",
". $ = = - % 2 S k Y Z ` G  .2 2 2 2 2 2 2 2 2 2 2 2 2 2 2 ..+.; _ % % 4 4 4 _ q 8 @.@.5 .       ",
". $ ~ ~ - : 2 L e ) _ A Y #.$.%.&.*.& =.=.-.-.-.-.;.;.& ..# >.O q 4 _ _ _ q @.@.@.z z 5 .       ",
". $ ~ ,.< : 2 L ; _ P , : A O #.'.G b b ).).!.!.~.~.{.{.N ].^./.8 _ q q @.@.A A z /./.5 .       ",
". $ { { < _ 2 S e 8 ( 3 H P : 8 ) (._.:.Z ; ; ; ; <.<.[.e Y (.@.q q @.A A z }././.(.(.5 .       ",
". $ p p 3 8 2 S <.@.( 3 < 3 3 P P % : : _ q q @.) ) A z z z @.8 @.z z z z }.(.(._.:.|.5 .       ",
". $ - - 3 @.2 o [.A ( I I I 3 3 ( , Q c _ ) O O _.z z A A 8 1.z z z ) /.2._._.:.Z Z 3.5 .       ",
". $ 4.< ( A 2 o 5.z , 3 3 3 P P , % : A 6.7.8.' 9.[.:./.z /./.(.O _.0._._.Y Y Z 3.^.^.5 .       ",
". $ < < P z 2 >.k ) % P P , , % c @.:.X 2 a.b.c.x N d.5.; Z ^.e.f.<.; ^.Z Z 3.^.^.e <.5 .       ",
". $ I 3 , ) 2 ].g.Y A _ : 4 4 @.(.-.h.i.j.k.l.m.n.o.p.N d.9.q.2 r.s.9.#.f.5.f.f.<.<.<.5 .       ",
". $ 3 H Q /.2 $.y g.^.:.:.; e k t.u.v.w.l.l.l.l.x.y.z.A.B.C.2 2 D.%.E.s.F.G.d.g.#.5.5.5 .       ",
". $ ( ( % ) 2 2 2 2 2 2 2 2 2 H.I.J.K.l.l.l.l.l.l.L.M.N.2 2 2 2 2 2 2 2 2 2 !.+.9.g.O.5 .       ",
". $ P Q 4 z k y b E.r.N N {.[ P.Q.R.S.l.l.l.l.l.l.T.U.Q.V.W.2 2 X.Y.Z.`.D.2 B.~.s.d. +5 .       ",
". $ % % : @.Z g.].y y y s.+.{.B..+++@+#+l.l.l.l.$+%+2 &+q.*+=+2 -+;+D.B.>+2 ,+'+)+!+ +5 .       ",
". $ c c c q ) O <.<.5.5.#.S ].N B.K ~+{+]+l.L.^+/+(+i _+:+<+[+}+U >+|+6.1+2 ,+2+N ].3+5 .       ",
". $ : _ q q z /./.(._.:.:.Z ^.#.+.1+] 4+2 5+6+2 7+e.8+=.D.'+9+0+a+6.N r.6.b+,+c+|+F.!+d+.       ",
". $ q q @.A A z z /././.(._.:.^.#.].{.e+_+f+g+h+i+j+k+B.!.l+m+N n+l++.+.6.b+o+D.6.+.m+p+.       ",
". $ A z z z z /./.(._._._.:.:.Y ^.#.].n+q+] r+Y.s+D.1+n+m++.m+l+l+r.l+)+'+t+<+Z.q+u+N v+.       ",
". $ z z z /._._._._._.:.|.Z Z ^.^.f.g.!+l+9+B.B.'+1+!.N n+n+)+n+u+u+|+6.w+x+Y.s+e+1+6.y+.       ",
". $ ) /._._._._.:.:.|.Z Z ^.^.<.<.z+O.].s.u+1+'+1+1+a+A+6.A+9+9+a+9+a+q+B+C+D+Y.E+>+2+F+.       ",
". $ _._.O :.:.:.|.Z Z <.<.<.<.f.z+g.F.)+1+c+e+k+G+Z.,+H+>+2+q+q+>+>+`.G+=.I+J -+J+K+H+r .       ",
". $ :.:.:.:.|.Z 3.<.<.<.<.<.f.O.3+m+g W.E t+C+x+L+M+N+O+s+o+K+H+K+G+K+k+P+Q+R+S+r+B+G+B .       ",
". $ :.:.Z Z 3.<.<.<.<.5.5.5.O.3+e+T+U+V+W+X+Y+Z+Z+Z+Z+Z+Z+Z+Z+Z+Z+Z+Z+Z+Z+Z+Z+Z+Z+Z+Z+Z+Z+Z+Z+`+",
". $ Z Z R <.<.f.5.5.5.5.z+z+3+>+ @.@+@@@#@$@%@Z+&@&@&@&@&@&@&@&@&@&@&@&@&@&@&@&@&@&@&@&@&@&@&@*@",
". $ R <.f.5.5.5.5.z+z+#.O. +G.=@-@;@>@,@'@)@!@Z+&@$ $ = ~@{@]@&@&@$ $ $ $ &@&@&@^@$ /@&@&@&@&@*@",
". $ f.5.5.5.z+#.#.#.#.O.O.G.)+* (@_@:@<@%@[@}@Z+&@$ $ &@|@1@$ 2@&@&@$ $ &@&@&@3@$ $ $ 4@&@&@&@*@",
". $ z+z+#.#.#.#.#.O.O.3+3+G.u+* 5@6@7@<@%@[@8@Z+&@$ $ &@&@9@$ 0@&@&@$ $ &@&@&@a@$ b@$ c@&@&@&@*@",
". $ #.#.#.O.O.g.g.9.3+3+3+F.|+d@e@f@g@h@%@!@[@Z+&@$ $ &@&@i@$ j@&@&@$ $ &@&@k@l@m@n@o@l@k@&@&@*@",
". $ O.g.g.g.g.9.3+3+d.d.!+F.n+P+V.p@q@r@s@%@%@Z+&@$ $ &@&@t@$ u@&@&@$ $ &@&@v@$ $ $ $ $ w@&@&@*@",
". $ g.g.g.3+d.d.d.d.!+!+!+'.r.2+x@y@z@A@B@C@D@Z+&@$ $ &@k@^@= E@&@&@$ $ &@F@G@$ H@&@I@$ G@F@&@*@",
". $  +d.d.d.d.!+!+!+].].].G.l+|+H+J@K@L@M@N@C+Z+&@$ $ = O@P@Q@&@&@$ $ $ $ R@S@T@&@&@&@U@S@R@&@*@",
". $ d.!+!+!+].].].].G.G.F.s.+.N 0+K+O+J V@W@X@Z+&@&@&@&@&@&@&@&@&@&@&@&@&@&@&@&@&@&@&@&@&@&@&@*@",
". $ !+].].].G.G.G.G.s.s.m+m+m+l+)+A+c+G+=.Y@h `+*@*@*@*@*@*@*@*@*@*@*@*@*@*@*@*@*@*@*@*@*@*@*@*@",
". $ ].G.G.G.G.'.s.m+m+m+m+m+m+m+l+)+u+a+q+`.D.H+Z@`@ #.#+#@#@#@#@#@#@#@#@#@#@#@#@#@#@#M+.       ",
". # G.G.G.F.m+m+m+m+m+m+m+m+m+m++.l+)+n+u+u+u+u+u+|+u+n+n+n+n+n+n+n+n+n+n+n+n+n+n+n+n+A..       ",
". g 5 5 5 5 5 5 5 5 5 5 5 5 5 5 5 5 5 5 5 d+d+d+5 5 5 5 5 5 5 5 5 5 5 5 5 5 5 5 5 5 A.##.       ",
"  . . . . . . . . . . . . . . . . . . . . . . . . . . . . . . . . . . . . . . . . . . . .       ",
"                                                                                                ",
"                                                                                                ",
"                                                                                                "};
