/* XPM */
static char * page_mail_xpm[] = {
"48 48 155 2",
"  	c None",
". 	c #000000",
"+ 	c #F5EF99",
"@ 	c #FAF266",
"# 	c #FDF443",
"$ 	c #FDF444",
"% 	c #FFF537",
"& 	c #989898",
"* 	c #BEC2C4",
"= 	c #AFB4B6",
"- 	c #ADB2B4",
"; 	c #ABB0B2",
"> 	c #A9AEB0",
", 	c #A7ACAE",
"' 	c #A4A9AB",
") 	c #A2A7A9",
"! 	c #A0A5A7",
"~ 	c #9EA3A5",
"{ 	c #9CA1A3",
"] 	c #999EA1",
"^ 	c #979C9F",
"/ 	c #959A9D",
"( 	c #979797",
"_ 	c #929292",
": 	c #A8ADAF",
"< 	c #A5AAAC",
"[ 	c #A3A8AA",
"} 	c #A1A6A8",
"| 	c #9FA4A6",
"1 	c #9DA2A4",
"2 	c #9A9FA2",
"3 	c #989DA0",
"4 	c #969B9E",
"5 	c #94999C",
"6 	c #92979A",
"7 	c #909598",
"8 	c #8D9295",
"9 	c #8B9093",
"0 	c #909091",
"a 	c #8A8B8C",
"b 	c #B6BBBC",
"c 	c #B4B9BA",
"d 	c #B1B6B8",
"e 	c #93989B",
"f 	c #919699",
"g 	c #8E9396",
"h 	c #8C9194",
"i 	c #8A8F92",
"j 	c #888D90",
"k 	c #868B8E",
"l 	c #84898C",
"m 	c #81868A",
"n 	c #7F8488",
"o 	c #18191B",
"p 	c #88898A",
"q 	c #ACB1B3",
"r 	c #AAAFB1",
"s 	c #898E91",
"t 	c #878C8F",
"u 	c #858A8D",
"v 	c #82878B",
"w 	c #808589",
"x 	c #7E8387",
"y 	c #7C8185",
"z 	c #7A7F83",
"A 	c #777C80",
"B 	c #757A7E",
"C 	c #868788",
"D 	c #7D8286",
"E 	c #7B8084",
"F 	c #797E82",
"G 	c #767B7F",
"H 	c #74797D",
"I 	c #72777B",
"J 	c #707579",
"K 	c #6E7377",
"L 	c #6B7075",
"M 	c #7F8182",
"N 	c #73787C",
"O 	c #71767A",
"P 	c #6F7478",
"Q 	c #6D7276",
"R 	c #6A6F74",
"S 	c #686D72",
"T 	c #666B70",
"U 	c #64696E",
"V 	c #62676C",
"W 	c #7D7F80",
"X 	c #696E73",
"Y 	c #676C71",
"Z 	c #656A6F",
"` 	c #63686D",
" .	c #60666B",
"..	c #D0D0D0",
"+.	c #7B7D7E",
"@.	c #C8C8C8",
"#.	c #797B7C",
"$.	c #C2C2C2",
"%.	c #CECECE",
"&.	c #C4C4C4",
"*.	c #77797A",
"=.	c #959595",
"-.	c #757779",
";.	c #939394",
">.	c #737577",
",.	c #919292",
"'.	c #CCCCCC",
").	c #717375",
"!.	c #5F656A",
"~.	c #8F9090",
"{.	c #BDBDBD",
"].	c #B3B3B3",
"^.	c #6F7173",
"/.	c #5E6468",
"(.	c #5D6368",
"_.	c #5B6166",
":.	c #5C6267",
"<.	c #8D8E8E",
"[.	c #B9B9B9",
"}.	c #AEAEAE",
"|.	c #6D7071",
"1.	c #5E6469",
"2.	c #5A6065",
"3.	c #585E63",
"4.	c #595F63",
"5.	c #8B8C8C",
"6.	c #BFBFBF",
"7.	c #B5B5B5",
"8.	c #AAAAAA",
"9.	c #6B6E70",
"0.	c #5B6165",
"a.	c #898A8B",
"b.	c #BBBBBB",
"c.	c #B0B0B0",
"d.	c #A6A6A6",
"e.	c #696C6E",
"f.	c #5C6266",
"g.	c #878889",
"h.	c #ACACAC",
"i.	c #A1A1A1",
"j.	c #676B6C",
"k.	c #5B6065",
"l.	c #595F64",
"m.	c #5A6064",
"n.	c #858687",
"o.	c #191A1C",
"p.	c #A8A8A8",
"q.	c #9D9D9D",
"r.	c #585E62",
"s.	c #595E63",
"t.	c #7E7F80",
"u.	c #A4A4A4",
"v.	c #999999",
"w.	c #76787A",
"x.	c #666A6B",
"                                                                                                ",
"                                                                                                ",
"                                                                                                ",
"                                                                                                ",
"                                                                                                ",
"                                                                                                ",
"                                                                                                ",
"                              . . . . .                                                         ",
"                              . + + + + . . . .                                                 ",
"                              . + @ @ @ @ @ @ @ . . . . . .                                     ",
"                              . + @ # # $ $ $ $ @ @ @ @ .                                       ",
"                              . . @ @ @ @ @ $ % $ @ . .                                         ",
"                                . . . . . . @ $ @ .                                             ",
"                                      . . @ $ @ .                                               ",
"                                    . @ @ $ @ .                                                 ",
"                      . . . . . . . @ $ $ @ . . . . . . . . . . . . . . . . . .                 ",
"                  . . & . * * * * . @ @ @ $ @ @ @ @ . = - ; > , ' ) ! ~ { ] ^ / .               ",
"                . & & ( _ . * * * . . . . @ $ @ . . : < [ } | 1 2 3 4 5 6 7 8 9 .               ",
"                . & & . 0 a . b c d = - . @ @ . ) ! ~ { ] ^ / e f g h i j k l m n .             ",
"              . & & . o . p . q r : < . @ @ . . . . . 6 7 8 9 s t u v w x y z A B .             ",
"              . & . o o . C . ) ! ~ . . @ $ @ @ @ . i j k l m n D E F G H I J K L .             ",
"              . & . o o o . M . 4 5 6 7 . @ $ @ . v w x y z A B N O P Q R S T U V .             ",
"              . & . o o o . W . h i j k l . @ . E F G H I J K L X Y Z `  . . . . ..             ",
"              . & ......... +.. v w x y . @ @ . O P Q R S T U V  . . . . . . . . ..             ",
"              . & ........@.#.. F G H I . @ . . Y Z `  . . . . . . . . . . . . . ..             ",
"              . ( . ..$.%.&.*.. P Q R . @ # @ .  . . . . . . . . . . . . . . . . ..             ",
"              . =.. ..$.$.$.-.. Z `  . .. @ .  . . . . . . . . . . . . . . . . . ..             ",
"              . ;.. ....$.$.>..  . . . .. .  . . . . . . . . . . . . . . . . . . ..             ",
"              . ,.. ..'.$.$.)..  . . . ..  . . . . . . . . . . . . . . . . .!.!.!..             ",
"              . ~.. o @.{.].^..  . . . . . . . . . . . . . . . . . .!.!.!./.(._.:..             ",
"              . <.. o &.[.}.|..  . . . . . . . . . . . . . . . .!.!.1.(.:.2.3.4.. .             ",
"              . 5.. o 6.7.8.9..  . . . . . . . . . . . . . .!.1.(.:.:.:.0.2.. .                 ",
"              . a.. o b.c.d.e..  . . . . . . . . . . . .!.1.(.f.0.:.(.:.. .                     ",
"              . g.. o o h.i.j..  . . . . . . . . . .!.1.:.k.l.m.k.. . .                         ",
"              . n.o.. o p.q.j..  . . . . . . . .!.1.:.k.r.s.k.. .                               ",
"              . . t.o.. u.v.j..  . . . .!.!.(.:.0.l.s.l.. . .                                   ",
"                  . w.o.. =.j..  . . .!.(.m.3.s.4.. . .                                         ",
"                    . ^.o._ j.. !.1.(.2.s.4.0.(..                                               ",
"                      . j._ x.. :.4.s.3.k.. . .                                                 ",
"                        . j.x.. l.3.. . .                                                       ",
"                          . x.. (..                                                             ",
"                            . . .                                                               ",
"                                                                                                ",
"                                                                                                ",
"                                                                                                ",
"                                                                                                ",
"                                                                                                ",
"                                                                                                "};
