/* XPM */
static char * page_pdf_xpm[] = {
"20 200 84 1",
" 	c None",
".	c #F6310E",
"+	c #F8310E",
"@	c #F1300E",
"#	c #E32D0D",
"$	c #DA2B0C",
"%	c #D62A0C",
"&	c #9C9CB6",
"*	c #CBCBDA",
"=	c #C8A3A7",
"-	c #EC4A30",
";	c #F53B1B",
">	c #E96D5D",
",	c #DD9E9D",
"'	c #D0D0DF",
")	c #DAA8AB",
"!	c #D5BCC5",
"~	c #FCFCFF",
"{	c #FFFFFF",
"]	c #EFB1A6",
"^	c #F35236",
"/	c #EE7E6A",
"(	c #F54728",
"_	c #F83E1D",
":	c #FA725A",
"<	c #FB9886",
"[	c #FB7F69",
"}	c #FED8D2",
"|	c #F3F3F9",
"1	c #E9E9F0",
"2	c #F54628",
"3	c #F7DDDB",
"4	c #EFEFEF",
"5	c #EBADA2",
"6	c #F63C1B",
"7	c #F2F2F9",
"8	c #EA7B6A",
"9	c #F69E92",
"0	c #F89586",
"a	c #EEBCB3",
"b	c #F1F1F1",
"c	c #F1F1F8",
"d	c #F0F0F7",
"e	c #E8B6B3",
"f	c #ED8B7C",
"g	c #F1F1F6",
"h	c #FEFEFF",
"i	c #FDFDFF",
"j	c #F9F9FE",
"k	c #EFEFF6",
"l	c #F56D57",
"m	c #E7C1C0",
"n	c #EEEEF5",
"o	c #F5F5FC",
"p	c #F8F8FE",
"q	c #EBEBF4",
"r	c #ECECF4",
"s	c #E8E8EF",
"t	c #EAEAF3",
"u	c #E6E6F0",
"v	c #E7E7F0",
"w	c #E9E9F2",
"x	c #E3E3EB",
"y	c #ED5840",
"z	c #E8E8F1",
"A	c #E5E5EF",
"B	c #E0E0EC",
"C	c #DADAE3",
"D	c #DBDBE5",
"E	c #DCDCE9",
"F	c #D5D5E4",
"G	c #DADAE7",
"H	c #E4E4EE",
"I	c #E1E1ED",
"J	c #DEDEEB",
"K	c #DBDBE8",
"L	c #D2D2E0",
"M	c #CECEDD",
"N	c #D7D7E5",
"O	c #D3D3E1",
"P	c #D8D8E6",
"Q	c #CCCCDB",
"R	c #C9C9DA",
"S	c #000000",
"                    ",
"                    ",
"                    ",
"                    ",
"                    ",
"  .+                ",
"  @#+               ",
"  $@@               ",
"   %.+              ",
"  &*=-;>,''''')!''  ",
"  &~{]^/(_:<[_++}'  ",
"  &||123456+^+++}'  ",
"  &|7|890+(ab44b{'  ",
"  &cdce++fg{hi~~j'  ",
"  &kkdl+mno~~jjpo'  ",
"  &qrs+;tuv|7ckrw'  ",
"  &ttxy+zABqnqqqq'  ",
"  &vuvCDABEFGu&''&  ",
"  &AAAAHIJKLMN&O&   ",
"  &IIIIBBEP'QR&&    ",
"  &&&&&&&&&&&&&     ",
"                    ",
"                    ",
"                    ",
"                    ",
"                    ",
"                    ",
"                    ",
"                    ",
"                    ",
"      SSSSSSS       ",
"      SSSSSSS       ",
"        S   S       ",
"        S   S       ",
"        SSSSS       ",
"         SSS        ",
"                    ",
"       SSS          ",
"      SSSSS         ",
"      S   S         ",
"      S   S         ",
"      SSSSS         ",
"       SSS          ",
"                    ",
"      SSSSS         ",
"      SSSSS         ",
"          S         ",
"          S         ",
"          S         ",
"      SSSSSSS       ",
"      SSSSSSS       ",
"      S   S         ",
"      S   S         ",
"                    ",
"       S  S         ",
"      SSS S         ",
"      S S S         ",
"      S S S         ",
"      SSSSS         ",
"      SSSS          ",
"                    ",
"      SSSSSSSS      ",
"      SSSSSSSS      ",
"      S   S         ",
"      S   S         ",
"      SSSSS         ",
"       SSS          ",
"                    ",
"      SSSSSSSS      ",
"      SSSSSSSS      ",
"                    ",
"       SSS          ",
"      SSSSS         ",
"      S S S         ",
"      S S S         ",
"      S SSS         ",
"      S SS          ",
"                    ",
"                    ",
"                    ",
"                    ",
"      SSSSSSS       ",
"      SSSSSSS       ",
"      S     S       ",
"      S     S       ",
"      SS   SS       ",
"       SSSSS        ",
"        SSS         ",
"                    ",
"       SSS          ",
"      SSSSS         ",
"      S   S         ",
"      S   S         ",
"      SSSSS         ",
"       SSS          ",
"                    ",
"       SSS          ",
"      SSSSS         ",
"      S   S         ",
"      S   S         ",
"      S   S         ",
"                    ",
"       SSSS         ",
"      SSSSS         ",
"      S             ",
"      S             ",
"      SSSSS         ",
"      SSSSS         ",
"                    ",
"      SSSSS         ",
"      SSSSS         ",
"          S         ",
"          S         ",
"      SSSSS         ",
"      SSSSS         ",
"          S         ",
"          S         ",
"      SSSSS         ",
"      SSSS          ",
"                    ",
"       SSS          ",
"      SSSSS         ",
"      S S S         ",
"      S S S         ",
"      S SSS         ",
"      S SS          ",
"                    ",
"      SSSSS         ",
"      SSSSS         ",
"          S         ",
"          S         ",
"      SSSSS         ",
"      SSSS          ",
"          S         ",
"      SSSSSSS       ",
"      SSSSSSS       ",
"      S   S         ",
"      S   S         ",
"                    ",
"                    ",
"                    ",
"                    ",
"      SSSSSSS       ",
"      SSSSSSS       ",
"         S  S       ",
"         S  S       ",
"         S  S       ",
"                    ",
"       SSS          ",
"      SSSSS         ",
"      S   S         ",
"      S   S         ",
"      SSSSS         ",
"       SSS          ",
"                    ",
"      SSSSS         ",
"      SSSSS         ",
"          S         ",
"          S         ",
"                    ",
"      SSSSS         ",
"      SSSSS         ",
"          S         ",
"          S         ",
"      SSSSS         ",
"      SSSSS         ",
"          S         ",
"          S         ",
"      SSSSS         ",
"      SSSS          ",
"                    ",
"       S  S         ",
"      SSS S         ",
"      S S S         ",
"      S S S         ",
"      SSSSS         ",
"      SSSS          ",
"          S         ",
"      SSSSSSS       ",
"      SSSSSSS       ",
"      S   S         ",
"      S   S         ",
"                    ",
"                    ",
"                    ",
"                    ",
"                    ",
"                    ",
"                    ",
"                    ",
"                    ",
"                    ",
"                    ",
"                    ",
"                    ",
"                    ",
"                    ",
"                    ",
"                    ",
"                    "};
