/* XPM */
static char * page_graph_xpm[] = {
"48 48 883 2",
"  	c None",
". 	c #90826F",
"+ 	c #8E806D",
"@ 	c #8B7E6B",
"# 	c #887C6A",
"$ 	c #857968",
"% 	c #827767",
"& 	c #7F7565",
"* 	c #7D7263",
"= 	c #7A7062",
"- 	c #776E60",
"; 	c #746B5F",
"> 	c #71695D",
", 	c #6E675B",
"' 	c #6B655A",
") 	c #696258",
"! 	c #666057",
"~ 	c #635E55",
"{ 	c #605B53",
"] 	c #56534F",
"^ 	c #6B6B6B",
"/ 	c #757575",
"( 	c #8F816E",
"_ 	c #B6B6B6",
": 	c #B9B9B9",
"< 	c #B5B5B5",
"[ 	c #A9A9A9",
"} 	c #9A9A9A",
"| 	c #868686",
"1 	c #585858",
"2 	c #595959",
"3 	c #8D806D",
"4 	c #FAFAFA",
"5 	c #EEEEEE",
"6 	c #E4E4E4",
"7 	c #D1D1D1",
"8 	c #B7B7B7",
"9 	c #828282",
"0 	c #848484",
"a 	c #929292",
"b 	c #545454",
"c 	c #8C7E6C",
"d 	c #F2F2F2",
"e 	c #E6E6E6",
"f 	c #D0D0D0",
"g 	c #ADADAD",
"h 	c #767676",
"i 	c #C5C5C5",
"j 	c #3A3A3A",
"k 	c #8A7D6B",
"l 	c #F1F1F1",
"m 	c #DFDFDF",
"n 	c #626262",
"o 	c #E7E7E7",
"p 	c #353535",
"q 	c #897C6A",
"r 	c #000000",
"s 	c #2E2E2E",
"t 	c #F9F9F9",
"u 	c #F8F8F8",
"v 	c #EDEDED",
"w 	c #E8E8E8",
"x 	c #4E4E4E",
"y 	c #877A69",
"z 	c #E0E0E1",
"A 	c #C7C7C7",
"B 	c #F0F0F0",
"C 	c #F3F3F3",
"D 	c #F6F6F6",
"E 	c #141414",
"F 	c #C3C3C3",
"G 	c #FFFFFF",
"H 	c #C5C5C0",
"I 	c #99999A",
"J 	c #A5A5A5",
"K 	c #7F7F7F",
"L 	c #0F0F0F",
"M 	c #EBEBEB",
"N 	c #F5F5F5",
"O 	c #ECECEC",
"P 	c #9F9F9F",
"Q 	c #D5D5D5",
"R 	c #ADADA9",
"S 	c #989898",
"T 	c #8B8B8F",
"U 	c #8A8A8A",
"V 	c #B6B6B2",
"W 	c #BEBEBE",
"X 	c #DCDCDC",
"Y 	c #060606",
"Z 	c #FAFAFE",
"` 	c #F7F7F7",
" .	c #AFAFAF",
"..	c #9F9F9E",
"+.	c #949494",
"@.	c #8B8B8A",
"#.	c #BFBFC3",
"$.	c #F5F5F9",
"%.	c #F4F4F8",
"&.	c #F9F9FE",
"*.	c #E5E5E5",
"=.	c #090909",
"-.	c #CCCCCC",
";.	c #616161",
">.	c #2F2F2F",
",.	c #D8D8D8",
"'.	c #B3B3AF",
").	c #BCBCBD",
"!.	c #EAEAEA",
"~.	c #CBCBD0",
"{.	c #A8A8AD",
"].	c #9A9A99",
"^.	c #FDFDFC",
"/.	c #F3F3EF",
"(.	c #FEFEFE",
"_.	c #D5D5D4",
":.	c #7B7B7B",
"<.	c #CFCFCF",
"[.	c #1B1B1B",
"}.	c #2B2B2B",
"|.	c #3B3B3B",
"1.	c #4B4B4B",
"2.	c #5B5B5B",
"3.	c #7A7A7A",
"4.	c #313131",
"5.	c #C1C1C1",
"6.	c #FDFDF9",
"7.	c #D6D6D6",
"8.	c #B8B8B8",
"9.	c #B0B0B0",
"0.	c #AFAFB3",
"a.	c #B7B7B2",
"b.	c #FAFAF5",
"c.	c #E6E6EB",
"d.	c #EBEBE6",
"e.	c #E1E1E2",
"f.	c #C0C0C0",
"g.	c #858585",
"h.	c #565656",
"i.	c #515151",
"j.	c #585853",
"k.	c #ACACAC",
"l.	c #D1D1D6",
"m.	c #393939",
"n.	c #E9E9E8",
"o.	c #C4C3C1",
"p.	c #B8B8B5",
"q.	c #A6A6A1",
"r.	c #9B9992",
"s.	c #88857B",
"t.	c #797771",
"u.	c #696561",
"v.	c #5C5957",
"w.	c #403F3F",
"x.	c #1A1A1E",
"y.	c #BBBBBB",
"z.	c #E8E8ED",
"A.	c #BFBFBF",
"B.	c #BCBCBC",
"C.	c #C5C5CA",
"D.	c #E3E3E8",
"E.	c #FFFFFE",
"F.	c #EFEFEB",
"G.	c #878782",
"H.	c #5E5E5A",
"I.	c #969696",
"J.	c #F7F7F3",
"K.	c #121212",
"L.	c #E3E3E3",
"M.	c #F4F4F4",
"N.	c #E1E1E1",
"O.	c #D2D2D1",
"P.	c #C2C1BF",
"Q.	c #B4B3AF",
"R.	c #A3A19D",
"S.	c #95918B",
"T.	c #89847D",
"U.	c #535250",
"V.	c #494743",
"W.	c #2A2A2E",
"X.	c #CDCDCD",
"Y.	c #F0F0F5",
"Z.	c #C0C0BB",
"`.	c #F0F0EB",
" +	c #D2D2D2",
".+	c #9F9F9A",
"++	c #8D8D8D",
"@+	c #7B7B7F",
"#+	c #787873",
"$+	c #909091",
"%+	c #CDCDD1",
"&+	c #808085",
"*+	c #535353",
"=+	c #A2A2A2",
"-+	c #EAEAEB",
";+	c #F6F6FB",
">+	c #DDDDDD",
",+	c #939394",
"'+	c #1E1E1E",
")+	c #DADADA",
"!+	c #DEDEDE",
"~+	c #CCC9C7",
"{+	c #B7B5B2",
"]+	c #A8A5A1",
"^+	c #9C998F",
"/+	c #938E84",
"(+	c #666461",
"_+	c #393733",
":+	c #2A2A2A",
"<+	c #E2E2E2",
"[+	c #C6C6C6",
"}+	c #CBCBCB",
"|+	c #CACACE",
"1+	c #EEEEF3",
"2+	c #FBFBFF",
"3+	c #939393",
"4+	c #878783",
"5+	c #70706B",
"6+	c #5C5C58",
"7+	c #E5E5E0",
"8+	c #E7E7E2",
"9+	c #D4D4D4",
"0+	c #EEEEEA",
"a+	c #EFEFEF",
"b+	c #82827D",
"c+	c #808080",
"d+	c #7D7D7D",
"e+	c #8F8F8F",
"f+	c #2A2A22",
"g+	c #C4C4C4",
"h+	c #EEEEED",
"i+	c #E8E8E7",
"j+	c #DEDDDB",
"k+	c #D4D1CE",
"l+	c #CBC9C4",
"m+	c #C0BBB2",
"n+	c #ADA79C",
"o+	c #9C968E",
"p+	c #78726D",
"q+	c #312F2B",
"r+	c #A0A0A0",
"s+	c #90908B",
"t+	c #A5A5A0",
"u+	c #BDBDC2",
"v+	c #DADAD6",
"w+	c #F4F4EF",
"x+	c #FCFCFC",
"y+	c #7E7E7F",
"z+	c #CACACA",
"A+	c #505050",
"B+	c #525252",
"C+	c #D9D9D9",
"D+	c #A1A19C",
"E+	c #7C7C7C",
"F+	c #727272",
"G+	c #322E26",
"H+	c #B2B2B2",
"I+	c #DDDCDA",
"J+	c #EBE9E8",
"K+	c #EFEDEA",
"L+	c #E0DEDA",
"M+	c #DCD9D3",
"N+	c #D0CCC6",
"O+	c #CAC4BB",
"P+	c #BAB5A9",
"Q+	c #ACA69E",
"R+	c #7F7971",
"S+	c #868682",
"T+	c #888888",
"U+	c #9D9D98",
"V+	c #E1E1DC",
"W+	c #A7A7A7",
"X+	c #959595",
"Y+	c #C9C9C9",
"Z+	c #B3B3B7",
"`+	c #6E6E6E",
" @	c #323232",
".@	c #343434",
"+@	c #6E6E6A",
"@@	c #3A3A36",
"#@	c #999999",
"$@	c #A6A6A6",
"%@	c #BCBBBA",
"&@	c #D5D4D1",
"*@	c #E9E6E2",
"=@	c #EEEAE5",
"-@	c #E8E3DE",
";@	c #DFDAD3",
">@	c #D9D4CC",
",@	c #CFC8BF",
"'@	c #C8C1B7",
")@	c #BCB5A8",
"!@	c #8A8278",
"~@	c #7D7D79",
"{@	c #A8A8A8",
"]@	c #B7B7B8",
"^@	c #BABABF",
"/@	c #97979B",
"(@	c #CBCBCC",
"_@	c #F2F2F3",
":@	c #D7D7D7",
"<@	c #787878",
"[@	c #707071",
"}@	c #878787",
"|@	c #8E8E89",
"1@	c #3F3F3F",
"2@	c #4A4A45",
"3@	c #4B4B50",
"4@	c #222222",
"5@	c #666762",
"6@	c #322E22",
"7@	c #A2A1A0",
"8@	c #B7B6B4",
"9@	c #D2CFCC",
"0@	c #E6E2DE",
"a@	c #EEE9E3",
"b@	c #F0EAE1",
"c@	c #E6DFD7",
"d@	c #DCD6CC",
"e@	c #D6CFC4",
"f@	c #CEC5B9",
"g@	c #C5BFB1",
"h@	c #908678",
"i@	c #2E2E32",
"j@	c #797979",
"k@	c #ACACAB",
"l@	c #B5B5B9",
"m@	c #717172",
"n@	c #9E9EA2",
"o@	c #CECECE",
"p@	c #909090",
"q@	c #72726E",
"r@	c #757571",
"s@	c #CDCDD2",
"t@	c #F3F3EE",
"u@	c #8A8A8E",
"v@	c #8D8D89",
"w@	c #636368",
"x@	c #43433F",
"y@	c #6B6B67",
"z@	c #696969",
"A@	c #1D1D1D",
"B@	c #5E5E5F",
"C@	c #959493",
"D@	c #A09F9D",
"E@	c #B5B2B0",
"F@	c #D0CCC8",
"G@	c #E5E1DB",
"H@	c #F0EBE3",
"I@	c #F2EAE1",
"J@	c #E6E0D5",
"K@	c #DBD5CA",
"L@	c #D9D1C4",
"M@	c #D5CDC0",
"N@	c #CAC2B2",
"O@	c #968B7A",
"P@	c #E0E0E0",
"Q@	c #818181",
"R@	c #99999E",
"S@	c #C8C8C8",
"T@	c #959591",
"U@	c #B0B0AC",
"V@	c #67676B",
"W@	c #7C7C78",
"X@	c #CBCBC6",
"Y@	c #868685",
"Z@	c #6E6E72",
"`@	c #424242",
" #	c #5F5F5B",
".#	c #373737",
"+#	c #49494A",
"@#	c #4F4F4F",
"##	c #212122",
"$#	c #656561",
"%#	c #6A6A6A",
"&#	c #181819",
"*#	c #676768",
"=#	c #949391",
"-#	c #9E9C9A",
";#	c #B4B1AD",
">#	c #CFCCC6",
",#	c #E4E0D8",
"'#	c #F0E9DF",
")#	c #F0E8DE",
"!#	c #ECE4D8",
"~#	c #E3DACE",
"{#	c #DAD3C4",
"]#	c #D7CDBE",
"^#	c #D3CAB7",
"/#	c #978D7B",
"(#	c #F1F1F5",
"_#	c #AAAAAA",
":#	c #6F6F6F",
"<#	c #919191",
"[#	c #D2D2D6",
"}#	c #ABABB0",
"|#	c #676762",
"1#	c #CBCBCF",
"2#	c #7F7F83",
"3#	c #4C4C4C",
"4#	c #8C8C8C",
"5#	c #4B4B47",
"6#	c #27272C",
"7#	c #424243",
"8#	c #595955",
"9#	c #22221E",
"0#	c #949290",
"a#	c #9E9B98",
"b#	c #B3B0AB",
"c#	c #CECAC3",
"d#	c #E4DED4",
"e#	c #EFE7DD",
"f#	c #F2EADE",
"g#	c #EEE4D6",
"h#	c #E3DACC",
"i#	c #E0D8C7",
"j#	c #D9D0BC",
"k#	c #D6CBB7",
"l#	c #A09480",
"m#	c #C3C3C2",
"n#	c #A2A29D",
"o#	c #5E5E5E",
"p#	c #747474",
"q#	c #C2C2C1",
"r#	c #848483",
"s#	c #484848",
"t#	c #474747",
"u#	c #2D2D2D",
"v#	c #464646",
"w#	c #656560",
"x#	c #2C2C2C",
"y#	c #242429",
"z#	c #2C2C28",
"A#	c #404040",
"B#	c #22221A",
"C#	c #93918E",
"D#	c #9D9A96",
"E#	c #B2AFA9",
"F#	c #CEC8C0",
"G#	c #E3DCD2",
"H#	c #EEE6DA",
"I#	c #F1E8DB",
"J#	c #EFE5D5",
"K#	c #EBE1D1",
"L#	c #E0D6C3",
"M#	c #D9CEBA",
"N#	c #D6CAB5",
"O#	c #A5967F",
"P#	c #EBEBEF",
"Q#	c #C0C0C4",
"R#	c #B4B4B4",
"S#	c #A1A1A1",
"T#	c #BCBCC0",
"U#	c #A0A0A5",
"V#	c #5B5B60",
"W#	c #BDBDBD",
"X#	c #C6C6CB",
"Y#	c #77777C",
"Z#	c #40403F",
"`#	c #444444",
" $	c #292925",
".$	c #454545",
"+$	c #7A7A7E",
"@$	c #1E1E15",
"#$	c #686868",
"$$	c #737377",
"%$	c #1A1A1A",
"&$	c #93908C",
"*$	c #9C9994",
"=$	c #B2ADA6",
"-$	c #CDC7BE",
";$	c #E2DBD0",
">$	c #EDE4D7",
",$	c #F0E6D8",
"'$	c #F0E4D4",
")$	c #EADFCC",
"!$	c #E2D6C1",
"~$	c #DED3BC",
"{$	c #D5C9B2",
"]$	c #A5957D",
"^$	c #B6B6B5",
"/$	c #C1C1BC",
"($	c #CCCCC8",
"_$	c #A9A9A5",
":$	c #666661",
"<$	c #686869",
"[$	c #BEBEBA",
"}$	c #80807B",
"|$	c #787877",
"1$	c #414141",
"2$	c #292929",
"3$	c #5A5A5A",
"4$	c #707070",
"5$	c #5D5D61",
"6$	c #1E1E16",
"7$	c #928F8A",
"8$	c #9C9891",
"9$	c #B2ACA5",
"0$	c #CCC6BC",
"a$	c #E1D9CD",
"b$	c #ECE2D4",
"c$	c #EFE3D1",
"d$	c #EDE0CB",
"e$	c #EBDCC5",
"f$	c #DFD3BB",
"g$	c #DCCEB5",
"h$	c #A5947C",
"i$	c #57575C",
"j$	c #6A6A6E",
"k$	c #999998",
"l$	c #CCCCCD",
"m$	c #5E5E62",
"n$	c #777772",
"o$	c #808084",
"p$	c #7C7C77",
"q$	c #26262A",
"r$	c #4D4D4D",
"s$	c #737373",
"t$	c #70706C",
"u$	c #111111",
"v$	c #666666",
"w$	c #1A1A16",
"x$	c #928E88",
"y$	c #9C9790",
"z$	c #B1ABA2",
"A$	c #CCC4B9",
"B$	c #E0D7CA",
"C$	c #ECE0D0",
"D$	c #EEE1CE",
"E$	c #EBDBC3",
"F$	c #DFD1B8",
"G$	c #DDCFB3",
"H$	c #A6967B",
"I$	c #898988",
"J$	c #CACACB",
"K$	c #A5A5A9",
"L$	c #A9A9AE",
"M$	c #77777B",
"N$	c #838388",
"O$	c #79797A",
"P$	c #737378",
"Q$	c #4A4A4A",
"R$	c #13130E",
"S$	c #474743",
"T$	c #676767",
"U$	c #918D87",
"V$	c #9B968E",
"W$	c #B0AAA0",
"X$	c #CBC2B6",
"Y$	c #E0D5C6",
"Z$	c #EBDFCD",
"`$	c #ECDEC8",
" %	c #EADAC0",
".%	c #E7D5BB",
"+%	c #DDCDB1",
"@%	c #AC987D",
"#%	c #2E2E2A",
"$%	c #E6E6E2",
"%%	c #52524D",
"&%	c #B1B1B6",
"*%	c #B2B2B7",
"=%	c #C5C5C1",
"-%	c #838383",
";%	c #858580",
">%	c #7A7A79",
",%	c #63635E",
"'%	c #5C5C5C",
")%	c #13130F",
"!%	c #191915",
"~%	c #3E3E43",
"{%	c #161612",
"]%	c #918C85",
"^%	c #9A958C",
"/%	c #B0A89E",
"(%	c #CBC1B3",
"_%	c #E0D4C3",
":%	c #EADDCA",
"<%	c #EADBC2",
"[%	c #E9D6B9",
"}%	c #DDCBAE",
"|%	c #AB967B",
"1%	c #C9C9CE",
"2%	c #6C6C6C",
"3%	c #494949",
"4%	c #B1B1B1",
"5%	c #CECED2",
"6%	c #38383D",
"7%	c #42423E",
"8%	c #9B9B9B",
"9%	c #232327",
"0%	c #1A1A1F",
"a%	c #3D3D42",
"b%	c #0A0A0A",
"c%	c #151515",
"d%	c #3F3F3A",
"e%	c #908B83",
"f%	c #9A938A",
"g%	c #B0A79B",
"h%	c #CAC0B1",
"i%	c #DFD2C1",
"j%	c #E9DCC7",
"k%	c #EAD9BE",
"l%	c #E8D5B8",
"m%	c #E4D0B0",
"n%	c #AB9578",
"o%	c #DBDBDB",
"p%	c #656565",
"q%	c #3D3D3D",
"r%	c #A9A9AD",
"s%	c #2B2B27",
"t%	c #222227",
"u%	c #C2C2C2",
"v%	c #7C7C80",
"w%	c #272726",
"x%	c #68686C",
"y%	c #12120E",
"z%	c #202020",
"A%	c #4E4E52",
"B%	c #37373C",
"C%	c #525257",
"D%	c #908A81",
"E%	c #9A9288",
"F%	c #AFA699",
"G%	c #C9BEAE",
"H%	c #DED1BE",
"I%	c #E8DAC4",
"J%	c #E9D7BB",
"K%	c #E4D1AF",
"L%	c #AC9477",
"M%	c #696965",
"N%	c #3E3E3E",
"O%	c #69696D",
"P%	c #191914",
"Q%	c #232323",
"R%	c #BABABA",
"S%	c #74746F",
"T%	c #2B2B30",
"U%	c #757579",
"V%	c #1B1B16",
"W%	c #20201C",
"X%	c #4B4B4F",
"Y%	c #060602",
"Z%	c #090904",
"`%	c #41413C",
" &	c #90887F",
".&	c #999186",
"+&	c #AEA597",
"@&	c #C8BDAB",
"#&	c #DDD0BB",
"$&	c #E7D8C1",
"%&	c #E7D4B5",
"&&	c #E8D3AD",
"*&	c #B49A79",
"=&	c #AEAEB3",
"-&	c #19191E",
";&	c #A5A5A1",
">&	c #8B8B8B",
",&	c #848480",
"'&	c #5F5F5F",
")&	c #1F1F1A",
"!&	c #282827",
"~&	c #2D2D2E",
"{&	c #595954",
"]&	c #434343",
"^&	c #020202",
"/&	c #15151A",
"(&	c #26262B",
"_&	c #26220E",
":&	c #8F887D",
"<&	c #9A9185",
"[&	c #ADA494",
"}&	c #C7BCA9",
"|&	c #DCCEB8",
"1&	c #E6D7BE",
"2&	c #E6D2B2",
"3&	c #E6D0AF",
"4&	c #B49675",
"5&	c #333333",
"6&	c #7D7D82",
"7&	c #888884",
"8&	c #A7A7A2",
"9&	c #6C6C70",
"0&	c #1B1B17",
"a&	c #242424",
"b&	c #6D6D6D",
"c&	c #0D0D0D",
"d&	c #5D5D59",
"e&	c #33342F",
"f&	c #342F27",
"g&	c #8B847A",
"h&	c #8F877C",
"i&	c #9A9184",
"j&	c #AEA494",
"k&	c #C7BBA7",
"l&	c #DBCDB5",
"m&	c #E6D5BB",
"n&	c #E5CEAC",
"o&	c #B59974",
"p&	c #282828",
"q&	c #575757",
"r&	c #0F0F0B",
"s&	c #73736E",
"t&	c #5B5B57",
"u&	c #14140F",
"v&	c #3C3C38",
"w&	c #545455",
"x&	c #8C857B",
"y&	c #8C8579",
"z&	c #91897C",
"A&	c #9D9485",
"B&	c #B1A695",
"C&	c #C9BCA7",
"D&	c #DDCDB3",
"E&	c #E5D3B8",
"F&	c #E4CDA9",
"G&	c #B99D74",
"H&	c #050505",
"I&	c #B9B9B4",
"J&	c #2C2C31",
"K&	c #B3B3B3",
"L&	c #636363",
"M&	c #131313",
"N&	c #515155",
"O&	c #8C867E",
"P&	c #8D867B",
"Q&	c #8E877B",
"R&	c #928A7D",
"S&	c #999082",
"T&	c #A79D8C",
"U&	c #BAAE9A",
"V&	c #D0C1A9",
"W&	c #DECDB2",
"X&	c #E5D2B5",
"Y&	c #E3CBA6",
"Z&	c #B99E74",
"`&	c #979797",
" *	c #C0C0BC",
".*	c #A2A29E",
"+*	c #A4A4A4",
"@*	c #4C4C51",
"#*	c #4D4D49",
"$*	c #8C877F",
"%*	c #8E877D",
"&*	c #938B7F",
"**	c #989082",
"=*	c #A09687",
"-*	c #AA9F8E",
";*	c #B7AB98",
">*	c #C8BAA3",
",*	c #D8C7AD",
"'*	c #E1CFB2",
")*	c #E5D2B3",
"!*	c #E2C9A3",
"~*	c #B99970",
"{*	c #0C0C0C",
"]*	c #AEAEAE",
"^*	c #AAAAAF",
"/*	c #606060",
"(*	c #8D8881",
"_*	c #8E887F",
":*	c #948C81",
"<*	c #999084",
"[*	c #9F9788",
"}*	c #A99F8F",
"|*	c #B3A896",
"1*	c #BFB39F",
"2*	c #CCBDA6",
"3*	c #D6C6AC",
"4*	c #DFCDB1",
"5*	c #E4D1B2",
"6*	c #E5D1B1",
"7*	c #E1C7A0",
"8*	c #B7996E",
"9*	c #3A3732",
"0*	c #2D2D28",
"a*	c #383838",
"b*	c #A8A8AC",
"c*	c #5D5D58",
"d*	c #8D8983",
"e*	c #8E8981",
"f*	c #948D83",
"g*	c #A0978A",
"h*	c #AAA091",
"i*	c #B4A998",
"j*	c #BFB3A0",
"k*	c #CABDA8",
"l*	c #D4C5AC",
"m*	c #DBCAB0",
"n*	c #E0CEB2",
"o*	c #E1C59C",
"p*	c #B6986D",
"q*	c #413D38",
"r*	c #82817D",
"s*	c #A5A39F",
"t*	c #908C86",
"u*	c #908B84",
"v*	c #948E85",
"w*	c #A1998C",
"x*	c #AAA193",
"y*	c #B5AB9B",
"z*	c #C0B5A3",
"A*	c #CBBEAA",
"B*	c #D4C7B0",
"C*	c #DCCCB2",
"D*	c #E0CFB4",
"E*	c #E3D0B4",
"F*	c #B6976B",
"G*	c #48453F",
"H*	c #93918C",
"I*	c #BBB8B2",
"J*	c #AFABA5",
"K*	c #A5A09A",
"L*	c #97928B",
"M*	c #979189",
"N*	c #A29A8F",
"O*	c #ABA295",
"P*	c #B6AC9D",
"Q*	c #C1B6A5",
"R*	c #CCC0AD",
"S*	c #D5C8B3",
"T*	c #DCCEB6",
"U*	c #E1D1B7",
"V*	c #E4D2B7",
"W*	c #E6D3B6",
"X*	c #E6D3B4",
"Y*	c #4D4A43",
"Z*	c #A3A19A",
"`*	c #D3CFC8",
" =	c #C7C1B9",
".=	c #BAB4AC",
"+=	c #AFA9A1",
"@=	c #A8A198",
"#=	c #A7A096",
"$=	c #AEA599",
"%=	c #B7AEA0",
"&=	c #C2B7A8",
"*=	c #CDC2AF",
"==	c #D6C9B5",
"-=	c #DDCFB9",
";=	c #E1D3BB",
">=	c #E5D4BA",
",=	c #E7D5B9",
"'=	c #E7D4B7",
")=	c #4F4B45",
"!=	c #ADA9A2",
"~=	c #E5DFD5",
"{=	c #DDD5CC",
"]=	c #D1CAC0",
"^=	c #C7BFB5",
"/=	c #C0B8AC",
"(=	c #C0B6A9",
"_=	c #C5BBAC",
":=	c #CEC3B2",
"<=	c #D7CBB8",
"[=	c #DED0BC",
"}=	c #E2D4BE",
"|=	c #E5D6BE",
"1=	c #E8D7BC",
"2=	c #E8D6BA",
"3=	c #4E4B45",
"4=	c #B4AEA4",
"5=	c #B7AFA3",
"6=	c #B5AB9E",
"7=	c #B0A597",
"8=	c #ABA091",
"9=	c #A79B8C",
"0=	c #A79B8A",
"a=	c #AA9D89",
"b=	c #AEA08C",
"c=	c #B2A28B",
"d=	c #B5A48C",
"e=	c #B7A389",
"f=	c #B7A489",
"g=	c #B8A386",
"h=	c #B8A284",
"i=	c #BDA27C",
"j=	c #BCA17B",
"k=	c #BCA179",
"l=	c #BBA076",
"m=	c #B29161",
"n=	c #272420",
"o=	c #302E2A",
"p=	c #2F2D29",
"                                                                                                ",
"                                                                                                ",
"                          . . + @ # $ % & * = - ; > , ' ) ! ~ { ] ^ /                           ",
"                          ( _ : : : : : : : : : : : : : < < [ } | 1 2 /                         ",
"                          3 : 4 4 4 4 4 4 4 4 4 4 4 4 4 4 5 6 7 8 9 0 a b                       ",
"                          c : 4 4 4 4 4 4 4 4 4 4 4 4 4 4 4 d e f g h i a j                     ",
"                          k : 4 4 4 4 4 4 4 4 4 4 4 4 4 4 4 4 l m 7 n o i | p                   ",
"                          q : 4 r s t u u t 4 4 4 4 4 4 4 4 4 4 v w x 4 o i | p                 ",
"                          y r r z A r r B C D u t 4 4 4 4 4 4 4 4 d x 4 4 o i | p               ",
"                        E r F G H I J K r L M l N u t 4 4 4 4 4 4 4 x O 4 4 o i | j             ",
"                    r r P d Q R S T U V 6 W r r M l N u t 4 4 4 4 4 x X O 4 4 o i a b           ",
"                Y r o Z `  ...+.@.#.6 $.%.&.4 *.r =.M l N u t 4 4 4 x -.X O 4 4 o i a ;.        ",
"            >.r G G ,.'.).!.~.{.].4 ^.C /.(._.:.:.<.r p M l N u t 4 x [.[.}.|.1.2.^ 3.^ /       ",
"        4.r 5.6.v 7.8.9.0.a.7 b.f c.d.7 e.f.g.h.i.j.k.l.r m.M l N u n.o.p.q.r.s.t.u.v.w.;.      ",
"      x.y.G z.-.A.B.: C.D.t E.G G G F.k.G.1 h.H.I.A.d J.G S K.L.M d M.N.O.P.Q.R.S.T.t.U.V.      ",
"      W.d.X.Y.B L.y.Z.`.G G  +.+++@+#+$+%+&+*+=+-+D ;+>+,+I.'+-.)+e B C !+7 ~+{+]+^+/+(+_+      ",
"      :+<+[+}+|+E.(.M 1+2+L.3+K 4+` -.5+6+7+8+9+0+a+b+c+d+e+f+< g+7.w h+i+j+k+l+m+n+o+p+q+      ",
"      s w r+s+t+u+v+w+x+G )+g.y+<.z+K A+B+!+d C+D+E+F+i.2 4+G+=+H+A I+J+K+L+M+N+O+P+Q+R+q+      ",
"      s X S+I.T+U+-.i 6 O G V+W+I.c+T X+[+Y+Z+3.| `+ @.@:++@@@#@$@%@&@*@=@-@;@>@,@'@)@!@q+      ",
"      s ,.~@k.{@y+]@^@/@[ (@_@2+d !.4 :@< <@[@}@|@1@2@3@4@5@6@I.7@8@9@0@a@b@c@d@e@f@g@h@q+      ",
"      i@,.j@k@l@m@n@o@p@q@r@P s@4 t@u@v@w@3@x@y@3. @z@;.A@B@6@C@D@E@F@G@H@I@J@K@L@M@N@O@q+      ",
"      s P@Q@R@S@z@T@:@U@V@W@5.[+X@<@Y@Z@`@ #.#+#@###$#%#&#*#f+=#-#;#>#,#'#)#!#~#{#]#^#/#q+      ",
"      s (#[ 3._#:#<#[#}#|#<@f.1#7.2#T+2 3#4# @@#5#6#7#8###|#9#0#a#b#c#d#e#f#g#h#i#j#k#l#q+      ",
"      :+e m#G.`+z@n#7.k.o#p#5.q#O.r#c+s#t#4#u#v#w#x#y#z#A#<@B#C#D#E#F#G#H#I#J#K#L#M#N#O#q+      ",
"      s P#<.Q#R#S#g+T#U#V#^ W#X#%+0 Y#Z#`#<# $.$+$A#@$`@#$$$%$&$*$=$-$;$>$,$'$)$!$~${$]$q+      ",
"      s O ^$/$[+X.($_$:$x <$[$A s@}$|$A#1$`+2$3$E+4$`+5$x %#6$7$8$9$0$a$b$'$c$d$e$f$g$h$q+      ",
"      :+L.U i$j$k$-.l$k.m$3#n$y.o@o$p$`#>.q$r$Q@s$t$.@u$1$v$w$x$y$z$A$B$C$c$D$d$E$F$G$H$q+      ",
"      W.o z+4$h.I$%+-.J$A.K$3.L$z+M$N$%#r$x O$P$:#Q$R$&#S$T$%$U$V$W$X$Y$Z$D$d$`$ %.%+%@%q+      ",
"      #%$%X.4$%%&%X. .#+t$*%[+A.=%:.-%;%>%*+1$,%4$'%)%!%~%o#{%]%^%/%(%_%:%d$`$e$<%[%}%|%q+      ",
"      :+<+1%2%3%4%5%g.6%7%3%8%f.W#n$N$:#|.9%0%a%2%$$b%c%d%3${%e%f%g%h%i%j%`$e$<%k%l%m%n%q+      ",
"      s o%: p%q%r%<./ s%W+t%*+4%u%s$v%r$w%x%y%z%A%:$b%u$B%C%K.D%E%F%G%H%I%e$<%k%J%l%K%L%q+      ",
"      W.,.M%q%N%p@7 O%P%f.;.Q%p@R%S%4$T%}.U%V%W%X%T$Y%Z%E `%{% &.&+&@&#&$&<%k%J%l%%&&&*&q+      ",
"      %$=&B.0 1$s#a.M$-&;&>&Z%,&Z.4$'&)&!&U%u$~&{&]&^&/&(&T%_&:&<&[&}&|&1&k%J%l%%&2&3&4&q+      ",
"        5&r A.k.6&7&8&9%B+U r <@8 9&'%0&a&b&c&d%d&a&e&f&r r g&h&i&j&k&l&m&J%l%%&2&3&n&o&q+      ",
"            p&r !+y.f.q&r&i@r s&=&2%t&[.u&v&[.A+w&`#r r x&g&y&z&A&B&C&D&E&l%%&2&3&n&F&G&q+      ",
"                H&r I&A.S$L J&+.K&L&2%`@R$M&r$N&y#r O&x&P&Q&R&S&T&U&V&W&X&%&2&3&n&F&Y&Z&q+      ",
"                    r r `& *.*+*J '&L&p%@*#*r r $*O&%*:&&***=*-*;*>*,*'*)*2&3&n&F&Y&!*~*q+      ",
"                        {*r }@]*^*/*z@@#r r (*$*_* &:*<*[*}*|*1*2*3*4*5*6*3&n&F&Y&!*7*8*q+      ",
"                          9*0*a*b*c*r r d*(*e*D%f*.&g*h*i*j*k*l*m*n*5*6*3&n&F&Y&!*7*o*p*q+      ",
"                          q*r*s*r r x$t*u*e%v*E%w*x*y*z*A*B*C*D*E*)*2&3&n&F&Y&!*7*o*o*F*q+      ",
"                          G*H*I*J*K*y$L*M*f%N*O*P*Q*R*S*T*U*V*W*X*2&3&n&F&Y&!*7*o*o*o*F*q+      ",
"                          Y*Z*`* =.=+=@=#=$=%=&=*===-=;=>=,='=%&2&3&n&F&Y&!*7*o*o*o*o*F*q+      ",
"                          )=!=~={=]=^=/=(=_=:=<=[=}=|=1=2=l%%&2&3&n&F&Y&!*7*o*o*o*o*o*F*q+      ",
"                          3=4=5=6=7=8=9=0=a=b=c=d=e=f=g=h=h=i=j=k=l=G&Z&~*8*p*F*F*F*F*m=q+      ",
"                          n=q+o=o=o=p=p=p=p=o=o=o=q+q+q+q+q+q+q+q+q+q+q+q+q+q+q+q+q+q+q+q+      ",
"                                                                                                ",
"                                                                                                ",
"                                                                                                "};
