/* XPM */
static char * page_set2_xpm[] = {
"48 48 351 2",
"  	c None",
". 	c #000000",
"+ 	c #2D2D2D",
"@ 	c #B5B5B5",
"# 	c #3B3B3B",
"$ 	c #E2E2E2",
"% 	c #EFEFEF",
"& 	c #EBEBEB",
"* 	c #656565",
"= 	c #3C3C3C",
"- 	c #ECECEC",
"; 	c #E8E8E8",
"> 	c #E4E4E4",
", 	c #8C8C8C",
"' 	c #0F0F0F",
") 	c #484848",
"! 	c #9E9E9E",
"~ 	c #9A9A9A",
"{ 	c #5A5A5A",
"] 	c #939393",
"^ 	c #E9E9E9",
"/ 	c #E5E5E5",
"( 	c #E1E1E1",
"_ 	c #DDDDDD",
": 	c #B0B0B0",
"< 	c #1C1C1C",
"[ 	c #222222",
"} 	c #A6A6A6",
"| 	c #BDBDBD",
"1 	c #B6B6B6",
"2 	c #B2B2B2",
"3 	c #0C0C0C",
"4 	c #1D1D1D",
"5 	c #D9D9D9",
"6 	c #D5D5D5",
"7 	c #C3C3C3",
"8 	c #0B0B0B",
"9 	c #B3B3B3",
"0 	c #8D8D8D",
"a 	c #DEDEDE",
"b 	c #DADADA",
"c 	c #D6D6D6",
"d 	c #CECECE",
"e 	c #B7B7B7",
"f 	c #404040",
"g 	c #0E0E0E",
"h 	c #CDCDCD",
"i 	c #D7D7D7",
"j 	c #CFCFCF",
"k 	c #BEBEBE",
"l 	c #B1B1B1",
"m 	c #737373",
"n 	c #171717",
"o 	c #6B6B6B",
"p 	c #D1D1D1",
"q 	c #C5C5C5",
"r 	c #BABABA",
"s 	c #AFAFAF",
"t 	c #ADADAD",
"u 	c #7F7F7F",
"v 	c #B9B9B9",
"w 	c #3A3A3A",
"x 	c #474747",
"y 	c #4C4C4C",
"z 	c #AAAAAA",
"A 	c #B8B8B8",
"B 	c #C7C7C7",
"C 	c #121212",
"D 	c #A1A1A1",
"E 	c #6C6C6C",
"F 	c #565656",
"G 	c #515151",
"H 	c #F7F7F7",
"I 	c #9D9D9D",
"J 	c #C1C1C1",
"K 	c #ACACAC",
"L 	c #F0F0F0",
"M 	c #FBFBFB",
"N 	c #F9F9F9",
"O 	c #797979",
"P 	c #C9C9C9",
"Q 	c #828282",
"R 	c #575757",
"S 	c #272727",
"T 	c #999999",
"U 	c #FCFCFC",
"V 	c #F6F6F6",
"W 	c #8F8F8F",
"X 	c #D3D3D3",
"Y 	c #C6C6C6",
"Z 	c #CCCCCC",
"` 	c #F4F4F4",
" .	c #292929",
"..	c #AEAEAE",
"+.	c #C4C4C4",
"@.	c #E0E0E0",
"#.	c #E6E6E6",
"$.	c #393939",
"%.	c #101010",
"&.	c #A9A9A9",
"*.	c #C0C0C0",
"=.	c #2C2C2C",
"-.	c #D8D8D8",
";.	c #DFDFDF",
">.	c #0D0D0D",
",.	c #E7E7E7",
"'.	c #383838",
").	c #DCDCDC",
"!.	c #D4D4D4",
"~.	c #878787",
"{.	c #D2D2D2",
"].	c #BFBFBF",
"^.	c #666666",
"/.	c #EDEDED",
"(.	c #B4B4B4",
"_.	c #818181",
":.	c #BCBCBC",
"<.	c #3F3F3F",
"[.	c #5B5B5B",
"}.	c #969696",
"|.	c #848484",
"1.	c #909090",
"2.	c #A3A3A3",
"3.	c #1F1A00",
"4.	c #6C5900",
"5.	c #1B170B",
"6.	c #141414",
"7.	c #919191",
"8.	c #9F9F9F",
"9.	c #3B350C",
"0.	c #EBC800",
"a.	c #F9C700",
"b.	c #B98F00",
"c.	c #686868",
"d.	c #202020",
"e.	c #9B9B9B",
"f.	c #888888",
"g.	c #A19342",
"h.	c #FCD600",
"i.	c #FAC700",
"j.	c #F9C200",
"k.	c #B38300",
"l.	c #1B1B1B",
"m.	c #6E6E6E",
"n.	c #1A1A1A",
"o.	c #BAA72C",
"p.	c #FCD700",
"q.	c #FBC700",
"r.	c #FAC400",
"s.	c #EEAD00",
"t.	c #704A00",
"u.	c #6D6D6D",
"v.	c #161406",
"w.	c #AD9600",
"x.	c #FDD500",
"y.	c #FDC900",
"z.	c #FCC800",
"A.	c #F5BA00",
"B.	c #E9A500",
"C.	c #B67800",
"D.	c #8C6000",
"E.	c #B99600",
"F.	c #997500",
"G.	c #100C00",
"H.	c #555555",
"I.	c #9D8600",
"J.	c #FDCA00",
"K.	c #FBC600",
"L.	c #F4BA00",
"M.	c #F0B100",
"N.	c #E7A100",
"O.	c #E39A00",
"P.	c #F6BD00",
"Q.	c #D89C00",
"R.	c #BE8300",
"S.	c #BE9100",
"T.	c #110D00",
"U.	c #636363",
"V.	c #7E6C00",
"W.	c #FDD700",
"X.	c #F4B900",
"Y.	c #EAA900",
"Z.	c #EAA600",
"`.	c #ECAA00",
" +	c #F8C000",
".+	c #F8C100",
"++	c #BF8200",
"@+	c #A56600",
"#+	c #BA8000",
"$+	c #957100",
"%+	c #5E5200",
"&+	c #392800",
"*+	c #664F00",
"=+	c #EBB800",
"-+	c #F0BA00",
";+	c #BD8100",
">+	c #DCA300",
",+	c #AD6E00",
"'+	c #A86900",
")+	c #C58F00",
"!+	c #795A00",
"~+	c #6A6A6A",
"{+	c #424242",
"]+	c #564100",
"^+	c #F4C900",
"/+	c #FBC500",
"(+	c #D39900",
"_+	c #AB6E00",
":+	c #B27700",
"<+	c #DCA200",
"[+	c #AF7200",
"}+	c #AA6D00",
"|+	c #D5A000",
"1+	c #5A4300",
"2+	c #080808",
"3+	c #BDA300",
"4+	c #E8BB00",
"5+	c #D39A00",
"6+	c #DEA400",
"7+	c #AD7100",
"8+	c #BB8100",
"9+	c #DA9F00",
"0+	c #AD7000",
"a+	c #AF7400",
"b+	c #CF9C00",
"c+	c #2C2100",
"d+	c #8E8E8E",
"e+	c #8D7900",
"f+	c #D1A400",
"g+	c #B07600",
"h+	c #B07400",
"i+	c #DBA100",
"j+	c #B07500",
"k+	c #C58E00",
"l+	c #D59900",
"m+	c #B78000",
"n+	c #D6A300",
"o+	c #1F1700",
"p+	c #E8C600",
"q+	c #C49100",
"r+	c #B37A00",
"s+	c #BD8300",
"t+	c #D89E00",
"u+	c #B27900",
"v+	c #B27800",
"w+	c #D49F00",
"x+	c #C98D00",
"y+	c #B17700",
"z+	c #C18C00",
"A+	c #BF9000",
"B+	c #0F0B00",
"C+	c #2E2700",
"D+	c #F0C900",
"E+	c #BD8800",
"F+	c #B57D00",
"G+	c #C99100",
"H+	c #D09600",
"I+	c #B57C00",
"J+	c #B47C00",
"K+	c #B67E00",
"L+	c #DDA700",
"M+	c #BF8500",
"N+	c #B47B00",
"O+	c #CB9C00",
"P+	c #A27600",
"Q+	c #464646",
"R+	c #787878",
"S+	c #5D4F00",
"T+	c #EEC500",
"U+	c #BA8400",
"V+	c #B88100",
"W+	c #D49D00",
"X+	c #CA9000",
"Y+	c #BD8900",
"Z+	c #E1AB00",
"`+	c #BD8400",
" @	c #DAAC00",
".@	c #846000",
"+@	c #8B7500",
"@@	c #E6BB00",
"#@	c #BC8700",
"$@	c #BC8600",
"%@	c #DEA600",
"&@	c #C48C00",
"*@	c #BA8300",
"=@	c #C79400",
"-@	c #E1A800",
";@	c #BC8500",
">@	c #B98200",
",@	c #E3B300",
"'@	c #573D00",
")@	c #9A8100",
"!@	c #DBAE00",
"~@	c #C08D00",
"{@	c #E2A900",
"]@	c #BF8900",
"^@	c #CD9E00",
"/@	c #DFA100",
"(@	c #BB8600",
"_@	c #BF8C00",
":@	c #E6B200",
"<@	c #2B1D00",
"[@	c #5E5E5E",
"}@	c #100D00",
"|@	c #C8A600",
"1@	c #D5A700",
"2@	c #CA9A00",
"3@	c #BF8B00",
"4@	c #BE8A00",
"5@	c #DEB200",
"6@	c #D99E00",
"7@	c #BE8900",
"8@	c #DEB800",
"9@	c #734F00",
"0@	c #E4BC00",
"a@	c #D0A100",
"b@	c #C18F00",
"c@	c #D6A700",
"d@	c #C18E00",
"e@	c #ECBD00",
"f@	c #DD9B00",
"g@	c #E6A600",
"h@	c #392700",
"i@	c #2D2500",
"j@	c #E0B700",
"k@	c #CA9B00",
"l@	c #C49300",
"m@	c #DDAE00",
"n@	c #D69C00",
"o@	c #C39200",
"p@	c #E8BC00",
"q@	c #D89500",
"r@	c #5B4A00",
"s@	c #EDC100",
"t@	c #C89800",
"u@	c #C99A00",
"v@	c #E9BB00",
"w@	c #DDA500",
"x@	c #796200",
"y@	c #E6BA00",
"z@	c #CA9C00",
"A@	c #D6AD00",
"B@	c #AC7700",
"C@	c #0F0A00",
"D@	c #977900",
"E@	c #E8B400",
"F@	c #E6A800",
"G@	c #906300",
"H@	c #2B2B2B",
"I@	c #594400",
"J@	c #3A2B00",
"                                                                                                ",
"                                                                                                ",
"                .                                                                               ",
"              + @ # .                                                                           ",
"            + $ % & * .                                             . . . .                     ",
"            = % - ; > , '                                       . ) , ! ~ { .                   ",
"            . ] ^ / ( _ : <                                   [ } | 1 2 ] 3                     ",
"              4 / ( _ 5 6 7 8                               [ : 9 : 2 ] 3                       ",
"              . 0 a b c d e f                             . ~ 9 : 2 ] 3                         ",
"                g h i j k l m .                           ) | : 2 @ n                           ",
"                . o p q r s t '                         . u 1 2 @ v w             . x .         ",
"                  . y z A B ; q C                       . D 2 @ v | E .         . F > .         ",
"                      . G ( - H I .                     . z @ v | J K .       . F / > .         ",
"                        . * L M N O .                   . r v | J q P Q R S . F / > / .         ",
"                          . T U V % R .               . W 6 | J q P h p X b Y / > / ! .         ",
"                            . Z ` - c  .            . W 6 A ..2 +.h p 6 5 _ @.> / #.$.          ",
"                              %.7 ^ $ h <         . W 6 A &.K l *.c 6 5 _ @.> / #.W .           ",
"                                =.-.;.i &.>.    . W 6 A &.K l @ Y ,.5 _ @.> / #.W .             ",
"                                  '.).!.h ~.. . W 6 A &.K l @ | / / _ @.> i ! $..               ",
"                                  . G {.P ].^.$.6 A &.K l @ | / /.(.g . . . .                   ",
"                                    . _.Y :.l <.[.&.}.|.z | / /.(.g                             ",
"                                      . 1.A t 2.4 f 3.4.5.A /.(.g                               ",
"                                      . 6.7.&.8.|.9.0.a.b.) (.g                                 ",
"                                    . F c.d.e.f.g.h.i.j.k.l.g                                   ",
"                                  . W } m.$.n.o.p.q.r.s.t.. . .                                 ",
"                                . W 6 A u.v.w.x.y.z.A.B.C.D.E.F.G.                              ",
"                              . W 6 A &.H.I.x.J.K.L.M.N.O.P.Q.R.S.T.                            ",
"                            . W 6 A &.K U.V.W.X.Y.Z.N.`. +.+++@+#+$+.                           ",
"                    . . . . W 6 A &.K l z [ %+&+*+=+s.-+;+;+>+,+'+)+!+.                         ",
"                . = u D z r 6 A &.K l @ | X ~+{+]+^+/+(+_+_+:+<+[+}+|+1+.                       ",
"              [ ~ | 1 2 @ v | &.K l @ | / } E 2+3+4+5+6+:+7+7+8+9+0+a+b+c+                      ",
"            [ : 9 : 2 @ v | | K l @ | / /.d+2+. e+f+g+h+i+j+j+j+k+l+a+m+n+o+                    ",
"          . } 9 : 2 @ v | J q A @ | / /.(.g     3.p+q+r+s+t+u+u+v+w+x+y+z+A+B+                  ",
"          ) | : 2 @ v | J q P h c & ; (.g         C+D+E+F+G+H+I+J+K+L+M+N+O+P+.                 ",
"        . , (.2 ] [ Q+R+A P h p 6 5 _ g           . S+T+U+V+W+X+m+m+Y+Z+`+K+ @.@.               ",
"        . K 2 ] 3     . . Q p 6 5 _ @..             . +@@@#@$@%@&@*@*@=@-@;@>@,@'@.             ",
"        . v ] 3           F X 5 _ @.> .               . )@!@E+~@{@]@#@#@^@/@(@_@:@<@            ",
"        . [@3             n.5 _ @.> i .                 }@|@1@_@2@-@3@4@4@5@6@7@8@9@.           ",
"          .               . Y @.> / ! .                   }@0@a@b@c@i+d@d@d@e@f@g@h@            ",
"                          F / > / #.$.                      i@j@k@l@m@n@o@o@p@q@h@.             ",
"                        F / > / #._..                         r@s@t@u@v@Q.w@$@<@                ",
"                      F / > / #.W .                           . x@y@z@A@Y.B@C@                  ",
"                    x / > / ! $..                               . D@E@F@G@.                     ",
"                    . < H@. .                                     . I@J@.                       ",
"                                                                                                ",
"                                                                                                ",
"                                                                                                ",
"                                                                                                "};
