/* XPM */
static char * pageheader_xpm[] = {
"48 48 217 2",
"  	c None",
". 	c #B8C4DA",
"+ 	c #C3CEE1",
"@ 	c #B7C4DA",
"# 	c #B5C2D8",
"$ 	c #B4C1D8",
"% 	c #B3C0D7",
"& 	c #B2BFD7",
"* 	c #B0BDD5",
"= 	c #AFBDD5",
"- 	c #ACBAD3",
"; 	c #A9B8D1",
"> 	c #A6B5CF",
", 	c #A4B3CE",
"' 	c #A1B1CC",
") 	c #9DAECA",
"! 	c #98A9C5",
"~ 	c #95A6C2",
"{ 	c #90A1BD",
"] 	c #8C9DB9",
"^ 	c #8697B3",
"/ 	c #A6B4CE",
"( 	c #FFFFFF",
"_ 	c #FDFFFF",
": 	c #FBFEFF",
"< 	c #F8FBFF",
"[ 	c #F4F8FF",
"} 	c #F1F5FD",
"| 	c #EEF3FB",
"1 	c #E7EDF7",
"2 	c #E3E9F4",
"3 	c #DCE3F0",
"4 	c #D7DFED",
"5 	c #D0D9E9",
"6 	c #CAD4E5",
"7 	c #A5B4CF",
"8 	c #FEFFFF",
"9 	c #FCFFFF",
"0 	c #F9FCFF",
"a 	c #F5F9FF",
"b 	c #EDF2FB",
"c 	c #E6ECF6",
"d 	c #E2E9F4",
"e 	c #DBE3F0",
"f 	c #D6DEED",
"g 	c #CED7E8",
"h 	c #C7D1E3",
"i 	c #D2DBEA",
"j 	c #B9C5DB",
"k 	c #F6FAFF",
"l 	c #F2F6FE",
"m 	c #E9EEF8",
"n 	c #E4EAF5",
"o 	c #DFE6F2",
"p 	c #D8E0EE",
"q 	c #CBD5E6",
"r 	c #FAFDFF",
"s 	c #EFF3FC",
"t 	c #EAEFF9",
"u 	c #D4DCEB",
"v 	c #E5EBF6",
"w 	c #EEF2FB",
"x 	c #ECF1FA",
"y 	c #C0CBDF",
"z 	c #A81E1E",
"A 	c #BFCADE",
"B 	c #F5F8FF",
"C 	c #CFD8E8",
"D 	c #C1CCE0",
"E 	c #F6F9FF",
"F 	c #F3F7FE",
"G 	c #DAE1EF",
"H 	c #EBF0F9",
"I 	c #C6D1E3",
"J 	c #F7FAFF",
"K 	c #F0F4FC",
"L 	c #E1E7F3",
"M 	c #DAE2EF",
"N 	c #8E9FBB",
"O 	c #8F9EB9",
"P 	c #E5E5E5",
"Q 	c #E3E5E5",
"R 	c #E0E5E5",
"S 	c #E8EDF7",
"T 	c #DDE4F1",
"U 	c #D9E1EE",
"V 	c #CCD5E6",
"W 	c #C8D2E4",
"X 	c #9FAFCB",
"Y 	c #5B6C88",
"Z 	c #5F6474",
"` 	c #EDEEF1",
" .	c #9DA1AD",
"..	c #C3C6CD",
"+.	c #C9D3E5",
"@.	c #BBC7DC",
"#.	c #AEBCD4",
"$.	c #ABB9D2",
"%.	c #A3B2CD",
"&.	c #5D6E8A",
"*.	c #2F3036",
"=.	c #787A85",
"-.	c #B8BAC1",
";.	c #F8F8F8",
">.	c #F0F3F7",
",.	c #C6C8CD",
"'.	c #93959D",
").	c #595A5E",
"!.	c #9A9EA9",
"~.	c #E1E3E7",
"{.	c #B6C2D9",
"].	c #B1BED6",
"^.	c #A7B6D0",
"/.	c #60718D",
"(.	c #26272D",
"_.	c #606370",
":.	c #90949F",
"<.	c #BFC3C9",
"[.	c #C1C7D1",
"}.	c #A6A9B2",
"|.	c #80828D",
"1.	c #515257",
"2.	c #858996",
"3.	c #EFF4FC",
"4.	c #E2E8F4",
"5.	c #BDC8DD",
"6.	c #B6C3D9",
"7.	c #637490",
"8.	c #0A0A0A",
"9.	c #858A98",
"0.	c #DEE3E5",
"a.	c #DAE0E5",
"b.	c #D5DAE5",
"c.	c #BFCADA",
"d.	c #BAC5D7",
"e.	c #B1BDD1",
"f.	c #ACB8CE",
"g.	c #98A6C1",
"h.	c #778BAD",
"i.	c #7086AA",
"j.	c #6D82A8",
"k.	c #697FA4",
"l.	c #677DA4",
"m.	c #667793",
"n.	c #C5D0E2",
"o.	c #BAC6DB",
"p.	c #687995",
"q.	c #D8DEE5",
"r.	c #C5CEDE",
"s.	c #96A6C1",
"t.	c #8B9BBA",
"u.	c #8294B5",
"v.	c #8092B3",
"w.	c #798DAF",
"x.	c #7689AD",
"y.	c #7286AA",
"z.	c #BECADE",
"A.	c #BCC8DD",
"B.	c #6A7B97",
"C.	c #CDD6E7",
"D.	c #6C7D99",
"E.	c #CFD7E3",
"F.	c #C8D1E0",
"G.	c #C1CADA",
"H.	c #9FADC6",
"I.	c #94A4BF",
"J.	c #91A1BD",
"K.	c #889AB8",
"L.	c #8698B6",
"M.	c #7D91B1",
"N.	c #6E7F9B",
"O.	c #E9EFF8",
"P.	c #70819D",
"Q.	c #E1E5E5",
"R.	c #DCE1E5",
"S.	c #D7DEE5",
"T.	c #CCD3E1",
"U.	c #B5BFD3",
"V.	c #AAB6CC",
"W.	c #9AA8C3",
"X.	c #9BAAC5",
"Y.	c #8F9FBC",
"Z.	c #71829E",
"`.	c #DEE5F1",
" +	c #7384A0",
".+	c #E0E7F3",
"++	c #7485A1",
"@+	c #D5DCE5",
"#+	c #BFC8DA",
"$+	c #BDC6D8",
"%+	c #B6C1D5",
"&+	c #A6B3CA",
"*+	c #A3AFC8",
"=+	c #7586A2",
"-+	c #ADBACF",
";+	c #A8B5CC",
">+	c #9DACC5",
",+	c #7687A3",
"'+	c #C6CFDE",
")+	c #B8C3D5",
"!+	c #AFBACF",
"~+	c #A3B1C8",
"{+	c #D5DDEC",
"]+	c #DCDEE2",
"^+	c #7788A4",
"/+	c #505156",
"(+	c #888C99",
"_+	c #7889A5",
":+	c #C3CCDC",
"<+	c #B3BDD1",
"[+	c #798AA6",
"}+	c #D1D8E5",
"|+	c #CAD1E0",
"1+	c #7A8BA7",
"2+	c #B2BCCE",
"3+	c #7C8CA8",
"4+	c #0B0B0B",
"                                                                                                ",
"                                                                                                ",
"                        . + @ # $ % & * = - - ; > , ' ) ! ~ { ] ^ /                             ",
"                        . ( ( ( ( ( ( ( ( _ : < [ } | 1 2 3 4 5 6 7 /                           ",
"                        . ( ( ( ( ( ( ( ( 8 9 0 a } b c d e f g h 7 i /                         ",
"                        j ( ( ( ( ( ( ( ( ( 9 0 k l b m n o p i q 7 3 6 /                       ",
"                        . ( ( ( ( ( ( ( ( 8 9 r k [ s t c o e u g 7 v u + /                     ",
"                        j ( ( ( ( ( ( ( ( ( 8 : < [ } w m 2 o 4 5 7 x o 5 y /                   ",
"                        j ( ( ( ( z z z z z z z z z z z z z z z z 7 [ t 3 g A /                 ",
"                        j ( ( ( ( z z z z z z z z z z z z z z z z 7 9 B m 3 C A /               ",
"                        j ( ( ( ( z z z z z z z z z z z z z z z z 7 ( 9 l m 3 5 D /             ",
"                        j ( ( ( ( ( ( ( ( ( ( 9 : < E F w m n o G 7 ( ( 9 F H o i I /           ",
"                        j ( ( ( ( ( ( ( ( ( ( 8 9 : J F K t c L M 7 N N N N N N N N N O         ",
"                        j ( ( ( ( P P P P P P Q R r k F K x S L T U i V W D - > , X ) Y         ",
"                Z       j ( `  ...( ( ( ( ( ( 8 9 r J [ } x 1 n L 4 u C +.@.#.$.; > %.&.        ",
"              Z *.=.-.;.>.,.'.).!.~.( ( ( ( ( ( 9 : < a } x t v o M 4 i h {.].= - $.^./.        ",
"              Z (._.:.<.[.}.|.1.2.~.( ( ( ( ( ( _ : 0 J l 3.t c 4.3 p C 5.. 6.$ & * #.7.8.      ",
"                9.      j ( `  ...P P P P P P P R 0.a.b.F 3.c.d.e.f.g.h.i.j.k.l.@ $ & m.8.      ",
"                        j ( ( ( ( ( ( ( ( ( ( ( 8 : 0 E [ K x 1 d u +.n.D y 5.@.o.. 6.p.8.      ",
"                        o.( ( ( ( P P P P P P P Q R a.q.[ } r.f.s.t.u.v.w.x.x.y.z.A.o.B.8.      ",
"                        o.( ( ( ( ( ( ( ( ( ( ( 8 9 : [ b c o p 5 C.V W W n.n.+ D y z.D.8.      ",
"                        o.( ( ( ( P P P P P Q 0.q.E.F.G.S L H.I.J.J.t.K.L.u.v.M.n.+ D N.8.      ",
"                        o.( ( ( ( ( ( ( ( : 0 J k [ l O.T p f u i 5 5 C C.q 6 W h I n.P.8.      ",
"                        o.( ( ( ( P P Q.R 0.R.a.S.T.U.V.3 3 H.W.X.g.I.J.J.Y.t.K.6 W W Z.8.      ",
"                        o.( ( ( ( ( 8 8 9 9 : J O.d L o T 3 3 p 4 4 u i i 5 C C.V q +.Z.8.      ",
"                        o.( ( ( ( ( ( ( _ 8 [ m v n d L `.T 3 3 p p 4 f u i i 5 g C.V  +8.      ",
"                        o.( ( ( ( ( ( ( 8 F t m m v n d d .+`.3 M p p f u u i i 5 5 g ++8.      ",
"                        o.( ( ( ( P P P @+r.G.#+$+%+U.U.2 L V.f.&+*+*+H.H.X.g.g.i 5 5 =+8.      ",
"                        o.( ( ( ( P ( 9 | r.| t m 1 n %+d d -+f.;+&+&+*+H.>+X.g.u i 5 ,+8.      ",
"                9.      o.( `  ...P ( F 3.'+b x m m 1 )+v 2 !+f.f.;+&+~+*+H.>+W.{+i i ,+8.      ",
"              9.*.=.-.;.>.,.'.).!.]+0.T.F.'+'+G.#+$+d.d.v n e.-+f.;+;+&+~+H.>+X.{+u u ^+8.      ",
"              9.(._.:.<.[.}.|./+(+]+k l K '+| H m m 1 d.c v U.!+!+f.&+&+*+*+H.>+u u u ^+8.      ",
"                9.      o.( `  ...P F } 3.F.| x H m m d.1 v %+!+!+f.;+&+~+*+H.X.{+f u _+8.      ",
"                        o.( ( ( ( 0.E.T.F.'+'+:+#+#+$+d.1 v <+e.!+f.V.&+&+~+H.H.f f u _+8.      ",
"                        o.( ( ( ( q.F } 3.'+x H t t m $+1 c U.U.-+f.f.;+&+~+H.H.4 f {+[+8.      ",
"                        o.( ( ( ( }+} } 3.'+| | t t m d.1 c v 2 L o `.T 3 M G 4 4 f {+[+8.      ",
"                        o.( ( ( ( E.T.|+F.'+'+:+G.#+$+d.1 c n 2 L o `.3 3 G p 4 4 f {+[+8.      ",
"                        o.( ( ( ( E.} 3.| '+| H H t m d.1 c %+<+-+-+V.&+&+*+H.H.4 4 u [+8.      ",
"                        o.( ( ( 9 E.} 3.3.'+x H t t m d.1 c n d .+.+`.3 3 G p p 4 {+{+[+8.      ",
"                        o.( ( ( 0 T.T.F.'+r.:+G.#+$+d.d.1 v <+e.-+f.V.&+&+~+H.H.4 {+{+1+8.      ",
"                        o.( ( ( F K 3.3.| | x t t m m 1 1 c 2 d .+o T 3 M p p p f {+{+1+8.      ",
"                        o.( ( _ } } 3.3.| x H t t m 1 1 1 v 2 .+.+o T 3 M p p p f f f 1+8.      ",
"                        o.( ( B } } 3.3.| x H t m m 1 1 c v 2 .+o `.T 3 M p p 4 f f {+1+8.      ",
"                        o.( r } } 3.| | | H H m m m 1 c c n d .+o `.3 M M p p 4 f f {+1+8.      ",
"                        o.2+3+1+1+1+1+1+1+1+1+1+1+1+1+1+1+1+1+1+1+1+1+1+1+1+1+1+1+1+1+1+8.      ",
"                            8.4+4+4+4+4+4+4+4+4+4+4+4+4+4+4+4+4+4+4+4+4+4+4+4+4+4+4+4+8.        ",
"                              8.8.8.8.8.8.8.8.8.8.8.8.8.8.8.8.8.8.8.8.8.8.8.8.8.8.8.8.          ",
"                                                                                                "};
