/* XPM */
static char * merge2_xpm[] = {
"48 52 280 2",
"  	c None",
". 	c #000000",
"+ 	c #E6E6E6",
"@ 	c #E7E7E7",
"# 	c #E8E8E8",
"$ 	c #E9E9E9",
"% 	c #EAEAEA",
"& 	c #EBEBEB",
"* 	c #ECECEC",
"= 	c #EDEDED",
"- 	c #EEEEEE",
"; 	c #EFEFEF",
"> 	c #F0F0F0",
", 	c #F1F1F1",
"' 	c #F2F2F2",
") 	c #F3F3F3",
"! 	c #F4F4F4",
"~ 	c #B7B7B7",
"{ 	c #ADADAD",
"] 	c #AEAEAE",
"^ 	c #CFCFCF",
"/ 	c #F5F5F5",
"( 	c #F6F6F6",
"_ 	c #F7F7F7",
": 	c #B9B9B9",
"< 	c #AFAFAF",
"[ 	c #26272F",
"} 	c #F8F8F8",
"| 	c #14151B",
"1 	c #A1A6D2",
"2 	c #9DA1C7",
"3 	c #7E6858",
"4 	c #463625",
"5 	c #080604",
"6 	c #F9F9F9",
"7 	c #858AB0",
"8 	c #918289",
"9 	c #AA8C6C",
"0 	c #9A7C5A",
"a 	c #816E67",
"b 	c #393A46",
"c 	c #2C2C2C",
"d 	c #C3C3C3",
"e 	c #3C341E",
"f 	c #A28156",
"g 	c #CEB196",
"h 	c #8E7462",
"i 	c #9093BD",
"j 	c #9599BE",
"k 	c #72758D",
"l 	c #1C1D23",
"m 	c #696969",
"n 	c #E2E2E2",
"o 	c #FAFAFA",
"p 	c #3F3300",
"q 	c #EAD764",
"r 	c #93744E",
"s 	c #BEBAC6",
"t 	c #C6C9E1",
"u 	c #868CBE",
"v 	c #888DB9",
"w 	c #979BBC",
"x 	c #4C4E5E",
"y 	c #1E1E1E",
"z 	c #C5C5C5",
"A 	c #FBFBFB",
"B 	c #221B00",
"C 	c #FFE242",
"D 	c #E9CF4C",
"E 	c #ABACC4",
"F 	c #F7F8FB",
"G 	c #DFE1ED",
"H 	c #848AB9",
"I 	c #787EB0",
"J 	c #8C90B6",
"K 	c #7C7F99",
"L 	c #797979",
"M 	c #5F4C00",
"N 	c #FFDC2F",
"O 	c #B09521",
"P 	c #73789D",
"Q 	c #E7E8F1",
"R 	c #F6F6FA",
"S 	c #9599C0",
"T 	c #6B71A5",
"U 	c #757AA8",
"V 	c #9599BA",
"W 	c #424452",
"X 	c #1C1C1C",
"Y 	c #919191",
"Z 	c #B0B0B0",
"` 	c #B1B1B1",
" .	c #DCDCDC",
"..	c #FCFCFC",
"+.	c #EFC309",
"@.	c #B7950B",
"#.	c #64657B",
"$.	c #CBCDE0",
"%.	c #FFFFFF",
"&.	c #A9ADCA",
"*.	c #61679C",
"=.	c #5E6498",
"-.	c #8284A7",
";.	c #624D3B",
">.	c #171512",
",.	c #999999",
"'.	c #FDFDFD",
").	c #120E00",
"!.	c #BF9900",
"~.	c #CFA600",
"{.	c #686155",
"].	c #ABAECB",
"^.	c #CCCEDF",
"/.	c #616799",
"(.	c #745E58",
"_.	c #937151",
":.	c #7D5D3E",
"<.	c #271C12",
"[.	c #5C5C5C",
"}.	c #7F6600",
"|.	c #EFC000",
"1.	c #998128",
"2.	c #8789A3",
"3.	c #EAEBF1",
"4.	c #998E92",
"5.	c #AB8B6D",
"6.	c #AE8F71",
"7.	c #9C7C5C",
"8.	c #846346",
"9.	c #56586A",
"0.	c #888888",
"a.	c #B2B2B2",
"b.	c #DDDDDD",
"c.	c #FEFEFE",
"d.	c #EFC613",
"e.	c #F4CC1C",
"f.	c #555162",
"g.	c #997B61",
"h.	c #D8BBA1",
"i.	c #C7A98D",
"j.	c #9D7C5D",
"k.	c #9C95A6",
"l.	c #A0A5C8",
"m.	c #222327",
"n.	c #9B9B9B",
"o.	c #C7C7C7",
"p.	c #2E2B1E",
"q.	c #AF8C00",
"r.	c #0F0C00",
"s.	c #504130",
"t.	c #C1A486",
"u.	c #C8AA8E",
"v.	c #978581",
"w.	c #B7BCDF",
"x.	c #AFB4DB",
"y.	c #A8ADD0",
"z.	c #9194B3",
"A.	c #2F313B",
"B.	c #5D5D5D",
"C.	c #7B7B7B",
"D.	c #6C6C6C",
"E.	c #271F17",
"F.	c #806B5B",
"G.	c #D5D8EC",
"H.	c #FAFAFC",
"I.	c #D3D6EA",
"J.	c #B3B8DC",
"K.	c #B0B4D6",
"L.	c #9EA2C3",
"M.	c #2F2F2F",
"N.	c #DBDBDB",
"O.	c #818181",
"P.	c #1A1A1D",
"Q.	c #777B96",
"R.	c #D7DAED",
"S.	c #E7E9F4",
"T.	c #BBBFDE",
"U.	c #B6BBDB",
"V.	c #A3A7C7",
"W.	c #696B81",
"X.	c #131315",
"Y.	c #3E3E3E",
"Z.	c #373944",
"`.	c #B6BAD4",
" +	c #F1F2F8",
".+	c #CBCEE5",
"++	c #BBC0DD",
"@+	c #ADB1CF",
"#+	c #9E9E9E",
"$+	c #8D8D8D",
"%+	c #26272B",
"&+	c #898CA5",
"*+	c #DCDEEE",
"=+	c #E2E3F0",
"-+	c #BEC2DE",
";+	c #B6BAD6",
">+	c #9295B3",
",+	c #5F5F5F",
"'+	c #3F3F3F",
")+	c #515360",
"!+	c #C1C4D8",
"~+	c #F2F3F8",
"{+	c #F3F3F8",
"]+	c #CDD1E5",
"^+	c #BFC3DB",
"/+	c #A2A6C4",
"(+	c #8E8E8E",
"_+	c #27282B",
":+	c #8E91A6",
"<+	c #DFE1EF",
"[+	c #FBFBFD",
"}+	c #E2E4F0",
"|+	c #CED1E5",
"1+	c #A8ACC8",
"2+	c #9F9F9F",
"3+	c #393939",
"4+	c #3D3E46",
"5+	c #C7C9DA",
"6+	c #F2F2F8",
"7+	c #DEE0EE",
"8+	c #B4B7D0",
"9+	c #5F6276",
"0+	c #1C1D1E",
"a+	c #767882",
"b+	c #EAEBF4",
"c+	c #FBFBFC",
"d+	c #EDEEF5",
"e+	c #C7C9DC",
"f+	c #292A2C",
"g+	c #ACADB5",
"h+	c #F7F7FA",
"i+	c #D3D4E3",
"j+	c #D9D9D9",
"k+	c #4A4A4C",
"l+	c #D7D7DB",
"m+	c #FCFCFD",
"n+	c #E4E5EE",
"o+	c #66687A",
"p+	c #B5B5B5",
"q+	c #B0C3F1",
"r+	c #DFE7F9",
"s+	c #90ACEB",
"t+	c #CFDBF6",
"u+	c #1F1F1F",
"v+	c #5E5E5F",
"w+	c #DFDFDF",
"x+	c #EBECF2",
"y+	c #666771",
"z+	c #7F7F7F",
"A+	c #C0CFF4",
"B+	c #EFF3FC",
"C+	c #81A0E9",
"D+	c #517DE0",
"E+	c #A0B8EE",
"F+	c #494949",
"G+	c #727272",
"H+	c #0F0F0F",
"I+	c #D4D4D4",
"J+	c #A2A2A2",
"K+	c #575757",
"L+	c #979797",
"M+	c #C6C6C6",
"N+	c #A7A7A7",
"O+	c #9D9D9D",
"P+	c #131313",
"Q+	c #D2D2D2",
"R+	c #AAAAAA",
"S+	c #A1A1A1",
"T+	c #4D4D4D",
"U+	c #BABABA",
"V+	c #A3A3A3",
"W+	c #7E7E7E",
"X+	c #E4E4E4",
"Y+	c #A8A8A8",
"Z+	c #0A0A0A",
"`+	c #A9A9A9",
" @	c #CECECE",
".@	c #616161",
"+@	c #333333",
"@@	c #262626",
"                                                                                                ",
"                                                                                                ",
"                                                                                                ",
"                                                                                                ",
"                                                                                                ",
"                . . . . . . . . . . . . . . . . . . . . . . . . . . . . . . . . .               ",
"                . + + @ @ @ # # $ $ $ % % % & & * * * = = = - - ; ; ; > > > , , .               ",
"                . @ @ @ # # $ $ $ % % % & & * * * = = = - - ; ; ; > > > , , ' ' .               ",
"                . @ # # $ $ $ % % % & & * * * = = = - - ; ; ; > > > , , ' ' ' ) .               ",
"                . # $ $ $ % % % & & * * * = = = - - ; ; ; > > > , , ' ' ' ) ) ) .               ",
"                . $ $ % % % & & * * * = = = - - ; ; ; > > > , , ' ' ' ) ) ) ! ! .               ",
"                . % % % & ~ { { { ] ] ] ] ] ] ^ ; > > , , , ' ' ' ) ) ) ! ! ! / .               ",
"                . & & & * * * = = - - - ; ; ; > > , , , ' ' ' ) ) ) ! ! ! / / / .               ",
"                . & * * * = = - - - ; ; ; > > , , , ' ' ' ) ) ) ! ! ! / / / ( ( .               ",
"                . * * = = - - - ; ; ; > > , , , ' ' ' ) ) ) ! ! ! / / / ( ( ( _ .               ",
"                . = = - - : ] ] ] ] ] < < < < < < < < ) ! ! ! / / / ( ( ( _ _ _ .               ",
"    . [ [ .     . - - - ; ; > > > , , , ' ' ' ) ) ) ! ! ! / / / ( ( ( _ _ _ } } .               ",
"    | 1 2 3 4 5 . - ; ; > > > , , , ' ' ' ) ) ) ! ! ! / / / ( ( ( _ _ _ } } } 6 .               ",
"    . 7 8 9 0 a b c d > > , , , ' ' ' ) ) ) ! ! ! / / / ( ( ( _ _ _ } } } 6 6 6 .               ",
"      e f g h i j k l m n , ' ' ' ) ) ) ! ! ! / / / ( ( ( _ _ _ } } } 6 6 6 o o .               ",
"      p q r s t u v w x y z ' ) ) ) ! ! ! / / / ( ( ( _ _ _ } } } 6 6 6 o o o A .               ",
"      B C D E F G H I J K l L ) ! ! ! / / / ( ( ( _ _ _ } } } 6 6 6 o o o A A A .               ",
"        M N O P Q R S T U V W X Y Z Z Z Z Z Z Z Z Z Z ` ` ` ` ` ` `  .A A A .....               ",
"          p +.@.#.$.%.&.*.=.-.;.>.,.( ( ( _ _ _ } } } 6 6 6 o o o A A A ......'..               ",
"            ).!.~.{.].%.^./.(._.:.<.[.@ _ _ } } } 6 6 6 o o o A A A ......'.'.'..               ",
"              . }.|.1.2.3.4.5.6.7.8.9.X 0.` ` ` ` ` ` ` ` ` ` ` ` a.b.'.'.'.c.c..               ",
"                . p d.e.f.g.h.i.j.k.l.K m.n.6 6 o o o A A A ......'.'.'.c.c.c.%..               ",
"                . o.p.q.r.s.t.u.v.w.x.y.z.A.B.% o A A A ......'.'.'.c.c.c.%.%.%..               ",
"                . ( @ C.: D.E.F.G.H.I.J.K.L.x M.N.A ......'.'.'.c.c.c.%.%.%.%.%..               ",
"                . _ _ } ' ` O.P.Q.R.%.S.T.U.V.W.X.L a.a.a.a.a.} c.%.%.%.%.%.%.%..               ",
"                . } } } 6 6 6 % Y.Z.`. +H..+++@+K l #+'.c.c.c.%.%.%.%.%.%.%.%.%..               ",
"                . } 6 6 6 6 o o A $+%+&+*+%.=+-+;+>+[ ,+c.%.%.%.%.%.%.%.%.%.%.%..               ",
"                . 6 6 o o o A A A A  .'+)+!+~+{+]+^+/+b ,+; %.%.%.%.%.%.%.%.%.%..               ",
"                . o o o A A A A ......'.(+_+:+<+[+}+|+1+9.M.; %.%.%.%.%.%.%.%.%..               ",
"                . o A A / ` ` a.a.a.a.a.a.2+3+4+5+R 6+7+8+9+M.; %.%.%.%.%.%.%.%..               ",
"                . A A ........'.'.'.c.c.c.%.%.2+0+a+b+c+d+e+9+M.; %.%.%.%.%.%.} .               ",
"                . ......'.'.'.c.c.c.c.%.%.%.%.%.; ,+f+g+h+F i+9+M.; %.%.%.%.%.j+.               ",
"                . ..'.'.'.c.c.c.c.%.%.%.%.%.%.%.%.%.^ '+k+l+m+n+o+M.; %.%.%.%.p+.               ",
"                . '.'.c.c.c.q+r+%.%.%.%.s+t+%.%.%.q+%.%.< u+v+w+x+y+M.%.%.%. .z+.               ",
"                . c.c.c.%.A+%.%.%.%.%.B+C+C+A+D+s+A+E+C+A+t+2+M.F+G+H+%.o I+J+K+                ",
"                . c.%.%.%.A+%.q+s+s+E+r+%.t+B+B+%.t+%.%.B+%.%.%.< ,+L+M+Z N+O+P+                ",
"                . %.%.%.%.A+A+A+%.%.A+%.%.%.%.%.%.%.%.%.%.%.%.%.%.%.Q+a.R+S+T+.                 ",
"                . %.%.%.%.%.%.%.%.%.%.%.%.%.%.%.%.%.%.%.%.%.%.%.%.%.U+R+V+W+.                   ",
"                . %.%.%.%.%.%.%.%.%.%.%.%.%.%.%.%.%.%.%.%.%.%.%.%.X+Y+J+W+Z+                    ",
"                . %.%.%.%.%.%.%.%.%.%.%.%.%.%.%.%.%.%.%.%.%.%.%.= `+#+K+.                       ",
"                . %.%.%.%.%.%.%.%.%.%.%.%.%.%.%.%.%.%.%.%.%.'  @,..@X .                         ",
"                . '+'+'+'+'+'+'+'+'+'+'+'+'+'+'+'+'+'+'+'++@@@P+. .                             ",
"                                                                                                ",
"                                                                                                ",
"                                                                                                ",
"                                                                                                ",
"                                                                                                "};
