/* XPM */
static char * page_database_xpm[] = {
"42 40 222 2",
"  	c None",
". 	c #EAEAEA",
"+ 	c #CFCFCF",
"@ 	c #B3B3B3",
"# 	c #999999",
"$ 	c #808080",
"% 	c #686868",
"& 	c #595959",
"* 	c #3F3F3F",
"= 	c #3E3E3E",
"- 	c #3D3D3D",
"; 	c #777777",
"> 	c #898989",
", 	c #A3A3A3",
"' 	c #BABABA",
") 	c #CCCCCC",
"! 	c #E0E0E0",
"~ 	c #E7E7E7",
"{ 	c #B7B7B7",
"] 	c #8C8C8C",
"^ 	c #515151",
"/ 	c #4F4F4F",
"( 	c #545454",
"_ 	c #858585",
": 	c #9F9F9F",
"< 	c #AFAFAF",
"[ 	c #B4B4B4",
"} 	c #C5C5C5",
"| 	c #C4C4C4",
"1 	c #A0A0A0",
"2 	c #9B9B9B",
"3 	c #696969",
"4 	c #4C4C4C",
"5 	c #474747",
"6 	c #5B5B5B",
"7 	c #727272",
"8 	c #C6C6C6",
"9 	c #DFDFDF",
"0 	c #CACACA",
"a 	c #6A6A6A",
"b 	c #424242",
"c 	c #7C7C7C",
"d 	c #B5B5B5",
"e 	c #CECECE",
"f 	c #CDCDCD",
"g 	c #C9C9C9",
"h 	c #CBCBCB",
"i 	c #C3C3C3",
"j 	c #C8C8C8",
"k 	c #B8B8B8",
"l 	c #828282",
"m 	c #3A3A3A",
"n 	c #636363",
"o 	c #BFBFBF",
"p 	c #E8E8E8",
"q 	c #676767",
"r 	c #747474",
"s 	c #DADADA",
"t 	c #D3D3D3",
"u 	c #D0D0D0",
"v 	c #D4D4D4",
"w 	c #D2D2D2",
"x 	c #D7D7D7",
"y 	c #D9D9D9",
"z 	c #616161",
"A 	c #666666",
"B 	c #555555",
"C 	c #BBBBBB",
"D 	c #BCBCBC",
"E 	c #BEBEBE",
"F 	c #C1C1C1",
"G 	c #C0C0C0",
"H 	c #A5A5A5",
"I 	c #242424",
"J 	c #EBEBEB",
"K 	c #101010",
"L 	c #E3E3E3",
"M 	c #D1D1D1",
"N 	c #D8D8D8",
"O 	c #080808",
"P 	c #151515",
"Q 	c #C7C7C7",
"R 	c #6F6F6F",
"S 	c #191919",
"T 	c #9E9E9E",
"U 	c #E6E6E6",
"V 	c #4E4E4E",
"W 	c #8A8A8A",
"X 	c #C2C2C2",
"Y 	c #D5D5D5",
"Z 	c #757575",
"` 	c #7B7B7B",
" .	c #0E0E0E",
"..	c #DEDEDE",
"+.	c #373737",
"@.	c #FFFFFF",
"#.	c #ECECEC",
"$.	c #AAAAAA",
"%.	c #4D4D4D",
"&.	c #9A9A9A",
"*.	c #8D8D8D",
"=.	c #5C5C5C",
"-.	c #838383",
";.	c #131313",
">.	c #9C9C9C",
",.	c #A4A4A4",
"'.	c #575757",
").	c #E9E9E9",
"!.	c #989898",
"~.	c #404040",
"{.	c #2B2B2B",
"].	c #333333",
"^.	c #434343",
"/.	c #464646",
"(.	c #363636",
"_.	c #383838",
":.	c #343434",
"<.	c #4A4A4A",
"[.	c #707070",
"}.	c #878787",
"|.	c #1B1B1B",
"1.	c #B1B1B1",
"2.	c #F1F1F1",
"3.	c #F6F6F6",
"4.	c #FEFEFE",
"5.	c #FBFBFB",
"6.	c #F5F5F5",
"7.	c #D6D6D6",
"8.	c #B0B0B0",
"9.	c #979797",
"0.	c #969696",
"a.	c #939393",
"b.	c #919191",
"c.	c #A8A8A8",
"d.	c #A9A9A9",
"e.	c #A7A7A7",
"f.	c #949494",
"g.	c #888888",
"h.	c #818181",
"i.	c #737373",
"j.	c #6E6E6E",
"k.	c #6C6C6C",
"l.	c #1C1C1C",
"m.	c #8F8F8F",
"n.	c #FDFDFD",
"o.	c #FAFAFA",
"p.	c #F9F9F9",
"q.	c #FCFCFC",
"r.	c #F0F0F0",
"s.	c #E2E2E2",
"t.	c #B2B2B2",
"u.	c #9D9D9D",
"v.	c #7E7E7E",
"w.	c #767676",
"x.	c #8E8E8E",
"y.	c #222222",
"z.	c #3C3C3C",
"A.	c #F4F4F4",
"B.	c #F7F7F7",
"C.	c #F2F2F2",
"D.	c #DBDBDB",
"E.	c #959595",
"F.	c #868686",
"G.	c #797979",
"H.	c #787878",
"I.	c #7A7A7A",
"J.	c #505050",
"K.	c #B6B6B6",
"L.	c #ADADAD",
"M.	c #8B8B8B",
"N.	c #848484",
"O.	c #5F5F5F",
"P.	c #F3F3F3",
"Q.	c #F8F8F8",
"R.	c #E4E4E4",
"S.	c #DCDCDC",
"T.	c #B9B9B9",
"U.	c #AEAEAE",
"V.	c #7D7D7D",
"W.	c #111111",
"X.	c #000000",
"Y.	c #444444",
"Z.	c #EDEDED",
"`.	c #5E5E5E",
" +	c #7F7F7F",
".+	c #1F1F1F",
"++	c #585858",
"@+	c #EFEFEF",
"#+	c #ACACAC",
"$+	c #565656",
"%+	c #232323",
"&+	c #ABABAB",
"*+	c #3B3B3B",
"=+	c #4B4B4B",
"-+	c #909090",
";+	c #E1E1E1",
">+	c #EEEEEE",
",+	c #A1A1A1",
"'+	c #646464",
")+	c #484848",
"!+	c #0D0D0D",
"~+	c #1E1E1E",
"{+	c #303030",
"]+	c #414141",
"^+	c #454545",
"/+	c #494949",
"(+	c #0F0F0F",
"_+	c #929292",
":+	c #A2A2A2",
"<+	c #6D6D6D",
"[+	c #E5E5E5",
"}+	c #262626",
"|+	c #1D1D1D",
"1+	c #1A1A1A",
"2+	c #DDDDDD",
"3+	c #6B6B6B",
"4+	c #353535",
"5+	c #2D2D2D",
"6+	c #313131",
"7+	c #272727",
"8+	c #5A5A5A",
"9+	c #BDBDBD",
"                                                                                    ",
"                                                                                    ",
"                                                                                    ",
"                                                                                    ",
"                                                                                    ",
"                                                                                    ",
"                  . + @ # $ % & * * = - - = * * ; > , ' ) !                         ",
"          ~ { ] ^ / ( % _ : < [ } } | | | | } } 1 2 > 3 4 5 6 7 8 9                 ",
"      0 a b c d e + + f 0 g ) + h h h h h h h h g + ) i 8 e j k l m n o             ",
"  p q r o s 0 t i } g u v w 0 | ) ) ) ) ) ) ) ) g + w u t x u } y g ) z A ~ ~       ",
"  B C D } E f | w v t ) } | ) v ) ) ) ) ) ) ) ) + h } F G | g ) 8 t u v H I   J     ",
"  K ) v L j u f o | 0 f ) h ) e f f f f f f f f 0 h M N x + ) f 0 j E g s O E L     ",
"  P 3 j Q E y j N + Q j + w ) } h h h h h h h h + ) f + ) Q Q h M j J Q R S T C U   ",
"  r ] V W Q f 0 X 0 w M 0 Q ) w h h h h h h h h 8 Q j 0 f M v Y } F Z n `  .2 C ..  ",
"  +.@.#.$.^ %.; &.< j t + j g e f f f f f f f f u x x ) E $.*.r z =.-.3 # ;.>.,.y   ",
"  '.@.@.@.@.).' !.R ~.{.].^.5 ^././././././././.(._.:.].<.[.}.W ` ` R A >.|.-.1.x   ",
"  6 2.@.3.4.5.@.@.@.@.6.~ 7.F 8.!.9.0.0.0.0.a.b.c.d.$.e.: f.g.$ h.i.j.k.b.l.m.< N   ",
"  & n.@.@.o.p.q.q.@.@.@.@.@.4.o.o.3.r.).s.s t f G ' t.e.u.f.*.g.v.w.3 i.x.y.g.d.N   ",
"  z.@.. 3.@.A.@.3.q.@.q.o.n.@.@.B.C.J L D.w g i D [ d.T E.m.> F.G.H.I.[.> K *.{ N   ",
"  J.6.@.@.p.@.5.4.@.@.@.@.@.@.q.o.3.r.).L D.v + D K.L.H u.f.M.N.}.R r O.1 l.9., N   ",
"  +.P.@.C.@.Q.@.p.o.p.o.@.@.@.@.p.A.#.R.S.t h } G T.U.,.>.b.F.V.w.w.V.R *.W.> c.N   ",
"  X.Y.7.@.n.@.3.@.@.@.q.5.4.q.B.Q.A.Z.U ..7.e j G d c.T # a.] F.; }.R j.`.O  +E N   ",
"  .+0.++/.H ).@.2.q.@.@.@.@.@.@.P.@+. R...N M ) F k #+,.T 9.*.N._ w.( $+Z %+x.&+N   ",
"  %+B.C.#+$+*+=+j.-+k t ;+J 6.5.o.6.>+~ 9 7.e j @ #+,+!.*.` '+( )+6 W [.: !+a.&+N   ",
"  ~+o.@.Q.n.#.| a.j.Y.{+{++.]+<.Y.^+5 )+/+<.%.J.~.z.+.m /+n $ a.N.v.v.A f.(+0.&+x   ",
"  ;.! @.@.@.@.o.@.5.o.o.r.x E < >.>.&.9.f._+_+_+K.K.@ #+:+9.x.> -.3 <+<+&..+g.L.x   ",
"  W.@.J q.3.@.o.@.@.@.@.@.q.5.@.A.2.#.[+..x w + 1.8.#+H 2 m.N.v. +k.Z r m..+$ 1.x   ",
"  }+Y @.p.@.@.p.o.q.4.4.q.q.@.@.n.p.2.).! x + g F ' U.:+&.E._+-+ +` ; k.M.|+-+U.x   ",
"  K @.@.2.@.@.5.n.4.@.@.4.q.p.3.6.r.).;+s M j F o k < H 2 -+_ v.v.I.q 3 9.1+>.$.N   ",
"  1+P.>+@.@.#.@.@.@.q.p.n.@.@.@.5.3.@+. R.2+t ) ' [ &+,.T 9.m.g.w.G.[.H.M.!+> 1.N   ",
"  -+^.L n.3.@.@.p.@.@.@.@.4.6.J 6.r.).R.9 N f } 8 C &+T 0.-+> N.Z  +w.3+'+4+l { N   ",
"  . ,+5+7 d ).o.q.@.@.q.q.@.@.@.o.A.Z.~ L D.+ 8 C [ #+H : 0.W h.$ ` `.* /+W 2 t.y   ",
"      | H._.{+/+; 0.G ! >+C.3.o.p.6.@+~ 9 x M f ' d d.&.m.l k.++6+_.B ` *.a.d.j J   ",
"      L e L.m.l ( /++.7+y.{.- 4 6 8+8+++'.$+B B m ].I 1+%+z.$+n -.N.b.H < K.h [+    ",
"          9 j d @ d.>.f._+a.a._+*.*.*.x.x.m.m.m._ *.a.b.-+E.>.,+$.#+t.D 8 w L       ",
"          J ~ L 7.e i 9+C k @ L.U.L.#+&+$.d.d.c.#+t.K.@ U.L.1.d F 0 v 2+p           ",
"                    U 2+x t M u Y Y 7.x N N y y v M u M Y S.U   [+                  ",
"                                                              #.                    ",
"                                                                                    ",
"                                                                                    "};
