/* XPM */
static char * page_mask_xpm[] = {
"24 24 28 1",
" 	c None",
".	c #CBCBCB",
"+	c #9F9F9F",
"@	c #C4C4C4",
"#	c #D1D1D1",
"$	c #D5D5D5",
"%	c #DBDBDB",
"&	c #EDEDED",
"*	c #9E9E9E",
"=	c #000000",
"-	c #DCDCDC",
";	c #EFEFEF",
">	c #DFDFDF",
",	c #F3F3F3",
"'	c #A2A2A2",
")	c #E2E2E2",
"!	c #F6F6F6",
"~	c #A4A4A4",
"{	c #E3E3E3",
"]	c #F8F8F8",
"^	c #A5A5A5",
"/	c #E6E6E6",
"(	c #FCFCFC",
"_	c #A8A8A8",
":	c #E8E8E8",
"<	c #FFFFFF",
"[	c #AAAAAA",
"}	c #C1C1C1",
"                        ",
"                        ",
"                        ",
"                        ",
"                        ",
"                        ",
"  .+++++++++++++++++++@ ",
"  +#$%%%%%%%%%%%%%%%%%+ ",
"  +%&&&*=&*==*&====&&&+ ",
"  +-;;+==;=;;=;;;;=;;;+ ",
"  +>,,,,=,,,'=,,==',,,+ ",
"  +)!!!!=!!~=~!!!!=!!!+ ",
"  +{]]]]=]^=^]]=]]=]]]+ ",
"  +/((((=(=_(((=((=(((+ ",
"  +:<<<<=<====<[==[<<<+ ",
"  +:<<<<<<<<<<<<<<<<<<+ ",
"  @+++++++++++++++++++} ",
"                        ",
"                        ",
"                        ",
"                        ",
"                        ",
"                        ",
"                        "};
