/* XPM */
static char * page_table_xpm[] = {
"32 32 247 2",
"  	c None",
". 	c #3995E5",
"+ 	c #4EA4EB",
"@ 	c #4BA0E9",
"# 	c #489BE8",
"$ 	c #4597E6",
"% 	c #4293E4",
"& 	c #3F8FE2",
"* 	c #3B8AE0",
"= 	c #3886DE",
"- 	c #3582DD",
"; 	c #327DDB",
"> 	c #2E79D9",
", 	c #2B74D7",
"' 	c #2870D5",
") 	c #256BD3",
"! 	c #2167D2",
"~ 	c #1E63D0",
"{ 	c #1B5ECE",
"] 	c #185ACC",
"^ 	c #1455CA",
"/ 	c #1151C8",
"( 	c #0E4CC7",
"_ 	c #0A48C5",
": 	c #0844C3",
"< 	c #0641C1",
"[ 	c #053FBF",
"} 	c #033ABB",
"| 	c #0133A5",
"1 	c #6EBBF5",
"2 	c #8ACEFF",
"3 	c #85C9FF",
"4 	c #80C4FF",
"5 	c #7ABEFF",
"6 	c #74B8FF",
"7 	c #6EB2FF",
"8 	c #68ACFF",
"9 	c #61A6FF",
"0 	c #5BA0FF",
"a 	c #559AFF",
"b 	c #4E93FF",
"c 	c #488DFF",
"d 	c #4186FF",
"e 	c #3B80FF",
"f 	c #347AFF",
"g 	c #2E73FF",
"h 	c #276CFF",
"i 	c #2066FF",
"j 	c #1A5FFF",
"k 	c #1359FF",
"l 	c #0C52FF",
"m 	c #054BFF",
"n 	c #0349FF",
"o 	c #0347FD",
"p 	c #0231C5",
"q 	c #0032A4",
"r 	c #80C5FF",
"s 	c #7BBFFF",
"t 	c #76BAFF",
"u 	c #70B5FF",
"v 	c #6AAFFF",
"w 	c #64A9FF",
"x 	c #5EA3FF",
"y 	c #589DFF",
"z 	c #5297FF",
"A 	c #4C91FF",
"B 	c #458BFF",
"C 	c #3F84FF",
"D 	c #397EFF",
"E 	c #3277FF",
"F 	c #2C71FF",
"G 	c #256BFF",
"H 	c #1E64FF",
"I 	c #185EFF",
"J 	c #1157FF",
"K 	c #0B50FF",
"L 	c #044AFF",
"M 	c #0330D9",
"N 	c #84C8FF",
"O 	c #7BC0FF",
"P 	c #77BBFF",
"Q 	c #71B6FF",
"R 	c #6CB1FF",
"S 	c #67ABFF",
"T 	c #4F94FF",
"U 	c #498EFF",
"V 	c #4388FF",
"W 	c #3C82FF",
"X 	c #367BFF",
"Y 	c #3075FF",
"Z 	c #296FFF",
"` 	c #2368FF",
" .	c #1C62FF",
"..	c #165BFF",
"+.	c #0F55FF",
"@.	c #094FFF",
"#.	c #BFE1FF",
"$.	c #BDE0FF",
"%.	c #BBDEFF",
"&.	c #B9DBFF",
"*.	c #B7D9FF",
"=.	c #B4D6FF",
"-.	c #B1D4FF",
";.	c #AFD1FF",
">.	c #ACCEFF",
",.	c #A9CBFF",
"'.	c #A6C8FF",
").	c #A3C5FF",
"!.	c #A0C2FF",
"~.	c #9DBFFF",
"{.	c #9ABCFF",
"].	c #96B9FF",
"^.	c #93B6FF",
"/.	c #90B3FF",
"(.	c #8DB0FF",
"_.	c #89ACFF",
":.	c #85A8FF",
"<.	c #82A5FE",
"[.	c #7FA2FE",
"}.	c #7EA1FD",
"|.	c #7DA0FD",
"1.	c #7DA0FC",
"2.	c #768CE3",
"3.	c #3994E5",
"4.	c #FFFFFF",
"5.	c #818181",
"6.	c #D2D1DC",
"7.	c #FEFEFE",
"8.	c #FDFDFE",
"9.	c #FBFBFD",
"0.	c #FAFAFC",
"a.	c #F9F9FB",
"b.	c #F7F7FA",
"c.	c #F6F6FA",
"d.	c #F5F5F9",
"e.	c #E7E6EC",
"f.	c #3893E4",
"g.	c #F8F8FB",
"h.	c #F4F4F8",
"i.	c #E5E4EB",
"j.	c #3792E3",
"k.	c #E18515",
"l.	c #DE790E",
"m.	c #D56106",
"n.	c #F3F3F7",
"o.	c #E3E2E9",
"p.	c #3690E2",
"q.	c #FFFEFE",
"r.	c #FEF3CB",
"s.	c #FCE8A0",
"t.	c #F1F1F7",
"u.	c #E1E0E7",
"v.	c #368FE1",
"w.	c #FCDA74",
"x.	c #B0B0B0",
"y.	c #F0F0F6",
"z.	c #DFDEE6",
"A.	c #358EE0",
"B.	c #FBD157",
"C.	c #EFEFF5",
"D.	c #DDDCE4",
"E.	c #348CDF",
"F.	c #F6AF27",
"G.	c #FCFCFD",
"H.	c #F3F3F8",
"I.	c #F2F2F7",
"J.	c #EEEEF4",
"K.	c #DAD9E3",
"L.	c #338BDE",
"M.	c #EDEDF4",
"N.	c #D8D7E1",
"O.	c #3289DD",
"P.	c #FEFEFF",
"Q.	c #EBEBF3",
"R.	c #D6D5DF",
"S.	c #3188DC",
"T.	c #EAEAF2",
"U.	c #D4D3DE",
"V.	c #3186DB",
"W.	c #EEEEF5",
"X.	c #E9E9F2",
"Y.	c #3085DA",
"Z.	c #FBFBFC",
"`.	c #F6F6F9",
" +	c #E8E8F1",
".+	c #D0CEDA",
"++	c #2F83DA",
"@+	c #F9F9FC",
"#+	c #F1F1F6",
"$+	c #E6E6F0",
"%+	c #CFCDD9",
"&+	c #2E82D9",
"*+	c #F4F4F9",
"=+	c #E5E5EF",
"-+	c #CECDD9",
";+	c #2D81D8",
">+	c #E4E4EF",
",+	c #2C7FD7",
"'+	c #EFEFF6",
")+	c #ECECF3",
"!+	c #E7E7F0",
"~+	c #E3E3EE",
"{+	c #CECCD9",
"]+	c #2C7ED6",
"^+	c #E2E2ED",
"/+	c #CDCCD9",
"(+	c #2B7CD5",
"_+	c #E0E0EC",
":+	c #2A7BD4",
"<+	c #E6E6EF",
"[+	c #DFDFEC",
"}+	c #CDCBD8",
"|+	c #2979D3",
"1+	c #F2F2F5",
"2+	c #F0F0F3",
"3+	c #EEEEF2",
"4+	c #ECECF0",
"5+	c #EBEAEF",
"6+	c #E9E8ED",
"7+	c #E1E0E8",
"8+	c #DDDCE5",
"9+	c #DBDAE3",
"0+	c #D8D6E0",
"a+	c #D6D4DF",
"b+	c #D4D3DD",
"c+	c #D0CFDA",
"d+	c #CFCEDA",
"e+	c #C8C7D4",
"f+	c #2878D2",
"g+	c #2674CF",
"h+	c #2470CD",
"i+	c #226DCB",
"j+	c #2069C8",
"k+	c #1D65C6",
"l+	c #1B62C3",
"m+	c #195EC1",
"n+	c #175ABE",
"o+	c #1556BC",
"p+	c #1352B9",
"q+	c #114FB7",
"r+	c #0E4BB5",
"s+	c #0C47B2",
"t+	c #0A44B0",
"u+	c #0840AD",
"v+	c #063CAB",
"w+	c #0438A8",
"x+	c #0235A6",
"                                                                ",
"                                                                ",
"  . + @ # $ % & * = - ; > , ' ) ! ~ { ] ^ / ( _ : < [ } |       ",
". 1 2 3 4 5 6 7 8 9 0 a b c d e f g h i j k l m n n n o p q     ",
". 2 3 r s t u v w x y z A B C D E F G H I J K L n n n n M q     ",
". N 4 O P Q R S 9 0 a T U V W X Y Z `  ...+.@.n n n n n M q     ",
". #.$.%.&.*.=.-.;.>.,.'.).!.~.{.].^./.(._.:.<.[.}.}.|.1.2.q     ",
"3.4.4.4.4.4.4.4.4.4.4.4.4.5.6.4.4.4.4.4.7.8.9.0.a.b.c.d.e.q     ",
"f.4.4.4.4.4.4.4.4.4.4.4.4.5.6.4.4.4.4.7.8.9.0.a.g.c.d.h.i.q     ",
"j.4.4.4.k.k.k.k.l.m.4.4.4.5.6.4.4.4.7.8.9.0.a.g.c.d.h.n.o.q     ",
"p.4.4.4.k.q.q.r.s.m.4.4.4.5.6.4.4.5.5.5.5.5.5.5.5.5.n.t.u.q     ",
"v.4.4.4.k.q.r.s.w.m.4.4.4.5.6.4.7.x.x.x.x.x.x.x.x.x.t.y.z.q     ",
"A.4.4.4.k.r.s.w.B.m.4.4.4.5.6.7.8.9.0.a.g.b.d.h.n.t.y.C.D.q     ",
"E.4.4.4.l.s.w.B.F.m.4.4.4.5.6.8.G.0.a.g.b.d.h.H.I.y.C.J.K.q     ",
"L.4.4.4.m.m.m.m.m.m.4.4.4.5.6.G.0.a.g.b.d.h.H.I.y.C.J.M.N.q     ",
"O.4.4.4.4.4.4.4.4.4.4.4.P.5.6.0.a.5.5.5.5.5.5.5.5.5.M.Q.R.q     ",
"S.4.4.4.4.4.4.4.4.4.4.P.8.5.6.a.g.x.x.x.x.x.x.x.x.x.Q.T.U.q     ",
"V.4.4.4.4.4.4.4.4.4.P.8.G.5.6.g.b.d.h.H.I.y.C.W.M.Q.T.X.6.q     ",
"Y.4.4.4.k.k.k.k.l.m.8.G.Z.5.6.b.`.h.H.I.y.C.W.M.Q.T.X. +.+q     ",
"++4.4.4.k.q.q.r.s.m.G.Z.@+5.6.`.h.H.I.#+C.W.M.Q.T.X. +$+%+q     ",
"&+4.4.4.k.q.r.s.w.m.Z.@+g.5.6.*+H.5.5.5.5.5.5.5.5.5.$+=+-+q     ",
";+4.4.4.k.r.s.w.B.m.@+g.b.5.6.H.I.x.x.x.x.x.x.x.x.x.=+>+-+q     ",
",+4.4.4.l.s.w.B.F.m.g.b.`.5.6.I.#+'+W.M.)+T.X. +!+=+>+~+{+q     ",
"]+4.4.4.m.m.m.m.m.m.b.`.*+5.6.#+'+W.M.)+T.X. +!+=+>+~+^+/+q     ",
"(+4.4.4.8.G.Z.0.g.b.`.d.H.5.6.'+W.M.)+T.X. +!+=+>+~+^+_+/+q     ",
":+4.4.8.G.Z.0.g.b.`.d.H.I.5.6.W.M.)+T.X. +!+<+>+~+^+_+[+}+q     ",
"|+1+2+3+4+5+6+e.i.o.7+z.8+9+6.0+a+b+6.c+d+%+-+-+{+/+/+}+e+q     ",
"f+g+h+i+j+k+l+m+n+o+p+q+r+s+t+u+v+w+x+q q q q q q q q q q q     ",
"                                                                ",
"                                                                ",
"                                                                ",
"                                                                "};
