/* XPM */
static char * page_number_xpm[] = {
"24 24 13 1",
" 	c None",
".	c #000000",
"+	c #F9F3DD",
"@	c #EED680",
"#	c #93844E",
"$	c #7D7042",
"%	c #6D6139",
"&	c #F7ECC6",
"*	c #B4A160",
"=	c #887948",
"-	c #665B36",
";	c #F8F0D3",
">	c #F5E6B5",
"                        ",
"                        ",
"             ...        ",
"            .+@@.       ",
"            .#$%.       ",
"            .&*=.       ",
"            .*=-.       ",
"            .&*-...     ",
"            .*=.+@@.    ",
"            .&*.#$%.    ",
"            .*=.&*=.    ",
"            .&*.*=-.    ",
"            .*=.&*=.    ",
"            .;*.*=-.    ",
"            .*=.;*=.    ",
"     ...    .>*.*=-.    ",
"    .+@@.    ...>*=.    ",
"    .#$%. ...   ...     ",
"     .....+@@.          ",
"         .#$%.          ",
"          ...           ",
"                        ",
"                        ",
"                        "};
