/* XPM */
static char * pdf_xpm[] = {
"24 24 261 2",
"  	c None",
". 	c #C4D0E5",
"+ 	c #D2DCEC",
"@ 	c #D3DCEB",
"# 	c #D3DCEC",
"$ 	c #D1DBEB",
"% 	c #CFD9EB",
"& 	c #CBD6EA",
"* 	c #B9C5DB",
"= 	c #FCFFFF",
"- 	c #FFFFFF",
"; 	c #FFF5F4",
"> 	c #FCA797",
", 	c #FBA495",
"' 	c #FAE8E4",
") 	c #FEFFFF",
"! 	c #F7FBFF",
"~ 	c #EDF4FE",
"{ 	c #E0E8F6",
"] 	c #CCD7EC",
"^ 	c #C8D3E4",
"/ 	c #FDFFFF",
"( 	c #FCAB9D",
"_ 	c #F83816",
": 	c #F83715",
"< 	c #EBBCB4",
"[ 	c #F7FCFF",
"} 	c #EEF5FE",
"| 	c #E2E9F7",
"1 	c #CDD7EB",
"2 	c #E3EBF8",
"3 	c #C6D1E4",
"4 	c #FB8C77",
"5 	c #F8310E",
"6 	c #E6B4AB",
"7 	c #FBFEFF",
"8 	c #F3F9FF",
"9 	c #E6EDFA",
"0 	c #D1DBED",
"a 	c #F0F3F9",
"b 	c #EAF0FC",
"c 	c #CAD4E7",
"d 	c #FC9583",
"e 	c #E6B4AC",
"f 	c #F6FAFF",
"g 	c #E9F0FC",
"h 	c #EBEFF6",
"i 	c #F1F6FC",
"j 	c #E2EAF8",
"k 	c #C4CFE3",
"l 	c #FDC2B8",
"m 	c #F73513",
"n 	c #E6B6AE",
"o 	c #F8FCFF",
"p 	c #EDF3FE",
"q 	c #D6E0F0",
"r 	c #B4C1D7",
"s 	c #ACBBD2",
"t 	c #AAB8D1",
"u 	c #A6B6D0",
"v 	c #99A9C4",
"w 	c #F95335",
"x 	c #F54425",
"y 	c #EAC3BC",
"z 	c #F9FDFF",
"A 	c #F0F5FF",
"B 	c #E8EFFC",
"C 	c #CFD9EC",
"D 	c #BCC9E1",
"E 	c #B6C4DD",
"F 	c #A5B5D1",
"G 	c #6E7C94",
"H 	c #FB8873",
"I 	c #F73615",
"J 	c #ECA194",
"K 	c #FEFEFE",
"L 	c #FAFEFF",
"M 	c #F2F8FF",
"N 	c #EAF1FC",
"O 	c #DDE6F4",
"P 	c #C8D3E8",
"Q 	c #C0CDE3",
"R 	c #BDCAE2",
"S 	c #ACBBD6",
"T 	c #6E7C93",
"U 	c #FA7C66",
"V 	c #F45235",
"W 	c #F4F4F4",
"X 	c #F2F8FE",
"Y 	c #E4EBF8",
"Z 	c #D4DEEF",
"` 	c #CAD5E9",
" .	c #C7D2E7",
"..	c #C5D1E6",
"+.	c #B2C0DA",
"@.	c #FFFDFC",
"#.	c #F8492A",
"$.	c #F73917",
"%.	c #EF9B8C",
"&.	c #F8F8F9",
"*.	c #F4F9FE",
"=.	c #E4ECFA",
"-.	c #D9E3F3",
";.	c #D5DEEF",
">.	c #CED9EC",
",.	c #CCD8EB",
"'.	c #B8C6DE",
").	c #FEE2DD",
"!.	c #F63F1E",
"~.	c #ED8D7C",
"{.	c #F5563A",
"].	c #F35336",
"^.	c #E9CBCA",
"/.	c #E7EEFA",
"(.	c #DFE8F6",
"_.	c #DCE5F4",
":.	c #DAE2F2",
"<.	c #D6E0F1",
"[.	c #D3DDF0",
"}.	c #D2DCEE",
"|.	c #BDCAE1",
"1.	c #FCB2A5",
"2.	c #F44C2F",
"3.	c #ECC5BE",
"4.	c #F7B1A5",
"5.	c #E87A6A",
"6.	c #E2DDE7",
"7.	c #E3EBF9",
"8.	c #E1E9F7",
"9.	c #DEE6F5",
"0.	c #DBE4F4",
"a.	c #D8E2F2",
"b.	c #D7E0F1",
"c.	c #FFFAF9",
"d.	c #FA7158",
"e.	c #F1674F",
"f.	c #ECEEEF",
"g.	c #F4F8FE",
"h.	c #F57865",
"i.	c #F73817",
"j.	c #E4948B",
"k.	c #E7D9E1",
"l.	c #E6D4DB",
"m.	c #E4D2DB",
"n.	c #DFE5F3",
"o.	c #DBE5F4",
"p.	c #FED8D2",
"q.	c #F95134",
"r.	c #EBA194",
"s.	c #F0F4F5",
"t.	c #F5F5F9",
"u.	c #F4ADA4",
"v.	c #F74021",
"w.	c #F53D1D",
"x.	c #F16752",
"y.	c #F46049",
"z.	c #F36049",
"A.	c #E1B9BB",
"B.	c #DDE5F4",
"C.	c #C6D1E6",
"D.	c #FCA899",
"E.	c #F73F1F",
"F.	c #E6CFCB",
"G.	c #F5ADA1",
"H.	c #F76D56",
"I.	c #F65134",
"J.	c #EF5D45",
"K.	c #F44527",
"L.	c #F63715",
"M.	c #F04F35",
"N.	c #F53A1A",
"O.	c #DC9B96",
"P.	c #DBE2F0",
"Q.	c #C7D3E7",
"R.	c #FCE4DF",
"S.	c #FA6B52",
"T.	c #F63D1D",
"U.	c #F35235",
"V.	c #F26047",
"W.	c #EA9B8E",
"X.	c #E3D9DC",
"Y.	c #E8EDF4",
"Z.	c #F0E0E4",
"`.	c #F56C57",
" +	c #F35338",
".+	c #EA6956",
"++	c #D3D3DE",
"@+	c #E0E7F6",
"#+	c #E0E8F7",
"$+	c #C8D4E8",
"%+	c #D59C9F",
"&+	c #F97963",
"*+	c #F64B2D",
"=+	c #F07863",
"-+	c #ECBAB1",
";+	c #ECE5E4",
">+	c #F0F5F9",
",+	c #F4F9FF",
"'+	c #F0F6FF",
")+	c #EDEDF6",
"!+	c #E8D4DA",
"~+	c #DFDFE9",
"{+	c #E2E9F6",
"]+	c #C9D4E8",
"^+	c #EF472C",
"/+	c #F63918",
"(+	c #EE7B67",
"_+	c #EFE3E1",
":+	c #F7FBFC",
"<+	c #F8FDFE",
"[+	c #EEF4FF",
"}+	c #EBF1FD",
"|+	c #E8EFFB",
"1+	c #E5ECFA",
"2+	c #F1300E",
"3+	c #D0290C",
"4+	c #CB6C62",
"5+	c #F3573B",
"6+	c #EACAC4",
"7+	c #F9FAFA",
"8+	c #F8FDFF",
"9+	c #F6FBFF",
"0+	c #F2F7FF",
"a+	c #EEF4FE",
"b+	c #EAF1FD",
"c+	c #E3EAF8",
"d+	c #F7310E",
"e+	c #B4240B",
"f+	c #B5240A",
"g+	c #E93D21",
"h+	c #E9AEA3",
"i+	c #FBFEFE",
"j+	c #F9FEFF",
"k+	c #F5FAFF",
"l+	c #ECF3FE",
"m+	c #E4ECF9",
"n+	c #C9D4E9",
"o+	c #E72E0D",
"p+	c #ED2F0D",
"q+	c #C97F7B",
"r+	c #F0F0EF",
"s+	c #ECF2FE",
"t+	c #E1E8F7",
"u+	c #C9D5E9",
"v+	c #B3BFD2",
"w+	c #DAE3EC",
"x+	c #E0E5EC",
"y+	c #DDE4EC",
"z+	c #DCE4EC",
"A+	c #DBE3EC",
"B+	c #D9E1EC",
"C+	c #D8E0EC",
"D+	c #D6DFEC",
"E+	c #D5DEEC",
"F+	c #D2DBEB",
"G+	c #D0DAEA",
"H+	c #CED8E8",
"I+	c #CCD6E7",
"J+	c #CBD5E6",
"K+	c #CAD4E6",
"L+	c #B8C5DB",
"          . + @ # # @ # # $ % & *               ",
"          . = - ; > , ' ) ! ~ { ] ^             ",
"          . / - ( _ : < ) [ } | 1 2 3           ",
"          . / - 4 5 5 6 - 7 8 9 0 a b c         ",
"          . / - d 5 5 e - / f g 0 h i j k       ",
"          . / - l 5 m n - ) o p q r s t u v     ",
"          . / - - w x y - ) z A B j C D E F G   ",
"          . / - - H I J K - L M N O P Q R S T   ",
"          . / - - U 5 V W - / X Y Z `  ...+.G   ",
"          . / - @.#.x $.%.&.*.=.-.;.0 >.,.'.G   ",
"          . / - ).!.~.{.].^./.(._.:.<.[.}.|.G   ",
"          . / - 1.2.3.4.m 5.6.7.8.9.0.a.b.Q G   ",
"          . / c.d.e.f.g.h.i.j.k.l.m.n.O o.. G   ",
"          . / p.q.r.s.t.u.v.w.x.y.z.A.B.9.C.G   ",
"          . / D.E.F.G.H.I.J.K.L.M.N.O.P.{ Q.G   ",
"          . R.S.T.U.V.W.X.Y.Z.`. +.+++@+#+$+G   ",
"          %+&+*+=+-+;+>+,+M '+)+!+~+{+j j ]+G   ",
"        5 ^+/+(+_+:+<+[ ,+M '+[+}+|+1+j j ]+G   ",
"      2+3+4+5+6+7+L 8+9+,+0+'+a+b+|+1+c+j $+T   ",
"    d+e+f+g+h+W i+j+o k+,+0+'+l+N /.m+j 8.n+G   ",
"    d+o+p+q+r+K L j+o k+,+M '+s+b /.m+j t+u+G   ",
"          v+w+x+y+z+A+B+C+D+E+F+G+H+I+J+K+L+G   ",
"            G G G G G G G G G G G G G G G G     ",
"                                                "};
