/* XPM */
static char * pizza_xpm[] = {
"94 94 70 1",
" 	c None",
".	c #E6E6E6",
"+	c #4A4C4A",
"@	c #B4B6B4",
"#	c #FFFFFF",
"$	c #FFFAFF",
"%	c #F6F6F6",
"&	c #F6F2F6",
"*	c #000000",
"=	c #838183",
"-	c #737173",
";	c #737573",
">	c #7B757B",
",	c #7B797B",
"'	c #837D83",
")	c #7B7D7B",
"!	c #838583",
"~	c #8B858B",
"{	c #8B898B",
"]	c #8B8D8B",
"^	c #948D94",
"/	c #949194",
"(	c #949594",
"_	c #9C959C",
":	c #9C999C",
"<	c #A49DA4",
"[	c #9C9D9C",
"}	c #A4A1A4",
"|	c #525052",
"1	c #5A555A",
"2	c #525552",
"3	c #5A595A",
"4	c #5A5D5A",
"5	c #625D62",
"6	c #626162",
"7	c #6A656A",
"8	c #626562",
"9	c #6A696A",
"0	c #6A6D6A",
"a	c #736D73",
"b	c #524C52",
"c	c #EEEEEE",
"d	c #EEEAEE",
"e	c #8381FF",
"f	c #FF9194",
"g	c #FF8D94",
"h	c #FF8D8B",
"i	c #E6E2E6",
"j	c #6AC26A",
"k	c #73C273",
"l	c #DEDEDE",
"m	c #73C673",
"n	c #5A59B4",
"o	c #BD696A",
"p	c #BD656A",
"q	c #B46562",
"r	c #DEDADE",
"s	c #625DBD",
"t	c #5A5DBD",
"u	c #4A814A",
"v	c #417D41",
"w	c #4A7D4A",
"x	c #D5D6D5",
"y	c #4A484A",
"z	c #D5D2D5",
"A	c #4A444A",
"B	c #414441",
"C	c #413C41",
"D	c #414041",
"E	c #CDCECD",
".++++++++++++++++++++++++++++++++++++++++++++++++++++++++++++++++++++++++++++++++++++++++++++.",
"+@@@@@@@@@@@@@@@@@@@@@@@@@@@@@@@@@@@@@@@@@@@@@@@@@@@@@@@@@@@@@@@@@@@@@@@@@@@@@@@@@@@@@@@@@@@@+",
"+@##########################################################################################@+",
"+@#########################################################################################@@+",
"+@##$$$$$$$$$$$$$$$$$$$$$$$$$$$$$$$$$$$$$$$$$$$$$$$$$$$$$$$$$$$$$$$$$$$$$$$$$$$$$$$$$$$$$$$$@+",
"+@##$$$$$$$$$$$$$$$$$$$$$$$$$$$$$$$$$$$$$$$$$$$$$$$$$$$$$$$$$$$$$$$$$$$$$$$$$$$$$$$$$$$$$$$$@+",
"+@##%%%%%%%%%%%%%%%%%%%%%%%%%%%%%%%%%%%%%%%%%%%%%%%%%%%%%%%%%%%%%%%%%%%%%%%%%%%%%%%%%%%%%%%%@+",
"+@##%%%%%%%%%%%%%%%%%%%%%%%%%%%%%%%%%%%%%%%%%%%%%%%%%%%%%%%%%%%%%%%%%%%%%%%%%%%%%%%%%%%%%%%%@+",
"+@##%%%%%%%%%%%%%%%%%%%%%%%%%%%%%%%%%%%%%%%%%%%%%%%%%%%%%%%%%%%%%%%%%%%%%%%%%%%%%%%%%%%%%%%%@+",
"+@##%%%%%%%%%%%%%%%%%%%%%%%%%%%%%%%%%%%%%%%%%%%%%%%%%%%%%%%%%%%%%%%%%%%%%%%%%%%%%%%%%%%%%%%%@+",
"+@##%%%%%%%%%%%%%%%%%%%%%%%%%%%%%%%%%%%%%%%%%%%%%%%%%%%%%%%%%%%%%%%%%%%%%%%%%%%%%%%%%%%%%%%%@+",
"+@##%%%%%%%%%%%%%%%%%%%%%%%%%%%%%%%%%%%%%%%%%%%%%%%%%%%%%%%%%%%%%%%%%%%%%%%%%%%%%%%%%%%%%%%%@+",
"+@##&&&&&&&&*********************************************************************=&&&&&&&&&&@+",
"+@##&&&&&&&&*----;->;>;,>,,,,',')=)====!=~!~!{!{{{{]{^]^]//////((_(:(::::<:<[<[}}#&&&&&&&&&&@+",
"+@##&&&&&&&&*+||||12123133334354656666787877999909a0-a---->->;>>,,,,),')')='==~=~#&&&&&&&&&&@+",
"+@##&&&&&&&&*----;->;>;,;,,,,),')=)====!=!!~!{~{{{{^{^]^]//////_(_(:(::::[:<[<[}}#&&&&&&&&&&@+",
"+@##&&&&&&&&*b||||121231333353546566667878789999a9a0-a----;->;>;,,,,',')''='==!=~#&&&&&&&&&&@+",
"+@##&&&&&&&&*----;->;>;,>,,,,',')=)====!=~!~!{!{{{{]{^]^]//////((_(:(::::<:<[<[}}#&&&&&&&&&&@+",
"+@##cccccccc*+||||12123133334354656666787877999909a0-a---->->;>>,,,,),')')='==~=~#cccccccccc@+",
"+@##cccccccc*----;->;>;,;,,,,),')=)====!=!!~!{~{{{{^{^]^]//////_(_(:(::::[:<[<[}}#cccccccccc@+",
"+@##cccccccc*b||||121231333353546566667878789999a9a0-a----;->;>;,,,,',')''='==!=~#cccccccccc@+",
"+@##cccccccc*----;->;>;,>,,,,',')=)====!=~!~!{!{{{{]{^]^]//////((_(:(::::<:<[<[}}#cccccccccc@+",
"+@##cccccccc*+||||12123133334354656666787877999909a0-a---->->;>>,,,,),')')='==~=~#cccccccccc@+",
"+@##cccccccc*----;->;>;,;,,,,),')=)====!=!!~!{~{{{{^{^]^]//////_(_(:(::::[:<[<[}}#cccccccccc@+",
"+@##dddddddd*b||||121231333353546566667878789999a9a0-a----;->;>;,,,,',')''='==!=~#dddddddddd@+",
"+@##dddddddd*----;->;>;,>,,,,',')=)====!=~!~!{!{{{{]{^]^]//////((_(:(::::<:<[<[}}#dddddddddd@+",
"+@##dddddddd*+||||12123133334354656666787877999909a0-a---->->;>>,,,,),')')='==~=~#dddddddddd@+",
"+@##dddddddd*----;->;>;,;,,,,),')=)====!=!=~!~!~!{{{{]{^]//////_(_(:(::::[:<[<[}}#dddddddddd@+",
"+@##dddddddd*b||||1212313333535465666686eeeeeeeefgfhfgf0aa-->->;,,,,',')''='==!=~#dddddddddd@+",
"+@##dddddddd*----;->;>;,>,,,,',')=)eeeeeeeeeeeeehghghghghghg{^]//_(:(::::<:<[<[}}#dddddddddd@+",
"+@##........*+||||12123133334354eeeeeeeeeeeeeeeefhfgfhfgfhfgfhf->;,,),')')='==~=~#..........@+",
"+@##........*----;->;>;,;,,,,eeeeeeeeeeeeeeeeeeehghghghghghghghghg^//_:::[:<[<[}}#..........@+",
"+@##........*b||||121231333eeeeeeeeeeeeeeeeeeeeefgfhfgfhfgfhfgfhfgfh->),''='==!=~#..........@+",
"+@##........*----;->;>;,>eeeeeeeeeeeeeeeeeeeeeeehghghghghghghghghghghg](_[:<[<[}}#..........@+",
"+@##........*+||||121231eeeeeeeeeeeeeeeeeeeeeeeefhfgfhfgfhfgfhfgfhfgfhfa>,''==~=~#..........@+",
"+@##........*----;->;>;eeeeeeeeeeeeeeeeeeeeeeeeehghghghghghghghghghghghg=/_[[<[}}#..........@+",
"+@##iiiiiiii*b||||1212eeeeeeeeeeeeeeeeeeeeeeeeeefgfhfgfhfgfhfgfhfgfhfgfhf9>)==!=~#iiiiiiiiii@+",
"+@##iiiiiiii*----;->;eeeeeeeeeeeeeeeeeeeeeeeeeeehghghghghghghghghghghghghg=/:<[}}#iiiiiiiiii@+",
"+@##iiiiiiii*+||||12eeeeeeeeeeeeeeeeeeeeeeeeeeeefhfgfhfgfhfgfhfgfhfgfhfgfhf9,)==~#iiiiiiiiii@+",
"+@##iiiiiiii*----;->eeeeeeeeeeeeeeeeeeeeeeeeeeeehghghghghghghghghghghghghgh,!(:}}#iiiiiiiiii@+",
"+@##iiiiiiii*b||||1eeeeeeeeeeeeeeeeeeeeeeeeeeeejfgfhfgfhfgfhfgfhfgfhfgfhfgfh7-'=~#iiiiiiiiii@+",
"+@##iiiiiiii*----;-eeeeeeeeeeeeeeeeeeeeeeeeejkjkjkhghghghghghghghghghghghghga!/<}#iiiiiiiiii@+",
"+@##llllllll*+||||1eeeeeeeeeeeeeeeeeeeeeeemkmjmkmjmgfhfgfhfgfhfgfhfgfhfgfhfg38>'~#llllllllll@+",
"+@##llllllll*----;-eeeeeeeeeeeeeeeeeeeekjkjkjkjkjkjkhghghghghghghghghghghghg8>{:[#llllllllll@+",
"+@##llllllll*b||||2eeeeeeeeeeeeeeeeeekmjmkmjmkmjmkmjmkfhfgfhfgfhfgfhfgfhfgfh15-)~#llllllllll@+",
"+@##llllllll*----;-neeeeeeeeeeeeeejkjkjkjkjkjkjkjkjkjkjghghghghghghghghghgho6>{:<#llllllllll@+",
"+@##llllllll*+||||1neeeeeeeeeeeemjmkmjmkmjmkmjmkmjmkmjmkfhfgfhfgfhfgfhfgfhfp24-)!#llllllllll@+",
"+@##llllllll*----;-nneeeeeeeekjkjkjkjkjkjkjkjkjkjkjkjkjkjkhghghghghghghghgqo6;{:[#llllllllll@+",
"+@##rrrrrrrr*b||||2nsneeeeejmkmjmkmjmkmjmkmjmkmjmkmjmkmjmkmhfgfhfgfhfgfhfpop15-)~#rrrrrrrrrr@+",
"+@##rrrrrrrr*----;-nnnnejkjkjkjkjkjkjkjkjkjkjkjkjkjkjkjkjkjkhghghghghghgqoqo6>{:[#rrrrrrrrrr@+",
"+@##rrrrrrrr*+||||1ntnsumjmkmjmkmjmkmjmkmjmkmjmkmjmkmjmkmjmkmjfgfhfgfhfpopop24-)!#rrrrrrrrrr@+",
"+@##rrrrrrrr*----;-nnnnuvkjkjkjkjkjkjkjkjkjkjkjkjkjkjkjkjkjkjkjghghghgqoqoqo6;{:[#rrrrrrrrrr@+",
"+@##rrrrrrrr*b||||2nsntuuuujmkmjmkmjmkmjmkmjmkmjmkmjmkmjmkmjmkmjfgfhopopopop15-)~#rrrrrrrrrr@+",
"+@##rrrrrrrr*----;--nnnuwuvuwkjkjkjkjkjkjkjkjkjkjkjkjkjkjkjkjkjkjgqoqoqoqoq68>{:<#rrrrrrrrrr@+",
"+@##xxxxxxxx*+||||1|tnsuuuuuuuuumjmkmjmkmjmkmjmkmjmkmjmkmjmkmjmuupopopopopob38>'~#xxxxxxxxxx@+",
"+@##xxxxxxxx*----;-;0nnuvuwuvuwuvuwkjkjkjkjkjkjkjkjkjkjkjkjkvuwuvoqoqoqoqo470!/<}#xxxxxxxxxx@+",
"+@##xxxxxxxx*b||||1||ytuuuuuuuuuuuuuuuuumkmjmkmjmkmjmkmuuuuuuuuuupopopopo+|27-'=~#xxxxxxxxxx@+",
"+@##xxxxxxxx*----;->--8uwuvuwuvuwuvuwuvuwuvuwuvuwuvuwuvuwuvuwuvuwoqoqoqo469,!_:}}#xxxxxxxxxx@+",
"+@##xxxxxxxx*+||||121||yuuuuuuuuuuuuuuuuuuuuuuuuuuuuuuuuuuuuuuuuupopopoy|269,)==~#xxxxxxxxxx@+",
"+@##xxxxxxxx*----;->;>-a8uwuvuwuvuwuvuwuvuwuvuwuvuwuvuwuvuwuvuwuvoqoqo468>=/:[[}}#xxxxxxxxxx@+",
"+@##zzzzzzzz*b||||121212|yAuuuuuuuuuuuuuuuuuuuuuuuuuuuuuuuuuuuuuupopb+|269>)==!=~#zzzzzzzzzz@+",
"+@##zzzzzzzz*----;->;>;>;-861uvuwuvuwuvuwuvuwuvuwuvuwuvuwuvuwuvuwo35570,=/([[<[}}#zzzzzzzzzz@+",
"+@##zzzzzzzz*+||||121231321b+BACuuuuuuuuuuuuuuuuuuuuuuuuuuuuuuuy++||359a>,''==~=~#zzzzzzzzzz@+",
"+@##zzzzzzzz*----;->;>;,;,>>-a86432uvuwuvuwuvuwuvuwuvuwuvuwu3346690>)~]_([:<[<[}}#zzzzzzzzzz@+",
"+@##zzzzzzzz*b||||1212313333311||byAADDDuuuuuuuuuuuuuuuBAAyybb215690->),''='==!=~#zzzzzzzzzz@+",
"+@##zzzzzzzz*----;->;>;,>,,,,),,>>-a9766453321232333333457900-,=!]]//_:::<:<[<[}}#zzzzzzzzzz@+",
"+@##EEEEEEEE*+||||12123133334354545343311||+b+b+|+||||12346679a->;,,),')')='==~=~#EEEEEEEEEE@+",
"+@##EEEEEEEE*----;->;>;,;,,,,),')=)=)')',,;>;>;>;,>,,,,')~{^{^^//_(:(::::[:<[<[}}#EEEEEEEEEE@+",
"+@##EEEEEEEE*b||||12123133335354656666867686767877999900aa-->->;,,,,',')''='==!=~#EEEEEEEEEE@+",
"+@##EEEEEEEE*----;->;>;,>,,,,',')=)====!=~=~!~!~!{{{{^{^]//////((_(:(::::<:<[<[}}#EEEEEEEEEE@+",
"+@##EEEEEEEE*+||||12123133334354656666787877999909a0-a---->->;>>,,,,),')')='==~=~#EEEEEEEEEE@+",
"+@##EEEEEEEE*----;->;>;,;,,,,),')=)====!=!!~!{~{{{{^{^]^]//////_(_(:(::::[:<[<[}}#EEEEEEEEEE@+",
"+@##EEEEEEEE*b||||121231333353546566667878789999a9a0-a----;->;>;,,,,',')''='==!=~#EEEEEEEEEE@+",
"+@##EEEEEEEE*----;->;>;,>,,,,',')=)====!=~!~!{!{{{{]{^]^]//////((_(:(::::<:<[<[}}#EEEEEEEEEE@+",
"+@##EEEEEEEE*+||||12123133334354656666787877999909a0-a---->->;>>,,,,),')')='==~=~#EEEEEEEEEE@+",
"+@##EEEEEEEE*----;->;>;,;,,,,),')=)====!=!!~!{~{{{{^{^]^]//////_(_(:(::::[:<[<[}}#EEEEEEEEEE@+",
"+@##EEEEEEEE*b||||121231333353546566667878789999a9a0-a----;->;>;,,,,',')''='==!=~#EEEEEEEEEE@+",
"+@##EEEEEEEE*----;->;>;,>,,,,',')=)====!=~!~!{!{{{{]{^]^]//////((_(:(::::<:<[<[}}#EEEEEEEEEE@+",
"+@##EEEEEEEE*+||||12123133334354656666787877999909a0-a---->->;>>,,,,),')')='==~=~#EEEEEEEEEE@+",
"+@##EEEEEEEE*----;->;>;,;,,,,),')=)====!=!!~!{~{{{{^{^]^]//////_(_(:(::::[:<[<[}}#EEEEEEEEEE@+",
"+@##EEEEEEEE*b||||121231333353546566667878789999a9a0-a----;->;>;,,,,',')''='==!=~#EEEEEEEEEE@+",
"+@##EEEEEEEE=#####################################################################EEEEEEEEEE@+",
"+@##EEEEEEEEEEEEEEEEEEEEEEEEEEEEEEEEEEEEEEEEEEEEEEEEEEEEEEEEEEEEEEEEEEEEEEEEEEEEEEEEEEEEEEEE@+",
"+@##EEEEEEEEEEEEEEEEEEEEEEEEEEEEEEEEEEEEEEEEEEEEEEEEEEEEEEEEEEEEEEEEEEEEEEEEEEEEEEEEEEEEEEEE@+",
"+@##EEEEEEEEEEEEEEEEEEEEEEEEEEEEEEEEEEEEEEEEEEEEEEEEEEEEEEEEEEEEEEEEEEEEEEEEEEEEEEEEEEEEEEEE@+",
"+@##EEEEEEEEEEEEEEEEEEEEEEEEEEEEEEEEEEEEEEEEEEEEEEEEEEEEEEEEEEEEEEEEEEEEEEEEEEEEEEEEEEEEEEEE@+",
"+@##EEEEEEEEEEEEEEEEEEEEEEEEEEEEEEEEEEEEEEEEEEEEEEEEEEEEEEEEEEEEEEEEEEEEEEEEEEEEEEEEEEEEEEEE@+",
"+@##EEEEEEEEEEEEEEEEEEEEEEEEEEEEEEEEEEEEEEEEEEEEEEEEEEEEEEEEEEEEEEEEEEEEEEEEEEEEEEEEEEEEEEEE@+",
"+@##EEEEEEEEEEEEEEEEEEEEEEEEEEEEEEEEEEEEEEEEEEEEEEEEEEEEEEEEEEEEEEEEEEEEEEEEEEEEEEEEEEEEEEEE@+",
"+@##EEEEEEEEEEEEEEEEEEEEEEEEEEEEEEEEEEEEEEEEEEEEEEEEEEEEEEEEEEEEEEEEEEEEEEEEEEEEEEEEEEEEEEEE@+",
"+@##EEEEEEEEEEEEEEEEEEEEEEEEEEEEEEEEEEEEEEEEEEEEEEEEEEEEEEEEEEEEEEEEEEEEEEEEEEEEEEEEEEEEEEEE@+",
"+@##EEEEEEEEEEEEEEEEEEEEEEEEEEEEEEEEEEEEEEEEEEEEEEEEEEEEEEEEEEEEEEEEEEEEEEEEEEEEEEEEEEEEEEEE@+",
"+@@@@@@@@@@@@@@@@@@@@@@@@@@@@@@@@@@@@@@@@@@@@@@@@@@@@@@@@@@@@@@@@@@@@@@@@@@@@@@@@@@@@@@@@@@@@+",
".++++++++++++++++++++++++++++++++++++++++++++++++++++++++++++++++++++++++++++++++++++++++++++."};
