/* XPM */
static char * popdate_xpm[] = {
"24 18 80 1",
" 	c None",
".	c #000000",
"+	c #7F7F7F",
"@	c #787878",
"#	c #707070",
"$	c #696969",
"%	c #616161",
"&	c #5A5A5A",
"*	c #525252",
"=	c #4B4B4B",
"-	c #434343",
";	c #3C3C3C",
">	c #343434",
",	c #2D2D2D",
"'	c #252525",
")	c #1E1E1E",
"!	c #161616",
"~	c #0F0F0F",
"{	c #070707",
"]	c #E1E1E1",
"^	c #BCBCBC",
"/	c #7D7D7D",
"(	c #FFFFFF",
"_	c #BEBEBE",
":	c #C0C0C0",
"<	c #C5C5C5",
"[	c #C7C7C7",
"}	c #C9C9C9",
"|	c #CCCCCC",
"1	c #D0D0D0",
"2	c #D3D3D3",
"3	c #D5D5D5",
"4	c #D7D7D7",
"5	c #DCDCDC",
"6	c #DEDEDE",
"7	c #E3E3E3",
"8	c #BDBDBD",
"9	c #C2C2C2",
"0	c #CBCBCB",
"a	c #CECECE",
"b	c #D2D2D2",
"c	c #D4D4D4",
"d	c #D9D9D9",
"e	c #E0E0E0",
"f	c #E2E2E2",
"g	c #E5E5E5",
"h	c #BFBFBF",
"i	c #C1C1C1",
"j	c #C3C3C3",
"k	c #C6C6C6",
"l	c #CACACA",
"m	c #CDCDCD",
"n	c #CFCFCF",
"o	c #D1D1D1",
"p	c #D6D6D6",
"q	c #D8D8D8",
"r	c #DADADA",
"s	c #DDDDDD",
"t	c #E4E4E4",
"u	c #E6E6E6",
"v	c #E8E8E8",
"w	c #DFDFDF",
"x	c #EAEAEA",
"y	c #CE7C6A",
"z	c #DF421E",
"A	c #C4C4C4",
"B	c #FFB846",
"C	c #E7E7E7",
"D	c #E9E9E9",
"E	c #EBEBEB",
"F	c #EEEEEE",
"G	c #C8C8C8",
"H	c #EDEDED",
"I	c #F0F0F0",
"J	c #ECECEC",
"K	c #EFEFEF",
"L	c #F1F1F1",
"M	c #F3F3F3",
"N	c #DBDBDB",
"O	c #F5F5F5",
" ...................... ",
" .++@#$%&*=-;>,')!~{... ",
" .++@#$%&*=-;>,')!~{... ",
" .]^^^^/^^^^/^^^^/^^^^. ",
" .(^^_:^<[}|^1234^56]7. ",
" .(^8:9^[}0a^bc4d^6efg. ",
" .]^^^^/^^^^/^^^^/^^^^. ",
" .(hijk^lmno^pqrs^]tuv. ",
" .(:j<[^|ao2^qr5w^7uvx. ",
" .]^^^^/^^^^yzzzzy^^^^. ",
" .(Ak}0^1bc4zBBBBzCDEF. ",
" .(kGlm^ocpqzBBBBzDEHI. ",
" .]^^^^/^^^^yzzzzy^^^^. ",
" .(}|a1^34r5^]7gv^JKLM. ",
" .(0a1b^4dN6^fgCD^FIMO. ",
" ...................... ",
"                        ",
"                        "};
