/* XPM */
static char * project_xpm[] = {
"19 19 202 2",
"  	c None",
". 	c #EBEBEB",
"+ 	c #DFE1DF",
"@ 	c #99AB99",
"# 	c #A2AEA2",
"$ 	c #C6CAC6",
"% 	c #ECECEC",
"& 	c #E6E7E6",
"* 	c #9DAF9D",
"= 	c #ABDCAB",
"- 	c #9DCD9D",
"; 	c #93B293",
"> 	c #8D9A8D",
", 	c #C9CBC9",
"' 	c #EAECEA",
") 	c #6CA56C",
"! 	c #8DE18D",
"~ 	c #BFFDBF",
"{ 	c #C1FEC1",
"] 	c #A5F3A5",
"^ 	c #3DC03D",
"/ 	c #2A632A",
"( 	c #E9E9E9",
"_ 	c #5CA05C",
": 	c #01E301",
"< 	c #1CFF1C",
"[ 	c #63FF63",
"} 	c #8CFC8C",
"| 	c #44D644",
"1 	c #039203",
"2 	c #124912",
"3 	c #E3E5E3",
"4 	c #C1C6C6",
"5 	c #B2B8B8",
"6 	c #E5E6E6",
"7 	c #A4A4A4",
"8 	c #13B213",
"9 	c #00E900",
"0 	c #00F800",
"a 	c #03FF03",
"b 	c #06D506",
"c 	c #029202",
"d 	c #008100",
"e 	c #1F451F",
"f 	c #A1A9A9",
"g 	c #91B4B4",
"h 	c #90BABA",
"i 	c #90A5A5",
"j 	c #B0B7B7",
"k 	c #DBDBDB",
"l 	c #A1A1A1",
"m 	c #11A311",
"n 	c #00C800",
"o 	c #00D500",
"p 	c #00CD00",
"q 	c #009500",
"r 	c #007E00",
"s 	c #174C25",
"t 	c #8CBDBD",
"u 	c #BCF7F7",
"v 	c #C2FFFF",
"w 	c #ACE4E4",
"x 	c #59B7B7",
"y 	c #5C8C8D",
"z 	c #11A211",
"A 	c #00C200",
"B 	c #00C000",
"C 	c #00A200",
"D 	c #008300",
"E 	c #007D01",
"F 	c #006F20",
"G 	c #02B1A3",
"H 	c #3AF8F8",
"I 	c #88FFFF",
"J 	c #B7FFFF",
"K 	c #7BF4F4",
"L 	c #0DA5A6",
"M 	c #277071",
"N 	c #BFBFBF",
"O 	c #AAAAAA",
"P 	c #169916",
"Q 	c #01AF00",
"R 	c #169F11",
"S 	c #2B7B21",
"T 	c #13720F",
"U 	c #00660A",
"V 	c #008A7C",
"W 	c #00ECED",
"X 	c #00FCFC",
"Y 	c #0CFEFE",
"Z 	c #25EEEE",
"` 	c #0CAEAF",
" .	c #008082",
"..	c #256F70",
"+.	c #BEBEBE",
"@.	c #DFDFDF",
"#.	c #6B9B6B",
"$.	c #30702C",
"%.	c #84A464",
"&.	c #C6C697",
"*.	c #909E6E",
"=.	c #3B6334",
"-.	c #046563",
";.	c #00C4C7",
">.	c #00E0E1",
",.	c #00E1E2",
"'.	c #00ACAD",
").	c #008587",
"!.	c #007F81",
"~.	c #256F6F",
"{.	c #BCBCB4",
"].	c #9A9A62",
"^.	c #EBEBB0",
"/.	c #FFFFC4",
"(.	c #F6F6BB",
"_.	c #CBCC74",
":.	c #5E7520",
"<.	c #0D9085",
"[.	c #00C3C5",
"}.	c #00B4B7",
"|.	c #008688",
"1.	c #008183",
"2.	c #077476",
"3.	c #678989",
"4.	c #CBCBC2",
"5.	c #AEAE2F",
"6.	c #F9F917",
"7.	c #FFFF5F",
"8.	c #FFFF9E",
"9.	c #F7F790",
"0.	c #BEBD20",
"a.	c #686701",
"b.	c #13806F",
"c.	c #00BFC2",
"d.	c #00ADAF",
"e.	c #067577",
"f.	c #648585",
"g.	c #E8E9E9",
"h.	c #E3E3E4",
"i.	c #999852",
"j.	c #D7D603",
"k.	c #F8F800",
"l.	c #FEFE04",
"m.	c #F7F712",
"n.	c #BEBD10",
"o.	c #878500",
"p.	c #636200",
"q.	c #14705F",
"r.	c #00B0B2",
"s.	c #00ABAE",
"t.	c #0C7577",
"u.	c #608585",
"v.	c #E0E0E3",
"w.	c #8D8B4C",
"x.	c #BAB801",
"y.	c #D8D600",
"z.	c #E1E000",
"A.	c #C0BF00",
"B.	c #898700",
"C.	c #838100",
"D.	c #636101",
"E.	c #4C6856",
"F.	c #388889",
"G.	c #0D7173",
"H.	c #618687",
"I.	c #E0E3E3",
"J.	c #E0E0E2",
"K.	c #8D8B4B",
"L.	c #B8B501",
"M.	c #C6C300",
"N.	c #BDBB00",
"O.	c #949200",
"P.	c #7A7903",
"Q.	c #7A7945",
"R.	c #CBCBC6",
"S.	c #D9DFDF",
"T.	c #C5D0D0",
"U.	c #E4E7E7",
"V.	c #E1E1E3",
"W.	c #8D8C4E",
"X.	c #B3B002",
"Y.	c #C5C200",
"Z.	c #B9B700",
"`.	c #908E00",
" +	c #7B7904",
".+	c #D6D6D2",
"++	c #A9A986",
"@+	c #93912E",
"#+	c #A6A400",
"$+	c #B5B200",
"%+	c #858300",
"&+	c #7E7D4A",
"*+	c #D7D7D5",
"=+	c #ECEBEC",
"-+	c #C6C6BF",
";+	c #999865",
">+	c #76751D",
",+	c #797841",
"'+	c #D2D1CD",
")+	c #EBE9EA",
"!+	c #D6D4D0",
"~+	c #E0DEDD",
"            .                         ",
"          + @ # $ %                   ",
"        & * = - ; > ,                 ",
"      ' ) ! ~ { ] ^ /                 ",
"    ( _ : < [ } | 1 2 3 4 5 6         ",
"    7 8 9 0 a b c d e f g h i j k     ",
"    l m n o p q d r s t u v w x y k   ",
"    l z A B C D E F G H I J K L M N   ",
"    O P Q R S T U V W X Y Z `  ...+.  ",
"    @.#.$.%.&.*.=.-.;.>.,.'.).!.~.+.  ",
"      {.].^./.(._.:.<.[.}.|.1.2.3.(   ",
"    4.5.6.7.8.9.0.a.b.c.d.1.e.f.g.    ",
"  h.i.j.k.l.m.n.o.p.q.r.s.t.u.        ",
"  v.w.x.y.z.A.B.C.D.E.F.G.H.I.        ",
"  J.K.L.M.N.O.C.P.Q.R.S.T.U.          ",
"  V.W.X.Y.Z.`. +Q..+                  ",
"    ++@+#+$+%+&+*+                    ",
"    =+-+;+>+,+'+                      ",
"        )+!+~+                        "};
