/* XPM */
static char * question_xpm[] = {
"40 40 172 2",
"  	c None",
". 	c #000000",
"+ 	c #2F2A1C",
"@ 	c #6D6041",
"# 	c #9C875B",
"$ 	c #BBA16C",
"% 	c #BBA26D",
"& 	c #7D6D4A",
"* 	c #2F291C",
"= 	c #12110B",
"- 	c #6E6646",
"; 	c #DBC586",
"> 	c #FAD992",
", 	c #F9D28C",
"' 	c #F8CC87",
") 	c #F8C984",
"! 	c #F8CB86",
"~ 	c #F8D08A",
"{ 	c #F9D790",
"] 	c #BBA670",
"^ 	c #2F2A1D",
"/ 	c #3F3D2A",
"( 	c #DDD08F",
"_ 	c #FBE29A",
": 	c #F9D690",
"< 	c #FACF8A",
"[ 	c #FCBC7C",
"} 	c #FEB778",
"| 	c #FFA267",
"1 	c #FF9960",
"2 	c #FE9F64",
"3 	c #FDAF71",
"4 	c #FCD28E",
"5 	c #5E563B",
"6 	c #5F5F42",
"7 	c #FDF4A9",
"8 	c #FBE69D",
"9 	c #F9D891",
"0 	c #FADD95",
"a 	c #FEC583",
"b 	c #FF7845",
"c 	c #FE9C62",
"d 	c #5E5137",
"e 	c #5F5F3D",
"f 	c #FEFBAE",
"g 	c #FCEDA4",
"h 	c #FBE199",
"i 	c #FDD893",
"j 	c #FF9159",
"k 	c #EE8652",
"l 	c #10100B",
"m 	c #222114",
"n 	c #EFEE9B",
"o 	c #FEF8AD",
"p 	c #FCEAA1",
"q 	c #FECE8B",
"r 	c #FF804B",
"s 	c #4F3421",
"t 	c #9F9E5C",
"u 	c #FFFEA8",
"v 	c #FDF6AB",
"w 	c #FEE29B",
"x 	c #7F3C22",
"y 	c #111008",
"z 	c #FFFC90",
"A 	c #FFFEA9",
"B 	c #FEF3A9",
"C 	c #FF8852",
"D 	c #9F4B2B",
"E 	c #4F2515",
"F 	c #3C0E08",
"G 	c #D1482C",
"H 	c #FB7543",
"I 	c #8F4326",
"J 	c #4F4E27",
"K 	c #FFFC8E",
"L 	c #FFFEA7",
"M 	c #FFBB7B",
"N 	c #5F2D19",
"O 	c #2F0C08",
"P 	c #C4442B",
"Q 	c #EA8555",
"R 	c #AF522F",
"S 	c #7F7D3C",
"T 	c #FFFC8A",
"U 	c #FFFEA6",
"V 	c #803622",
"W 	c #D2623E",
"X 	c #ECB177",
"Y 	c #BFBB53",
"Z 	c #FFFB84",
"` 	c #FFDC8E",
" .	c #1F0F08",
"..	c #2A1910",
"+.	c #DC7C4E",
"@.	c #E18655",
"#.	c #F4B678",
"$.	c #AFAB48",
"%.	c #FFFB7C",
"&.	c #FFBA74",
"*.	c #DF693C",
"=.	c #2D2115",
"-.	c #E09B62",
";.	c #EEA367",
">.	c #F1AF70",
",.	c #FEB677",
"'.	c #EF7040",
").	c #110804",
"!.	c #111007",
"~.	c #CFCB5F",
"{.	c #FFB375",
"].	c #BF5A33",
"^.	c #2E2518",
"/.	c #E7B575",
"(.	c #F6BE7A",
"_.	c #F6BD7A",
":.	c #FBD58F",
"<.	c #AF633D",
"[.	c #3F1E11",
"}.	c #0F0E09",
"|.	c #CAAE75",
"1.	c #F8CD88",
"2.	c #FCE29A",
"3.	c #CF6138",
"4.	c #BDB079",
"5.	c #FBE49C",
"6.	c #FAE098",
"7.	c #FDE8A0",
"8.	c #5F5F41",
"9.	c #FEF9AD",
"0.	c #FDF3A9",
"a.	c #FDECA3",
"b.	c #2F160C",
"c.	c #AFAE6A",
"d.	c #FFFEA4",
"e.	c #FFFEAD",
"f.	c #FFAA6E",
"g.	c #DFDC73",
"h.	c #FFFC8D",
"i.	c #FFDC8D",
"j.	c #FFFA6D",
"k.	c #FFFA75",
"l.	c #FFF95E",
"m.	c #FFFA70",
"n.	c #EFE958",
"o.	c #FFFA73",
"p.	c #2F2E11",
"q.	c #EFEA6D",
"r.	c #3F3927",
"s.	c #2F2F16",
"t.	c #0C0302",
"u.	c #260F09",
"v.	c #3F3F2A",
"w.	c #FDF0A6",
"x.	c #AB9463",
"y.	c #8A6D47",
"z.	c #C39766",
"A.	c #F1A069",
"B.	c #F4955F",
"C.	c #5E4830",
"D.	c #BFBD6D",
"E.	c #FEFAAA",
"F.	c #FBE59D",
"G.	c #FDCB88",
"H.	c #FFFA74",
"I.	c #FFFD9A",
"J.	c #FEE49C",
"K.	c #BFBA49",
"L.	c #FFFB80",
"M.	c #EFEB6E",
"N.	c #5F5D23",
"O.	c #EF8955",
"                                                                                ",
"                                                                                ",
"                                                                                ",
"                                                                                ",
"                                        . . . .                                 ",
"                                  . + @ # $ $ % & * .                           ",
"                              = - ; > , ' ) ) ! ~ { ] ^ .                       ",
"                          . / ( _ : ' ~ < [ } | 1 2 3 4 5 .                     ",
"                        . 6 7 8 9 0 a 1 b b b b b b b b c d .                   ",
"                        e f g h i j b b b b b b b b b b b k l                   ",
"                      m n o p q r b b b b b b b b b b b b b s                   ",
"                    . t u v w b b b b b b b b b b b b b b b x                   ",
"                    y z A B C b b b b b D E F G H b b b b b I .                 ",
"                    J K L M b b b b b N .   O P Q b b b b b R .                 ",
"                    S T U r b b b b x .   . V W X b b b b b x .                 ",
"                  . Y Z ` b b b b b  .    ..+.@.#.b b b b b N                   ",
"                  . $.%.&.b b b b *..   =.-.;.>.,.b b b b '.).                  ",
"                    !.~.{.b b b ].N . ^./.(._.:.r b b b b x .                   ",
"                      !.<.x [.. . . }.|.~ 1.2.j b b b b 3..                     ",
"                        .         . 4.5.6.7.j b b b b *.).                      ",
"                                  8.9.0.a.j b b b b '.b.                        ",
"                                . c.d.e.f.b b b b '.b.                          ",
"                                . g.h.i.b b b b b b.                            ",
"                                . j.k.f.b b b b I .                             ",
"                                . l.m.1 b b b b [.                              ",
"                                . n.o.b b b b b .                               ",
"                                  p.q.b b b ].x .                               ",
"                                . r.s.x [.t.u..                                 ",
"                                v.w.x.y.z.A.B.C..                               ",
"                              . D.E.F.G.r b b b E                               ",
"                              . H.I.J.b b b b b ]..                             ",
"                              . K.L.| b b b b b ]..                             ",
"                                p.M.1 b b b b b D                               ",
"                                  N.O.b b b b '.).                              ",
"                                    b.'.b b 3.b.                                ",
"                                      ).[.b..                                   ",
"                                                                                ",
"                                                                                ",
"                                                                                ",
"                                                                                "};
