/* XPM */
static char * reload_xpm[] = {
"24 25 259 2",
"  	c None",
". 	c #C3E1FF",
"+ 	c #B3D9FF",
"@ 	c #A8D4FF",
"# 	c #9FCFFF",
"$ 	c #9BCCFF",
"% 	c #98CBFF",
"& 	c #96CAFF",
"* 	c #CBE5FF",
"= 	c #B7DBFF",
"- 	c #CCE5FF",
"; 	c #DEEFFF",
"> 	c #EEF7FF",
", 	c #FAFDFF",
"' 	c #EBF5FF",
") 	c #D4E9FF",
"! 	c #B4DAFF",
"~ 	c #8DC5FF",
"{ 	c #B1D8FF",
"] 	c #D0E7FF",
"^ 	c #EDF6FF",
"/ 	c #FFFFFF",
"( 	c #E1F0FF",
"_ 	c #B0D7FF",
": 	c #7CBDFF",
"< 	c #DBEDFE",
"[ 	c #FDFEFE",
"} 	c #C2E0FE",
"| 	c #81C0FF",
"1 	c #DAECFE",
"2 	c #FBFCFD",
"3 	c #FCFDFE",
"4 	c #FCFDFD",
"5 	c #FDFDFE",
"6 	c #FCFCFD",
"7 	c #BDDDFE",
"8 	c #74B9FF",
"9 	c #CAE4FF",
"0 	c #CDE5FD",
"a 	c #F9FBFB",
"b 	c #FAFCFC",
"c 	c #FBFCFC",
"d 	c #F6F8F8",
"e 	c #EBEDED",
"f 	c #D8E6EF",
"g 	c #B1DCF7",
"h 	c #94D3FC",
"i 	c #C6E6FB",
"j 	c #F4F6F6",
"k 	c #B4E0FD",
"l 	c #8ED2FE",
"m 	c #FBFDFD",
"n 	c #A6D2FD",
"o 	c #B3D9FE",
"p 	c #E5F1FB",
"q 	c #F7FAFB",
"r 	c #F8FAFB",
"s 	c #EBEEEF",
"t 	c #C9DBE7",
"u 	c #51B7FB",
"v 	c #0099FF",
"w 	c #0E9FFF",
"x 	c #60BDFB",
"y 	c #099DFF",
"z 	c #3BB1FF",
"A 	c #F6F9FA",
"B 	c #D6E9FB",
"C 	c #79BCFE",
"D 	c #C2E0FF",
"E 	c #C5E1FC",
"F 	c #F3F7F8",
"G 	c #F7FAFA",
"H 	c #EAEEEF",
"I 	c #BDD5E5",
"J 	c #17A2FE",
"K 	c #26A8FF",
"L 	c #35AEFE",
"M 	c #11A0FF",
"N 	c #039AFF",
"O 	c #EBF6FE",
"P 	c #F5F8F9",
"Q 	c #9CCDFC",
"R 	c #AFD7FF",
"S 	c #D3E7F9",
"T 	c #F2F6F7",
"U 	c #F1F5F7",
"V 	c #D8DEE1",
"W 	c #27A7FD",
"X 	c #2AAAFF",
"Y 	c #CEEBFE",
"Z 	c #FAFBFC",
"` 	c #B2DFFC",
" .	c #059BFF",
"..	c #A4DAFE",
"+.	c #F0F4F6",
"@.	c #BADAF9",
"#.	c #579FE8",
"$.	c #9FD0FF",
"%.	c #DEEBF6",
"&.	c #F3F6F7",
"*.	c #E6EBED",
"=.	c #92C9ED",
"-.	c #12A0FF",
";.	c #E9F6FE",
">.	c #FEFEFE",
",.	c #B3DFFC",
"'.	c #099CFF",
").	c #4EB8FF",
"!.	c #F6F8F9",
"~.	c #EDF2F4",
"{.	c #D2E6F6",
"].	c #56A5F3",
"^.	c #94C9FF",
"/.	c #E5EDF3",
"(.	c #F1F4F6",
"_.	c #E0E6E9",
":.	c #53B6F8",
"<.	c #74C7FE",
"[.	c #F2F7FB",
"}.	c #A4D9FD",
"|.	c #85CEFE",
"1.	c #65C1FE",
"2.	c #33AEFF",
"3.	c #1EA5FF",
"4.	c #F4FAFE",
"5.	c #E9EFF2",
"6.	c #E2ECF3",
"7.	c #54A8FC",
"8.	c #8BC5FF",
"9.	c #E2EBF1",
"0.	c #EFF3F5",
"a.	c #E1E8EB",
"b.	c #3CAFFB",
"c.	c #97D5FE",
"d.	c #ECF1F3",
"e.	c #F4F7F8",
"f.	c #E6EDF0",
"g.	c #DFEAF1",
"h.	c #4EA5FC",
"i.	c #86C3FF",
"j.	c #D0E2F1",
"k.	c #EEF3F5",
"l.	c #E4EBEF",
"m.	c #4EB6FA",
"n.	c #76C7FD",
"o.	c #EBF0F3",
"p.	c #F6F8FA",
"q.	c #F7F9FA",
"r.	c #EAF0F3",
"s.	c #E5ECF0",
"t.	c #E2EAEE",
"u.	c #C7DEF1",
"v.	c #469BF0",
"w.	c #85C2FF",
"x.	c #B7D6F3",
"y.	c #E9F0F2",
"z.	c #E6EEF1",
"A.	c #89CBF6",
"B.	c #17A2FF",
"C.	c #E5F2FA",
"D.	c #F2F6F8",
"E.	c #EDF2F5",
"F.	c #E7EEF1",
"G.	c #E5EDF0",
"H.	c #E8EFF2",
"I.	c #EFF4F6",
"J.	c #E0EAED",
"K.	c #DEE8EC",
"L.	c #A5CEF3",
"M.	c #3C8CDD",
"N.	c #89C4FF",
"O.	c #94C7F7",
"P.	c #E1E9ED",
"Q.	c #EBF1F3",
"R.	c #DCE9F1",
"S.	c #19A3FE",
"T.	c #3CB0FD",
"U.	c #D5E9F6",
"V.	c #DBE5EA",
"W.	c #D9E3E8",
"X.	c #A0D2F3",
"Y.	c #61BDFB",
"Z.	c #ECF4F9",
"`.	c #E0E9ED",
" +	c #7CBBF7",
".+	c #2E75BC",
"++	c #67B2FC",
"@+	c #BDD8EE",
"#+	c #EAF0F2",
"$+	c #B7DDF6",
"%+	c #0B9DFF",
"&+	c #0E9EFF",
"*+	c #43B2FC",
"=+	c #5CBBF9",
"-+	c #29A8FD",
";+	c #5FBEFE",
">+	c #D8E3E8",
",+	c #B4D3ED",
"'+	c #4CA5FC",
")+	c #80BCF5",
"!+	c #EFF3F6",
"~+	c #D2E9F8",
"{+	c #3FB1FD",
"]+	c #069BFF",
"^+	c #82CCFE",
"/+	c #F5FAFD",
"(+	c #D5E1E7",
"_+	c #75B7F5",
":+	c #276FB7",
"<+	c #3C9DFF",
"[+	c #8BC0F1",
"}+	c #DAE4E9",
"|+	c #ECF1F4",
"1+	c #D0EAFB",
"2+	c #A0D8FC",
"3+	c #92D2FD",
"4+	c #B6E1FD",
"5+	c #E6F4FD",
"6+	c #E1EAEE",
"7+	c #D2DFE5",
"8+	c #88BFF1",
"9+	c #3399FF",
"0+	c #3B9DFD",
"a+	c #87BEF0",
"b+	c #D5E0E7",
"c+	c #DFE8ED",
"d+	c #F9FBFC",
"e+	c #D0DDE4",
"f+	c #85BDF0",
"g+	c #399CFD",
"h+	c #2D96FF",
"i+	c #6CB2F4",
"j+	c #AACDE9",
"k+	c #D1DEE5",
"l+	c #D6E2E8",
"m+	c #DAE5EA",
"n+	c #DCE6EB",
"o+	c #D9E4E9",
"p+	c #D4E0E6",
"q+	c #D0DEE4",
"r+	c #CEDCE3",
"s+	c #A9CCE9",
"t+	c #6BB1F4",
"u+	c #2B95FF",
"v+	c #3A9CFC",
"w+	c #68B0F4",
"x+	c #8FC1ED",
"y+	c #AECEE7",
"z+	c #C4D8E3",
"A+	c #67AFF4",
"B+	c #399BFC",
"C+	c #1C69B7",
"D+	c #2285E8",
"E+	c #238BF3",
"F+	c #2590FC",
"G+	c #2490FC",
"H+	c #2289F0",
"I+	c #1F7FDD",
"J+	c #1B6CBC",
"                                                ",
"                . + @ # $ % &                   ",
"            * = - ; > , , ' ) ! ~               ",
"          { ] ^ / / / / / / / / ( _ :           ",
"        = < [ [ [ [ [ [ [ [ [ [ [ [ } |         ",
"      _ 1 2 2 3 4 2 2 4 4 3 3 3 [ 5 6 7 8       ",
"    9 0 a b c d e f g h i j j k l [ m a n       ",
"    o p q r s t u v v v v w x y z 5 5 A B C     ",
"  D E F G H I J v v K L M v v v N O 5 P F Q     ",
"  R S T U V W v X Y 5 Z `  .v v v ..5 P +.@.#.  ",
"  $.%.&.*.=.v -.;.>.4 ,.'.v v v v ).[ !.~.{.].  ",
"  ^./.(._.:.v <.>.5 P [.i }.|.1.2.3.4.F 5.6.7.  ",
"  8.9.0.a.b.v c.4 P d.e.r a b 2 4 5 Z ~.f.g.h.  ",
"  i.j.k.l.m.v n.Z r f.f.o.U p.q.P U r.s.t.u.v.  ",
"  w.x.y.z.A.v B.C.D.E.F.G.H.I.P r.J.K.K.K.L.M.  ",
"  N.O.P.Q.R.S.v T.U.s.V.W.X.Y.Z.P `.V.V.V. +.+  ",
"    ++@+#+Q.$+%+v &+*+=+-+v v ;+r `.>+>+,+'+    ",
"      )+V.!+k.~+{+v v v v ]+^+/+D.V.(+(+_+:+    ",
"      <+[+}+|+U F 1+2+3+4+5+2 b 6+(+7+8+9+      ",
"        0+a+b+c+U P q.r d+Z r.V.7+e+f+g+        ",
"          h+i+j+k+l+m+n+o+p+q+r+s+t+u+          ",
"              v+w+x+y+z+z+y+x+A+B+C+            ",
"                  D+E+F+G+H+I+J+                ",
"                                                ",
"                                                "};
