/* XPM */
static char * root_xpm[] = {
"43 37 107 2",
"  	c None",
". 	c #202020",
"+ 	c #DBE2F2",
"@ 	c #DAE0F0",
"# 	c #B4C2E1",
"$ 	c #B4C1E1",
"% 	c #000000",
"& 	c #D7DEED",
"* 	c #AFBCDB",
"= 	c #AEBCDB",
"- 	c #C2CCE4",
"; 	c #A8B5D4",
"> 	c #A8B5D5",
", 	c #A8B6D4",
"' 	c #A8B6D5",
") 	c #D4DAEA",
"! 	c #D4DBEA",
"~ 	c #BEC8DF",
"{ 	c #A1AECC",
"] 	c #A1ADCC",
"^ 	c #BAC4DB",
"/ 	c #9AA6C4",
"( 	c #99A6C4",
"_ 	c #B7C0D7",
": 	c #929EBC",
"< 	c #929EBB",
"[ 	c #24272E",
"} 	c #494F5D",
"| 	c #494F5E",
"1 	c #B2BCD2",
"2 	c #8995B1",
"3 	c #444A58",
"4 	c #FFFFFF",
"5 	c #FFFEFF",
"6 	c #FDFDFE",
"7 	c #FCFBFC",
"8 	c #F9F9FA",
"9 	c #F7F6F8",
"0 	c #F3F3F5",
"a 	c #EFEFF1",
"b 	c #ECECED",
"c 	c #E9E9EB",
"d 	c #AEB7CD",
"e 	c #808BA7",
"f 	c #808CA7",
"g 	c #404653",
"h 	c #FDFDFD",
"i 	c #FDFCFD",
"j 	c #FBFBFC",
"k 	c #FAFAFB",
"l 	c #F7F7F8",
"m 	c #AAB3C8",
"n 	c #78849E",
"o 	c #78839E",
"p 	c #3C424E",
"q 	c #F5F5F5",
"r 	c #F4F5F5",
"s 	c #F4F4F5",
"t 	c #F3F4F5",
"u 	c #F3F3F4",
"v 	c #F2F2F3",
"w 	c #F1F1F3",
"x 	c #A7B0C5",
"y 	c #727D97",
"z 	c #393E4B",
"A 	c #ECEBED",
"B 	c #B7C5E5",
"C 	c #B5C3E3",
"D 	c #B2C0E0",
"E 	c #B2C0DF",
"F 	c #AFBCDC",
"G 	c #C3CDE5",
"H 	c #AAB8D7",
"I 	c #C1CBE2",
"J 	c #A6B3D2",
"K 	c #BCC6DD",
"L 	c #9CA9C6",
"M 	c #9CA9C7",
"N 	c #BAC3DA",
"O 	c #98A4C1",
"P 	c #97A4C1",
"Q 	c #98A4C2",
"R 	c #98A3C1",
"S 	c #97A3C1",
"T 	c #98A3C2",
"U 	c #97A4C2",
"V 	c #929FBB",
"W 	c #929FBC",
"X 	c #939EBB",
"Y 	c #939FBC",
"Z 	c #B4BDD3",
"` 	c #8C98B4",
" .	c #8C98B5",
"..	c #B1BAD0",
"+.	c #8692AE",
"@.	c #8692AD",
"#.	c #818CA7",
"$.	c #818BA7",
"%.	c #808CA6",
"&.	c #ABB4C9",
"*.	c #7B86A0",
"=.	c #7B86A1",
"-.	c #A9B2C7",
";.	c #76819B",
">.	c #75819B",
",.	c #75809B",
"'.	c #76809B",
"                                                                                      ",
"                                                                                      ",
"          . . . . . . . . . . .                                                       ",
"        . + + + + + + + + + + + .                                                     ",
"      . @ # $ # # # # # # $ $ $ $ .                                                   ",
"    % & * = * * * * * * = * = * * = . . . . . . . . . . . . . . . . . .               ",
"    . - ; ; > ; ; > ; , ' ; > ; ' ; > ) ) ) ) ) ) ! ) ! ! ) ) ) ) ) ) ! .             ",
"    % ~ { { { ] { ] { { { { { ] { { { { { { { { { ] { { { { { { { { { ] { %           ",
"    . ^ / / / / ( ( / / / / / / / ( / / ( / / / / ( / ( / / ( ( ( / ( / / %           ",
"    . _ : < [ } | | } } } } | } } } } } | } } | } } } } } } } | [ < : < < %           ",
"    % 1 2 2 3 4 4 4 4 4 4 4 4 4 5 6 7 8 9 0 a b c c c c c c c c 3 2 2 2 2 %           ",
"    % d e f g h h h h h h i j k 8 l . . . . . . . . . . . . . . . . . . e %           ",
"    . m n o p q q q r s t u v w a . 4 4 4 4 4 4 4 4 4 4 4 4 4 4 4 4 4 4 . %           ",
"    % x y y z c c c c c c c A c . 4 B B B B B B B B B B B B B B B B B B 4 %           ",
"    . x . . . . . . . . . . . . 4 C C C C C C C C C C C C C C C C C C C C %           ",
"    % . 4 4 4 4 4 4 4 4 4 4 4 4 D D E D D D D E E D D D E E D E E E D D D %           ",
"    % 4 * = * * * * * * * = * * = = F = = = * * * = = = = * * * * = = * * %           ",
"    % G H H H H H H H H H H H H H H H H H H H H H H H H H H H H H H H H H %           ",
"    % I J J J J J J J J J J J J J J J J J J J J J J J J J J J J J J J J J %           ",
"    % ~ { { { { { { { { { ] { { { { ] ] { { { { { { ] { { { { { ] ] { { { %           ",
"    % K L M M M M L M M M L M M L M L L M M M M M M M L L L M M M L M M M %           ",
"    % N O O O P O Q O O R Q O O Q R S O O T O O S O O R R P O O O O O P U %           ",
"    % _ < < < V < W : < < X < : W V < : X : W : < < W < W Y < : < < Y < < %           ",
"    % Z ` `  . . .`  . . . . . . .`  . . . . .`  . . . . . . . . . .` `  .%           ",
"    % ..+.@.@.+.@.@.+.@.+.+.+.+.@.+.+.+.+.+.+.+.+.@.+.+.+.@.+.+.+.+.@.+.+.%           ",
"    % d e e f #.$.f f $.e $.$.$.%.f $.$.f #.e #.e $.e e e e f #.$.$.#.%.$.%           ",
"    % &.*.*.*.=.=.=.*.*.*.=.*.=.=.*.=.=.*.=.*.*.*.=.=.=.*.=.*.*.=.=.=.=.*.%           ",
"    % -.;.;.>.>.,.;.'.;.;.>.;.;.;.;.;.;.;.>.>.;.;.;.;.;.>.'.'.;.;.,.;.;.;.%           ",
"    % x y y y y y y y y y y y y y y y y y y y y y y y y y y y y y y y y y %           ",
"    % x y y y y y y y y y y y y y y y y y y y y y y y y y y y y y y y y y %           ",
"    % x y y y y y y y y y y y y y y y y y y y y y y y y y y y y y y y y y %           ",
"    % % % % % % % % % % % % % % % % % % % % % % % % % % % % % % % % % % % %           ",
"                                                                                      ",
"                                                                                      ",
"                                                                                      ",
"                                                                                      ",
"                                                                                      "};
