/* XPM */
static char * ico_table_xpm[] = {
"24 24 19 1",
" 	c None",
".	c #D3D3D3",
"+	c #000000",
"@	c #FFFFFF",
"#	c #EB5E5E",
"$	c #FF0000",
"%	c #FA1818",
"&	c #DDA5A5",
"*	c #E67676",
"=	c #E28D8D",
"-	c #F04646",
";	c #D8BCBC",
">	c #767676",
",	c #A5A5A5",
"'	c #BCBCBC",
")	c #8D8D8D",
"!	c #181818",
"~	c #2F2F2F",
"{	c #464646",
"........................",
".++++++++++++++++++++++.",
".+........@+.........@+.",
".+..#$%...@+.........@+.",
".+.&*.*=..@+.........@+.",
".+..*%$=..@+.........@+.",
".+.#-;==..@+.........@+.",
".+.-#&%=..@+.........@+.",
".+.;##&*..@+.........@+.",
".+........@+.........@+.",
".+@@@@@@@@@+@@@@@@@@@@+.",
".++++++++++++++++++++++.",
".+........@+.........@+.",
".+........@+....>,...@+.",
".+........@+..')!)...@+.",
".+........@+..')~)...@+.",
".+........@+....{)...@+.",
".+........@+....{)...@+.",
".+........@+....{)...@+.",
".+........@+....{)...@+.",
".+........@+....>,...@+.",
".+@@@@@@@@@+@@@@@@@@@@+.",
".++++++++++++++++++++++.",
"........................"};
