/* XPM */
static char * sql_xpm[] = {
"32 32 464 2",
"  	c None",
". 	c #C4D0E5",
"+ 	c #9DAAC1",
"@ 	c #FBFFFF",
"# 	c #FFFFFF",
"$ 	c #FEFFFF",
"% 	c #F5FAFF",
"& 	c #EDF3FE",
"* 	c #E4EBF9",
"= 	c #D8E1F2",
"- 	c #C2D0E9",
"; 	c #A7B2C4",
"> 	c #FCFFFF",
", 	c #F8FDFF",
"' 	c #F2F7FF",
") 	c #EAF1FD",
"! 	c #E1E9F7",
"~ 	c #D5DFF0",
"{ 	c #BFCCE3",
"] 	c #EBF4FF",
"^ 	c #A2AEC1",
"/ 	c #BED9F9",
"( 	c #5EA4F0",
"_ 	c #E8EEF6",
": 	c #FBFBFB",
"< 	c #EDF4FE",
"[ 	c #E6EDFA",
"} 	c #D9E2F2",
"| 	c #C2CEE5",
"1 	c #F0F6FF",
"2 	c #DCE7F9",
"3 	c #A1ADC3",
"4 	c #CEE3FB",
"5 	c #3EADF5",
"6 	c #00C3FA",
"7 	c #00D9FE",
"8 	c #299DEB",
"9 	c #D9DFE8",
"0 	c #F9F9F9",
"a 	c #F8FCFF",
"b 	c #F1F7FF",
"c 	c #E9EFFC",
"d 	c #DCE5F4",
"e 	c #C4D0E6",
"f 	c #E8EEFB",
"g 	c #DBE5F9",
"h 	c #A4AFC5",
"i 	c #ABC4E6",
"j 	c #5DB3F5",
"k 	c #00B6F8",
"l 	c #00E1FF",
"m 	c #0C8EEA",
"n 	c #B8C6E2",
"o 	c #F7F7F7",
"p 	c #FEFEFE",
"q 	c #FAFEFF",
"r 	c #F3F9FF",
"s 	c #EBF1FD",
"t 	c #DFE7F6",
"u 	c #C6D1E5",
"v 	c #FDFFFF",
"w 	c #ECF2FD",
"x 	c #DEE9FB",
"y 	c #A4B0C4",
"z 	c #0082F1",
"A 	c #00ACF9",
"B 	c #00D9FF",
"C 	c #0C8DE9",
"D 	c #B5C1DE",
"E 	c #F6F6F6",
"F 	c #FBFEFE",
"G 	c #F5F9FF",
"H 	c #E3EBF9",
"I 	c #BECBE1",
"J 	c #F3F5FB",
"K 	c #ECF2F9",
"L 	c #E4EBF7",
"M 	c #D8E1F0",
"N 	c #D0DCF1",
"O 	c #9EABC1",
"P 	c #00BDFB",
"Q 	c #00CDFF",
"R 	c #0C9DEE",
"S 	c #8A9ED9",
"T 	c #F1F4F4",
"U 	c #F5F9FD",
"V 	c #E8EFFC",
"W 	c #C8D4E7",
"X 	c #98A9C5",
"Y 	c #00C5FB",
"Z 	c #00D6FF",
"` 	c #00C1FF",
" .	c #00BFFF",
"..	c #006BE5",
"+.	c #D9DBDB",
"@.	c #EFF3F6",
"#.	c #F1F6FF",
"$.	c #EBF1FE",
"%.	c #E5EDFA",
"&.	c #D7E0F1",
"*.	c #C1CEE4",
"=.	c #B6C4DD",
"-.	c #B4C3DC",
";.	c #AEBEDB",
">.	c #8495B1",
",.	c #00D1FF",
"'.	c #00B8FF",
").	c #00B6FF",
"!.	c #00B4FF",
"~.	c #00B0FF",
"{.	c #00B1FF",
"].	c #006FE6",
"^.	c #C4C4C4",
"/.	c #E6EBED",
"(.	c #ECF3FE",
"_.	c #CCD6EA",
":.	c #BECAE2",
"<.	c #BBC9E0",
"[.	c #B9C6DF",
"}.	c #B5C5E0",
"|.	c #BA7655",
"1.	c #00BEFA",
"2.	c #00DBFF",
"3.	c #00D2FF",
"4.	c #00ADFF",
"5.	c #00AAFF",
"6.	c #00A9FF",
"7.	c #00A7FF",
"8.	c #00A8FF",
"9.	c #00AEFF",
"0.	c #00B5FF",
"a.	c #006FE5",
"b.	c #BCBCBC",
"c.	c #E4E9E9",
"d.	c #EFF5FF",
"e.	c #E7EEFB",
"f.	c #D5DFEF",
"g.	c #C7D3E8",
"h.	c #C5D1E6",
"i.	c #C2CFE5",
"j.	c #C1CDE4",
"k.	c #BDCBE5",
"l.	c #FD771B",
"m.	c #FF9836",
"n.	c #BF9067",
"o.	c #00B6F9",
"p.	c #00D3FF",
"q.	c #00CCFF",
"r.	c #00A3FF",
"s.	c #009EFF",
"t.	c #00A4FF",
"u.	c #00ABFF",
"v.	c #00B2FF",
"w.	c #00B9FF",
"x.	c #006FE4",
"y.	c #E7E9E9",
"z.	c #E9F0FC",
"A.	c #DAE2F2",
"B.	c #D0DAED",
"C.	c #CCD7EA",
"D.	c #C9D4E9",
"E.	c #C7D2E7",
"F.	c #C6D2E6",
"G.	c #C3D0E8",
"H.	c #FD670F",
"I.	c #FF8F2F",
"J.	c #FF9938",
"K.	c #FF9535",
"L.	c #BF855F",
"M.	c #00AFF9",
"N.	c #00CAFF",
"O.	c #00A2FF",
"P.	c #00AFFF",
"Q.	c #00BDFF",
"R.	c #006EE3",
"S.	c #BBBCBC",
"T.	c #E0E4E9",
"U.	c #EAF0FD",
"V.	c #DCE5F5",
"W.	c #D6E0F1",
"X.	c #D3DDEE",
"Y.	c #D0DBED",
"Z.	c #CED9EC",
"`.	c #CBD7EA",
" +	c #C8D5EC",
".+	c #FF9232",
"++	c #FF9434",
"@+	c #FF8C2E",
"#+	c #FF882B",
"$+	c #CF7C4B",
"%+	c #0093F2",
"&+	c #00A6FF",
"*+	c #00BBFF",
"=+	c #00C2FF",
"-+	c #006EE2",
";+	c #B3B7BC",
">+	c #D5DAE6",
",+	c #DFE8F6",
"'+	c #DBE4F3",
")+	c #DAE3F3",
"!+	c #D2DCEF",
"~+	c #CEDAF0",
"{+	c #FF7A1F",
"]+	c #FF9A3C",
"^+	c #FF862A",
"/+	c #FF7B21",
"(+	c #FF771F",
"_+	c #AF6758",
":+	c #1084E1",
"<+	c #00AFF8",
"[+	c #005EB4",
"}+	c #A1B1B0",
"|+	c #CFD7E3",
"1+	c #DDE5F4",
"2+	c #D9E2F3",
"3+	c #D7E1F2",
"4+	c #D4DEF0",
"5+	c #D4DDEF",
"6+	c #D2DEF2",
"7+	c #FC741C",
"8+	c #FF9337",
"9+	c #FF9035",
"0+	c #FF7A22",
"a+	c #FF6A15",
"b+	c #FF6612",
"c+	c #CF5C35",
"d+	c #106CDA",
"e+	c #00B2FB",
"f+	c #007EC6",
"g+	c #00A64A",
"h+	c #00F902",
"i+	c #1FCB30",
"j+	c #AFC9C2",
"k+	c #E0E7F4",
"l+	c #DEE6F5",
"m+	c #D8E1F1",
"n+	c #D5E0F4",
"o+	c #F76C19",
"p+	c #FF8931",
"q+	c #FF862F",
"r+	c #FF842D",
"s+	c #FF6F1C",
"t+	c #FF5908",
"u+	c #FF6714",
"v+	c #CF784E",
"w+	c #205DCA",
"x+	c #00A0FC",
"y+	c #00A9FC",
"z+	c #0078D7",
"A+	c #009667",
"B+	c #00EF0D",
"C+	c #00FE00",
"D+	c #0BC61B",
"E+	c #A6C9B9",
"F+	c #DDE5F1",
"G+	c #E1E9F8",
"H+	c #DDE6F4",
"I+	c #DAE4F3",
"J+	c #D9E3F6",
"K+	c #F36516",
"L+	c #FF802B",
"M+	c #FF7D29",
"N+	c #FF7A27",
"O+	c #FF7826",
"P+	c #FF8733",
"Q+	c #FF8D36",
"R+	c #FF8833",
"S+	c #BF8A3A",
"T+	c #005AB7",
"U+	c #006BD5",
"V+	c #008D6B",
"W+	c #00DF10",
"X+	c #00ED04",
"Y+	c #0BC218",
"Z+	c #97C1A9",
"`+	c #DBE2EF",
" @	c #E3EAF7",
".@	c #E2EAF8",
"+@	c #DFE7F7",
"@@	c #DBE5F7",
"#@	c #EE5E13",
"$@	c #FF7725",
"%@	c #FF7423",
"&@	c #FF7121",
"*@	c #FF6E20",
"=@	c #FF7626",
"-@	c #FF7C2C",
";@	c #FF772A",
">@	c #BF8728",
",@	c #00A126",
"'@	c #00AB26",
")@	c #00D50A",
"!@	c #00AE0D",
"~@	c #C8CEDA",
"{@	c #DEE5F1",
"]@	c #E0E7F6",
"^@	c #DCE6F8",
"/@	c #D74909",
"(@	c #F8671B",
"_@	c #FF6A1D",
":@	c #FF681B",
"<@	c #FF651A",
"[@	c #FF691F",
"}@	c #FF6C23",
"|@	c #FF6720",
"1@	c #BF7B21",
"2@	c #00AD1A",
"3@	c #00B112",
"4@	c #00BE0F",
"5@	c #00BC0F",
"6@	c #00C20E",
"7@	c #00D00B",
"8@	c #00B30A",
"9@	c #B3B9C2",
"0@	c #D6DCE9",
"a@	c #E4ECF9",
"b@	c #E2E9F7",
"c@	c #E0E8F7",
"d@	c #E0E8F6",
"e@	c #DEE8FA",
"f@	c #A82F03",
"g@	c #F15713",
"h@	c #FF5E15",
"i@	c #FF5C14",
"j@	c #FF5C17",
"k@	c #FF5C19",
"l@	c #FF5717",
"m@	c #BF6D19",
"n@	c #00B118",
"o@	c #00B810",
"p@	c #00C30E",
"q@	c #00C50D",
"r@	c #00A714",
"s@	c #00A315",
"t@	c #00AA13",
"u@	c #00B910",
"v@	c #00CA0C",
"w@	c #00DA08",
"x@	c #00B508",
"y@	c #ACB0BA",
"z@	c #D2D9E4",
"A@	c #DFE9FA",
"B@	c #932402",
"C@	c #E2460B",
"D@	c #FF520E",
"E@	c #FF500F",
"F@	c #FF4B10",
"G@	c #FF460D",
"H@	c #AD5911",
"I@	c #00B516",
"J@	c #00BF0F",
"K@	c #00D10A",
"L@	c #0CA520",
"M@	c #00A215",
"N@	c #00B311",
"O@	c #00C40D",
"P@	c #00D40A",
"Q@	c #00E406",
"R@	c #00B805",
"S@	c #ACB1BA",
"T@	c #D3D9E4",
"U@	c #E3EBF8",
"V@	c #681300",
"W@	c #D53705",
"X@	c #FF4307",
"Y@	c #DD3006",
"Z@	c #A33D2B",
"`@	c #72845F",
" #	c #00B914",
".#	c #00DC08",
"+#	c #00E706",
"@#	c #00AD13",
"##	c #00BD0F",
"$#	c #00CE0B",
"%#	c #00DE08",
"&#	c #00EE04",
"*#	c #00BA03",
"=#	c #D4DAE6",
"-#	c #E0E9FB",
";#	c #600D00",
">#	c #811200",
",#	c #836F76",
"'#	c #B6B8B8",
")#	c #A0C1A6",
"!#	c #00B916",
"~#	c #00CC0C",
"{#	c #00D709",
"]#	c #00E207",
"^#	c #00B710",
"/#	c #00C70D",
"(#	c #00E705",
"_#	c #00F702",
":#	c #00BA01",
"<#	c #E3EAF9",
"[#	c #A1AABC",
"}#	c #D9DCDC",
"|#	c #EAEAEA",
"1#	c #8BCA96",
"2#	c #00C110",
"3#	c #00E905",
"4#	c #00F502",
"5#	c #00C10E",
"6#	c #00E107",
"7#	c #00F203",
"8#	c #00FD00",
"9#	c #0AA90A",
"0#	c #ADB3BC",
"a#	c #E3EAF8",
"b#	c #BBC6DA",
"c#	c #F5F8F8",
"d#	c #FDFDFD",
"e#	c #F3F3F3",
"f#	c #A0CAA9",
"g#	c #0BBC19",
"h#	c #00F003",
"i#	c #00FB01",
"j#	c #00CD0B",
"k#	c #00CB0C",
"l#	c #00DB08",
"m#	c #00EB05",
"n#	c #00C702",
"o#	c #3B953F",
"p#	c #98A4A4",
"q#	c #B9BEC8",
"r#	c #D9DFEA",
"s#	c #EDF2F3",
"t#	c #AECDB5",
"u#	c #0CB915",
"v#	c #00F701",
"w#	c #00C106",
"x#	c #3C9741",
"y#	c #90A299",
"z#	c #AFB3BB",
"A#	c #BEC4CD",
"B#	c #E1E7F4",
"C#	c #E1E8F7",
"D#	c #E0EAFC",
"E#	c #F8FDFE",
"F#	c #EFF4F5",
"G#	c #AFCDB7",
"H#	c #23A72B",
"I#	c #00BE08",
"J#	c #289D2F",
"K#	c #7B9C83",
"L#	c #B0B4BA",
"M#	c #C1C6CD",
"N#	c #D1D6E0",
"O#	c #DDE4EF",
"P#	c #E5ECF8",
"Q#	c #F4FDFF",
"R#	c #F9FEFF",
"S#	c #EFF4F6",
"T#	c #CCD8D3",
"U#	c #9BB6A3",
"V#	c #B7BBBF",
"W#	c #BFC3C9",
"X#	c #D1D6DD",
"Y#	c #E1E7EF",
"Z#	c #E8EEF9",
"`#	c #8394B0",
" $	c #8091AC",
".$	c #7A8AA4",
"+$	c #7887A0",
"@$	c #7B8BA5",
"              . . . . . . . . . . . . . . . +                   ",
"              . @ # # # # # # # # $ % & * = - ;                 ",
"              . > # # # # # # # # , ' ) ! ~ { ] ^               ",
"              . > # # / ( _ : # # @ % < [ } | 1 2 3             ",
"              . > 4 5 6 7 8 9 0 # $ a b c d e # f g h           ",
"              i j k l l l l m n o p q r s t u # v w x y         ",
"            z A B B B B B B B C D E F G & H I J K L M N O       ",
"            P Q Q Q Q Q Q Q Q Q R S T U 1 V W X X X X X X X     ",
"            Y Z ` ` ` ` ` ` ` `  ...+.@.#.$.%.! &.*.=.-.;.>.    ",
"            6 l ,.'.).).).).!.~.{.].^./.r (.%.t _.:.<.[.}.>.    ",
"          |.1.2.2.3.4.5.6.7.8.9.0.a.b.c.r d.e.f.g.h.i.j.k.>.    ",
"      l.m.n.o.p.p.p.q.r.s.t.u.v.w.x.b.y.% z.A.B.C.D.E.F.G.>.    ",
"  H.I.J.K.L.M.N.N.N.N.7.O.6.P.).Q.R.S.T.U.V.W.X.Y.Z.C.`. +>.    ",
"  .+++@+#+$+%+` ` ` ` 8.&+4.!.*+=+-+;+>+,+'+)+&.~ !+Y.Y.~+>.    ",
"  {+]+^+/+(+_+:+w.w.w.6.5.{.'. .<+[+}+|+! t 1+'+2+3+4+5+6+>.    ",
"  7+8+9+0+a+b+c+d+~.~.5.9.0.e+f+g+h+i+j+k+! ! l+1+'+= m+n+>.    ",
"  o+p+q+r+s+t+u+v+w+x+u.y+z+A+B+C+C+C+D+E+F+! G+l+H+d I+J+>.    ",
"  K+L+M+N+O+P+Q+R+S+T+U+V+W+X+X+X+X+X+X+Y+Z+`+ @.@+@l+H+@@>.    ",
"  #@$@%@&@*@=@-@;@>@,@'@)@)@)@)@)@)@)@)@)@!@~@{@H .@]@t ^@>.    ",
"  /@(@_@:@<@[@}@|@1@2@3@4@5@5@5@5@5@5@6@7@8@9@0@a@b@c@d@e@>.    ",
"    f@g@h@i@j@k@l@m@n@o@p@q@r@s@s@t@u@v@w@x@y@z@a@H c@+@A@>.    ",
"      B@C@D@E@F@G@H@I@J@v@)@K@L@M@N@O@P@Q@R@S@T@[ U@.@G+A@>.    ",
"        V@W@X@Y@Z@`@ #q@7@.#+#N@@###$#%#&#*#S@=#[ a@! .@-#>.    ",
"          ;#>#,#'#)#!#~#{#]#&#5@^#/#{#(#_#:#S@T@[ <#! .@-#>.    ",
"              [#}#|#1#2#%#3#4#q@5#K@6#7#8#9#0#T@[ a#.@.@A@>.    ",
"              b#c#d#e#f#g#h#i#j#k#l#m#n#o#p#q#r#[ U@.@! -#>.    ",
"              . > # d#s#t#u#v#P@)@w#x#y#z#A#T@B#a@.@.@C#D#>.    ",
"              . > # # E#F#G#H#I#J#K#L#M#N#O#P#[ a@.@.@C#D#>.    ",
"              . Q## # R#E#S#T#U#V#W#X#Y#Z#z.z.[ a@.@.@C#D#>.    ",
"              . >.>.>.>.>.`# $.$+$@$ $`#>.>.>.>.>.>.>.>.>.>.    ",
"                                                                ",
"                                                                "};
