/* XPM */
static char * sxw_xpm[] = {
"24 24 28 1",
" 	c None",
".	c #777777",
"+	c #868686",
"@	c #FFFFFF",
"#	c #999999",
"$	c #555555",
"%	c #FFFBF0",
"&	c #E3E3E3",
"*	c #666666",
"=	c #1C1C1C",
"-	c #000000",
";	c #CCCCCC",
">	c #0C0C0C",
",	c #5F5F5F",
"'	c #A0A0A4",
")	c #E7E7D6",
"!	c #D7D7D7",
"~	c #424242",
"{	c #292929",
"]	c #F1F1F1",
"^	c #333333",
"/	c #C0C0C0",
"(	c #EAEAEA",
"_	c #4D4D4D",
":	c #B2B2B2",
"<	c #3333CC",
"[	c #808080",
"}	c #00FFFF",
"  .+++++++++++++++      ",
"  .@@@@@@@@@@@@@@#$     ",
"  .@%%%%%%%&*=-$%##$    ",
"  .@%%%%%%;>-,&%%#;#$   ",
"  .@%%%%%%>-'%%%%#);#$  ",
"  .@%%%!$>-.%%%%%#@);#$ ",
"  .@%%%>-~{]%%%%%$^^^^^^",
"  .@%%/$!%%%%%%%](;/##.$",
"  .@%%_%%%*:%<<<<](;/##$",
"  .@%%]%:='%%%%%]]](;/#$",
"  .@%%%.--%%<<<<<<<<(;/$",
"  .@%%%--.%%%%]%]]](((;$",
"  .@%%!-$%<<<<<<<<<<();$",
"  '!+$=>]%%%%%]%](]());$",
" '~----*%%<%////////();$",
"'>--^,*;%%%%/[}}}}[/));$",
"--$!%%%%%<<]/}/@/@}/();$",
">'.@%%%%%]%]/[}}}}[/));$",
"' .@%<<<<<<]////////));$",
"  .@%%%]%]]&](]()())));$",
"  .@%<<<<<<<<<<<<<<)));$",
"  .@%]](](()()))))))));$",
"  +;;;;;;;;;;;;;;;;;;;;$",
"  .$$$$$$$$$$$$$$$$$$$$$"};
