/* XPM */
static char * table_xpm[] = {
"95 94 44 1",
" 	c None",
".	c #DEDEDE",
"+	c #E6E6E6",
"@	c #4A4C4A",
"#	c #B4B6B4",
"$	c #FFFFFF",
"%	c #FFFAFF",
"&	c #F6F6F6",
"*	c #F6F2F6",
"=	c #000000",
"-	c #010101",
";	c #838183",
">	c #E2E2E2",
",	c #E1E1E1",
"'	c #C3C3C3",
")	c #EEEEEE",
"!	c #EE7D7D",
"~	c #F54B4B",
"{	c #C8C8C8",
"]	c #969696",
"^	c #F83232",
"/	c #FF0000",
"(	c #EEEAEE",
"_	c #4B4B4B",
":	c #323232",
"<	c #191919",
"[	c #AFAFAF",
"}	c #E7AFAF",
"|	c #EB9696",
"1	c #F16464",
"2	c #7D7D7D",
"3	c #E4C8C8",
"4	c #E6E2E6",
"5	c #B6B6B6",
"6	c #747474",
"7	c #DEDADE",
"8	c #FB1919",
"9	c #D5D6D5",
"0	c #D5D2D5",
"a	c #CDCECD",
"b	c #D2D2D2",
"c	c #8C8C8C",
"d	c #BEBEBE",
"e	c #6E6E6E",
".+@@@@@@@@@@@@@@@@@@@@@@@@@@@@@@@@@@@@@@@@@@@@@@@@@@@@@@@@@@@@@@@@@@@@@@@@@@@@@@@@@@@@@@@@@@@@+",
".@############################################################################################@",
".@#$$$$$$$$$$$$$$$$$$$$$$$$$$$$$$$$$$$$$$$$$$$$$$$$$$$$$$$$$$$$$$$$$$$$$$$$$$$$$$$$$$$$$$$$$$#@",
".@#$$$$$$$$$$$$$$$$$$$$$$$$$$$$$$$$$$$$$$$$$$$$$$$$$$$$$$$$$$$$$$$$$$$$$$$$$$$$$$$$$$$$$$$$$##@",
".@#$$%%%%%%%%%%%%%%%%%%%%%%%%%%%%%%%%%%%%%%%%%%%%%%%%%%%%%%%%%%%%%%%%%%%%%%%%%%%%%%%%%%%%%%%%#@",
".@#$$%%%%%%%%%%%%%%%%%%%%%%%%%%%%%%%%%%%%%%%%%%%%%%%%%%%%%%%%%%%%%%%%%%%%%%%%%%%%%%%%%%%%%%%%#@",
".@#$$&&&&&&&&&&&&&&&&&&&&&&&&&&&&&&&&&&&&&&&&&&&&&&&&&&&&&&&&&&&&&&&&&&&&&&&&&&&&&&&&&&&&&&&&#@",
".@#$$&&&&&&&&&&&&&&&&&&&&&&&&&&&&&&&&&&&&&&&&&&&&&&&&&&&&&&&&&&&&&&&&&&&&&&&&&&&&&&&&&&&&&&&&#@",
".@#$$&&&&&&&&&&&&&&&&&&&&&&&&&&&&&&&&&&&&&&&&&&&&&&&&&&&&&&&&&&&&&&&&&&&&&&&&&&&&&&&&&&&&&&&&#@",
".@#$$&&&&&&&&&&&&&&&&&&&&&&&&&&&&&&&&&&&&&&&&&&&&&&&&&&&&&&&&&&&&&&&&&&&&&&&&&&&&&&&&&&&&&&&&#@",
".@#$$&&&&&&&&&&&&&&&&&&&&&&&&&&&&&&&&&&&&&&&&&&&&&&&&&&&&&&&&&&&&&&&&&&&&&&&&&&&&&&&&&&&&&&&&#@",
".@#$$&&&&&&&&&&&&&&&&&&&&&&&&&&&&&&&&&&&&&&&&&&&&&&&&&&&&&&&&&&&&&&&&&&&&&&&&&&&&&&&&&&&&&&&&#@",
".@#$$********==------------------------------------------------------------------=;**********#@",
".@#$$********=------------------------------------------------------------------->$**********#@",
".@#$$********=-,,,,,,,,,,,,,,,,,,,,,,,,$$==,,,,,,,,,,,,,,,,,,,,,,,,$$==,,,,,,,,,'>$**********#@",
".@#$$********=-,,,,,,,,,,,,,,,,,,,,,,,,$$==,,,,,,,,,,,,,,,,,,,,,,,,$$==,,,,,,,,,'>$**********#@",
".@#$$********=-,,,,,,,,,,,,,,,,,,,,,,,,$$==,,,,,,,,,,,,,,,,,,,,,,,,$$==,,,,,,,,,'>$**********#@",
".@#$$********=-,,,,,,,,,,,,,,,,,,,,,,,,$$==,,,,,,,,,,,,,,,,,,,,,,,,$$==,,,,,,,,,'>$**********#@",
".@#$$))))))))=-,,,,,,,,,,,,,,,,,,,,,,,,$$==,,,,,,,,,,,,,,,,,,,,,,,,$$==,,,,,,,,,'>$))))))))))#@",
".@#$$))))))))=-,,,,,,,,,,,,,,,,,,,,,,,,$$==,,,,,,,,,,,,,,,,,,,,,,,,$$==,,,,,,,,,'>$))))))))))#@",
".@#$$))))))))=-,,,,,,,,,,,,,,,,,,,,,,,,$$==,,,,,,,,,,,,,,,,,,,,,,,,$$==,,,,,,,,,'>$))))))))))#@",
".@#$$))))))))=-,,,,,,,,,,,,,,,,,,,,,,,,$$==,,,,,,,,,,,,!,,,,,,,,,,,$$==,,,,,,,,,'>$))))))))))#@",
".@#$$))))))))=-,,,,,,,,,,,,,,,,,,,,,,,,$$==,,,,,,,,,,,!~,,,,,,,,,,,$$==,,,,,,,,,'>$))))))))))#@",
".@#$$))))))))=-,,,,,,,,,{]],,,,,,,,,,,,$$==,,,,,,,,,!^/~,,,,,,,,,,,$$==,,,,,,,,,'>$))))))))))#@",
".@#$$((((((((=-,,,,,,,,]=_:<[,,,,,,,,,,$$==,,,,,,,,,}|1~,,,,,,,,,,,$$==,,,,,,,,,'>$((((((((((#@",
".@#$$((((((((=-,,,,,,,,=[,,2_,,,,,,,,,,$$==,,,,,,,,,,,|~,,,,,,,,,,,$$==,,,,,,,,,'>$((((((((((#@",
".@#$$((((((((=-,,,,,,,,],,,2_,,,,,,,,,,$$==,,,,,,,,,,,|~,,,,,,,,,,,$$==,,,,,,,,,'>$((((((((((#@",
".@#$$((((((((=-,,,,,,,,[_:=<_,,,,,,,,,,$$==,,,,,,,,,,,|~,,,,,,,,,,,$$==,,,,,,,,,'>$((((((((((#@",
".@#$$((((((((=-,,,,,,,{=2{,]_,,,,,,,,,,$$==,,,,,,,,,,,|~,,,,,,,,,,,$$==,,,,,,,,,'>$((((((((((#@",
".@#$$((((((((=-,,,,,,,]_,,,__,,,,,,,,,,$$==,,,,,,,,,,,|~,,,,,,,,,,,$$==,,,,,,,,,'>$((((((((((#@",
".@#$$++++++++=-,,,,,,,{=2]:<:{,,,,,,,,,$$==,,,,,,,,,,,|~,,,,,,,,,,,$$==,,,,,,,,,'>$++++++++++#@",
".@#$$++++++++=-,,,,,,,,[__[{_[,,,,,,,,,$$==,,,,,,,,,,,3},,,,,,,,,,,$$==,,,,,,,,,'>$++++++++++#@",
".@#$$++++++++=-,,,,,,,,,,,,,,,,,,,,,,,,$$==,,,,,,,,,,,,,,,,,,,,,,,,$$==,,,,,,,,,'>$++++++++++#@",
".@#$$++++++++=-,,,,,,,,,,,,,,,,,,,,,,,,$$==,,,,,,,,,,,,,,,,,,,,,,,,$$==,,,,,,,,,'>$++++++++++#@",
".@#$$++++++++=-,,,,,,,,,,,,,,,,,,,,,,,,$$==,,,,,,,,,,,,,,,,,,,,,,,,$$==,,,,,,,,,'>$++++++++++#@",
".@#$$++++++++=-,,,,,,,,,,,,,,,,,,,,,,,,$$==,,,,,,,,,,,,,,,,,,,,,,,,$$==,,,,,,,,,'>$++++++++++#@",
".@#$$44444444=-,,,,,,,,,,,,,,,,,,,,,,,,$$==,,,,,,,,,,,,,,,,,,,,,,,,$$==,,,,,,,,,'>$4444444444#@",
".@#$$44444444=-,,,,,,,,,,,,,,,,,,,,,,,,$$==,,,,,,,,,,,,,,,,,,,,,,,,$$==,,,,,,,,,'>$4444444444#@",
".@#$$44444444=-$$$$$$$$$$$$$$$$$$$$$$$$$$==$$$$$$$$$$$$$$$$$$$$$$$$$$==$$$$$$$$$5>$4444444444#@",
".@#$$44444444=-$$$$$$$$$$$$$$$$$$$$$$$$$$==$$$$$$$$$$$$$$$$$$$$$$$$$$==$$$$$$$$$6>$4444444444#@",
".@#$$44444444=-================================================================== $4444444444#@",
".@#$$44444444=-================================================================== $4444444444#@",
".@#$$........=-,,,,,,,,,,,,,,,,,,,,,,,,$$==,,,,,,,,,,,,,,,,,,,,,,,,$$==,,,,,,,,,'>$..........#@",
".@#$$........=-,,,,,,,,,,,,,,,,,,,,,,,,$$==,,,,,,,,,,,,,,,,,,,,,,,,$$==,,,,,,,,,'>$..........#@",
".@#$$........=-,,,,,,,,,,,,,,,,,,,,,,,,$$==,,,,,,,,,,,,,,,,,,,,,,,,$$==,,,,,,,,,'>$..........#@",
".@#$$........=-,,,,,,,,,,,,,,,,,,,,,,,,$$==,,,,,,,,,,,,,,,,,,,,,,,,$$==,,,,,,,,,'>$..........#@",
".@#$$........=-,,,,,,,,,,,,,,,,,,,,,,,,$$==,,,,,,,,,,,,,,,,,,,,,,,,$$==,,,,,,,,,'>$..........#@",
".@#$$........=-,,,,,,,,,,,,,,,,,,,,,,,,$$==,,,,,,,,,,,,,,,,,,,,,,,,$$==,,,,,,,,,'>$..........#@",
".@#$$77777777=-,,,,,,,,,,,,,,,,,,,,,,,,$$==,,,,,,,,,,,,,,,,,,,,,,,,$$==,,,,,,,,,'>$7777777777#@",
".@#$$77777777=-,,,,,,,,]_,,,,,,,,,,,,,,$$==,,,,,,,,,,|~~},,,,,,,,,,$$==,,,,,,,,,'>$7777777777#@",
".@#$$77777777=-,,,,,,,,]_,,,,,,,,,,,,,,$$==,,,,,,,,,~8!!8|,,,,,,,,,$$==,,,,,,,,,'>$7777777777#@",
".@#$$77777777=-,,,,,,,,]_,[]{,,,,,,,,,,$$==,,,,,,,,3/},,}8,,,,,,,,,$$==,,,,,,,,,'>$7777777777#@",
".@#$$77777777=-,,,,,,,,]__::=],,,,,,,,,$$==,,,,,,,,|/,,,,/,,,,,,,,,$$==,,,,,,,,,'>$7777777777#@",
".@#$$77777777=-,,,,,,,,]=2,,2<,,,,,,,,,$$==,,,,,,,,,,,,,!^,,,,,,,,,$$==,,,,,,,,,'>$7777777777#@",
".@#$$99999999=-,,,,,,,,]<,,,,<[,,,,,,,,$$==,,,,,,,,,,,3~83,,,,,,,,,$$==,,,,,,,,,'>$9999999999#@",
".@#$$99999999=-,,,,,,,,]_,,,,_],,,,,,,,$$==,,,,,,,,,,!/13,,,,,,,,,,$$==,,,,,,,,,'>$9999999999#@",
".@#$$99999999=-,,,,,,,,]_,,,,_],,,,,,,,$$==,,,,,,,,,18},,,,,,,,,,,,$$==,,,,,,,,,'>$9999999999#@",
".@#$$99999999=-,,,,,,,,]={,,{=,,,,,,,,,$$==,,,,,,,,3/3,,,,,,,,,,,,,$$==,,,,,,,,,'>$9999999999#@",
".@#$$99999999=-,,,,,,,,]<<22<2,,,,,,,,,$$==,,,,,,,,|/~~~~~,,,,,,,,,$$==,,,,,,,,,'>$9999999999#@",
".@#$$99999999=-,,,,,,,,{[[__[,,,,,,,,,,$$==,,,,,,,,|~|||||,,,,,,,,,$$==,,,,,,,,,'>$9999999999#@",
".@#$$00000000=-,,,,,,,,,,,,,,,,,,,,,,,,$$==,,,,,,,,,,,,,,,,,,,,,,,,$$==,,,,,,,,,'>$0000000000#@",
".@#$$00000000=-,,,,,,,,,,,,,,,,,,,,,,,,$$==,,,,,,,,,,,,,,,,,,,,,,,,$$==,,,,,,,,,'>$0000000000#@",
".@#$$00000000=-,,,,,,,,,,,,,,,,,,,,,,,,$$==,,,,,,,,,,,,,,,,,,,,,,,,$$==,,,,,,,,,'>$0000000000#@",
".@#$$00000000=-,,,,,,,,,,,,,,,,,,,,,,,,$$==,,,,,,,,,,,,,,,,,,,,,,,,$$==,,,,,,,,,'>$0000000000#@",
".@#$$00000000=-,,,,,,,,,,,,,,,,,,,,,,,,$$==,,,,,,,,,,,,,,,,,,,,,,,,$$==,,,,,,,,,'>$0000000000#@",
".@#$$00000000=-,,,,,,,,,,,,,,,,,,,,,,,,$$==,,,,,,,,,,,,,,,,,,,,,,,,$$==,,,,,,,,,'>$0000000000#@",
".@#$$aaaaaaaa=-$$$$$$$$$$$$$$$$$$$$$$$$$$==$$$$$$$$$$$$$$$$$$$$$$$$$$==$$$$$$$$$5>$aaaaaaaaaa#@",
".@#$$aaaaaaaa=-$$$$$$$$$$$$$$$$$$$$$$$$$$==$$$$$$$$$$$$$$$$$$$$$$$$$$==$$$$$$$$$6>$aaaaaaaaaa#@",
".@#$$aaaaaaaa=-================================================================== $aaaaaaaaaa#@",
".@#$$aaaaaaaa=-================================================================== $aaaaaaaaaa#@",
".@#$$aaaaaaaa=-,,,,,,,,,,,,,,,,,,,,,,,,$$==,,,,,,,,,,,,,,,,,,,,,,,,$$==,,,,,,,,,'>$aaaaaaaaaa#@",
".@#$$aaaaaaaa=-,,,,,,,,,,,,,,,,,,,,,,,,$$==,,,,,,,,,,,,,,,,,,,,,,,,$$==,,,,,,,,,'>$aaaaaaaaaa#@",
".@#$$aaaaaaaa=-,,,,,,,,,,,,,,,,,,,,,,,,$$==,,,,,,,,,,,,,,,,,,,,,,,,$$==,,,,,,,,,'>$aaaaaaaaaa#@",
".@#$$aaaaaaaa=-,,,,,,,,,,,,,,,,,,,,,,,,$$==,,,,,,,,,,,,,,,,,,,,,,,,$$==,,,,,,,,,'>$aaaaaaaaaa#@",
".@#$$aaaaaaaa=-,,,,,,,,,,,,,,,,,,,,,,,,$$==,,,,,,,,,,,,,,,,,,,,,,,,$$==,,,,,,,,,'>$aaaaaaaaaa#@",
".@#$$aaaaaaaa=-,,,,,,,,,,,,,,,,,,,,,,,,$$==,,,,,,,,,,,,,,,,,,,,,,,,$$==,,,,,,,,,'>$aaaaaaaaaa#@",
".@#$$aaaaaaaa=-,,,,,,,,,,,,,,,,,,,,,,,,$$==,,,,,,,,,,,,,,,,,,,,,,,,$$==,,,,,,,,,'>$aaaaaaaaaa#@",
".@#$$aaaaaaaa=-,,,,,,,,,,,,,,,,,,,,,,,,$$==,,,,,,,,,,,,,,,,,,,,,,,,bc==,,,,,,,,,'>$aaaaaaaaaa#@",
".@#$$aaaaaaaa=-,,,,,,,,,,,,,,,,,,,,,,,,$$==,,,,,,,,,,,,,,,,,,,,,,,,de==,,,,,,,,,'>$aaaaaaaaaa#@",
".@#$$aaaaaaaa=->>>>>>>>>>>>>>>>>>>>>>>>>>  >>>>>>>>>>>>>>>>>>>>>>>>>>>>>>>>>>>>>>>$aaaaaaaaaa#@",
".@#$$aaaaaaaa=->>>>>>>>>>>>>>>>>>>>>>>>>>  >>>>>>>>>>>>>>>>>>>>>>>>>>>>>>>>>>>>>>>$aaaaaaaaaa#@",
".@#$$aaaaaaaa;$$$$$$$$$$$$$$$$$$$$$$$$$$$$$$$$$$$$$$$$$$$$$$$$$$$$$$$$$$$$$$$$$$$$$aaaaaaaaaa#@",
".@#$$aaaaaaaaaaaaaaaaaaaaaaaaaaaaaaaaaaaaaaaaaaaaaaaaaaaaaaaaaaaaaaaaaaaaaaaaaaaaaaaaaaaaaaaa#@",
".@#$$aaaaaaaaaaaaaaaaaaaaaaaaaaaaaaaaaaaaaaaaaaaaaaaaaaaaaaaaaaaaaaaaaaaaaaaaaaaaaaaaaaaaaaaa#@",
".@#$$aaaaaaaaaaaaaaaaaaaaaaaaaaaaaaaaaaaaaaaaaaaaaaaaaaaaaaaaaaaaaaaaaaaaaaaaaaaaaaaaaaaaaaaa#@",
".@#$$aaaaaaaaaaaaaaaaaaaaaaaaaaaaaaaaaaaaaaaaaaaaaaaaaaaaaaaaaaaaaaaaaaaaaaaaaaaaaaaaaaaaaaaa#@",
".@#$$aaaaaaaaaaaaaaaaaaaaaaaaaaaaaaaaaaaaaaaaaaaaaaaaaaaaaaaaaaaaaaaaaaaaaaaaaaaaaaaaaaaaaaaa#@",
".@#$$aaaaaaaaaaaaaaaaaaaaaaaaaaaaaaaaaaaaaaaaaaaaaaaaaaaaaaaaaaaaaaaaaaaaaaaaaaaaaaaaaaaaaaaa#@",
".@#$$aaaaaaaaaaaaaaaaaaaaaaaaaaaaaaaaaaaaaaaaaaaaaaaaaaaaaaaaaaaaaaaaaaaaaaaaaaaaaaaaaaaaaaaa#@",
".@#$$aaaaaaaaaaaaaaaaaaaaaaaaaaaaaaaaaaaaaaaaaaaaaaaaaaaaaaaaaaaaaaaaaaaaaaaaaaaaaaaaaaaaaaaa#@",
".@#$$aaaaaaaaaaaaaaaaaaaaaaaaaaaaaaaaaaaaaaaaaaaaaaaaaaaaaaaaaaaaaaaaaaaaaaaaaaaaaaaaaaaaaaaa#@",
".@#$$aaaaaaaaaaaaaaaaaaaaaaaaaaaaaaaaaaaaaaaaaaaaaaaaaaaaaaaaaaaaaaaaaaaaaaaaaaaaaaaaaaaaaaaa#@",
".@############################################################################################@",
".+@@@@@@@@@@@@@@@@@@@@@@@@@@@@@@@@@@@@@@@@@@@@@@@@@@@@@@@@@@@@@@@@@@@@@@@@@@@@@@@@@@@@@@@@@@@@+"};
