/* XPM */
static char * tool_xpm[] = {
"23 24 194 2",
"  	c None",
". 	c #BFBFBF",
"+ 	c #8B8B8B",
"@ 	c #A7A7A7",
"# 	c #868686",
"$ 	c #E1E1E1",
"% 	c #C2C2C2",
"& 	c #B4B4B4",
"* 	c #E3E3E3",
"= 	c #888888",
"- 	c #E4E4E4",
"; 	c #CECECE",
"> 	c #878787",
", 	c #C6C6C6",
"' 	c #BABABA",
") 	c #747474",
"! 	c #949494",
"~ 	c #7A7A7A",
"{ 	c #9F9F9F",
"] 	c #AAAAAA",
"^ 	c #B8B8B8",
"/ 	c #DDDDDD",
"( 	c #CBCBCB",
"_ 	c #707070",
": 	c #C9C9C9",
"< 	c #777777",
"[ 	c #B0B0B0",
"} 	c #9A9A9A",
"| 	c #7F7F7F",
"1 	c #E8E8E8",
"2 	c #C4C4C4",
"3 	c #8C8C8C",
"4 	c #B1B1B1",
"5 	c #858585",
"6 	c #B2B2B2",
"7 	c #B3B3B3",
"8 	c #6D6D6D",
"9 	c #E6E6E6",
"0 	c #DFDFDF",
"a 	c #BBBBBB",
"b 	c #CACACA",
"c 	c #848484",
"d 	c #E9E9E9",
"e 	c #7E7E7E",
"f 	c #7B7B7B",
"g 	c #E2E2E2",
"h 	c #8A8A8A",
"i 	c #8D8D8D",
"j 	c #DADADA",
"k 	c #818181",
"l 	c #808080",
"m 	c #C1C1C1",
"n 	c #9E9E9E",
"o 	c #797979",
"p 	c #7D7D7D",
"q 	c #9C9C9C",
"r 	c #D3D3D3",
"s 	c #8F8F8F",
"t 	c #ECECEC",
"u 	c #BEBEBE",
"v 	c #B7B7B7",
"w 	c #C7C7C7",
"x 	c #D0D0D0",
"y 	c #D7D7D7",
"z 	c #D9D9D9",
"A 	c #E5E5E5",
"B 	c #9D9D9D",
"C 	c #CDCDCD",
"D 	c #EBEBEB",
"E 	c #ABABAB",
"F 	c #BDBDBD",
"G 	c #ADADAD",
"H 	c #DCDCDC",
"I 	c #5C5C5C",
"J 	c #AFAFAF",
"K 	c #969696",
"L 	c #9B9B9B",
"M 	c #6E6E6E",
"N 	c #757574",
"O 	c #7B7763",
"P 	c #9F9F9D",
"Q 	c #DEDEDE",
"R 	c #C5C5C5",
"S 	c #E0E0E0",
"T 	c #4A4A4A",
"U 	c #95948F",
"V 	c #807227",
"W 	c #CEA600",
"X 	c #736331",
"Y 	c #828282",
"Z 	c #CFCFCF",
"` 	c #444238",
" .	c #AD9B31",
"..	c #F4C705",
"+.	c #EAB000",
"@.	c #543B04",
"#.	c #676045",
"$.	c #D5D4D2",
"%.	c #929292",
"&.	c #8E7B11",
"*.	c #F5C700",
"=.	c #F6BD00",
"-.	c #EAA700",
";.	c #D49A00",
">.	c #BD8900",
",.	c #816A27",
"'.	c #DCDBD8",
").	c #EAEAEA",
"!.	c #959595",
"~.	c #AEAEAE",
"{.	c #A3A3A3",
"].	c #73692B",
"^.	c #8F7004",
"/.	c #D39D00",
"(.	c #EAAC00",
"_.	c #D39900",
":.	c #BE8100",
"<.	c #B07800",
"[.	c #807040",
"}.	c #E9E8E8",
"|.	c #6B6B6B",
"1.	c #979797",
"2.	c #4C472C",
"3.	c #CFA700",
"4.	c #DAA000",
"5.	c #AD7100",
"6.	c #BD8200",
"7.	c #BB7F00",
"8.	c #B07E00",
"9.	c #827859",
"0.	c #C3C3C3",
"a.	c #737373",
"b.	c #7D7A68",
"c.	c #AF8D00",
"d.	c #B77E00",
"e.	c #C78D00",
"f.	c #B17700",
"g.	c #C68D00",
"h.	c #BC8200",
"i.	c #AE8102",
"j.	c #948C75",
"k.	c #A9A9A9",
"l.	c #D1D1D1",
"m.	c #877F54",
"n.	c #C39800",
"o.	c #BE8700",
"p.	c #C78E00",
"q.	c #B77F00",
"r.	c #CB9400",
"s.	c #BF8800",
"t.	c #A37D09",
"u.	c #A4A093",
"v.	c #7C7C7C",
"w.	c #D8D8D8",
"x.	c #787878",
"y.	c #E4E4E2",
"z.	c #897C39",
"A.	c #C69900",
"B.	c #C89200",
"C.	c #C58E00",
"D.	c #BF8A00",
"E.	c #CF9800",
"F.	c #C38E00",
"G.	c #9B7A15",
"H.	c #C0BEBA",
"I.	c #767676",
"J.	c #D5D5D2",
"K.	c #87741F",
"L.	c #CC9C00",
"M.	c #D19D00",
"N.	c #C59000",
"O.	c #C79400",
"P.	c #D49E00",
"Q.	c #C59600",
"R.	c #8A7F68",
"S.	c #BBBAB7",
"T.	c #987E0F",
"U.	c #CC9D00",
"V.	c #D5A200",
"W.	c #C99600",
"X.	c #D19F00",
"Y.	c #8F6E21",
"Z.	c #C3C1BD",
"`.	c #B9B9B9",
" +	c #A8A599",
".+	c #AD8C07",
"++	c #D4A600",
"@+	c #CD9702",
"#+	c #866E33",
"$+	c #CFCDCA",
"%+	c #A4A4A4",
"&+	c #8F8A76",
"*+	c #8E7011",
"=+	c #81724C",
"      .                                       ",
"    + @ # $                       % & *       ",
"    = - ; > ,                 ' ) ! ~ {       ",
"    ] ^ / ( _               : < [ } | 1       ",
"      # ; 2 3 4             5 6 7 8 9     ' 0 ",
"      a | ] b c d           e & ' f g   ] h i ",
"        j k , 9 l         $ l ' m n o p q r s ",
"            l t : #     1 o u v w x y z A B C ",
"            D ) 0 E n $ f F G 4 C z 0 - u 3   ",
"              H p ( h I ^ J [ % H K s + L     ",
"                . 3 & M N O P Q k R S D       ",
"                S T | U V W X Y Z             ",
"              - e c `  ...+.@.#.$.            ",
"            A f a %.&.*.=.-.;.>.,.'.          ",
"      ).v !.f F ~.{.].^./.(._.:.<.[.}.        ",
"    & |.1.J m G 4 % @ 2.3.4.5.6.7.8.9.        ",
"  : p 4 7 ' . 6 0.Q a.b.c.d.e.f.g.h.i.j.      ",
"  + k.B h & : x g l l.  m.n.o.p.q.r.s.t.u.    ",
"  f K Y . v.~.w.0 x.    y.z.A.B.C.D.E.F.G.H.  ",
"  I.l D   j s 0 w.i       J.K.L.M.N.O.P.Q.R.  ",
"  -       ' ~.- B w         S.T.U.V.W.X.Y.Z.  ",
"        u k.Q `.i              +.+++@+#+$+    ",
"        I.| e %+                &+*+=+Q       ",
"                                  1           "};
