/* XPM */
static char * up_xpm[] = {
"24 25 232 2",
"  	c None",
". 	c #C3E1FF",
"+ 	c #B3D9FF",
"@ 	c #A8D4FF",
"# 	c #9FCFFF",
"$ 	c #9BCCFF",
"% 	c #98CBFF",
"& 	c #96CAFF",
"* 	c #CBE5FF",
"= 	c #B7DBFF",
"- 	c #CCE5FF",
"; 	c #DEEFFF",
"> 	c #EEF7FF",
", 	c #FAFDFF",
"' 	c #EBF5FF",
") 	c #D4E9FF",
"! 	c #B4DAFF",
"~ 	c #8DC5FF",
"{ 	c #B1D8FF",
"] 	c #D0E7FF",
"^ 	c #EDF6FF",
"/ 	c #FFFFFF",
"( 	c #E1F0FF",
"_ 	c #B0D7FF",
": 	c #7CBDFF",
"< 	c #DBEDFE",
"[ 	c #FDFEFE",
"} 	c #F7F8F8",
"| 	c #EFF0F0",
"1 	c #DDEFF9",
"2 	c #FEFEFE",
"3 	c #BFDFFE",
"4 	c #81C0FF",
"5 	c #DAECFE",
"6 	c #FBFCFD",
"7 	c #FCFCFD",
"8 	c #E7E8E9",
"9 	c #D2D4D6",
"0 	c #6EB9EA",
"a 	c #039CFF",
"b 	c #65C2FE",
"c 	c #F3F9FD",
"d 	c #FCFDFE",
"e 	c #FDFDFE",
"f 	c #BDDDFE",
"g 	c #74B9FF",
"h 	c #CAE4FF",
"i 	c #CDE5FD",
"j 	c #F9FBFB",
"k 	c #FAFCFC",
"l 	c #F6F8F8",
"m 	c #E1E2E2",
"n 	c #BDCED7",
"o 	c #36A9F3",
"p 	c #009BFF",
"q 	c #2AABFF",
"r 	c #D2ECFD",
"s 	c #FBFCFC",
"t 	c #FBFDFD",
"u 	c #A6D2FD",
"v 	c #B3D9FE",
"w 	c #E5F1FB",
"x 	c #F7F9FA",
"y 	c #F8FAFB",
"z 	c #EEF1F2",
"A 	c #DDE0E1",
"B 	c #9BC9E6",
"C 	c #12A1FD",
"D 	c #0CA0FF",
"E 	c #9ED8FD",
"F 	c #F9FBFC",
"G 	c #DAEBFB",
"H 	c #7ABDFE",
"I 	c #C2E0FF",
"J 	c #C5E1FC",
"K 	c #F3F7F8",
"L 	c #F5F9F9",
"M 	c #F0F4F5",
"N 	c #D9E1E4",
"O 	c #68BDF4",
"P 	c #18A4FF",
"Q 	c #1BA5FF",
"R 	c #26AAFF",
"S 	c #5ABEFE",
"T 	c #EDF6FB",
"U 	c #F6F9FA",
"V 	c #9FCFFC",
"W 	c #AFD7FF",
"X 	c #D3E7F9",
"Y 	c #F0F4F6",
"Z 	c #F4F7F8",
"` 	c #EBEFF1",
" .	c #32ADFC",
"..	c #47B6FE",
"+.	c #E3F2FB",
"@.	c #32AEFE",
"#.	c #32AFFE",
"$.	c #EFF7FC",
"%.	c #5BBEFE",
"&.	c #26AAFE",
"*.	c #E1F1FC",
"=.	c #F9FAFB",
"-.	c #BFDDF9",
";.	c #579FE8",
">.	c #9FD0FF",
",.	c #DEEBF6",
"'.	c #EDF2F4",
").	c #F2F6F7",
"!.	c #84CEFD",
"~.	c #F5F8F9",
"{.	c #31AEFE",
"].	c #FAFBFC",
"^.	c #9ED7FC",
"/.	c #0C9FFF",
"(.	c #C7E8FC",
"_.	c #D6E8F7",
":.	c #56A5F3",
"<.	c #94C9FF",
"[.	c #E5EDF3",
"}.	c #E9EFF2",
"|.	c #F2F5F7",
"1.	c #1DA6FE",
"2.	c #BDE3FC",
"3.	c #F6F8FA",
"4.	c #EEF3F5",
"5.	c #30ACFD",
"6.	c #D1EBFB",
"7.	c #2FADFE",
"8.	c #C7E7FC",
"9.	c #E5EEF4",
"0.	c #54A8FC",
"a.	c #8BC5FF",
"b.	c #E2EBF1",
"c.	c #E6EDF0",
"d.	c #ECF1F4",
"e.	c #F3F6F8",
"f.	c #E4F1F9",
"g.	c #F4F7F9",
"h.	c #F1F5F7",
"i.	c #E4EBEE",
"j.	c #2EABFC",
"k.	c #F0F6FA",
"l.	c #E8F3FA",
"m.	c #E1EBF2",
"n.	c #4EA5FC",
"o.	c #86C3FF",
"p.	c #D0E2F1",
"q.	c #E2EAEE",
"r.	c #E4ECEF",
"s.	c #E7EEF1",
"t.	c #EAF0F3",
"u.	c #E8EFF2",
"v.	c #E5ECF0",
"w.	c #EAEFF2",
"x.	c #D8E0E4",
"y.	c #2CAAFB",
"z.	c #31ADFE",
"A.	c #F6F8F9",
"B.	c #E8EEF1",
"C.	c #C8DFF1",
"D.	c #469BF0",
"E.	c #85C2FF",
"F.	c #B7D6F3",
"G.	c #DEE8EC",
"H.	c #DFE8EC",
"I.	c #D2DBDF",
"J.	c #2CA9FA",
"K.	c #30ADFE",
"L.	c #F4F8F9",
"M.	c #A5CEF3",
"N.	c #3C8CDD",
"O.	c #89C4FF",
"P.	c #94C7F7",
"Q.	c #DBE5EA",
"R.	c #E1E9ED",
"S.	c #D1DADF",
"T.	c #EFF4F6",
"U.	c #7CBBF7",
"V.	c #2E75BC",
"W.	c #67B2FC",
"X.	c #BAD6ED",
"Y.	c #D8E3E8",
"Z.	c #E0E9ED",
"`.	c #D5DFE4",
" +	c #30AEFE",
".+	c #EDF2F5",
"++	c #B4D3ED",
"@+	c #4CA5FC",
"#+	c #7FBCF5",
"$+	c #D5E1E7",
"%+	c #DCE6EB",
"&+	c #F2F6F8",
"*+	c #75B7F5",
"=+	c #276FB7",
"-+	c #3C9DFF",
";+	c #89BFF1",
">+	c #D2DFE5",
",+	c #E3EBEF",
"'+	c #65BFF9",
")+	c #47B6FC",
"!+	c #6AC2FC",
"~+	c #88BFF1",
"{+	c #3399FF",
"]+	c #3B9DFD",
"^+	c #86BDF0",
"/+	c #D0DDE4",
"(+	c #D7E2E8",
"_+	c #85BDF0",
":+	c #399CFD",
"<+	c #2D96FF",
"[+	c #6CB2F4",
"}+	c #A9CCE9",
"|+	c #CEDCE3",
"1+	c #D0DEE4",
"2+	c #DFE8ED",
"3+	c #6BB1F4",
"4+	c #2B95FF",
"5+	c #3A9CFC",
"6+	c #68B0F4",
"7+	c #8FC1ED",
"8+	c #AECEE7",
"9+	c #C4D8E3",
"0+	c #67AFF4",
"a+	c #399BFC",
"b+	c #1C69B7",
"c+	c #2285E8",
"d+	c #238BF3",
"e+	c #2590FC",
"f+	c #2490FC",
"g+	c #2289F0",
"h+	c #1F7FDD",
"i+	c #1B6CBC",
"                                                ",
"                . + @ # $ % &                   ",
"            * = - ; > , , ' ) ! ~               ",
"          { ] ^ / / / / / / / / ( _ :           ",
"        = < [ [ [ [ } | 1 [ 2 2 [ [ 3 4         ",
"      _ 5 6 6 7 6 8 9 0 a b c d e 7 6 f g       ",
"    h i j j k l m n o p p p q r s t k j u       ",
"    v w x y z A B C p p p p p D E F k F G H     ",
"  I J K L M N O p p P P p Q R p p S T F U V     ",
"  W X Y Z `  .p p ..+.@.p #.$.%.p p &.*.=.-.;.  ",
"  >.,.'.).Y p a !.=.~.{.p #.].j ^./.p (.y _.:.  ",
"  <.[.}.|.|.1.2.y 3.4.5.p {.y y U 6.7.8.U 9.0.  ",
"  a.b.c.d.e.f.U g.h.i.j.p {.x U ).~.k.l.4.m.n.  ",
"  o.p.q.r.s.t.u.v.w.x.y.p z.A.e.v.B.t.u.v.C.D.  ",
"  E.F.G.G.G.H.G.G.r.I.J.p K.L.h.G.G.G.H.G.M.N.  ",
"  O.P.Q.Q.Q.Q.Q.Q.R.S.y.p K.K T.Q.Q.Q.Q.Q.U.V.  ",
"    W.X.Y.Y.Y.Y.Y.Z.`.y.p  +e..+Y.Y.Y.Y.++@+    ",
"      #+$+$+$+$+$+q.%+j.p K.&+}.$+$+$+$+*+=+    ",
"      -+;+>+>+>+>+Z.,+'+)+!+h.Z.>+>+>+~+{+      ",
"        ]+^+/+/+/+(+s.t.4.Y s.(+/+/+_+:+        ",
"          <+[+}+|+1+$+%+2+%+$+1+}+3+4+          ",
"              5+6+7+8+9+9+8+7+0+a+b+            ",
"                  c+d+e+f+g+h+i+                ",
"                                                ",
"                                                "};
