/* XPM */
static char * webservice_xpm[] = {
"48 48 537 2",
"  	c None",
". 	c #000000",
"+ 	c #3A3A3A",
"@ 	c #1F1F1F",
"# 	c #2F2F2F",
"$ 	c #666666",
"% 	c #A1A1A1",
"& 	c #EAEAEA",
"* 	c #DBDBDB",
"= 	c #2E2E2E",
"- 	c #676767",
"; 	c #A2A2A2",
"> 	c #DDDDDD",
", 	c #EBEBEB",
"' 	c #222222",
") 	c #595959",
"! 	c #949494",
"~ 	c #CFCFCF",
"{ 	c #EDEDED",
"] 	c #ECECEC",
"^ 	c #717171",
"/ 	c #F6F6F6",
"( 	c #EEEEEE",
"_ 	c #6C6C6C",
": 	c #E0E0E0",
"< 	c #D9D9D9",
"[ 	c #E1E1E1",
"} 	c #DADADA",
"| 	c #E3E3E3",
"1 	c #DCDCDC",
"2 	c #E4E4E4",
"3 	c #DEDEDE",
"4 	c #DFDFDF",
"5 	c #E6E6E6",
"6 	c #E7E7E7",
"7 	c #F4F4F4",
"8 	c #343434",
"9 	c #6D6D6D",
"0 	c #E2E2E2",
"a 	c #E9E9E9",
"b 	c #F7F7F7",
"c 	c #F5F5F5",
"d 	c #B2B2B2",
"e 	c #2A2A2A",
"f 	c #0F181F",
"g 	c #243B4E",
"h 	c #335A7C",
"i 	c #2B547C",
"j 	c #224E7B",
"k 	c #0E243B",
"l 	c #03080E",
"m 	c #292929",
"n 	c #7C7C7C",
"o 	c #E5E5E5",
"p 	c #F0F0F0",
"q 	c #F3F3F3",
"r 	c #C8C8C8",
"s 	c #B7B7B7",
"t 	c #ADADAD",
"u 	c #455E6E",
"v 	c #86BADD",
"w 	c #94D2FC",
"x 	c #8BCCFB",
"y 	c #7EC3FA",
"z 	c #6CB7F9",
"A 	c #57A9F8",
"B 	c #4199F5",
"C 	c #3489E7",
"D 	c #215BA2",
"E 	c #0D274B",
"F 	c #1B1B1B",
"G 	c #999999",
"H 	c #F8F8F8",
"I 	c #F9F9F9",
"J 	c #FAFAFA",
"K 	c #D3D3D3",
"L 	c #C9C9C9",
"M 	c #C0C0C0",
"N 	c #2A383F",
"O 	c #99C7DE",
"P 	c #B3E6FE",
"Q 	c #B5E7FE",
"R 	c #B2E5FE",
"S 	c #AAE0FE",
"T 	c #9BD6FD",
"U 	c #87C9FB",
"V 	c #6FB9F9",
"W 	c #56A8F7",
"X 	c #3E96F3",
"Y 	c #3184E2",
"Z 	c #2770CE",
"` 	c #16478D",
" .	c #020A15",
"..	c #626262",
"+.	c #E8E8E8",
"@.	c #EFEFEF",
"#.	c #BCBCBC",
"$.	c #989898",
"%.	c #808080",
"&.	c #425348",
"*.	c #B0DFC4",
"=.	c #B0DEB7",
"-.	c #A7DCCE",
";.	c #A7DCCB",
">.	c #98D6BF",
",.	c #A8DAB1",
"'.	c #91D1A8",
").	c #A0D7B9",
"!.	c #7DC6B3",
"~.	c #68B5F0",
"{.	c #4DA2F7",
"].	c #378EED",
"^.	c #2C7AD8",
"/.	c #2165C2",
"(.	c #154CA3",
"_.	c #020C1D",
":.	c #555555",
"<.	c #C6C6C6",
"[.	c #AEAEAE",
"}.	c #8F8F8F",
"|.	c #838383",
"1.	c #929292",
"2.	c #304B32",
"3.	c #B9E1BB",
"4.	c #CEEACF",
"5.	c #CEEBD0",
"6.	c #CCEACE",
"7.	c #C8E8CA",
"8.	c #B4DFB7",
"9.	c #ADDCB0",
"0.	c #87CC8D",
"a.	c #82C986",
"b.	c #9AD49A",
"c.	c #82CA84",
"d.	c #56ABDA",
"e.	c #3081E0",
"f.	c #256CCA",
"g.	c #1A57B3",
"h.	c #0E3E94",
"i.	c #01091A",
"j.	c #818181",
"k.	c #CBCBCB",
"l.	c #8C8C8C",
"m.	c #9C9C9C",
"n.	c #A8A8A8",
"o.	c #B6B6B6",
"p.	c #1C272F",
"q.	c #8FD4CD",
"r.	c #A3DAB2",
"s.	c #D1ECD3",
"t.	c #CFEBD1",
"u.	c #CBE9CD",
"v.	c #BCE3BE",
"w.	c #71C274",
"x.	c #A4D8A6",
"y.	c #88CC8A",
"z.	c #74C584",
"A.	c #80C981",
"B.	c #58AFCB",
"C.	c #459DF6",
"D.	c #3387E5",
"E.	c #2871CF",
"F.	c #1C5BB8",
"G.	c #1045A1",
"H.	c #052B7B",
"I.	c #000209",
"J.	c #CACACA",
"K.	c #CECECE",
"L.	c #959595",
"M.	c #A5A5A5",
"N.	c #BBBBBB",
"O.	c #C1C1C1",
"P.	c #B0B0B0",
"Q.	c #8A8A8A",
"R.	c #719EBD",
"S.	c #98D8D2",
"T.	c #C4E6C6",
"U.	c #D2ECD4",
"V.	c #D0EBD2",
"W.	c #8DCE90",
"X.	c #8CCE9E",
"Y.	c #B4E0B5",
"Z.	c #8BCE8C",
"`.	c #80CCAB",
" +	c #70C1A7",
".+	c #5BB1C7",
"++	c #4AA0F7",
"@+	c #358AE9",
"#+	c #2974D2",
"$+	c #1D5EBB",
"%+	c #1248A4",
"&+	c #06328E",
"*+	c #01174A",
"=+	c #575757",
"-+	c #D1D1D1",
";+	c #B4B4B4",
">+	c #8E8E8E",
",+	c #1F303E",
"'+	c #95D2FC",
")+	c #99D4A9",
"!+	c #CAE9CC",
"~+	c #B3DFB4",
"{+	c #A8DAA8",
"]+	c #8DCE8D",
"^+	c #6CC095",
"/+	c #6DB8F9",
"(+	c #4CA1F7",
"_+	c #358BE9",
":+	c #2A75D2",
"<+	c #1E5FBB",
"[+	c #06338E",
"}+	c #022D8F",
"|+	c #00030A",
"1+	c #CDCDCD",
"2+	c #9B9B9B",
"3+	c #868686",
"4+	c #A3A3A3",
"5+	c #B1B1B1",
"6+	c #49769C",
"7+	c #7FC5CA",
"8+	c #C3E6C5",
"9+	c #C6E7C8",
"0+	c #B6E0B7",
"a+	c #B9E1BA",
"b+	c #AFDDB0",
"c+	c #A5D9A5",
"d+	c #7BC57B",
"e+	c #7EC77D",
"f+	c #57AEBA",
"g+	c #499FF6",
"h+	c #3589E8",
"i+	c #2973D1",
"j+	c #1D5DBA",
"k+	c #1147A3",
"l+	c #03329A",
"m+	c #011441",
"n+	c #848484",
"o+	c #9F9F9F",
"p+	c #ABABAB",
"q+	c #B8B8B8",
"r+	c #BFBFBF",
"s+	c #5D9FDA",
"t+	c #83C4A3",
"u+	c #BEE4BF",
"v+	c #C2E5C4",
"w+	c #C5E7C7",
"x+	c #C6E7C7",
"y+	c #C0E5C2",
"z+	c #B1DDB2",
"A+	c #A1D5A1",
"B+	c #AADBAB",
"C+	c #9FD7A0",
"D+	c #85C985",
"E+	c #3CA162",
"F+	c #54AACF",
"G+	c #439BF5",
"H+	c #3285E4",
"I+	c #2770CD",
"J+	c #1B5AB7",
"K+	c #1044A0",
"L+	c #05308D",
"M+	c #03329E",
"N+	c #012370",
"O+	c #494949",
"P+	c #D5D5D5",
"Q+	c #D4D4D4",
"R+	c #D8D8D8",
"S+	c #BDBDBD",
"T+	c #B3B3B3",
"U+	c #5CACF8",
"V+	c #85C4A8",
"W+	c #BBE2BC",
"X+	c #BDE3BF",
"Y+	c #ACDCAD",
"Z+	c #93CE93",
"`+	c #3D9B3D",
" @	c #73BEC4",
".@	c #75BDFA",
"+@	c #57A9F7",
"@@	c #3C94F1",
"#@	c #2F7FDD",
"$@	c #246AC7",
"%@	c #1955B1",
"&@	c #0D3F9B",
"*@	c #042F8D",
"=@	c #113F9D",
"-@	c #022C8B",
";@	c #3B3B3B",
">@	c #F1F1F1",
",@	c #C4C4C4",
"'@	c #BABABA",
")@	c #B5B5B5",
"!@	c #4CA2F7",
"~@	c #72B89A",
"{@	c #ADDCAE",
"]@	c #B1DEB2",
"^@	c #B4DFB5",
"/@	c #A3D8A4",
"(@	c #67B27D",
"_@	c #98D4FC",
":@	c #7FC3FA",
"<@	c #64B1F9",
"[@	c #489EF6",
"}@	c #2B77D5",
"|@	c #2063C0",
"1@	c #154EAA",
"2@	c #0A3995",
"3@	c #042F90",
"4@	c #174D9F",
"5@	c #0239B6",
"6@	c #F2F2F2",
"7@	c #D0D0D0",
"8@	c #CCCCCC",
"9@	c #3D95F2",
"0@	c #6DB6C2",
"a@	c #9AD29A",
"b@	c #A6D9A7",
"c@	c #A9DAA9",
"d@	c #A9DBAA",
"e@	c #6AB172",
"f@	c #71B8BD",
"g@	c #68B4F9",
"h@	c #4FA4F7",
"i@	c #3A92F0",
"j@	c #2F80DE",
"k@	c #256DCA",
"l@	c #1B59B6",
"m@	c #0B3897",
"n@	c #1652A2",
"o@	c #033FCB",
"p@	c #3387E6",
"q@	c #489AA5",
"r@	c #76B977",
"s@	c #9CD59C",
"t@	c #5FA771",
"u@	c #5EA89C",
"v@	c #59A488",
"w@	c #93D193",
"x@	c #5EAAB5",
"y@	c #74BCFA",
"z@	c #63B1F8",
"A@	c #4FA3F7",
"B@	c #3C95F2",
"C@	c #3284E3",
"D@	c #1F61BE",
"E@	c #154EAB",
"F@	c #0B3B97",
"G@	c #032E8E",
"H@	c #12489F",
"I@	c #144FA6",
"J@	c #02309C",
"K@	c #3C3C3C",
"L@	c #276ABC",
"M@	c #3184D8",
"N@	c #2B82A0",
"O@	c #8CCE8C",
"P@	c #8ECF8E",
"Q@	c #4C9A98",
"R@	c #69B5F9",
"S@	c #60ADDD",
"T@	c #55A158",
"U@	c #3E9097",
"V@	c #55A8F7",
"W@	c #479EF6",
"X@	c #3284E2",
"Y@	c #2A75D3",
"Z@	c #1854B0",
"`@	c #0F429E",
" #	c #05318D",
".#	c #083596",
"+#	c #1457A4",
"@#	c #104BAF",
"##	c #022D91",
"$#	c #4B4B4B",
"%#	c #16427D",
"&#	c #2E7FD2",
"*#	c #5FAA6B",
"=#	c #7FC87E",
"-#	c #60AD6B",
";#	c #6DB977",
">#	c #4A9958",
",#	c #47944A",
"'#	c #5CAE67",
")#	c #388E95",
"!#	c #3287BB",
"~#	c #2873D0",
"{#	c #1956B2",
"]#	c #1046A2",
"^#	c #073590",
"/#	c #032F91",
"(#	c #134BA0",
"_#	c #155AA5",
":#	c #0B44BE",
"<#	c #01184F",
"[#	c #888888",
"}#	c #07172E",
"|#	c #266ECB",
"1#	c #28749E",
"2#	c #449151",
"3#	c #69BB68",
"4#	c #6DC16C",
"5#	c #479A5F",
"6#	c #2E81C1",
"7#	c #3586A3",
"8#	c #40984C",
"9#	c #409E40",
"0#	c #1C657B",
"a#	c #093792",
"b#	c #032E8F",
"c#	c #0D3F9D",
"d#	c #185EA7",
"e#	c #1756A7",
"f#	c #0441CF",
"g#	c #00040D",
"h#	c #113E83",
"i#	c #33815F",
"j#	c #4AA14B",
"k#	c #58B856",
"l#	c #2A7680",
"m#	c #266ECC",
"n#	c #2067A7",
"o#	c #1C5F9E",
"p#	c #1B58B5",
"q#	c #0E429E",
"r#	c #0A399C",
"s#	c #1659A5",
"t#	c #1C63AA",
"u#	c #0D47B9",
"v#	c #012576",
"w#	c #4C4C4C",
"x#	c #B2C9B3",
"y#	c #8CB48E",
"z#	c #C0C5C0",
"A#	c #030D1E",
"B#	c #1146A2",
"C#	c #1B5AB6",
"D#	c #1A5A9A",
"E#	c #399839",
"F#	c #329345",
"G#	c #26814F",
"H#	c #2FA22D",
"I#	c #218F21",
"J#	c #1B832D",
"K#	c #177D20",
"L#	c #083B77",
"M#	c #07369E",
"N#	c #1453A3",
"O#	c #1E65AB",
"P#	c #124FAB",
"Q#	c #043DC2",
"R#	c #CFDBD0",
"S#	c #61B363",
"T#	c #6CC16C",
"U#	c #8FB291",
"V#	c #031537",
"W#	c #0F449F",
"X#	c #104788",
"Y#	c #196738",
"Z#	c #26A122",
"`#	c #219C1D",
" $	c #1C9519",
".$	c #188D15",
"+$	c #148412",
"@$	c #107A0F",
"#$	c #19771D",
"$$	c #135571",
"%$	c #1556A7",
"&$	c #0743C8",
"*$	c #000C27",
"=$	c #5B5B5B",
"-$	c #B9D0BA",
";$	c #65BD65",
">$	c #4DA94E",
",$	c #ACBDAD",
"'$	c #011645",
")$	c #032F8D",
"!$	c #06318D",
"~$	c #136A45",
"{$	c #1A9117",
"]$	c #188B15",
"^$	c #148512",
"/$	c #117F0F",
"($	c #0F7A0E",
"_$	c #1E8520",
":$	c #2E9031",
"<$	c #29842D",
"[$	c #186C41",
"}$	c #073EA7",
"|$	c #5C5C5C",
"1$	c #92BA93",
"2$	c #AAC1AB",
"3$	c #000F30",
"4$	c #022F94",
"5$	c #03329C",
"6$	c #053A7A",
"7$	c #128110",
"8$	c #107D0E",
"9$	c #158015",
"0$	c #1E8620",
"a$	c #2B8F2E",
"b$	c #2D8E30",
"c$	c #248527",
"d$	c #147416",
"e$	c #06430B",
"f$	c #010C1B",
"g$	c #5D5D5D",
"h$	c #FBFBFB",
"i$	c #C3C3C3",
"j$	c #011C58",
"k$	c #063C62",
"l$	c #0D740C",
"m$	c #0B740A",
"n$	c #0F770F",
"o$	c #238725",
"p$	c #218424",
"q$	c #167818",
"r$	c #0D6F0E",
"s$	c #015501",
"t$	c #002400",
"u$	c #5E5E5E",
"v$	c #FCFCFC",
"w$	c #ACACAC",
"x$	c #363636",
"y$	c #011501",
"z$	c #032F03",
"A$	c #033502",
"B$	c #023402",
"C$	c #013201",
"D$	c #012500",
"E$	c #000C00",
"F$	c #FDFDFD",
"G$	c #606060",
"H$	c #0E0E0E",
"I$	c #5F5F5F",
"J$	c #6E6E6E",
"K$	c #272727",
"L$	c #3F3F3F",
"                                                                                                ",
"                                                                                                ",
"                                                                                                ",
"                                                        . . + @                                 ",
"                                                  . # $ % & & * =                               ",
"                                          . @ - ; > , , , & & & * =                             ",
"                                    ' ) ! ~ { { ] ] ] , , , & & & * =                           ",
"                                    ^ / ( ( { { { ] ] ] , , , & & & * =                         ",
"                                    _ : / ( ( { { { ] ] ] , , , & & & * =                       ",
"                                    _ < : / ( ( { { { ] ] ] , , , & & & * =                     ",
"                                    _ < < : / ( ( { { { ] ] ] , , , & & & * =                   ",
"                                    _ < < < : / ( ( { { { ] ] ] , , , & & & * =                 ",
"                                    _ < < < < : / ( ( { { { ] ] ] , , , & & & * =               ",
"                                    _ < < < < < [ / ( ( { { { ] ] ] , , , & & & * =             ",
"                                    _ < < < < } * | / ( ( { { { ] ] ] , , , & & & * =           ",
"                                    _ < < < } * 1 > 2 / ( ( { { { ] ] ] , , , & & & * =         ",
"                                    _ < < } * 1 > 3 4 5 / ( ( { { { ] ] ] , , , & & & * @       ",
"                                    _ < } * 1 > 3 4 : [ 6 / ( ( { { { ] ] ] , , , & , 7 8       ",
"                            . . .   9 } * 1 > 3 4 : [ 0 | a b ( ( { { { ] ] ] , ] c 0 d e       ",
"                    . . f g h i j k l m n ~ 3 4 : [ 0 | 2 o , b ( ( { { { p q q 6 r s t e       ",
"                . . u v w x y z A B C D E F G : [ 0 | 2 o 5 6 ] H / I J b ( 0 K L M t t e       ",
"              . N O P Q R S T U V W X Y Z `  ...0 | 2 o 5 6 +.a p ] J H @.o 1 K #.$.%.t e       ",
"            . &.*.=.-.;.>.,.'.).!.~.{.].^./.(._.:.2 o 5 6 +.a & p ] J H } <.[.}.%.|.1.t e       ",
"          . 2.3.4.5.6.7.8.9.0.a.b.c.d.X e.f.g.h.i.j.5 6 +.a & , p ] k.%.%.%.l.m.n.s o.t e       ",
"          p.q.r.s.s.t.u.v.w.x.y.z.A.B.C.D.E.F.G.H.I.J.+.a & , ] p ] K.L.M.N.O.<.r P.Q.t e       ",
"        . R.S.T.s.U.V.6.W.X.Y.Z.`. +.+++@+#+$+%+&+*+=+a & , ] { p ] J H @.o -+;+>+%.%.t e       ",
"        ,+'+)+6.t.V.5.!+T.v.~+{+]+^+/+(+_+:+<+%+[+}+|+1+, ] { ( p ] & M.2+3+%.3+1.4+5+t e       ",
"      . 6+7+8+7.u.6.!+9+0+a+b+c+d+e+f+g+h+i+j+k+&+l+m+n+] { ( @.p ] N.|.}.o+p+q+r+r+s t e       ",
"      . s+t+u+v+w+x+T.y+z+A+B+C+D+E+F+G+H+I+J+K+L+M+N+O+{ ( @.p p ] p P+Q+R+< K L S+T+t e       ",
"      . U+V+0+W+X+u+v.a+~+Y+Z+`+ @.@+@@@#@$@%@&@*@=@-@;@( @.p >@p ] J H @.o Q+,@'@'@)@t e       ",
"      . !@~@{@]@^@Y.~+b+B+/@(@_@:@<@[@_+}@|@1@2@3@4@5@. @.p >@6@p ] 6 -+7@r 8@K.L M )@t e       ",
"      . 9@0@a@b@c@d@{+c+C+e@f@y g@h@i@j@k@l@G.&+m@n@o@. p >@6@q p ] Q+H @.o 1 K L M )@t e       ",
"      . p@q@r@b.s@t@u@v@w@x@y@z@A@B@C@i+D@E@F@G@H@I@J@K@>@6@q 7 p ] Q+H @.o 1 K L M )@t e       ",
"      . L@M@N@O@P@Q@R@S@T@U@V@W@i@X@Y@/.Z@`@ #.#+#@###$#6@q 7 7 p ] Q+H @.o 1 K L M )@t e       ",
"      . %#Y@&#*#=#-#;#>#,#'#)#!##@~#/.{#]#^#/#(#_#:#<#[#q 7 7 / p ] Q+H @.o 1 K L M )@t e       ",
"        }#|@|#1#2#3#4#5#6#7#8#9#0#D@Z@G.a#b#c#d#e#f#g#Q+7 7 / b p ] Q+H @.o 1 K L M )@t e       ",
"        . h#J+|@$@i#j#k#l#m#n#o#p#1@q#^#b#r#s#t#u#v#w#7 7 / b b p ] Q+H @.o x#y#z#M )@t e       ",
"          A#B#E@%@C#D#E#F#G#H#I#J#K#L#/#M#N#O#P#Q#g#P+7 / b b H p ] Q+H @.R#S#T#U#M )@t e       ",
"          . V#2@&@W#B#X#Y#Z#`# $.$+$@$#$$$t#%$&$*$. =$/ b b H I p ] Q+H @.-$;$>$,$M )@t e       ",
"            . '$)$L+!$&+~${$]$^$/$($_$:$<$[$}$<#.   . |$b H I J p ] Q+H @.o 1$2$L N.T+t e       ",
"              . 3$4$5$6$^$7$8$9$0$a$b$c$d$e$f$.       . g$I J h$p ] Q+H @.o Q+i$'@#.s t @       ",
"                . |+j$k$l$m$n$o$p$q$r$s$t$.             . u$h$v$p ] Q+-+7@r 8@K.L M w$x$.       ",
"                    . . y$z$A$B$C$D$E$. .                 . u$F$p ] J H @.o 1 K P.G$H$          ",
"                            . . .                           . I$p ] J H -+w$J$K$.               ",
"                                                              . # L$. . . .                     ",
"                                                                                                ",
"                                                                                                ",
"                                                                                                "};
