/* XPM */
static char * xml_xpm[] = {
"24 24 47 1",
" 	c None",
".	c #B5C1CC",
"+	c #6A747A",
"@	c #4B6983",
"#	c #1E2A35",
"$	c #B3C0CA",
"%	c #FFFFFF",
"&	c #AAB8C4",
"*	c #98A9B8",
"=	c #B4C0CB",
"-	c #BFCAD3",
";	c #AFBCC8",
">	c #537088",
",	c #E8ECEF",
"'	c #FBFCFC",
")	c #7F95A7",
"!	c #F6F7F9",
"~	c #E7EBEE",
"{	c #526F88",
"]	c #FDFDFE",
"^	c #698297",
"/	c #5D788F",
"(	c #F9FAFB",
"_	c #7B91A4",
":	c #FEFEFE",
"<	c #768DA1",
"[	c #E3E8EC",
"}	c #C5CED7",
"|	c #B4C1CB",
"1	c #D9DFE5",
"2	c #DAE0E5",
"3	c #8EA0B1",
"4	c #8DA0B0",
"5	c #8499AA",
"6	c #899CAD",
"7	c #4D6B84",
"8	c #59748C",
"9	c #EFF2F4",
"0	c #F0F2F4",
"a	c #6E869B",
"b	c #F7F8F9",
"c	c #F0F3F5",
"d	c #59758D",
"e	c #C3CDD5",
"f	c #8A9DAE",
"g	c #9AABB9",
"h	c #C3CDD6",
"                        ",
"                        ",
"                        ",
".......................+",
".@@@@@@@@@@@@@@@@@@@@@@#",
".@@@@@@@@@@@@@@@@@@@@@@#",
".@@@@@@@@@@@@@@@@@@@@@@#",
".@@@@@@@@@@@@@@@@@@@@@@#",
".@@@@@@@@@@@@@@@@@@@@@@#",
".@$%&@*%=@%-@@;%@%%@@@@#",
".@>,')!~{@%]^/(%@%%@@@@#",
".@@_%::<@@%[}|[%@%%@@@@#",
".@@@1%2@@@%3:'4%@%%@@@@#",
".@@5%(%6@@%7~~7%@%%@@@@#",
".@890abcd@%@@@@%@%%@@@@#",
".@e%f@g%h@%@@@@%@%%%%%@#",
".@@@@@@@@@@@@@@@@@@@@@@#",
".@@@@@@@@@@@@@@@@@@@@@@#",
".@@@@@@@@@@@@@@@@@@@@@@#",
".@@@@@@@@@@@@@@@@@@@@@@#",
"+#######################",
"                        ",
"                        ",
"                        "};
