/* XPM */
static char * ico_clear_xpm[] = {
"17 17 5 1",
" 	c None",
".	c #000000",
"+	c #FFFFFF",
"@	c #CC0000",
"#	c #FFCC00",
"                 ",
"                 ",
"                 ",
"     .     .     ",
"    .+.   .+.    ",
"   .+++. .+++.   ",
"    .+++.+++.    ",
"     .+++++.     ",
"@#@#@#.+++.      ",
"     .+++++.     ",
"    .+++.+++.    ",
"   .+++. .+++.   ",
"    .+.   .+.    ",
"     .     .     ",
"                 ",
"                 ",
"                 "};
