/* XPM */
static char * page_blank_xpm[] = {
"36 36 117 2",
"  	c None",
". 	c #141414",
"+ 	c #3B3B3B",
"@ 	c #404040",
"# 	c #545454",
"$ 	c #555555",
"% 	c #F6F6F6",
"& 	c #FFFFFF",
"* 	c #FAFAFA",
"= 	c #D6D6D6",
"- 	c #878787",
"; 	c #242424",
"> 	c #FEFEFE",
", 	c #E6E6E6",
"' 	c #F0F0F0",
") 	c #A0A0A0",
"! 	c #000000",
"~ 	c #F8F8F8",
"{ 	c #D8D8D8",
"] 	c #F5F5F5",
"^ 	c #979797",
"/ 	c #252525",
"( 	c #FDFDFD",
"_ 	c #F7F7F7",
": 	c #C9C9C9",
"< 	c #E0E0E0",
"[ 	c #888888",
"} 	c #212121",
"| 	c #FDFDFC",
"1 	c #FCFCFC",
"2 	c #BFBFBF",
"3 	c #E1E1E1",
"4 	c #C8C8C8",
"5 	c #C2C2C2",
"6 	c #8E8E8E",
"7 	c #FCFCFB",
"8 	c #F6F6F5",
"9 	c #A9A9A9",
"0 	c #666666",
"a 	c #5D5D5D",
"b 	c #565656",
"c 	c #5A5A5A",
"d 	c #848484",
"e 	c #C7C7C6",
"f 	c #A6A6A6",
"g 	c #9A9A9A",
"h 	c #6C6C6C",
"i 	c #FBFBFB",
"j 	c #FBFBFA",
"k 	c #F9F9F9",
"l 	c #F7F7F6",
"m 	c #F3F3F2",
"n 	c #E9E9E9",
"o 	c #E5E5E4",
"p 	c #AEAEAE",
"q 	c #F8F8F7",
"r 	c #F5F5F4",
"s 	c #F4F4F4",
"t 	c #F3F3F3",
"u 	c #FAFAF9",
"v 	c #F9F9F8",
"w 	c #F4F4F3",
"x 	c #F2F2F1",
"y 	c #C4C4C4",
"z 	c #F2F2F2",
"A 	c #F1F1F0",
"B 	c #FEFEFD",
"C 	c #F2F2F0",
"D 	c #F0F0EF",
"E 	c #EFEFEE",
"F 	c #EFEFED",
"G 	c #C3C3C3",
"H 	c #F1F1F1",
"I 	c #EEEEEE",
"J 	c #EEEEED",
"K 	c #EEEEEC",
"L 	c #EDEDEC",
"M 	c #EFEFEF",
"N 	c #ECECEB",
"O 	c #C3C3C2",
"P 	c #EDEDEB",
"Q 	c #ECECEA",
"R 	c #F0F0EE",
"S 	c #EDEDED",
"T 	c #EBEBEA",
"U 	c #EAEAE9",
"V 	c #EAEAEA",
"W 	c #E9E9E8",
"X 	c #E9E9E7",
"Y 	c #C2C2C1",
"Z 	c #ECECEC",
"` 	c #EAEAE8",
" .	c #EBEBE9",
"..	c #E8E8E7",
"+.	c #E8E8E6",
"@.	c #E7E7E6",
"#.	c #E6E6E5",
"$.	c #C1C1C1",
"%.	c #E7E7E5",
"&.	c #E6E6E4",
"*.	c #E5E5E3",
"=.	c #E4E4E3",
"-.	c #E4E4E2",
";.	c #C1C1C0",
">.	c #E3E3E1",
",.	c #C0C0C0",
"'.	c #E2E2E1",
").	c #E2E2E0",
"!.	c #E3E3E2",
"~.	c #E1E1DF",
"{.	c #C0C0BF",
"].	c #E2E2DF",
"^.	c #E4E4E1",
"/.	c #B6B6B5",
"(.	c #323232",
"_.	c #C5C5C4",
":.	c #979796",
"      . + @ @ @ @ @ @ @ @ @ @ @ @ @ @ @ @ @ @ @ @ # $                   ",
"      + % & & & & & & & & & & & & & & & & & & & & * = - ;               ",
"      @ & & & & & & & & & & & > > > > > > > > > > * , ' ) !             ",
"      @ & & & & & & & & & > > > > > > > > > > > > ~ { & ] ^ /           ",
"      @ & & & & & & & > > > > > > > > > > > > ( ( _ : ( ( < [ }         ",
"      @ & & & & & & & > > > > > > > > ( ( ( | 1 1 % 2 3 = 4 5 6         ",
"      @ & & & & & & & > > > > ( ( ( ( ( | 1 1 1 7 8 9 0 a b c d !       ",
"      @ & & & & & > > > > ( ( 1 1 1 1 1 1 1 7 * * _ ' = e f g h !       ",
"      @ & & & > > > > ( | 1 1 1 1 7 i i i j * k k ~ ~ l m n o p !       ",
"      @ & > > > > ( ( 1 1 1 7 i i i j j k k ~ q l % % ] r s t 5 !       ",
"      @ > > ( ( ( 1 1 7 i i j * * u k v ~ q % 8 ] r r w t m x y !       ",
"      @ > | 1 1 1 1 1 j * * * u v ~ ~ q % 8 ] s s w m m z x A y !       ",
"      @ B 1 1 7 i i i * u u v ~ ~ _ 8 ] r s w w m z x C A ' D y !       ",
"      @ ( 7 i i i j * v ~ ~ _ l % r r s t m m x x x A ' D E F G !       ",
"      @ ( * * * * u u _ _ l ] r s w t m m x x H A D D I J K L G !       ",
"      @ 1 * u k k k k % ] r s w m m m x H A A D M J J K L L N O !       ",
"      @ 1 k v v ~ q _ s w w m z z x A ' D D E J J K L P N Q Q O !       ",
"      @ 1 ~ ~ q l l % t m z x x A ' D D R J S L L P N Q T T U 5 !       ",
"      @ i l l % % ] r x x H A D D D E K L L L P Q Q T V U W X Y !       ",
"      @ * % 8 ] r w m A A D R R E J L L Z N N Q T U ` W W X X Y !       ",
"      @ * r w w t m z D E E E J L N N N N T  . .W W ......+.+.Y !       ",
"      @ k w m z x x A E I L L P N N T T T  .W X ......+.@.@.#.$.!       ",
"      @ ~ x x A A D D L L P N Q T T  .U ` X X +.+.+.@.%.#.&.o $.!       ",
"      @ l J P P N T T ` ....+.@.@.@.%.%.&.o *.*.*.=.=.-.-.-.-.;.!       ",
"      @ 8 N Q T T T  .+.+.@.@.%.%.#.o o *.*.=.=.=.-.-.-.-.-.>.,.!       ",
"      @ r T V  .U U ` @.%.%.#.&.&.*.*.*.=.=.-.-.-.-.-.-.>.>.'.,.!       ",
"      @ r U U ` W W ..%.%.&.*.*.*.*.-.-.-.-.-.-.-.>.>.>.).).).,.!       ",
"      @ w W W W ..+.@.&.*.*.*.*.-.-.-.-.-.!.!.!.>.>.>.).).).~.{.!       ",
"      @ w ....@.@.%.%.*.*.*.=.-.-.-.-.!.>.>.>.>.'.).).].~.~.~.{.!       ",
"      @ t @.%.%.#.#.#.-.-.-.-.-.>.>.>.>.>.>.).).).~.~.~.~.~.~.{.!       ",
"      @ m #.#.&.&.&.*.-.-.-.-.>.>.>.>.>.>.).).).~.~.~.~.~.~.~.{.!       ",
"      + n &.&.*.*.-.-.-.^.>.>.>.>.>.>.).).).~.~.~.~.~.~.~.~.~./.!       ",
"      (._.$.$.;.;.;.;.;.;.;.;.;.;.,.,.,.,.,.,.,.,.,.,.,.,.,./.:.!       ",
"        ! ! ! ! ! ! ! ! ! ! ! ! ! ! ! ! ! ! ! ! ! ! ! ! ! ! ! !         ",
"                                                                        ",
"                                                                        "};
